<?xml version="1.0" encoding="UTF-8" standalone="no"?>
<svg
   xmlns:dc="http://purl.org/dc/elements/1.1/"
   xmlns:cc="http://creativecommons.org/ns#"
   xmlns:rdf="http://www.w3.org/1999/02/22-rdf-syntax-ns#"
   xmlns:svg="http://www.w3.org/2000/svg"
   xmlns="http://www.w3.org/2000/svg"
   id="svg45"
   xml:space="preserve"
   style="enable-background:new 0 0 223 38;"
   viewBox="0 0 223 38"
   y="0px"
   x="0px"
   version="1.1"><metadata
     id="metadata51"><rdf:RDF><cc:Work
         rdf:about=""><dc:format>image/svg+xml</dc:format><dc:type
           rdf:resource="http://purl.org/dc/dcmitype/StillImage" /><dc:title></dc:title></cc:Work></rdf:RDF></metadata><defs
     id="defs49" /><style
     id="style2"
     type="text/css">
	.st0{fill:#F3C7CA;}
	.st1{fill:#EDEDED;}
	.st2{fill:#E0D7D1;}
	.st3{opacity:0.3;}
	.st4{fill:#FFFFFF;}
	.st5{fill:none;stroke:#000000;stroke-width:3;stroke-miterlimit:10;}
	.st6{fill:none;stroke:#FFFFFF;stroke-miterlimit:10;}
	.st7{fill:#EEA2AA;}
	.st8{fill:#666666;}
	.st9{fill:#949494;}
	.st10{fill:#EDEEEB;}
	.st11{fill:none;stroke:#666666;stroke-miterlimit:10;}
	.st12{fill:none;stroke:#000000;stroke-miterlimit:10;}
	.st13{fill:none;stroke:#0000FF;stroke-miterlimit:10;}
	.st14{fill:#0000FF;}
	.st15{fill:#C7C7C7;}
	.st16{opacity:0.5;}
	.st17{fill:#1D1910;}
	.st18{fill:#808080;}
	.st19{fill:none;stroke:#000000;stroke-width:4;stroke-miterlimit:10;}
	.st20{fill:none;stroke:#FFFFFF;stroke-width:4;stroke-miterlimit:10;}
	.st21{fill:none;stroke:#EDEDED;stroke-miterlimit:10;}
	.st22{fill:none;stroke:#F3C7CA;stroke-width:4;stroke-miterlimit:10;}
	.st23{display:none;}
	.st24{display:inline;}
	.st25{display:inline;fill:#FFFFFF;}
	.st26{display:inline;fill:none;stroke:#000000;stroke-miterlimit:10;}
	.st27{display:inline;fill:none;stroke:#000000;stroke-width:3;stroke-miterlimit:10;}
	.st28{fill:#00FF00;}
	.st29{display:inline;fill:none;}
	.st30{display:inline;opacity:0.5;}
	.st31{display:inline;fill:#E4C9C0;}
	.st32{clip-path:url(#SVGID_30_);}
	.st33{fill:none;stroke:#6F7267;stroke-miterlimit:10;}
	.st34{display:inline;fill:#EDEDED;}
	.st35{fill:none;stroke:#949494;stroke-miterlimit:10;}
	.st36{fill:none;stroke:#0000FF;stroke-width:2;stroke-miterlimit:10;}
	.st37{fill:none;stroke:#000000;stroke-width:2;stroke-miterlimit:10;}
	.st38{fill:none;stroke:#000000;stroke-width:0.9663;stroke-miterlimit:10;}
	.st39{fill:none;stroke:#000000;stroke-width:3.0031;stroke-miterlimit:10;}
	.st40{fill:none;stroke:#000000;stroke-width:1.3937;stroke-miterlimit:10;}
	.st41{fill:none;stroke:#000000;stroke-width:1.3937;stroke-miterlimit:10;stroke-dasharray:2.0026,2.0026;}
	.st42{fill:#C7C7C7;stroke:#0000FF;stroke-width:2.1585;stroke-miterlimit:10;}
	.st43{fill:#AEAEAE;}
</style><g
     transform="translate(1.5,1.25)"
     style="fill:#fbfbfb;fill-opacity:1"
     id="ALL"><g
       style="fill:#fbfbfb;fill-opacity:1"
       id="g24"><path
         style="fill:#fbfbfb;fill-opacity:1"
         id="path4"
         d="M 3.5,1.2 H 0 V 0.6 h 10.2 c 5.3,0 9.5,1.8 9.5,7 0,5 -4.8,7 -9.1,7 -1.2,0 -2.7,-0.2 -3.4,-0.6 v 11.3 h 3.7 v 0.6 H 0 v -0.6 h 3.5 z m 3.7,12 C 7.8,13.6 8.8,14 10,14 12.4,14 15.8,12.7 15.8,7.9 15.8,3.2 13.6,1.2 9.4,1.2 H 7.2 Z"
         class="st4" /><path
         style="fill:#fbfbfb;fill-opacity:1"
         id="path6"
         d="M 24.7,1.2 H 21.1 V 0.6 h 11 c 4.1,0 8.6,0.9 8.6,6.4 0,4.4 -5.1,5.5 -7.7,5.9 V 13 c 4.1,0.4 6.3,1.3 6.9,6 l 0.5,4.4 c 0.2,2.1 1.2,2.2 1.8,2.2 0.6,0 1.1,-0.2 1.5,-0.3 l 0.2,0.5 C 43.2,26 42.3,26.3 41,26.3 36.6,26.3 36.4,24 35.9,19.8 L 35.6,17.6 C 35.4,15.3 34.7,13.3 30.7,13.3 H 28.4 V 25.4 H 32 V 26 H 21.1 v -0.6 h 3.6 V 1.2 Z m 3.6,11.4 h 1.8 c 4.2,0 6.7,-1.5 6.7,-5.6 0,-2.9 -0.9,-5.8 -6,-5.8 h -2.5 z"
         class="st4" /><path
         style="fill:#fbfbfb;fill-opacity:1"
         id="path8"
         d="M 58.1,17.7 H 50.4 L 49,22.2 c -0.3,0.7 -0.5,1.6 -0.5,2.2 0,0.5 0.4,0.9 1.6,0.9 H 52 v 0.6 h -7.4 v -0.6 h 1.2 c 1.1,0 1.6,-0.1 2.3,-2.1 L 55.6,0 H 56 l 8.7,25.3 h 3 v 0.6 H 57.2 v -0.6 h 3.5 z M 54.2,6.2 v 0 l -3.6,10.9 h 7.3 z"
         class="st4" /><path
         style="fill:#fbfbfb;fill-opacity:1"
         id="path10"
         d="M 71.9,1.2 H 68.5 V 0.6 h 11.2 c 9.6,0 12.2,7.9 12.2,12.6 0,7.8 -4.8,12.6 -12.2,12.6 H 68.4 v -0.6 h 3.4 v -24 z m 3.6,24.1 h 3.1 c 3.2,0 9.2,-1.2 9.2,-12 0,-6.1 -1.8,-12 -10.6,-12 h -1.7 z"
         class="st4" /><path
         style="fill:#fbfbfb;fill-opacity:1"
         id="path12"
         d="M 104.6,17.7 H 97 l -1.5,4.5 c -0.2,0.7 -0.6,1.6 -0.6,2.2 0,0.5 0.4,0.9 1.6,0.9 h 1.9 v 0.6 H 91 v -0.6 h 1.2 c 1.1,0 1.6,-0.1 2.3,-2.1 L 102.1,0 h 0.4 l 8.7,25.3 h 3 v 0.6 h -10.5 v -0.6 h 3.5 z M 100.8,6.2 v 0 l -3.6,10.9 h 7.3 z"
         class="st4" /><path
         style="fill:#fbfbfb;fill-opacity:1"
         id="path14"
         d="M 143.3,18.3 H 140 v -0.6 h 10 v 0.6 h -2.8 v 4.3 c -1.2,0.9 -4.2,3.8 -9.7,3.8 -6.4,0 -11.3,-4.7 -11.3,-13.2 0,-7.4 5.3,-13.2 11.3,-13.2 3.9,0 5.7,2.4 6.9,2.4 1.1,0 1.2,-0.9 1.2,-1.8 h 0.6 v 7.7 h -0.6 c -0.1,-3.8 -3.7,-7.8 -8.1,-7.8 -6.4,0 -7.2,7.9 -7.2,12.6 0,4.6 0.9,12.6 7.2,12.6 3.4,0 5.8,-1.1 5.8,-4.4 z"
         class="st4" /><path
         style="fill:#fbfbfb;fill-opacity:1"
         id="path16"
         d="m 153.9,11.7 h -3 v -0.6 h 3 c 1.1,0 2.3,-0.1 3,-0.8 v 4.2 h 0.1 c 0.4,-1.6 1.7,-4.2 4.6,-4.2 1.3,0 2.4,0.9 2.4,2.1 0,0.9 -0.6,1.7 -1.6,1.7 -1.2,0 -1.6,-0.6 -1.6,-1.6 0,-0.8 0.4,-1.3 0.8,-1.5 -0.2,-0.1 -0.3,-0.1 -0.5,-0.1 -1.5,0 -4.1,2.3 -4.1,7 v 7.3 h 3.3 v 0.6 H 151 v -0.6 h 3 V 11.7 Z"
         class="st4" /><path
         style="fill:#fbfbfb;fill-opacity:1"
         id="path18"
         d="m 173.1,10.3 c 4.6,0 7.6,3.8 7.6,8 0,4.1 -3,8 -7.6,8 -4.6,0 -7.6,-3.8 -7.6,-8 -0.1,-4.1 2.9,-8 7.6,-8 z m 4.1,6.6 c 0,-3.1 -0.1,-6 -4.2,-6 -4,0 -4.2,2.9 -4.2,6 v 2.8 c 0,3.1 0.1,6 4.2,6 4,0 4.2,-2.9 4.2,-6 z"
         class="st4" /><path
         style="fill:#fbfbfb;fill-opacity:1"
         id="path20"
         d="m 185.5,11.7 h -2.9 v -0.6 h 2.9 c 1.1,0 2.3,-0.1 3,-0.8 v 12.8 c 0,1.6 0.9,2.5 2.2,2.5 2.5,0 4.7,-2.8 4.7,-5.5 v -8.5 h -2.8 V 11 h 2.8 c 1.2,0 2.3,-0.1 3,-0.8 v 14.9 h 2.9 v 0.6 h -5.9 v -3.3 h -0.1 c -0.3,0.8 -1.8,3.7 -5,3.7 -3.6,0 -4.9,-1.9 -4.9,-4 V 11.7 Z"
         class="st4" /><path
         style="fill:#fbfbfb;fill-opacity:1"
         id="path22"
         d="m 204.8,11.7 h -2.5 v -0.6 h 2.5 c 1.1,0 2.3,-0.1 3,-0.8 V 14 h 0.1 c 0.6,-1.7 2.4,-3.7 5,-3.7 4.3,0 7.1,4.4 7.1,8 0,4.2 -2.9,8 -7.4,8 -2.5,0 -4.1,-1.8 -4.7,-3.1 h -0.1 v 11.7 h 2.8 v 0.6 h -8.3 v -0.6 h 2.5 z m 3,9 c 0,2.8 2.1,5 4.8,5 3.5,0 4,-2 4,-7.4 0,-4.9 -0.5,-7.4 -3.7,-7.4 -3,0 -5,3 -5,5.6 v 4.2 z"
         class="st4" /></g></g><g
     class="st23"
     id="sticky_2" /><g
     class="st23"
     id="search" /><g
     id="MENU_TOP_1" /><g
     class="st23"
     id="MENU_TOP_2" /><g
     class="st23"
     id="MENU_TOP_3" /><g
     class="st23"
     id="mouse_over_News" /><g
     class="st23"
     id="MO_BRANDS_1" /><g
     class="st23"
     id="MO_BRANDS_2-1" /><g
     class="st23"
     id="MO_BRANDS_2-2" /><g
     class="st23"
     id="MO_BRANDS_3" /><g
     class="st23"
     id="MO_BRANDS_4" /><g
     class="st23"
     id="INVESTORS-2" /><g
     class="st23"
     id="INVESTORS-share_graph" /><g
     class="st23"
     id="MENU_HAMB" /><g
     class="st23"
     id="MENU_HAMB_2" /><g
     class="st23"
     id="MENU_HAMB_3" /><g
     id="mouse_over_New_perspective" /><g
     class="st23"
     id="GRID_18" /></svg>