<?xml version="1.0" encoding="UTF-8"?>
<svg id="Layer_2" data-name="Layer 2" xmlns="http://www.w3.org/2000/svg" viewBox="0 0 1920 202.64">
  <defs>
    <style>
      .cls-1 {
        stroke-width: 0px;
      }
    </style>
  </defs>
  <g id="Layer_1-2" data-name="Layer 1">
    <g>
      <path class="cls-1" d="m131.02,195.87c4.36,4.38,9.95,6.77,15.81,6.77h.34c5.67-.08,10.91-2.42,14.69-6.5l124.27-130.27c6.4-6.96,8.16-15.77,4.72-23.58-3.4-7.71-11.25-12.89-19.49-12.89h-.05l-41.93-.02v15.94l41.93.03h.01c1.97,0,4.08,1.45,4.94,3.38.86,1.95.23,4.09-1.76,6.26l-124.23,130.23c-1.14,1.21-2.45,1.48-3.36,1.51-1.55.01-3.23-.71-4.48-1.98L17.14,53.9l-.12-.12c-1.35-1.35-1.27-3.58-.61-5.21.5-1.21,1.83-3.27,4.91-3.27h119.36s0,25.75,0,25.75c0,3.3,3.98,4.67,5.96,2.68l35.31-33.81c1.58-1.57,1.56-3.89.11-5.23L146.93,1.16c-2.94-2.69-6.25-.22-6.24,2.43v25.78s-119.36-.03-119.36-.03c-8.76,0-16.29,5.03-19.64,13.13-3.27,7.91-1.71,16.73,4,22.51l125.33,130.89Z"/>
      <g>
        <g>
          <path class="cls-1" d="m655.21,151.93c1.72,3.3,4.03,5.97,6.89,8.03,2.86,2.04,6.23,3.56,10.09,4.54,3.85.99,7.86,1.5,11.99,1.5,2.79,0,5.79-.24,8.98-.7,3.21-.46,6.2-1.35,8.99-2.68,2.79-1.31,5.13-3.13,6.99-5.44,1.87-2.3,2.79-5.25,2.79-8.81,0-3.83-1.23-6.93-3.7-9.31-2.46-2.37-5.7-4.36-9.68-5.93-4-1.59-8.53-2.98-13.59-4.16-5.06-1.19-10.19-2.52-15.38-3.96-5.33-1.32-10.52-2.94-15.58-4.86-5.07-1.91-9.59-4.38-13.59-7.42-4-3.05-7.22-6.84-9.68-11.39-2.48-4.56-3.7-10.07-3.7-16.54,0-7.26,1.56-13.56,4.69-18.92,3.13-5.34,7.22-9.8,12.28-13.37,5.06-3.56,10.8-6.2,17.18-7.92,6.4-1.71,12.8-2.57,19.18-2.57,7.46,0,14.61.82,21.47,2.48,6.86,1.64,12.95,4.32,18.28,8.01,5.33,3.7,9.56,8.42,12.69,14.16,3.13,5.75,4.69,12.72,4.69,20.9h-30.36c-.26-4.23-1.17-7.72-2.7-10.5-1.52-2.77-3.56-4.95-6.08-6.53-2.54-1.59-5.43-2.7-8.69-3.36-3.27-.66-6.84-.99-10.69-.99-2.53,0-5.07.26-7.59.79-2.54.53-4.83,1.44-6.9,2.77-2.07,1.32-3.76,2.97-5.09,4.95-1.34,1.97-2,4.49-2,7.52,0,2.77.53,5.02,1.59,6.73,1.07,1.72,3.17,3.31,6.31,4.76,3.13,1.46,7.46,2.91,12.98,4.36,5.52,1.46,12.74,3.3,21.67,5.55,2.66.53,6.36,1.48,11.09,2.87,4.73,1.38,9.42,3.59,14.08,6.62,4.66,3.05,8.69,7.1,12.09,12.19,3.39,5.09,5.09,11.59,5.09,19.51,0,6.46-1.26,12.48-3.79,18.02-2.53,5.55-6.29,10.33-11.29,14.36-4.99,4.03-11.19,7.17-18.58,9.42-7.39,2.24-15.95,3.36-25.67,3.36-7.86,0-15.48-.97-22.86-2.87-7.39-1.91-13.92-4.91-19.58-9.01-5.67-4.09-10.16-9.31-13.48-15.66-3.34-6.33-4.93-13.86-4.8-22.57h30.36c0,4.76.86,8.78,2.6,12.08"/>
          <path class="cls-1" d="m948.52,80.24h.4l17.98,51.89h-36.96l18.58-51.89Zm-15.58-34.86l-53.94,141.42h31.57l11.18-31.49h53.34l10.78,31.49h32.56l-53.34-141.42h-32.15Z"/>
          <path class="cls-1" d="m1154.96,45.39c6.8,0,12.98.58,18.57,1.78,5.6,1.19,10.4,3.14,14.39,5.84,4,2.72,7.1,6.31,9.3,10.8,2.19,4.49,3.29,10.04,3.29,16.64,0,7.13-1.63,13.07-4.89,17.83-3.27,4.76-8.09,8.65-14.48,11.68,8.78,2.5,15.34,6.9,19.67,13.17,4.33,6.28,6.49,13.84,6.49,22.68,0,7.13-1.39,13.3-4.2,18.52-2.8,5.22-6.56,9.48-11.29,12.77-4.73,3.31-10.12,5.75-16.17,7.34-6.07,1.58-12.29,2.37-18.68,2.37h-69.12V45.39h67.12Zm-4,57.24c5.6,0,10.2-1.32,13.79-3.96,3.59-2.65,5.39-6.94,5.39-12.88,0-3.3-.6-6.01-1.8-8.12-1.19-2.12-2.8-3.76-4.8-4.95-1.99-1.19-4.29-2.01-6.89-2.48-2.6-.46-5.3-.69-8.09-.69h-29.37v33.08h31.76Zm1.8,60.01c3.06,0,5.99-.29,8.8-.89,2.8-.6,5.26-1.59,7.39-2.97,2.12-1.39,3.83-3.27,5.09-5.66,1.27-2.37,1.89-5.4,1.89-9.1,0-7.27-2.07-12.45-6.19-15.55-4.13-3.1-9.59-4.66-16.39-4.66h-34.16v38.83h33.57Z"/>
          <path class="cls-1" d="m1227.16,67.43c1.27-4.11,3.07-7.82,5.4-11.13,2.34-3.3,5.29-5.96,8.82-7.93,3.54-1.99,7.71-2.99,12.52-2.99,4.13,0,8.38.7,12.73,2.09,4.33,1.39,8.7,2.87,13.11,4.46,4.41,1.59,8.78,3.09,13.13,4.48,4.33,1.39,8.5,2.08,12.52,2.08,3.74,0,6.57-1.35,8.52-4.07,1.93-2.72,3.23-5.72,3.91-9.05h14.21c-.4,4.37-1.23,8.61-2.5,12.72-1.26,4.11-3.07,7.75-5.4,10.93-2.34,3.18-5.27,5.76-8.81,7.75-3.55,1.99-7.86,2.98-12.93,2.98-4,0-8.35-.73-13.02-2.19-4.68-1.46-9.35-3.01-14.03-4.68-4.68-1.66-9.07-3.21-13.22-4.66-4.15-1.46-7.62-2.19-10.41-2.19-3.75,0-6.65,1.5-8.72,4.46-2.08,2.98-3.44,6.07-4.11,9.25h-14.23c.4-4.11,1.23-8.21,2.5-12.32"/>
          <path class="cls-1" d="m1227.16,120.05c1.27-4.11,3.07-7.82,5.4-11.13,2.34-3.3,5.29-5.96,8.82-7.95,3.54-1.97,7.71-2.98,12.52-2.98,4.13,0,8.38.7,12.73,2.09,4.33,1.39,8.7,2.87,13.11,4.46,4.41,1.59,8.78,3.09,13.13,4.48,4.33,1.39,8.5,2.08,12.52,2.08,3.74,0,6.57-1.35,8.52-4.07,1.93-2.72,3.23-5.72,3.91-9.05h14.21c-.4,4.37-1.23,8.61-2.5,12.72-1.26,4.11-3.07,7.75-5.4,10.93-2.34,3.18-5.27,5.76-8.81,7.75-3.55,1.97-7.86,2.98-12.93,2.98-4,0-8.35-.73-13.02-2.19-4.68-1.46-9.35-3.02-14.03-4.68-4.68-1.66-9.07-3.21-13.22-4.66-4.15-1.46-7.62-2.19-10.41-2.19-3.75,0-6.65,1.48-8.72,4.46-2.08,2.98-3.44,6.07-4.11,9.25h-14.23c.4-4.11,1.23-8.21,2.5-12.32"/>
          <path class="cls-1" d="m1227.16,174.41c1.27-4.11,3.07-7.82,5.4-11.13,2.34-3.3,5.29-5.96,8.82-7.95,3.54-1.97,7.71-2.98,12.52-2.98,4.13,0,8.38.7,12.73,2.09,4.33,1.39,8.7,2.87,13.11,4.46,4.41,1.59,8.78,3.09,13.13,4.48,4.33,1.39,8.5,2.08,12.52,2.08,3.74,0,6.57-1.35,8.52-4.07,1.93-2.72,3.23-5.72,3.91-9.05h14.21c-.4,4.37-1.23,8.61-2.5,12.72-1.26,4.11-3.07,7.75-5.4,10.93-2.34,3.18-5.27,5.76-8.81,7.75-3.55,1.97-7.86,2.98-12.93,2.98-4,0-8.35-.73-13.02-2.19-4.68-1.46-9.35-3.01-14.03-4.68-4.68-1.66-9.07-3.21-13.22-4.66-4.15-1.46-7.62-2.19-10.41-2.19-3.75,0-6.65,1.48-8.72,4.46-2.08,2.98-3.44,6.07-4.11,9.25h-14.23c.4-4.11,1.23-8.21,2.5-12.32"/>
          <path class="cls-1" d="m762.33,67.34c1.27-4.11,3.07-7.82,5.42-11.13,2.33-3.31,5.27-5.96,8.82-7.96,3.54-1.99,7.71-2.98,12.52-2.98,4.15,0,8.4.7,12.74,2.09,4.33,1.39,8.72,2.89,13.13,4.48,4.41,1.59,8.78,3.07,13.13,4.46,4.34,1.39,8.52,2.09,12.53,2.09,3.75,0,6.58-1.36,8.52-4.08,1.93-2.72,3.25-5.72,3.92-9.05h14.23c-.4,4.38-1.23,8.62-2.5,12.73-1.27,4.11-3.07,7.75-5.42,10.93-2.33,3.18-5.27,5.76-8.82,7.75-3.54,1.99-7.86,2.98-12.93,2.98-4,0-8.35-.72-13.03-2.19-4.68-1.46-9.35-3.01-14.03-4.66-4.68-1.66-9.09-3.22-13.23-4.68-4.15-1.46-7.62-2.19-10.42-2.19-3.75,0-6.65,1.5-8.72,4.48-2.08,2.98-3.44,6.05-4.12,9.23h-14.23c.4-4.11,1.23-8.21,2.5-12.32"/>
          <path class="cls-1" d="m762.33,120c1.27-4.11,3.07-7.82,5.42-11.13,2.33-3.31,5.27-5.97,8.82-7.96,3.54-1.99,7.71-2.98,12.52-2.98,4.15,0,8.4.7,12.74,2.09,4.33,1.39,8.72,2.87,13.13,4.48,4.41,1.59,8.78,3.07,13.13,4.46,4.34,1.39,8.52,2.09,12.53,2.09,3.75,0,6.58-1.36,8.52-4.08,1.93-2.72,3.25-5.72,3.92-9.05h14.23c-.4,4.38-1.23,8.62-2.5,12.73-1.27,4.11-3.07,7.75-5.42,10.93-2.33,3.18-5.27,5.76-8.82,7.75-3.54,1.99-7.86,2.98-12.93,2.98-4,0-8.35-.72-13.03-2.19-4.68-1.46-9.35-3.01-14.03-4.66-4.68-1.66-9.09-3.22-13.23-4.68-4.15-1.46-7.62-2.19-10.42-2.19-3.75,0-6.65,1.48-8.72,4.48-2.08,2.98-3.44,6.05-4.12,9.23h-14.23c.4-4.11,1.23-8.21,2.5-12.32"/>
          <path class="cls-1" d="m762.33,174.4c1.27-4.11,3.07-7.82,5.42-11.13,2.33-3.31,5.27-5.97,8.82-7.96,3.54-1.99,7.71-2.98,12.52-2.98,4.15,0,8.4.7,12.74,2.09,4.33,1.39,8.72,2.87,13.13,4.48,4.41,1.59,8.78,3.07,13.13,4.46,4.34,1.39,8.52,2.09,12.53,2.09,3.75,0,6.58-1.36,8.52-4.08,1.93-2.72,3.25-5.72,3.92-9.05h14.23c-.4,4.37-1.23,8.62-2.5,12.73-1.27,4.11-3.07,7.75-5.42,10.93-2.33,3.18-5.27,5.76-8.82,7.75-3.54,1.99-7.86,2.98-12.93,2.98-4,0-8.35-.72-13.03-2.19-4.68-1.46-9.35-3.01-14.03-4.66-4.68-1.66-9.09-3.22-13.23-4.68-4.15-1.46-7.62-2.19-10.42-2.19-3.75,0-6.65,1.48-8.72,4.48-2.08,2.98-3.44,6.05-4.12,9.23h-14.23c.4-4.11,1.23-8.21,2.5-12.32"/>
          <polygon class="cls-1" points="1450.13 45.31 1416.96 101.16 1383.6 45.31 1348.45 45.31 1400.79 131.67 1400.79 186.72 1432.15 186.72 1432.15 132.46 1485.09 45.31 1450.13 45.31"/>
          <path class="cls-1" d="m1487.15,87.19c3.19-9.03,7.79-16.93,13.78-23.66,6-6.74,13.35-12.01,22.08-15.86,8.72-3.81,18.54-5.74,29.46-5.74s20.92,1.92,29.57,5.74c8.66,3.84,15.99,9.11,21.98,15.86,6,6.73,10.6,14.62,13.79,23.66,3.19,9.05,4.8,18.85,4.8,29.42s-1.6,19.9-4.8,28.81c-3.19,8.91-7.79,16.68-13.79,23.27-5.99,6.61-13.31,11.79-21.98,15.55-8.65,3.76-18.51,5.64-29.57,5.64s-20.74-1.88-29.46-5.64c-8.73-3.76-16.08-8.94-22.08-15.55-5.99-6.6-10.58-14.36-13.78-23.27-3.19-8.91-4.8-18.52-4.8-28.81s1.6-20.37,4.8-29.42m28.67,46.75c1.4,5.62,3.63,10.66,6.69,15.15,3.06,4.49,7.06,8.09,11.99,10.8,4.93,2.7,10.91,4.05,17.98,4.05s13.06-1.35,17.99-4.05c4.93-2.7,8.91-6.31,11.99-10.8,3.06-4.49,5.29-9.54,6.69-15.15,1.39-5.62,2.09-11.39,2.09-17.33s-.7-12.21-2.09-18.03c-1.4-5.8-3.63-10.99-6.69-15.55-3.07-4.54-7.06-8.17-11.99-10.89-4.93-2.7-10.93-4.05-17.99-4.05s-13.05,1.35-17.98,4.05c-4.93,2.72-8.93,6.35-11.99,10.89-3.06,4.56-5.29,9.75-6.69,15.55-1.4,5.82-2.09,11.82-2.09,18.03s.69,11.71,2.09,17.33"/>
          <polygon class="cls-1" points="1735.59 45.31 1735.59 140.17 1735.2 140.17 1675.67 45.31 1644.5 45.31 1644.5 186.72 1673.87 186.72 1673.87 92.05 1674.26 92.05 1733.61 186.72 1764.97 186.72 1764.97 45.31 1735.59 45.31"/>
          <path class="cls-1" d="m1855.28,45.31c9.19,0,17.75,1.46,25.67,4.36,7.92,2.9,14.78,7.26,20.57,13.07,5.8,5.82,10.32,13.07,13.59,21.78,3.26,8.72,4.89,18.96,4.89,30.71,0,10.31-1.32,19.8-3.99,28.52-2.68,8.72-6.7,16.24-12.09,22.59-5.39,6.33-12.12,11.31-20.17,14.94-8.05,3.64-17.55,5.46-28.47,5.46h-61.53V45.31h61.53Zm-2.2,115.27c4.53,0,8.91-.73,13.18-2.17,4.27-1.46,8.07-3.87,11.39-7.23,3.32-3.38,6-7.76,7.99-13.17,2-5.42,3.01-12.03,3.01-19.82,0-7.13-.7-13.56-2.11-19.3-1.39-5.75-3.7-10.66-6.89-14.76-3.19-4.09-7.43-7.23-12.69-9.42-5.26-2.17-11.75-3.26-19.47-3.26h-22.37v89.12h27.96Z"/>
        </g>
        <g>
          <path class="cls-1" d="m376.85,107.42h-11.86v-10.49h11.93v-9.91c0-12.19,8.93-18.45,19.1-18.45,4.11,0,7.95,1.04,11.21,2.61l-3.65,10.23c-2.15-1.11-4.37-1.83-6.45-1.83-4.17,0-7.43,2.54-7.43,8.47v8.86h17.08v10.49h-17.08v54.62h-12.84v-54.62Z"/>
          <path class="cls-1" d="m416.23,129.32c0-18.45,12.78-33.76,32-33.76s32.13,15.32,32.13,33.76-12.97,34.02-32.13,34.02-32-15.51-32-34.02Zm51.1,0c0-11.93-5.67-23.01-19.03-23.01s-19.03,11.08-19.03,23.01,5.74,23.33,19.03,23.33,19.03-11.47,19.03-23.33Z"/>
          <path class="cls-1" d="m501.23,96.92h12.38v11.28c3.13-7.95,10.62-12.64,18.38-12.64,4.43,0,8.41,1.5,11.15,3.98l-5.54,10.62c-2.15-1.63-4.69-2.41-7.56-2.41-9.39,0-16.56,8.02-16.56,24.12v30.18h-12.25v-65.11Z"/>
        </g>
      </g>
    </g>
  </g>
</svg>