<?xml version="1.0" encoding="utf-8"?>
<!-- Generator: Adobe Illustrator 26.5.0, SVG Export Plug-In . SVG Version: 6.00 Build 0)  -->
<svg version="1.1" id="Livello_1" xmlns="http://www.w3.org/2000/svg" xmlns:xlink="http://www.w3.org/1999/xlink" x="0px" y="0px"
	 viewBox="0 0 750 855" style="enable-background:new 0 0 750 855;" xml:space="preserve">
<style type="text/css">
	.st0{clip-path:url(#SVGID_00000117672890857759686480000016820140738660352162_);}
	.st1{fill:#E6E6E6;}
	.st2{fill:#C1E0D9;}
</style>
<g>
	<path d="M110.4,497v1.6H98.8v-1.5c3.9-2.4,9.1-6,9.1-10.4c0-2.1-1.2-3.5-3.3-3.5c-2.5,0-3.7,1.8-3.7,4.3l-1.6-0.1
		c0-3.3,1.9-5.8,5.4-5.8c3,0,5,1.8,5,5.1c0,4.3-3.8,7.7-8,10.3H110.4z"/>
	<path d="M122.9,481.8h1.6l-8.6,21.8h-1.6L122.9,481.8z"/>
	<path d="M139,493.2c0,3-2.5,5.6-5.7,5.6c-3.1,0-5.7-2.5-5.7-5.5c0-1,0.3-2.1,0.9-3l5-8.4h1.9l-3.9,6.2c0.9-0.3,1.9-0.5,3-0.3
		C137,488.3,139,490.5,139,493.2z M137.3,493.2c0-2.2-1.8-4-4-4s-4,1.8-4,4s1.8,4,4,4C135.5,497.1,137.3,495.3,137.3,493.2z"/>
</g>
<g>
	<g>
		<g>
			<g>
				<defs>
					<rect id="SVGID_1_" x="155.4" width="439.3" height="439.3"/>
				</defs>
				<clipPath id="SVGID_00000108287957962518712340000012181793364407956156_">
					<use xlink:href="#SVGID_1_"  style="overflow:visible;"/>
				</clipPath>
				<g style="clip-path:url(#SVGID_00000108287957962518712340000012181793364407956156_);">
					<rect x="155.4" class="st1" width="439.3" height="439.3"/>
					<g>
						<path d="M237.2,113.2c0-0.1,0-0.1,0-0.2c0-0.2,0,0.1,0-0.1c0-0.1,0-0.3,0-0.4c0-0.3-0.1-0.6-0.1-0.9c0-0.7-0.1-1.4-0.2-2
							c0-0.3-0.3-0.6-0.6-0.6s-0.6,0.3-0.6,0.6c0.2,1.3,0.2,2.7,0.4,4c0.1,0.3,0.5,0.5,0.8,0.4C237.1,113.8,237.3,113.5,237.2,113.2
							L237.2,113.2z"/>
						<path d="M239,145.8c-1.6,2.7-3.2,5.4-5,7.9c-0.3,0.5-0.6,1-1,1.4s-0.8,0.3-1.1-0.1c-0.5-0.6-0.6-1.5-0.7-2.3
							c-0.2-2.4,0.6-4.7,1.5-6.9c1.1-2.6,2.5-5,3.6-7.6c0.5-1.2,1.1-2.5,1.3-3.8s0.3-2.7,0.4-4c0.1-0.8-1.2-0.8-1.2,0
							c-0.1,1.2-0.1,2.5-0.4,3.7c-0.2,1.2-0.7,2.5-1.2,3.6c-1.2,2.7-2.7,5.4-3.8,8.1c-0.9,2.3-1.6,4.7-1.4,7.1c0.1,1,0.3,2.1,1,2.8
							c0.4,0.4,0.9,0.7,1.4,0.7c0.8,0,1.4-0.6,1.8-1.1c2.2-2.8,4-5.9,5.8-9C240.4,145.8,239.4,145.2,239,145.8L239,145.8z"/>
						<path d="M151.4,59.7c9.3,6.7,17.6,15.1,23.7,24.9c0.8,1.4,1.8,2.8,2.4,4.3c0.6,1.4,1.1,2.8,1.7,4.2c1.1,2.5,2.4,5,3.8,7.3
							c2.5,4.1,5.5,7.8,9.1,10.9c3.3,2.9,7,5.2,11,7.1c2,0.9,3.9,1.9,5.8,3.1c2.2,1.4,4.4,3,6.5,4.5c2,1.4,4.1,2.8,6.2,4.1
							c2.7,1.7,5.4,3.4,7.7,5.6c0.9,0.8,2,2.2,3.4,1.5c1-0.6,1.5-1.9,1.9-3c0.8-2.4,0.6-5.2-0.3-7.6c-1.6-4.4-5-7.8-8.9-10.3
							c-2.2-1.3-4.3-2.6-5.9-4.7c-1.6-2.2-2.7-4.7-3.7-7.1c-0.6-1.4-1.2-2.7-1.9-4c-0.2,0.2-0.4,0.4-0.6,0.6
							c5.6,3,11.3,5.5,17.4,7.3c5.1,1.6,10.3,2.7,15.4,3.9c1.9,0.5,3.5,1.5,5.1,2.5c0.9,0.6,1.9,1.3,2.7,2.1
							c0.6,0.6,1.3,1.2,1.8,1.9c0.3,0.6,0.5,1.2,0.7,1.8c0.4,1,0.8,1.9,1.2,2.9c1.2,2.8,2.4,5.6,3.4,8.5c1.1,3,2,5.9,3.6,8.7
							c1.3,2.2,2.7,4.4,4.2,6.5c1.4,1.8,3.2,4,5.5,4.6c0.4,0.1,1,0.2,1.4,0.1c0.3-0.1,0.5-0.3,0.7-0.6c0.4-0.6,0.6-1.2,0.7-1.9
							c0.4-2,0.2-4.1,0-6.1c-0.3-2.5-0.8-5.1-1.3-7.6c-1.1-4.9-2.8-9.6-4.3-14.5c-1.5-5.2-2.9-10.5-4.8-15.6
							c-0.7-1.8-1.4-3.7-2.5-5.3c-0.7-1.1-1.7-2-2.6-3c-3.2-3.2-6.6-6.2-10.1-9.2c-0.8-0.7-1.6-1.4-2.5-2c-0.6-0.5-1.2-0.9-1.8-1.4
							c-0.5-0.5-0.9-1.1-1.4-1.6c-0.9-1-1.9-2.1-2.9-3c-1.1-1.1-2.2-2.2-3.6-2.9c-1.1-0.6-2.3-1.1-3.5-1.6
							c-3.6-1.5-7.3-2.9-10.9-4.4c-9-3.6-18.1-7.3-26.3-12.5c-2.9-1.9-5.5-4-8-6.5c-3.1-3.1-6.1-6.3-9-9.5c-7.3-8-14.5-16.1-22-23.8
							c-1.6-1.7-3.3-3.4-5-5c-0.4-0.4-1.1,0.2-0.6,0.6c7.5,7.3,14.5,15.2,21.6,22.9c3.4,3.7,6.7,7.4,10.1,11
							c2.4,2.5,4.8,5.1,7.4,7.4c3.1,2.7,6.7,4.8,10.3,6.7c4.3,2.3,8.8,4.3,13.3,6.3c4.2,1.8,8.5,3.5,12.7,5.2c3,1.2,6,2.3,8.9,3.7
							c1.1,0.5,1.9,1.1,2.7,1.9c1.9,1.7,3.6,3.6,5.2,5.5c0.4,0.4,0.8,0.8,1.3,1.1c0.7,0.6,1.5,1.2,2.2,1.8c1.8,1.5,3.5,3,5.2,4.5
							c1.7,1.5,3.3,3,4.9,4.6c1.1,1,2.2,2.1,3.1,3.2c1.1,1.3,1.7,3,2.4,4.6c0.9,2.4,1.7,4.8,2.5,7.2c1.6,5.2,3,10.4,4.6,15.6
							c1.5,4.7,2.8,9.5,3.5,14.4c0.3,2.1,0.5,4.3,0.3,6.4c-0.1,0.7-0.2,1.4-0.6,2c-0.1,0.1-0.1,0.2-0.2,0.3l-0.1,0.1
							c0.2-0.2,0,0-0.1-0.1c-0.6-0.1-1.1-0.2-1.6-0.4c-2.2-1.1-3.9-3.4-5.2-5.4c-1.5-2.2-2.9-4.4-4.1-6.8c-1.5-3-2.4-6.3-3.6-9.4
							c-1-2.5-2-4.9-3-7.3c-0.6-1.3-1-2.9-1.9-4.1c-1.3-1.6-3.1-2.8-4.8-3.9c-1.6-1.1-3.2-1.9-5.1-2.4c-2.5-0.6-5-1.2-7.5-1.8
							c-5.4-1.3-10.6-2.9-15.7-5c-3.1-1.3-6.1-2.7-9-4.3c-0.4-0.2-0.8,0.2-0.6,0.6c1.3,2.6,2.3,5.2,3.6,7.8c1.1,2.2,2.4,4.3,4.3,5.8
							c1.7,1.4,3.7,2.4,5.5,3.6c1.9,1.3,3.6,3,4.9,4.8c1.6,2.2,2.7,4.8,2.8,7.4c0.1,1.3-0.1,2.5-0.5,3.7c-0.2,0.6-0.5,1.2-0.8,1.7
							c-0.3,0.4-0.7,0.8-1.3,0.5c-0.4-0.2-0.7-0.5-1-0.8c-4.1-3.8-9-6.4-13.6-9.6c-3.8-2.7-7.7-5.7-12-7.7
							c-3.9-1.8-7.7-3.9-11.1-6.7c-3.6-2.9-6.6-6.3-9.1-10.2c-1.5-2.2-2.8-4.6-3.9-7c-1.3-2.7-2.2-5.5-3.6-8
							c-5.6-9.9-13.5-18.4-22.4-25.3c-1-0.7-1.9-1.5-2.9-2.2C151.4,58.6,151,59.4,151.4,59.7L151.4,59.7z"/>
					</g>
					<g>
						<g>
							<path class="st2" d="M595.8,432c-17.1-9.1-47.4-33.4-56.2-43.1c-0.8,0.6-2.9,1.3-3.8,1.4c-5.4,0.7-11-1.2-14.8-5.1
								c-0.4-0.4-0.7-0.8-0.9-1.3c-11.3,0-21.7-1-23.2-2.1c-1.3-1,1.3,1,0,0c-8.8-6.6-12.9-12.6-16.8-18.9c-1.1-1.7-2.2-3.7-1.8-5.7
								c0.3-1.6,0,0,0,0l0.2-0.7c-1.7-1.6-14.8-21.9-21-31c-2.1-3.1-4.2-6.5-4.4-10.3c2.8-2.2,11.7,2.7,14.4,8.4l0,0
								c2.6,1.5,4.2,4.2,8.4,8.5c0.1-4.1-0.1-15.2,0-19.3c0-0.2,0-0.4,0.2-0.6c-0.5-5.3-0.4-12.2,1.1-17.3
								c5.1-1.4,7.1,11.1,6.2,17.4c0.4,0.3,1.3,1.7,1.6,2.1c1.8,2.7,1.8,3.7,4,11.4c1.4-2,4.7-7.2,6.1-9.1c0.3-0.4,1.4-0.9,1.9-1
								c4-5.8,5.8-6.6,8.5-11.4c0.4-0.5,5.3-6.9,5.8-6.5c0.2,0.1-0.2-0.1,0,0c4.6,1.3,2.5,18.5-7.6,26.4c0.1,4.6-4.2,11.3-5.7,17.1
								c4.1,1.3,11.2,3.4,19.9,10.4c-3.9-7.2-7.6-14.7-8.3-16.6c-0.7-1.9-0.8-4.5,0.9-5.3c1-0.5,2.3-0.1,3.4,0.3
								c5.2,2,22.1,17.9,29,25.5l1.9,3.7c23,5,38.7,8.9,51.1,15.5"/>
							<path d="M596,431.6c-8.4-4.5-16.3-10.1-24-15.8c-8.1-6-16.1-12.4-23.7-19.1c-2.9-2.6-5.8-5.2-8.5-8.2
								c-0.1-0.1-0.4-0.2-0.6-0.1c-1.1,0.8-2.7,1.2-4.1,1.4c-1.8,0.2-3.7,0.1-5.5-0.3s-3.5-1.1-5-2c-0.8-0.5-1.6-1-2.3-1.6
								s-1.7-1.4-2-2.3c-0.1-0.2-0.2-0.3-0.4-0.3c-5.2,0-10.5-0.2-15.7-0.7c-1.7-0.2-3.5-0.4-5.2-0.7c-0.8-0.2-1.7-0.3-2.3-0.9
								c-0.1,0.3-0.2,0.5-0.3,0.8c-0.2,0-0.2-0.1-0.1,0c0,0.1,0.1,0.1,0.2,0.1c0.1,0.1,0.1,0.1,0.2,0.2c0.2,0.1,0.1,0.2,0-0.1
								c0.2-0.2,0.4-0.3,0.7-0.5c-1.8-1.1-3.4-2.7-5-4.1c-1.7-1.5-3.2-3.1-4.7-4.7c-2.6-2.9-4.8-6.1-6.8-9.4
								c-0.7-1.1-1.4-2.2-1.9-3.4c-0.5-1.2-0.5-2.3-0.2-3.5c-0.3-0.1-0.6-0.2-0.9-0.2c0,0.2-0.1,0.5-0.1,0.7
								c-0.1,0.6,0.7,0.8,0.9,0.2c0.1-0.2,0.1-0.5,0.2-0.7c0-0.2,0-0.3-0.1-0.4c-1.1-1-1.9-2.4-2.7-3.7c-1.7-2.4-3.4-4.9-5-7.4
								c-3.8-5.7-7.6-11.5-11.5-17.3c-2.6-3.8-5.8-7.8-6-12.6c-0.1,0.1-0.2,0.3-0.2,0.4c1.1-0.8,2.7-0.4,3.9-0.1
								c1.9,0.6,3.6,1.6,5.2,2.8c1.7,1.3,3.2,2.8,4.3,4.6c0.2,0.3,0.4,0.8,0.7,1.1c0.3,0.2,0.7,0.4,1,0.6c0.7,0.5,1.3,1.2,1.9,1.8
								c1.8,2,3.5,4.1,5.4,6c0.3,0.3,0.8,0.1,0.8-0.3c0.1-4.3,0-8.7,0-13c0-2,0-3.9,0-5.9c0-0.5,0.2-1,0.1-1.5
								c-0.1-0.7-0.1-1.4-0.2-2.1c-0.1-1.5-0.1-3-0.1-4.5c0.1-3.4,0.4-6.8,1.4-10c-0.1,0.1-0.2,0.2-0.3,0.3c1.9-0.5,3.1,1.4,3.9,2.9
								c1.1,2.3,1.5,4.9,1.8,7.4c0.1,1.3,0.2,2.6,0.2,3.9c0,0.6,0,1.1-0.1,1.7c0,0.5-0.3,1.1,0.1,1.5c1.2,1.4,2.3,2.9,3,4.6
								c1.1,2.8,1.7,5.7,2.5,8.6c0.1,0.4,0.6,0.4,0.8,0.1c1.5-2.1,2.9-4.4,4.4-6.6c0.3-0.5,0.7-1,1-1.6c0.3-0.5,0.6-1,1.1-1.3
								c0.6-0.3,1.2-0.3,1.6-0.9c0.5-0.7,1.1-1.5,1.6-2.2c1.6-2.1,3.4-4,5-6.2c0.7-1,1.2-2,1.9-3c0.5-0.6,0.9-1.2,1.4-1.8
								c0.7-0.9,1.5-1.9,2.3-2.8c0.3-0.4,0.7-0.8,1-1.1c0.1-0.1,0.3-0.2,0.4-0.3c0.2-0.3,0.1,0.1-0.2-0.1c0.1-0.3,0.3-0.5,0.4-0.8
								c0,0,0.1,0,0.1,0.1c-0.1,0.3-0.3,0.5-0.4,0.8c1.6,0.2,1.9,2.8,2,4c0.2,2.7-0.3,5.5-1.1,8.2c-0.9,3.2-2.4,6.2-4.3,8.9
								c-1,1.4-2.2,2.7-3.5,3.8c-0.3,0.2-0.7,0.5-0.9,0.8c-0.2,0.3-0.1,0.8-0.1,1.2c-0.1,0.9-0.3,1.8-0.6,2.7
								c-1.4,4.6-3.9,8.8-5.1,13.4c-0.1,0.2,0.1,0.5,0.3,0.6c2.8,0.8,5.5,1.8,8.1,3c4.1,1.9,8,4.4,11.6,7.2c0.4,0.3,1-0.1,0.7-0.6
								c-2.5-4.6-4.9-9.3-7.2-14c-0.7-1.4-1.4-2.8-1.5-4.3c-0.1-0.9,0-2.1,0.8-2.7c1-0.8,2.5-0.3,3.5,0.2c2.3,1,4.4,2.7,6.3,4.3
								c3,2.4,6,5,8.8,7.7c3,2.7,5.9,5.5,8.7,8.4c1.2,1.2,2.4,2.4,3.5,3.7c0.4,0.4,0.9,0.8,1.2,1.3s0.5,1,0.8,1.6s0.6,1.2,0.9,1.8
								c0.4,0.7,1.3,0.7,2,0.8c2.8,0.6,5.7,1.3,8.5,1.9c5,1.1,9.9,2.3,14.9,3.6c8,2.2,16.1,4.7,23.5,8.3c0.8,0.4,1.6,0.8,2.4,1.2
								c0.5,0.3,1-0.5,0.5-0.8c-7.3-3.9-15.3-6.6-23.3-8.9c-5-1.4-10-2.6-15.1-3.8c-2.8-0.7-5.6-1.3-8.4-1.9
								c-0.7-0.2-1.4-0.3-2.1-0.5c-0.4-0.1-0.7-0.2-1.1-0.2c-0.2,0-0.4-0.1-0.5-0.1s-0.6-0.1-0.4,0c-0.1-0.1-0.2-0.3-0.2-0.4
								c-0.2-0.3-0.3-0.6-0.5-0.9c-0.6-1.1-1.1-2.2-1.9-3.1c-1.2-1.3-2.4-2.5-3.6-3.7c-2.9-2.9-5.8-5.8-8.9-8.6c-3-2.8-6-5.5-9.2-8
								c-2-1.6-4.2-3.5-6.6-4.5c-1.7-0.8-4.2-1.2-5.3,0.8c-0.8,1.6-0.4,3.6,0.2,5.2c1.7,4.2,3.9,8.1,6,12.1c0.7,1.4,1.4,2.8,2.2,4.1
								c0.2-0.2,0.5-0.4,0.7-0.6c-3.6-2.9-7.5-5.4-11.8-7.4c-2.7-1.3-5.5-2.2-8.3-3.1c0.1,0.2,0.2,0.4,0.3,0.6
								c1.1-4.3,3.4-8.3,4.8-12.5c0.3-0.9,0.6-1.9,0.8-2.9c0.1-0.4,0.1-0.8,0.1-1.2c0-0.1,0-0.4,0-0.5s0.4-0.3,0.5-0.4
								c1.4-1.1,2.6-2.5,3.6-3.9c2.1-2.8,3.6-5.9,4.6-9.2c0.8-2.7,1.4-5.7,1.2-8.6c-0.1-1.6-0.6-4.6-2.7-4.9
								c-0.4-0.1-0.8,0.4-0.4,0.8c0.1,0.1,0.2,0.2,0.3,0.2c0.4,0.1,0.8-0.4,0.4-0.8c-0.5-0.5-1.1,0.1-1.5,0.4
								c-0.7,0.7-1.4,1.5-2,2.3c-1.2,1.5-2.5,3-3.5,4.6c-1.5,2.4-3.3,4.4-5.1,6.6c-0.5,0.6-0.9,1.2-1.4,1.7
								c-0.3,0.4-0.6,0.8-0.9,1.2c-0.3,0.4-0.5,0.8-0.9,1c-0.6,0.2-1.2,0.5-1.6,0.9s-0.7,1-1,1.4c-1.8,2.6-3.4,5.3-5.2,7.9
								c0.3,0,0.6,0.1,0.8,0.1c-0.8-2.8-1.4-5.8-2.5-8.6c-0.3-0.8-0.7-1.6-1.1-2.3c-0.6-1-1.2-2.1-2.1-2.8c0,0.1,0.1,0.3,0.1,0.4
								c0.5-3.7,0.2-7.5-0.6-11.1c-0.6-2.4-1.8-6.5-4.7-6.9c-0.5-0.1-1.4-0.1-1.7,0.4c-0.3,0.5-0.3,1.2-0.5,1.8
								c-0.1,0.6-0.3,1.3-0.4,1.9c-0.4,2.7-0.6,5.4-0.6,8.1c0,1.3,0.1,2.6,0.1,4c0,0.6,0.1,1.1,0,1.7c-0.1,0.4-0.1,0.8-0.1,1.2
								c0,1.8,0,3.6,0,5.4c0,4.4,0.1,8.8,0,13.2c0.3-0.1,0.5-0.2,0.8-0.3c-1.3-1.4-2.6-2.8-3.8-4.2c-0.9-1-1.8-2.1-2.8-3
								c-0.4-0.3-0.8-0.7-1.2-1c-0.3-0.2-0.4-0.3-0.6-0.5c-0.2-0.3-0.4-0.7-0.6-1c-0.8-1.2-1.7-2.2-2.8-3.2
								c-2.1-1.9-4.5-3.5-7.2-4.3c-1-0.3-2.1-0.5-3.1-0.3c-0.4,0.1-0.7,0.2-1.1,0.4c-0.6,0.4-0.3,1.2-0.3,1.8
								c0.5,3.7,2.7,6.9,4.7,9.9c1.4,2.1,2.8,4.1,4.2,6.2c3.2,4.8,6.4,9.7,9.6,14.5c1.4,2.1,2.9,4.3,4.4,6.4
								c0.8,1.1,1.5,2.3,2.5,3.2c0-0.1-0.1-0.3-0.1-0.4c-0.1,0.2-0.1,0.5-0.2,0.7c0.3,0.1,0.6,0.2,0.9,0.2c0-0.2,0.1-0.5,0.1-0.7
								c0.1-0.6-0.8-0.8-0.9-0.2c-0.2,0.9-0.3,1.8-0.2,2.7c0.2,1.2,0.8,2.4,1.4,3.4c1,1.8,2.2,3.5,3.3,5.2c2.5,3.6,5.3,7,8.5,10
								c1.1,1,2.1,1.9,3.3,2.8c0.9,0.7,1.7,1.5,2.6,2.1c0.4,0.2,0.8-0.1,0.7-0.5c-0.1-0.3-0.9-0.9-1.2-0.9c-0.4,0-0.6,0.5-0.3,0.8
								c1.2,1.2,3.3,1.3,5,1.5c3.7,0.5,7.4,0.7,11.1,0.9c2.6,0.1,5.2,0.2,7.8,0.2c-0.1-0.1-0.3-0.2-0.4-0.3c0.7,1.8,2.7,3.1,4.2,4.1
								c1.7,1.1,3.6,1.9,5.5,2.3c1.9,0.5,4,0.6,6,0.4c1.5-0.2,3.3-0.6,4.5-1.5c-0.2,0-0.4,0-0.6-0.1c2.3,2.6,4.8,4.9,7.4,7.2
								c3.5,3.2,7.1,6.2,10.8,9.2c8.1,6.6,16.5,13,25.2,18.9c4.2,2.8,8.4,5.5,12.9,7.9C596.1,432.7,596.5,431.9,596,431.6L596,431.6
								z"/>
						</g>
						<g>
							<path d="M529.8,369.3c2.1,0.9,4.3,1.4,6.6,1c2-0.3,3.7-1.3,5.3-2.5c3.3-2.7,4.9-7.9,2.5-11.6c-1.1-1.7-2.7-2.9-4.6-3.6
								c-2-0.8-4.2-0.7-6.2-0.1c-2.1,0.6-4.1,1.9-5.6,3.5c-1.6,1.6-2.9,3.6-3.2,5.9c-0.2,1.4-0.2,2.8,0.5,4.1c1,1.8,3,2.8,4.9,3.5
								c0.9,0.3,1.3-1.1,0.4-1.4c-1.4-0.5-3-1.2-3.9-2.5c-0.5-0.8-0.7-1.6-0.6-2.6c0.2-3.7,3.3-6.9,6.5-8.4c1.7-0.8,3.6-1.2,5.5-0.9
								c1.7,0.3,3.2,1.2,4.4,2.4c1.1,1.2,1.8,2.8,1.7,4.4c-0.1,1.9-1,4.1-2.3,5.5s-3.1,2.4-4.9,2.9c-2.1,0.5-4.3,0.1-6.2-0.7
								c-0.4-0.2-0.8-0.1-1,0.3C529.4,368.6,529.5,369.1,529.8,369.3L529.8,369.3z"/>
							<path d="M539.2,389.3c2.3,2.5,4.8,4.9,7.4,7.2c3.5,3.1,7.1,6.2,10.7,9.2c4.1,3.4,8.3,6.6,12.6,9.8c4.2,3.2,8.5,6.2,12.8,9.2
								c3.8,2.5,7.6,5,11.6,7.2c0.4,0.2,0.9,0.5,1.3,0.7c0.7,0.4,1.3-0.7,0.6-1.1c-3.9-2.1-7.6-4.4-11.2-6.8
								c-4.3-2.9-8.5-5.9-12.7-9c-4.3-3.2-8.5-6.5-12.7-9.8c-3.7-3-7.4-6.1-11-9.3c-2.7-2.4-5.4-4.8-7.8-7.5
								c-0.2-0.2-0.5-0.5-0.7-0.7C539.5,387.9,538.6,388.7,539.2,389.3L539.2,389.3z"/>
							<path d="M543.6,371.3c3.4,1.7,6.8,3.6,10.1,5.5c4.1,2.3,8.1,4.7,12.2,7.1c4.1,2.5,8.3,5,12.4,7.5c3.6,2.2,7.2,4.4,10.9,6.6
								c2.5,1.5,5,3.1,7.6,4.6c0.2,0.1,0.4,0.2,0.6,0.4c0.7,0.4,1.3-0.7,0.6-1.1c-2.4-1.4-4.7-2.8-7.1-4.2c-3.5-2.1-7-4.3-10.6-6.5
								c-4.1-2.5-8.2-5-12.3-7.5c-4.1-2.4-8.2-4.9-12.3-7.2c-3.5-2-6.9-4-10.5-5.8c-0.4-0.2-0.7-0.4-1.1-0.6
								C543.5,369.9,542.9,370.9,543.6,371.3L543.6,371.3z"/>
							<path d="M544.6,359.6c8,1.7,15.9,3.5,23.8,5.6c6.3,1.6,12.5,3.5,18.5,5.9c2.9,1.2,5.8,2.5,8.6,4c0.7,0.4,1.3-0.7,0.6-1.1
								c-5.2-2.8-10.7-4.9-16.3-6.8c-6.8-2.2-13.8-4-20.7-5.6c-4.7-1.1-9.5-2.2-14.2-3.2C544.1,358.3,543.8,359.4,544.6,359.6
								L544.6,359.6z"/>
							<path d="M542.8,364.9c0.4,5.3,0.4,10.8-0.6,16.1c-0.3,1.8-0.8,3.7-1.6,5.4c-0.3,0.6-0.6,1.1-1,1.6c-0.5,0.6-1.3,0.9-2,1.1
								c-4.3,1.5-9.3,0.4-13.1-1.9c-1-0.6-2-1.4-2.9-2.3c-0.4-0.4-0.9-0.9-1-1.5c-0.1-0.5,0-1.1,0-1.6c0.3-1.8,0.9-3.5,1.5-5.1
								c1.3-3.5,2.8-6.9,4.7-10.1c0.4-0.7-0.7-1.3-1.1-0.6c-1.7,3-3.1,6.2-4.4,9.4c-0.7,1.8-1.4,3.7-1.8,5.6
								c-0.2,1.1-0.4,2.3,0.1,3.4c0.6,1.1,1.7,2,2.7,2.7c2,1.6,4.3,2.7,6.8,3.3c2.3,0.6,4.9,0.8,7.3,0.3c1.7-0.4,3.5-1,4.5-2.4
								s1.6-3.2,2-4.9c0.7-2.7,1-5.6,1.2-8.4c0.2-3.4,0.1-6.8-0.1-10.1C544,364.2,542.8,364.2,542.8,364.9L542.8,364.9z"/>
							<path d="M521.7,357.5c-2.5-1.6-5.3-2.6-8.1-3.5c-3.4-1.2-6.9-2.1-10.4-3c-3.1-0.8-6.2-1.5-9.3-2.1c-1.1-0.2-2.1-0.4-3.2-0.5
								c-0.8-0.1-1.6-0.2-2.4-0.1c-2.2,0.4-4,1.9-5.6,3.4c-1.7,1.6-3.2,3.4-4.8,5c0.3,0.2,0.7,0.4,1,0.6c0-0.2,0.1-0.5,0.1-0.7
								c0.2-0.8-1-1.1-1.2-0.3c-0.2,1.1-0.4,2-0.1,3.1c0.3,1.3,1,2.5,1.7,3.6c1,1.7,2.1,3.4,3.3,5c2.6,3.7,5.5,7.1,8.8,10.1
								c1.1,1,2.2,1.9,3.4,2.9c0.6,0.5,1.2,0.9,1.8,1.4c0.2,0.2,0.5,0.4,0.8,0.3c0.4-0.2,0.6-0.7,0.3-1c-0.2-0.2-0.6-0.5-0.9-0.7
								s-0.8,0-0.9,0.4c-0.1,0.8,1,1.2,1.6,1.4c1,0.3,2.2,0.5,3.2,0.7c3.7,0.5,7.5,0.8,11.2,0.9c2.7,0.1,5.3,0.2,8,0.2
								c0.8,0,0.8-1.2,0-1.2c-4.3,0-8.5-0.1-12.8-0.4c-2.8-0.2-5.8-0.4-8.6-1.1c-0.2-0.1-0.5-0.1-0.7-0.2c-0.1,0-0.2-0.1-0.3-0.1
								c-0.1,0-0.2-0.1-0.1-0.1c-0.3-0.1-0.4-0.2-0.6-0.4c0.1,0.2,0.1,0.4,0.2,0.6l0,0c-0.3,0.1-0.6,0.2-0.9,0.4l0.1,0.1l0.1,0.1
								c0.1,0.1-0.1-0.1,0.1,0c0.1,0.1,0.3,0.2,0.4,0.3c0.1-0.3,0.2-0.7,0.3-1l0,0c0.2,0,0.3,0,0.5,0.1c-0.8-0.5-1.4-1.1-2.1-1.6
								c-1-0.8-1.9-1.6-2.8-2.4c-1.7-1.5-3.2-3.1-4.7-4.8c-2.6-2.9-4.7-6.1-6.8-9.4c-0.7-1.1-1.4-2.2-1.9-3.4
								c-0.2-0.6-0.4-1.3-0.4-1.9c0-0.5,0.1-0.9,0.2-1.4c0.2-0.8-1-1.1-1.2-0.3c0,0.2-0.1,0.5-0.1,0.7c-0.1,0.6,0.6,1,1,0.6
								c1.4-1.4,2.7-2.9,4.1-4.3s2.9-2.8,4.7-3.5c0.9-0.3,1.7-0.4,2.6-0.2c0.3,0,0.7,0.1,1.2,0.2s1.1,0.2,1.6,0.3
								c6.4,1.2,12.9,2.8,19.1,4.8c3.1,1,6.3,2.1,9.1,3.8C521.7,358.9,522.4,357.9,521.7,357.5L521.7,357.5z"/>
							<path d="M478.9,356.3c-0.5-0.4-0.6-0.7-1-1.2c-0.6-0.8-1.2-1.6-1.7-2.5c-1.7-2.5-3.4-5-5-7.6c-3.8-5.8-7.6-11.7-11.5-17.5
								c-2.6-3.8-5.7-7.7-6-12.5c-0.1,0.2-0.2,0.4-0.3,0.5c1-0.8,2.6-0.4,3.7,0c1.8,0.6,3.5,1.6,5.1,2.7c1.6,1.2,3.1,2.7,4.2,4.4
								c0.2,0.4,0.4,0.8,0.6,1.2c0.3,0.4,0.9,0.6,1.2,0.1c0.4-0.7-0.6-1.9-1.1-1c-0.1,0.2-0.1,0.3-0.1,0.5c-0.1,0.4-0.3,0.7-0.5,1
								c-0.5,0.7-1,1.3-1.5,2c-1,1.4-2.1,2.8-3.1,4.1c-0.5,0.6,0.6,1.2,1.1,0.6c1-1.4,2.1-2.8,3.1-4.1c0.5-0.7,1-1.3,1.5-2
								c0.2-0.3,0.3-0.5,0.5-0.8c0.1-0.1,0.1-0.3,0.1-0.5c0-0.1,0.2-0.4,0-0.2c-0.2,0.1-0.4,0.2-0.5,0.3l0,0
								c-0.1-0.1-0.3-0.1-0.4-0.2c-0.2-0.2-0.1-0.3-0.1-0.1c0,0,0,0,0-0.1c0,0.1,0,0.1,0.1-0.2c0.1-0.1,0.2-0.2,0.4-0.3l0,0
								c0.2,0,0.3,0,0.5,0.1c0.1,0.1,0.1,0.2,0.1,0c0,0-0.1-0.1-0.1-0.2c-0.1-0.1-0.1-0.3-0.2-0.4c-0.2-0.3-0.3-0.5-0.5-0.8
								c-0.4-0.5-0.7-1-1.2-1.5c-0.9-1-1.9-1.9-2.9-2.7c-1.9-1.5-4.1-2.8-6.4-3.3c-0.9-0.2-1.9-0.3-2.8-0.2
								c-0.4,0.1-0.7,0.2-1.1,0.4c-0.3,0.2-0.4,0.3-0.5,0.6c0,0.4,0.1,0.9,0.1,1.4c0.5,3.4,2.3,6.4,4.2,9.1
								c2.6,3.8,5.1,7.6,7.6,11.4c2.7,4.1,5.4,8.3,8.2,12.4c1,1.6,2.1,3.1,3.2,4.7c0.7,1,1.3,1.9,2.1,2.8c0.1,0.1,0.2,0.2,0.3,0.3
								C478.6,357.7,479.5,356.9,478.9,356.3L478.9,356.3z"/>
							<path d="M467.7,324.6C467.8,324.6,467.5,324.6,467.7,324.6C467.7,324.6,467.6,324.5,467.7,324.6s0.2,0.1,0.3,0.2l0.1,0.1
								c0,0,0.2,0.1,0.1,0.1c0.4,0.3,0.9,0.8,1.3,1.2c1.4,1.4,2.7,2.8,4,4.3c3.5,3.9,6.9,8,10.2,12.2c1.7,2.1,3.3,4.3,4.8,6.5
								c0.4,0.6,1.5,0,1.1-0.6c-3-4.3-6.2-8.4-9.6-12.5c-3-3.6-6.1-7.3-9.4-10.6c-0.5-0.5-1.1-1.1-1.7-1.5c-0.3-0.2-0.7-0.6-1.2-0.5
								C466.9,323.4,466.9,324.7,467.7,324.6L467.7,324.6z"/>
							<path d="M543.2,354.9c-4.3-4.8-9-9.2-13.7-13.6c-2.5-2.3-5.1-4.6-7.7-6.7c-2-1.6-4-3.2-6.2-4.5c-1-0.6-2.1-1.1-3.3-1.3
								c-1-0.2-2.1,0-2.9,0.7c-0.6,0.6-0.9,1.4-1.1,2.2c-0.3,2.1,0.7,4.1,1.6,6c2.4,5,4.9,9.8,7.5,14.7c2.4,4.5,4.8,9.1,7.6,13.5
								c0.2,0.3,0.4,0.6,0.5,0.8c0.4,0.6,1.5,0,1.1-0.6c-1-1.5-1.9-3.1-2.8-4.7c-1.4-2.4-2.7-4.8-4-7.3c-2.7-5-5.4-10-7.9-15.1
								c-0.4-0.9-0.9-1.7-1.3-2.6c-0.1-0.3-0.3-0.6-0.4-1c0-0.1-0.1-0.1-0.1-0.2c-0.1-0.1,0,0.1,0-0.1c0-0.1-0.1-0.2-0.1-0.3
								c-0.5-1.2-0.9-3.3,0.1-4.4c0.8-0.8,2-0.5,2.9-0.2c0.5,0.2,0.7,0.3,1.2,0.5c2,1,3.8,2.5,5.5,3.9c2.5,2,4.9,4.1,7.3,6.2
								c4.8,4.3,9.5,8.8,13.9,13.6c0.4,0.4,0.8,0.9,1.2,1.3C542.9,356.4,543.8,355.5,543.2,354.9L543.2,354.9z"/>
							<path d="M519.4,333.4c-0.9,1.3-2,2.6-3.3,3.6c-1.2,1-2.5,1.8-3.8,2.5c-0.7,0.4-0.1,1.5,0.6,1.1c1.4-0.8,2.8-1.7,4.1-2.7
								c1.3-1.1,2.5-2.4,3.5-3.8C520.9,333.4,519.8,332.8,519.4,333.4L519.4,333.4z"/>
							<path d="M498.3,315.6c-0.6-0.4-1.3-0.8-2-0.7c-0.8,0.1-1.3,0.7-1.7,1.3c-0.7,0.9-1.3,1.9-1.9,2.8c-1.4,2.1-2.7,4.3-4.2,6.3
								c-0.5,0.6,0.6,1.2,1.1,0.6c1.3-1.8,2.5-3.7,3.7-5.6c0.6-0.9,1.2-1.9,1.9-2.8c0.3-0.4,0.5-0.8,0.9-1.2
								c0.5-0.5,1.2-0.1,1.7,0.3C498.3,317.1,498.9,316,498.3,315.6L498.3,315.6z"/>
							<path d="M498.6,341.3c1.1-4.2,3.2-8,4.7-12.1c0.6-1.6,1.2-3.5,1.1-5.3c0-0.5-0.2-0.9-0.4-1.4c-0.3-0.7-0.7-1.3-1.1-1.9
								c-1.2-1.9-2.6-3.6-4.4-5c-0.6-0.5-1.5,0.4-0.9,0.9c1.5,1.2,2.8,2.6,3.8,4.2c0.4,0.6,0.8,1.3,1.2,2c0.2,0.4,0.4,0.8,0.5,1.3
								c0,0.1,0-0.1,0,0s0,0.2,0,0.3c0,0.2,0,0.3,0,0.5c0,0.4-0.1,0.8-0.2,1.3c-0.2,0.9-0.4,1.8-0.7,2.6c-0.7,2-1.5,3.8-2.3,5.7
								c-0.9,2.2-1.8,4.3-2.4,6.6C497.2,341.7,498.4,342,498.6,341.3L498.6,341.3z"/>
							<path d="M504.2,324.4c4-3.1,6.8-7.6,8.5-12.4c0.8-2.1,1.3-4.4,1.5-6.6c0.2-1.7,0.2-3.5-0.2-5.2c-0.3-1.2-1.1-2.9-2.5-3.1
								c-0.4-0.1-0.9,0.3-0.8,0.8c0.1,0.3,0.5,0.6,0.8,0.5c0.4-0.1,0.6-0.7,0.3-1c-0.6-0.6-1.3,0.1-1.7,0.5
								c-0.7,0.6-1.3,1.4-1.9,2.1c-0.7,0.8-1.3,1.6-2,2.4c-0.3,0.3-0.5,0.7-0.8,1c-0.1,0.1-0.2,0.2-0.3,0.3c-0.1,0.2,0-0.1-0.1,0.1
								c-0.5,0.6,0.4,1.5,0.9,0.9c0.9-1.1,1.8-2.3,2.7-3.4c0.6-0.7,1.2-1.4,1.8-2.1c0.2-0.2,0.5-0.5,0.7-0.7c0,0,0.2-0.2,0.1-0.1
								c0,0,0.1,0,0.1-0.1c0.1-0.1,0.1,0,0,0c0,0-0.3,0-0.4-0.1c0.1-0.3,0.2-0.7,0.3-1l0,0c0.2,0,0.3,0,0.5,0.1h-0.1
								c0.1,0.1,0.2,0.2,0.3,0.4l0,0c-0.3,0.3-0.5,0.5-0.8,0.8c0.3,0.1,0.7,0.3,0.9,0.6c0.4,0.5,0.5,0.9,0.7,1.5
								c0.4,1.5,0.4,3.2,0.3,4.8c-0.4,4.4-2,8.7-4.3,12.4c-1.4,2.3-3.2,4.4-5.4,6.1C502.7,324,503.5,324.9,504.2,324.4L504.2,324.4z
								"/>
							<path d="M493.2,342.2c-2.2-7.8-2.7-16-5.4-23.6c-0.5-1.5-1.1-3-2-4.4c-0.3-0.4-0.5-0.8-0.7-1.2c-0.4-0.5-0.9-0.9-1.5-1.1
								c-1.3-0.4-2.8-0.6-4.1-0.7c-0.7-0.1-1.4-0.1-2.1-0.1c-0.6,0-1.4,0-1.7,0.6c-0.3,0.6-0.2,1.6-0.2,2.3c0,1.8,0,3.6,0,5.4
								c0,4.1,0.1,8.3,0,12.4c0,0.8,1.2,0.8,1.2,0c0.1-3.4,0-6.9,0-10.4c0-1.9,0-3.8,0-5.6c0-0.8,0-1.5,0-2.3c0-0.3,0-0.6,0-0.9
								c0-0.1,0.1-0.4,0-0.3c0.1-0.1,0.4,0,0.5,0c0.2,0,0.5,0,0.7,0c1.4,0,2.8,0.1,4.2,0.4c0.6,0.1,1.4,0.2,1.9,0.6
								c0.4,0.3,0.6,0.9,0.9,1.2c0.8,1.2,1.4,2.6,1.9,4c1.3,3.7,2.1,7.6,2.8,11.4c0.8,4.1,1.5,8.4,2.6,12.4
								C492.2,343.3,493.4,343,493.2,342.2L493.2,342.2z"/>
							<path d="M484,312.3c0.3-2.4,0.3-4.8,0-7.2c-0.3-2.5-0.7-4.9-1.7-7.2c-0.7-1.6-1.7-3.4-3.5-3.9c-0.4-0.1-0.8-0.1-1.2-0.1
								c-0.2,0-0.5,0.1-0.7,0.2c-0.3,0.2-0.4,0.8-0.5,1.1c-0.4,1.6-0.7,3.3-0.9,4.9c-0.4,3.9-0.4,7.9,0,11.8c0.1,0.8,1.3,0.8,1.2,0
								c-0.3-2.9-0.4-5.8-0.2-8.7c0.1-2.9,0.5-5.8,1.3-8.5c-0.1,0.1-0.3,0.3-0.4,0.4c0.8-0.2,1.6,0,2.2,0.6c0.8,0.7,1.3,1.8,1.7,2.8
								c1.1,2.7,1.5,5.8,1.7,8.7c0.1,1.5,0.1,3.1-0.2,4.6c0,0.3,0.1,0.7,0.4,0.8C483.5,312.8,483.9,312.6,484,312.3L484,312.3z"/>
							<path d="M497.5,315.8c1.5-2.1,3.1-4.1,4.7-6c1.4-1.7,2.7-3.4,3.8-5.3c0.4-0.7-0.7-1.3-1.1-0.6c-1.1,1.9-2.4,3.6-3.8,5.3
								c-1.7,2-3.3,4-4.7,6.1C496,315.8,497.1,316.4,497.5,315.8L497.5,315.8z"/>
							<path d="M518.3,351c-5-4-10.6-7.5-16.7-9.5c-1.7-0.5-3.5-1.1-5.3-1c-0.8,0-1.5,0.4-2.2,0.8c-0.9,0.5-1.8,1.1-2.6,1.7
								c-1.4,1-2.7,2-4,3.1c-0.6,0.5,0.3,1.4,0.9,0.9c1-0.8,2-1.6,3-2.4c0.8-0.6,1.7-1.2,2.6-1.8c0.7-0.4,1.4-0.8,2.1-1
								c0.2,0,0.1,0,0.3,0c0.2,0,0.3,0,0.5,0c0.3,0,0.7,0.1,1,0.1c0.9,0.1,1.8,0.4,2.7,0.6c2.5,0.7,4.9,1.8,7.1,3
								c3.5,1.8,6.7,4,9.8,6.4C518,352.4,518.9,351.5,518.3,351L518.3,351z"/>
						</g>
					</g>
					<path d="M225.9,131.5c0-0.1,0-0.1,0.1-0.2c0.1-0.1,0.2-0.1,0.3-0.1c0.3-0.1,0.6-0.1,0.9-0.1c0.7,0,1.3,0.2,2,0.5
						c0.8,0.4,1.5,0.9,2.2,1.4c0.4,0.3,0.8,0.7,1.1,1.1c0.2,0.2,0.4,0.5,0.4,0.8c-0.1,0.6-0.7,1.2-1.2,1.6c-0.6,0.5,0.3,1.4,0.9,0.9
						c0.5-0.4,1-1,1.3-1.6c0.4-1,0-1.8-0.6-2.6c-0.6-0.7-1.4-1.4-2.3-1.9c-0.9-0.6-1.9-1.1-3-1.3s-3.4-0.1-3.3,1.6
						C224.7,132.3,225.9,132.3,225.9,131.5L225.9,131.5z"/>
					<path d="M276.4,141.6c-1.3,0.3-1.8,1.8-1.8,3c0,0.5,0,0.9-0.1,1.4s-0.2,0.9-0.2,1.4c-0.1,0.9-0.4,1.9,0.2,2.7
						c0.3,0.4,0.8,0.7,1.3,0.8c0.6,0,1-0.3,1.4-0.7c0.2-0.3,0-0.7-0.2-0.8c-0.3-0.2-0.6,0-0.8,0.2c-0.1,0.2-0.3,0.2-0.5,0
						c-0.1-0.1-0.2-0.2-0.2-0.3c-0.1-0.1,0-0.1,0-0.2c0-0.7,0.1-1.4,0.2-2c0.1-0.7,0.2-1.4,0.2-2.1c0-0.7,0.1-2,0.9-2.2
						C277.5,142.6,277.1,141.4,276.4,141.6L276.4,141.6z"/>
				</g>
			</g>
		</g>
	</g>
	<g>
		<path d="M238,118.3l-1-3.4l2.9-0.8l1.1,4l3.5-0.3l-1-3.5l3-0.9l1.2,4.1l6-0.3l0.9,3.2l-6.2,0.3l0.9,3.3l6.1-0.4l0.9,3.2l-6.2,0.3
			l1,3.4l-2.9,0.8l-1.1-4l-3.6,0.2l1,3.6l-2.9,0.8l-1.2-4.2l-6.5,0.4l-0.9-3.2l6.5-0.4l-0.9-3.3l-6.4,0.5l-0.9-3.2L238,118.3z
			 M242.9,124.6l3.5-0.3l-0.9-3.3l-3.5,0.3L242.9,124.6z"/>
		<path d="M258.3,131.2l1.7,4.1l-20.2,8.3l-1.7-4.1L258.3,131.2z"/>
		<path d="M270.1,154.3l-19,10.8l-2.3-3.9l8.1-14.6l-12.4,7.1l-2.2-3.8l19-10.8l2.2,3.9l-8,14.6l12.3-7L270.1,154.3z"/>
		<path d="M283.6,170.4l-16.5,14.3l-3-3.4l5.1-15.9l-10.8,9.4l-2.9-3.3l16.5-14.3l3,3.4l-5,15.9l10.7-9.3L283.6,170.4z"/>
		<path d="M278.2,180.5c4.2-5.5,10.4-6.5,15.3-2.7c5,3.8,5.6,10.1,1.5,15.5c-4.2,5.5-10.4,6.5-15.3,2.7
			C274.7,192.2,274.1,185.9,278.2,180.5z M291.5,190.6c2.7-3.6,2.5-7.2-0.5-9.5s-6.5-1.6-9.3,2c-2.7,3.6-2.4,7.2,0.5,9.5
			C285.2,194.9,288.8,194.1,291.5,190.6z"/>
		<path d="M319,193.3l-17.8,15.4l-2.9-1.5l2.2-23.4l4.3,2.2l-1.7,15.5l11.5-10.4L319,193.3z"/>
		<path d="M323.5,213.5l-7.9-2.8l-2.8,3.4l-4.5-1.6l15.7-17.6l3.1,1.1l1.1,23.5l-4.5-1.6L323.5,213.5z M323.5,209.1l-0.1-7.6
			l-4.9,5.8L323.5,209.1z"/>
		<path d="M338,203.4l-6.4-1.5l0.9-3.9l17.2,4.1l-0.9,3.9l-6.4-1.5l-4.1,17.3l-4.3-1L338,203.4z"/>
		<path d="M351.7,202.1l4.4,0.7l-3.4,21.6l-4.4-0.7L351.7,202.1z"/>
		<path d="M379.7,206.4l-12.6,19.9l-3.2-0.6l-4.6-23.1l4.8,0.9l2.8,15.3l8.1-13.3L379.7,206.4z"/>
		<path d="M383.5,207.6l14,4.1l-1.1,3.9l-9.8-2.9l-1.3,4.3l9.2,2.7l-1.1,3.9l-9.2-2.7l-1.5,5l9.8,2.9l-1.1,3.9l-14-4.1L383.5,207.6z
			"/>
		<path d="M405.2,218.8l-6.2-2.3l1.4-3.8l16.5,6.2l-1.4,3.8l-6.2-2.3L403,237l-4.2-1.6L405.2,218.8z"/>
		<path d="M421.8,245.2l-0.9-10.2l-1.2-0.5l-0.8-0.4l-3.8,8l-4-1.9l9.3-19.7l6.7,3.2c4.8,2.3,5.7,5.4,4.1,9c-1.3,2.8-3.5,4-6.1,3.8
			l1.3,11L421.8,245.2z M423,231.5c1.8,0.9,3.4,1.2,4.3-0.7s-0.3-2.8-2.2-3.7l-2.3-1.1l-2.1,4.4L423,231.5z"/>
		<path d="M440.5,251l-7.2-4.3l-3.4,2.7l-4.1-2.5l18.9-14.1l2.8,1.7l-3.6,23.3l-4.1-2.5L440.5,251z M441.3,246.8l1.4-7.5l-6,4.7
			L441.3,246.8z"/>
		<path d="M458.6,241.6l5.1,4c5.7,4.5,6.6,10.2,2.2,15.8c-4.3,5.5-9.8,6-15.6,1.5l-5.1-3.9L458.6,241.6z M452.4,259.3
			c3.9,3.1,6.9,3.3,10.1-0.9c3.1-4,2.3-6.9-1.4-9.8l-1.5-1.2l-8.4,10.8L452.4,259.3z"/>
		<path d="M476.3,256.2l3.2,3l-15,15.8l-3.2-3L476.3,256.2z"/>
		<path d="M483.9,269.6l-4.3-5l3.1-2.6l11.5,13.4l-3.1,2.6l-4.3-5l-13.5,11.6l-2.9-3.4L483.9,269.6z"/>
		<path d="M496.6,279l2.5,3.6l-18,12.4l-2.5-3.6L496.6,279z"/>
		<path d="M492.7,292.1c6.1-3.1,12.2-1.4,15,4.2c2.9,5.6,0.7,11.5-5.4,14.6s-12.1,1.3-15-4.3C484.5,301.1,486.7,295.2,492.7,292.1z
			 M500.3,307c4-2,5.4-5.4,3.7-8.8c-1.7-3.3-5.2-4.2-9.2-2.2s-5.3,5.4-3.6,8.7C492.8,308.2,496.4,309,500.3,307z"/>
		<path d="M519.2,329.3l-21,6l-1.2-4.4l11.3-12.2l-13.7,3.9l-1.2-4.2l21-6l1.2,4.3l-11.2,12.2L518,325L519.2,329.3z"/>
	</g>
</g>
<g>
	<g>
		<path d="M104.4,525.9h-5.3v-1.5h12.2v1.5H106v13.9h-1.6C104.4,539.8,104.4,525.9,104.4,525.9z"/>
		<path d="M124.9,533.2v6.6h-1.5v-6.3c0-2.4-0.7-3.4-2.4-3.4c-2.1,0-3.2,1.7-3.2,4.7v5h-1.5v-15.3h1.5v6.1c0.7-1.1,2-1.8,3.6-1.8
			C123.7,528.8,124.9,530.3,124.9,533.2z"/>
		<path d="M139.5,534.8h-7.9c0,2.4,1.4,3.8,3.5,3.8c1.2,0,2.1-0.3,3.1-1.4l1.1,0.9c-1.3,1.3-2.5,1.8-4.2,1.8c-3.3,0-5-2.5-5-5.5
			c0-3.1,1.7-5.7,4.8-5.7c3.3,0,4.7,2.6,4.7,5.1C139.6,534.2,139.6,534.5,139.5,534.8z M131.6,533.5h6.6c0,0,0-0.2,0-0.4
			c-0.1-1.8-1.2-3.1-3.2-3.1C132.9,530.1,131.7,531.6,131.6,533.5z"/>
		<path d="M161.3,531.9h5.2v7.9h-1.3l-0.2-2.4c-0.8,1.7-2.7,2.6-5.1,2.6c-4.5,0-6.9-3.3-6.9-7.9c0-4.6,2.4-7.9,7.1-7.9
			c3.2,0,5.3,1.6,6.3,4.2L165,529c-0.8-2.1-2.3-3.3-4.9-3.3c-3.7,0-5.5,2.5-5.5,6.3c0,3.7,1.6,6.5,5.4,6.5c2.6,0,5-1.4,5-4.9v-0.5
			h-3.7V531.9z"/>
		<path d="M179.4,529.3l-0.7,1.2c-0.5-0.2-1-0.3-1.4-0.3c-1.7,0-2.9,1.3-2.9,3.6v6.1h-1.5V529h1.5v1.6c0.8-1.4,2.1-1.8,3.2-1.8
			C178.2,528.8,178.8,528.9,179.4,529.3z"/>
		<path d="M182.6,534.4c0-3.2,2.1-5.6,5.2-5.6c3.1,0,5.2,2.4,5.2,5.6c0,3.2-2.1,5.6-5.2,5.6S182.6,537.6,182.6,534.4z M191.4,534.4
			c0-2.5-1.4-4.2-3.7-4.2s-3.7,1.8-3.7,4.2c0,2.5,1.4,4.3,3.7,4.3C190.1,538.7,191.4,536.8,191.4,534.4z"/>
		<path d="M206.7,529v10.8h-1.5v-1.6c-0.8,1.2-2.2,1.7-3.6,1.7c-2.5,0-3.5-1.7-3.5-4.4V529h1.5v6.3c0,1.8,0.3,3.4,2.4,3.4
			c2.2,0,3.2-1.9,3.2-4.7v-5H206.7z"/>
		<path d="M222.6,534.4c0,3.2-1.7,5.6-4.8,5.6c-1.6,0-2.8-0.6-3.6-1.6v5.9h-1.5V529h1.5v1.5c0.8-1.1,2-1.6,3.6-1.6
			C220.8,528.8,222.6,531,222.6,534.4z M221.1,534.4c0-2.6-1.3-4.3-3.5-4.3s-3.5,1.7-3.5,4.3c0,2.5,1.2,4.3,3.5,4.3
			C219.9,538.7,221.1,536.9,221.1,534.4z"/>
		<path d="M236.6,524.5h1.8v2.2h-1.8V524.5z M236.7,529h1.5v10.8h-1.5V529z"/>
		<path d="M243.2,537.2l1.3-0.6c0.4,1.1,1.5,2.1,3.1,2.1c1.5,0,2.4-0.7,2.4-1.9c0-2.9-6.2-1.1-6.2-4.9c0-1.9,1.5-3.1,3.7-3.1
			c1.7,0,3.1,0.7,3.9,2.3l-1.2,0.7c-0.5-1-1.4-1.6-2.7-1.6s-2.2,0.6-2.2,1.5c0,2.6,6.3,0.9,6.3,5.1c0,2.2-1.8,3.3-3.9,3.3
			C245.5,540,243.8,538.9,243.2,537.2z"/>
		<path d="M273,539.8h-1.5v-9.6h-4.2v9.6h-1.5v-9.6h-1.9V529h1.9v-0.9c0-2.6,1.7-3.8,3.9-3.8c1.3,0,2.4,0.4,3.4,1l-0.7,1.1
			c-0.7-0.5-1.5-0.8-2.6-0.8c-1.6,0-2.4,0.8-2.4,2.6v0.9h5.7L273,539.8L273,539.8z"/>
		<path d="M285.8,529.3l-0.7,1.2c-0.5-0.2-1-0.3-1.4-0.3c-1.7,0-2.9,1.3-2.9,3.6v6.1h-1.5V529h1.5v1.6c0.8-1.4,2.1-1.8,3.2-1.8
			C284.6,528.8,285.2,528.9,285.8,529.3z"/>
		<path d="M305.2,533v6.8h-1.5v-6.4c0-0.9,0-3.3-2.4-3.3c-2.2,0-2.8,2-2.8,4.5v5.2H297v-6.3c0-1.8-0.5-3.4-2.4-3.4
			c-2.1,0-2.7,2-2.7,4.5v5.2h-1.5V529h1.5v1.3c0.7-1.1,1.8-1.5,3-1.5c1.5,0,2.6,0.7,3.2,2.1c0.7-1.4,1.9-2.1,3.6-2.1
			C304.2,528.8,305.2,530.5,305.2,533z"/>
		<path d="M311.1,537.5v-13h1.5v12.9c0,0.7,0.3,1.2,1,1.2c0.3,0,0.7-0.1,1-0.2v1.3c-0.5,0.2-1,0.3-1.5,0.3
			C311.9,540,311.1,539.2,311.1,537.5z"/>
		<path d="M322.1,539.7l-4.6-10.7h1.7l3.7,8.9l3.3-8.9h1.7l-5.9,15.3h-1.6L322.1,539.7z"/>
		<path d="M347.8,529.3l-0.7,1.2c-0.5-0.2-1-0.3-1.4-0.3c-1.7,0-2.9,1.3-2.9,3.6v6.1h-1.5V529h1.5v1.6c0.8-1.4,2.1-1.8,3.2-1.8
			C346.6,528.8,347.2,528.9,347.8,529.3z"/>
		<path d="M351,534.4c0-3.2,2.1-5.6,5.2-5.6s5.2,2.4,5.2,5.6c0,3.2-2.1,5.6-5.2,5.6S351,537.6,351,534.4z M359.9,534.4
			c0-2.5-1.4-4.2-3.7-4.2c-2.3,0-3.7,1.8-3.7,4.2c0,2.5,1.4,4.3,3.7,4.3S359.9,536.8,359.9,534.4z"/>
		<path d="M365.9,534.4c0-3.2,2.1-5.6,5.2-5.6s5.2,2.4,5.2,5.6c0,3.2-2.1,5.6-5.2,5.6S365.9,537.6,365.9,534.4z M374.8,534.4
			c0-2.5-1.4-4.2-3.7-4.2c-2.3,0-3.7,1.8-3.7,4.2c0,2.5,1.4,4.3,3.7,4.3S374.8,536.8,374.8,534.4z"/>
		<path d="M385.9,539.7c-0.6,0.2-1.1,0.3-1.7,0.3c-1.5,0-2.5-0.8-2.5-2.7v-7H380V529h1.8v-2.8l1.5-1.1v4h2.6v1.3h-2.6v6.8
			c0,1.1,0.5,1.5,1.3,1.5c0.4,0,0.8-0.1,1.3-0.2L385.9,539.7z"/>
		<path d="M399.3,534.8h-7.9c0,2.4,1.4,3.8,3.5,3.8c1.2,0,2.1-0.3,3.1-1.4l1.1,0.9c-1.3,1.3-2.5,1.8-4.2,1.8c-3.3,0-5-2.5-5-5.5
			c0-3.1,1.7-5.7,4.8-5.7c3.3,0,4.7,2.6,4.7,5.1C399.3,534.2,399.3,534.5,399.3,534.8z M391.3,533.5h6.6c0,0,0-0.2,0-0.4
			c-0.1-1.8-1.2-3.1-3.2-3.1C392.7,530.1,391.5,531.6,391.3,533.5z"/>
		<path d="M413.8,524.5v15.3h-1.5v-1.5c-0.8,1-2,1.6-3.6,1.6c-3.2,0-4.8-2.4-4.8-5.6c0-3.4,1.8-5.6,4.8-5.6c1.5,0,2.8,0.6,3.6,1.6
			v-5.9h1.5V524.5z M412.4,534.4c0-2.6-1.3-4.3-3.5-4.3s-3.5,1.7-3.5,4.3c0,2.5,1.2,4.3,3.5,4.3
			C411.2,538.7,412.4,536.9,412.4,534.4z"/>
		<path d="M428.6,524.5h1.8v2.2h-1.8V524.5z M428.7,529h1.5v10.8h-1.5V529z"/>
		<path d="M444.9,533.2v6.6h-1.5v-6.3c0-2.3-0.7-3.4-2.4-3.4c-2,0-3.2,1.8-3.2,4.8v4.9h-1.5V529h1.5v1.6c0.7-1.1,2-1.8,3.6-1.8
			C443.7,528.8,444.9,530.3,444.9,533.2z"/>
		<path d="M467.7,533.1v6.8h-1.4l-0.1-1.7c-0.9,1.2-2.2,1.8-3.9,1.8c-2.4,0-3.7-1.2-3.7-3.3c0-1.1,0.4-1.9,1.2-2.4
			c0.8-0.5,2-0.7,4.1-0.7h2.2v-0.5c0-1.9-1-2.9-2.8-2.9c-1.4,0-2.4,0.6-3.3,1.8l-1.1-0.9c1.2-1.5,2.6-2.2,4.4-2.2
			C466.1,528.8,467.7,530.4,467.7,533.1z M466.1,535v-0.2H464c-2,0-2.9,0.1-3.4,0.5c-0.4,0.3-0.6,0.8-0.6,1.4c0,1.2,1,2,2.7,2
			C464.8,538.7,466.1,537.3,466.1,535z"/>
		<path d="M481.4,534.4c0-2.9,1.6-5.6,4.9-5.6c1.9,0,3.5,1,4.4,3l-1.5,0.6c-0.5-1.4-1.6-2.2-2.9-2.2c-2.3,0-3.3,2.1-3.3,4.3
			s1,4.2,3.4,4.2c1.4,0,2.4-0.8,2.9-2.2l1.4,0.5c-0.7,2-2.3,3-4.3,3C483.1,540,481.4,537.4,481.4,534.4z"/>
		<path d="M504.4,534.8h-7.9c0,2.4,1.4,3.8,3.5,3.8c1.2,0,2.1-0.3,3.1-1.4l1.1,0.9c-1.3,1.3-2.5,1.8-4.2,1.8c-3.3,0-5-2.5-5-5.5
			c0-3.1,1.7-5.7,4.8-5.7c3.3,0,4.7,2.6,4.7,5.1C504.4,534.2,504.4,534.5,504.4,534.8z M496.4,533.5h6.6c0,0,0-0.2,0-0.4
			c-0.1-1.8-1.2-3.1-3.2-3.1C497.8,530.1,496.5,531.6,496.4,533.5z"/>
		<path d="M518.3,533.2v6.6h-1.5v-6.3c0-2.3-0.7-3.4-2.4-3.4c-2,0-3.2,1.8-3.2,4.8v4.9h-1.5V529h1.5v1.6c0.7-1.1,2-1.8,3.6-1.8
			C517.1,528.8,518.3,530.3,518.3,533.2z"/>
		<path d="M528.6,539.7c-0.6,0.2-1.1,0.3-1.7,0.3c-1.5,0-2.5-0.8-2.5-2.7v-7h-1.8V529h1.8v-2.8l1.5-1.1v4h2.6v1.3H526v6.8
			c0,1.1,0.5,1.5,1.3,1.5c0.4,0,0.8-0.1,1.3-0.2V539.7z"/>
		<path d="M542,529v10.8h-1.5v-1.6c-0.8,1.2-2.2,1.7-3.6,1.7c-2.5,0-3.5-1.7-3.5-4.4V529h1.5v6.3c0,1.8,0.3,3.4,2.4,3.4
			c2.2,0,3.2-1.9,3.2-4.7v-5H542z"/>
		<path d="M554.6,529.3l-0.7,1.2c-0.5-0.2-1-0.3-1.4-0.3c-1.7,0-2.9,1.3-2.9,3.6v6.1H548V529h1.5v1.6c0.8-1.4,2.1-1.8,3.2-1.8
			C553.4,528.8,554.1,528.9,554.6,529.3z"/>
		<path d="M563,539.7l-4.6-10.7h1.7l3.7,8.9l3.3-8.9h1.7l-5.9,15.3h-1.6L563,539.7z"/>
		<path d="M572.9,532.5h5.9v1.2h-5.9V532.5z"/>
		<path d="M583.9,534.4c0-3.2,2.1-5.6,5.2-5.6c3.1,0,5.2,2.4,5.2,5.6c0,3.2-2.1,5.6-5.2,5.6S583.9,537.6,583.9,534.4z M592.8,534.4
			c0-2.5-1.4-4.2-3.7-4.2s-3.7,1.8-3.7,4.2c0,2.5,1.4,4.3,3.7,4.3C591.4,538.7,592.8,536.8,592.8,534.4z"/>
		<path d="M599.5,537.5v-13h1.5v12.9c0,0.7,0.3,1.2,1,1.2c0.3,0,0.7-0.1,1-0.2v1.3c-0.5,0.2-1,0.3-1.5,0.3
			C600.3,540,599.5,539.2,599.5,537.5z"/>
		<path d="M616.7,524.5v15.3h-1.5v-1.5c-0.8,1-2,1.6-3.6,1.6c-3.2,0-4.8-2.4-4.8-5.6c0-3.4,1.8-5.6,4.8-5.6c1.5,0,2.8,0.6,3.6,1.6
			v-5.9h1.5V524.5z M615.3,534.4c0-2.6-1.3-4.3-3.5-4.3s-3.5,1.7-3.5,4.3c0,2.5,1.2,4.3,3.5,4.3S615.3,536.9,615.3,534.4z"/>
		<path d="M104.8,577.7c-0.6,0.2-1.1,0.3-1.7,0.3c-1.5,0-2.5-0.8-2.5-2.7v-7h-1.8V567h1.8v-2.8l1.5-1.1v4h2.6v1.3h-2.6v6.8
			c0,1.1,0.5,1.5,1.3,1.5c0.4,0,0.8-0.1,1.3-0.2L104.8,577.7z"/>
		<path d="M116.3,567.3l-0.7,1.2c-0.5-0.2-1-0.3-1.4-0.3c-1.7,0-2.9,1.3-2.9,3.6v6.1h-1.5V567h1.5v1.6c0.8-1.4,2.1-1.8,3.2-1.8
			C115.1,566.8,115.7,566.9,116.3,567.3z"/>
		<path d="M128.8,571.1v6.8h-1.4l-0.1-1.7c-0.9,1.2-2.2,1.8-3.9,1.8c-2.4,0-3.7-1.2-3.7-3.3c0-1.1,0.4-1.9,1.2-2.4
			c0.8-0.5,2-0.7,4.1-0.7h2.2v-0.5c0-1.9-1-2.9-2.8-2.9c-1.4,0-2.4,0.6-3.3,1.8l-1.1-0.9c1.2-1.5,2.6-2.2,4.4-2.2
			C127.2,566.8,128.8,568.4,128.8,571.1z M127.3,573v-0.2h-2.1c-2,0-2.9,0.1-3.4,0.5c-0.4,0.3-0.6,0.8-0.6,1.4c0,1.2,1,2,2.7,2
			C126,576.7,127.3,575.3,127.3,573z"/>
		<path d="M143.9,562.5v15.3h-1.5v-1.5c-0.8,1-2,1.6-3.6,1.6c-3.2,0-4.8-2.4-4.8-5.6c0-3.4,1.8-5.6,4.8-5.6c1.5,0,2.8,0.6,3.6,1.6
			v-5.9h1.5V562.5z M142.5,572.4c0-2.6-1.3-4.3-3.5-4.3s-3.5,1.7-3.5,4.3c0,2.5,1.2,4.3,3.5,4.3S142.5,574.9,142.5,572.4z"/>
		<path d="M149.8,562.5h1.8v2.2h-1.8V562.5z M149.9,567h1.5v10.8h-1.5V567z"/>
		<path d="M162.1,577.7c-0.6,0.2-1.1,0.3-1.7,0.3c-1.5,0-2.5-0.8-2.5-2.7v-7h-1.8V567h1.8v-2.8l1.5-1.1v4h2.6v1.3h-2.6v6.8
			c0,1.1,0.5,1.5,1.3,1.5c0.4,0,0.8-0.1,1.3-0.2L162.1,577.7z"/>
		<path d="M166.8,562.5h1.8v2.2h-1.8V562.5z M166.9,567h1.5v10.8h-1.5V567z"/>
		<path d="M173.7,572.4c0-3.2,2.1-5.6,5.2-5.6c3.1,0,5.2,2.4,5.2,5.6c0,3.2-2.1,5.6-5.2,5.6S173.7,575.6,173.7,572.4z M182.6,572.4
			c0-2.5-1.4-4.2-3.7-4.2s-3.7,1.8-3.7,4.2c0,2.5,1.4,4.3,3.7,4.3C181.2,576.7,182.6,574.8,182.6,572.4z"/>
		<path d="M198,571.2v6.6h-1.5v-6.3c0-2.3-0.7-3.4-2.4-3.4c-2,0-3.2,1.8-3.2,4.8v4.9h-1.5V567h1.5v1.6c0.7-1.1,2-1.8,3.6-1.8
			C196.8,566.8,198,568.3,198,571.2z"/>
		<path d="M222.6,572.4c0,3.2-1.7,5.6-4.8,5.6c-1.6,0-2.8-0.6-3.6-1.6v1.5h-1.5v-15.3h1.5v5.9c0.8-1.1,2-1.6,3.6-1.6
			C220.8,566.8,222.6,569,222.6,572.4z M221.1,572.4c0-2.6-1.3-4.3-3.5-4.3s-3.5,1.7-3.5,4.3c0,2.5,1.2,4.3,3.5,4.3
			C219.9,576.7,221.1,574.9,221.1,572.4z"/>
		<path d="M236.8,572.8h-7.9c0,2.4,1.4,3.8,3.5,3.8c1.2,0,2.1-0.3,3.1-1.4l1.1,0.9c-1.3,1.3-2.5,1.8-4.2,1.8c-3.3,0-5-2.5-5-5.5
			c0-3.1,1.7-5.7,4.8-5.7c3.3,0,4.7,2.6,4.7,5.1C236.8,572.2,236.8,572.5,236.8,572.8z M228.8,571.5h6.6c0,0,0-0.2,0-0.4
			c-0.1-1.8-1.2-3.1-3.2-3.1C230.2,568.1,228.9,569.6,228.8,571.5z"/>
		<path d="M241.9,562.5h1.8v2.2h-1.8V562.5z M242.1,567h1.5v10.8h-1.5V567z"/>
		<path d="M258.2,571.2v6.6h-1.5v-6.3c0-2.3-0.7-3.4-2.4-3.4c-2,0-3.2,1.8-3.2,4.8v4.9h-1.5V567h1.5v1.6c0.7-1.1,2-1.8,3.6-1.8
			C257,566.8,258.2,568.3,258.2,571.2z"/>
		<path d="M272.6,579.5c0,2-1.9,3-4.6,3c-3,0-4.8-1.2-4.8-3.3c0-0.2,0-0.4,0-0.5l1.8-1.5c-0.8-0.4-1.4-1-1.4-2.1
			c0-0.9,0.4-1.5,1.2-2.1c-0.6-0.7-0.9-1.5-0.9-2.5c0-2.2,1.8-3.8,4.1-3.8c1.1,0,2,0.3,2.7,0.9l1.5-1.3l0.8,1l-1.5,1.2
			c0.4,0.6,0.6,1.3,0.6,2c0,2.2-1.8,3.7-4.1,3.7c-0.8,0-1.6-0.2-2.2-0.5c-0.4,0.2-0.7,0.6-0.7,1.1c0,1.1,1.4,1.4,2.9,1.6
			C270.1,576.8,272.6,577.1,272.6,579.5z M271.1,579.6c0-1.3-1.7-1.5-3.5-1.8c-0.5-0.1-1-0.2-1.5-0.3l-1.5,1.4c0,0.1,0,0.2,0,0.2
			c0,1.5,1.6,2,3.4,2C270,581.2,271.1,580.7,271.1,579.6z M265.3,570.6c0,1.4,1,2.5,2.6,2.5s2.6-1.1,2.6-2.5c0-1.5-1-2.5-2.6-2.5
			C266.4,568.1,265.3,569.1,265.3,570.6z"/>
		<path d="M279.5,575h2l-2.9,6.2h-1L279.5,575z"/>
		<path d="M304,571.1v6.8h-1.4l-0.1-1.7c-0.9,1.2-2.2,1.8-3.9,1.8c-2.4,0-3.7-1.2-3.7-3.3c0-1.1,0.4-1.9,1.2-2.4
			c0.8-0.5,2-0.7,4.1-0.7h2.2v-0.5c0-1.9-1-2.9-2.8-2.9c-1.4,0-2.4,0.6-3.3,1.8l-1.1-0.9c1.2-1.5,2.6-2.2,4.4-2.2
			C302.4,566.8,304,568.4,304,571.1z M302.5,573v-0.2h-2.1c-2,0-2.9,0.1-3.4,0.5c-0.4,0.3-0.6,0.8-0.6,1.4c0,1.2,1,2,2.7,2
			C301.2,576.7,302.5,575.3,302.5,573z"/>
		<path d="M314.2,577.7c-0.6,0.2-1.1,0.3-1.7,0.3c-1.5,0-2.5-0.8-2.5-2.7v-7h-1.8V567h1.8v-2.8l1.5-1.1v4h2.6v1.3h-2.6v6.8
			c0,1.1,0.5,1.5,1.3,1.5c0.4,0,0.8-0.1,1.3-0.2L314.2,577.7z"/>
		<path d="M332.6,577.7c-0.6,0.2-1.1,0.3-1.7,0.3c-1.5,0-2.5-0.8-2.5-2.7v-7h-1.8V567h1.8v-2.8l1.5-1.1v4h2.6v1.3h-2.6v6.8
			c0,1.1,0.5,1.5,1.3,1.5c0.4,0,0.8-0.1,1.3-0.2L332.6,577.7z"/>
		<path d="M346.1,571.2v6.6h-1.5v-6.3c0-2.4-0.7-3.4-2.4-3.4c-2.1,0-3.2,1.7-3.2,4.7v5h-1.5v-15.3h1.5v6.1c0.7-1.1,2-1.8,3.6-1.8
			C344.9,566.8,346.1,568.3,346.1,571.2z"/>
		<path d="M360.7,572.8h-7.9c0,2.4,1.4,3.8,3.5,3.8c1.2,0,2.1-0.3,3.1-1.4l1.1,0.9c-1.3,1.3-2.5,1.8-4.2,1.8c-3.3,0-5-2.5-5-5.5
			c0-3.1,1.7-5.7,4.8-5.7c3.3,0,4.7,2.6,4.7,5.1C360.7,572.2,360.7,572.5,360.7,572.8z M352.7,571.5h6.6c0,0,0-0.2,0-0.4
			c-0.1-1.8-1.2-3.1-3.2-3.1C354.1,568.1,352.9,569.6,352.7,571.5z"/>
		<path d="M373.6,575.2l1.3-0.6c0.4,1.1,1.5,2.1,3.1,2.1c1.5,0,2.4-0.7,2.4-1.9c0-2.9-6.2-1.1-6.2-4.9c0-1.9,1.5-3.1,3.7-3.1
			c1.7,0,3.1,0.7,3.9,2.3l-1.2,0.7c-0.5-1-1.4-1.6-2.7-1.6c-1.3,0-2.2,0.6-2.2,1.5c0,2.6,6.3,0.9,6.3,5.1c0,2.2-1.8,3.3-3.9,3.3
			C375.9,578,374.1,576.9,373.6,575.2z"/>
		<path d="M395.5,571.1v6.8h-1.4l-0.1-1.7c-0.9,1.2-2.2,1.8-3.9,1.8c-2.4,0-3.7-1.2-3.7-3.3c0-1.1,0.4-1.9,1.2-2.4
			c0.8-0.5,2-0.7,4.1-0.7h2.2v-0.5c0-1.9-1-2.9-2.8-2.9c-1.4,0-2.4,0.6-3.3,1.8l-1.1-0.9c1.2-1.5,2.6-2.2,4.4-2.2
			C393.9,566.8,395.5,568.4,395.5,571.1z M394,573v-0.2h-2.1c-2,0-2.9,0.1-3.4,0.5c-0.4,0.3-0.6,0.8-0.6,1.4c0,1.2,1,2,2.7,2
			C392.6,576.7,394,575.3,394,573z"/>
		<path d="M416.2,571v6.8h-1.5v-6.4c0-0.9,0-3.3-2.4-3.3c-2.2,0-2.8,2-2.8,4.5v5.2H408v-6.3c0-1.8-0.5-3.4-2.4-3.4
			c-2.1,0-2.7,2-2.7,4.5v5.2h-1.5V567h1.5v1.3c0.7-1.1,1.8-1.5,3-1.5c1.5,0,2.6,0.7,3.2,2.1c0.7-1.4,1.9-2.1,3.6-2.1
			C415.1,566.8,416.2,568.5,416.2,571z"/>
		<path d="M430.8,572.8h-7.9c0,2.4,1.4,3.8,3.5,3.8c1.2,0,2.1-0.3,3.1-1.4l1.1,0.9c-1.3,1.3-2.5,1.8-4.2,1.8c-3.3,0-5-2.5-5-5.5
			c0-3.1,1.7-5.7,4.8-5.7c3.3,0,4.7,2.6,4.7,5.1C430.9,572.2,430.8,572.5,430.8,572.8z M422.8,571.5h6.6c0,0,0-0.2,0-0.4
			c-0.1-1.8-1.2-3.1-3.2-3.1C424.2,568.1,423,569.6,422.8,571.5z"/>
		<path d="M449.4,577.7c-0.6,0.2-1.1,0.3-1.7,0.3c-1.5,0-2.5-0.8-2.5-2.7v-7h-1.8V567h1.8v-2.8l1.5-1.1v4h2.6v1.3h-2.6v6.8
			c0,1.1,0.5,1.5,1.3,1.5c0.4,0,0.8-0.1,1.3-0.2L449.4,577.7z"/>
		<path d="M454.1,562.5h1.8v2.2h-1.8V562.5z M454.2,567h1.5v10.8h-1.5V567z"/>
		<path d="M476.6,571v6.8h-1.5v-6.4c0-0.9,0-3.3-2.4-3.3c-2.2,0-2.8,2-2.8,4.5v5.2h-1.5v-6.3c0-1.8-0.5-3.4-2.4-3.4
			c-2.1,0-2.7,2-2.7,4.5v5.2h-1.5V567h1.5v1.3c0.7-1.1,1.8-1.5,3-1.5c1.5,0,2.6,0.7,3.2,2.1c0.7-1.4,1.9-2.1,3.6-2.1
			C475.5,566.8,476.6,568.5,476.6,571z"/>
		<path d="M491.2,572.8h-7.9c0,2.4,1.4,3.8,3.5,3.8c1.2,0,2.1-0.3,3.1-1.4l1.1,0.9c-1.3,1.3-2.5,1.8-4.2,1.8c-3.3,0-5-2.5-5-5.5
			c0-3.1,1.7-5.7,4.8-5.7c3.3,0,4.7,2.6,4.7,5.1C491.3,572.2,491.3,572.5,491.2,572.8z M483.3,571.5h6.6c0,0,0-0.2,0-0.4
			c-0.1-1.8-1.2-3.1-3.2-3.1C484.6,568.1,483.4,569.6,483.3,571.5z"/>
		<path d="M497.6,575h2l-2.9,6.2h-1L497.6,575z"/>
		<path d="M512.8,575.2l1.3-0.6c0.4,1.1,1.5,2.1,3.1,2.1c1.5,0,2.4-0.7,2.4-1.9c0-2.9-6.2-1.1-6.2-4.9c0-1.9,1.5-3.1,3.7-3.1
			c1.7,0,3.1,0.7,3.9,2.3l-1.2,0.7c-0.5-1-1.4-1.6-2.7-1.6s-2.2,0.6-2.2,1.5c0,2.6,6.3,0.9,6.3,5.1c0,2.2-1.8,3.3-3.9,3.3
			C515.1,578,513.4,576.9,512.8,575.2z"/>
		<path d="M529.5,577.7l-4.6-10.7h1.7l3.7,8.9l3.3-8.9h1.7l-5.9,15.3h-1.6L529.5,577.7z"/>
		<path d="M548.6,571.2v6.6h-1.5v-6.3c0-2.3-0.7-3.4-2.4-3.4c-2,0-3.2,1.8-3.2,4.8v4.9H540V567h1.5v1.6c0.7-1.1,2-1.8,3.6-1.8
			C547.4,566.8,548.6,568.3,548.6,571.2z"/>
		<path d="M553.7,572.4c0-3.2,2.1-5.6,5.2-5.6c3.1,0,5.2,2.4,5.2,5.6c0,3.2-2.1,5.6-5.2,5.6S553.7,575.6,553.7,572.4z M562.6,572.4
			c0-2.5-1.4-4.2-3.7-4.2s-3.7,1.8-3.7,4.2c0,2.5,1.4,4.3,3.7,4.3C561.2,576.7,562.6,574.8,562.6,572.4z"/>
		<path d="M578,571.2v6.6h-1.5v-6.3c0-2.3-0.7-3.4-2.4-3.4c-2,0-3.2,1.8-3.2,4.8v4.9h-1.5V567h1.5v1.6c0.7-1.1,2-1.8,3.6-1.8
			C576.8,566.8,578,568.3,578,571.2z"/>
		<path d="M586.6,577.7L582,567h1.7l3.7,8.9l3.3-8.9h1.7l-5.9,15.3h-1.6L586.6,577.7z"/>
		<path d="M612,571v6.8h-1.5v-6.4c0-0.9,0-3.3-2.4-3.3c-2.2,0-2.8,2-2.8,4.5v5.2h-1.5v-6.3c0-1.8-0.5-3.4-2.4-3.4
			c-2.1,0-2.7,2-2.7,4.5v5.2h-1.5V567h1.5v1.3c0.7-1.1,1.8-1.5,3-1.5c1.5,0,2.6,0.7,3.2,2.1c0.7-1.4,1.9-2.1,3.6-2.1
			C610.9,566.8,612,568.5,612,571z"/>
		<path d="M617.1,572.4c0-3.2,2.1-5.6,5.2-5.6c3.1,0,5.2,2.4,5.2,5.6c0,3.2-2.1,5.6-5.2,5.6S617.1,575.6,617.1,572.4z M626,572.4
			c0-2.5-1.4-4.2-3.7-4.2s-3.7,1.8-3.7,4.2c0,2.5,1.4,4.3,3.7,4.3S626,574.8,626,572.4z"/>
		<path d="M641.2,567v10.8h-1.5v-1.6c-0.8,1.2-2.2,1.7-3.6,1.7c-2.5,0-3.5-1.7-3.5-4.4V567h1.5v6.3c0,1.8,0.3,3.4,2.4,3.4
			c2.2,0,3.2-1.9,3.2-4.7v-5H641.2z"/>
		<path d="M646.2,575.2l1.3-0.6c0.4,1.1,1.5,2.1,3.1,2.1c1.5,0,2.4-0.7,2.4-1.9c0-2.9-6.2-1.1-6.2-4.9c0-1.9,1.5-3.1,3.7-3.1
			c1.7,0,3.1,0.7,3.9,2.3l-1.2,0.7c-0.5-1-1.4-1.6-2.7-1.6s-2.2,0.6-2.2,1.5c0,2.6,6.3,0.9,6.3,5.1c0,2.2-1.8,3.3-3.9,3.3
			C648.5,578,646.8,576.9,646.2,575.2z"/>
		<path d="M98.9,605h1.6l2.3,8.6l2.9-8.6h1.4l2.8,8.6l2.4-8.6h1.6l-3.2,10.8h-1.4l-2.9-8.8l-2.9,8.8h-1.4L98.9,605z"/>
		<path d="M118.6,600.5h1.8v2.2h-1.8V600.5z M118.7,605h1.5v10.8h-1.5V605z"/>
		<path d="M130.9,615.7c-0.6,0.2-1.1,0.3-1.7,0.3c-1.5,0-2.5-0.8-2.5-2.7v-7h-1.8V605h1.8v-2.8l1.5-1.1v4h2.6v1.3h-2.6v6.8
			c0,1.1,0.5,1.5,1.3,1.5c0.4,0,0.8-0.1,1.3-0.2L130.9,615.7z"/>
		<path d="M144.4,609.2v6.6h-1.5v-6.3c0-2.4-0.7-3.4-2.4-3.4c-2.1,0-3.2,1.7-3.2,4.7v5h-1.5v-15.3h1.5v6.1c0.7-1.1,2-1.8,3.6-1.8
			C143.2,604.8,144.4,606.3,144.4,609.2z"/>
		<path d="M165.7,605.3l-0.7,1.2c-0.5-0.2-1-0.3-1.4-0.3c-1.7,0-2.9,1.3-2.9,3.6v6.1h-1.5V605h1.5v1.6c0.8-1.4,2.1-1.8,3.2-1.8
			C164.5,604.8,165.1,604.9,165.7,605.3z"/>
		<path d="M178.4,610.8h-7.9c0,2.4,1.4,3.8,3.5,3.8c1.2,0,2.1-0.3,3.1-1.4l1.1,0.9c-1.3,1.3-2.5,1.8-4.2,1.8c-3.3,0-5-2.5-5-5.5
			c0-3.1,1.7-5.7,4.8-5.7c3.3,0,4.7,2.6,4.7,5.1C178.5,610.2,178.5,610.5,178.4,610.8z M170.5,609.5h6.6c0,0,0-0.2,0-0.4
			c-0.1-1.8-1.2-3.1-3.2-3.1C171.8,606.1,170.6,607.6,170.5,609.5z"/>
		<path d="M182.6,613.2l1.3-0.6c0.4,1.1,1.5,2.1,3.1,2.1c1.5,0,2.4-0.7,2.4-1.9c0-2.9-6.2-1.1-6.2-4.9c0-1.9,1.5-3.1,3.7-3.1
			c1.7,0,3.1,0.7,3.9,2.3l-1.2,0.7c-0.5-1-1.4-1.6-2.7-1.6s-2.2,0.6-2.2,1.5c0,2.6,6.3,0.9,6.3,5.1c0,2.2-1.8,3.3-3.9,3.3
			C185,616,183.2,614.9,182.6,613.2z"/>
		<path d="M204.9,610.8H197c0,2.4,1.4,3.8,3.5,3.8c1.2,0,2.1-0.3,3.1-1.4l1.1,0.9c-1.3,1.3-2.5,1.8-4.2,1.8c-3.3,0-5-2.5-5-5.5
			c0-3.1,1.7-5.7,4.8-5.7c3.3,0,4.7,2.6,4.7,5.1C205,610.2,205,610.5,204.9,610.8z M197,609.5h6.6c0,0,0-0.2,0-0.4
			c-0.1-1.8-1.2-3.1-3.2-3.1C198.3,606.1,197.1,607.6,197,609.5z"/>
		<path d="M218.4,609.1v6.8H217l-0.1-1.7c-0.9,1.2-2.2,1.8-3.9,1.8c-2.4,0-3.7-1.2-3.7-3.3c0-1.1,0.4-1.9,1.2-2.4s2-0.7,4.1-0.7h2.2
			v-0.5c0-1.9-1-2.9-2.8-2.9c-1.4,0-2.4,0.6-3.3,1.8l-1.1-0.9c1.2-1.5,2.6-2.2,4.4-2.2C216.8,604.8,218.4,606.4,218.4,609.1z
			 M216.9,611v-0.2h-2.1c-2,0-2.9,0.1-3.4,0.5c-0.4,0.3-0.6,0.8-0.6,1.4c0,1.2,1,2,2.7,2C215.5,614.7,216.9,613.3,216.9,611z"/>
		<path d="M230.8,605.3l-0.7,1.2c-0.5-0.2-1-0.3-1.4-0.3c-1.7,0-2.9,1.3-2.9,3.6v6.1h-1.5V605h1.5v1.6c0.8-1.4,2.1-1.8,3.2-1.8
			C229.6,604.8,230.2,604.9,230.8,605.3z"/>
		<path d="M234.1,610.4c0-2.9,1.6-5.6,4.9-5.6c1.9,0,3.5,1,4.4,3l-1.5,0.6c-0.5-1.4-1.6-2.2-2.9-2.2c-2.3,0-3.3,2.1-3.3,4.3
			s1,4.2,3.4,4.2c1.4,0,2.4-0.8,2.9-2.2l1.4,0.5c-0.7,2-2.3,3-4.3,3C235.8,616,234.1,613.4,234.1,610.4z"/>
		<path d="M257,609.2v6.6h-1.5v-6.3c0-2.4-0.7-3.4-2.4-3.4c-2.1,0-3.2,1.7-3.2,4.7v5h-1.5v-15.3h1.5v6.1c0.7-1.1,2-1.8,3.6-1.8
			C255.8,604.8,257,606.3,257,609.2z"/>
		<path d="M279.7,609.1v6.8h-1.4l-0.1-1.7c-0.9,1.2-2.2,1.8-3.9,1.8c-2.4,0-3.7-1.2-3.7-3.3c0-1.1,0.4-1.9,1.2-2.4
			c0.8-0.5,2-0.7,4.1-0.7h2.2v-0.5c0-1.9-1-2.9-2.8-2.9c-1.4,0-2.4,0.6-3.3,1.8l-1-1c1.2-1.5,2.6-2.2,4.4-2.2
			C278.1,604.8,279.7,606.4,279.7,609.1z M278.2,611v-0.2h-2.1c-2,0-2.9,0.1-3.4,0.5c-0.4,0.3-0.6,0.8-0.6,1.4c0,1.2,1,2,2.7,2
			C276.9,614.7,278.2,613.3,278.2,611z"/>
		<path d="M294.2,609.2v6.6h-1.5v-6.3c0-2.3-0.7-3.4-2.4-3.4c-2,0-3.2,1.8-3.2,4.8v4.9h-1.5V605h1.5v1.6c0.7-1.1,2-1.8,3.6-1.8
			C293,604.8,294.2,606.3,294.2,609.2z"/>
		<path d="M309.3,600.5v15.3h-1.5v-1.5c-0.8,1-2,1.6-3.6,1.6c-3.2,0-4.8-2.4-4.8-5.6c0-3.4,1.8-5.6,4.8-5.6c1.5,0,2.8,0.6,3.6,1.6
			v-5.9h1.5V600.5z M307.9,610.4c0-2.6-1.3-4.3-3.5-4.3s-3.5,1.7-3.5,4.3c0,2.5,1.2,4.3,3.5,4.3
			C306.7,614.7,307.9,612.9,307.9,610.4z"/>
		<path d="M324.1,600.5h1.8v2.2h-1.8V600.5z M324.3,605h1.5v10.8h-1.5V605z"/>
		<path d="M340.4,609.2v6.6h-1.5v-6.3c0-2.3-0.7-3.4-2.4-3.4c-2,0-3.2,1.8-3.2,4.8v4.9h-1.5V605h1.5v1.6c0.7-1.1,2-1.8,3.6-1.8
			C339.2,604.8,340.4,606.3,340.4,609.2z"/>
		<path d="M355,609.2v6.6h-1.5v-6.3c0-2.3-0.7-3.4-2.4-3.4c-2,0-3.2,1.8-3.2,4.8v4.9h-1.5V605h1.5v1.6c0.7-1.1,2-1.8,3.6-1.8
			C353.7,604.8,355,606.3,355,609.2z"/>
		<path d="M360.1,610.4c0-3.2,2.1-5.6,5.2-5.6s5.2,2.4,5.2,5.6c0,3.2-2.1,5.6-5.2,5.6S360.1,613.6,360.1,610.4z M368.9,610.4
			c0-2.5-1.4-4.2-3.7-4.2c-2.3,0-3.7,1.8-3.7,4.2c0,2.5,1.4,4.3,3.7,4.3C367.6,614.7,368.9,612.8,368.9,610.4z"/>
		<path d="M373.9,605h1.6l3.4,8.9l3.4-8.9h1.7l-4.4,10.8h-1.3L373.9,605z"/>
		<path d="M396.8,609.1v6.8h-1.4l-0.1-1.7c-0.9,1.2-2.2,1.8-3.9,1.8c-2.4,0-3.7-1.2-3.7-3.3c0-1.1,0.4-1.9,1.2-2.4
			c0.8-0.5,2-0.7,4.1-0.7h2.2v-0.5c0-1.9-1-2.9-2.8-2.9c-1.4,0-2.4,0.6-3.3,1.8l-1.1-0.9c1.2-1.5,2.6-2.2,4.4-2.2
			C395.2,604.8,396.8,606.4,396.8,609.1z M395.3,611v-0.2h-2.1c-2,0-2.9,0.1-3.4,0.5c-0.4,0.3-0.6,0.8-0.6,1.4c0,1.2,1,2,2.7,2
			C393.9,614.7,395.3,613.3,395.3,611z"/>
		<path d="M407,615.7c-0.6,0.2-1.1,0.3-1.7,0.3c-1.5,0-2.5-0.8-2.5-2.7v-7H401V605h1.8v-2.8l1.5-1.1v4h2.6v1.3h-2.6v6.8
			c0,1.1,0.5,1.5,1.3,1.5c0.4,0,0.8-0.1,1.3-0.2L407,615.7z"/>
		<path d="M411.8,600.5h1.8v2.2h-1.8V600.5z M411.9,605h1.5v10.8h-1.5V605z"/>
		<path d="M418.6,610.4c0-3.2,2.1-5.6,5.2-5.6s5.2,2.4,5.2,5.6c0,3.2-2.1,5.6-5.2,5.6S418.6,613.6,418.6,610.4z M427.5,610.4
			c0-2.5-1.4-4.2-3.7-4.2c-2.3,0-3.7,1.8-3.7,4.2c0,2.5,1.4,4.3,3.7,4.3C426.2,614.7,427.5,612.8,427.5,610.4z"/>
		<path d="M443,609.2v6.6h-1.5v-6.3c0-2.3-0.7-3.4-2.4-3.4c-2,0-3.2,1.8-3.2,4.8v4.9h-1.5V605h1.5v1.6c0.7-1.1,2-1.8,3.6-1.8
			C441.8,604.8,443,606.3,443,609.2z"/>
		<path d="M450.2,613h2l-2.9,6.2h-1L450.2,613z"/>
		<path d="M474.7,609.1v6.8h-1.4l-0.1-1.7c-0.9,1.2-2.2,1.8-3.9,1.8c-2.4,0-3.7-1.2-3.7-3.3c0-1.1,0.4-1.9,1.2-2.4
			c0.8-0.5,2-0.7,4.1-0.7h2.2v-0.5c0-1.9-1-2.9-2.8-2.9c-1.4,0-2.4,0.6-3.3,1.8l-1.1-0.9c1.2-1.5,2.6-2.2,4.4-2.2
			C473.1,604.8,474.7,606.4,474.7,609.1z M473.2,611v-0.2h-2.1c-2,0-2.9,0.1-3.4,0.5c-0.4,0.3-0.6,0.8-0.6,1.4c0,1.2,1,2,2.7,2
			C471.8,614.7,473.2,613.3,473.2,611z"/>
		<path d="M484.9,615.7c-0.6,0.2-1.1,0.3-1.7,0.3c-1.5,0-2.5-0.8-2.5-2.7v-7h-1.8V605h1.8v-2.8l1.5-1.1v4h2.6v1.3h-2.6v6.8
			c0,1.1,0.5,1.5,1.3,1.5c0.4,0,0.8-0.1,1.3-0.2L484.9,615.7z"/>
		<path d="M495,615.7c-0.6,0.2-1.1,0.3-1.7,0.3c-1.5,0-2.5-0.8-2.5-2.7v-7H489V605h1.8v-2.8l1.5-1.1v4h2.6v1.3h-2.6v6.8
			c0,1.1,0.5,1.5,1.3,1.5c0.4,0,0.8-0.1,1.3-0.2L495,615.7z"/>
		<path d="M499.8,600.5h1.8v2.2h-1.8V600.5z M499.9,605h1.5v10.8h-1.5V605z"/>
		<path d="M512.1,615.7c-0.6,0.2-1.1,0.3-1.7,0.3c-1.5,0-2.5-0.8-2.5-2.7v-7h-1.8V605h1.8v-2.8l1.5-1.1v4h2.6v1.3h-2.6v6.8
			c0,1.1,0.5,1.5,1.3,1.5c0.4,0,0.8-0.1,1.3-0.2L512.1,615.7z"/>
		<path d="M525.4,605v10.8h-1.5v-1.6c-0.8,1.2-2.2,1.7-3.6,1.7c-2.5,0-3.5-1.7-3.5-4.4V605h1.5v6.3c0,1.8,0.3,3.4,2.4,3.4
			c2.2,0,3.2-1.9,3.2-4.7v-5H525.4z"/>
		<path d="M540.7,600.5v15.3h-1.5v-1.5c-0.8,1-2,1.6-3.6,1.6c-3.2,0-4.8-2.4-4.8-5.6c0-3.4,1.8-5.6,4.8-5.6c1.5,0,2.8,0.6,3.6,1.6
			v-5.9h1.5V600.5z M539.3,610.4c0-2.6-1.3-4.3-3.5-4.3s-3.5,1.7-3.5,4.3c0,2.5,1.2,4.3,3.5,4.3S539.3,612.9,539.3,610.4z"/>
		<path d="M555.5,610.8h-7.9c0,2.4,1.4,3.8,3.5,3.8c1.2,0,2.1-0.3,3.1-1.4l1.1,0.9c-1.3,1.3-2.5,1.8-4.2,1.8c-3.3,0-5-2.5-5-5.5
			c0-3.1,1.7-5.7,4.8-5.7c3.3,0,4.7,2.6,4.7,5.1C555.6,610.2,555.6,610.5,555.5,610.8z M547.6,609.5h6.6c0,0,0-0.2,0-0.4
			c-0.1-1.8-1.2-3.1-3.2-3.1C548.9,606.1,547.7,607.6,547.6,609.5z"/>
		<path d="M559.7,613.2l1.3-0.6c0.4,1.1,1.5,2.1,3.1,2.1c1.5,0,2.4-0.7,2.4-1.9c0-2.9-6.2-1.1-6.2-4.9c0-1.9,1.5-3.1,3.7-3.1
			c1.7,0,3.1,0.7,3.9,2.3l-1.2,0.7c-0.5-1-1.4-1.6-2.7-1.6s-2.2,0.6-2.2,1.5c0,2.6,6.3,0.9,6.3,5.1c0,2.2-1.8,3.3-3.9,3.3
			C562,616,560.3,614.9,559.7,613.2z"/>
		<path d="M108.4,647.1v6.8H107l-0.1-1.7c-0.9,1.2-2.2,1.8-3.9,1.8c-2.4,0-3.7-1.2-3.7-3.3c0-1.1,0.4-1.9,1.2-2.4
			c0.8-0.5,2-0.7,4.1-0.7h2.2v-0.5c0-1.9-1-2.9-2.8-2.9c-1.4,0-2.4,0.6-3.3,1.8l-1.1-0.9c1.2-1.5,2.6-2.2,4.4-2.2
			C106.8,642.8,108.4,644.4,108.4,647.1z M106.9,649v-0.2h-2.1c-2,0-2.9,0.1-3.4,0.5c-0.4,0.3-0.6,0.8-0.6,1.4c0,1.2,1,2,2.7,2
			C105.5,652.7,106.9,651.3,106.9,649z"/>
		<path d="M118.6,653.7c-0.6,0.2-1.1,0.3-1.7,0.3c-1.5,0-2.5-0.8-2.5-2.7v-7h-1.8V643h1.8v-2.8l1.5-1.1v4h2.6v1.3H116v6.8
			c0,1.1,0.5,1.5,1.3,1.5c0.4,0,0.8-0.1,1.3-0.2L118.6,653.7z"/>
		<path d="M136.9,653.7c-0.6,0.2-1.1,0.3-1.7,0.3c-1.5,0-2.5-0.8-2.5-2.7v-7H131V643h1.8v-2.8l1.5-1.1v4h2.6v1.3h-2.6v6.8
			c0,1.1,0.5,1.5,1.3,1.5c0.4,0,0.8-0.1,1.3-0.2L136.9,653.7z"/>
		<path d="M150.5,647.2v6.6H149v-6.3c0-2.4-0.7-3.4-2.4-3.4c-2.1,0-3.2,1.7-3.2,4.7v5h-1.5v-15.3h1.5v6.1c0.7-1.1,2-1.8,3.6-1.8
			C149.3,642.8,150.5,644.3,150.5,647.2z"/>
		<path d="M165.1,648.8h-7.9c0,2.4,1.4,3.8,3.5,3.8c1.2,0,2.1-0.3,3.1-1.4l1.1,0.9c-1.3,1.3-2.5,1.8-4.2,1.8c-3.3,0-5-2.5-5-5.5
			c0-3.1,1.7-5.7,4.8-5.7c3.3,0,4.7,2.6,4.7,5.1C165.1,648.2,165.1,648.5,165.1,648.8z M157.1,647.5h6.6c0,0,0-0.2,0-0.4
			c-0.1-1.8-1.2-3.1-3.2-3.1C158.5,644.1,157.2,645.6,157.1,647.5z"/>
		<path d="M178.2,648.4c0-2.9,1.6-5.6,4.9-5.6c1.9,0,3.5,1,4.4,3l-1.5,0.6c-0.5-1.4-1.6-2.2-2.9-2.2c-2.3,0-3.3,2.1-3.3,4.3
			s1,4.2,3.4,4.2c1.4,0,2.4-0.8,2.9-2.2l1.4,0.5c-0.7,2-2.3,3-4.3,3C180,654,178.2,651.4,178.2,648.4z"/>
		<path d="M191.7,648.4c0-3.2,2.1-5.6,5.2-5.6c3.1,0,5.2,2.4,5.2,5.6c0,3.2-2.1,5.6-5.2,5.6S191.7,651.6,191.7,648.4z M200.6,648.4
			c0-2.5-1.4-4.2-3.7-4.2s-3.7,1.8-3.7,4.2c0,2.5,1.4,4.3,3.7,4.3C199.2,652.7,200.6,650.8,200.6,648.4z"/>
		<path d="M214,643.3l-0.7,1.2c-0.5-0.2-1-0.3-1.4-0.3c-1.7,0-2.9,1.3-2.9,3.6v6.1h-1.5V643h1.5v1.6c0.8-1.4,2.1-1.8,3.2-1.8
			C212.7,642.8,213.4,642.9,214,643.3z"/>
		<path d="M226.7,648.8h-7.9c0,2.4,1.4,3.8,3.5,3.8c1.2,0,2.1-0.3,3.1-1.4l1.1,0.9c-1.3,1.3-2.5,1.8-4.2,1.8c-3.3,0-5-2.5-5-5.5
			c0-3.1,1.7-5.7,4.8-5.7c3.3,0,4.7,2.6,4.7,5.1C226.8,648.2,226.7,648.5,226.7,648.8z M218.7,647.5h6.6c0,0,0-0.2,0-0.4
			c-0.1-1.8-1.2-3.1-3.2-3.1C220.1,644.1,218.9,645.6,218.7,647.5z"/>
		<path d="M239.8,648.4c0-3.2,2.1-5.6,5.2-5.6c3.1,0,5.2,2.4,5.2,5.6c0,3.2-2.1,5.6-5.2,5.6S239.8,651.6,239.8,648.4z M248.7,648.4
			c0-2.5-1.4-4.2-3.7-4.2s-3.7,1.8-3.7,4.2c0,2.5,1.4,4.3,3.7,4.3S248.7,650.8,248.7,648.4z"/>
		<path d="M256,644.3h-2.3V643h2.3v-1.7c0-2.3,1.3-3,2.7-3c0.6,0,1.3,0.1,1.9,0.4l-0.5,1.2c-0.5-0.2-0.9-0.4-1.3-0.4
			c-0.9,0-1.4,0.6-1.4,1.6v1.8h3.1v1.3h-3.1v9.6H256V644.3z"/>
		<path d="M273.9,638.5h1.8v2.2h-1.8V638.5z M274,643h1.5v10.8H274V643z"/>
		<path d="M286.2,653.7c-0.6,0.2-1.1,0.3-1.7,0.3c-1.5,0-2.5-0.8-2.5-2.7v-7h-1.8V643h1.8v-2.8l1.5-1.1v4h2.6v1.3h-2.6v6.8
			c0,1.1,0.5,1.5,1.3,1.5c0.4,0,0.8-0.1,1.3-0.2L286.2,653.7z"/>
		<path d="M290.2,651.2l1.3-0.6c0.4,1.1,1.5,2.1,3.1,2.1c1.5,0,2.4-0.7,2.4-1.9c0-2.9-6.2-1.1-6.2-4.9c0-1.9,1.5-3.1,3.7-3.1
			c1.7,0,3.1,0.7,3.9,2.3l-1.2,0.7c-0.5-1-1.4-1.6-2.7-1.6c-1.3,0-2.2,0.6-2.2,1.5c0,2.6,6.3,0.9,6.3,5.1c0,2.2-1.8,3.3-3.9,3.3
			C292.5,654,290.8,652.9,290.2,651.2z"/>
		<path d="M311.4,651.2l1.3-0.6c0.4,1.1,1.5,2.1,3.1,2.1c1.5,0,2.4-0.7,2.4-1.9c0-2.9-6.2-1.1-6.2-4.9c0-1.9,1.5-3.1,3.7-3.1
			c1.7,0,3.1,0.7,3.9,2.3l-1.2,0.7c-0.5-1-1.4-1.6-2.7-1.6c-1.3,0-2.2,0.6-2.2,1.5c0,2.6,6.3,0.9,6.3,5.1c0,2.2-1.8,3.3-3.9,3.3
			C313.7,654,312,652.9,311.4,651.2z"/>
		<path d="M334.9,648.4c0,3.2-1.7,5.6-4.8,5.6c-1.6,0-2.8-0.6-3.6-1.6v5.9H325V643h1.5v1.5c0.8-1.1,2-1.6,3.6-1.6
			C333.1,642.8,334.9,645,334.9,648.4z M333.4,648.4c0-2.6-1.3-4.3-3.5-4.3s-3.5,1.7-3.5,4.3c0,2.5,1.2,4.3,3.5,4.3
			C332.2,652.7,333.4,650.9,333.4,648.4z"/>
		<path d="M340.1,638.5h1.8v2.2h-1.8V638.5z M340.2,643h1.5v10.8h-1.5V643z"/>
		<path d="M354.4,643.3l-0.7,1.2c-0.5-0.2-1-0.3-1.4-0.3c-1.7,0-2.9,1.3-2.9,3.6v6.1h-1.5V643h1.5v1.6c0.8-1.4,2.1-1.8,3.2-1.8
			C353.2,642.8,353.8,642.9,354.4,643.3z"/>
		<path d="M358.8,638.5h1.8v2.2h-1.8V638.5z M358.9,643h1.5v10.8h-1.5V643z"/>
		<path d="M371.1,653.7c-0.6,0.2-1.1,0.3-1.7,0.3c-1.5,0-2.5-0.8-2.5-2.7v-7h-1.8V643h1.8v-2.8l1.5-1.1v4h2.6v1.3h-2.6v6.8
			c0,1.1,0.5,1.5,1.3,1.5c0.4,0,0.8-0.1,1.3-0.2L371.1,653.7z"/>
		<path d="M383.7,651.2l1.3-0.6c0.4,1.1,1.5,2.1,3.1,2.1c1.5,0,2.4-0.7,2.4-1.9c0-2.9-6.2-1.1-6.2-4.9c0-1.9,1.5-3.1,3.7-3.1
			c1.7,0,3.1,0.7,3.9,2.3l-1.2,0.7c-0.5-1-1.4-1.6-2.7-1.6c-1.3,0-2.2,0.6-2.2,1.5c0,2.6,6.3,0.9,6.3,5.1c0,2.2-1.8,3.3-3.9,3.3
			C386.1,654,384.3,652.9,383.7,651.2z"/>
		<path d="M397.2,638.5h1.8v2.2h-1.8V638.5z M397.3,643h1.5v10.8h-1.5V643z"/>
		<path d="M413.5,647.2v6.6H412v-6.3c0-2.3-0.7-3.4-2.4-3.4c-2,0-3.2,1.8-3.2,4.8v4.9h-1.5V643h1.5v1.6c0.7-1.1,2-1.8,3.6-1.8
			C412.3,642.8,413.5,644.3,413.5,647.2z"/>
		<path d="M418.6,648.4c0-2.9,1.6-5.6,4.9-5.6c1.9,0,3.5,1,4.4,3l-1.5,0.6c-0.5-1.4-1.6-2.2-2.9-2.2c-2.3,0-3.3,2.1-3.3,4.3
			s1,4.2,3.4,4.2c1.4,0,2.4-0.8,2.9-2.2l1.4,0.5c-0.7,2-2.3,3-4.3,3C420.4,654,418.6,651.4,418.6,648.4z"/>
		<path d="M441.6,648.8h-7.9c0,2.4,1.4,3.8,3.5,3.8c1.2,0,2.1-0.3,3.1-1.4l1.1,0.9c-1.3,1.3-2.5,1.8-4.2,1.8c-3.3,0-5-2.5-5-5.5
			c0-3.1,1.7-5.7,4.8-5.7c3.3,0,4.7,2.6,4.7,5.1C441.6,648.2,441.6,648.5,441.6,648.8z M433.6,647.5h6.6c0,0,0-0.2,0-0.4
			c-0.1-1.8-1.2-3.1-3.2-3.1C435,644.1,433.8,645.6,433.6,647.5z"/>
		<path d="M455.5,638.5h1.8v2.2h-1.8V638.5z M455.6,643h1.5v10.8h-1.5V643z"/>
		<path d="M467.8,653.7c-0.6,0.2-1.1,0.3-1.7,0.3c-1.5,0-2.5-0.8-2.5-2.7v-7h-1.8V643h1.8v-2.8l1.5-1.1v4h2.6v1.3h-2.6v6.8
			c0,1.1,0.5,1.5,1.3,1.5c0.4,0,0.8-0.1,1.3-0.2L467.8,653.7z"/>
		<path d="M471.9,651.2l1.3-0.6c0.4,1.1,1.5,2.1,3.1,2.1c1.5,0,2.4-0.7,2.4-1.9c0-2.9-6.2-1.1-6.2-4.9c0-1.9,1.5-3.1,3.7-3.1
			c1.7,0,3.1,0.7,3.9,2.3l-1.2,0.7c-0.5-1-1.4-1.6-2.7-1.6c-1.3,0-2.2,0.6-2.2,1.5c0,2.6,6.3,0.9,6.3,5.1c0,2.2-1.8,3.3-3.9,3.3
			C474.2,654,472.4,652.9,471.9,651.2z"/>
		<path d="M493.3,648.4c0-3.2,2.1-5.6,5.2-5.6s5.2,2.4,5.2,5.6c0,3.2-2.1,5.6-5.2,5.6S493.3,651.6,493.3,648.4z M502.2,648.4
			c0-2.5-1.4-4.2-3.7-4.2c-2.3,0-3.7,1.8-3.7,4.2c0,2.5,1.4,4.3,3.7,4.3C500.8,652.7,502.2,650.8,502.2,648.4z"/>
		<path d="M515.5,643.3l-0.7,1.2c-0.5-0.2-1-0.3-1.4-0.3c-1.7,0-2.9,1.3-2.9,3.6v6.1H509V643h1.5v1.6c0.8-1.4,2.1-1.8,3.2-1.8
			C514.3,642.8,514.9,642.9,515.5,643.3z"/>
		<path d="M520,638.5h1.8v2.2H520V638.5z M520.1,643h1.5v10.8h-1.5V643z"/>
		<path d="M536.2,655.5c0,2-1.9,3-4.6,3c-3,0-4.8-1.2-4.8-3.3c0-0.2,0-0.4,0-0.5l1.8-1.5c-0.8-0.4-1.4-1-1.4-2.1
			c0-0.9,0.4-1.5,1.2-2.1c-0.6-0.7-0.9-1.5-0.9-2.5c0-2.2,1.8-3.8,4.1-3.8c1.1,0,2,0.3,2.7,0.9l1.5-1.3l0.8,1l-1.5,1.2
			c0.4,0.6,0.6,1.3,0.6,2c0,2.2-1.8,3.7-4.1,3.7c-0.8,0-1.6-0.2-2.2-0.5c-0.4,0.2-0.7,0.6-0.7,1.1c0,1.1,1.4,1.4,2.9,1.6
			C533.6,652.8,536.2,653.1,536.2,655.5z M534.6,655.6c0-1.3-1.7-1.5-3.5-1.8c-0.5-0.1-1-0.2-1.5-0.3l-1.5,1.4c0,0.1,0,0.2,0,0.2
			c0,1.5,1.6,2,3.4,2C533.5,657.2,534.6,656.7,534.6,655.6z M528.8,646.6c0,1.4,1,2.5,2.6,2.5s2.6-1.1,2.6-2.5c0-1.5-1-2.5-2.6-2.5
			C529.9,644.1,528.8,645.1,528.8,646.6z"/>
		<path d="M541.1,638.5h1.8v2.2h-1.8V638.5z M541.2,643h1.5v10.8h-1.5V643z"/>
		<path d="M557.4,647.2v6.6h-1.5v-6.3c0-2.3-0.7-3.4-2.4-3.4c-2,0-3.2,1.8-3.2,4.8v4.9h-1.5V643h1.5v1.6c0.7-1.1,2-1.8,3.6-1.8
			C556.2,642.8,557.4,644.3,557.4,647.2z"/>
		<path d="M562.2,651.2l1.3-0.6c0.4,1.1,1.5,2.1,3.1,2.1c1.5,0,2.4-0.7,2.4-1.9c0-2.9-6.2-1.1-6.2-4.9c0-1.9,1.5-3.1,3.7-3.1
			c1.7,0,3.1,0.7,3.9,2.3l-1.2,0.7c-0.5-1-1.4-1.6-2.7-1.6s-2.2,0.6-2.2,1.5c0,2.6,6.3,0.9,6.3,5.1c0,2.2-1.8,3.3-3.9,3.3
			C564.5,654,562.8,652.9,562.2,651.2z"/>
		<path d="M576.5,651.4h2v2.4h-2V651.4z"/>
		<path d="M104.4,677.9h-5.3v-1.5h12.2v1.5H106v13.9h-1.6C104.4,691.8,104.4,677.9,104.4,677.9z"/>
		<path d="M124.9,685.2v6.6h-1.5v-6.3c0-2.4-0.7-3.4-2.4-3.4c-2.1,0-3.2,1.7-3.2,4.7v5h-1.5v-15.3h1.5v6.1c0.7-1.1,2-1.8,3.6-1.8
			C123.7,680.8,124.9,682.3,124.9,685.2z"/>
		<path d="M130.7,676.5h1.8v2.2h-1.8V676.5z M130.8,681h1.5v10.8h-1.5V681z"/>
		<path d="M137.3,689.2l1.3-0.6c0.4,1.1,1.5,2.1,3.1,2.1c1.5,0,2.4-0.7,2.4-1.9c0-2.9-6.2-1.1-6.2-4.9c0-1.9,1.5-3.1,3.7-3.1
			c1.7,0,3.1,0.7,3.9,2.3l-1.2,0.7c-0.5-1-1.4-1.6-2.7-1.6s-2.2,0.6-2.2,1.5c0,2.6,6.3,0.9,6.3,5.1c0,2.2-1.8,3.3-3.9,3.3
			C139.6,692,137.9,690.9,137.3,689.2z"/>
		<path d="M168.1,693.5c0,2-1.9,3-4.6,3c-3,0-4.8-1.2-4.8-3.3c0-0.2,0-0.4,0-0.5l1.8-1.5c-0.8-0.4-1.4-1-1.4-2.1
			c0-0.9,0.4-1.5,1.2-2.1c-0.6-0.7-0.9-1.5-0.9-2.5c0-2.2,1.8-3.8,4.1-3.8c1.1,0,2,0.3,2.7,0.9l1.5-1.3l0.8,1l-1.5,1.2
			c0.4,0.6,0.6,1.3,0.6,2c0,2.2-1.8,3.7-4.1,3.7c-0.8,0-1.6-0.2-2.2-0.5c-0.4,0.2-0.7,0.6-0.7,1.1c0,1.1,1.4,1.4,2.9,1.6
			C165.5,690.8,168.1,691.1,168.1,693.5z M166.6,693.6c0-1.3-1.7-1.5-3.5-1.8c-0.5-0.1-1-0.2-1.5-0.3l-1.5,1.4c0,0.1,0,0.2,0,0.2
			c0,1.5,1.6,2,3.4,2C165.4,695.2,166.6,694.7,166.6,693.6z M160.7,684.6c0,1.4,1,2.5,2.6,2.5s2.6-1.1,2.6-2.5c0-1.5-1-2.5-2.6-2.5
			C161.9,682.1,160.7,683.1,160.7,684.6z"/>
		<path d="M172.2,686.4c0-3.2,2.1-5.6,5.2-5.6c3.1,0,5.2,2.4,5.2,5.6c0,3.2-2.1,5.6-5.2,5.6S172.2,689.6,172.2,686.4z M181.1,686.4
			c0-2.5-1.4-4.2-3.7-4.2s-3.7,1.8-3.7,4.2c0,2.5,1.4,4.3,3.7,4.3C179.8,690.7,181.1,688.8,181.1,686.4z"/>
		<path d="M196.7,686.8h-7.9c0,2.4,1.4,3.8,3.5,3.8c1.2,0,2.1-0.3,3.1-1.4l1.1,0.9c-1.3,1.3-2.5,1.8-4.2,1.8c-3.3,0-5-2.5-5-5.5
			c0-3.1,1.7-5.7,4.8-5.7c3.3,0,4.7,2.6,4.7,5.1C196.8,686.2,196.7,686.5,196.7,686.8z M188.7,685.5h6.6c0,0,0-0.2,0-0.4
			c-0.1-1.8-1.2-3.1-3.2-3.1C190.1,682.1,188.9,683.6,188.7,685.5z"/>
		<path d="M200.9,689.2l1.3-0.6c0.4,1.1,1.5,2.1,3.1,2.1c1.5,0,2.4-0.7,2.4-1.9c0-2.9-6.2-1.1-6.2-4.9c0-1.9,1.5-3.1,3.7-3.1
			c1.7,0,3.1,0.7,3.9,2.3l-1.2,0.7c-0.5-1-1.4-1.6-2.7-1.6s-2.2,0.6-2.2,1.5c0,2.6,6.3,0.9,6.3,5.1c0,2.2-1.8,3.3-3.9,3.3
			C203.2,692,201.5,690.9,200.9,689.2z"/>
		<path d="M231.9,685.2v6.6h-1.5v-6.3c0-2.4-0.7-3.4-2.4-3.4c-2.1,0-3.2,1.7-3.2,4.7v5h-1.5v-15.3h1.5v6.1c0.7-1.1,2-1.8,3.6-1.8
			C230.7,680.8,231.9,682.3,231.9,685.2z"/>
		<path d="M246,685.1v6.8h-1.4l-0.1-1.7c-0.9,1.2-2.2,1.8-3.9,1.8c-2.4,0-3.7-1.2-3.7-3.3c0-1.1,0.4-1.9,1.2-2.4s2-0.7,4.1-0.7h2.2
			v-0.5c0-1.9-1-2.9-2.8-2.9c-1.4,0-2.4,0.6-3.3,1.8l-1.1-0.9c1.2-1.5,2.6-2.2,4.4-2.2C244.5,680.8,246,682.4,246,685.1z M244.5,687
			v-0.2h-2.1c-2,0-2.9,0.1-3.4,0.5c-0.4,0.3-0.6,0.8-0.6,1.4c0,1.2,1,2,2.7,2C243.2,690.7,244.5,689.3,244.5,687z"/>
		<path d="M260.5,685.2v6.6H259v-6.3c0-2.3-0.7-3.4-2.4-3.4c-2,0-3.2,1.8-3.2,4.8v4.9h-1.5V681h1.5v1.6c0.7-1.1,2-1.8,3.6-1.8
			C259.3,680.8,260.5,682.3,260.5,685.2z"/>
		<path d="M275.6,676.5v15.3h-1.5v-1.5c-0.8,1-2,1.6-3.6,1.6c-3.2,0-4.8-2.4-4.8-5.6c0-3.4,1.8-5.6,4.8-5.6c1.5,0,2.8,0.6,3.6,1.6
			v-5.9h1.5V676.5z M274.3,686.4c0-2.6-1.3-4.3-3.5-4.3s-3.5,1.7-3.5,4.3c0,2.5,1.2,4.3,3.5,4.3C273,690.7,274.3,688.9,274.3,686.4z
			"/>
		<path d="M290.4,676.5h1.8v2.2h-1.8V676.5z M290.6,681h1.5v10.8h-1.5V681z"/>
		<path d="M306.7,685.2v6.6h-1.5v-6.3c0-2.3-0.7-3.4-2.4-3.4c-2,0-3.2,1.8-3.2,4.8v4.9h-1.5V681h1.5v1.6c0.7-1.1,2-1.8,3.6-1.8
			C305.5,680.8,306.7,682.3,306.7,685.2z"/>
		<path d="M330.1,685.2v6.6h-1.5v-6.3c0-2.4-0.7-3.4-2.4-3.4c-2.1,0-3.2,1.7-3.2,4.7v5h-1.5v-15.3h1.5v6.1c0.7-1.1,2-1.8,3.6-1.8
			C328.9,680.8,330.1,682.3,330.1,685.2z"/>
		<path d="M344.2,685.1v6.8h-1.4l-0.1-1.7c-0.9,1.2-2.2,1.8-3.9,1.8c-2.4,0-3.7-1.2-3.7-3.3c0-1.1,0.4-1.9,1.2-2.4
			c0.8-0.5,2-0.7,4.1-0.7h2.2v-0.5c0-1.9-1-2.9-2.8-2.9c-1.4,0-2.4,0.6-3.3,1.8l-1.1-0.9c1.2-1.5,2.6-2.2,4.4-2.2
			C342.6,680.8,344.2,682.4,344.2,685.1z M342.7,687v-0.2h-2.1c-2,0-2.9,0.1-3.4,0.5c-0.4,0.3-0.6,0.8-0.6,1.4c0,1.2,1,2,2.7,2
			C341.4,690.7,342.7,689.3,342.7,687z"/>
		<path d="M358.7,685.2v6.6h-1.5v-6.3c0-2.3-0.7-3.4-2.4-3.4c-2,0-3.2,1.8-3.2,4.8v4.9H350V681h1.5v1.6c0.7-1.1,2-1.8,3.6-1.8
			C357.5,680.8,358.7,682.3,358.7,685.2z"/>
		<path d="M373.8,676.5v15.3h-1.5v-1.5c-0.8,1-2,1.6-3.6,1.6c-3.2,0-4.8-2.4-4.8-5.6c0-3.4,1.8-5.6,4.8-5.6c1.5,0,2.8,0.6,3.6,1.6
			v-5.9h1.5V676.5z M372.4,686.4c0-2.6-1.3-4.3-3.5-4.3s-3.5,1.7-3.5,4.3c0,2.5,1.2,4.3,3.5,4.3
			C371.2,690.7,372.4,688.9,372.4,686.4z"/>
		<path d="M387.3,681h1.6l2.3,8.6l2.9-8.6h1.4l2.8,8.6l2.4-8.6h1.6l-3.2,10.8h-1.4l-2.9-8.8l-2.9,8.8h-1.4L387.3,681z"/>
		<path d="M407,676.5h1.8v2.2H407V676.5z M407.1,681h1.5v10.8h-1.5V681z"/>
		<path d="M419.3,691.7c-0.6,0.2-1.1,0.3-1.7,0.3c-1.5,0-2.5-0.8-2.5-2.7v-7h-1.8V681h1.8v-2.8l1.5-1.1v4h2.6v1.3h-2.6v6.8
			c0,1.1,0.5,1.5,1.3,1.5c0.4,0,0.8-0.1,1.3-0.2L419.3,691.7z"/>
		<path d="M432.8,685.2v6.6h-1.5v-6.3c0-2.4-0.7-3.4-2.4-3.4c-2.1,0-3.2,1.7-3.2,4.7v5h-1.5v-15.3h1.5v6.1c0.7-1.1,2-1.8,3.6-1.8
			C431.6,680.8,432.8,682.3,432.8,685.2z"/>
		<path d="M452,691.7c-0.6,0.2-1.1,0.3-1.7,0.3c-1.5,0-2.5-0.8-2.5-2.7v-7H446V681h1.8v-2.8l1.5-1.1v4h2.6v1.3h-2.6v6.8
			c0,1.1,0.5,1.5,1.3,1.5c0.4,0,0.8-0.1,1.3-0.2L452,691.7z"/>
		<path d="M465.5,685.2v6.6H464v-6.3c0-2.4-0.7-3.4-2.4-3.4c-2.1,0-3.2,1.7-3.2,4.7v5h-1.5v-15.3h1.5v6.1c0.7-1.1,2-1.8,3.6-1.8
			C464.3,680.8,465.5,682.3,465.5,685.2z"/>
		<path d="M480.1,686.8h-7.9c0,2.4,1.4,3.8,3.5,3.8c1.2,0,2.1-0.3,3.1-1.4l1.1,0.9c-1.3,1.3-2.5,1.8-4.2,1.8c-3.3,0-5-2.5-5-5.5
			c0-3.1,1.7-5.7,4.8-5.7c3.3,0,4.7,2.6,4.7,5.1C480.2,686.2,480.2,686.5,480.1,686.8z M472.2,685.5h6.6c0,0,0-0.2,0-0.4
			c-0.1-1.8-1.2-3.1-3.2-3.1C473.5,682.1,472.3,683.6,472.2,685.5z"/>
		<path d="M494,676.5h1.8v2.2H494V676.5z M494.2,681h1.5v10.8h-1.5V681z"/>
		<path d="M510.3,685.2v6.6h-1.5v-6.3c0-2.3-0.7-3.4-2.4-3.4c-2,0-3.2,1.8-3.2,4.8v4.9h-1.5V681h1.5v1.6c0.7-1.1,2-1.8,3.6-1.8
			C509.1,680.8,510.3,682.3,510.3,685.2z"/>
		<path d="M525.4,676.5v15.3h-1.5v-1.5c-0.8,1-2,1.6-3.6,1.6c-3.2,0-4.8-2.4-4.8-5.6c0-3.4,1.8-5.6,4.8-5.6c1.5,0,2.8,0.6,3.6,1.6
			v-5.9h1.5V676.5z M524.1,686.4c0-2.6-1.3-4.3-3.5-4.3s-3.5,1.7-3.5,4.3c0,2.5,1.2,4.3,3.5,4.3
			C522.9,690.7,524.1,688.9,524.1,686.4z"/>
		<path d="M540,681v10.8h-1.5v-1.6c-0.8,1.2-2.2,1.7-3.6,1.7c-2.5,0-3.5-1.7-3.5-4.4V681h1.5v6.3c0,1.8,0.3,3.4,2.4,3.4
			c2.2,0,3.2-1.9,3.2-4.7v-5H540z"/>
		<path d="M545,689.2l1.3-0.6c0.4,1.1,1.5,2.1,3.1,2.1c1.5,0,2.4-0.7,2.4-1.9c0-2.9-6.2-1.1-6.2-4.9c0-1.9,1.5-3.1,3.7-3.1
			c1.7,0,3.1,0.7,3.9,2.3l-1.2,0.7c-0.5-1-1.4-1.6-2.7-1.6s-2.2,0.6-2.2,1.5c0,2.6,6.3,0.9,6.3,5.1c0,2.2-1.8,3.3-3.9,3.3
			C547.3,692,545.5,690.9,545,689.2z"/>
		<path d="M563.3,691.7c-0.6,0.2-1.1,0.3-1.7,0.3c-1.5,0-2.5-0.8-2.5-2.7v-7h-1.8V681h1.8v-2.8l1.5-1.1v4h2.6v1.3h-2.6v6.8
			c0,1.1,0.5,1.5,1.3,1.5c0.4,0,0.8-0.1,1.3-0.2L563.3,691.7z"/>
		<path d="M574.8,681.3l-0.7,1.2c-0.5-0.2-1-0.3-1.4-0.3c-1.7,0-2.9,1.3-2.9,3.6v6.1h-1.5V681h1.5v1.6c0.8-1.4,2.1-1.8,3.2-1.8
			C573.6,680.8,574.2,680.9,574.8,681.3z"/>
		<path d="M579.2,676.5h1.8v2.2h-1.8V676.5z M579.4,681h1.5v10.8h-1.5V681z"/>
		<path d="M595.1,685.1v6.8h-1.4l-0.1-1.7c-0.9,1.2-2.2,1.8-3.9,1.8c-2.4,0-3.7-1.2-3.7-3.3c0-1.1,0.4-1.9,1.2-2.4s2-0.7,4.1-0.7
			h2.2v-0.5c0-1.9-1-2.9-2.8-2.9c-1.4,0-2.4,0.6-3.3,1.8l-1.1-0.9c1.2-1.5,2.6-2.2,4.4-2.2C593.6,680.8,595.1,682.4,595.1,685.1z
			 M593.6,687v-0.2h-2.1c-2,0-2.9,0.1-3.4,0.5c-0.4,0.3-0.6,0.8-0.6,1.4c0,1.2,1,2,2.7,2C592.3,690.7,593.6,689.3,593.6,687z"/>
		<path d="M600.9,689.5v-13h1.5v12.9c0,0.7,0.3,1.2,1,1.2c0.3,0,0.7-0.1,1-0.2v1.3c-0.5,0.2-1,0.3-1.5,0.3
			C601.7,692,600.9,691.2,600.9,689.5z"/>
		<path d="M100.3,714.5h1.5v10.2l5.4-5.7h2l-3.9,4.1l4.6,6.8h-1.8l-3.8-5.8l-2.5,2.6v3.2h-1.5C100.3,729.9,100.3,714.5,100.3,714.5z
			"/>
		<path d="M123.2,723.2v6.6h-1.5v-6.3c0-2.3-0.7-3.4-2.4-3.4c-2,0-3.2,1.8-3.2,4.8v4.9h-1.5V719h1.5v1.6c0.7-1.1,2-1.8,3.6-1.8
			C122,718.8,123.2,720.3,123.2,723.2z"/>
		<path d="M128.3,724.4c0-3.2,2.1-5.6,5.2-5.6c3.1,0,5.2,2.4,5.2,5.6c0,3.2-2.1,5.6-5.2,5.6S128.3,727.6,128.3,724.4z M137.2,724.4
			c0-2.5-1.4-4.2-3.7-4.2s-3.7,1.8-3.7,4.2c0,2.5,1.4,4.3,3.7,4.3S137.2,726.8,137.2,724.4z"/>
		<path d="M142.4,719h1.6l2.3,8.6l2.9-8.6h1.4l2.8,8.6l2.4-8.6h1.6l-3.2,10.8h-1.4l-2.9-8.8l-2.9,8.8h-1.4L142.4,719z"/>
		<path d="M162.2,727.5v-13h1.5v12.9c0,0.7,0.3,1.2,1,1.2c0.3,0,0.7-0.1,1-0.2v1.3c-0.5,0.2-1,0.3-1.5,0.3
			C163,730,162.2,729.2,162.2,727.5z"/>
		<path d="M178.9,724.8H171c0,2.4,1.4,3.8,3.5,3.8c1.2,0,2.1-0.3,3.1-1.4l1.1,0.9c-1.3,1.3-2.5,1.8-4.2,1.8c-3.3,0-5-2.5-5-5.5
			c0-3.1,1.7-5.7,4.8-5.7c3.3,0,4.7,2.6,4.7,5.1C178.9,724.2,178.9,724.5,178.9,724.8z M170.9,723.5h6.6c0,0,0-0.2,0-0.4
			c-0.1-1.8-1.2-3.1-3.2-3.1C172.3,720.1,171.1,721.6,170.9,723.5z"/>
		<path d="M193.4,714.5v15.3h-1.5v-1.5c-0.8,1-2,1.6-3.6,1.6c-3.2,0-4.8-2.4-4.8-5.6c0-3.4,1.8-5.6,4.8-5.6c1.5,0,2.8,0.6,3.6,1.6
			v-5.9h1.5V714.5z M192,724.4c0-2.6-1.3-4.3-3.5-4.3s-3.5,1.7-3.5,4.3c0,2.5,1.2,4.3,3.5,4.3S192,726.9,192,724.4z"/>
		<path d="M208,731.5c0,2-1.9,3-4.6,3c-3,0-4.8-1.2-4.8-3.3c0-0.2,0-0.4,0-0.5l1.8-1.5c-0.8-0.4-1.4-1-1.4-2.1
			c0-0.9,0.4-1.5,1.2-2.1c-0.6-0.7-0.9-1.5-0.9-2.5c0-2.2,1.8-3.8,4.1-3.8c1.1,0,2,0.3,2.7,0.9l1.5-1.3l0.8,1l-1.5,1.2
			c0.4,0.6,0.6,1.3,0.6,2c0,2.2-1.8,3.7-4.1,3.7c-0.8,0-1.6-0.2-2.2-0.5c-0.4,0.2-0.7,0.6-0.7,1.1c0,1.1,1.4,1.4,2.9,1.6
			C205.4,728.8,208,729.1,208,731.5z M206.4,731.6c0-1.3-1.7-1.5-3.5-1.8c-0.5-0.1-1-0.2-1.5-0.3L200,731c0,0.1,0,0.2,0,0.2
			c0,1.5,1.6,2,3.4,2C205.3,733.2,206.4,732.7,206.4,731.6z M200.6,722.6c0,1.4,1,2.5,2.6,2.5s2.6-1.1,2.6-2.5c0-1.5-1-2.5-2.6-2.5
			C201.7,720.1,200.6,721.1,200.6,722.6z"/>
		<path d="M221.6,724.8h-7.9c0,2.4,1.4,3.8,3.5,3.8c1.2,0,2.1-0.3,3.1-1.4l1.1,0.9c-1.3,1.3-2.5,1.8-4.2,1.8c-3.3,0-5-2.5-5-5.5
			c0-3.1,1.7-5.7,4.8-5.7c3.3,0,4.7,2.6,4.7,5.1C221.7,724.2,221.6,724.5,221.6,724.8z M213.6,723.5h6.6c0,0,0-0.2,0-0.4
			c-0.1-1.8-1.2-3.1-3.2-3.1C215,720.1,213.8,721.6,213.6,723.5z"/>
		<path d="M234.7,724.4c0-3.2,2.1-5.6,5.2-5.6c3.1,0,5.2,2.4,5.2,5.6c0,3.2-2.1,5.6-5.2,5.6S234.7,727.6,234.7,724.4z M243.6,724.4
			c0-2.5-1.4-4.2-3.7-4.2s-3.7,1.8-3.7,4.2c0,2.5,1.4,4.3,3.7,4.3C242.2,728.7,243.6,726.8,243.6,724.4z"/>
		<path d="M250.9,720.3h-2.3V719h2.3v-1.7c0-2.3,1.3-3,2.7-3c0.6,0,1.3,0.1,1.9,0.4l-0.5,1.2c-0.5-0.2-0.9-0.4-1.3-0.4
			c-0.9,0-1.4,0.6-1.4,1.6v1.8h3.1v1.3h-3.1v9.6h-1.5v-9.5H250.9z"/>
		<path d="M267.9,724.4c0-3.2,2.1-5.6,5.2-5.6s5.2,2.4,5.2,5.6c0,3.2-2.1,5.6-5.2,5.6S267.9,727.6,267.9,724.4z M276.8,724.4
			c0-2.5-1.4-4.2-3.7-4.2c-2.3,0-3.7,1.8-3.7,4.2c0,2.5,1.4,4.3,3.7,4.3C275.5,728.7,276.8,726.8,276.8,724.4z"/>
		<path d="M292.1,719v10.8h-1.5v-1.6c-0.8,1.2-2.2,1.7-3.6,1.7c-2.5,0-3.5-1.7-3.5-4.4V719h1.5v6.3c0,1.8,0.3,3.4,2.4,3.4
			c2.2,0,3.2-1.9,3.2-4.7v-5H292.1z"/>
		<path d="M304.7,719.3l-0.7,1.2c-0.5-0.2-1-0.3-1.4-0.3c-1.7,0-2.9,1.3-2.9,3.6v6.1h-1.5V719h1.5v1.6c0.8-1.4,2.1-1.8,3.2-1.8
			C303.5,718.8,304.1,718.9,304.7,719.3z"/>
		<path d="M316.9,724.4c0-3.2,2.1-5.6,5.2-5.6s5.2,2.4,5.2,5.6c0,3.2-2.1,5.6-5.2,5.6S316.9,727.6,316.9,724.4z M325.8,724.4
			c0-2.5-1.4-4.2-3.7-4.2c-2.3,0-3.7,1.8-3.7,4.2c0,2.5,1.4,4.3,3.7,4.3S325.8,726.8,325.8,724.4z"/>
		<path d="M339.2,719.3l-0.7,1.2c-0.5-0.2-1-0.3-1.4-0.3c-1.7,0-2.9,1.3-2.9,3.6v6.1h-1.5V719h1.5v1.6c0.8-1.4,2.1-1.8,3.2-1.8
			C338,718.8,338.6,718.9,339.2,719.3z"/>
		<path d="M351.8,731.5c0,2-1.9,3-4.6,3c-3,0-4.8-1.2-4.8-3.3c0-0.2,0-0.4,0-0.5l1.8-1.5c-0.8-0.4-1.4-1-1.4-2.1
			c0-0.9,0.4-1.5,1.2-2.1c-0.6-0.7-0.9-1.5-0.9-2.5c0-2.2,1.8-3.8,4.1-3.8c1.1,0,2,0.3,2.7,0.9l1.5-1.3l0.8,1l-1.5,1.2
			c0.4,0.6,0.6,1.3,0.6,2c0,2.2-1.8,3.7-4.1,3.7c-0.8,0-1.6-0.2-2.2-0.5c-0.4,0.2-0.7,0.6-0.7,1.1c0,1.1,1.4,1.4,2.9,1.6
			C349.3,728.8,351.8,729.1,351.8,731.5z M350.3,731.6c0-1.3-1.7-1.5-3.5-1.8c-0.5-0.1-1-0.2-1.5-0.3l-1.5,1.4c0,0.1,0,0.2,0,0.2
			c0,1.5,1.6,2,3.4,2C349.2,733.2,350.3,732.7,350.3,731.6z M344.5,722.6c0,1.4,1,2.5,2.6,2.5s2.6-1.1,2.6-2.5c0-1.5-1-2.5-2.6-2.5
			C345.6,720.1,344.5,721.1,344.5,722.6z"/>
		<path d="M364.8,723.1v6.8h-1.4l-0.1-1.7c-0.9,1.2-2.2,1.8-3.9,1.8c-2.4,0-3.7-1.2-3.7-3.3c0-1.1,0.4-1.9,1.2-2.4
			c0.8-0.5,2-0.7,4.1-0.7h2.2v-0.5c0-1.9-1-2.9-2.8-2.9c-1.4,0-2.4,0.6-3.3,1.8l-1.1-0.9c1.2-1.5,2.6-2.2,4.4-2.2
			C363.2,718.8,364.8,720.4,364.8,723.1z M363.3,725v-0.2h-2.1c-2,0-2.9,0.1-3.4,0.5c-0.4,0.3-0.6,0.8-0.6,1.4c0,1.2,1,2,2.7,2
			C362,728.7,363.3,727.3,363.3,725z"/>
		<path d="M379.3,723.2v6.6h-1.5v-6.3c0-2.3-0.7-3.4-2.4-3.4c-2,0-3.2,1.8-3.2,4.8v4.9h-1.5V719h1.5v1.6c0.7-1.1,2-1.8,3.6-1.8
			C378.1,718.8,379.3,720.3,379.3,723.2z"/>
		<path d="M385,714.5h1.8v2.2H385V714.5z M385.2,719h1.5v10.8h-1.5V719z"/>
		<path d="M391.7,727.2l1.3-0.6c0.4,1.1,1.5,2.1,3.1,2.1c1.5,0,2.4-0.7,2.4-1.9c0-2.9-6.2-1.1-6.2-4.9c0-1.9,1.5-3.1,3.7-3.1
			c1.7,0,3.1,0.7,3.9,2.3l-1.2,0.7c-0.5-1-1.4-1.6-2.7-1.6c-1.3,0-2.2,0.6-2.2,1.5c0,2.6,6.3,0.9,6.3,5.1c0,2.2-1.8,3.3-3.9,3.3
			C394,730,392.2,728.9,391.7,727.2z"/>
		<path d="M413.6,723.1v6.8h-1.4l-0.1-1.7c-0.9,1.2-2.2,1.8-3.9,1.8c-2.4,0-3.7-1.2-3.7-3.3c0-1.1,0.4-1.9,1.2-2.4
			c0.8-0.5,2-0.7,4.1-0.7h2.2v-0.5c0-1.9-1-2.9-2.8-2.9c-1.4,0-2.4,0.6-3.3,1.8l-1.1-0.9c1.2-1.5,2.6-2.2,4.4-2.2
			C412,718.8,413.6,720.4,413.6,723.1z M412,725v-0.2h-2c-2,0-2.9,0.1-3.4,0.5c-0.4,0.3-0.6,0.8-0.6,1.4c0,1.2,1,2,2.7,2
			C410.7,728.7,412,727.3,412,725z"/>
		<path d="M423.8,729.7c-0.6,0.2-1.1,0.3-1.7,0.3c-1.5,0-2.5-0.8-2.5-2.7v-7h-1.8V719h1.8v-2.8l1.5-1.1v4h2.6v1.3h-2.6v6.8
			c0,1.1,0.5,1.5,1.3,1.5c0.4,0,0.8-0.1,1.3-0.2L423.8,729.7z"/>
		<path d="M428.5,714.5h1.8v2.2h-1.8V714.5z M428.7,719h1.5v10.8h-1.5V719z"/>
		<path d="M435.4,724.4c0-3.2,2.1-5.6,5.2-5.6s5.2,2.4,5.2,5.6c0,3.2-2.1,5.6-5.2,5.6S435.4,727.6,435.4,724.4z M444.3,724.4
			c0-2.5-1.4-4.2-3.7-4.2c-2.3,0-3.7,1.8-3.7,4.2c0,2.5,1.4,4.3,3.7,4.3S444.3,726.8,444.3,724.4z"/>
		<path d="M459.7,723.2v6.6h-1.5v-6.3c0-2.3-0.7-3.4-2.4-3.4c-2,0-3.2,1.8-3.2,4.8v4.9h-1.5V719h1.5v1.6c0.7-1.1,2-1.8,3.6-1.8
			C458.5,718.8,459.7,720.3,459.7,723.2z"/>
		<path d="M466.2,727.4h2v2.4h-2V727.4z"/>
	</g>
</g>
</svg>
