<?xml version="1.0" encoding="utf-8"?>
<!-- Generator: Adobe Illustrator 26.5.0, SVG Export Plug-In . SVG Version: 6.00 Build 0)  -->
<svg version="1.1" id="Livello_1" xmlns="http://www.w3.org/2000/svg" xmlns:xlink="http://www.w3.org/1999/xlink" x="0px" y="0px"
	 viewBox="0 0 750 900" style="enable-background:new 0 0 750 900;" xml:space="preserve">
<style type="text/css">
	.st0{clip-path:url(#SVGID_00000078749668676476626620000005842911331018566293_);}
	.st1{fill:#C1E0D9;}
	.st2{fill:#4DC4A4;}
</style>
<g>
	<g>
		<defs>
			<rect id="SVGID_1_" x="156.6" width="437.6" height="439"/>
		</defs>
		<clipPath id="SVGID_00000097461788964706886930000014669042473289591229_">
			<use xlink:href="#SVGID_1_"  style="overflow:visible;"/>
		</clipPath>
		<g style="clip-path:url(#SVGID_00000097461788964706886930000014669042473289591229_);">
			<g>
				<rect x="156" y="0.8" class="st1" width="438.2" height="438.2"/>
			</g>
			<path d="M153.2,250.7c7.3,0.4,14.6,0.8,21.9,1.3c4.7,0.4,9.4,0.7,14.1,1.5c2,0.4,3.8,1,5.6,1.8c2.9,1.2,5.6,2.7,8.1,4.5
				c3.8,2.7,6.8,6.3,8.7,10.5c0.8,1.8,1.3,3.6,1.8,5.5c0.2,0.9,0.4,1.8,0.5,2.6c0.2,1.3,0.1,2.7,0.1,4c0,0.9-0.1,1.9-0.2,2.8
				c-0.1,0.8,1.1,0.8,1.2,0c0.3-2.7,0.4-5.5-0.1-8.3c-0.4-1.9-0.8-3.8-1.5-5.7c-1.6-4.3-4.3-8.1-7.9-11.1c-2.3-1.9-4.8-3.5-7.4-4.8
				c-1.6-0.8-3.2-1.5-4.8-2.1c-0.8-0.3-1.6-0.6-2.4-0.8c-1.7-0.4-3.5-0.6-5.3-0.8c-2.6-0.3-5.2-0.6-7.8-0.8
				c-7.1-0.6-14.2-1-21.4-1.4c-1-0.1-2.1-0.1-3.1-0.2C152.5,249.4,152.5,250.6,153.2,250.7L153.2,250.7z"/>
			<g>
				<path class="st2" d="M344.3,130c-34.7,34-100.1,98.3-136,133.5l-7.4-5.7C234.2,229.3,342.4,120,342.4,120"/>
				<path d="M343.9,129.6c-7.8,7.7-15.7,15.4-23.5,23c-9.2,9.1-18.5,18.1-27.7,27.2c-9.8,9.6-19.5,19.2-29.3,28.8
					c-9.4,9.3-18.9,18.5-28.3,27.8c-8.2,8-16.4,16.1-24.6,24.1c-0.9,0.9-1.8,1.7-2.6,2.6c0.2,0,0.5-0.1,0.7-0.1
					c-2.5-1.9-5-3.8-7.4-5.7c0,0.3,0.1,0.6,0.1,1c4-3.4,7.8-6.9,11.7-10.5c5-4.6,10-9.3,15-14c5.8-5.5,11.5-11,17.3-16.6
					c6.2-6,12.3-12,18.4-18c6.2-6.1,12.4-12.2,18.6-18.3c5.9-5.9,11.9-11.8,17.8-17.7c5.3-5.3,10.7-10.6,16-16
					c4.4-4.4,8.7-8.7,13.1-13.1c3.1-3.1,6.1-6.2,9.2-9.2c1.4-1.4,2.9-2.8,4.3-4.3c0.1-0.1,0.1-0.1,0.2-0.2c0.6-0.6-0.3-1.4-0.9-0.9
					c-1,1-1.9,2-2.9,2.9c-2.7,2.7-5.4,5.4-8.1,8.1c-4.1,4.1-8.2,8.2-12.3,12.3c-5.1,5.1-10.2,10.2-15.3,15.3
					c-5.8,5.8-11.6,11.6-17.4,17.3c-6.2,6.1-12.3,12.2-18.5,18.3s-12.4,12.2-18.6,18.2c-5.8,5.7-11.7,11.3-17.6,17
					c-5.2,4.9-10.4,9.9-15.6,14.7c-4.1,3.9-8.3,7.7-12.6,11.4c-0.8,0.7-1.6,1.4-2.5,2.1c-0.3,0.3-0.2,0.7,0.1,1
					c2.5,1.9,5,3.8,7.4,5.7c0.2,0.2,0.6,0.1,0.7-0.1c8-7.9,16-15.7,24.1-23.6c9.3-9.2,18.7-18.3,28-27.5
					c9.8-9.6,19.6-19.2,29.3-28.8c9.3-9.2,18.7-18.3,28-27.5c8-7.9,16-15.7,24-23.6c0.8-0.8,1.7-1.7,2.5-2.5
					C345.3,129.9,344.5,129,343.9,129.6L343.9,129.6z"/>
			</g>
			<g>
				<path class="st2" d="M331.7,25.7c0.1,1.3-0.2,2.6,0,3.9s1.2,2.6,2.5,2.5c1.3-0.1,2-1.5,2.5-2.7c1.9-5.5,2.5-11.6,1.7-17.4
					c-0.1-0.5-0.2-1-0.5-1.4s-0.8-0.5-1.2-0.7c-1-0.2-2.2-0.1-3,0.5c0,0-1.4,3.4-1,4.4"/>
				<path d="M331,25.7c0.1,1.7-0.4,3.4,0.3,5c0.5,1.2,1.7,2.2,3.1,2s2.2-1.5,2.6-2.7c0.6-1.5,1.1-3.2,1.4-4.8c0.7-3.4,1-7,0.8-10.5
					c-0.1-0.9-0.2-1.8-0.3-2.7c-0.1-0.7-0.3-1.5-0.9-2c-1.1-0.9-2.9-0.9-4.2-0.4c-0.5,0.2-0.7,0.5-0.9,0.9c-0.2,0.4-0.3,0.9-0.5,1.3
					c-0.3,0.9-0.8,2.2-0.5,3.1c0.3,0.7,1.4,0.4,1.2-0.3c-0.2-0.6,0.2-1.7,0.4-2.3c0.2-0.6,0.4-1.1,0.6-1.7c-0.1,0.1-0.2,0.2-0.3,0.4
					c0.8-0.6,1.9-0.7,2.8-0.4c1,0.4,1,1.7,1.1,2.6c0.2,2.3,0.3,4.6,0.1,6.9c-0.2,2.3-0.6,4.6-1.2,6.8c-0.3,1-0.6,2-1,3
					c-0.3,0.7-0.9,1.5-1.7,1.5c-1,0-1.6-1.1-1.8-1.9c-0.3-1.3,0.1-2.6,0-3.9C332.2,24.9,331,24.9,331,25.7L331,25.7z"/>
			</g>
			<path d="M331.2,29.2c-2.6,2-5.9,3.2-9.1,3.7c-3.6,0.6-7.3,0.3-11,0.2c-3.6-0.1-7.4,0-10.9,1.2c-2.9,1-5.6,2.7-7.3,5.2
				c-1,1.4-1.6,2.9-1.8,4.6c-0.2,0.9-0.2,1.9-0.2,2.8c0,0.9,0,1.9,0.2,2.8c0.3,1.1,1.6,1.2,2.5,0.9c0.5-0.1,1-0.4,1.3-0.8
				c0.3-0.5,0.2-1.2,0.3-1.7c0.4-3.1,2.7-5.7,5.3-7.2c3.2-1.8,7-2.2,10.7-2.3c3.9-0.1,7.8,0,11.6-0.8c1.8-0.4,3.5-1,5.2-1.6
				c1.5-0.6,3-1.2,4.5-2.1c0.8-0.4,1.5-0.9,2.2-1.4c0.6-0.5,0-1.5-0.6-1.1c-2.7,2-5.8,3.2-9,4.3c-1.8,0.6-3.5,1-5.4,1.2
				s-3.8,0.2-5.7,0.3c-6.6,0.1-14.2,0.4-18.4,6.4c-0.8,1.2-1.4,2.6-1.6,4.1c0,0.3-0.1,0.7-0.1,1s0.1,0.3-0.1,0.4
				c-0.3,0.2-0.7,0.3-1.1,0.3c-0.1,0-0.3,0-0.4-0.1c0,0,0.1,0.1,0,0c-0.1-0.2,0-0.4-0.1-0.6c-0.1-0.9-0.1-1.9-0.1-2.8
				c0.1-1.7,0.4-3.5,1.3-5c1.4-2.5,3.9-4.3,6.6-5.4c3.3-1.3,6.9-1.5,10.4-1.4c3.6,0.1,7.2,0.5,10.8,0c3.2-0.4,6.3-1.3,9.1-3
				c0.7-0.4,1.3-0.8,1.9-1.3C332.7,29.6,331.8,28.7,331.2,29.2L331.2,29.2z"/>
			<path d="M338.7,15.9c5.8-0.2,11.7-0.2,17.5-0.4c0.6,0,1.1-0.1,1.3,0.5c0.3,0.7,0.4,1.4,0.5,2.1c0.3,1.4,0.5,2.8,0.6,4.3
				c0,2.4-0.6,4.7-2.2,6.5c-2.5,2.9-6.2,4.4-9.5,6.3c-1.6,1-3.2,2.1-4.4,3.5c-1.5,1.7-2.2,3.8-2.3,6.1c0,1.7,0.3,3.4,0.6,5
				c0.3,1.8,0.7,3.5,1,5.3c0.7,3.6,1.4,7.2,2,10.8c0.1,0.8,1.3,0.4,1.2-0.3c-0.6-3.3-1.2-6.6-1.9-9.8c-0.3-1.6-0.6-3.3-0.9-4.9
				c-0.3-1.6-0.6-3.2-0.8-4.8c-0.2-2.3,0.3-4.6,1.8-6.4c1.2-1.5,2.8-2.5,4.4-3.5c3.3-2,7.1-3.5,9.6-6.6c1.6-1.9,2.4-4.2,2.4-6.7
				c0-1.5-0.2-3-0.5-4.4c-0.1-0.6-0.3-1.3-0.4-1.9s-0.3-1.3-0.7-1.7c-0.5-0.6-1.3-0.6-2-0.6c-0.8,0-1.6,0.1-2.4,0.1
				c-1.7,0-3.4,0.1-5.1,0.1c-3.3,0-6.7,0.1-10,0.2C337.9,14.7,337.9,16,338.7,15.9L338.7,15.9z"/>
			<path d="M335.9,68.5c0-4.9-0.1-9.8-0.1-14.7c0-2.5,0-4.9,0-7.4c0-1.2,0-2.5,0-3.7c0-1,0-2.1,0.3-3.1c0.5-1.9,1.9-3,3.6-3.9
				c1.6-0.9,3.3-1.7,4.7-2.8c1.5-1.2,2.8-2.6,3.8-4.2c0.5-0.8,1-1.6,1.3-2.5c0.4-0.8,0.8-1.8,0.9-2.7c0-0.5-0.2-1-0.6-1.2
				c-0.5-0.3-1-0.2-1.5-0.2c-1.2,0.1-2.4,0.2-3.7,0.3c-2.3,0.3-4.6,0.8-6.8,1.7c-0.3,0.1-0.5,0.4-0.4,0.7c0.1,0.3,0.4,0.6,0.7,0.4
				c1.9-0.8,3.8-1.3,5.8-1.5c1-0.1,2-0.2,3.1-0.3c0.5,0,1-0.1,1.5-0.1c0.1,0,0.5-0.1,0.7,0s0.1,0.4,0,0.5c-0.9,3.5-3.3,6.6-6.3,8.6
				c-2.8,1.9-6.8,2.9-7.9,6.6c-0.6,2-0.4,4.3-0.4,6.3c0,2.4,0,4.7,0,7.1c0,5.3,0.1,10.6,0.1,16C334.7,69.2,335.9,69.2,335.9,68.5
				L335.9,68.5z"/>
			<g>
				<path class="st2" d="M348.7,69.2c-1.8,0.2-4.8,0.7-6.5,1.1c-1.9,0.4-3.9,0.8-5.8,1.3c-0.8,0.2-1.6,0.4-2.4,0.7
					c-0.8,0.2-1.5,0.6-2.4,0.6c-0.8,0.1-1.6-2.8-0.8-3.3c0.8-0.5,11.9-2.5,15.5-3.3c0.3-0.1,0.6-0.1,0.9,0s0.4,0.5,0.6,0.8
					C348.1,67.9,348.4,68.5,348.7,69.2"/>
				<path d="M348.5,68.6c-3.3,0.5-6.5,1.1-9.8,1.8c-1.9,0.5-3.9,1-5.8,1.6c-0.4,0.1-1,0.4-1.3,0.3c0.1,0,0,0,0,0
					c-0.1-0.1-0.1-0.2-0.2-0.2c-0.2-0.4-0.4-0.9-0.4-1.4c0-0.2,0-0.4,0.1-0.5c0,0.1,0.1,0,0,0s0.2-0.1,0.2-0.1
					c0.1,0,0.3-0.1,0.4-0.1c0.8-0.2,1.7-0.4,2.5-0.6c2.4-0.5,4.8-1,7.2-1.4c1.2-0.2,2.5-0.5,3.7-0.7c0.4-0.1,0.9-0.2,1.3-0.3
					c0.3,0,0.4-0.1,0.6,0.2c0.1,0.2,0.2,0.5,0.3,0.7c0.2,0.6,0.5,1.1,0.7,1.7c0.3,0.7,1.4,0.1,1.1-0.6c-0.2-0.5-0.4-1-0.7-1.6
					c-0.2-0.4-0.3-0.9-0.6-1.2c-0.6-0.6-1.4-0.4-2.1-0.2c-1.1,0.2-2.2,0.4-3.3,0.6c-2.7,0.5-5.3,1-8,1.6c-1,0.2-1.9,0.4-2.9,0.7
					c-0.7,0.2-1.3,0.4-1.6,1.1c-0.3,1,0.1,2.6,0.8,3.3c0.6,0.6,1.5,0.3,2.2,0.1c1-0.3,2-0.7,3.1-0.9c4.2-1.1,8.4-2,12.7-2.6
					c0.3,0,0.5-0.5,0.4-0.7C349.2,68.7,348.9,68.6,348.5,68.6L348.5,68.6z"/>
			</g>
			<g>
				<path class="st2" d="M381.6,253.7c-0.9,0.3-6.2,4.3-2.6,10.1c5.2,8.4,12.6,5.1,14.2,4c0.7-0.4,5.2-3.3,2.6-10.9
					c-2.1-6.1-7.2-5.1-8.3-5.1"/>
				<path d="M381.4,253.1c-1.2,0.4-2.3,1.6-3,2.7c-1.3,1.8-1.7,4.1-1,6.2c0.8,2.5,2.7,4.9,4.9,6.3c1.7,1.1,3.6,1.6,5.6,1.6
					c2.3-0.1,4.7-0.8,6.5-2.4c3.2-2.8,3.2-7.3,1.8-11c-0.8-2.1-2.1-4-4.2-4.8c-1.3-0.5-2.7-0.6-4.1-0.6c-0.2,0-0.4,0-0.5,0
					c-0.8,0-0.8,1.2,0,1.2c1,0.1,2-0.1,3,0.1c1.7,0.3,3.1,1.3,4,2.8c1.2,2,1.8,4.6,1.5,6.9c-0.2,1.4-0.7,2.8-1.7,3.9
					c-0.2,0.2-0.3,0.4-0.5,0.5c-0.1,0.1-0.2,0.1-0.2,0.2c0,0-0.2,0.1,0,0l-0.1,0.1c-0.2,0.2-0.5,0.3-0.7,0.5c-1,0.5-2,0.9-3.1,1.1
					c-1.6,0.3-3.2,0.2-4.7-0.4c-2.1-0.8-3.7-2.4-4.9-4.3c-1.4-2.1-2-4.5-0.7-6.8c0.4-0.8,1-1.4,1.6-2c0.2-0.2,0.4-0.4,0.7-0.5
					c0.1-0.1,0.2-0.1,0.3-0.2c0,0,0.1,0,0.1-0.1c0.1-0.1-0.1,0.1,0,0C382.5,254.1,382.2,252.9,381.4,253.1L381.4,253.1z"/>
			</g>
			<path d="M352.8,169.9c-8.8,2.6-17.2,6.9-24.8,12.1c-8.2,5.7-15.3,12.9-21,21.1c-5.2,7.5-9.1,15.9-11.7,24.7
				c-3.1,10.6-4.4,21.6-4.3,32.6c0.1,11.3,1.6,22.7,5,33.6c3.3,10.6,8.4,20.3,15.4,28.9s15.6,16,25.1,21.9c8,4.9,16.7,8.9,25.9,10.9
				c7.3,1.6,14.9,2.2,22.4,2c8.2-0.2,16.4-1.2,24.4-3c8.2-1.8,16.3-4.5,23.9-8c7.4-3.4,14.4-7.7,20.6-13c6-5.1,11.2-11.2,14.9-18.2
				c1.7-3.1,3-6.4,4.3-9.6c1.3-3.1,2.4-6.2,3.4-9.4c2.4-7.5,3.7-15.3,4.2-23.2c0.3-5.1,0.3-10.1,0.1-15.2c-0.3-6-0.7-12-1.7-18
				c-1-6.1-3.2-11.9-5.8-17.6c-2.3-5.1-4.8-10.1-7.9-14.8c-5.7-8.8-13.1-16.4-21.5-22.6c-8.7-6.4-18.6-11-28.9-14.2
				c-11.1-3.5-22.8-5.5-34.4-5.3c-5.4,0.1-10.8,0.8-16.1,2c-0.8,0.2-0.4,1.4,0.3,1.2c11.1-2.7,22.7-2.5,33.9-0.6
				c11,1.8,22,5.2,32,10.2c9.3,4.7,17.7,11,24.7,18.5c3.5,3.8,6.7,7.9,9.5,12.2c3,4.6,5.4,9.6,7.6,14.6c2.5,5.6,4.6,11.5,5.5,17.7
				c0.8,5.9,1.3,11.9,1.5,17.8c0.3,9-0.1,18-1.8,26.9c-1.3,6.7-3.4,13.2-6,19.6c-1.3,3.2-2.6,6.4-4.3,9.5c-1.9,3.4-4.1,6.6-6.6,9.6
				c-5.1,6-11.3,11.1-18,15.3c-6.9,4.3-14.5,7.7-22.2,10.2c-7.8,2.6-15.9,4.4-24.1,5.3c-7.7,0.9-15.5,1.1-23.3,0.4
				c-7.4-0.7-14.7-2.3-21.6-5c-10.2-4.1-19.7-10.1-27.9-17.3c-8.1-7.1-15.3-15.6-20.3-25.2c-5.2-9.9-8.3-20.8-9.9-31.9
				s-1.6-22.6-0.1-33.7c1.3-9.7,4-19.3,8.3-28.2c3.8-7.8,8.8-15.1,14.8-21.3c7.3-7.6,16-13.7,25.5-18.1c3.6-1.7,7.3-3.1,11.2-4.3
				C353.8,170.9,353.5,169.7,352.8,169.9L352.8,169.9z"/>
			<path d="M350.6,159.8c-12,3-23.2,8.8-32.7,16.8c-8.1,6.8-15,15.1-20.7,24c-4.4,6.9-8,14.3-10.9,21.9c-0.9,2.3-1.7,4.6-2.4,7
				c-1.2,4.3-1.9,8.7-2.4,13.2c-1.5,13.8-1.1,28,1.4,41.6c2.6,14.2,8.5,28,16.6,40c6.2,9.2,13.9,17.1,22.9,23.7
				c7.9,5.8,16.5,11.1,25.8,14.5c13.1,4.9,27.2,6.7,41.1,6.4c14.3-0.3,28.7-2.8,42-7.9c3-1.2,6-2.5,8.9-4c0.7-0.4,0.1-1.4-0.6-1.1
				c-12.4,6.3-26.2,9.8-40,11.1c-14,1.4-28.3,0.6-42-2.9c-6.3-1.6-12.5-3.9-18.3-7c-3.8-2-7.4-4.3-11-6.6
				c-8.4-5.5-16-12.1-22.4-19.8c-4.2-5.1-7.8-10.5-10.8-16.3c-3.5-6.6-6.6-13.7-8.7-20.9c-3.9-13.4-4.8-27.8-4.2-41.7
				c0.4-8.5,1.3-17,4-25.1c2.3-6.8,5.2-13.3,8.6-19.5c4.8-8.8,10.8-17,17.8-24.1c8.3-8.3,18.2-15.1,29.2-19.2c2.9-1.1,6-2.1,9-2.8
				C351.7,160.8,351.3,159.6,350.6,159.8L350.6,159.8z"/>
			<path d="M374.1,156c-2.3,0-4.6,0.2-6.9,0.6c-1.6,0.3-3.2,0.7-4.8,1c-0.8,0.1-0.4,1.3,0.3,1.2c1.6-0.3,3.1-0.7,4.7-1
				c2.2-0.4,4.5-0.6,6.7-0.6C374.9,157.2,374.9,156,374.1,156L374.1,156z"/>
			<path d="M390.2,251.8c1.9-3.8,3.8-7.6,5.6-11.4c2.6-5.2,5.2-10.5,7.7-15.8c2.9-5.9,5.7-11.8,8.6-17.6c2.7-5.5,5.4-11.1,8-16.6
				c2.1-4.3,4.1-8.6,6.1-12.9c0.2-0.4,0.4-0.8,0.6-1.2c0.3-0.7-0.7-1.3-1.1-0.6c-1.9,4.1-3.9,8.2-5.8,12.4
				c-2.6,5.4-5.2,10.9-7.8,16.3c-2.9,5.9-5.7,11.8-8.6,17.7c-2.6,5.4-5.3,10.8-7.9,16.2c-2,4-4,8-6,12c-0.2,0.4-0.4,0.7-0.5,1.1
				C388.8,251.9,389.9,252.5,390.2,251.8L390.2,251.8z"/>
			<path d="M386.9,166.4c0,5,0,9.9,0,14.9c0,5.8,0,11.7,0,17.5c0,6.1,0,12.3,0,18.4c0,5.9,0,11.8,0,17.7c0,5.1,0,10.2,0,15.2
				c0,0.6,0,1.1,0,1.7c0,0.8,1.2,0.8,1.2,0c0-5,0-9.9,0-14.9c0-5.8,0-11.7,0-17.5c0-6.1,0-12.3,0-18.4c0-5.9,0-11.8,0-17.7
				c0-5.1,0-10.2,0-15.2c0-0.6,0-1.1,0-1.7C388.1,165.6,386.9,165.6,386.9,166.4L386.9,166.4z"/>
			<path d="M338.4,176.9c4,7,8.1,14,12.2,20.9c4.6,7.8,9.3,15.6,14.2,23.3c2.2,3.5,4.5,7.1,6.9,10.5c0.4,0.6,1.5,0,1.1-0.6
				c-4.6-6.6-8.8-13.5-13-20.4c-4.7-7.8-9.4-15.6-13.9-23.5c-2.1-3.6-4.2-7.3-6.3-10.9C339,175.6,338,176.2,338.4,176.9L338.4,176.9
				z"/>
			<path d="M308.4,203.8c4.2,2.9,8.2,6.1,12.2,9.2c4.9,3.8,9.7,7.7,14.5,11.6c5,4.1,10,8.2,15.1,12.2c4.7,3.8,9.4,7.6,14.2,11.2
				c3.9,3,7.8,5.9,11.8,8.6c0.4,0.3,0.8,0.5,1.2,0.8c0.7,0.4,1.3-0.6,0.6-1.1c-3.9-2.5-7.7-5.3-11.4-8.1c-4.7-3.6-9.4-7.3-14-11
				c-5-4-10-8.1-15.1-12.2c-4.8-3.9-9.7-7.9-14.6-11.7c-4.1-3.3-8.3-6.5-12.6-9.6c-0.4-0.3-0.9-0.6-1.3-1
				C308.4,202.3,307.8,203.4,308.4,203.8L308.4,203.8z"/>
			<path d="M292.5,246.7c5.8,1,11.5,2,17.3,3c6.6,1.1,13.1,2.2,19.7,3.3c6.5,1.1,13,2.2,19.5,3.3c5.5,0.9,11,1.9,16.5,2.9
				c3.6,0.7,7.3,1.3,10.9,2.1c0.3,0.1,0.6,0.1,0.8,0.2c0.8,0.2,1.1-1,0.3-1.2c-3.3-0.8-6.7-1.4-10-2c-5.3-1-10.6-1.9-15.9-2.8
				c-6.4-1.1-12.9-2.2-19.3-3.3c-6.6-1.1-13.2-2.2-19.8-3.4c-5.9-1-11.8-2-17.7-3.1c-0.6-0.1-1.3-0.2-1.9-0.3
				C292,245.4,291.7,246.6,292.5,246.7L292.5,246.7z"/>
			<path d="M292.6,274.2c6.4-0.5,12.8-1.1,19.2-1.8c7.2-0.8,14.3-1.6,21.4-2.5c6.8-0.9,13.6-1.8,20.5-2.7c5.4-0.8,10.8-1.6,16.1-2.5
				c1.8-0.3,3.6-0.6,5.4-1c1-0.2,2.1-0.4,3.1-0.8c0.2-0.1,0.3-0.1,0.5-0.2c0.7-0.3,0.1-1.4-0.6-1.1c-0.1,0.1,0.2-0.1,0,0
				c-0.1,0-0.1,0.1-0.2,0.1c-0.2,0.1-0.4,0.1-0.6,0.2c-0.5,0.1-1,0.3-1.6,0.4c-1.6,0.4-3.3,0.7-4.9,0.9c-5.1,0.9-10.2,1.7-15.3,2.4
				c-6.7,1-13.3,1.9-20,2.7c-7.1,0.9-14.2,1.8-21.3,2.6c-6.5,0.7-13,1.4-19.5,1.9c-0.7,0.1-1.4,0.1-2.1,0.2
				C291.8,273.1,291.8,274.3,292.6,274.2L292.6,274.2z"/>
			<path d="M305.8,313.3c3.5-1.9,7-3.9,10.4-6c5.1-3.1,10.2-6.2,15.2-9.3c5.8-3.6,11.5-7.2,17.3-10.9c5.6-3.6,11.1-7.2,16.7-10.9
				c4.5-3,9-6,13.4-9.1c0.4-0.3,0.9-0.6,1.3-0.9c0.6-0.5,0-1.5-0.6-1.1c-4.2,3-8.5,5.9-12.8,8.8c-5.4,3.6-10.9,7.2-16.4,10.7
				c-5.8,3.7-11.5,7.4-17.3,11c-5.2,3.2-10.4,6.4-15.6,9.6c-3.7,2.2-7.4,4.4-11.2,6.5c-0.3,0.2-0.6,0.3-0.9,0.5
				C304.5,312.6,305.1,313.7,305.8,313.3L305.8,313.3z"/>
			<path d="M342.3,347.6c2.1-3,3.9-6.3,5.7-9.6c2.9-5.3,5.8-10.6,8.6-15.9c3.3-6.3,6.5-12.5,9.7-18.9c3.1-6.2,6.1-12.3,9.1-18.6
				c2.4-5,4.7-10,6.8-15.1c0.2-0.5,0.4-1,0.6-1.4c0.3-0.7-0.9-1-1.2-0.3c-1.9,4.8-4.1,9.6-6.3,14.3c-2.9,6.1-5.9,12.2-8.9,18.3
				c-3.2,6.4-6.4,12.7-9.7,19c-2.9,5.5-5.8,11-8.8,16.4c-2,3.5-3.9,7.1-6.1,10.5c-0.2,0.2-0.3,0.5-0.5,0.7
				C340.8,347.6,341.9,348.3,342.3,347.6L342.3,347.6z"/>
			<path d="M383.2,356.6c0.1-5.9,0.4-11.7,0.6-17.6c0.3-7.3,0.7-14.5,1-21.8c0.4-7.2,0.7-14.5,1.1-21.7c0.3-5.8,0.5-11.6,0.7-17.4
				c0.1-1.9,0.1-3.8,0.1-5.7c0-1.1,0-2.2-0.2-3.2c0-0.1,0-0.2-0.1-0.3c-0.3-0.7-1.5-0.4-1.2,0.3c0,0.1,0.1,0.2,0.1,0.3
				c0.1,0.2,0-0.1,0,0.1c0,0.1,0,0.2,0,0.3c0,0.5,0.1,1.1,0.1,1.6c0,1.7,0,3.5,0,5.2c-0.1,5.5-0.4,11-0.6,16.6
				c-0.3,7.1-0.7,14.3-1,21.4c-0.4,7.3-0.7,14.6-1.1,21.9c-0.3,6.1-0.5,12.2-0.7,18.3c0,0.6,0,1.2,0,1.8
				C381.9,357.3,383.1,357.3,383.2,356.6L383.2,356.6z"/>
			<path d="M418.3,351.9c-1.4-3.4-2.7-6.8-4.1-10.3c-2.2-5.6-4.3-11.2-6.4-16.9c-2.5-6.6-4.9-13.2-7.3-19.8
				c-2.3-6.4-4.5-12.8-6.6-19.2c-1.6-5-3.3-10-4.6-15.1c-0.1-0.5-0.2-0.9-0.4-1.4c-0.2-0.8-1.4-0.4-1.2,0.3
				c1.2,4.8,2.7,9.6,4.2,14.3c2.1,6.3,4.2,12.7,6.5,18.9c2.4,6.7,4.8,13.3,7.3,20c2.2,5.8,4.3,11.6,6.6,17.4
				c1.4,3.8,2.9,7.5,4.4,11.2c0.1,0.3,0.2,0.5,0.3,0.8C417.4,352.9,418.6,352.6,418.3,351.9L418.3,351.9z"/>
			<path d="M392.5,268.6c2.3,2,4.3,4.3,6.4,6.5c4,4.2,7.9,8.4,11.8,12.6c4.8,5.2,9.6,10.5,14.3,15.8c4.7,5.4,9.5,10.8,14.1,16.2
				c3.8,4.5,7.6,9.1,11.1,13.8c0.3,0.5,0.7,0.9,1,1.4c0.5,0.6,1.5,0,1.1-0.6c-3.3-4.6-7-9.1-10.6-13.4c-4.6-5.5-9.2-10.8-13.9-16.2
				c-4.8-5.4-9.6-10.8-14.4-16.1c-4-4.4-8.1-8.8-12.2-13.1c-2.4-2.5-4.7-5-7.2-7.4c-0.1-0.1-0.3-0.2-0.4-0.4
				C392.7,267.2,391.9,268.1,392.5,268.6L392.5,268.6z"/>
			<path d="M396.1,264.1c1.3,0.3,2.5,0.8,3.8,1.3c1.9,0.8,3.7,1.6,5.6,2.4c5.3,2.4,10.5,4.9,15.7,7.4c6.2,3,12.4,6,18.6,9
				c6.1,3,12.2,6,18.3,8.9c4.9,2.3,9.8,4.6,14.7,6.7c0.5,0.2,1,0.4,1.5,0.6c0.7,0.3,1-0.9,0.3-1.2c-4.7-2-9.4-4.1-14.1-6.3
				c-6.1-2.9-12.1-5.8-18.1-8.7c-6.2-3-12.4-6.1-18.7-9.1c-5.4-2.6-10.8-5.2-16.2-7.7c-3.4-1.5-6.9-3.2-10.5-4.3
				c-0.2-0.1-0.5-0.1-0.7-0.2C395.7,262.7,395.4,263.9,396.1,264.1L396.1,264.1z"/>
			<path d="M479.5,251.2c-4.8,0.2-9.6,0.5-14.4,0.8c-6.2,0.4-12.5,0.9-18.7,1.4c-6.6,0.5-13.2,1.1-19.7,1.6
				c-5.8,0.5-11.6,1-17.4,1.6c-3.9,0.4-7.9,0.8-11.8,1.4c-0.3,0-0.6,0.1-0.9,0.1c-0.8,0.1-0.4,1.3,0.3,1.2c0.3,0,0.6-0.1,0.9-0.1
				c0.4-0.1,0.6-0.1,0.9-0.1c0.8-0.1,1.7-0.2,2.5-0.3c2.1-0.3,4.3-0.5,6.4-0.7c5.6-0.6,11.3-1.1,16.9-1.6c6.5-0.6,13.1-1.1,19.6-1.7
				c6.3-0.5,12.6-1,19-1.4c5-0.3,10-0.7,15-0.9c0.5,0,1,0,1.4-0.1C480.3,252.4,480.3,251.2,479.5,251.2L479.5,251.2z"/>
			<path d="M463,205.8c-3.1,2.6-6.4,4.9-9.7,7.3c-4.8,3.4-9.6,6.8-14.5,10.1c-5.5,3.7-10.9,7.4-16.4,11.1c-5.2,3.5-10.4,7-15.5,10.5
				c-3.9,2.6-7.7,5.2-11.6,7.9c-0.3,0.2-0.7,0.5-1,0.7c-0.6,0.4,0,1.5,0.6,1.1c3.6-2.6,7.3-5,11-7.5c5.1-3.4,10.1-6.8,15.2-10.2
				c5.5-3.7,11-7.4,16.5-11.2c5-3.4,10-6.8,14.9-10.3c3.6-2.5,7.1-5.1,10.6-7.8c0.3-0.2,0.6-0.5,0.8-0.7
				C464.5,206.2,463.6,205.4,463,205.8L463,205.8z"/>
			<g>
				<g>
					<path d="M383.3,151.9H380v-2.8h3.9l0.7-3.3h-3.4v-2.9h4l1.4-5.5h3.2l-1.4,5.6h3.2l1.3-5.6h3.2l-1.4,5.6h3.3v2.8h-3.9l-0.8,3.3
						h3.5v2.8h-4.1l-1.3,5.9h-3.1l1.3-5.9h-3.2l-1.3,5.9H382L383.3,151.9z M390.3,149.1l0.7-3.3h-3.2l-0.7,3.3H390.3z"/>
					<path d="M399.3,152.2l4.2-0.3c-0.2,2.4,1.2,3.9,3.3,4.3c1.8,0.3,3.2-0.4,3.4-2c0.2-1.2-0.7-2.1-3.3-3.7c-4-2.4-5.2-4.3-4.7-7.3
						c0.6-3.3,3.5-5.2,7.4-4.5c2.8,0.5,4.8,2.1,5.6,4.9l-3.8,1.5c-0.4-1.6-1.4-2.6-2.6-2.8s-2.4,0.4-2.6,1.5c-0.2,1.2,0.5,2,3.3,3.7
						c4,2.4,5.2,4.1,4.7,7c-0.7,3.9-4.2,6-8.3,5.3C402.1,159.1,399.3,156.1,399.3,152.2z"/>
					<path d="M417.4,154l4.3-12.4l3.9,1.4l-4.1,11.9c-1,3-0.7,4.5,2.1,5.5c2.8,1,4.1,0,5.1-2.9l4.1-12l3.9,1.4l-4.2,12.2
						c-1.8,5.1-5.2,6.7-10.2,5C417.4,162.4,415.7,159,417.4,154z"/>
					<path d="M434.3,161.7l4.1,1.1c-0.9,2.2-0.2,4.1,1.8,5.1c1.6,0.9,3.1,0.7,3.9-0.8c0.6-1,0.1-2.2-1.9-4.6c-3-3.6-3.6-5.7-2.1-8.4
						c1.6-2.9,5-3.8,8.5-1.9c2.5,1.4,3.8,3.6,3.7,6.4l-4.1,0.2c0.2-1.7-0.4-2.9-1.5-3.5s-2.4-0.4-2.9,0.6c-0.6,1-0.1,2.1,2,4.6
						c3,3.6,3.6,5.6,2.2,8.2c-1.9,3.5-5.9,4.3-9.5,2.3C434.7,169.1,433,165.3,434.3,161.7z"/>
					<path d="M459.9,164.5l-5-3.8l2.3-3l13.2,10l-2.3,3l-5-3.8L453,180.2l-3.3-2.5L459.9,164.5z"/>
					<path d="M468.5,189.4l-5.5-5.6l-3.8,1.7l-3.2-3.2l20.5-8.4l2.2,2.2l-8.8,20.3l-3.2-3.2L468.5,189.4z M470.2,185.7l3-6.5
						l-6.5,2.9L470.2,185.7z"/>
					<path d="M486.9,185.5l2.5,3.3L473,201.2l-2.5-3.3L486.9,185.5z"/>
					<path d="M501.6,208.7l-17.9,10l-2.1-3.7l7.7-13.7l-11.7,6.5l-2-3.6l17.9-10l2.1,3.7l-7.6,13.6l11.6-6.5L501.6,208.7z"/>
					<path d="M492.4,231.8l-2.5-7.5l-4.1-0.1l-1.4-4.3l22.1,1.4l1,2.9l-16.8,14.4l-1.4-4.3L492.4,231.8z M495.6,229.2l5.5-4.5
						l-7.1-0.3L495.6,229.2z"/>
					<path d="M511,237l1.1,7.3c0.6,4.1-0.9,6.8-4.1,7.3c-1.8,0.3-3.4-0.3-4.5-1.5c-0.5,2.3-2,3.6-4.5,4c-3.8,0.6-6.4-1.6-7-5.8
						l-1.3-8.3L511,237z M495.7,247.5c0.3,1.9,1.4,2.7,2.9,2.5c1.9-0.3,2.2-1.8,2-3.2l-0.6-3.9l-4.9,0.7L495.7,247.5z M504.3,245.5
						c0.2,1.6,1,2.3,2.4,2.1c1.3-0.2,1.9-1.2,1.6-2.7l-0.5-3.2l-4.1,0.6L504.3,245.5z"/>
					<path d="M513.6,257.8l-0.1,4.2l-16.7-0.3l-0.1,8.6l-3.8-0.1l0.2-12.7L513.6,257.8z"/>
					<path d="M513,275l-2.1,13.6l-3.8-0.6l1.4-9.5l-4.2-0.6l-1.3,8.9l-3.8-0.6l1.3-8.9l-4.8-0.7l-1.4,9.5l-3.8-0.6l2.1-13.6L513,275
						z"/>
					<path d="M509.4,294.9l-2.1,6.6c-1.4,4.5-4,6.1-7.8,4.9s-5.1-4.2-3.7-8.6l0.9-2.7l-8-2.5l1.3-3.9L509.4,294.9z M499.5,298.6
						c-0.7,2.1-0.5,3.3,1.2,3.9c1.6,0.5,2.4-0.3,3.1-2.5l0.7-2.3l-4.3-1.4L499.5,298.6z"/>
					<path d="M483.9,314.1l3.5-7.1l-2.8-3l2-4.1l14.7,16.6l-1.4,2.8l-22.1-1.6l2-4L483.9,314.1z M487.9,314.6l7.1,0.7l-4.9-5.2
						L487.9,314.6z"/>
					<path d="M489.3,330l3.5-5.1l3.1,2.2l-9.5,13.7l-3.1-2.2l3.5-5.1l-13.7-9.5l2.4-3.4L489.3,330z"/>
					<path d="M483.2,344.6l-2.9,3l-5.7-5.6l-6,6l5.7,5.6l-2.9,3l-14.6-14.4l2.9-3l6.2,6.1l6-6l-6.2-6.1l2.9-3L483.2,344.6z"/>
					<path d="M458.8,348.1l-2.8,3.2c-1.6-1.8-3.6-1.9-5.4-0.7c-1.5,1-2,2.5-1,3.8c0.7,1,2,1,5,0.3c4.5-1.1,6.7-0.7,8.5,1.8
						c2,2.7,1.2,6.2-2,8.4c-2.3,1.6-4.9,1.9-7.4,0.6l1.6-3.8c1.4,0.9,2.8,0.9,3.8,0.1c1-0.7,1.4-2,0.7-2.9c-0.7-1-1.8-1-5-0.2
						c-4.6,1.2-6.6,0.8-8.3-1.6c-2.3-3.2-1.3-7.2,2.1-9.6C452,345.2,456.1,345.4,458.8,348.1z"/>
				</g>
			</g>
			<g>
				<path class="st2" d="M153.7,204.8c4.3,15.5,9,30.8,14.3,45l10.2,1c-1.1-4.6-9.9-31.5-10-31.9c17.9,0,52.2,0.9,57.8-2.3
					c17.8-10.2,80.9-79,115-107L338.9,98c-8.1,5.2-54,46-67.3,59.8c-13.7,14.2-47.8,47.1-52.1,48.7c-3.6,1.3-34.3,2.5-53.5,2
					c-2.7-7.2-6.8-20-11-33.8"/>
				<path d="M153.2,205c3.3,11.9,6.8,23.7,10.8,35.3c1.1,3.2,2.3,6.5,3.5,9.7c0.1,0.3,0.3,0.4,0.6,0.4c3.4,0.3,6.8,0.7,10.2,1
					c0.4,0,0.7-0.4,0.6-0.8c-1-4.3-2.5-8.5-3.8-12.7c-1.7-5.2-3.3-10.4-5-15.7c-0.4-1.2-0.8-2.4-1.2-3.5c-0.2,0.3-0.4,0.5-0.6,0.8
					c7.9,0,15.9,0.1,23.8,0.1c8,0,16,0,23.9-0.6c2.6-0.2,5.3-0.4,7.9-1c1.6-0.4,2.9-1.1,4.2-2c3.7-2.5,7.1-5.4,10.4-8.3
					c4.7-4.1,9.3-8.4,13.9-12.7c5.5-5.3,11-10.6,16.5-15.9c5.9-5.8,11.9-11.7,17.8-17.6c6.1-6,12.1-12,18.3-17.9
					c5.8-5.6,11.6-11.2,17.5-16.6c5.2-4.8,10.4-9.5,15.8-14.1c1.1-1,2.3-1.9,3.4-2.9c0.2-0.1,0.2-0.4,0.2-0.6
					c-0.7-3.9-1.5-7.7-2.2-11.6c-0.1-0.4-0.6-0.6-0.9-0.4c-3.6,2.3-6.9,5.3-10.2,8c-5.6,4.7-11.2,9.5-16.7,14.4
					c-6.3,5.5-12.5,11.1-18.7,16.7c-5.4,4.9-10.8,9.9-16.1,15c-4.2,4.1-8.3,8.3-12.4,12.5c-5.9,5.9-11.9,11.8-17.9,17.6
					c-5.8,5.5-11.6,11-17.5,16.4c-2.1,1.9-4.2,3.7-6.4,5.5c-0.7,0.6-1.4,1.1-2.1,1.6c-0.3,0.2-0.5,0.4-0.8,0.5
					c-0.1,0.1-0.2,0.1-0.3,0.2c-0.2,0.1-0.1,0.1-0.2,0.1c-1.9,0.7-4.1,0.7-6,0.8c-3.8,0.3-7.7,0.5-11.5,0.7
					c-9.7,0.4-19.4,0.6-29.2,0.5c-2.2,0-4.4-0.1-6.6-0.1c0.2,0.1,0.4,0.3,0.6,0.4c-4.2-11.1-7.5-22.5-11-33.8
					c-0.2-0.7-1.4-0.4-1.2,0.3c3.5,11.3,6.8,22.7,11,33.8c0.1,0.3,0.3,0.4,0.6,0.4c9.7,0.3,19.4,0.1,29-0.2
					c7.4-0.2,14.9-0.4,22.3-1.4c1.4-0.2,2.5-0.4,3.7-1.2c1.7-1.2,3.4-2.6,5-4c5.5-4.8,10.9-9.8,16.2-14.8
					c6.2-5.9,12.4-11.9,18.5-17.9c4.6-4.6,9.1-9.3,13.8-13.9c4.8-4.7,9.7-9.3,14.6-13.9c6.1-5.6,12.2-11.2,18.4-16.7
					c5.9-5.2,11.8-10.4,17.7-15.5c4-3.4,8-6.9,12.2-10c0.5-0.4,1.1-0.8,1.7-1.2c-0.3-0.1-0.6-0.2-0.9-0.4c0.7,3.9,1.5,7.7,2.2,11.6
					c0.1-0.2,0.1-0.4,0.2-0.6c-11.2,9.2-21.7,19.2-32.2,29.3c-12.1,11.6-24,23.5-35.9,35.2c-10.3,10.2-20.6,20.4-31.4,30.1
					c-3.7,3.3-7.4,6.6-11.4,9.6c-1.3,1-2.7,2-4.1,2.8c-1.6,0.9-3.7,1.1-5.6,1.3c-7.2,0.9-14.6,0.9-21.9,1c-8.3,0.1-16.6,0-25-0.1
					c-1.7,0-3.3,0-5,0c-0.4,0-0.7,0.4-0.6,0.8c2.9,8.7,5.7,17.4,8.4,26.2c0.6,1.9,1.2,3.8,1.7,5.7c0.2-0.3,0.4-0.5,0.6-0.8
					c-3.4-0.3-6.8-0.7-10.2-1c0.2,0.1,0.4,0.3,0.6,0.4c-4.3-11.4-8-22.9-11.4-34.6c-1-3.4-2-6.9-2.9-10.3
					C154.1,203.9,153,204.2,153.2,205L153.2,205z"/>
			</g>
			<g>
				<path class="st1" d="M204.9,292.9c-1.2,5.8-8.1,16.1-25,16.1c-9.1,0-14.5-6.8-17.5-11.5c-7.1-11-2.6-21.1-1.3-23.5
					c11.4-20.5,32.2-10.1,34.1-8.9c6.6,4.2,9.9,14.1,10,19.4"/>
				<path d="M204.4,292.8c-0.7,3.2-2.5,6.1-4.7,8.4c-3.4,3.5-7.9,5.7-12.6,6.7c-1.5,0.3-3.1,0.5-4.7,0.6c-1.7,0.1-3.3,0.2-5-0.1
					c-2.8-0.4-5.4-1.6-7.7-3.2c-2-1.5-3.8-3.4-5.3-5.4c-1.8-2.4-3.4-5.1-4.4-8c-1.7-5-1.5-10.5,0.5-15.5c0.7-1.9,1.8-3.6,3-5.2
					c1.5-2.1,3.4-4.1,5.6-5.6c3.5-2.5,7.8-3.6,12.1-3.6c3.4,0,6.7,0.7,9.9,1.9c2.3,0.8,4.4,1.9,6.3,3.6c3.8,3.7,6.2,9,7.1,14.2
					c0.2,1,0.3,2,0.3,3c0,0.6,0.9,0.6,0.9,0c-0.1-2.4-0.6-4.7-1.3-7c-0.9-2.7-2.1-5.3-3.7-7.7c-1.4-2-3.2-4-5.3-5.3
					c-0.7-0.4-1.5-0.8-2.2-1.1c-3-1.3-6.1-2.1-9.4-2.5c-4.2-0.4-8.5,0.1-12.4,2c-4.7,2.3-8.5,6.5-10.9,11.1c-2.1,4-2.9,8.8-2.3,13.3
					c0.7,6,4,11.6,8.2,15.8c1.9,2,4.2,3.6,6.7,4.7c3,1.3,6.2,1.5,9.5,1.3c5.5-0.4,11-2,15.4-5.4c3-2.3,5.5-5.4,6.8-9
					c0.2-0.6,0.4-1.3,0.6-2C205.4,292.4,204.6,292.2,204.4,292.8L204.4,292.8z"/>
			</g>
			<g>
				<path class="st2" d="M195.5,283.5c-1.3-4.7-4.2-8.8-6.6-9.9c-8-3.6-15.6,0-17.4,2c-2.4,2.8-6.1,8-2.6,17.3
					c3.4,8.9,12.5,8.2,14,8c8-1,11.7-4.7,12.8-9.2"/>
				<path d="M196.1,283.3c-0.5-1.9-1.3-3.8-2.4-5.5c-0.8-1.4-1.8-2.7-3-3.7c-1.4-1.1-3.1-1.7-4.8-2.1c-1.9-0.4-3.9-0.6-5.9-0.4
					c-2.9,0.3-5.9,1.2-8.2,3c-0.7,0.6-1.3,1.3-1.8,2.1c-0.7,0.9-1.3,1.9-1.7,2.9c-1.3,2.8-1.6,5.8-1.1,8.8c0.5,3.4,1.8,7,4.2,9.5
					c2.9,3,7.2,4.2,11.3,3.9c5.4-0.4,11.1-2.8,13.3-8c0.2-0.5,0.4-1.1,0.5-1.6c0.2-0.8-1-1.1-1.2-0.3c-0.6,2.2-1.8,4.1-3.6,5.5
					c-2.4,1.9-5.4,2.8-8.4,3.2c-3.3,0.4-6.9-0.2-9.6-2.1c-2.5-1.7-3.9-4.3-4.7-7.1c-0.9-3-1.2-6.2-0.3-9.2c0.6-2,1.7-3.8,3-5.4
					c1.4-1.7,3.6-2.6,5.7-3.1c3.6-0.9,7.4-0.7,10.8,0.7c1.3,0.5,2.3,1.4,3.1,2.5c1.1,1.3,2,2.9,2.6,4.5c0.4,0.9,0.7,1.8,0.9,2.7
					C195.1,284.4,196.3,284.1,196.1,283.3L196.1,283.3z"/>
			</g>
			<g>
				<path class="st1" d="M225,292.8c-10.6-1-20.8-1-31.7-1.3c-3-0.1-11.6-0.5-14.1-2.3c0,0-1.5-5.5,0.7-7.6c1.9,0,7.8,1.4,10.6,1.7
					c11.5,1.1,23,2.3,34.5,3.4"/>
				<path d="M225,292.3c-7.3-0.7-14.6-0.9-22-1.1c-5.6-0.1-11.3-0.1-16.9-0.8c-1.3-0.2-2.7-0.4-4-0.7c-1-0.2-2-0.5-2.8-1
					c0.1,0.1,0.1,0.2,0.2,0.3c-0.2-0.9-0.4-1.8-0.4-2.8c-0.1-1.4-0.1-3.3,1.1-4.3c-0.1,0-0.2,0.1-0.3,0.1c0.8,0,1.6,0.2,2.4,0.3
					c1.1,0.2,2.3,0.4,3.4,0.6c2.4,0.5,4.7,0.8,7.2,1c6.9,0.7,13.7,1.4,20.6,2c3.8,0.4,7.7,0.8,11.5,1.1c0.6,0.1,0.6-0.9,0-0.9
					c-8.6-0.9-17.1-1.7-25.7-2.6c-2.1-0.2-4.2-0.4-6.3-0.6c-1.6-0.2-3.1-0.3-4.7-0.6c-2.6-0.5-5.3-1.2-7.9-1.4c-0.2,0-0.4-0.1-0.6,0
					c-0.3,0.1-0.5,0.4-0.6,0.6c-0.3,0.5-0.6,1-0.7,1.6c-0.3,1.2-0.3,2.4-0.1,3.6c0.1,0.7,0.2,1.6,0.4,2.3c0.2,0.7,1.5,1,2.1,1.2
					c2.5,0.8,5.2,1,7.8,1.2c2.8,0.2,5.6,0.3,8.4,0.4c8.3,0.2,16.6,0.3,24.9,0.9c1,0.1,2.1,0.2,3.1,0.3
					C225.6,293.3,225.6,292.4,225,292.3L225,292.3z"/>
			</g>
			<path d="M154.9,300.8c-3.1-4.8-5-10.1-6.2-15.7c-0.2-0.8-1.3-0.4-1.2,0.3c1.2,5.6,3.2,11.1,6.3,16
				C154.2,302.1,155.3,301.5,154.9,300.8L154.9,300.8z"/>
			<path d="M187.8,315.3c-4.5,0.9-9.3,0.7-13.8-0.4c-4.8-1.2-9.3-3.7-13.1-7c-2.3-2.1-4.4-4.5-6.1-7.1c-0.4-0.7-1.5,0-1.1,0.6
				c3,4.7,7.1,8.7,11.9,11.5c4.3,2.5,9.2,3.9,14.2,4.2c2.7,0.2,5.4,0,8.1-0.6C188.8,316.4,188.5,315.2,187.8,315.3L187.8,315.3z"/>
			<g>
				<path class="st2" d="M225.9,285.1c6.5,0,15.3,0.2,22.3,0.3c2,1.6,1.1,11.6,0.7,12.1c-0.7,0.7-22.4-0.4-22.8-0.5
					C225.4,296.5,224.1,287.3,225.9,285.1z"/>
				<path d="M225.9,285.7c5.8,0,11.6,0.1,17.4,0.2c1.6,0,3.2,0,4.8,0.1c-0.1-0.1-0.3-0.1-0.4-0.2c0.4,0.4,0.6,1,0.7,1.6
					c0.2,0.9,0.3,1.9,0.3,2.8c0.1,1.9,0,3.9-0.3,5.7c0,0.3-0.1,0.6-0.1,0.9c0,0.1,0,0.2-0.1,0.3c0,0.1,0,0,0.1-0.1s0.2-0.1,0.2-0.1
					c-0.1,0-0.1,0-0.2,0c-0.1,0-0.2,0-0.1,0c-0.1,0-0.2,0-0.3,0c-1.3,0.1-2.5,0.1-3.8,0.1c-3.8,0-7.7-0.2-11.5-0.4
					c-1.6-0.1-3.1-0.2-4.7-0.3c-0.5,0-0.9-0.1-1.4-0.1c-0.1,0-0.3,0-0.4,0c0,0,0.2,0.1,0,0c-0.1,0,0.3,0.1,0.2,0.2c0.1,0,0,0.1,0,0
					s0,0,0,0c0-0.1-0.1-0.2-0.1-0.4c-0.1-0.3-0.2-0.7-0.2-1c-0.2-0.9-0.3-1.9-0.4-2.8c-0.2-1.9-0.3-4.1,0.3-6
					c0.1-0.3,0.2-0.6,0.4-0.8c0.2-0.3,0-0.7-0.2-0.8c-0.3-0.2-0.6,0-0.8,0.2c-0.7,0.8-0.8,2.1-0.9,3.1c-0.1,1.4-0.1,2.8,0,4.2
					c0.1,1.2,0.2,2.5,0.5,3.7c0.1,0.6,0.3,1.5,0.9,1.8c0.3,0.1,0.8,0.1,1.1,0.1c0.8,0.1,1.5,0.1,2.3,0.1c2.3,0.1,4.6,0.2,6.9,0.3
					c2.5,0.1,4.9,0.2,7.4,0.2c1.6,0,3.3,0.1,4.9-0.1c0.5-0.1,0.8-0.2,1-0.8c0.3-0.8,0.3-1.7,0.4-2.5c0.2-2.6,0.3-5.3-0.2-7.8
					c-0.2-0.9-0.6-2.3-1.6-2.4c-2.1-0.1-4.2-0.1-6.2-0.1c-4.4-0.1-8.7-0.1-13.1-0.2c-0.9,0-1.9,0-2.8,0
					C225.1,284.5,225.1,285.7,225.9,285.7z"/>
			</g>
			<g>
				<path class="st1" d="M234.9,288.7c-0.9,0.6-1.5,1.9-1.4,2.9s1.6,2.7,3.4,2.9c3.5,0.3,4.4-2.7,4.4-3.1
					C241.4,288.5,238.7,286.3,234.9,288.7z"/>
				<path d="M234.7,288.3c-0.9,0.6-1.4,1.6-1.6,2.6c-0.1,0.9,0.1,1.6,0.7,2.3c1.2,1.6,3.4,2.2,5.3,1.5c1.2-0.4,2.2-1.5,2.6-2.7
					c0.4-1.2-0.2-2.8-1-3.7C239,286.6,236.5,287.2,234.7,288.3c-0.5,0.3,0,1.1,0.5,0.8c1.3-0.8,3.1-1.4,4.5-0.4
					c0.5,0.4,0.9,0.9,1.1,1.5c0.1,0.3,0.2,0.6,0.2,1c0,0.1,0,0.2,0,0.3c0-0.1,0,0,0,0.1c-0.2,0.8-0.7,1.6-1.4,2
					c-1.3,0.8-3.1,0.7-4.3-0.2c-0.5-0.4-1.2-1.1-1.2-1.8c0-0.9,0.4-1.9,1.2-2.4C235.6,288.7,235.2,287.9,234.7,288.3z"/>
			</g>
			<g>
				<path class="st2" d="M332.7,14.9c-6.5-0.1-14.2,1.7-20.6,2.8c-9.5,1.6-19,3.2-28.6,4.8c-1.1,0.2-2.2,0.4-3.1,1.1
					c-1.3,1.1-1.5,3-1.7,4.7c-0.2,2.5,0.3,5.9,2.8,6.3c0.6,0.1,1.1,0,1.7-0.1c15.9-2.9,31.7-5.8,47.6-8.7c1.5-0.3,3.2-0.6,4.1-1.9
					c0.5-0.7,0.7-1.7,0.7-2.6C335.6,18.9,334.5,16.5,332.7,14.9"/>
				<path d="M332.7,14.3c-4.3,0-8.5,0.6-12.7,1.4c-4.4,0.8-8.7,1.6-13.1,2.3c-4.8,0.8-9.7,1.6-14.5,2.5c-2.4,0.4-4.8,0.8-7.2,1.2
					c-1.9,0.3-4.3,0.4-5.6,2.1c-1.1,1.4-1.3,3.3-1.4,5c-0.1,1.5,0.1,3.1,0.7,4.5c0.7,1.5,2.2,2.2,3.8,2c2.4-0.3,4.8-0.9,7.2-1.3
					c9.6-1.7,19.2-3.5,28.8-5.2c2.4-0.4,4.8-0.9,7.2-1.3c1.2-0.2,2.4-0.4,3.6-0.7c1-0.2,2.1-0.3,3.1-0.6c1.9-0.5,3.3-1.7,3.6-3.7
					c0.3-1.9-0.2-4-1.2-5.6c-0.5-0.8-1.1-1.6-1.8-2.2c-0.6-0.5-1.4,0.3-0.9,0.9c1.4,1.2,2.3,2.9,2.7,4.7c0.2,0.9,0.2,1.9-0.1,2.8
					c-0.3,0.9-0.9,1.4-1.7,1.8c-0.8,0.3-1.7,0.5-2.5,0.6c-1.1,0.2-2.3,0.4-3.4,0.6c-2.3,0.4-4.6,0.8-6.9,1.3
					c-9,1.6-18.1,3.3-27.1,4.9c-2.3,0.4-4.5,0.8-6.8,1.2c-1.1,0.2-2.3,0.4-3.4,0.6c-0.8,0.1-1.7,0.2-2.3-0.3c-1-0.8-1.2-2.4-1.3-3.6
					c-0.1-1.5,0-3.3,0.6-4.6c0.8-1.9,2.9-2,4.7-2.3c2.3-0.4,4.5-0.8,6.8-1.2c4.5-0.8,9.1-1.5,13.6-2.3c4.2-0.7,8.4-1.4,12.6-2.2
					c4-0.7,8-1.5,12.1-1.7c1-0.1,1.9-0.1,2.9-0.1C333.5,15.5,333.5,14.3,332.7,14.3L332.7,14.3z"/>
			</g>
			<g>
				<path class="st2" d="M345.9,70.1c7.4,33.8,21.4,125,27.7,143.3c5.1,15,6.5,24.3,17,45.6c0.8,1.6,1.6,2.3,0.4,3.6
					c-1.2,1.3-3.1,2.1-4.5,1.1c0,0-0.9-1.5-1.6-3.1c-14.5-30.1-15.1-35.6-23.8-60.6c-13.1-37.6-20-102.4-27.6-127.4"/>
				<path d="M345.3,70.2c2.3,10.4,4.2,20.9,6.1,31.4c2.4,13.4,4.8,26.8,7.2,40.2c2.3,13,4.6,26,7.1,39c1.8,9.4,3.6,18.8,6,28
					c1.1,4.3,2.7,8.5,4,12.8c1.9,6.2,3.8,12.5,6.1,18.6c1.4,3.8,3,7.5,4.7,11.2c1,2.2,2,4.4,3.1,6.5c0.4,0.9,1.1,1.9,1.4,2.8
					c0.4,1.1-1,2-1.9,2.4c-0.5,0.2-1,0.3-1.6,0.1c-0.5-0.1-0.4-0.1-0.6-0.4c-0.6-1-1.1-2.1-1.6-3.1c-1.1-2.3-2.2-4.5-3.2-6.8
					c-1.8-3.7-3.5-7.5-5.1-11.3c-4.9-11.3-8.7-22.9-12.6-34.5c-2.3-6.9-4.7-13.7-6.6-20.7c-2-7.3-3.7-14.6-5.3-22
					c-3.3-15.5-6.1-31.2-8.8-46.8c-2.3-12.9-4.4-25.9-7.5-38.6c-0.5-2.2-1.1-4.4-1.8-6.6c-0.2-0.7-1.4-0.4-1.2,0.3
					c1.5,5,2.7,10.2,3.8,15.4c1.4,6.6,2.6,13.2,3.8,19.8c2.8,15.6,5.4,31.2,8.5,46.8c3,14.8,6.2,29.6,11,43.9
					c4.1,12.2,7.9,24.5,12.7,36.4c2.9,7.3,6.2,14.5,9.6,21.7c1.1,2.2,2.1,4.5,3.3,6.6c0.3,0.6,0.5,0.8,1.2,1.1
					c0.9,0.3,1.9,0.2,2.7-0.2c1.4-0.6,3-2,2.6-3.6c-0.2-0.8-0.8-1.6-1.2-2.4c-0.6-1.2-1.2-2.4-1.8-3.7c-3.4-7.3-6.4-14.7-8.9-22.3
					c-2-6.2-3.8-12.5-5.9-18.6c-2.6-7.6-4.1-15.7-5.6-23.6c-2.5-12.5-4.8-25-7-37.5c-2.5-13.8-4.9-27.6-7.3-41.4
					c-2.1-11.7-4.2-23.4-6.5-35c-0.4-2.1-0.9-4.2-1.3-6.4C346.3,69.1,345.1,69.4,345.3,70.2L345.3,70.2z"/>
			</g>
		</g>
	</g>
</g>
<g>
	<path d="M113.3,497c0,3-2.5,5.6-5.7,5.6c-3.1,0-5.7-2.5-5.7-5.5c0-1,0.3-2.1,0.9-3l5-8.4h1.9l-3.9,6.3c0.9-0.3,1.9-0.5,3-0.3
		C111.3,492.1,113.3,494.3,113.3,497z M111.6,497c0-2.2-1.8-4-4-4s-4,1.8-4,4s1.8,4,4,4S111.6,499.2,111.6,497z"/>
	<path d="M125,485.7h1.6l-8.6,21.8h-1.6L125,485.7z"/>
	<path d="M141.1,497c0,3-2.5,5.6-5.7,5.6c-3.1,0-5.7-2.5-5.7-5.5c0-1,0.3-2.1,0.9-3l5-8.4h1.9l-3.9,6.3c0.9-0.3,1.9-0.5,3-0.3
		C139.1,492.1,141.1,494.3,141.1,497z M139.4,497c0-2.2-1.8-4-4-4s-4,1.8-4,4s1.8,4,4,4C137.6,501,139.4,499.2,139.4,497z"/>
</g>
<path d="M187.6,316.6c5.6-1.6,11.4-3.6,15.9-7.5c5-4.3,8.3-10.5,10.2-16.7c0.2-0.7-0.9-1.1-1.2-0.3c-1.8,6-5,12-9.9,16.2
	c-4.4,3.8-9.9,5.6-15.4,7.2C186.5,315.6,186.8,316.8,187.6,316.6L187.6,316.6z"/>
<g>
	<g>
		<path d="M105.7,529.9h-5.3v-1.5h12.2v1.5h-5.3v13.9h-1.6C105.7,543.8,105.7,529.9,105.7,529.9z"/>
		<path d="M126.3,537.1v6.6h-1.5v-6.3c0-2.4-0.7-3.4-2.4-3.4c-2.1,0-3.2,1.7-3.2,4.7v5h-1.5v-15.3h1.5v6.1c0.7-1.1,2-1.8,3.6-1.8
			C125.1,532.8,126.3,534.3,126.3,537.1z"/>
		<path d="M140.9,538.8H133c0,2.4,1.4,3.8,3.5,3.8c1.2,0,2.1-0.3,3.1-1.4l1.1,0.9c-1.3,1.3-2.5,1.8-4.2,1.8c-3.3,0-5-2.5-5-5.5
			c0-3.1,1.7-5.7,4.8-5.7c3.3,0,4.7,2.6,4.7,5.1C141,538.1,141,538.5,140.9,538.8z M133,537.5h6.6c0,0,0-0.2,0-0.4
			c-0.1-1.8-1.2-3.1-3.2-3.1C134.3,534,133.1,535.6,133,537.5z"/>
		<path d="M162.7,535.9h5.2v7.9h-1.3l-0.2-2.4c-0.8,1.7-2.7,2.6-5.1,2.6c-4.5,0-6.9-3.3-6.9-7.9c0-4.6,2.4-7.9,7.1-7.9
			c3.2,0,5.3,1.6,6.3,4.2l-1.5,0.5c-0.8-2.1-2.3-3.3-4.9-3.3c-3.7,0-5.5,2.5-5.5,6.3c0,3.7,1.6,6.5,5.4,6.5c2.6,0,4.9-1.4,4.9-4.9
			V537h-3.7v-1.1H162.7z"/>
		<path d="M180.7,533.2l-0.7,1.2c-0.5-0.2-1-0.3-1.4-0.3c-1.7,0-2.9,1.3-2.9,3.6v6.1h-1.5V533h1.5v1.6c0.8-1.4,2.1-1.8,3.2-1.8
			C179.5,532.8,180.2,532.9,180.7,533.2z"/>
		<path d="M183.9,538.4c0-3.2,2.1-5.6,5.2-5.6c3.1,0,5.2,2.4,5.2,5.6c0,3.2-2.1,5.6-5.2,5.6S183.9,541.6,183.9,538.4z M192.8,538.4
			c0-2.5-1.4-4.2-3.7-4.2s-3.7,1.8-3.7,4.2c0,2.5,1.4,4.3,3.7,4.3C191.5,542.6,192.8,540.8,192.8,538.4z"/>
		<path d="M208.1,532.9v10.8h-1.5v-1.6c-0.8,1.2-2.2,1.7-3.6,1.7c-2.5,0-3.5-1.7-3.5-4.4v-6.6h1.5v6.3c0,1.8,0.3,3.4,2.4,3.4
			c2.2,0,3.2-1.9,3.2-4.7v-5L208.1,532.9L208.1,532.9z"/>
		<path d="M224,538.4c0,3.2-1.7,5.6-4.8,5.6c-1.6,0-2.8-0.6-3.6-1.6v5.9h-1.5V533h1.5v1.5c0.8-1.1,2-1.7,3.6-1.7
			C222.2,532.7,224,535,224,538.4z M222.5,538.4c0-2.6-1.3-4.3-3.5-4.3s-3.5,1.7-3.5,4.3c0,2.5,1.2,4.3,3.5,4.3
			C221.3,542.6,222.5,540.8,222.5,538.4z"/>
		<path d="M237.9,528.4h1.8v2.2h-1.8V528.4z M238.1,532.9h1.5v10.8h-1.5V532.9z"/>
		<path d="M244.6,541.1l1.3-0.6c0.4,1.1,1.5,2.1,3.1,2.1c1.5,0,2.4-0.7,2.4-1.9c0-2.9-6.2-1.1-6.2-4.9c0-1.9,1.5-3.1,3.7-3.1
			c1.7,0,3.1,0.7,3.9,2.3l-1.2,0.7c-0.5-1-1.4-1.6-2.7-1.6s-2.2,0.5-2.2,1.5c0,2.6,6.3,0.9,6.3,5.1c0,2.2-1.8,3.3-3.9,3.3
			C246.9,544,245.2,542.9,244.6,541.1z"/>
		<path d="M266,538.4c0-2.9,1.6-5.6,4.9-5.6c1.9,0,3.5,1,4.4,3l-1.5,0.6c-0.5-1.4-1.6-2.2-2.9-2.2c-2.3,0-3.3,2.1-3.3,4.3
			s1,4.2,3.4,4.2c1.4,0,2.4-0.8,2.9-2.2l1.4,0.5c-0.7,2-2.3,3-4.3,3C267.8,544,266,541.4,266,538.4z"/>
		<path d="M279.5,538.4c0-3.2,2.1-5.6,5.2-5.6s5.2,2.4,5.2,5.6c0,3.2-2.1,5.6-5.2,5.6S279.5,541.6,279.5,538.4z M288.4,538.4
			c0-2.5-1.4-4.2-3.7-4.2c-2.3,0-3.7,1.8-3.7,4.2c0,2.5,1.4,4.3,3.7,4.3C287,542.6,288.4,540.8,288.4,538.4z"/>
		<path d="M310,537v6.8h-1.5v-6.4c0-0.9,0-3.3-2.4-3.3c-2.2,0-2.8,2-2.8,4.5v5.2h-1.5v-6.3c0-1.8-0.5-3.4-2.4-3.4
			c-2.1,0-2.7,2-2.7,4.5v5.2h-1.5V533h1.5v1.3c0.7-1.1,1.8-1.5,3-1.5c1.5,0,2.6,0.7,3.2,2.1c0.7-1.4,1.9-2.1,3.6-2.1
			C308.9,532.8,310,534.5,310,537z"/>
		<path d="M330.8,537v6.8h-1.5v-6.4c0-0.9,0-3.3-2.4-3.3c-2.2,0-2.8,2-2.8,4.5v5.2h-1.5v-6.3c0-1.8-0.5-3.4-2.4-3.4
			c-2.1,0-2.7,2-2.7,4.5v5.2H316V533h1.5v1.3c0.7-1.1,1.8-1.5,3-1.5c1.5,0,2.6,0.7,3.2,2.1c0.7-1.4,1.9-2.1,3.6-2.1
			C329.7,532.8,330.8,534.5,330.8,537z"/>
		<path d="M336.5,528.4h1.8v2.2h-1.8V528.4z M336.7,532.9h1.5v10.8h-1.5V532.9z"/>
		<path d="M348.8,543.7c-0.6,0.2-1.1,0.3-1.7,0.3c-1.5,0-2.5-0.8-2.5-2.7v-7h-1.8V533h1.8v-2.8l1.5-1.1v4h2.6v1.3h-2.6v6.8
			c0,1.1,0.5,1.5,1.3,1.5c0.4,0,0.8-0.1,1.3-0.2L348.8,543.7z"/>
		<path d="M358.9,543.7c-0.6,0.2-1.1,0.3-1.7,0.3c-1.5,0-2.5-0.8-2.5-2.7v-7H353V533h1.8v-2.8l1.5-1.1v4h2.6v1.3h-2.6v6.8
			c0,1.1,0.5,1.5,1.3,1.5c0.4,0,0.8-0.1,1.3-0.2L358.9,543.7z"/>
		<path d="M372.3,538.8h-7.9c0,2.4,1.4,3.8,3.5,3.8c1.2,0,2.1-0.3,3.1-1.4l1.1,0.9c-1.3,1.3-2.5,1.8-4.2,1.8c-3.3,0-5-2.5-5-5.5
			c0-3.1,1.7-5.7,4.8-5.7c3.3,0,4.7,2.6,4.7,5.1C372.4,538.1,372.3,538.5,372.3,538.8z M364.4,537.5h6.6c0,0,0-0.2,0-0.4
			c-0.1-1.8-1.2-3.1-3.2-3.1C365.7,534,364.5,535.6,364.4,537.5z"/>
		<path d="M386.8,528.4v15.3h-1.5v-1.5c-0.8,1-2,1.6-3.6,1.6c-3.2,0-4.8-2.4-4.8-5.6c0-3.4,1.8-5.6,4.8-5.6c1.5,0,2.8,0.6,3.6,1.7
			v-5.9H386.8z M385.4,538.4c0-2.6-1.3-4.3-3.5-4.3s-3.5,1.7-3.5,4.3c0,2.5,1.2,4.3,3.5,4.3C384.2,542.6,385.4,540.8,385.4,538.4z"
			/>
		<path d="M406.3,543.7c-0.6,0.2-1.1,0.3-1.7,0.3c-1.5,0-2.5-0.8-2.5-2.7v-7h-1.8V533h1.8v-2.8l1.5-1.1v4h2.6v1.3h-2.6v6.8
			c0,1.1,0.5,1.5,1.3,1.5c0.4,0,0.8-0.1,1.3-0.2L406.3,543.7z"/>
		<path d="M410.1,538.4c0-3.2,2.1-5.6,5.2-5.6s5.2,2.4,5.2,5.6c0,3.2-2.1,5.6-5.2,5.6S410.1,541.6,410.1,538.4z M419,538.4
			c0-2.5-1.4-4.2-3.7-4.2c-2.3,0-3.7,1.8-3.7,4.2c0,2.5,1.4,4.3,3.7,4.3C417.6,542.6,419,540.8,419,538.4z"/>
		<path d="M433.3,541.1l1.3-0.6c0.4,1.1,1.5,2.1,3.1,2.1c1.5,0,2.4-0.7,2.4-1.9c0-2.9-6.2-1.1-6.2-4.9c0-1.9,1.5-3.1,3.7-3.1
			c1.7,0,3.1,0.7,3.9,2.3l-1.2,0.7c-0.5-1-1.4-1.6-2.7-1.6s-2.2,0.5-2.2,1.5c0,2.6,6.3,0.9,6.3,5.1c0,2.2-1.8,3.3-3.9,3.3
			C435.6,544,433.9,542.9,433.3,541.1z"/>
		<path d="M455.3,532.9v10.8h-1.5v-1.6c-0.8,1.2-2.2,1.7-3.6,1.7c-2.5,0-3.5-1.7-3.5-4.4v-6.6h1.5v6.3c0,1.8,0.3,3.4,2.4,3.4
			c2.2,0,3.2-1.9,3.2-4.7v-5L455.3,532.9L455.3,532.9z"/>
		<path d="M460.3,541.1l1.3-0.6c0.4,1.1,1.5,2.1,3.1,2.1c1.5,0,2.4-0.7,2.4-1.9c0-2.9-6.2-1.1-6.2-4.9c0-1.9,1.5-3.1,3.7-3.1
			c1.7,0,3.1,0.7,3.9,2.3l-1.2,0.7c-0.5-1-1.4-1.6-2.7-1.6c-1.3,0-2.2,0.5-2.2,1.5c0,2.6,6.3,0.9,6.3,5.1c0,2.2-1.8,3.3-3.9,3.3
			C462.6,544,460.9,542.9,460.3,541.1z"/>
		<path d="M478.7,543.7c-0.6,0.2-1.1,0.3-1.7,0.3c-1.5,0-2.5-0.8-2.5-2.7v-7h-1.8V533h1.8v-2.8l1.5-1.1v4h2.6v1.3H476v6.8
			c0,1.1,0.5,1.5,1.3,1.5c0.4,0,0.8-0.1,1.3-0.2L478.7,543.7z"/>
		<path d="M492,537v6.8h-1.4l-0.1-1.7c-0.9,1.2-2.2,1.8-3.9,1.8c-2.4,0-3.7-1.2-3.7-3.3c0-1.1,0.4-1.9,1.2-2.4
			c0.8-0.5,2-0.7,4.1-0.7h2.2V537c0-1.9-1-2.9-2.8-2.9c-1.4,0-2.4,0.6-3.3,1.8l-1.1-0.9c1.2-1.5,2.6-2.2,4.4-2.2
			C490.4,532.8,492,534.3,492,537z M490.5,538.9v-0.2h-2.1c-2,0-2.9,0.1-3.4,0.5c-0.4,0.3-0.6,0.8-0.6,1.4c0,1.2,1,2,2.7,2
			C489.2,542.7,490.5,541.2,490.5,538.9z"/>
		<path d="M497.7,528.4h1.8v2.2h-1.8V528.4z M497.8,532.9h1.5v10.8h-1.5V532.9z"/>
		<path d="M514,537.1v6.6h-1.5v-6.3c0-2.3-0.7-3.4-2.4-3.4c-2,0-3.2,1.8-3.2,4.8v4.9h-1.5v-10.8h1.5v1.6c0.7-1.1,2-1.8,3.6-1.8
			C512.8,532.8,514,534.3,514,537.1z"/>
		<path d="M528.1,537v6.8h-1.4l-0.1-1.7c-0.9,1.2-2.2,1.8-3.9,1.8c-2.4,0-3.7-1.2-3.7-3.3c0-1.1,0.4-1.9,1.2-2.4s2-0.7,4.1-0.7h2.2
			V537c0-1.9-1-2.9-2.8-2.9c-1.4,0-2.4,0.6-3.3,1.8l-1.1-0.9c1.2-1.5,2.6-2.2,4.4-2.2C526.5,532.8,528.1,534.3,528.1,537z
			 M526.6,538.9v-0.2h-2.1c-2,0-2.9,0.1-3.4,0.5c-0.4,0.3-0.6,0.8-0.6,1.4c0,1.2,1,2,2.7,2C525.3,542.7,526.6,541.2,526.6,538.9z"/>
		<path d="M543.9,538.4c0,3.2-1.7,5.6-4.8,5.6c-1.6,0-2.8-0.6-3.6-1.6v1.5H534v-15.3h1.5v5.9c0.8-1.1,2-1.7,3.6-1.7
			C542.1,532.7,543.9,535,543.9,538.4z M542.4,538.4c0-2.6-1.3-4.3-3.5-4.3s-3.5,1.7-3.5,4.3c0,2.5,1.2,4.3,3.5,4.3
			C541.2,542.6,542.4,540.8,542.4,538.4z"/>
		<path d="M549.1,528.4h1.8v2.2h-1.8V528.4z M549.2,532.9h1.5v10.8h-1.5V532.9z"/>
		<path d="M556.6,541.4v-13h1.5v12.9c0,0.7,0.3,1.2,1,1.2c0.3,0,0.7-0.1,1-0.2v1.3c-0.5,0.2-1,0.3-1.5,0.3
			C557.5,544,556.6,543.1,556.6,541.4z"/>
		<path d="M564.7,528.4h1.8v2.2h-1.8V528.4z M564.9,532.9h1.5v10.8h-1.5V532.9z"/>
		<path d="M577,543.7c-0.6,0.2-1.1,0.3-1.7,0.3c-1.5,0-2.5-0.8-2.5-2.7v-7H571V533h1.8v-2.8l1.5-1.1v4h2.6v1.3h-2.6v6.8
			c0,1.1,0.5,1.5,1.3,1.5c0.4,0,0.8-0.1,1.3-0.2L577,543.7z"/>
		<path d="M585.7,543.7l-4.6-10.7h1.7l3.7,8.9l3.3-8.9h1.7l-5.9,15.3H584L585.7,543.7z"/>
		<path d="M596.2,540.9h2l-2.9,6.2h-1L596.2,540.9z"/>
		<path d="M101.6,579.4v-13h1.5v12.9c0,0.7,0.3,1.2,1,1.2c0.3,0,0.7-0.1,1-0.2v1.3c-0.5,0.2-1,0.3-1.5,0.3
			C102.4,582,101.6,581.1,101.6,579.4z"/>
		<path d="M118.3,576.8h-7.9c0,2.4,1.4,3.8,3.5,3.8c1.2,0,2.1-0.3,3.1-1.4l1.1,0.9c-1.3,1.3-2.5,1.8-4.2,1.8c-3.3,0-5-2.5-5-5.5
			c0-3.1,1.7-5.7,4.8-5.7c3.3,0,4.7,2.6,4.7,5.1C118.4,576.1,118.4,576.5,118.3,576.8z M110.4,575.5h6.6c0,0,0-0.2,0-0.4
			c-0.1-1.8-1.2-3.1-3.2-3.1C111.7,572,110.5,573.6,110.4,575.5z"/>
		<path d="M131.8,575v6.8h-1.4l-0.1-1.7c-0.9,1.2-2.2,1.8-3.9,1.8c-2.4,0-3.7-1.2-3.7-3.3c0-1.1,0.4-1.9,1.2-2.4
			c0.8-0.5,2-0.7,4.1-0.7h2.2V575c0-1.9-1-2.9-2.8-2.9c-1.4,0-2.4,0.6-3.3,1.8L123,573c1.2-1.5,2.6-2.2,4.4-2.2
			C130.2,570.8,131.8,572.3,131.8,575z M130.3,576.9v-0.2h-2.1c-2,0-2.9,0.1-3.4,0.5c-0.4,0.3-0.6,0.8-0.6,1.4c0,1.2,1,2,2.7,2
			C128.9,580.7,130.3,579.2,130.3,576.9z"/>
		<path d="M146.8,566.4v15.3h-1.5v-1.5c-0.8,1-2,1.6-3.6,1.6c-3.2,0-4.8-2.4-4.8-5.6c0-3.4,1.8-5.6,4.8-5.6c1.5,0,2.8,0.6,3.6,1.7
			v-5.9H146.8z M145.4,576.4c0-2.6-1.3-4.3-3.5-4.3s-3.5,1.7-3.5,4.3c0,2.5,1.2,4.3,3.5,4.3C144.2,580.6,145.4,578.8,145.4,576.4z"
			/>
		<path d="M152.7,566.4h1.8v2.2h-1.8V566.4z M152.9,570.9h1.5v10.8h-1.5V570.9z"/>
		<path d="M169,575.1v6.6h-1.5v-6.3c0-2.3-0.7-3.4-2.4-3.4c-2,0-3.2,1.8-3.2,4.8v4.9h-1.5v-10.8h1.5v1.6c0.7-1.1,2-1.8,3.6-1.8
			C167.8,570.8,169,572.3,169,575.1z"/>
		<path d="M183.4,583.5c0,2-1.9,3-4.6,3c-3,0-4.8-1.2-4.8-3.3c0-0.2,0-0.4,0-0.5l1.8-1.5c-0.8-0.4-1.4-1-1.4-2.1
			c0-0.9,0.4-1.5,1.2-2.1c-0.6-0.7-0.9-1.5-0.9-2.5c0-2.2,1.8-3.8,4.1-3.8c1.1,0,2,0.3,2.7,0.9l1.5-1.3l0.8,1l-1.5,1.2
			c0.4,0.6,0.6,1.3,0.6,2c0,2.2-1.8,3.7-4.1,3.7c-0.8,0-1.6-0.2-2.2-0.5c-0.4,0.2-0.7,0.6-0.7,1.1c0,1.1,1.4,1.4,2.9,1.6
			C180.8,580.8,183.4,581.1,183.4,583.5z M181.9,583.6c0-1.3-1.7-1.5-3.5-1.8c-0.5-0.1-1-0.2-1.5-0.3l-1.5,1.4c0,0.1,0,0.2,0,0.2
			c0,1.5,1.6,2,3.4,2C180.7,585.2,181.9,584.6,181.9,583.6z M176,574.6c0,1.4,1,2.5,2.6,2.5s2.6-1.1,2.6-2.5c0-1.5-1-2.5-2.6-2.5
			C177.2,572,176,573.1,176,574.6z"/>
		<path d="M205.9,576.8H198c0,2.4,1.4,3.8,3.5,3.8c1.2,0,2.1-0.3,3.1-1.4l1.1,0.9c-1.3,1.3-2.5,1.8-4.2,1.8c-3.3,0-5-2.5-5-5.5
			c0-3.1,1.7-5.7,4.8-5.7c3.3,0,4.7,2.6,4.7,5.1C206,576.1,206,576.5,205.9,576.8z M198,575.5h6.6c0,0,0-0.2,0-0.4
			c-0.1-1.8-1.2-3.1-3.2-3.1C199.3,572,198.1,573.6,198,575.5z"/>
		<path d="M210.5,576.4c0-2.9,1.6-5.6,4.9-5.6c1.9,0,3.5,1,4.4,3l-1.5,0.6c-0.5-1.4-1.6-2.2-2.9-2.2c-2.3,0-3.3,2.1-3.3,4.3
			s1,4.2,3.4,4.2c1.4,0,2.4-0.8,2.9-2.2l1.4,0.5c-0.7,2-2.3,3-4.3,3C212.3,582,210.5,579.4,210.5,576.4z"/>
		<path d="M224,576.4c0-3.2,2.1-5.6,5.2-5.6c3.1,0,5.2,2.4,5.2,5.6c0,3.2-2.1,5.6-5.2,5.6S224,579.6,224,576.4z M232.9,576.4
			c0-2.5-1.4-4.2-3.7-4.2s-3.7,1.8-3.7,4.2c0,2.5,1.4,4.3,3.7,4.3C231.5,580.6,232.9,578.8,232.9,576.4z"/>
		<path d="M248.3,575.1v6.6h-1.5v-6.3c0-2.3-0.7-3.4-2.4-3.4c-2,0-3.2,1.8-3.2,4.8v4.9h-1.5v-10.8h1.5v1.6c0.7-1.1,2-1.8,3.6-1.8
			C247.1,570.8,248.3,572.3,248.3,575.1z"/>
		<path d="M253.4,576.4c0-3.2,2.1-5.6,5.2-5.6c3.1,0,5.2,2.4,5.2,5.6c0,3.2-2.1,5.6-5.2,5.6C255.5,582,253.4,579.6,253.4,576.4z
			 M262.3,576.4c0-2.5-1.4-4.2-3.7-4.2c-2.3,0-3.7,1.8-3.7,4.2c0,2.5,1.4,4.3,3.7,4.3C260.9,580.6,262.3,578.8,262.3,576.4z"/>
		<path d="M283.9,575v6.8h-1.5v-6.4c0-0.9,0-3.3-2.4-3.3c-2.2,0-2.8,2-2.8,4.5v5.2h-1.5v-6.3c0-1.8-0.5-3.4-2.4-3.4
			c-2.1,0-2.7,2-2.7,4.5v5.2h-1.5V571h1.5v1.3c0.7-1.1,1.8-1.5,3-1.5c1.5,0,2.6,0.7,3.2,2.1c0.7-1.4,1.9-2.1,3.6-2.1
			C282.9,570.8,283.9,572.5,283.9,575z"/>
		<path d="M289.7,566.4h1.8v2.2h-1.8V566.4z M289.8,570.9h1.5v10.8h-1.5V570.9z"/>
		<path d="M296.6,576.4c0-2.9,1.6-5.6,4.9-5.6c1.9,0,3.5,1,4.4,3l-1.5,0.6c-0.5-1.4-1.6-2.2-2.9-2.2c-2.3,0-3.3,2.1-3.3,4.3
			s1,4.2,3.4,4.2c1.4,0,2.4-0.8,2.9-2.2l1.4,0.5c-0.7,2-2.3,3-4.3,3C298.3,582,296.6,579.4,296.6,576.4z"/>
		<path d="M328,583.5c0,2-1.9,3-4.6,3c-3,0-4.8-1.2-4.8-3.3c0-0.2,0-0.4,0-0.5l1.8-1.5c-0.8-0.4-1.4-1-1.4-2.1
			c0-0.9,0.4-1.5,1.2-2.1c-0.6-0.7-0.9-1.5-0.9-2.5c0-2.2,1.8-3.8,4.1-3.8c1.1,0,2,0.3,2.7,0.9l1.5-1.3l0.8,1l-1.5,1.2
			c0.4,0.6,0.6,1.3,0.6,2c0,2.2-1.8,3.7-4.1,3.7c-0.8,0-1.6-0.2-2.2-0.5c-0.4,0.2-0.7,0.6-0.7,1.1c0,1.1,1.4,1.4,2.9,1.6
			C325.5,580.8,328,581.1,328,583.5z M326.5,583.6c0-1.3-1.7-1.5-3.5-1.8c-0.5-0.1-1-0.2-1.5-0.3l-1.5,1.4c0,0.1,0,0.2,0,0.2
			c0,1.5,1.6,2,3.4,2C325.4,585.2,326.5,584.6,326.5,583.6z M320.7,574.6c0,1.4,1,2.5,2.6,2.5s2.6-1.1,2.6-2.5c0-1.5-1-2.5-2.6-2.5
			C321.8,572,320.7,573.1,320.7,574.6z"/>
		<path d="M339.7,571.2l-0.7,1.2c-0.5-0.2-1-0.3-1.4-0.3c-1.7,0-2.9,1.3-2.9,3.6v6.1h-1.5V571h1.5v1.6c0.8-1.4,2.1-1.8,3.2-1.8
			C338.5,570.8,339.1,570.9,339.7,571.2z"/>
		<path d="M342.9,576.4c0-3.2,2.1-5.6,5.2-5.6s5.2,2.4,5.2,5.6c0,3.2-2.1,5.6-5.2,5.6S342.9,579.6,342.9,576.4z M351.8,576.4
			c0-2.5-1.4-4.2-3.7-4.2c-2.3,0-3.7,1.8-3.7,4.2c0,2.5,1.4,4.3,3.7,4.3C350.4,580.6,351.8,578.8,351.8,576.4z"/>
		<path d="M357,570.9h1.6l2.3,8.6l2.9-8.6h1.4l2.8,8.6l2.4-8.6h1.6l-3.2,10.8h-1.4l-2.9-8.8l-2.9,8.8h-1.4L357,570.9z"/>
		<path d="M382.1,581.7c-0.6,0.2-1.1,0.3-1.7,0.3c-1.5,0-2.5-0.8-2.5-2.7v-7h-1.8V571h1.8v-2.8l1.5-1.1v4h2.6v1.3h-2.6v6.8
			c0,1.1,0.5,1.5,1.3,1.5c0.4,0,0.8-0.1,1.3-0.2L382.1,581.7z"/>
		<path d="M395.6,575.1v6.6h-1.5v-6.3c0-2.4-0.7-3.4-2.4-3.4c-2.1,0-3.2,1.7-3.2,4.7v5H387v-15.3h1.5v6.1c0.7-1.1,2-1.8,3.6-1.8
			C394.4,570.8,395.6,572.3,395.6,575.1z"/>
		<path d="M418.3,575v6.8H417l-0.1-1.7c-0.9,1.2-2.2,1.8-3.9,1.8c-2.4,0-3.7-1.2-3.7-3.3c0-1.1,0.4-1.9,1.2-2.4
			c0.8-0.5,2-0.7,4.1-0.7h2.2V575c0-1.9-1-2.9-2.8-2.9c-1.4,0-2.4,0.6-3.3,1.8l-1.1-0.9c1.2-1.5,2.6-2.2,4.4-2.2
			C416.8,570.8,418.3,572.3,418.3,575z M416.8,576.9v-0.2h-2.1c-2,0-2.9,0.1-3.4,0.5c-0.4,0.3-0.6,0.8-0.6,1.4c0,1.2,1,2,2.7,2
			C415.5,580.7,416.8,579.2,416.8,576.9z"/>
		<path d="M432.8,575.1v6.6h-1.5v-6.3c0-2.3-0.7-3.4-2.4-3.4c-2,0-3.2,1.8-3.2,4.8v4.9h-1.5v-10.8h1.5v1.6c0.7-1.1,2-1.8,3.6-1.8
			C431.6,570.8,432.8,572.3,432.8,575.1z"/>
		<path d="M447.9,566.4v15.3h-1.5v-1.5c-0.8,1-2,1.6-3.6,1.6c-3.2,0-4.8-2.4-4.8-5.6c0-3.4,1.8-5.6,4.8-5.6c1.5,0,2.8,0.6,3.6,1.7
			v-5.9H447.9z M446.6,576.4c0-2.6-1.3-4.3-3.5-4.3s-3.5,1.7-3.5,4.3c0,2.5,1.2,4.3,3.5,4.3C445.3,580.6,446.6,578.8,446.6,576.4z"
			/>
		<path d="M462.7,566.4h1.8v2.2h-1.8V566.4z M462.9,570.9h1.5v10.8h-1.5V570.9z"/>
		<path d="M479,575.1v6.6h-1.5v-6.3c0-2.3-0.7-3.4-2.4-3.4c-2,0-3.2,1.8-3.2,4.8v4.9h-1.5v-10.8h1.5v1.6c0.7-1.1,2-1.8,3.6-1.8
			C477.8,570.8,479,572.3,479,575.1z"/>
		<path d="M493.6,575.1v6.6H492v-6.3c0-2.3-0.7-3.4-2.4-3.4c-2,0-3.2,1.8-3.2,4.8v4.9h-1.5v-10.8h1.5v1.6c0.7-1.1,2-1.8,3.6-1.8
			C492.4,570.8,493.6,572.3,493.6,575.1z"/>
		<path d="M498.7,576.4c0-3.2,2.1-5.6,5.2-5.6s5.2,2.4,5.2,5.6c0,3.2-2.1,5.6-5.2,5.6C500.8,582,498.7,579.6,498.7,576.4z
			 M507.6,576.4c0-2.5-1.4-4.2-3.7-4.2c-2.3,0-3.7,1.8-3.7,4.2c0,2.5,1.4,4.3,3.7,4.3C506.2,580.6,507.6,578.8,507.6,576.4z"/>
		<path d="M512.5,570.9h1.7l3.4,8.9l3.4-8.9h1.7l-4.4,10.8H517L512.5,570.9z"/>
		<path d="M535.4,575v6.8H534l-0.1-1.7c-0.9,1.2-2.2,1.8-3.9,1.8c-2.4,0-3.7-1.2-3.7-3.3c0-1.1,0.4-1.9,1.2-2.4s2-0.7,4.1-0.7h2.2
			V575c0-1.9-1-2.9-2.8-2.9c-1.4,0-2.4,0.6-3.3,1.8l-1.1-0.9c1.2-1.5,2.6-2.2,4.4-2.2C533.8,570.8,535.4,572.3,535.4,575z
			 M533.9,576.9v-0.2h-2.1c-2,0-2.9,0.1-3.4,0.5c-0.4,0.3-0.6,0.8-0.6,1.4c0,1.2,1,2,2.7,2C532.6,580.7,533.9,579.2,533.9,576.9z"/>
		<path d="M545.6,581.7c-0.6,0.2-1.1,0.3-1.7,0.3c-1.5,0-2.5-0.8-2.5-2.7v-7h-1.8V571h1.8v-2.8l1.5-1.1v4h2.6v1.3H543v6.8
			c0,1.1,0.5,1.5,1.3,1.5c0.4,0,0.8-0.1,1.3-0.2V581.7z"/>
		<path d="M550.4,566.4h1.8v2.2h-1.8V566.4z M550.5,570.9h1.5v10.8h-1.5V570.9z"/>
		<path d="M557.3,576.4c0-3.2,2.1-5.6,5.2-5.6c3.1,0,5.2,2.4,5.2,5.6c0,3.2-2.1,5.6-5.2,5.6C559.3,582,557.3,579.6,557.3,576.4z
			 M566.1,576.4c0-2.5-1.4-4.2-3.7-4.2s-3.7,1.8-3.7,4.2c0,2.5,1.4,4.3,3.7,4.3C564.8,580.6,566.1,578.8,566.1,576.4z"/>
		<path d="M581.6,575.1v6.6h-1.5v-6.3c0-2.3-0.7-3.4-2.4-3.4c-2,0-3.2,1.8-3.2,4.8v4.9H573v-10.8h1.5v1.6c0.7-1.1,2-1.8,3.6-1.8
			C580.4,570.8,581.6,572.3,581.6,575.1z"/>
		<path d="M101.6,604.4h1.8v2.2h-1.8V604.4z M101.7,608.9h1.5v10.8h-1.5V608.9z"/>
		<path d="M117.9,613.1v6.6h-1.5v-6.3c0-2.3-0.7-3.4-2.4-3.4c-2,0-3.2,1.8-3.2,4.8v4.9h-1.5v-10.8h1.5v1.6c0.7-1.1,2-1.8,3.6-1.8
			C116.6,608.8,117.9,610.3,117.9,613.1z"/>
		<path d="M141.2,613.1v6.6h-1.5v-6.3c0-2.4-0.7-3.4-2.4-3.4c-2.1,0-3.2,1.7-3.2,4.7v5h-1.5v-15.3h1.5v6.1c0.7-1.1,2-1.8,3.6-1.8
			C140,608.8,141.2,610.3,141.2,613.1z"/>
		<path d="M155.3,613v6.8h-1.4l-0.1-1.7c-0.9,1.2-2.2,1.8-3.9,1.8c-2.4,0-3.7-1.2-3.7-3.3c0-1.1,0.4-1.9,1.2-2.4s2-0.7,4.1-0.7h2.2
			V613c0-1.9-1-2.9-2.8-2.9c-1.4,0-2.4,0.6-3.3,1.8l-1.1-0.9c1.2-1.5,2.6-2.2,4.4-2.2C153.7,608.8,155.3,610.3,155.3,613z
			 M153.8,614.9v-0.2h-2.1c-2,0-2.9,0.1-3.4,0.5c-0.4,0.3-0.6,0.8-0.6,1.4c0,1.2,1,2,2.7,2C152.5,618.7,153.8,617.2,153.8,614.9z"/>
		<path d="M167.8,609.2l-0.7,1.2c-0.5-0.2-1-0.3-1.4-0.3c-1.7,0-2.9,1.3-2.9,3.6v6.1h-1.5V609h1.5v1.6c0.8-1.4,2.1-1.8,3.2-1.8
			C166.5,608.8,167.2,608.9,167.8,609.2z"/>
		<path d="M187.2,613v6.8h-1.5v-6.4c0-0.9,0-3.3-2.4-3.3c-2.2,0-2.8,2-2.8,4.5v5.2H179v-6.3c0-1.8-0.6-3.4-2.4-3.4
			c-2.1,0-2.7,2-2.7,4.5v5.2h-1.5V609h1.5v1.3c0.7-1.1,1.8-1.5,3-1.5c1.5,0,2.6,0.7,3.2,2.1c0.7-1.4,1.9-2.1,3.6-2.1
			C186.1,608.8,187.2,610.5,187.2,613z"/>
		<path d="M192.3,614.4c0-3.2,2.1-5.6,5.2-5.6c3.1,0,5.2,2.4,5.2,5.6c0,3.2-2.1,5.6-5.2,5.6C194.4,620,192.3,617.6,192.3,614.4z
			 M201.2,614.4c0-2.5-1.4-4.2-3.7-4.2s-3.7,1.8-3.7,4.2c0,2.5,1.4,4.3,3.7,4.3C199.8,618.6,201.2,616.8,201.2,614.4z"/>
		<path d="M216.6,613.1v6.6h-1.5v-6.3c0-2.3-0.7-3.4-2.4-3.4c-2,0-3.2,1.8-3.2,4.8v4.9H208v-10.8h1.5v1.6c0.7-1.1,2-1.8,3.6-1.8
			C215.4,608.8,216.6,610.3,216.6,613.1z"/>
		<path d="M225.2,619.7l-4.6-10.7h1.7l3.7,8.9l3.3-8.9h1.7l-5.9,15.3h-1.6L225.2,619.7z"/>
		<path d="M243,608.9h1.6l2.3,8.6l2.9-8.6h1.4l2.8,8.6l2.4-8.6h1.6l-3.2,10.8h-1.4l-2.9-8.8l-2.9,8.8h-1.4L243,608.9z"/>
		<path d="M262.7,604.4h1.8v2.2h-1.8V604.4z M262.8,608.9h1.5v10.8h-1.5V608.9z"/>
		<path d="M275,619.7c-0.6,0.2-1.1,0.3-1.7,0.3c-1.5,0-2.5-0.8-2.5-2.7v-7H269V609h1.8v-2.8l1.5-1.1v4h2.6v1.3h-2.6v6.8
			c0,1.1,0.5,1.5,1.3,1.5c0.4,0,0.8-0.1,1.3-0.2L275,619.7z"/>
		<path d="M288.5,613.1v6.6H287v-6.3c0-2.4-0.7-3.4-2.4-3.4c-2.1,0-3.2,1.7-3.2,4.7v5h-1.5v-15.3h1.5v6.1c0.7-1.1,2-1.8,3.6-1.8
			C287.3,608.8,288.5,610.3,288.5,613.1z"/>
		<path d="M313.1,614.4c0,3.2-1.7,5.6-4.8,5.6c-1.6,0-2.8-0.6-3.6-1.6v5.9h-1.5V609h1.5v1.5c0.8-1.1,2-1.7,3.6-1.7
			C311.3,608.7,313.1,611,313.1,614.4z M311.6,614.4c0-2.6-1.3-4.3-3.5-4.3s-3.5,1.7-3.5,4.3c0,2.5,1.2,4.3,3.5,4.3
			C310.4,618.6,311.6,616.8,311.6,614.4z"/>
		<path d="M318.4,617.4v-13h1.5v12.9c0,0.7,0.3,1.2,1,1.2c0.3,0,0.7-0.1,1-0.2v1.3c-0.5,0.2-1,0.3-1.5,0.3
			C319.2,620,318.4,619.1,318.4,617.4z"/>
		<path d="M335.1,613v6.8h-1.4l-0.1-1.7c-0.9,1.2-2.2,1.8-3.9,1.8c-2.4,0-3.7-1.2-3.7-3.3c0-1.1,0.4-1.9,1.2-2.4
			c0.8-0.5,2-0.7,4.1-0.7h2.2V613c0-1.9-1-2.9-2.8-2.9c-1.4,0-2.4,0.6-3.3,1.8l-1.1-0.9c1.2-1.5,2.6-2.2,4.4-2.2
			C333.5,608.8,335.1,610.3,335.1,613z M333.6,614.9v-0.2h-2.1c-2,0-2.9,0.1-3.4,0.5c-0.4,0.3-0.6,0.8-0.6,1.4c0,1.2,1,2,2.7,2
			C332.2,618.7,333.6,617.2,333.6,614.9z"/>
		<path d="M340.2,614.4c0-2.9,1.6-5.6,4.9-5.6c1.9,0,3.5,1,4.4,3l-1.5,0.6c-0.5-1.4-1.6-2.2-2.9-2.2c-2.3,0-3.3,2.1-3.3,4.3
			s1,4.2,3.4,4.2c1.4,0,2.4-0.8,2.9-2.2l1.4,0.5c-0.7,2-2.3,3-4.3,3C341.9,620,340.2,617.4,340.2,614.4z"/>
		<path d="M363.2,614.8h-7.9c0,2.4,1.4,3.8,3.5,3.8c1.2,0,2.1-0.3,3.1-1.4l1.1,0.9c-1.3,1.3-2.5,1.8-4.2,1.8c-3.3,0-5-2.5-5-5.5
			c0-3.1,1.7-5.7,4.8-5.7c3.3,0,4.7,2.6,4.7,5.1C363.2,614.1,363.2,614.5,363.2,614.8z M355.2,613.5h6.6c0,0,0-0.2,0-0.4
			c-0.1-1.8-1.2-3.1-3.2-3.1S355.3,611.6,355.2,613.5z"/>
		<path d="M367.4,617.1l1.3-0.6c0.4,1.1,1.5,2.1,3.1,2.1c1.5,0,2.4-0.7,2.4-1.9c0-2.9-6.2-1.1-6.2-4.9c0-1.9,1.5-3.1,3.7-3.1
			c1.7,0,3.1,0.7,3.9,2.3l-1.2,0.7c-0.5-1-1.4-1.6-2.7-1.6s-2.2,0.5-2.2,1.5c0,2.6,6.3,0.9,6.3,5.1c0,2.2-1.8,3.3-3.9,3.3
			C369.7,620,368,618.9,367.4,617.1z"/>
		<path d="M382.4,616.9h2l-2.9,6.2h-1L382.4,616.9z"/>
		<path d="M408.7,614.4c0,3.2-1.7,5.6-4.8,5.6c-1.6,0-2.8-0.6-3.6-1.6v5.9h-1.5V609h1.5v1.5c0.8-1.1,2-1.7,3.6-1.7
			C406.9,608.7,408.7,611,408.7,614.4z M407.2,614.4c0-2.6-1.3-4.3-3.5-4.3s-3.5,1.7-3.5,4.3c0,2.5,1.2,4.3,3.5,4.3
			C406,618.6,407.2,616.8,407.2,614.4z"/>
		<path d="M422.8,614.8h-7.9c0,2.4,1.4,3.8,3.5,3.8c1.2,0,2.1-0.3,3.1-1.4l1.1,0.9c-1.3,1.3-2.5,1.8-4.2,1.8c-3.3,0-5-2.5-5-5.5
			c0-3.1,1.7-5.7,4.8-5.7c3.3,0,4.7,2.6,4.7,5.1C422.9,614.1,422.9,614.5,422.8,614.8z M414.9,613.5h6.6c0,0,0-0.2,0-0.4
			c-0.1-1.8-1.2-3.1-3.2-3.1C416.2,610,415,611.6,414.9,613.5z"/>
		<path d="M427.4,614.4c0-3.2,2.1-5.6,5.2-5.6s5.2,2.4,5.2,5.6c0,3.2-2.1,5.6-5.2,5.6S427.4,617.6,427.4,614.4z M436.3,614.4
			c0-2.5-1.4-4.2-3.7-4.2c-2.3,0-3.7,1.8-3.7,4.2c0,2.5,1.4,4.3,3.7,4.3C434.9,618.6,436.3,616.8,436.3,614.4z"/>
		<path d="M453,614.4c0,3.2-1.7,5.6-4.8,5.6c-1.6,0-2.8-0.6-3.6-1.6v5.9h-1.5V609h1.5v1.5c0.8-1.1,2-1.7,3.6-1.7
			C451.2,608.7,453,611,453,614.4z M451.5,614.4c0-2.6-1.3-4.3-3.5-4.3s-3.5,1.7-3.5,4.3c0,2.5,1.2,4.3,3.5,4.3
			C450.3,618.6,451.5,616.8,451.5,614.4z"/>
		<path d="M458.3,617.4v-13h1.5v12.9c0,0.7,0.3,1.2,1,1.2c0.3,0,0.7-0.1,1-0.2v1.3c-0.5,0.2-1,0.3-1.5,0.3
			C459.1,620,458.3,619.1,458.3,617.4z"/>
		<path d="M475,614.8h-7.9c0,2.4,1.4,3.8,3.5,3.8c1.2,0,2.1-0.3,3.1-1.4l1.1,0.9c-1.3,1.3-2.5,1.8-4.2,1.8c-3.3,0-5-2.5-5-5.5
			c0-3.1,1.7-5.7,4.8-5.7c3.3,0,4.7,2.6,4.7,5.1C475.1,614.1,475,614.5,475,614.8z M467.1,613.5h6.6c0,0,0-0.2,0-0.4
			c-0.1-1.8-1.2-3.1-3.2-3.1C468.4,610,467.2,611.6,467.1,613.5z"/>
		<path d="M497.1,613v6.8h-1.4l-0.1-1.7c-0.9,1.2-2.2,1.8-3.9,1.8c-2.4,0-3.7-1.2-3.7-3.3c0-1.1,0.4-1.9,1.2-2.4
			c0.8-0.5,2-0.7,4.1-0.7h2.2V613c0-1.9-1-2.9-2.8-2.9c-1.4,0-2.4,0.6-3.3,1.8l-1.1-0.9c1.2-1.5,2.6-2.2,4.4-2.2
			C495.6,608.8,497.1,610.3,497.1,613z M495.6,614.9v-0.2h-2.1c-2,0-2.9,0.1-3.4,0.5c-0.4,0.3-0.6,0.8-0.6,1.4c0,1.2,1,2,2.7,2
			C494.3,618.7,495.6,617.2,495.6,614.9z"/>
		<path d="M511.6,613.1v6.6h-1.5v-6.3c0-2.3-0.7-3.4-2.4-3.4c-2,0-3.2,1.8-3.2,4.8v4.9H503v-10.8h1.5v1.6c0.7-1.1,2-1.8,3.6-1.8
			C510.4,608.8,511.6,610.3,511.6,613.1z"/>
		<path d="M526.7,604.4v15.3h-1.5v-1.5c-0.8,1-2,1.6-3.6,1.6c-3.2,0-4.8-2.4-4.8-5.6c0-3.4,1.8-5.6,4.8-5.6c1.5,0,2.8,0.6,3.6,1.7
			v-5.9H526.7z M525.3,614.4c0-2.6-1.3-4.3-3.5-4.3s-3.5,1.7-3.5,4.3c0,2.5,1.2,4.3,3.5,4.3C524.1,618.6,525.3,616.8,525.3,614.4z"
			/>
		<path d="M106.2,657.7c-0.6,0.2-1.1,0.3-1.7,0.3c-1.5,0-2.5-0.8-2.5-2.7v-7h-1.8V647h1.8v-2.8l1.5-1.1v4h2.6v1.3h-2.6v6.8
			c0,1.1,0.5,1.5,1.3,1.5c0.4,0,0.8-0.1,1.3-0.2L106.2,657.7z"/>
		<path d="M119.7,651.1v6.6h-1.5v-6.3c0-2.4-0.7-3.4-2.4-3.4c-2.1,0-3.2,1.7-3.2,4.7v5h-1.5v-15.3h1.5v6.1c0.7-1.1,2-1.8,3.6-1.8
			C118.5,646.8,119.7,648.3,119.7,651.1z"/>
		<path d="M134.3,652.8h-7.9c0,2.4,1.4,3.8,3.5,3.8c1.2,0,2.1-0.3,3.1-1.4l1.1,0.9c-1.3,1.3-2.5,1.8-4.2,1.8c-3.3,0-5-2.5-5-5.5
			c0-3.1,1.7-5.7,4.8-5.7c3.3,0,4.7,2.6,4.7,5.1C134.4,652.1,134.4,652.5,134.3,652.8z M126.4,651.5h6.6c0,0,0-0.2,0-0.4
			c-0.1-1.8-1.2-3.1-3.2-3.1C127.7,648,126.5,649.6,126.4,651.5z"/>
		<path d="M157,652.8h-8c0,2.4,1.4,3.8,3.5,3.8c1.2,0,2.1-0.3,3.1-1.4l1.1,0.9c-1.3,1.3-2.5,1.8-4.2,1.8c-3.3,0-5-2.5-5-5.5
			c0-3.1,1.7-5.7,4.8-5.7c3.3,0,4.7,2.6,4.7,5.1C157,652.1,157,652.5,157,652.8z M149,651.5h6.6c0,0,0-0.2,0-0.4
			c-0.1-1.8-1.2-3.1-3.2-3.1C150.4,648,149.1,649.6,149,651.5z"/>
		<path d="M170.9,651.1v6.6h-1.5v-6.3c0-2.3-0.7-3.4-2.4-3.4c-2,0-3.2,1.8-3.2,4.8v4.9h-1.5v-10.8h1.5v1.6c0.7-1.1,2-1.8,3.6-1.8
			C169.7,646.8,170.9,648.3,170.9,651.1z"/>
		<path d="M175,646.9h1.7l3.4,8.9l3.4-8.9h1.7l-4.4,10.8h-1.3L175,646.9z"/>
		<path d="M189.7,642.4h1.8v2.2h-1.8V642.4z M189.8,646.9h1.5v10.8h-1.5V646.9z"/>
		<path d="M203.9,647.2l-0.7,1.2c-0.5-0.2-1-0.3-1.4-0.3c-1.7,0-2.9,1.3-2.9,3.6v6.1h-1.5V647h1.5v1.6c0.8-1.4,2.1-1.8,3.2-1.8
			C202.7,646.8,203.3,646.9,203.9,647.2z"/>
		<path d="M207.1,652.4c0-3.2,2.1-5.6,5.2-5.6c3.1,0,5.2,2.4,5.2,5.6c0,3.2-2.1,5.6-5.2,5.6C209.2,658,207.1,655.6,207.1,652.4z
			 M216,652.4c0-2.5-1.4-4.2-3.7-4.2s-3.7,1.8-3.7,4.2c0,2.5,1.4,4.3,3.7,4.3C214.6,656.6,216,654.8,216,652.4z"/>
		<path d="M231.4,651.1v6.6h-1.5v-6.3c0-2.3-0.7-3.4-2.4-3.4c-2,0-3.2,1.8-3.2,4.8v4.9h-1.5v-10.8h1.5v1.6c0.7-1.1,2-1.8,3.6-1.8
			C230.2,646.8,231.4,648.3,231.4,651.1z"/>
		<path d="M252.2,651v6.8h-1.5v-6.4c0-0.9,0-3.3-2.4-3.3c-2.2,0-2.8,2-2.8,4.5v5.2H244v-6.3c0-1.8-0.6-3.4-2.4-3.4
			c-2.1,0-2.7,2-2.7,4.5v5.2h-1.5V647h1.5v1.3c0.7-1.1,1.8-1.5,3-1.5c1.5,0,2.6,0.7,3.2,2.1c0.7-1.4,1.9-2.1,3.6-2.1
			C251.1,646.8,252.2,648.5,252.2,651z"/>
		<path d="M266.8,652.8h-7.9c0,2.4,1.4,3.8,3.5,3.8c1.2,0,2.1-0.3,3.1-1.4l1.1,0.9c-1.3,1.3-2.5,1.8-4.2,1.8c-3.3,0-5-2.5-5-5.5
			c0-3.1,1.7-5.7,4.8-5.7c3.3,0,4.7,2.6,4.7,5.1C266.9,652.1,266.8,652.5,266.8,652.8z M258.9,651.5h6.6c0,0,0-0.2,0-0.4
			c-0.1-1.8-1.2-3.1-3.2-3.1C260.2,648,259,649.6,258.9,651.5z"/>
		<path d="M280.8,651.1v6.6h-1.5v-6.3c0-2.3-0.7-3.4-2.4-3.4c-2,0-3.2,1.8-3.2,4.8v4.9h-1.5v-10.8h1.5v1.6c0.7-1.1,2-1.8,3.6-1.8
			C279.6,646.8,280.8,648.3,280.8,651.1z"/>
		<path d="M291.1,657.7c-0.6,0.2-1.1,0.3-1.7,0.3c-1.5,0-2.5-0.8-2.5-2.7v-7h-1.8V647h1.8v-2.8l1.5-1.1v4h2.6v1.3h-2.6v6.8
			c0,1.1,0.5,1.5,1.3,1.5c0.4,0,0.8-0.1,1.3-0.2L291.1,657.7z"/>
		<path d="M296.7,655.4h2v2.4h-2V655.4z"/>
		<path d="M314.9,642.4h1.6v15.3h-1.6V642.4z"/>
		<path d="M327.6,657.7c-0.6,0.2-1.1,0.3-1.7,0.3c-1.5,0-2.5-0.8-2.5-2.7v-7h-1.8V647h1.8v-2.8l1.5-1.1v4h2.6v1.3H325v6.8
			c0,1.1,0.5,1.5,1.3,1.5c0.4,0,0.8-0.1,1.3-0.2L327.6,657.7z"/>
		<path d="M349.5,651v6.8h-1.4l-0.1-1.7c-0.9,1.2-2.2,1.8-3.9,1.8c-2.4,0-3.7-1.2-3.7-3.3c0-1.1,0.4-1.9,1.2-2.4
			c0.8-0.5,2-0.7,4.1-0.7h2.2V651c0-1.9-1-2.9-2.8-2.9c-1.4,0-2.4,0.6-3.3,1.8l-1.1-0.9c1.2-1.5,2.6-2.2,4.4-2.2
			C347.9,646.8,349.5,648.3,349.5,651z M348,652.9v-0.2h-2.1c-2,0-2.9,0.1-3.4,0.5c-0.4,0.3-0.6,0.8-0.6,1.4c0,1.2,1,2,2.7,2
			C346.7,656.7,348,655.2,348,652.9z"/>
		<path d="M355.3,655.4v-13h1.5v12.9c0,0.7,0.3,1.2,1,1.2c0.3,0,0.7-0.1,1-0.2v1.3c-0.5,0.2-1,0.3-1.5,0.3
			C356.1,658,355.3,657.1,355.3,655.4z"/>
		<path d="M362.7,655.1l1.3-0.6c0.4,1.1,1.5,2.1,3.1,2.1c1.5,0,2.4-0.7,2.4-1.9c0-2.9-6.2-1.1-6.2-4.9c0-1.9,1.5-3.1,3.7-3.1
			c1.7,0,3.1,0.7,3.9,2.3l-1.2,0.7c-0.5-1-1.4-1.6-2.7-1.6s-2.2,0.5-2.2,1.5c0,2.6,6.3,0.9,6.3,5.1c0,2.2-1.8,3.3-3.9,3.3
			C365,658,363.2,656.9,362.7,655.1z"/>
		<path d="M375.4,652.4c0-3.2,2.1-5.6,5.2-5.6s5.2,2.4,5.2,5.6c0,3.2-2.1,5.6-5.2,5.6S375.4,655.6,375.4,652.4z M384.3,652.4
			c0-2.5-1.4-4.2-3.7-4.2c-2.3,0-3.7,1.8-3.7,4.2c0,2.5,1.4,4.3,3.7,4.3C383,656.6,384.3,654.8,384.3,652.4z"/>
		<path d="M407.9,651v6.8h-1.4l-0.1-1.7c-0.9,1.2-2.2,1.8-3.9,1.8c-2.4,0-3.7-1.2-3.7-3.3c0-1.1,0.4-1.9,1.2-2.4
			c0.8-0.5,2-0.7,4.1-0.7h2.2V651c0-1.9-1-2.9-2.8-2.9c-1.4,0-2.4,0.6-3.3,1.8l-1.1-0.9c1.2-1.5,2.6-2.2,4.4-2.2
			C406.3,646.8,407.9,648.3,407.9,651z M406.4,652.9v-0.2h-2.1c-2,0-2.9,0.1-3.4,0.5c-0.4,0.3-0.6,0.8-0.6,1.4c0,1.2,1,2,2.7,2
			C405.1,656.7,406.4,655.2,406.4,652.9z"/>
		<path d="M413.6,642.4h1.8v2.2h-1.8V642.4z M413.7,646.9h1.5v10.8h-1.5V646.9z"/>
		<path d="M436.1,651v6.8h-1.5v-6.4c0-0.9,0-3.3-2.4-3.3c-2.2,0-2.8,2-2.8,4.5v5.2h-1.5v-6.3c0-1.8-0.6-3.4-2.4-3.4
			c-2.1,0-2.7,2-2.7,4.5v5.2h-1.5V647h1.5v1.3c0.7-1.1,1.8-1.5,3-1.5c1.5,0,2.6,0.7,3.2,2.1c0.7-1.4,1.9-2.1,3.6-2.1
			C435,646.8,436.1,648.5,436.1,651z"/>
		<path d="M441,655.1l1.3-0.6c0.4,1.1,1.5,2.1,3.1,2.1c1.5,0,2.4-0.7,2.4-1.9c0-2.9-6.2-1.1-6.2-4.9c0-1.9,1.5-3.1,3.7-3.1
			c1.7,0,3.1,0.7,3.9,2.3l-1.2,0.7c-0.5-1-1.4-1.6-2.7-1.6s-2.2,0.5-2.2,1.5c0,2.6,6.3,0.9,6.3,5.1c0,2.2-1.8,3.3-3.9,3.3
			C443.3,658,441.5,656.9,441,655.1z"/>
		<path d="M471.4,651v6.8H470l-0.1-1.7c-0.9,1.2-2.2,1.8-3.9,1.8c-2.4,0-3.7-1.2-3.7-3.3c0-1.1,0.4-1.9,1.2-2.4
			c0.8-0.5,2-0.7,4.1-0.7h2.2V651c0-1.9-1-2.9-2.8-2.9c-1.4,0-2.4,0.6-3.3,1.8l-1.1-0.9c1.2-1.5,2.6-2.2,4.4-2.2
			C469.8,646.8,471.4,648.3,471.4,651z M469.9,652.9v-0.2h-2.1c-2,0-2.9,0.1-3.4,0.5c-0.4,0.3-0.6,0.8-0.6,1.4c0,1.2,1,2,2.7,2
			C468.5,656.7,469.9,655.2,469.9,652.9z"/>
		<path d="M481.6,657.7c-0.6,0.2-1.1,0.3-1.7,0.3c-1.5,0-2.5-0.8-2.5-2.7v-7h-1.8V647h1.8v-2.8l1.5-1.1v4h2.6v1.3H479v6.8
			c0,1.1,0.5,1.5,1.3,1.5c0.4,0,0.8-0.1,1.3-0.2L481.6,657.7z"/>
		<path d="M494.5,652.4c0-2.9,1.6-5.6,4.9-5.6c1.9,0,3.5,1,4.4,3l-1.5,0.6c-0.5-1.4-1.6-2.2-2.9-2.2c-2.3,0-3.3,2.1-3.3,4.3
			s1,4.2,3.4,4.2c1.4,0,2.4-0.8,2.9-2.2l1.4,0.5c-0.7,2-2.3,3-4.3,3C496.3,658,494.5,655.4,494.5,652.4z"/>
		<path d="M508,652.4c0-3.2,2.1-5.6,5.2-5.6c3.1,0,5.2,2.4,5.2,5.6c0,3.2-2.1,5.6-5.2,5.6C510.1,658,508,655.6,508,652.4z
			 M516.9,652.4c0-2.5-1.4-4.2-3.7-4.2s-3.7,1.8-3.7,4.2c0,2.5,1.4,4.3,3.7,4.3C515.5,656.6,516.9,654.8,516.9,652.4z"/>
		<path d="M532.3,651.1v6.6h-1.5v-6.3c0-2.3-0.7-3.4-2.4-3.4c-2,0-3.2,1.8-3.2,4.8v4.9h-1.5v-10.8h1.5v1.6c0.7-1.1,2-1.8,3.6-1.8
			C531.1,646.8,532.3,648.3,532.3,651.1z"/>
		<path d="M542.6,657.7c-0.6,0.2-1.1,0.3-1.7,0.3c-1.5,0-2.5-0.8-2.5-2.7v-7h-1.8V647h1.8v-2.8l1.5-1.1v4h2.6v1.3H540v6.8
			c0,1.1,0.5,1.5,1.3,1.5c0.4,0,0.8-0.1,1.3-0.2V657.7z"/>
		<path d="M554.1,647.2l-0.7,1.2c-0.5-0.2-1-0.3-1.4-0.3c-1.7,0-2.9,1.3-2.9,3.6v6.1h-1.5V647h1.5v1.6c0.8-1.4,2.1-1.8,3.2-1.8
			C552.9,646.8,553.5,646.9,554.1,647.2z"/>
		<path d="M558.5,642.4h1.8v2.2h-1.8V642.4z M558.7,646.9h1.5v10.8h-1.5V646.9z"/>
		<path d="M576.1,652.4c0,3.2-1.7,5.6-4.8,5.6c-1.6,0-2.8-0.6-3.6-1.6v1.5h-1.5v-15.3h1.5v5.9c0.8-1.1,2-1.7,3.6-1.7
			C574.3,646.7,576.1,649,576.1,652.4z M574.6,652.4c0-2.6-1.3-4.3-3.5-4.3s-3.5,1.7-3.5,4.3c0,2.5,1.2,4.3,3.5,4.3
			C573.4,656.6,574.6,654.8,574.6,652.4z"/>
		<path d="M589.9,646.9v10.8h-1.5v-1.6c-0.8,1.2-2.2,1.7-3.6,1.7c-2.5,0-3.5-1.7-3.5-4.4v-6.6h1.5v6.3c0,1.8,0.3,3.4,2.4,3.4
			c2.2,0,3.2-1.9,3.2-4.7v-5L589.9,646.9L589.9,646.9z"/>
		<path d="M600.6,657.7c-0.6,0.2-1.1,0.3-1.7,0.3c-1.5,0-2.5-0.8-2.5-2.7v-7h-1.8V647h1.8v-2.8l1.5-1.1v4h2.6v1.3H598v6.8
			c0,1.1,0.5,1.5,1.3,1.5c0.4,0,0.8-0.1,1.3-0.2V657.7z"/>
		<path d="M605.3,642.4h1.8v2.2h-1.8V642.4z M605.5,646.9h1.5v10.8h-1.5V646.9z"/>
		<path d="M621.6,651.1v6.6h-1.5v-6.3c0-2.3-0.7-3.4-2.4-3.4c-2,0-3.2,1.8-3.2,4.8v4.9H613v-10.8h1.5v1.6c0.7-1.1,2-1.8,3.6-1.8
			C620.4,646.8,621.6,648.3,621.6,651.1z"/>
		<path d="M636,659.5c0,2-1.9,3-4.6,3c-3,0-4.8-1.2-4.8-3.3c0-0.2,0-0.4,0-0.5l1.8-1.5c-0.8-0.4-1.4-1-1.4-2.1
			c0-0.9,0.4-1.5,1.2-2.1c-0.6-0.7-0.9-1.5-0.9-2.5c0-2.2,1.8-3.8,4.1-3.8c1.1,0,2,0.3,2.7,0.9l1.5-1.3l0.8,1l-1.5,1.2
			c0.4,0.6,0.6,1.3,0.6,2c0,2.2-1.8,3.7-4.1,3.7c-0.8,0-1.6-0.2-2.2-0.5c-0.4,0.2-0.7,0.6-0.7,1.1c0,1.1,1.4,1.4,2.9,1.6
			C633.5,656.8,636,657.1,636,659.5z M634.5,659.6c0-1.3-1.7-1.5-3.5-1.8c-0.5-0.1-1-0.2-1.5-0.3l-1.5,1.4c0,0.1,0,0.2,0,0.2
			c0,1.5,1.6,2,3.4,2C633.4,661.2,634.5,660.6,634.5,659.6z M628.7,650.6c0,1.4,1,2.5,2.6,2.5s2.6-1.1,2.6-2.5c0-1.5-1-2.5-2.6-2.5
			C629.8,648,628.7,649.1,628.7,650.6z"/>
		<path d="M106.2,695.7c-0.6,0.2-1.1,0.3-1.7,0.3c-1.5,0-2.5-0.8-2.5-2.7v-7h-1.8V685h1.8v-2.8l1.5-1.1v4h2.6v1.3h-2.6v6.8
			c0,1.1,0.5,1.5,1.3,1.5c0.4,0,0.8-0.1,1.3-0.2L106.2,695.7z"/>
		<path d="M110,690.4c0-3.2,2.1-5.6,5.2-5.6s5.2,2.4,5.2,5.6c0,3.2-2.1,5.6-5.2,5.6S110,693.6,110,690.4z M118.9,690.4
			c0-2.5-1.4-4.2-3.7-4.2c-2.3,0-3.7,1.8-3.7,4.2c0,2.5,1.4,4.3,3.7,4.3C117.5,694.6,118.9,692.8,118.9,690.4z"/>
		<path d="M133.5,690.4c0-2.9,1.6-5.6,4.9-5.6c1.9,0,3.5,1,4.4,3l-1.5,0.6c-0.5-1.4-1.6-2.2-2.9-2.2c-2.3,0-3.3,2.1-3.3,4.3
			s1,4.2,3.4,4.2c1.4,0,2.4-0.8,2.9-2.2l1.4,0.5c-0.7,2-2.3,3-4.3,3C135.3,696,133.5,693.4,133.5,690.4z"/>
		<path d="M147,690.4c0-3.2,2.1-5.6,5.2-5.6c3.1,0,5.2,2.4,5.2,5.6c0,3.2-2.1,5.6-5.2,5.6S147,693.6,147,690.4z M155.9,690.4
			c0-2.5-1.4-4.2-3.7-4.2s-3.7,1.8-3.7,4.2c0,2.5,1.4,4.3,3.7,4.3C154.5,694.6,155.9,692.8,155.9,690.4z"/>
		<path d="M171.3,689.1v6.6h-1.5v-6.3c0-2.3-0.7-3.4-2.4-3.4c-2,0-3.2,1.8-3.2,4.8v4.9h-1.5v-10.8h1.5v1.6c0.7-1.1,2-1.8,3.6-1.8
			C170.1,684.8,171.3,686.3,171.3,689.1z"/>
		<path d="M181.6,695.7c-0.6,0.2-1.1,0.3-1.7,0.3c-1.5,0-2.5-0.8-2.5-2.7v-7h-1.8V685h1.8v-2.8l1.5-1.1v4h2.6v1.3H179v6.8
			c0,1.1,0.5,1.5,1.3,1.5c0.4,0,0.8-0.1,1.3-0.2V695.7z"/>
		<path d="M195,690.8h-8c0,2.4,1.4,3.8,3.5,3.8c1.2,0,2.1-0.3,3.1-1.4l1.1,0.9c-1.3,1.3-2.5,1.8-4.2,1.8c-3.3,0-5-2.5-5-5.5
			c0-3.1,1.7-5.7,4.8-5.7c3.3,0,4.7,2.6,4.7,5.1C195,690.1,195,690.5,195,690.8z M187,689.5h6.6c0,0,0-0.2,0-0.4
			c-0.1-1.8-1.2-3.1-3.2-3.1C188.4,686,187.1,687.6,187,689.5z"/>
		<path d="M215.2,689v6.8h-1.5v-6.4c0-0.9,0-3.3-2.4-3.3c-2.2,0-2.8,2-2.8,4.5v5.2H207v-6.3c0-1.8-0.5-3.4-2.4-3.4
			c-2.1,0-2.7,2-2.7,4.5v5.2h-1.5V685h1.5v1.3c0.7-1.1,1.8-1.5,3-1.5c1.5,0,2.6,0.7,3.2,2.1c0.7-1.4,1.9-2.1,3.6-2.1
			C214.1,684.8,215.2,686.5,215.2,689z"/>
		<path d="M231,690.4c0,3.2-1.7,5.6-4.8,5.6c-1.6,0-2.8-0.6-3.6-1.6v5.9h-1.5V685h1.5v1.5c0.8-1.1,2-1.7,3.6-1.7
			C229.2,684.7,231,687,231,690.4z M229.5,690.4c0-2.6-1.3-4.3-3.5-4.3s-3.5,1.7-3.5,4.3c0,2.5,1.2,4.3,3.5,4.3
			C228.3,694.6,229.5,692.8,229.5,690.4z"/>
		<path d="M235.6,690.4c0-3.2,2.1-5.6,5.2-5.6c3.1,0,5.2,2.4,5.2,5.6c0,3.2-2.1,5.6-5.2,5.6C237.7,696,235.6,693.6,235.6,690.4z
			 M244.5,690.4c0-2.5-1.4-4.2-3.7-4.2s-3.7,1.8-3.7,4.2c0,2.5,1.4,4.3,3.7,4.3C243.1,694.6,244.5,692.8,244.5,690.4z"/>
		<path d="M257.9,685.2l-0.7,1.2c-0.5-0.2-1-0.3-1.4-0.3c-1.7,0-2.9,1.3-2.9,3.6v6.1h-1.5V685h1.5v1.6c0.8-1.4,2.1-1.8,3.2-1.8
			C256.7,684.8,257.3,684.9,257.9,685.2z"/>
		<path d="M270.4,689v6.8H269l-0.1-1.7c-0.9,1.2-2.2,1.8-3.9,1.8c-2.4,0-3.7-1.2-3.7-3.3c0-1.1,0.4-1.9,1.2-2.4
			c0.8-0.5,2-0.7,4.1-0.7h2.2V689c0-1.9-1-2.9-2.8-2.9c-1.4,0-2.4,0.6-3.3,1.8l-1.1-0.9c1.2-1.5,2.6-2.2,4.4-2.2
			C268.8,684.8,270.4,686.3,270.4,689z M268.9,690.9v-0.2h-2.1c-2,0-2.9,0.1-3.4,0.5c-0.4,0.3-0.6,0.8-0.6,1.4c0,1.2,1,2,2.7,2
			C267.6,694.7,268.9,693.2,268.9,690.9z"/>
		<path d="M282.9,685.2l-0.7,1.2c-0.5-0.2-1-0.3-1.4-0.3c-1.7,0-2.9,1.3-2.9,3.6v6.1h-1.5V685h1.5v1.6c0.8-1.4,2.1-1.8,3.2-1.8
			C281.6,684.8,282.3,684.9,282.9,685.2z"/>
		<path d="M291.2,695.7l-4.6-10.7h1.7l3.7,8.9l3.3-8.9h1.7l-5.9,15.3h-1.6L291.2,695.7z"/>
		<path d="M309.5,690.4c0-2.9,1.6-5.6,4.9-5.6c1.9,0,3.5,1,4.4,3l-1.5,0.6c-0.5-1.4-1.6-2.2-2.9-2.2c-2.3,0-3.3,2.1-3.3,4.3
			s1,4.2,3.4,4.2c1.4,0,2.4-0.8,2.9-2.2l1.4,0.5c-0.7,2-2.3,3-4.3,3C311.2,696,309.5,693.4,309.5,690.4z"/>
		<path d="M332.2,684.9v10.8h-1.5v-1.6c-0.8,1.2-2.2,1.7-3.6,1.7c-2.5,0-3.5-1.7-3.5-4.4v-6.6h1.5v6.3c0,1.8,0.3,3.4,2.4,3.4
			c2.2,0,3.2-1.9,3.2-4.7v-5L332.2,684.9L332.2,684.9z"/>
		<path d="M338.2,693.4v-13h1.5v12.9c0,0.7,0.3,1.2,1,1.2c0.3,0,0.7-0.1,1-0.2v1.3c-0.5,0.2-1,0.3-1.5,0.3
			C339,696,338.2,695.1,338.2,693.4z"/>
		<path d="M350.7,695.7c-0.6,0.2-1.1,0.3-1.7,0.3c-1.5,0-2.5-0.8-2.5-2.7v-7h-1.8V685h1.8v-2.8l1.5-1.1v4h2.6v1.3H348v6.8
			c0,1.1,0.5,1.5,1.3,1.5c0.4,0,0.8-0.1,1.3-0.2L350.7,695.7z"/>
		<path d="M364,684.9v10.8h-1.5v-1.6c-0.8,1.2-2.2,1.7-3.6,1.7c-2.5,0-3.5-1.7-3.5-4.4v-6.6h1.5v6.3c0,1.8,0.3,3.4,2.4,3.4
			c2.2,0,3.2-1.9,3.2-4.7v-5L364,684.9L364,684.9z"/>
		<path d="M376.6,685.2l-0.7,1.2c-0.5-0.2-1-0.3-1.4-0.3c-1.7,0-2.9,1.3-2.9,3.6v6.1H370V685h1.5v1.6c0.8-1.4,2.1-1.8,3.2-1.8
			C375.4,684.8,376.1,684.9,376.6,685.2z"/>
		<path d="M389.2,689v6.8h-1.4l-0.1-1.7c-0.9,1.2-2.2,1.8-3.9,1.8c-2.4,0-3.7-1.2-3.7-3.3c0-1.1,0.4-1.9,1.2-2.4
			c0.8-0.5,2-0.7,4.1-0.7h2.2V689c0-1.9-1-2.9-2.8-2.9c-1.4,0-2.4,0.6-3.3,1.8l-1.1-0.9c1.2-1.5,2.6-2.2,4.4-2.2
			C387.6,684.8,389.2,686.3,389.2,689z M387.7,690.9v-0.2h-2.1c-2,0-2.9,0.1-3.4,0.5c-0.4,0.3-0.6,0.8-0.6,1.4c0,1.2,1,2,2.7,2
			C386.3,694.7,387.7,693.2,387.7,690.9z"/>
		<path d="M395,693.4v-13h1.5v12.9c0,0.7,0.3,1.2,1,1.2c0.3,0,0.7-0.1,1-0.2v1.3c-0.5,0.2-1,0.3-1.5,0.3
			C395.8,696,395,695.1,395,693.4z"/>
		<path d="M421,680.4v15.3h-1.5v-1.5c-0.8,1-2,1.6-3.6,1.6c-3.2,0-4.8-2.4-4.8-5.6c0-3.4,1.8-5.6,4.8-5.6c1.5,0,2.8,0.6,3.6,1.7
			v-5.9H421z M419.6,690.4c0-2.6-1.3-4.3-3.5-4.3s-3.5,1.7-3.5,4.3c0,2.5,1.2,4.3,3.5,4.3C418.4,694.6,419.6,692.8,419.6,690.4z"/>
		<path d="M435.8,690.8h-7.9c0,2.4,1.4,3.8,3.5,3.8c1.2,0,2.1-0.3,3.1-1.4l1.1,0.9c-1.3,1.3-2.5,1.8-4.2,1.8c-3.3,0-5-2.5-5-5.5
			c0-3.1,1.7-5.7,4.8-5.7c3.3,0,4.7,2.6,4.7,5.1C435.9,690.1,435.8,690.5,435.8,690.8z M427.8,689.5h6.6c0,0,0-0.2,0-0.4
			c-0.1-1.8-1.2-3.1-3.2-3.1C429.2,686,428,687.6,427.8,689.5z"/>
		<path d="M451,690.4c0,3.2-1.7,5.6-4.8,5.6c-1.6,0-2.8-0.6-3.6-1.6v1.5h-1.5v-15.3h1.5v5.9c0.8-1.1,2-1.7,3.6-1.7
			C449.2,684.7,451,687,451,690.4z M449.5,690.4c0-2.6-1.3-4.3-3.5-4.3s-3.5,1.7-3.5,4.3c0,2.5,1.2,4.3,3.5,4.3
			C448.3,694.6,449.5,692.8,449.5,690.4z"/>
		<path d="M464.6,689v6.8h-1.4l-0.1-1.7c-0.9,1.2-2.2,1.8-3.9,1.8c-2.4,0-3.7-1.2-3.7-3.3c0-1.1,0.4-1.9,1.2-2.4
			c0.8-0.5,2-0.7,4.1-0.7h2.2V689c0-1.9-1-2.9-2.8-2.9c-1.4,0-2.4,0.6-3.3,1.8l-1.1-0.9c1.2-1.5,2.6-2.2,4.4-2.2
			C463,684.8,464.6,686.3,464.6,689z M463.1,690.9v-0.2H461c-2,0-2.9,0.1-3.4,0.5c-0.4,0.3-0.6,0.8-0.6,1.4c0,1.2,1,2,2.7,2
			C461.8,694.7,463.1,693.2,463.1,690.9z"/>
		<path d="M474.8,695.7c-0.6,0.2-1.1,0.3-1.7,0.3c-1.5,0-2.5-0.8-2.5-2.7v-7h-1.8V685h1.8v-2.8l1.5-1.1v4h2.6v1.3h-2.6v6.8
			c0,1.1,0.5,1.5,1.3,1.5c0.4,0,0.8-0.1,1.3-0.2L474.8,695.7z"/>
		<path d="M488.2,690.8h-7.9c0,2.4,1.4,3.8,3.5,3.8c1.2,0,2.1-0.3,3.1-1.4l1.1,0.9c-1.3,1.3-2.5,1.8-4.2,1.8c-3.3,0-5-2.5-5-5.5
			c0-3.1,1.7-5.7,4.8-5.7c3.3,0,4.7,2.6,4.7,5.1C488.3,690.1,488.2,690.5,488.2,690.8z M480.2,689.5h6.6c0,0,0-0.2,0-0.4
			c-0.1-1.8-1.2-3.1-3.2-3.1S480.4,687.6,480.2,689.5z"/>
		<path d="M493.8,693.4h2v2.4h-2V693.4z"/>
	</g>
</g>
</svg>
