<?xml version="1.0" encoding="utf-8"?>
<!-- Generator: Adobe Illustrator 26.5.0, SVG Export Plug-In . SVG Version: 6.00 Build 0)  -->
<svg version="1.1" id="Livello_1" xmlns="http://www.w3.org/2000/svg" xmlns:xlink="http://www.w3.org/1999/xlink" x="0px" y="0px"
	 viewBox="0 0 750 855" style="enable-background:new 0 0 750 855;" xml:space="preserve">
<style type="text/css">
	.st0{clip-path:url(#SVGID_00000180365761749908848860000015065585657446190245_);}
	.st1{clip-path:url(#SVGID_00000018213519040059878660000014404065337722156704_);}
	.st2{fill:#C1E0D9;}
	.st3{clip-path:url(#SVGID_00000139259174768980963370000001410347006551063945_);}
	.st4{fill:#4DC4A4;}
</style>
<g>
	<g>
		<defs>
			<rect id="SVGID_1_" x="154.2" width="439.3" height="439.3"/>
		</defs>
		<clipPath id="SVGID_00000118376187403011459020000004994575128062439592_">
			<use xlink:href="#SVGID_1_"  style="overflow:visible;"/>
		</clipPath>
		<g style="clip-path:url(#SVGID_00000118376187403011459020000004994575128062439592_);">
			<path d="M236.1,113.2c0-0.1,0-0.1,0-0.2c0-0.2,0,0.1,0-0.1c0-0.1,0-0.3,0-0.4c0-0.3-0.1-0.6-0.1-0.9c0-0.7-0.1-1.4-0.2-2
				c0-0.3-0.3-0.6-0.6-0.6s-0.6,0.3-0.6,0.6c0.2,1.3,0.2,2.7,0.4,4c0.1,0.3,0.5,0.5,0.8,0.4C236,113.8,236.1,113.5,236.1,113.2
				L236.1,113.2z"/>
			<path d="M237.8,145.8c-1.6,2.7-3.2,5.4-5,7.9c-0.3,0.5-0.6,1-1,1.4s-0.8,0.3-1.1-0.1c-0.5-0.6-0.6-1.5-0.7-2.3
				c-0.2-2.4,0.6-4.7,1.5-6.9c1.1-2.6,2.5-5,3.6-7.6c0.5-1.2,1.1-2.5,1.3-3.8s0.3-2.7,0.4-4c0.1-0.8-1.2-0.8-1.2,0
				c-0.1,1.2-0.1,2.5-0.4,3.7c-0.2,1.2-0.7,2.5-1.2,3.6c-1.2,2.7-2.7,5.4-3.8,8.1c-0.9,2.3-1.6,4.7-1.4,7.1c0.1,1,0.3,2.1,1,2.8
				c0.4,0.4,0.9,0.7,1.4,0.7c0.8,0,1.4-0.6,1.8-1.1c2.2-2.8,4-5.9,5.8-9C239.3,145.8,238.2,145.1,237.8,145.8L237.8,145.8z"/>
			<path d="M150.3,59.7c9.3,6.7,17.6,15.1,23.7,24.9c0.8,1.4,1.8,2.8,2.4,4.3c0.6,1.4,1.1,2.8,1.7,4.2c1.1,2.5,2.4,5,3.8,7.3
				c2.5,4.1,5.5,7.8,9.1,10.9c3.3,2.9,7,5.2,11,7.1c2,0.9,3.9,1.9,5.8,3.1c2.2,1.4,4.4,3,6.5,4.5c2,1.4,4.1,2.8,6.2,4.1
				c2.7,1.7,5.4,3.4,7.7,5.6c0.9,0.8,2,2.2,3.4,1.5c1-0.6,1.5-1.9,1.9-3c0.8-2.4,0.6-5.2-0.3-7.6c-1.6-4.4-5-7.8-8.9-10.3
				c-2.2-1.3-4.3-2.6-5.9-4.7c-1.6-2.2-2.7-4.7-3.7-7.1c-0.6-1.4-1.2-2.7-1.9-4c-0.2,0.2-0.4,0.4-0.6,0.6c5.6,3,11.3,5.5,17.4,7.3
				c5.1,1.6,10.3,2.7,15.4,3.9c1.9,0.5,3.5,1.5,5.1,2.5c0.9,0.6,1.9,1.3,2.7,2.1c0.6,0.6,1.3,1.2,1.8,1.9c0.3,0.6,0.5,1.2,0.7,1.8
				c0.4,1,0.8,1.9,1.2,2.9c1.2,2.8,2.4,5.6,3.4,8.5c1.1,3,2,5.9,3.6,8.7c1.3,2.2,2.7,4.4,4.2,6.5c1.4,1.8,3.2,4,5.5,4.6
				c0.4,0.1,1,0.2,1.4,0.1c0.3-0.1,0.5-0.3,0.7-0.6c0.4-0.6,0.6-1.2,0.7-1.9c0.4-2,0.2-4.1,0-6.1c-0.3-2.5-0.8-5.1-1.3-7.6
				c-1.1-4.9-2.8-9.6-4.3-14.5c-1.5-5.2-2.9-10.5-4.8-15.6c-0.7-1.8-1.4-3.7-2.5-5.3c-0.7-1.1-1.7-2-2.6-3
				c-3.2-3.2-6.6-6.2-10.1-9.2c-0.8-0.7-1.6-1.4-2.5-2c-0.6-0.5-1.2-0.9-1.8-1.4c-0.5-0.5-0.9-1.1-1.4-1.6c-0.9-1-1.9-2.1-2.9-3
				c-1.1-1.1-2.2-2.2-3.6-2.9c-1.1-0.6-2.3-1.1-3.5-1.6c-3.6-1.5-7.3-2.9-10.9-4.4c-9-3.6-18.1-7.3-26.3-12.5c-2.9-1.9-5.5-4-8-6.5
				c-3.1-3.1-6.1-6.3-9-9.5c-7.3-8-14.5-16.1-22-23.8c-1.6-1.7-3.3-3.4-5-5c-0.4-0.4-1.1,0.2-0.6,0.6c7.5,7.3,14.5,15.2,21.6,22.9
				c3.4,3.7,6.7,7.4,10.1,11c2.4,2.5,4.8,5.1,7.4,7.4c3.1,2.7,6.7,4.8,10.3,6.7c4.3,2.3,8.8,4.3,13.3,6.3c4.2,1.8,8.5,3.5,12.7,5.2
				c3,1.2,6,2.3,8.9,3.7c1.1,0.5,1.8,1.1,2.7,1.9c1.9,1.7,3.6,3.6,5.2,5.5c0.4,0.4,0.8,0.8,1.3,1.1c0.7,0.6,1.5,1.2,2.2,1.8
				c1.8,1.5,3.5,3,5.2,4.5s3.3,3,4.9,4.6c1.1,1,2.2,2.1,3.1,3.2c1.1,1.3,1.7,3,2.4,4.6c0.9,2.4,1.7,4.8,2.5,7.2
				c1.6,5.2,3,10.4,4.6,15.6c1.5,4.7,2.8,9.5,3.5,14.4c0.3,2.1,0.5,4.3,0.3,6.4c-0.1,0.7-0.2,1.4-0.6,2c-0.1,0.1-0.1,0.2-0.2,0.3
				l-0.1,0.1c0.2-0.2,0,0-0.1-0.1c-0.6-0.1-1.1-0.2-1.6-0.4c-2.2-1.1-3.9-3.4-5.2-5.4c-1.5-2.2-2.9-4.4-4.1-6.8
				c-1.5-3-2.4-6.3-3.6-9.4c-1-2.5-2-4.9-3-7.3c-0.6-1.3-1-2.9-1.9-4.1c-1.3-1.6-3.1-2.8-4.8-3.9c-1.6-1.1-3.2-1.9-5.1-2.4
				c-2.5-0.6-5-1.2-7.5-1.8c-5.4-1.3-10.6-2.9-15.7-5c-3.1-1.3-6.1-2.7-9-4.3c-0.4-0.2-0.8,0.2-0.6,0.6c1.3,2.6,2.3,5.2,3.6,7.8
				c1.1,2.2,2.4,4.3,4.3,5.8c1.7,1.4,3.7,2.4,5.5,3.6c1.9,1.3,3.6,3,4.9,4.8c1.6,2.2,2.7,4.8,2.8,7.4c0.1,1.3-0.1,2.5-0.5,3.7
				c-0.2,0.6-0.5,1.2-0.8,1.7c-0.3,0.4-0.7,0.8-1.3,0.5c-0.4-0.2-0.7-0.5-1-0.8c-4.1-3.8-9-6.4-13.6-9.6c-3.8-2.7-7.7-5.7-12-7.7
				c-3.9-1.8-7.7-3.9-11.1-6.7c-3.6-2.9-6.6-6.3-9.1-10.2c-1.5-2.2-2.8-4.6-3.9-7c-1.3-2.7-2.2-5.5-3.6-8
				c-5.6-9.9-13.5-18.4-22.4-25.3c-1-0.7-1.9-1.5-2.9-2.2C150.3,58.6,149.9,59.4,150.3,59.7L150.3,59.7z"/>
		</g>
	</g>
	<g>
		<defs>
			<rect id="SVGID_00000064347301471597039520000007308384403324605108_" x="154.2" width="439.3" height="439.3"/>
		</defs>
		<clipPath id="SVGID_00000142162754511364526240000006030189082863411365_">
			<use xlink:href="#SVGID_00000064347301471597039520000007308384403324605108_"  style="overflow:visible;"/>
		</clipPath>
		<g style="clip-path:url(#SVGID_00000142162754511364526240000006030189082863411365_);">
			<g>
				<path class="st2" d="M594.6,432c-17.1-9.1-47.4-33.4-56.2-43.1c-0.8,0.6-2.9,1.3-3.8,1.4c-5.4,0.7-11-1.2-14.8-5.1
					c-0.4-0.4-0.7-0.8-0.9-1.3c-11.3,0-21.7-1-23.2-2.1c-1.3-1,1.3,1,0,0c-8.8-6.6-12.9-12.6-16.8-18.9c-1.1-1.7-2.2-3.7-1.8-5.7
					c0.3-1.6,0,0,0,0l0.2-0.7c-1.7-1.6-14.8-21.9-21-30.9c-2.1-3.1-4.2-6.5-4.4-10.3c2.8-2.2,11.7,2.7,14.4,8.4l0,0
					c2.6,1.5,4.2,4.2,8.4,8.5c0.1-4.1-0.1-15.2,0-19.3c0-0.2,0-0.4,0.2-0.6c-0.5-5.3-0.4-12.2,1.1-17.3c5.1-1.4,7.1,11.1,6.2,17.4
					c0.4,0.3,1.3,1.7,1.6,2.1c1.8,2.7,1.8,3.7,4,11.4c1.4-2,4.7-7.2,6.1-9.1c0.3-0.4,1.4-0.9,1.9-1c4-5.8,5.8-6.6,8.5-11.4
					c0.4-0.5,5.3-6.9,5.8-6.5c0.2,0.1-0.2-0.1,0,0c4.6,1.3,2.5,18.5-7.6,26.3c0.1,4.6-4.2,11.3-5.7,17.1c4.1,1.3,11.2,3.4,19.9,10.4
					c-3.9-7.2-7.6-14.7-8.3-16.6c-0.7-1.9-0.8-4.5,0.9-5.3c1-0.5,2.3-0.1,3.4,0.3c5.2,2,22.1,17.9,29,25.5l1.9,3.7
					c23,5,38.7,8.9,51.1,15.5"/>
				<path d="M594.9,431.6c-8.4-4.5-16.3-10.1-24-15.8c-8.1-6-16.1-12.4-23.7-19.1c-2.9-2.6-5.8-5.2-8.5-8.2
					c-0.1-0.1-0.4-0.2-0.6-0.1c-1.1,0.8-2.7,1.2-4.1,1.4c-1.8,0.2-3.7,0.1-5.5-0.3s-3.5-1.1-5-2c-0.8-0.5-1.6-1-2.3-1.6
					s-1.7-1.4-2-2.3c-0.1-0.2-0.2-0.3-0.4-0.3c-5.2,0-10.5-0.2-15.7-0.7c-1.7-0.2-3.5-0.4-5.2-0.7c-0.8-0.2-1.7-0.3-2.3-0.9
					c-0.1,0.3-0.2,0.5-0.3,0.8c-0.2,0-0.2-0.1-0.1,0c0,0.1,0.1,0.1,0.2,0.1c0.1,0.1,0.1,0.1,0.2,0.2c0.2,0.1,0.1,0.2,0-0.1
					c0.2-0.2,0.4-0.3,0.7-0.5c-1.8-1.1-3.4-2.7-5-4.1c-1.7-1.5-3.2-3.1-4.7-4.7c-2.6-2.9-4.8-6.1-6.8-9.4c-0.7-1.1-1.4-2.2-1.9-3.4
					c-0.5-1.2-0.5-2.3-0.2-3.5c-0.3-0.1-0.6-0.2-0.9-0.2c0,0.2-0.1,0.5-0.1,0.7c-0.1,0.6,0.7,0.8,0.9,0.2c0.1-0.2,0.1-0.5,0.2-0.7
					c0-0.2,0-0.3-0.1-0.4c-1.1-1-1.9-2.4-2.7-3.7c-1.7-2.4-3.4-4.9-5-7.4c-3.8-5.7-7.6-11.5-11.5-17.3c-2.6-3.8-5.8-7.8-6-12.6
					c-0.1,0.1-0.2,0.3-0.2,0.4c1.1-0.8,2.7-0.4,3.9-0.1c1.9,0.6,3.6,1.6,5.2,2.8c1.7,1.3,3.2,2.8,4.3,4.6c0.2,0.3,0.4,0.8,0.7,1.1
					c0.3,0.2,0.7,0.4,1,0.6c0.7,0.5,1.3,1.2,1.9,1.8c1.8,2,3.5,4.1,5.4,6c0.3,0.3,0.8,0.1,0.8-0.3c0.1-4.3,0-8.7,0-13
					c0-2,0-3.9,0-5.9c0-0.5,0.2-1,0.1-1.5c-0.1-0.7-0.1-1.4-0.2-2.1c-0.1-1.5-0.1-3-0.1-4.5c0.1-3.4,0.4-6.8,1.4-10
					c-0.1,0.1-0.2,0.2-0.3,0.3c1.9-0.5,3.1,1.4,3.9,2.9c1.1,2.3,1.5,4.9,1.8,7.4c0.1,1.3,0.2,2.6,0.2,3.9c0,0.6,0,1.1-0.1,1.7
					c0,0.5-0.3,1.1,0.1,1.5c1.2,1.4,2.3,2.9,3,4.6c1.1,2.8,1.7,5.7,2.5,8.6c0.1,0.4,0.6,0.4,0.8,0.1c1.5-2.1,2.9-4.4,4.4-6.6
					c0.3-0.5,0.7-1,1-1.6c0.3-0.5,0.6-1,1.1-1.3c0.6-0.3,1.2-0.3,1.6-0.9c0.5-0.7,1.1-1.5,1.6-2.2c1.6-2.1,3.4-4,5-6.2
					c0.7-1,1.2-2,1.9-3c0.5-0.6,0.9-1.2,1.4-1.8c0.7-0.9,1.5-1.9,2.3-2.8c0.3-0.4,0.7-0.8,1-1.1c0.1-0.1,0.3-0.2,0.4-0.3
					c0.2-0.3,0.1,0.1-0.2-0.1c0.1-0.3,0.3-0.5,0.4-0.8c0,0,0.1,0,0.1,0.1c-0.1,0.3-0.3,0.5-0.4,0.8c1.6,0.2,1.9,2.8,2,4
					c0.2,2.7-0.3,5.5-1.1,8.2c-0.9,3.2-2.4,6.2-4.3,8.9c-1,1.4-2.2,2.7-3.5,3.8c-0.3,0.2-0.7,0.5-0.9,0.8c-0.2,0.3-0.1,0.8-0.1,1.2
					c-0.1,0.9-0.3,1.8-0.6,2.7c-1.4,4.6-3.9,8.8-5.1,13.4c-0.1,0.2,0.1,0.5,0.3,0.6c2.8,0.8,5.5,1.8,8.1,3c4.1,1.9,8,4.4,11.6,7.2
					c0.4,0.3,1-0.1,0.7-0.6c-2.5-4.6-4.9-9.3-7.2-14c-0.7-1.4-1.4-2.8-1.5-4.3c-0.1-0.9,0-2.1,0.8-2.7c1-0.8,2.5-0.3,3.5,0.2
					c2.3,1,4.4,2.7,6.3,4.3c3,2.4,6,5,8.8,7.7c3,2.7,5.9,5.5,8.7,8.4c1.2,1.2,2.4,2.4,3.5,3.7c0.4,0.4,0.9,0.8,1.2,1.3
					s0.5,1,0.8,1.6s0.6,1.2,0.9,1.8c0.4,0.7,1.3,0.7,2,0.8c2.8,0.6,5.7,1.3,8.5,1.9c5,1.1,9.9,2.3,14.9,3.6c8,2.2,16.1,4.7,23.5,8.3
					c0.8,0.4,1.6,0.8,2.4,1.2c0.5,0.3,1-0.5,0.5-0.8c-7.3-3.9-15.3-6.6-23.3-8.9c-5-1.4-10-2.6-15.1-3.8c-2.8-0.7-5.6-1.3-8.4-1.9
					c-0.7-0.2-1.4-0.3-2.1-0.5c-0.4-0.1-0.7-0.2-1.1-0.2c-0.2,0-0.4-0.1-0.5-0.1s-0.6-0.1-0.4,0c-0.1-0.1-0.2-0.3-0.2-0.4
					c-0.2-0.3-0.3-0.6-0.5-0.9c-0.6-1.1-1.1-2.2-1.9-3.1c-1.2-1.3-2.4-2.5-3.6-3.7c-2.9-2.9-5.8-5.8-8.8-8.6c-3-2.8-6-5.5-9.2-8
					c-2-1.6-4.2-3.5-6.6-4.5c-1.7-0.8-4.2-1.2-5.3,0.8c-0.8,1.6-0.4,3.6,0.2,5.2c1.7,4.2,3.9,8.1,6,12.1c0.7,1.4,1.4,2.8,2.2,4.1
					c0.2-0.2,0.5-0.4,0.7-0.6c-3.6-2.9-7.5-5.4-11.7-7.4c-2.7-1.3-5.5-2.2-8.3-3.1c0.1,0.2,0.2,0.4,0.3,0.6
					c1.1-4.3,3.4-8.3,4.8-12.5c0.3-0.9,0.6-1.9,0.8-2.9c0.1-0.4,0.1-0.8,0.1-1.2c0-0.1,0-0.4,0-0.5s0.4-0.3,0.5-0.4
					c1.4-1.1,2.5-2.5,3.6-3.9c2.1-2.8,3.6-5.9,4.6-9.2c0.8-2.7,1.4-5.7,1.2-8.6c-0.1-1.6-0.6-4.6-2.7-4.9c-0.4-0.1-0.8,0.4-0.4,0.8
					c0.1,0.1,0.2,0.2,0.3,0.2c0.4,0.1,0.8-0.4,0.4-0.8c-0.5-0.5-1.1,0.1-1.5,0.4c-0.7,0.7-1.4,1.5-2,2.3c-1.2,1.5-2.5,3-3.5,4.6
					c-1.5,2.4-3.3,4.4-5.1,6.6c-0.5,0.6-0.9,1.2-1.4,1.7c-0.3,0.4-0.6,0.8-0.9,1.2c-0.3,0.4-0.5,0.8-0.9,1c-0.6,0.2-1.2,0.5-1.6,0.9
					s-0.7,1-1,1.4c-1.8,2.6-3.4,5.3-5.2,7.9c0.3,0,0.6,0.1,0.8,0.1c-0.8-2.8-1.4-5.8-2.5-8.6c-0.3-0.8-0.7-1.6-1.1-2.3
					c-0.6-1-1.2-2.1-2.1-2.8c0,0.1,0.1,0.3,0.1,0.4c0.5-3.7,0.2-7.5-0.6-11.1c-0.6-2.4-1.8-6.5-4.7-6.9c-0.5-0.1-1.4-0.1-1.7,0.4
					c-0.3,0.5-0.3,1.2-0.5,1.8c-0.1,0.6-0.3,1.3-0.4,1.9c-0.4,2.7-0.6,5.4-0.6,8.1c0,1.3,0.1,2.6,0.1,4c0,0.6,0.1,1.1,0,1.7
					c-0.1,0.4-0.1,0.8-0.1,1.2c0,1.8,0,3.6,0,5.4c0,4.4,0.1,8.8,0,13.2c0.3-0.1,0.5-0.2,0.8-0.3c-1.3-1.4-2.6-2.8-3.8-4.2
					c-0.9-1-1.8-2.1-2.8-3c-0.4-0.3-0.8-0.7-1.2-1c-0.3-0.2-0.4-0.3-0.6-0.5c-0.2-0.3-0.4-0.7-0.6-1c-0.8-1.2-1.7-2.2-2.8-3.2
					c-2.1-1.9-4.5-3.5-7.2-4.3c-1-0.3-2.1-0.5-3.1-0.3c-0.4,0.1-0.7,0.2-1.1,0.4c-0.6,0.4-0.3,1.2-0.3,1.8c0.5,3.7,2.7,6.9,4.7,9.9
					c1.4,2.1,2.8,4.1,4.2,6.2c3.2,4.8,6.4,9.7,9.6,14.5c1.4,2.1,2.9,4.3,4.4,6.4c0.8,1.1,1.5,2.3,2.5,3.2c0-0.1-0.1-0.3-0.1-0.4
					c-0.1,0.2-0.1,0.5-0.2,0.7c0.3,0.1,0.6,0.2,0.9,0.2c0-0.2,0.1-0.5,0.1-0.7c0.1-0.6-0.8-0.8-0.9-0.2c-0.2,0.9-0.3,1.8-0.2,2.7
					c0.2,1.2,0.8,2.4,1.4,3.4c1,1.8,2.2,3.5,3.3,5.2c2.5,3.6,5.3,7,8.5,10c1.1,1,2.1,1.9,3.3,2.8c0.9,0.7,1.7,1.5,2.6,2.1
					c0.4,0.2,0.8-0.1,0.7-0.5c-0.1-0.3-0.9-0.9-1.2-0.9c-0.4,0-0.6,0.5-0.3,0.8c1.2,1.2,3.3,1.3,5,1.5c3.7,0.5,7.4,0.7,11.1,0.9
					c2.6,0.1,5.2,0.2,7.8,0.2c-0.1-0.1-0.3-0.2-0.4-0.3c0.7,1.8,2.7,3.1,4.2,4.1c1.7,1.1,3.6,1.9,5.5,2.3c1.9,0.5,4,0.6,6,0.4
					c1.5-0.2,3.3-0.6,4.5-1.5c-0.2,0-0.4,0-0.6-0.1c2.3,2.6,4.8,4.9,7.4,7.2c3.5,3.2,7.1,6.2,10.8,9.2c8.1,6.6,16.5,13,25.2,18.9
					c4.2,2.8,8.4,5.5,12.9,7.9C594.9,432.7,595.4,431.9,594.9,431.6L594.9,431.6z"/>
			</g>
			<g>
				<path d="M528.7,369.3c2.1,0.9,4.3,1.4,6.6,1c2-0.3,3.7-1.3,5.3-2.5c3.3-2.7,4.9-7.9,2.5-11.6c-1.1-1.7-2.7-2.9-4.6-3.6
					c-2-0.8-4.2-0.7-6.2-0.1c-2.1,0.6-4.1,1.9-5.6,3.5c-1.6,1.6-2.9,3.6-3.2,5.9c-0.2,1.4-0.2,2.8,0.5,4.1c1,1.8,3,2.8,4.9,3.5
					c0.9,0.3,1.3-1.1,0.4-1.4c-1.4-0.5-3-1.2-3.9-2.5c-0.5-0.8-0.7-1.6-0.6-2.6c0.2-3.7,3.3-6.9,6.5-8.4c1.7-0.8,3.6-1.2,5.5-0.9
					c1.7,0.3,3.2,1.2,4.4,2.4c1.1,1.2,1.8,2.8,1.7,4.4c-0.1,1.9-1,4.1-2.3,5.5s-3.1,2.4-4.9,2.9c-2.1,0.5-4.3,0.1-6.2-0.7
					c-0.4-0.2-0.8-0.1-1,0.3C528.2,368.6,528.3,369.1,528.7,369.3L528.7,369.3z"/>
				<path d="M538,389.3c2.3,2.5,4.8,4.9,7.4,7.2c3.5,3.1,7.1,6.2,10.7,9.2c4.1,3.4,8.3,6.6,12.6,9.8c4.2,3.2,8.5,6.2,12.8,9.2
					c3.8,2.5,7.6,5,11.6,7.2c0.4,0.2,0.9,0.5,1.3,0.7c0.7,0.4,1.3-0.7,0.6-1.1c-3.9-2.1-7.6-4.4-11.2-6.8c-4.3-2.9-8.5-5.9-12.7-9
					c-4.3-3.2-8.5-6.5-12.7-9.8c-3.7-3-7.4-6.1-11-9.3c-2.7-2.4-5.4-4.8-7.8-7.5c-0.2-0.2-0.5-0.5-0.7-0.7
					C538.3,387.8,537.5,388.7,538,389.3L538,389.3z"/>
				<path d="M542.4,371.2c3.4,1.7,6.8,3.6,10.1,5.5c4.1,2.3,8.1,4.7,12.2,7.1c4.1,2.5,8.3,5,12.4,7.5c3.6,2.2,7.2,4.4,10.9,6.6
					c2.5,1.5,5,3.1,7.6,4.6c0.2,0.1,0.4,0.2,0.6,0.4c0.7,0.4,1.3-0.7,0.6-1.1c-2.4-1.4-4.7-2.8-7.1-4.2c-3.5-2.1-7-4.3-10.6-6.5
					c-4.1-2.5-8.2-5-12.3-7.5c-4.1-2.4-8.2-4.9-12.3-7.2c-3.5-2-6.9-4-10.5-5.8c-0.4-0.2-0.7-0.4-1.1-0.6
					C542.3,369.8,541.7,370.9,542.4,371.2L542.4,371.2z"/>
				<path d="M543.4,359.6c8,1.7,15.9,3.5,23.8,5.6c6.3,1.6,12.5,3.5,18.5,5.9c2.9,1.2,5.8,2.5,8.6,4c0.7,0.4,1.3-0.7,0.6-1.1
					c-5.2-2.8-10.7-4.9-16.3-6.8c-6.8-2.2-13.8-4-20.7-5.6c-4.7-1.1-9.5-2.2-14.2-3.2C543,358.2,542.6,359.4,543.4,359.6
					L543.4,359.6z"/>
				<path d="M541.7,364.9c0.4,5.3,0.4,10.8-0.6,16.1c-0.3,1.8-0.8,3.7-1.6,5.4c-0.3,0.6-0.6,1.1-1,1.6c-0.5,0.6-1.3,0.9-2,1.1
					c-4.3,1.5-9.3,0.4-13.1-1.9c-1-0.6-2-1.4-2.9-2.3c-0.4-0.4-0.9-0.9-1-1.5c-0.1-0.5,0-1.1,0-1.6c0.3-1.8,0.9-3.5,1.5-5.1
					c1.3-3.5,2.8-6.9,4.7-10.1c0.4-0.7-0.7-1.3-1.1-0.6c-1.7,3-3.1,6.2-4.4,9.4c-0.7,1.8-1.4,3.7-1.8,5.6c-0.2,1.1-0.4,2.3,0.1,3.4
					c0.6,1.1,1.7,2,2.7,2.7c2,1.6,4.3,2.7,6.8,3.3c2.3,0.6,4.9,0.8,7.3,0.3c1.7-0.4,3.5-1,4.5-2.4s1.6-3.2,2-4.9
					c0.7-2.7,1-5.6,1.2-8.4c0.2-3.4,0.1-6.8-0.1-10.1C542.8,364.1,541.6,364.1,541.7,364.9L541.7,364.9z"/>
				<path d="M520.5,357.4c-2.5-1.6-5.3-2.6-8.1-3.5c-3.4-1.2-6.9-2.1-10.4-3c-3.1-0.8-6.2-1.5-9.3-2.1c-1.1-0.2-2.1-0.4-3.2-0.5
					c-0.8-0.1-1.6-0.2-2.4-0.1c-2.2,0.4-4,1.9-5.6,3.4c-1.7,1.6-3.2,3.4-4.8,5c0.3,0.2,0.7,0.4,1,0.6c0-0.2,0.1-0.5,0.1-0.7
					c0.2-0.8-1-1.1-1.2-0.3c-0.2,1.1-0.4,2-0.1,3.1c0.3,1.3,1,2.5,1.7,3.6c1,1.7,2.1,3.4,3.3,5c2.6,3.7,5.5,7.1,8.8,10.1
					c1.1,1,2.2,1.9,3.4,2.9c0.6,0.5,1.2,0.9,1.8,1.4c0.2,0.2,0.5,0.4,0.8,0.3c0.4-0.2,0.6-0.7,0.3-1c-0.2-0.2-0.6-0.5-0.9-0.7
					s-0.8,0-0.9,0.4c-0.1,0.8,1,1.2,1.6,1.4c1,0.3,2.2,0.5,3.2,0.7c3.7,0.5,7.5,0.8,11.2,0.9c2.7,0.1,5.3,0.2,8,0.2
					c0.8,0,0.8-1.2,0-1.2c-4.3,0-8.5-0.1-12.8-0.4c-2.8-0.2-5.8-0.4-8.6-1.1c-0.2-0.1-0.5-0.1-0.7-0.2c-0.1,0-0.2-0.1-0.3-0.1
					c-0.1,0-0.2-0.1-0.1-0.1c-0.3-0.1-0.4-0.2-0.6-0.4c0.1,0.2,0.1,0.4,0.2,0.6l0,0c-0.3,0.1-0.6,0.2-0.9,0.4l0.1,0.1l0.1,0.1
					c0.1,0.1-0.1-0.1,0.1,0c0.1,0.1,0.3,0.2,0.4,0.3c0.1-0.3,0.2-0.7,0.3-1l0,0c0.2,0,0.3,0,0.5,0.1c-0.8-0.5-1.4-1.1-2.1-1.6
					c-1-0.8-1.9-1.6-2.8-2.4c-1.7-1.5-3.2-3.1-4.7-4.8c-2.6-2.9-4.7-6.1-6.8-9.4c-0.7-1.1-1.4-2.2-1.9-3.4c-0.2-0.6-0.4-1.3-0.4-1.9
					c0-0.5,0.1-0.9,0.2-1.4c-0.4-0.1-0.8-0.2-1.2-0.3c0,0.2-0.1,0.5-0.1,0.7c-0.1,0.6,0.6,1,1,0.6c1.4-1.4,2.7-2.9,4.1-4.3
					s2.9-2.8,4.7-3.5c0.9-0.3,1.7-0.4,2.6-0.2c0.3,0,0.7,0.1,1.2,0.2s1.1,0.2,1.6,0.3c6.4,1.2,12.9,2.8,19.1,4.8
					c3.1,1,6.3,2.1,9.1,3.8C520.6,358.9,521.2,357.9,520.5,357.4L520.5,357.4z"/>
				<path d="M477.8,356.3c-0.5-0.4-0.6-0.7-1-1.2c-0.6-0.8-1.2-1.6-1.7-2.5c-1.7-2.5-3.4-5-5-7.6c-3.8-5.8-7.6-11.7-11.5-17.5
					c-2.6-3.8-5.7-7.7-6-12.5c-0.1,0.2-0.2,0.4-0.3,0.5c1-0.8,2.6-0.4,3.7,0c1.8,0.6,3.5,1.6,5.1,2.7c1.6,1.2,3.1,2.7,4.2,4.4
					c0.2,0.4,0.4,0.8,0.6,1.2c0.3,0.4,0.9,0.6,1.2,0.1c0.4-0.7-0.6-1.9-1.1-1c-0.1,0.2-0.1,0.3-0.1,0.5c-0.1,0.4-0.3,0.7-0.5,1
					c-0.5,0.7-1,1.3-1.5,2c-1,1.4-2.1,2.8-3.1,4.1c-0.5,0.6,0.6,1.2,1.1,0.6c1-1.4,2.1-2.8,3.1-4.1c0.5-0.7,1-1.3,1.5-2
					c0.2-0.3,0.3-0.5,0.5-0.8c0.1-0.1,0.1-0.3,0.1-0.5c0-0.1,0.2-0.4,0-0.2c-0.2,0.1-0.4,0.2-0.5,0.3l0,0c-0.1-0.1-0.3-0.1-0.4-0.2
					c-0.2-0.2-0.1-0.3-0.1-0.1c0,0,0,0,0-0.1c0,0.1,0,0.1,0.1-0.2c0.1-0.1,0.2-0.2,0.4-0.3l0,0c0.2,0,0.3,0,0.5,0.1
					c0.1,0.1,0.1,0.2,0.1,0c0,0-0.1-0.1-0.1-0.2c-0.1-0.1-0.1-0.3-0.2-0.4c-0.2-0.3-0.3-0.5-0.5-0.8c-0.4-0.5-0.7-1-1.2-1.5
					c-0.9-1-1.9-1.9-2.9-2.7c-1.9-1.5-4.1-2.8-6.4-3.3c-0.9-0.2-1.9-0.3-2.8-0.2c-0.4,0.1-0.7,0.2-1.1,0.4c-0.3,0.2-0.4,0.3-0.5,0.6
					c0,0.4,0.1,0.9,0.1,1.4c0.5,3.4,2.3,6.4,4.2,9.1c2.6,3.8,5.1,7.6,7.6,11.4c2.7,4.1,5.4,8.3,8.2,12.4c1,1.6,2.1,3.1,3.2,4.7
					c0.7,1,1.3,1.9,2.1,2.8c0.1,0.1,0.2,0.2,0.3,0.3C477.5,357.7,478.4,356.9,477.8,356.3L477.8,356.3z"/>
				<path d="M466.5,324.6C466.7,324.5,466.3,324.5,466.5,324.6C466.6,324.6,466.4,324.5,466.5,324.6s0.2,0.1,0.3,0.2l0.1,0.1
					c0,0,0.2,0.1,0.1,0.1c0.4,0.3,0.9,0.8,1.3,1.2c1.4,1.4,2.7,2.8,4,4.3c3.5,3.9,6.9,8,10.2,12.2c1.7,2.1,3.3,4.3,4.8,6.5
					c0.4,0.6,1.5,0,1.1-0.6c-3-4.3-6.2-8.4-9.6-12.5c-3-3.6-6.1-7.3-9.4-10.6c-0.5-0.5-1.1-1.1-1.7-1.5c-0.3-0.2-0.7-0.6-1.2-0.5
					C465.7,323.4,465.7,324.6,466.5,324.6L466.5,324.6z"/>
				<path d="M542.1,354.9c-4.3-4.8-9-9.2-13.7-13.6c-2.5-2.3-5.1-4.6-7.7-6.7c-2-1.6-4-3.2-6.2-4.5c-1-0.6-2.1-1.1-3.3-1.3
					c-1-0.2-2.1,0-2.9,0.7c-0.6,0.6-0.9,1.4-1.1,2.2c-0.3,2.1,0.7,4.1,1.6,6c2.4,5,4.9,9.8,7.5,14.7c2.4,4.5,4.8,9.1,7.6,13.5
					c0.2,0.3,0.4,0.6,0.5,0.8c0.4,0.6,1.5,0,1.1-0.6c-1-1.5-1.9-3.1-2.8-4.7c-1.4-2.4-2.7-4.8-4-7.3c-2.7-5-5.4-10-7.9-15.1
					c-0.4-0.9-0.9-1.7-1.3-2.6c-0.1-0.3-0.3-0.6-0.4-1c0-0.1-0.1-0.1-0.1-0.2c-0.1-0.1,0,0.1,0-0.1c0-0.1-0.1-0.2-0.1-0.3
					c-0.5-1.2-0.9-3.3,0.1-4.4c0.8-0.8,2-0.5,2.9-0.2c0.5,0.2,0.7,0.3,1.2,0.5c2,1,3.8,2.5,5.5,3.9c2.5,2,4.9,4.1,7.3,6.2
					c4.8,4.3,9.5,8.8,13.9,13.6c0.4,0.4,0.8,0.9,1.2,1.3C541.7,356.3,542.6,355.5,542.1,354.9L542.1,354.9z"/>
				<path d="M518.2,333.4c-0.9,1.3-2,2.6-3.3,3.6c-1.2,1-2.5,1.8-3.8,2.5c-0.7,0.4-0.1,1.5,0.6,1.1c1.4-0.8,2.8-1.7,4.1-2.7
					c1.3-1.1,2.5-2.4,3.5-3.8C519.7,333.4,518.7,332.8,518.2,333.4L518.2,333.4z"/>
				<path d="M497.1,315.6c-0.6-0.4-1.3-0.7-2-0.7c-0.8,0.1-1.3,0.7-1.7,1.3c-0.7,0.9-1.3,1.9-1.9,2.8c-1.4,2.1-2.7,4.3-4.2,6.3
					c-0.5,0.6,0.6,1.2,1.1,0.6c1.3-1.8,2.5-3.7,3.7-5.6c0.6-0.9,1.2-1.9,1.9-2.8c0.3-0.4,0.5-0.8,0.9-1.2c0.5-0.5,1.2-0.1,1.7,0.3
					C497.2,317.1,497.8,316,497.1,315.6L497.1,315.6z"/>
				<path d="M497.4,341.2c1.1-4.2,3.2-8,4.7-12.1c0.6-1.6,1.2-3.5,1.1-5.3c0-0.5-0.2-0.9-0.4-1.4c-0.3-0.7-0.7-1.3-1.1-1.9
					c-1.2-1.9-2.6-3.6-4.4-5c-0.6-0.5-1.5,0.4-0.9,0.9c1.5,1.2,2.8,2.6,3.8,4.2c0.4,0.6,0.8,1.3,1.2,2c0.2,0.4,0.4,0.8,0.5,1.3
					c0,0.1,0-0.1,0,0s0,0.2,0,0.3c0,0.2,0,0.3,0,0.5c0,0.4-0.1,0.8-0.2,1.3c-0.2,0.9-0.4,1.8-0.7,2.6c-0.7,2-1.5,3.8-2.3,5.7
					c-0.9,2.2-1.8,4.3-2.4,6.6C496.1,341.7,497.2,342,497.4,341.2L497.4,341.2z"/>
				<path d="M503,324.4c4-3.1,6.8-7.6,8.5-12.4c0.8-2.1,1.3-4.4,1.5-6.6c0.2-1.7,0.2-3.5-0.2-5.2c-0.3-1.2-1.1-2.9-2.5-3.1
					c-0.4-0.1-0.9,0.3-0.8,0.8c0.1,0.3,0.5,0.6,0.8,0.5c0.4-0.1,0.6-0.7,0.3-1c-0.6-0.6-1.3,0.1-1.7,0.5c-0.7,0.6-1.3,1.4-1.9,2.1
					c-0.7,0.8-1.3,1.6-2,2.4c-0.3,0.3-0.5,0.7-0.8,1c-0.1,0.1-0.2,0.2-0.3,0.3c-0.1,0.2,0-0.1-0.1,0.1c-0.5,0.6,0.4,1.5,0.9,0.9
					c0.9-1.1,1.8-2.3,2.7-3.4c0.6-0.7,1.2-1.4,1.8-2.1c0.2-0.2,0.5-0.5,0.7-0.7c0,0,0.2-0.2,0.1-0.1c0,0,0.1,0,0.1-0.1
					c0.1-0.1,0.1,0,0,0c0,0-0.3,0-0.4-0.1c0.1-0.3,0.2-0.7,0.3-1l0,0c0.2,0,0.3,0,0.5,0.1h-0.1c0.1,0.1,0.2,0.2,0.3,0.4l0,0
					c-0.3,0.3-0.5,0.5-0.8,0.8c0.3,0.1,0.7,0.3,0.9,0.6c0.4,0.5,0.5,0.9,0.7,1.5c0.4,1.5,0.4,3.2,0.3,4.8c-0.4,4.4-1.9,8.7-4.3,12.4
					c-1.4,2.3-3.2,4.4-5.4,6.1C501.5,324,502.4,324.8,503,324.4L503,324.4z"/>
				<path d="M492,342.2c-2.2-7.8-2.7-16-5.4-23.6c-0.5-1.5-1.1-3-2-4.4c-0.3-0.4-0.5-0.8-0.7-1.2c-0.4-0.5-0.9-0.9-1.5-1.1
					c-1.3-0.4-2.8-0.6-4.1-0.7c-0.7-0.1-1.4-0.1-2.1-0.1c-0.6,0-1.4,0-1.7,0.6c-0.3,0.6-0.2,1.6-0.2,2.3c0,1.8,0,3.6,0,5.4
					c0,4.1,0.1,8.3,0,12.4c0,0.8,1.2,0.8,1.2,0c0.1-3.4,0-6.9,0-10.4c0-1.9,0-3.8,0-5.6c0-0.8,0-1.5,0-2.3c0-0.3,0-0.6,0-0.9
					c0-0.1,0.1-0.4,0-0.3c0.1-0.1,0.4,0,0.5,0c0.2,0,0.5,0,0.7,0c1.4,0,2.8,0.1,4.2,0.4c0.6,0.1,1.4,0.2,1.9,0.6
					c0.4,0.3,0.6,0.9,0.9,1.2c0.8,1.2,1.4,2.6,1.9,4c1.3,3.7,2.1,7.6,2.8,11.4c0.8,4.1,1.5,8.4,2.6,12.4
					C491,343.3,492.2,342.9,492,342.2L492,342.2z"/>
				<path d="M482.8,312.3c0.3-2.4,0.3-4.8,0-7.2c-0.3-2.4-0.7-4.9-1.7-7.2c-0.7-1.6-1.7-3.4-3.5-3.9c-0.4-0.1-0.8-0.1-1.2-0.1
					c-0.2,0-0.5,0.1-0.7,0.2c-0.3,0.2-0.4,0.8-0.5,1.1c-0.4,1.6-0.7,3.3-0.9,4.9c-0.4,3.9-0.4,7.9,0,11.8c0.1,0.8,1.3,0.8,1.2,0
					c-0.3-2.9-0.4-5.8-0.2-8.7c0.1-2.9,0.5-5.8,1.3-8.5c-0.1,0.1-0.3,0.3-0.4,0.4c0.8-0.2,1.6,0,2.2,0.6c0.8,0.7,1.3,1.8,1.7,2.8
					c1.1,2.7,1.5,5.8,1.7,8.7c0.1,1.5,0.1,3.1-0.2,4.6c0,0.3,0.1,0.7,0.4,0.8C482.3,312.8,482.8,312.6,482.8,312.3L482.8,312.3z"/>
				<path d="M496.4,315.8c1.5-2.1,3.1-4.1,4.7-6c1.4-1.7,2.7-3.4,3.8-5.3c0.4-0.7-0.7-1.3-1.1-0.6c-1.1,1.9-2.4,3.6-3.8,5.3
					c-1.7,2-3.3,4-4.7,6.1C494.9,315.8,495.9,316.4,496.4,315.8L496.4,315.8z"/>
				<path d="M517.1,351c-5-4-10.6-7.5-16.7-9.5c-1.7-0.5-3.5-1.1-5.3-1c-0.8,0-1.5,0.4-2.2,0.8c-0.9,0.5-1.8,1.1-2.6,1.7
					c-1.4,1-2.7,2-4,3.1c-0.6,0.5,0.3,1.4,0.9,0.9c1-0.8,2-1.6,3-2.4c0.8-0.6,1.7-1.2,2.6-1.8c0.7-0.4,1.4-0.8,2.1-1
					c0.2,0,0.1,0,0.3,0c0.2,0,0.3,0,0.5,0c0.3,0,0.7,0.1,1,0.1c0.9,0.1,1.8,0.4,2.7,0.6c2.5,0.7,4.9,1.8,7.1,3
					c3.5,1.8,6.7,4,9.8,6.4C516.9,352.4,517.7,351.5,517.1,351L517.1,351z"/>
			</g>
		</g>
	</g>
</g>
<g>
	<g>
		<g>
			<path d="M184.5,353c-0.1,0.2-0.2,0.4-0.3,0.5c-0.1,0.2-0.2,0.4-0.2,0.6s0,0.4,0,0.6s0.1,0.4,0.3,0.5c0.1,0.2,0.2,0.3,0.4,0.4
				c0.1,0.1,0.2,0.1,0.4,0.2c0.3,0.1,0.5,0.1,0.8,0c0.1-0.1,0.2-0.1,0.4-0.2s0.4-0.3,0.5-0.5s0.2-0.4,0.3-0.5
				c0.1-0.2,0.2-0.4,0.2-0.6s0-0.4,0-0.6s-0.1-0.4-0.3-0.5c-0.1-0.2-0.2-0.3-0.4-0.4c-0.1-0.1-0.2-0.1-0.4-0.2
				c-0.3-0.1-0.5-0.1-0.8,0c-0.1,0.1-0.2,0.1-0.4,0.2C184.9,352.6,184.7,352.8,184.5,353L184.5,353z"/>
		</g>
	</g>
	<g>
		<rect x="154.1" y="-0.7" class="st2" width="439.4" height="439.4"/>
	</g>
	<g>
		<path d="M204.6,329.1H201v-2.6h4.1l0.8-4h-3.7v-2.8h4.3l1.4-6.2h3l-1.5,6.7h3.8l1.4-6.7h2.9l-1.4,6.3h3.6v2.6h-4.1l-0.8,4h3.7v2.8
			h-4.3l-1.4,6.2h-2.9l1.4-6.7h-3.8l-1.4,6.7h-2.9L204.6,329.1z M211.9,326.4l0.8-4h-3.8l-0.8,4H211.9z"/>
		<path d="M221.7,329.3l3.9-1c0.3,2.7,2.2,3.9,4.5,3.9s3.6-1.2,3.6-2.8c0-4.5-10.5-3-10.5-10c0-3.8,3.1-6,6.7-6
			c2.7,0,5.1,1.2,6.6,3.8l-3.2,2c-0.7-1.5-2-2.3-3.5-2.3s-2.7,0.9-2.7,2.3c0,4.1,10.5,2.7,10.5,9.9c0,4.1-3.4,6.5-7.5,6.5
			C226.1,335.6,222.4,333.5,221.7,329.3z"/>
		<path d="M241.2,313.8h6.8c4.4,0,7.6,2.3,7.6,6.4c0,4-3.2,6.3-7.6,6.3h-3v9h-3.9L241.2,313.8L241.2,313.8z M247.9,322.8
			c2.7,0,3.8-0.9,3.8-2.6c0-1.8-1.1-2.8-3.8-2.8H245v5.4H247.9z"/>
		<path d="M258.9,313.8h3.9v21.6h-3.9V313.8z"/>
		<path d="M268.4,313.8h7c4,0,7.5,2.3,7.5,6.4c0,2.7-1.8,4.8-4.2,5.6l6,9.7h-4.5l-5.3-9.3h-2.6v9.3h-3.9V313.8z M275.7,323
			c2.1-0.1,3.3-1.2,3.3-2.8c0-1.8-1.4-3-3.6-3h-3.1v5.7L275.7,323L275.7,323z"/>
		<path d="M287.8,313.8h3.9v21.6h-3.9V313.8z"/>
		<path d="M301.5,317.3h-6.8v-3.5h17.4v3.5h-6.8v18.1h-3.9L301.5,317.3L301.5,317.3z"/>
		<path d="M313.2,324.6c0-5.9,3.3-11.1,10.4-11.1s10.4,5.2,10.4,11.1s-3.3,11.1-10.4,11.1S313.2,330.5,313.2,324.6z M329.9,324.6
			c0-4.1-1.7-7.7-6.3-7.7c-4.6,0-6.3,3.6-6.3,7.7s1.7,7.7,6.3,7.7C328.2,332.3,329.9,328.7,329.9,324.6z"/>
		<path d="M338.1,313.8h15.3v3.6H342v5.5h10v3.6h-10v9h-3.9V313.8z"/>
		<path d="M357,313.8h14.4v3.6h-10.5v5.5h9.8v3.6h-9.8v5.4h10.5v3.7H357V313.8z"/>
		<path d="M380.9,324.6l-7.2-10.8h4.6l5.2,8.3l5.2-8.3h4.6l-7.2,10.8l7.2,10.8h-4.6l-5.3-8.2l-5.2,8.2h-4.6L380.9,324.6z"/>
		<path d="M394,324.6c0-5.9,3.3-11.2,10.4-11.2c4.3,0,7.7,2.2,9.5,6.2l-3.6,1.4c-0.8-2.8-3-3.9-5.9-3.9c-4.6,0-6.5,3.3-6.5,7.3
			c0,4.3,2,7.6,6.6,7.6c2.8,0,4.7-1.1,5.9-4l3.6,1.5c-1.7,4-5.2,6.2-9.5,6.2C397.4,335.7,394,330.5,394,324.6z"/>
		<path d="M417.4,313.8h14.4v3.6h-10.5v5.5h9.8v3.6h-9.8v5.4h10.5v3.7h-14.4V313.8z"/>
		<path d="M436.5,313.8h3.9v17.9h9.2v3.7h-13.1V313.8z"/>
		<path d="M452.8,313.8h3.9v17.9h9.2v3.7h-13.1V313.8z"/>
		<path d="M469,313.8h14.4v3.6h-10.5v5.5h9.8v3.6h-9.8v5.4h10.5v3.7H469V313.8z"/>
		<path d="M488.1,313.8h3.9l9.1,15.1v-15.1h3.7v21.6h-3.9l-9.1-15.2v15.2h-3.7V313.8z"/>
		<path d="M508.8,324.6c0-5.9,3.3-11.2,10.4-11.2c4.3,0,7.7,2.2,9.5,6.2l-3.6,1.4c-0.8-2.8-3-3.9-5.9-3.9c-4.6,0-6.5,3.3-6.5,7.3
			c0,4.3,2,7.6,6.6,7.6c2.8,0,4.7-1.1,5.9-4l3.6,1.5c-1.7,4-5.2,6.2-9.5,6.2C512.1,335.7,508.8,330.5,508.8,324.6z"/>
		<path d="M532.2,313.8h14.4v3.6h-10.5v5.5h9.8v3.6h-9.8v5.4h10.5v3.7h-14.4V313.8z"/>
	</g>
	<g>
		<g>
			<defs>
				<rect id="SVGID_00000132078934375893489890000017668075023795416511_" x="154.1" y="-0.7" width="439.4" height="439.4"/>
			</defs>
			<clipPath id="SVGID_00000023986194909307877050000014463079485043706272_">
				<use xlink:href="#SVGID_00000132078934375893489890000017668075023795416511_"  style="overflow:visible;"/>
			</clipPath>
			<g style="clip-path:url(#SVGID_00000023986194909307877050000014463079485043706272_);">
				<g>
					<g>
						<path class="st4" d="M320,143.2c10.7,6,25.7,5.2,36-1.5C345.9,135.5,332.2,134.6,320,143.2z"/>
						<path d="M319.7,143.7c8.7,4.9,19.8,5.3,29.1,2.1c2.6-0.9,5.1-2.1,7.4-3.6c0.4-0.3,0.4-0.8,0-1.1c-8.5-5.1-18.9-6.3-28.3-2.8
							c-2.9,1.1-5.7,2.6-8.3,4.4c-0.6,0.4,0,1.5,0.6,1.1c4.3-3,9.2-5.1,14.5-5.9c4.6-0.7,9.4-0.3,13.9,1.2c2.5,0.8,4.8,1.9,7,3.2
							c0-0.4,0-0.7,0-1.1c-8,5.3-18.5,6.8-27.8,4.5c-2.6-0.7-5.2-1.6-7.5-2.9C319.7,142.3,319,143.4,319.7,143.7z"/>
					</g>
					<g>
						<path class="st4" d="M320,143.2c-2-4.5-5.6-5.6-7.6-5C312.9,140.1,314.3,142.9,320,143.2c-5.1,1-7.1,2.9-7.3,5.4
							C314.7,149,319.3,145.5,320,143.2"/>
						<path d="M320.6,142.9c-1.4-3-4.6-6.3-8.3-5.3c-0.3,0.1-0.5,0.4-0.4,0.8c0.3,1.3,1,2.5,2,3.4c1.7,1.5,4,1.9,6.2,2.1
							c-0.1-0.4-0.1-0.8-0.2-1.2c-3.3,0.6-7.3,2.1-7.8,5.9c0,0.2,0.2,0.5,0.4,0.6c1.6,0.3,3.4-0.8,4.6-1.7c1.4-1,2.9-2.3,3.5-4
							c0.2-0.7-0.9-1.1-1.2-0.3c-0.4,1.4-1.8,2.5-2.9,3.3c-0.6,0.5-1.3,0.9-2.1,1.2c-0.5,0.2-1.2,0.5-1.6,0.4
							c0.1,0.2,0.3,0.4,0.4,0.6c0.4-3.2,4.2-4.3,6.9-4.8c0.7-0.1,0.5-1.2-0.2-1.2c-1.9-0.1-3.9-0.5-5.4-1.8
							c-0.9-0.8-1.4-1.7-1.7-2.8c-0.1,0.3-0.3,0.5-0.4,0.8c1.1-0.3,2.4,0,3.4,0.6c1.7,0.9,2.8,2.5,3.6,4.2
							C319.8,144.2,320.9,143.6,320.6,142.9L320.6,142.9z"/>
					</g>
				</g>
				<g>
					<g>
						<path class="st4" d="M370.1,212.6c-17.1-15.5-36.6,0.8-35.9,1.7c0.2,0.3,8.9,7.3,18.8,6.9C359.7,221,366.8,218.5,370.1,212.6"
							/>
						<path d="M370.6,212.2c-2.8-2.5-6-4.6-9.6-5.7c-3-1-6.2-1.3-9.3-1c-5.1,0.4-10,2.3-14.3,5.1c-1.2,0.8-2.4,1.6-3.3,2.7
							c-0.3,0.3-0.6,0.7-0.5,1.1c0.1,0.4,0.7,0.7,1,1c4.5,3.5,10.2,5.9,15.9,6.4c3.5,0.3,7.1-0.2,10.4-1.4c3.2-1.1,6.2-2.8,8.3-5.4
							c0.5-0.6,1-1.3,1.4-2s-0.7-1.3-1.1-0.6c-3.3,5.7-10.2,8-16.4,8.3c-6,0.3-12-2.1-16.9-5.5c-0.6-0.4-1.1-0.8-1.5-1.1
							c-0.1,0-0.1-0.1-0.2-0.1c-0.1-0.1,0.1,0.1,0.1,0.2c0,0.2,0,0.3,0,0.3s0.1-0.1,0.1-0.2c0.1-0.2,0,0,0.1-0.1s0.1-0.2,0.2-0.2
							c0.2-0.2,0.4-0.4,0.5-0.5c0.5-0.5,1-0.9,1.6-1.3c3.7-2.7,8.1-4.5,12.6-5.3c2.8-0.5,5.7-0.4,8.5,0.2c3.3,0.7,6.4,2.2,9.1,4.2
							c0.8,0.6,1.5,1.2,2.2,1.8C370.3,213.6,371.1,212.7,370.6,212.2L370.6,212.2z"/>
					</g>
					<g>
						<path class="st4" d="M334.2,214.2c-1.4-2.8-2.4-3.6-5.1-5.3c-1.9-1.1-4.3-0.5-4.3-0.5s0.5,2.3,2.6,3.6
							C329.4,213.3,332,213.9,334.2,214.2c-4.1,0.6-8.3,2.7-9.1,6.8c2.5,0.3,4.4-0.6,6.2-2.3S333,216.4,334.2,214.2"/>
						<path d="M334.7,213.9c-0.5-1-1.1-2-1.8-2.8c-0.7-0.8-1.5-1.4-2.4-2c-1.1-0.7-2.2-1.3-3.5-1.4c-0.7-0.1-1.5,0-2.3,0.2
							c-0.3,0.1-0.5,0.4-0.4,0.8c1,4.4,6.1,5.7,9.9,6.2c-0.1-0.4-0.1-0.8-0.2-1.2c-4.1,0.6-8.6,2.8-9.6,7.2
							c-0.1,0.4,0.2,0.7,0.6,0.8c2.4,0.3,4.6-0.6,6.4-2.3c0.7-0.7,1.4-1.4,2-2.3c0.5-0.8,0.9-1.7,1.3-2.5c0.4-0.7-0.7-1.3-1.1-0.6
							c-0.4,0.8-0.8,1.6-1.2,2.4c-0.4,0.7-1,1.4-1.6,2c-0.7,0.7-1.6,1.4-2.6,1.8c-1,0.4-2.1,0.5-3.2,0.3c0.2,0.3,0.4,0.5,0.6,0.8
							c0.9-4,5-5.8,8.7-6.3c0.3,0,0.5-0.4,0.4-0.7c0-0.3-0.3-0.5-0.6-0.5c-3.3-0.4-7.9-1.6-8.8-5.3c-0.1,0.3-0.3,0.5-0.4,0.8
							c0.6-0.2,1.3-0.2,1.9-0.1c1.2,0.1,2.1,0.7,3.1,1.3c0.7,0.5,1.4,1,2,1.7c0.7,0.8,1.2,1.7,1.6,2.6
							C334,215.2,335.1,214.6,334.7,213.9L334.7,213.9z"/>
					</g>
				</g>
				<g>
					<path d="M314,111.1c-2.8-2.5-6-4.6-9.6-5.7c-3-1-6.2-1.3-9.3-1c-5.1,0.4-10,2.3-14.3,5.1c-1.2,0.8-2.4,1.6-3.3,2.7
						c-0.3,0.3-0.6,0.7-0.5,1.1s0.7,0.7,1,1c4.5,3.5,10.2,5.9,15.9,6.4c3.5,0.3,7.1-0.2,10.4-1.4c3.2-1.1,6.2-2.8,8.3-5.4
						c0.5-0.6,1-1.3,1.4-2s-0.7-1.3-1.1-0.6c-3.3,5.7-10.2,8-16.4,8.3c-6,0.3-12-2.1-16.9-5.5c-0.6-0.4-1.1-0.8-1.5-1.1
						c-0.1,0-0.1-0.1-0.2-0.1c-0.1-0.1,0.1,0.1,0.1,0.2c0,0.2,0,0.3,0,0.3s0.1-0.1,0.1-0.2c0.1-0.2,0,0,0.1-0.1s0.1-0.2,0.2-0.2
						c0.2-0.2,0.4-0.4,0.5-0.5c0.5-0.5,1-0.9,1.6-1.3c3.7-2.7,8.1-4.5,12.6-5.3c2.8-0.5,5.7-0.4,8.5,0.2c3.3,0.7,6.4,2.2,9.1,4.2
						c0.8,0.6,1.5,1.2,2.2,1.8C313.7,112.5,314.6,111.6,314,111.1L314,111.1z"/>
					<path d="M278.1,112.8c-0.5-1-1.1-2-1.8-2.8c-0.7-0.8-1.5-1.4-2.4-2c-1.1-0.7-2.2-1.3-3.5-1.4c-0.7-0.1-1.5,0-2.3,0.2
						c-0.3,0.1-0.5,0.4-0.4,0.8c1,4.4,6.1,5.7,9.9,6.2c-0.1-0.4-0.1-0.8-0.2-1.2c-4.1,0.6-8.6,2.8-9.6,7.2c-0.1,0.4,0.2,0.7,0.6,0.8
						c2.4,0.3,4.6-0.6,6.4-2.3c0.7-0.7,1.4-1.4,2-2.3c0.5-0.8,0.9-1.7,1.3-2.5c0.4-0.7-0.7-1.3-1.1-0.6c-0.4,0.8-0.8,1.6-1.2,2.4
						c-0.4,0.7-1,1.4-1.6,2c-0.7,0.7-1.6,1.4-2.6,1.8s-2.1,0.5-3.2,0.3c0.2,0.3,0.4,0.5,0.6,0.8c0.9-4,5-5.8,8.7-6.3
						c0.3,0,0.5-0.4,0.4-0.7c0-0.3-0.3-0.5-0.6-0.5c-3.3-0.4-7.9-1.6-8.8-5.3c-0.1,0.3-0.3,0.5-0.4,0.8c0.6-0.2,1.3-0.2,1.9-0.1
						c1.2,0.1,2.1,0.7,3.1,1.3c0.7,0.5,1.4,1,2,1.7c0.7,0.8,1.2,1.7,1.6,2.6C277.4,114.1,278.5,113.5,278.1,112.8L278.1,112.8z"/>
				</g>
				<g>
					<path d="M330,177.9c-2.8-2.5-5.9-4.5-9.5-5.7c-2.9-1-6.1-1.3-9.2-1.1c-5.1,0.4-10,2.2-14.2,5c-1.2,0.8-2.5,1.7-3.5,2.7
						c-0.3,0.3-0.6,0.7-0.6,1.1c0,0.5,0.5,0.7,0.8,1c1.9,1.2,4,2.1,6.1,2.9c3.4,1.2,6.9,2,10.5,2.1c1.8,0,3.5-0.1,5.3-0.2
						c1.7-0.1,3.3-0.4,4.9-0.7c3-0.7,6-2,8-4.3c0.5-0.6,1-1.2,1.4-1.9s-0.7-1.3-1.1-0.6c-3.1,5.5-10.2,6.2-15.9,6.5
						c-3.5,0.2-7-0.2-10.4-1.2c-2.5-0.7-4.9-1.7-7.1-2.9c-0.5-0.3-1-0.6-1.5-0.9c-0.1-0.1,0.1,0.1,0,0c0.1,0.2,0.2,0.4,0.1,0.5
						c0,0-0.1,0.1,0,0c0,0,0.1-0.2,0.1-0.1c-0.1,0.1,0.1-0.1,0.1-0.2c0.1-0.1,0.2-0.2,0.2-0.3c0.2-0.2,0.4-0.4,0.6-0.6
						c0.6-0.5,1.1-0.9,1.7-1.3c3.7-2.6,8.1-4.4,12.6-5.1c6.2-0.9,12.3,0.7,17.4,4.4c0.8,0.6,1.5,1.2,2.2,1.8
						C329.7,179.2,330.5,178.4,330,177.9L330,177.9z"/>
					<path d="M294.1,179.5c-0.5-1-1.1-2-1.8-2.8c-0.7-0.8-1.5-1.4-2.4-2c-1.1-0.7-2.2-1.3-3.5-1.4c-0.7-0.1-1.5,0-2.3,0.2
						c-0.3,0.1-0.5,0.4-0.4,0.8c1,4.4,6.1,5.7,9.9,6.2c-0.1-0.4-0.1-0.8-0.2-1.2c-4.1,0.6-8.6,2.8-9.6,7.2c-0.1,0.4,0.2,0.7,0.6,0.8
						c2.4,0.3,4.6-0.6,6.4-2.3c0.7-0.7,1.4-1.4,2-2.3c0.5-0.8,0.9-1.7,1.3-2.5c0.4-0.7-0.7-1.3-1.1-0.6c-0.4,0.8-0.8,1.6-1.2,2.4
						c-0.4,0.7-1,1.4-1.6,2c-0.7,0.7-1.6,1.4-2.6,1.8c-1,0.4-2.1,0.5-3.2,0.3c0.2,0.3,0.4,0.5,0.6,0.8c0.9-4,5-5.8,8.7-6.3
						c0.3,0,0.5-0.4,0.4-0.7c0-0.3-0.3-0.5-0.6-0.5c-3.3-0.4-7.9-1.6-8.8-5.3c-0.1,0.3-0.3,0.5-0.4,0.8c0.6-0.2,1.3-0.2,1.9-0.1
						c1.2,0.1,2.1,0.7,3.1,1.3c0.7,0.5,1.4,1,2,1.7c0.7,0.8,1.2,1.7,1.6,2.6C293.4,180.9,294.5,180.2,294.1,179.5L294.1,179.5z"/>
				</g>
				<g>
					<path d="M402.4,169.1c-6.4-4-14.1-5.2-21.5-4.1c-3,0.4-5.9,1.2-8.7,2.2c-1.8,0.7-3.7,1.5-5.3,2.6c-0.6,0.4-2.1,1.4-0.9,2.1
						c1,0.6,2.1,1,3.1,1.4c4.6,1.8,9.5,3,14.4,3.3c6.1,0.4,12.4-0.9,17.3-4.8c0.6-0.5,1.3-1.1,1.8-1.7c0.6-0.6-0.3-1.4-0.9-0.9
						c-4.2,4.3-10,6.2-16,6.2c-5,0-9.9-1-14.6-2.7c-1.4-0.5-2.6-1-3.9-1.6c-0.2-0.1-0.3-0.1-0.5-0.2l-0.1-0.1c-0.1,0-0.1-0.1,0,0
						c0.1,0.2,0.2,0.2,0.2,0.4c0-0.1,0,0.2,0,0.1c0,0-0.1,0.2,0,0.1c0-0.1-0.1,0.1,0,0s0.1-0.1,0.2-0.2l0.1-0.1c0.1-0.1,0,0,0,0
						c1.3-1,2.8-1.7,4.3-2.3c2.5-1,5-1.8,7.7-2.3c6.8-1.3,14-0.9,20.2,2.2c0.9,0.4,1.7,0.9,2.6,1.4
						C402.5,170.6,403.1,169.5,402.4,169.1L402.4,169.1z"/>
					<path d="M366.7,170.9c-0.5-1-1.1-2-1.8-2.8c-0.7-0.8-1.5-1.4-2.4-2c-1.1-0.7-2.2-1.3-3.5-1.4c-0.7-0.1-1.5,0-2.3,0.2
						c-0.3,0.1-0.5,0.4-0.4,0.8c1,4.4,6.1,5.7,9.9,6.2c-0.1-0.4-0.1-0.8-0.2-1.2c-4.1,0.6-8.6,2.8-9.6,7.2c-0.1,0.4,0.2,0.7,0.6,0.8
						c2.4,0.3,4.6-0.6,6.4-2.3c0.7-0.7,1.4-1.4,2-2.3c0.5-0.8,0.9-1.7,1.3-2.5c0.4-0.7-0.7-1.3-1.1-0.6c-0.4,0.8-0.8,1.6-1.2,2.4
						c-0.4,0.7-1,1.4-1.6,2c-0.7,0.7-1.6,1.4-2.6,1.8c-1,0.4-2.1,0.5-3.2,0.3c0.2,0.3,0.4,0.5,0.6,0.8c0.9-4,5-5.8,8.7-6.3
						c0.3,0,0.5-0.4,0.4-0.7c0-0.3-0.3-0.5-0.6-0.5c-3.3-0.4-7.9-1.6-8.8-5.3c-0.1,0.3-0.3,0.5-0.4,0.8c0.6-0.2,1.3-0.2,1.9-0.1
						c1.2,0.1,2.1,0.7,3.1,1.3c0.7,0.5,1.4,1,2,1.7c0.7,0.8,1.2,1.7,1.6,2.6C366,172.2,367.1,171.6,366.7,170.9L366.7,170.9z"/>
				</g>
				<g>
					<path d="M299.3,211.1c-6.4-4-14.1-5.2-21.5-4.1c-3,0.4-5.9,1.2-8.7,2.2c-1.8,0.7-3.7,1.5-5.3,2.6c-0.6,0.4-2.1,1.4-0.9,2.1
						c1,0.6,2.1,1,3.1,1.4c4.6,1.8,9.5,3,14.4,3.3c6.1,0.4,12.4-0.9,17.3-4.8c0.6-0.5,1.3-1.1,1.8-1.7c0.6-0.6-0.3-1.4-0.9-0.9
						c-4.2,4.3-10,6.2-16,6.2c-5,0-9.9-1-14.6-2.7c-1.4-0.5-2.6-1-3.9-1.6c-0.2-0.1-0.3-0.1-0.5-0.2l-0.1-0.1c-0.1,0-0.1-0.1,0,0
						c0.1,0.2,0.2,0.2,0.2,0.4c0-0.1,0,0.2,0,0.1c0,0-0.1,0.2,0,0.1c0-0.1-0.1,0.1,0,0s0.1-0.1,0.2-0.2l0.1-0.1c0.1-0.1,0,0,0,0
						c1.3-1,2.8-1.7,4.3-2.3c2.5-1,5-1.8,7.7-2.3c6.8-1.3,14-0.9,20.2,2.2c0.9,0.4,1.7,0.9,2.6,1.4
						C299.3,212.6,299.9,211.5,299.3,211.1L299.3,211.1z"/>
					<path d="M263.6,212.9c-0.5-1-1.1-2-1.8-2.8c-0.7-0.8-1.5-1.4-2.4-2c-1.1-0.7-2.2-1.3-3.5-1.4c-0.7-0.1-1.5,0-2.3,0.2
						c-0.3,0.1-0.5,0.4-0.4,0.8c1,4.4,6.1,5.7,9.9,6.2c-0.1-0.4-0.1-0.8-0.2-1.2c-4.1,0.6-8.6,2.8-9.6,7.2c-0.1,0.4,0.2,0.7,0.6,0.8
						c2.4,0.3,4.6-0.6,6.4-2.3c0.7-0.7,1.4-1.4,2-2.3c0.5-0.8,0.9-1.7,1.3-2.5c0.4-0.7-0.7-1.3-1.1-0.6c-0.4,0.8-0.8,1.6-1.2,2.4
						c-0.4,0.7-1,1.4-1.6,2c-0.7,0.7-1.6,1.4-2.6,1.8c-1,0.4-2.1,0.5-3.2,0.3c0.2,0.3,0.4,0.5,0.6,0.8c0.9-4,5-5.8,8.7-6.3
						c0.3,0,0.5-0.4,0.4-0.7c0-0.3-0.3-0.5-0.6-0.5c-3.3-0.4-7.9-1.6-8.8-5.3c-0.1,0.3-0.3,0.5-0.4,0.8c0.6-0.2,1.3-0.2,1.9-0.1
						c1.2,0.1,2.1,0.7,3.1,1.3c0.7,0.5,1.4,1,2,1.7c0.7,0.8,1.2,1.7,1.6,2.6C262.9,214.2,263.9,213.6,263.6,212.9L263.6,212.9z"/>
				</g>
				<circle cx="320.6" cy="178.6" r="1.4"/>
				<g>
					<g>
						<path class="st4" d="M266.7,72.8c-17.1-15.5-36.6,0.8-35.9,1.7c0.2,0.3,8.5,5.6,18.4,5.2C255.9,79.4,263.4,78.6,266.7,72.8"/>
						<path d="M267.1,72.3c-2.8-2.5-5.9-4.5-9.5-5.7c-2.9-1-6.1-1.3-9.2-1.1c-5.1,0.4-10,2.2-14.2,5c-1.2,0.8-2.5,1.7-3.5,2.7
							c-0.3,0.3-0.6,0.7-0.6,1.1c0,0.5,0.5,0.7,0.8,1c1.9,1.2,4,2.1,6.1,2.9c3.4,1.2,6.9,2,10.5,2.1c1.8,0,3.5-0.1,5.3-0.2
							c1.7-0.1,3.3-0.4,4.9-0.7c3-0.7,6-2,8-4.3c0.5-0.6,1-1.2,1.4-1.9c0.4-0.7-0.7-1.3-1.1-0.6c-3,5.4-10,6.1-15.8,6.4
							c-3.5,0.2-7-0.2-10.4-1.2c-2.5-0.7-4.9-1.7-7.1-2.9c-0.5-0.3-1-0.6-1.5-0.9c-0.1-0.1,0.1,0.1,0,0c0.1,0.2,0.2,0.4,0.1,0.5
							c0,0-0.1,0.1,0,0c0,0,0.1-0.2,0.1-0.1c-0.1,0.1,0.1-0.1,0.1-0.2c0.1-0.1,0.2-0.2,0.2-0.3c0.2-0.2,0.4-0.4,0.6-0.6
							c0.6-0.5,1.1-0.9,1.7-1.3c3.7-2.6,8.1-4.4,12.6-5.1c6.2-0.9,12.3,0.7,17.4,4.4c0.8,0.6,1.5,1.2,2.2,1.8
							C266.8,73.7,267.7,72.9,267.1,72.3L267.1,72.3z"/>
					</g>
					<g>
						<path class="st4" d="M230.7,74.3c-1.4-2.8-2.4-3.6-5.1-5.3c-1.9-1.1-4.3-0.5-4.3-0.5s0.5,2.3,2.6,3.6
							C225.9,73.4,228.5,74.1,230.7,74.3c-4.1,0.6-8.3,2.7-9.1,6.8c2.5,0.3,4.4-0.6,6.2-2.3C229.6,77,229.6,76.5,230.7,74.3"/>
						<path d="M231.3,74c-0.5-1-1.1-2-1.8-2.8s-1.5-1.4-2.4-2c-1.1-0.7-2.2-1.3-3.5-1.4c-0.7-0.1-1.5,0-2.3,0.2
							c-0.3,0.1-0.5,0.4-0.4,0.8c1,4.4,6.1,5.7,9.9,6.2c-0.1-0.4-0.1-0.8-0.2-1.2c-4.1,0.6-8.6,2.8-9.6,7.2
							c-0.1,0.4,0.2,0.7,0.6,0.8c2.4,0.3,4.6-0.6,6.4-2.3c0.7-0.7,1.4-1.4,2-2.3c0.5-0.8,0.9-1.7,1.3-2.5c0.4-0.7-0.7-1.3-1.1-0.6
							c-0.4,0.8-0.8,1.6-1.2,2.4c-0.4,0.7-1,1.4-1.6,2c-0.7,0.7-1.6,1.4-2.6,1.8s-2.1,0.5-3.2,0.3c0.2,0.3,0.4,0.5,0.6,0.8
							c0.9-4,5-5.8,8.7-6.3c0.3,0,0.5-0.4,0.4-0.7c0-0.3-0.3-0.5-0.6-0.5c-3.3-0.4-7.9-1.6-8.8-5.3c-0.1,0.3-0.3,0.5-0.4,0.8
							c0.6-0.2,1.3-0.2,1.9-0.1c1.2,0.1,2.1,0.7,3.1,1.3c0.7,0.5,1.4,1,2,1.7c0.7,0.8,1.2,1.7,1.6,2.6
							C230.6,75.3,231.6,74.7,231.3,74L231.3,74z"/>
					</g>
				</g>
				<circle cx="257.8" cy="73.1" r="1.4"/>
				<g>
					<g>
						<path class="st4" d="M342.7,73.9c-17.1-15.5-36.6,0.8-35.9,1.7c0.2,0.3,8.5,5.6,18.4,5.2C331.9,80.5,339.4,79.8,342.7,73.9"/>
						<path d="M343.1,73.5c-2.8-2.5-5.9-4.5-9.5-5.7c-2.9-1-6.1-1.3-9.2-1.1c-5.1,0.4-10,2.2-14.2,5c-1.2,0.8-2.5,1.7-3.5,2.7
							c-0.3,0.3-0.6,0.7-0.6,1.1c0,0.5,0.5,0.7,0.8,1c1.9,1.2,4,2.1,6.1,2.9c3.4,1.2,6.9,2,10.5,2.1c1.8,0,3.5-0.1,5.3-0.2
							c1.7-0.1,3.3-0.4,4.9-0.7c3-0.7,6-2,8-4.3c0.5-0.6,1-1.2,1.4-1.9c0.4-0.7-0.7-1.3-1.1-0.6c-3.1,5.5-10.2,6.2-15.9,6.5
							c-3.5,0.2-7-0.2-10.4-1.2c-2.5-0.7-4.9-1.7-7.1-2.9c-0.5-0.3-1-0.6-1.5-0.9c-0.1-0.1,0.1,0.1,0,0c0.1,0.2,0.2,0.4,0.1,0.5
							c0,0-0.1,0.1,0,0c0,0,0.1-0.2,0.1-0.1c-0.1,0.1,0.1-0.1,0.1-0.2c0.1-0.1,0.2-0.2,0.2-0.3c0.2-0.2,0.4-0.4,0.6-0.6
							c0.6-0.5,1.1-0.9,1.7-1.3c3.7-2.6,8.1-4.4,12.6-5.1c6.2-0.9,12.3,0.7,17.4,4.4c0.8,0.6,1.5,1.2,2.2,1.8
							C342.8,74.9,343.7,74,343.1,73.5L343.1,73.5z"/>
					</g>
					<g>
						<path class="st4" d="M306.7,75.5c-1.4-2.8-2.4-3.6-5.1-5.3c-1.9-1.1-4.3-0.5-4.3-0.5s0.5,2.3,2.6,3.6
							C301.9,74.5,304.5,75.2,306.7,75.5c-4.1,0.6-8.3,2.7-9.1,6.8c2.5,0.3,4.4-0.6,6.2-2.3S305.6,77.7,306.7,75.5"/>
						<path d="M307.3,75.2c-0.5-1-1.1-2-1.8-2.8c-0.7-0.8-1.5-1.4-2.4-2c-1.1-0.7-2.2-1.3-3.5-1.4c-0.7-0.1-1.5,0-2.3,0.2
							c-0.3,0.1-0.5,0.4-0.4,0.8c1,4.4,6.1,5.7,9.9,6.2c-0.1-0.4-0.1-0.8-0.2-1.2c-4.1,0.6-8.6,2.8-9.6,7.2
							c-0.1,0.4,0.2,0.7,0.6,0.8c2.4,0.3,4.6-0.6,6.4-2.3c0.7-0.7,1.4-1.4,2-2.3c0.5-0.8,0.9-1.7,1.3-2.5c0.4-0.7-0.7-1.3-1.1-0.6
							c-0.4,0.8-0.8,1.6-1.2,2.4c-0.4,0.7-1,1.4-1.6,2c-0.7,0.7-1.6,1.4-2.6,1.8s-2.1,0.5-3.2,0.3c0.2,0.3,0.4,0.5,0.6,0.8
							c0.9-4,5-5.8,8.7-6.3c0.3,0,0.5-0.4,0.4-0.7c0-0.3-0.3-0.5-0.6-0.5c-3.3-0.4-7.9-1.6-8.8-5.3c-0.1,0.3-0.3,0.5-0.4,0.8
							c0.6-0.2,1.3-0.2,1.9-0.1c1.2,0.1,2.1,0.7,3.1,1.3c0.7,0.5,1.4,1,2,1.7c0.7,0.8,1.2,1.7,1.6,2.6
							C306.6,76.5,307.6,75.9,307.3,75.2L307.3,75.2z"/>
					</g>
				</g>
				<circle cx="333.8" cy="74.2" r="1.4"/>
				<g>
					<g>
						<path class="st4" d="M318,253.2c-17.1-15.5-36.6,0.8-35.9,1.7c0.2,0.3,8.5,5.6,18.4,5.2C307.2,259.8,314.7,259.1,318,253.2"/>
						<path d="M318.4,252.8c-2.8-2.5-5.9-4.5-9.5-5.7c-2.9-1-6.1-1.3-9.2-1.1c-5.1,0.4-10,2.2-14.2,5c-1.2,0.8-2.5,1.7-3.5,2.7
							c-0.3,0.3-0.6,0.7-0.6,1.1c0,0.5,0.5,0.7,0.8,1c1.9,1.2,4,2.1,6.1,2.9c3.4,1.2,6.9,2,10.5,2.1c1.8,0,3.5-0.1,5.3-0.2
							c1.7-0.1,3.3-0.4,4.9-0.7c3-0.7,6-2,8-4.3c0.5-0.6,1-1.2,1.4-1.9s-0.7-1.3-1.1-0.6c-3.1,5.5-10.2,6.2-15.9,6.5
							c-3.5,0.2-7-0.2-10.4-1.2c-2.5-0.7-4.9-1.7-7.1-2.9c-0.5-0.3-1-0.6-1.5-0.9c-0.1-0.1,0.1,0.1,0,0c0.1,0.2,0.2,0.4,0.1,0.5
							c0,0-0.1,0.1,0,0c0,0,0.1-0.2,0.1-0.1c-0.1,0.1,0.1-0.1,0.1-0.2c0.1-0.1,0.2-0.2,0.2-0.3c0.2-0.2,0.4-0.4,0.6-0.6
							c0.6-0.5,1.1-0.9,1.7-1.3c3.7-2.6,8.1-4.4,12.6-5.1c6.2-0.9,12.3,0.7,17.4,4.4c0.8,0.6,1.5,1.2,2.2,1.8
							C318.1,254.2,319,253.3,318.4,252.8L318.4,252.8z"/>
					</g>
					<g>
						<path class="st4" d="M282,254.8c-1.4-2.8-2.4-3.6-5.1-5.3c-1.9-1.1-4.3-0.5-4.3-0.5s0.5,2.3,2.6,3.6
							C277.2,253.8,279.8,254.5,282,254.8c-4.1,0.6-8.3,2.7-9.1,6.8c2.5,0.3,4.4-0.6,6.2-2.3S280.9,257,282,254.8"/>
						<path d="M282.6,254.5c-0.5-1-1.1-2-1.8-2.8c-0.7-0.8-1.5-1.4-2.4-2c-1.1-0.7-2.2-1.3-3.5-1.4c-0.7-0.1-1.5,0-2.3,0.2
							c-0.3,0.1-0.5,0.4-0.4,0.8c1,4.4,6.1,5.7,9.9,6.2c-0.1-0.4-0.1-0.8-0.2-1.2c-4.1,0.6-8.6,2.8-9.6,7.2
							c-0.1,0.4,0.2,0.7,0.6,0.8c2.4,0.3,4.6-0.6,6.4-2.3c0.7-0.7,1.4-1.4,2-2.3c0.5-0.8,0.9-1.7,1.3-2.5c0.4-0.7-0.7-1.3-1.1-0.6
							c-0.4,0.8-0.8,1.6-1.2,2.4c-0.4,0.7-1,1.4-1.6,2c-0.7,0.7-1.6,1.4-2.6,1.8s-2.1,0.5-3.2,0.3c0.2,0.3,0.4,0.5,0.6,0.8
							c0.9-4,5-5.8,8.7-6.3c0.3,0,0.5-0.4,0.4-0.7c0-0.3-0.3-0.5-0.6-0.5c-3.3-0.4-7.9-1.6-8.8-5.3c-0.1,0.3-0.3,0.5-0.4,0.8
							c0.6-0.2,1.3-0.2,1.9-0.1c1.2,0.1,2.1,0.7,3.1,1.3c0.7,0.5,1.4,1,2,1.7c0.7,0.8,1.2,1.7,1.6,2.6
							C281.9,255.8,282.9,255.2,282.6,254.5L282.6,254.5z"/>
					</g>
				</g>
				<circle cx="309.1" cy="253.5" r="1.4"/>
				<g>
					<g>
						<path class="st4" d="M187.4,220.4c-17.1-15.5-36.6,0.8-35.9,1.7c0.2,0.3,8.5,5.6,18.4,5.2C176.6,227,184.1,226.2,187.4,220.4"
							/>
						<path d="M187.8,220c-2.8-2.5-5.9-4.5-9.5-5.7c-2.9-1-6.1-1.3-9.2-1.1c-5.1,0.4-10,2.2-14.2,5c-1.2,0.8-2.5,1.7-3.5,2.7
							c-0.3,0.3-0.6,0.7-0.6,1.1c0,0.5,0.5,0.7,0.8,1c1.9,1.2,4,2.1,6.1,2.9c3.4,1.2,6.9,2,10.5,2.1c1.8,0,3.5-0.1,5.3-0.2
							c1.7-0.1,3.3-0.4,4.9-0.7c3-0.7,6-2,8-4.3c0.5-0.6,1-1.2,1.4-1.9s-0.7-1.3-1.1-0.6c-3.1,5.5-10.2,6.2-15.9,6.5
							c-3.5,0.2-7-0.2-10.4-1.2c-2.5-0.7-4.9-1.7-7.1-2.9c-0.5-0.3-1-0.6-1.5-0.9c-0.1-0.1,0.1,0.1,0,0c0.1,0.2,0.2,0.4,0.1,0.5
							c0,0-0.1,0.1,0,0c0,0,0.1-0.2,0.1-0.1c-0.1,0.1,0.1-0.1,0.1-0.2c0.1-0.1,0.2-0.2,0.2-0.3c0.2-0.2,0.4-0.4,0.6-0.6
							c0.6-0.5,1.1-0.9,1.7-1.3c3.7-2.6,8.1-4.4,12.6-5.1c6.2-0.9,12.3,0.7,17.4,4.4c0.8,0.6,1.5,1.2,2.2,1.8
							C187.5,221.3,188.4,220.5,187.8,220L187.8,220z"/>
					</g>
				</g>
				<circle cx="178.5" cy="220.7" r="1.4"/>
				<g>
					<g>
						<path class="st4" d="M507.1,141.2c-17.1-15.5-36.6,0.8-35.9,1.7c0.2,0.3,8.5,5.6,18.4,5.2C496.3,147.8,503.9,147,507.1,141.2"
							/>
						<path d="M507.6,140.7c-2.8-2.5-5.9-4.5-9.5-5.7c-2.9-1-6.1-1.3-9.2-1.1c-5.1,0.4-10,2.2-14.2,5c-1.2,0.8-2.5,1.7-3.5,2.7
							c-0.3,0.3-0.6,0.7-0.6,1.1c0,0.5,0.5,0.7,0.8,1c1.9,1.2,4,2.1,6.1,2.9c3.4,1.2,6.9,2,10.5,2.1c1.8,0,3.5-0.1,5.3-0.2
							c1.7-0.1,3.3-0.4,4.9-0.7c3-0.7,6-2,8-4.3c0.5-0.6,1-1.2,1.4-1.9s-0.7-1.3-1.1-0.6c-3.1,5.5-10.2,6.2-15.9,6.5
							c-3.5,0.2-7-0.2-10.4-1.2c-2.5-0.7-4.9-1.7-7.1-2.9c-0.5-0.3-1-0.6-1.5-0.9c-0.1-0.1,0.1,0.1,0,0c0.1,0.2,0.2,0.4,0.1,0.5
							c0,0-0.1,0.1,0,0c0,0,0.1-0.2,0.1-0.1c-0.1,0.1,0.1-0.1,0.1-0.2c0.1-0.1,0.2-0.2,0.2-0.3c0.2-0.2,0.4-0.4,0.6-0.6
							c0.6-0.5,1.1-0.9,1.7-1.3c3.7-2.6,8.1-4.4,12.6-5.1c6.2-0.9,12.3,0.7,17.4,4.4c0.8,0.6,1.5,1.2,2.2,1.8
							C507.3,142.1,508.2,141.3,507.6,140.7L507.6,140.7z"/>
					</g>
					<g>
						<path class="st4" d="M471.2,142.7c-1.4-2.8-2.4-3.6-5.1-5.3c-1.9-1.1-4.3-0.5-4.3-0.5s0.5,2.3,2.6,3.6
							C466.4,141.8,469,142.5,471.2,142.7c-4.1,0.6-8.3,2.7-9.1,6.8c2.5,0.3,4.4-0.6,6.2-2.3S470,145,471.2,142.7"/>
						<path d="M471.7,142.4c-0.5-1-1.1-2-1.8-2.8c-0.7-0.8-1.5-1.4-2.4-2c-1.1-0.7-2.2-1.3-3.5-1.4c-0.7-0.1-1.5,0-2.3,0.2
							c-0.3,0.1-0.5,0.4-0.4,0.8c1,4.4,6.1,5.7,9.9,6.2c-0.1-0.4-0.1-0.8-0.2-1.2c-4.1,0.6-8.6,2.8-9.6,7.2
							c-0.1,0.4,0.2,0.7,0.6,0.8c2.4,0.3,4.6-0.6,6.4-2.3c0.7-0.7,1.4-1.4,2-2.3c0.5-0.8,0.9-1.7,1.3-2.5c0.4-0.7-0.7-1.3-1.1-0.6
							c-0.4,0.8-0.8,1.6-1.2,2.4c-0.4,0.7-1,1.4-1.6,2c-0.7,0.7-1.6,1.4-2.6,1.8c-1,0.4-2.1,0.5-3.2,0.3c0.2,0.3,0.4,0.5,0.6,0.8
							c0.9-4,5-5.8,8.7-6.3c0.3,0,0.5-0.4,0.4-0.7c0-0.3-0.3-0.5-0.6-0.5c-3.3-0.4-7.9-1.6-8.8-5.3c-0.1,0.3-0.3,0.5-0.4,0.8
							c0.6-0.2,1.3-0.2,1.9-0.1c1.2,0.1,2.1,0.7,3.1,1.3c0.7,0.5,1.4,1,2,1.7c0.7,0.8,1.2,1.7,1.6,2.6
							C471.1,143.7,472.1,143.1,471.7,142.4L471.7,142.4z"/>
					</g>
				</g>
				<circle cx="498.3" cy="141.5" r="1.4"/>
				<g>
					<path d="M280,146c-2.8-2.5-5.9-4.5-9.5-5.7c-2.9-1-6.1-1.3-9.2-1.1c-5.1,0.4-10,2.2-14.2,5c-1.2,0.8-2.5,1.7-3.5,2.7
						c-0.3,0.3-0.6,0.7-0.6,1.1c0,0.5,0.5,0.7,0.8,1c1.9,1.2,4,2.1,6.1,2.9c3.4,1.2,6.9,2,10.5,2.1c1.8,0,3.5-0.1,5.3-0.2
						c1.7-0.1,3.3-0.4,4.9-0.7c3-0.7,6-2,8-4.3c0.5-0.6,1-1.2,1.4-1.9s-0.7-1.3-1.1-0.6c-3.1,5.5-10.2,6.2-15.9,6.5
						c-3.5,0.2-7-0.2-10.4-1.2c-2.5-0.7-4.9-1.7-7.1-2.9c-0.5-0.3-1-0.6-1.5-0.9c-0.1-0.1,0.1,0.1,0,0c0.1,0.2,0.2,0.4,0.1,0.5
						c0,0-0.1,0.1,0,0c0,0,0.1-0.2,0.1-0.1c-0.1,0.1,0.1-0.1,0.1-0.2c0.1-0.1,0.2-0.2,0.2-0.3c0.2-0.2,0.4-0.4,0.6-0.6
						c0.6-0.5,1.1-0.9,1.7-1.3c3.7-2.6,8.1-4.4,12.6-5.1c6.2-0.9,12.3,0.7,17.4,4.4c0.8,0.6,1.5,1.2,2.2,1.8
						C279.7,147.4,280.6,146.5,280,146L280,146z"/>
					<path d="M244.2,147.7c-0.5-1-1.1-2-1.8-2.8s-1.5-1.4-2.4-2c-1.1-0.7-2.2-1.3-3.5-1.4c-0.7-0.1-1.5,0-2.3,0.2
						c-0.3,0.1-0.5,0.4-0.4,0.8c1,4.4,6.1,5.7,9.9,6.2c-0.1-0.4-0.1-0.8-0.2-1.2c-4.1,0.6-8.6,2.8-9.6,7.2c-0.1,0.4,0.2,0.7,0.6,0.8
						c2.4,0.3,4.6-0.6,6.4-2.3c0.7-0.7,1.4-1.4,2-2.3c0.5-0.8,0.9-1.7,1.3-2.5c0.4-0.7-0.7-1.3-1.1-0.6c-0.4,0.8-0.8,1.6-1.2,2.4
						c-0.4,0.7-1,1.4-1.6,2c-0.7,0.7-1.6,1.4-2.6,1.8c-1,0.4-2.1,0.5-3.2,0.3c0.2,0.3,0.4,0.5,0.6,0.8c0.9-4,5-5.8,8.7-6.3
						c0.3,0,0.5-0.4,0.4-0.7c0-0.3-0.3-0.5-0.6-0.5c-3.3-0.4-7.9-1.6-8.8-5.3c-0.1,0.3-0.3,0.5-0.4,0.8c0.6-0.2,1.3-0.2,1.9-0.1
						c1.2,0.1,2.1,0.7,3.1,1.3c0.7,0.5,1.4,1,2,1.7c0.7,0.8,1.2,1.7,1.6,2.6C243.5,149,244.5,148.4,244.2,147.7L244.2,147.7z"/>
				</g>
				<circle cx="270.7" cy="146.7" r="1.4"/>
				<circle cx="361.5" cy="213.3" r="1.4"/>
				<g>
					<g>
						<path class="st4" d="M250.6,190.5c-17.1-15.5-36.6,0.8-35.9,1.7c0.2,0.3,8.9,7.3,18.8,6.9
							C240.2,198.9,247.3,196.4,250.6,190.5"/>
						<path d="M251,190.1c-2.8-2.5-6-4.6-9.6-5.7c-3-1-6.2-1.3-9.3-1c-5.1,0.4-10,2.3-14.3,5.1c-1.2,0.8-2.4,1.6-3.3,2.7
							c-0.3,0.3-0.6,0.7-0.5,1.1c0.1,0.4,0.7,0.7,1,1c4.5,3.5,10.2,5.9,15.9,6.4c3.5,0.3,7.1-0.2,10.4-1.4c3.2-1.1,6.2-2.8,8.3-5.4
							c0.5-0.6,1-1.3,1.4-2s-0.7-1.3-1.1-0.6c-3.3,5.7-10.2,8-16.4,8.3c-6,0.3-12-2.1-16.9-5.5c-0.6-0.4-1.1-0.8-1.5-1.1
							c-0.1,0-0.1-0.1-0.2-0.1c-0.1-0.1,0.1,0.1,0.1,0.2c0,0.2,0,0.3,0,0.3s0.1-0.1,0.1-0.2c0.1-0.2,0,0,0.1-0.1s0.1-0.2,0.2-0.2
							c0.2-0.2,0.4-0.4,0.5-0.5c0.5-0.5,1-0.9,1.6-1.3c3.7-2.7,8.1-4.5,12.6-5.3c2.8-0.5,5.7-0.4,8.5,0.2c3.3,0.7,6.4,2.2,9.1,4.2
							c0.8,0.6,1.5,1.2,2.2,1.8C250.7,191.5,251.6,190.6,251,190.1L251,190.1z"/>
					</g>
					<g>
						<path class="st4" d="M214.7,192.1c-1.4-2.8-2.4-3.6-5.1-5.3c-1.9-1.1-4.3-0.5-4.3-0.5s0.5,2.3,2.6,3.6
							C209.8,191.2,212.5,191.8,214.7,192.1c-4.1,0.6-8.3,2.7-9.1,6.8c2.5,0.3,4.4-0.6,6.2-2.3C213.5,194.8,213.5,194.3,214.7,192.1
							"/>
						<path d="M215.2,191.8c-0.5-1-1.1-2-1.8-2.8s-1.5-1.4-2.4-2c-1.1-0.7-2.2-1.3-3.5-1.4c-0.7-0.1-1.5,0-2.3,0.2
							c-0.3,0.1-0.5,0.4-0.4,0.8c1,4.4,6.1,5.7,9.9,6.2c-0.1-0.4-0.1-0.8-0.2-1.2c-4.1,0.6-8.6,2.8-9.6,7.2
							c-0.1,0.4,0.2,0.7,0.6,0.8c2.4,0.3,4.6-0.6,6.4-2.3c0.7-0.7,1.4-1.4,2-2.3c0.5-0.8,0.9-1.7,1.3-2.5c0.4-0.7-0.7-1.3-1.1-0.6
							c-0.4,0.8-0.8,1.6-1.2,2.4c-0.4,0.7-1,1.4-1.6,2c-0.7,0.7-1.6,1.4-2.6,1.8c-1,0.4-2.1,0.5-3.2,0.3c0.2,0.3,0.4,0.5,0.6,0.8
							c0.9-4,5-5.8,8.7-6.3c0.3,0,0.5-0.4,0.4-0.7c0-0.3-0.3-0.5-0.6-0.5c-3.3-0.4-7.9-1.6-8.8-5.3c-0.1,0.3-0.3,0.5-0.4,0.8
							c0.6-0.2,1.3-0.2,1.9-0.1c1.2,0.1,2.1,0.7,3.1,1.3c0.7,0.5,1.4,1,2,1.7c0.7,0.8,1.2,1.7,1.6,2.6
							C214.5,193.1,215.6,192.5,215.2,191.8L215.2,191.8z"/>
					</g>
				</g>
				<circle cx="242" cy="191.2" r="1.4"/>
				<g>
					<path d="M194.5,90.6c-2.8-2.5-6-4.6-9.6-5.7c-3-1-6.2-1.3-9.3-1c-5.1,0.4-10,2.3-14.3,5.1c-1.2,0.8-2.4,1.6-3.3,2.7
						c-0.3,0.3-0.6,0.7-0.5,1.1s0.7,0.7,1,1c4.5,3.5,10.2,5.9,15.9,6.4c3.5,0.3,7.1-0.2,10.4-1.4c3.2-1.1,6.2-2.8,8.3-5.4
						c0.5-0.6,1-1.3,1.4-2s-0.7-1.3-1.1-0.6c-3.3,5.7-10.2,8-16.4,8.3c-6,0.3-12-2.1-16.9-5.5c-0.6-0.4-1.1-0.8-1.5-1.1
						c-0.1,0-0.1-0.1-0.2-0.1c-0.1-0.1,0.1,0.1,0.1,0.2c0,0.2,0,0.3,0,0.3s0.1-0.1,0.1-0.2c0.1-0.2,0,0,0.1-0.1s0.1-0.2,0.2-0.2
						c0.2-0.2,0.4-0.4,0.5-0.5c0.5-0.5,1-0.9,1.6-1.3c3.7-2.7,8.1-4.5,12.6-5.3c2.8-0.5,5.7-0.4,8.5,0.2c3.3,0.7,6.4,2.2,9.1,4.2
						c0.8,0.6,1.5,1.2,2.2,1.8C194.2,92,195.1,91.2,194.5,90.6L194.5,90.6z"/>
					<path d="M158.7,92.3c-0.5-1-1.1-2-1.8-2.8s-1.5-1.4-2.4-2c-1.1-0.7-2.2-1.3-3.5-1.4c-0.7-0.1-1.5,0-2.3,0.2
						c-0.3,0.1-0.5,0.4-0.4,0.8c1,4.4,6.1,5.7,9.9,6.2c-0.1-0.4-0.1-0.8-0.2-1.2c-4.1,0.6-8.6,2.8-9.6,7.2c-0.1,0.4,0.2,0.7,0.6,0.8
						c2.4,0.3,4.6-0.6,6.4-2.3c0.7-0.7,1.4-1.4,2-2.3c0.5-0.8,0.9-1.7,1.3-2.5c0.4-0.7-0.7-1.3-1.1-0.6c-0.4,0.8-0.8,1.6-1.2,2.4
						c-0.4,0.7-1,1.4-1.6,2c-0.7,0.7-1.6,1.4-2.6,1.8s-2.1,0.5-3.2,0.3c0.2,0.3,0.4,0.5,0.6,0.8c0.9-4,5-5.8,8.7-6.3
						c0.3,0,0.5-0.4,0.4-0.7c0-0.3-0.3-0.5-0.6-0.5c-3.3-0.4-7.9-1.6-8.8-5.3c-0.1,0.3-0.3,0.5-0.4,0.8c0.6-0.2,1.3-0.2,1.9-0.1
						c1.2,0.1,2.1,0.7,3.1,1.3c0.7,0.5,1.4,1,2,1.7c0.7,0.8,1.2,1.7,1.6,2.6C158,93.6,159,93,158.7,92.3L158.7,92.3z"/>
				</g>
				<circle cx="185.5" cy="91.7" r="1.4"/>
				<circle cx="290.9" cy="212" r="1.4"/>
				<g>
					<path d="M205.6,150.8c-6.4-4-14.1-5.2-21.5-4.1c-3,0.4-5.9,1.2-8.7,2.2c-1.8,0.7-3.7,1.5-5.3,2.6c-0.6,0.4-2.1,1.4-0.9,2.1
						c1,0.6,2.1,1,3.1,1.4c4.6,1.8,9.5,3,14.4,3.3c6.1,0.4,12.4-0.9,17.3-4.8c0.6-0.5,1.3-1.1,1.8-1.7c0.6-0.6-0.3-1.4-0.9-0.9
						c-4.2,4.3-10,6.2-16,6.2c-5,0-9.9-1-14.6-2.7c-1.4-0.5-2.6-1-3.9-1.6c-0.2-0.1-0.3-0.1-0.5-0.2l-0.1-0.1c-0.1,0-0.1-0.1,0,0
						c0.1,0.2,0.2,0.2,0.2,0.4c0-0.1,0,0.2,0,0.1c0,0-0.1,0.2,0,0.1c0-0.1-0.1,0.1,0,0s0.1-0.1,0.2-0.2l0.1-0.1c0.1-0.1,0,0,0,0
						c1.3-1,2.8-1.7,4.3-2.3c2.5-1,5-1.8,7.7-2.3c6.8-1.3,14-0.9,20.2,2.2c0.9,0.4,1.7,0.9,2.6,1.4
						C205.7,152.2,206.3,151.2,205.6,150.8L205.6,150.8z"/>
					<path d="M169.9,152.6c-0.5-1-1.1-2-1.8-2.8s-1.5-1.4-2.4-2c-1.1-0.7-2.2-1.3-3.5-1.4c-0.7-0.1-1.5,0-2.3,0.2
						c-0.3,0.1-0.5,0.4-0.4,0.8c1,4.4,6.1,5.7,9.9,6.2c-0.1-0.4-0.1-0.8-0.2-1.2c-4.1,0.6-8.6,2.8-9.6,7.2c-0.1,0.4,0.2,0.7,0.6,0.8
						c2.4,0.3,4.6-0.6,6.4-2.3c0.7-0.7,1.4-1.4,2-2.3c0.5-0.8,0.9-1.7,1.3-2.5c0.4-0.7-0.7-1.3-1.1-0.6c-0.4,0.8-0.8,1.6-1.2,2.4
						c-0.4,0.7-1,1.4-1.6,2c-0.7,0.7-1.6,1.4-2.6,1.8c-1,0.4-2.1,0.5-3.2,0.3c0.2,0.3,0.4,0.5,0.6,0.8c0.9-4,5-5.8,8.7-6.3
						c0.3,0,0.5-0.4,0.4-0.7c0-0.3-0.3-0.5-0.6-0.5c-3.3-0.4-7.9-1.6-8.8-5.3c-0.1,0.3-0.3,0.5-0.4,0.8c0.6-0.2,1.3-0.2,1.9-0.1
						c1.2,0.1,2.1,0.7,3.1,1.3c0.7,0.5,1.4,1,2,1.7c0.7,0.8,1.2,1.7,1.6,2.6C169.2,153.9,170.3,153.3,169.9,152.6L169.9,152.6z"/>
				</g>
				<circle cx="197.3" cy="151.7" r="1.4"/>
				<g>
					<g>
						<path class="st4" d="M239.4,122.6c-16.7-10.5-36.6,0.8-35.9,1.7C203.7,124.5,226.5,135.7,239.4,122.6"/>
						<path d="M239.7,122.1c-6.4-4-14.1-5.2-21.5-4.1c-3,0.4-5.9,1.2-8.7,2.2c-1.8,0.7-3.7,1.5-5.3,2.6c-0.6,0.4-2.1,1.4-0.9,2.1
							c1,0.6,2.1,1,3.1,1.4c4.6,1.8,9.5,3,14.4,3.3c6.1,0.4,12.4-0.9,17.3-4.8c0.6-0.5,1.3-1.1,1.8-1.7c0.6-0.6-0.3-1.4-0.9-0.9
							c-4.2,4.3-10,6.2-16,6.2c-5,0-9.9-1-14.6-2.7c-1.4-0.5-2.6-1-3.9-1.6c-0.2-0.1-0.3-0.1-0.5-0.2l-0.1-0.1c-0.1,0-0.1-0.1,0,0
							c0.1,0.2,0.2,0.2,0.2,0.4c0-0.1,0,0.2,0,0.1c0,0-0.1,0.2,0,0.1c0-0.1-0.1,0.1,0,0s0.1-0.1,0.2-0.2l0.1-0.1c0.1-0.1,0,0,0,0
							c1.3-1,2.8-1.7,4.3-2.3c2.5-1,5-1.8,7.7-2.3c6.8-1.3,14-0.9,20.2,2.2c0.9,0.4,1.7,0.9,2.6,1.4
							C239.7,123.5,240.3,122.5,239.7,122.1L239.7,122.1z"/>
					</g>
					<g>
						<path class="st4" d="M203.4,124.2c-1.4-2.8-2.4-3.6-5.1-5.3c-1.9-1.1-4.3-0.5-4.3-0.5s0.5,2.3,2.6,3.6
							C198.6,123.2,201.2,123.9,203.4,124.2c-4.1,0.6-8.3,2.7-9.1,6.8c2.5,0.3,4.4-0.6,6.2-2.3C202.3,126.8,202.2,126.4,203.4,124.2
							"/>
						<path d="M204,123.9c-0.5-1-1.1-2-1.8-2.8s-1.5-1.4-2.4-2c-1.1-0.7-2.2-1.3-3.5-1.4c-0.7-0.1-1.5,0-2.3,0.2
							c-0.3,0.1-0.5,0.4-0.4,0.8c1,4.4,6.1,5.7,9.9,6.2c-0.1-0.4-0.1-0.8-0.2-1.2c-4.1,0.6-8.6,2.8-9.6,7.2
							c-0.1,0.4,0.2,0.7,0.6,0.8c2.4,0.3,4.6-0.6,6.4-2.3c0.7-0.7,1.4-1.4,2-2.3c0.5-0.8,0.9-1.7,1.3-2.5c0.4-0.7-0.7-1.3-1.1-0.6
							c-0.4,0.8-0.8,1.6-1.2,2.4c-0.4,0.7-1,1.4-1.6,2c-0.7,0.7-1.6,1.4-2.6,1.8c-1,0.4-2.1,0.5-3.2,0.3c0.2,0.3,0.4,0.5,0.6,0.8
							c0.9-4,5-5.8,8.7-6.3c0.3,0,0.5-0.4,0.4-0.7c0-0.3-0.3-0.5-0.6-0.5c-3.3-0.4-7.9-1.6-8.8-5.3c-0.1,0.3-0.3,0.5-0.4,0.8
							c0.6-0.2,1.3-0.2,1.9-0.1c1.2,0.1,2.1,0.7,3.1,1.3c0.7,0.5,1.4,1,2,1.7c0.7,0.8,1.2,1.7,1.6,2.6
							C203.3,125.2,204.3,124.5,204,123.9L204,123.9z"/>
					</g>
				</g>
				<circle cx="231.3" cy="123" r="1.4"/>
				<circle cx="393.9" cy="170.2" r="1.4"/>
				<g>
					<path d="M208.4,45.3c-6.4-4-14.1-5.2-21.5-4.1c-3,0.4-5.9,1.2-8.7,2.2c-1.8,0.7-3.7,1.5-5.3,2.6c-0.6,0.4-2.1,1.4-0.9,2.1
						c1,0.6,2.1,1,3.1,1.4c4.6,1.8,9.5,3,14.4,3.3c6.1,0.4,12.4-0.9,17.3-4.8c0.6-0.5,1.3-1.1,1.8-1.7c0.6-0.6-0.3-1.4-0.9-0.9
						c-4.2,4.3-10,6.2-16,6.2c-5,0-9.9-1-14.6-2.7c-1.4-0.5-2.6-1-3.9-1.6c-0.2-0.1-0.3-0.1-0.5-0.2l-0.1-0.1c-0.1,0-0.1-0.1,0,0
						c0.1,0.2,0.2,0.2,0.2,0.4c0-0.1,0,0.2,0,0.1c0,0-0.1,0.2,0,0.1c0-0.1-0.1,0.1,0,0s0.1-0.1,0.2-0.2l0.1-0.1c0.1-0.1,0,0,0,0
						c1.3-1,2.8-1.7,4.3-2.3c2.5-1,5-1.8,7.7-2.3c6.8-1.3,14-0.9,20.2,2.2c0.9,0.4,1.7,0.9,2.6,1.4
						C208.5,46.8,209.1,45.8,208.4,45.3L208.4,45.3z"/>
					<path d="M172.7,47.1c-0.5-1-1.1-2-1.8-2.8s-1.5-1.4-2.4-2c-1.1-0.7-2.2-1.3-3.5-1.4c-0.7-0.1-1.5,0-2.3,0.2
						c-0.3,0.1-0.5,0.4-0.4,0.8c1,4.4,6.1,5.7,9.9,6.2c-0.1-0.4-0.1-0.8-0.2-1.2c-4.1,0.6-8.6,2.8-9.6,7.2c-0.1,0.4,0.2,0.7,0.6,0.8
						c2.4,0.3,4.6-0.6,6.4-2.3c0.7-0.7,1.4-1.4,2-2.3c0.5-0.8,0.9-1.7,1.3-2.5c0.4-0.7-0.7-1.3-1.1-0.6c-0.4,0.8-0.8,1.6-1.2,2.4
						c-0.4,0.7-1,1.4-1.6,2c-0.7,0.7-1.6,1.4-2.6,1.8c-1,0.4-2.1,0.5-3.2,0.3c0.2,0.3,0.4,0.5,0.6,0.8c0.9-4,5-5.8,8.7-6.3
						c0.3,0,0.5-0.4,0.4-0.7c0-0.3-0.3-0.5-0.6-0.5c-3.3-0.4-7.9-1.6-8.8-5.3c-0.1,0.3-0.3,0.5-0.4,0.8c0.6-0.2,1.3-0.2,1.9-0.1
						c1.2,0.1,2.1,0.7,3.1,1.3c0.7,0.5,1.4,1,2,1.7c0.7,0.8,1.2,1.7,1.6,2.6C172,48.4,173.1,47.8,172.7,47.1L172.7,47.1z"/>
				</g>
				<circle cx="199.8" cy="46.4" r="1.4"/>
				<g>
					<path d="M300.6,39.1c-6.4-4-14.1-5.2-21.5-4.1c-3,0.4-5.9,1.2-8.7,2.2c-1.8,0.7-3.7,1.5-5.3,2.6c-0.6,0.4-2.1,1.4-0.9,2.1
						c1,0.6,2.1,1,3.1,1.4c4.6,1.8,9.5,3,14.4,3.3c6.1,0.4,12.4-0.9,17.3-4.8c0.6-0.5,1.3-1.1,1.8-1.7c0.6-0.6-0.3-1.4-0.9-0.9
						c-4.2,4.3-10,6.2-16,6.2c-5,0-9.9-1-14.6-2.7c-1.4-0.5-2.6-1-3.9-1.6c-0.2-0.1-0.3-0.1-0.5-0.2l-0.1-0.1c-0.1,0-0.1-0.1,0,0
						c0.1,0.2,0.2,0.2,0.2,0.4c0-0.1,0,0.2,0,0.1c0,0-0.1,0.2,0,0.1c0-0.1-0.1,0.1,0,0s0.1-0.1,0.2-0.2l0.1-0.1c0.1-0.1,0,0,0,0
						c1.3-1,2.8-1.7,4.3-2.3c2.5-1,5-1.8,7.7-2.3c6.8-1.3,14-0.9,20.2,2.2c0.9,0.4,1.7,0.9,2.6,1.4
						C300.6,40.5,301.2,39.5,300.6,39.1L300.6,39.1z"/>
					<path d="M264.8,40.9c-0.5-1-1.1-2-1.8-2.8c-0.7-0.8-1.5-1.4-2.4-2c-1.1-0.7-2.2-1.3-3.5-1.4c-0.7-0.1-1.5,0-2.3,0.2
						c-0.3,0.1-0.5,0.4-0.4,0.8c1,4.4,6.1,5.7,9.9,6.2c-0.1-0.4-0.1-0.8-0.2-1.2c-4.1,0.6-8.6,2.8-9.6,7.2c-0.1,0.4,0.2,0.7,0.6,0.8
						c2.4,0.3,4.6-0.6,6.4-2.3c0.7-0.7,1.4-1.4,2-2.3c0.5-0.8,0.9-1.7,1.3-2.5c0.4-0.7-0.7-1.3-1.1-0.6c-0.4,0.8-0.8,1.6-1.2,2.4
						c-0.4,0.7-1,1.4-1.6,2c-0.7,0.7-1.6,1.4-2.6,1.8c-1,0.4-2.1,0.5-3.2,0.3c0.2,0.3,0.4,0.5,0.6,0.8c0.9-4,5-5.8,8.7-6.3
						c0.3,0,0.5-0.4,0.4-0.7c0-0.3-0.3-0.5-0.6-0.5c-3.3-0.4-7.9-1.6-8.8-5.3c-0.1,0.3-0.3,0.5-0.4,0.8c0.6-0.2,1.3-0.2,1.9-0.1
						c1.2,0.1,2.1,0.7,3.1,1.3c0.7,0.5,1.4,1,2,1.7c0.7,0.8,1.2,1.7,1.6,2.6C264.2,42.2,265.2,41.6,264.8,40.9L264.8,40.9z"/>
				</g>
				<circle cx="292" cy="40.1" r="1.4"/>
				<g>
					<path d="M195.1,276.5c-6.4-4-14.1-5.2-21.5-4.1c-3,0.4-5.9,1.2-8.7,2.2c-1.8,0.7-3.7,1.5-5.3,2.6c-0.6,0.4-2.1,1.4-0.9,2.1
						c1,0.6,2.1,1,3.1,1.4c4.6,1.8,9.5,3,14.4,3.3c6.1,0.4,12.4-0.9,17.3-4.8c0.6-0.5,1.3-1.1,1.8-1.7c0.6-0.6-0.3-1.4-0.9-0.9
						c-4.2,4.3-10,6.2-16,6.2c-5,0-9.9-1-14.6-2.7c-1.4-0.5-2.6-1-3.9-1.6c-0.2-0.1-0.3-0.1-0.5-0.2l-0.1-0.1c-0.1,0-0.1-0.1,0,0
						c0.1,0.2,0.2,0.2,0.2,0.4c0-0.1,0,0.2,0,0.1c0,0-0.1,0.2,0,0.1c0-0.1-0.1,0.1,0,0s0.1-0.1,0.2-0.2l0.1-0.1c0.1-0.1,0,0,0,0
						c1.3-1,2.8-1.7,4.3-2.3c2.5-1,5-1.8,7.7-2.3c6.8-1.3,14-0.9,20.2,2.2c0.9,0.4,1.7,0.9,2.6,1.4
						C195.2,278,195.8,276.9,195.1,276.5L195.1,276.5z"/>
					<path d="M159.4,278.3c-0.5-1-1.1-2-1.8-2.8s-1.5-1.4-2.4-2c-1.1-0.7-2.2-1.3-3.5-1.4c-0.7-0.1-1.5,0-2.3,0.2
						c-0.3,0.1-0.5,0.4-0.4,0.8c1,4.4,6.1,5.7,9.9,6.2c-0.1-0.4-0.1-0.8-0.2-1.2c-4.1,0.6-8.6,2.8-9.6,7.2c-0.1,0.4,0.2,0.7,0.6,0.8
						c2.4,0.3,4.6-0.6,6.4-2.3c0.7-0.7,1.4-1.4,2-2.3c0.5-0.8,0.9-1.7,1.3-2.5c0.4-0.7-0.7-1.3-1.1-0.6c-0.4,0.8-0.8,1.6-1.2,2.4
						c-0.4,0.7-1,1.4-1.6,2c-0.7,0.7-1.6,1.4-2.6,1.8s-2.1,0.5-3.2,0.3c0.2,0.3,0.4,0.5,0.6,0.8c0.9-4,5-5.8,8.7-6.3
						c0.3,0,0.5-0.4,0.4-0.7c0-0.3-0.3-0.5-0.6-0.5c-3.3-0.4-7.9-1.6-8.8-5.3c-0.1,0.3-0.3,0.5-0.4,0.8c0.6-0.2,1.3-0.2,1.9-0.1
						c1.2,0.1,2.1,0.7,3.1,1.3c0.7,0.5,1.4,1,2,1.7c0.7,0.8,1.2,1.7,1.6,2.6C158.7,279.6,159.8,279,159.4,278.3L159.4,278.3z"/>
				</g>
				<circle cx="186.6" cy="277.6" r="1.4"/>
				<g>
					<path d="M244.3,243.7c-6.4-4-14.1-5.2-21.5-4.1c-3,0.4-5.9,1.2-8.7,2.2c-1.8,0.7-3.7,1.5-5.3,2.6c-0.6,0.4-2.1,1.4-0.9,2.1
						c1,0.6,2.1,1,3.1,1.4c4.6,1.8,9.5,3,14.4,3.3c6.1,0.4,12.4-0.9,17.3-4.8c0.6-0.5,1.3-1.1,1.8-1.7c0.6-0.6-0.3-1.4-0.9-0.9
						c-4.2,4.3-10,6.2-16,6.2c-5,0-9.9-1-14.6-2.7c-1.4-0.5-2.6-1-3.9-1.6c-0.2-0.1-0.3-0.1-0.5-0.2l-0.1-0.1c-0.1,0-0.1-0.1,0,0
						c0.1,0.2,0.2,0.2,0.2,0.4c0-0.1,0,0.2,0,0.1c0,0-0.1,0.2,0,0.1c0-0.1-0.1,0.1,0,0s0.1-0.1,0.2-0.2l0.1-0.1c0.1-0.1,0,0,0,0
						c1.3-1,2.8-1.7,4.3-2.3c2.5-1,5-1.8,7.7-2.3c6.8-1.3,14-0.9,20.2,2.2c0.9,0.4,1.7,0.9,2.6,1.4
						C244.4,245.1,245,244.1,244.3,243.7L244.3,243.7z"/>
					<path d="M208.6,245.5c-0.5-1-1.1-2-1.8-2.8s-1.5-1.4-2.4-2c-1.1-0.7-2.2-1.3-3.5-1.4c-0.7-0.1-1.5,0-2.3,0.2
						c-0.3,0.1-0.5,0.4-0.4,0.8c1,4.4,6.1,5.7,9.9,6.2c-0.1-0.4-0.1-0.8-0.2-1.2c-4.1,0.6-8.6,2.8-9.6,7.2c-0.1,0.4,0.2,0.7,0.6,0.8
						c2.4,0.3,4.6-0.6,6.4-2.3c0.7-0.7,1.4-1.4,2-2.3c0.5-0.8,0.9-1.7,1.3-2.5c0.4-0.7-0.7-1.3-1.1-0.6c-0.4,0.8-0.8,1.6-1.2,2.4
						c-0.4,0.7-1,1.4-1.6,2c-0.7,0.7-1.6,1.4-2.6,1.8c-1,0.4-2.1,0.5-3.2,0.3c0.2,0.3,0.4,0.5,0.6,0.8c0.9-4,5-5.8,8.7-6.3
						c0.3,0,0.5-0.4,0.4-0.7c0-0.3-0.3-0.5-0.6-0.5c-3.3-0.4-7.9-1.6-8.8-5.3c-0.1,0.3-0.3,0.5-0.4,0.8c0.6-0.2,1.3-0.2,1.9-0.1
						c1.2,0.1,2.1,0.7,3.1,1.3c0.7,0.5,1.4,1,2,1.7c0.7,0.8,1.2,1.7,1.6,2.6C207.9,246.8,209,246.2,208.6,245.5L208.6,245.5z"/>
				</g>
				<circle cx="235.8" cy="244.7" r="1.4"/>
				<circle cx="346.1" cy="141.6" r="1.4"/>
				<circle cx="305.7" cy="111.8" r="1.4"/>
				<g>
					<path d="M393.2,112.8c-2.8-2.5-6-4.6-9.6-5.7c-3-1-6.2-1.3-9.3-1c-5.1,0.4-10,2.3-14.3,5.1c-1.2,0.8-2.4,1.6-3.3,2.7
						c-0.3,0.3-0.6,0.7-0.5,1.1s0.7,0.7,1,1c4.5,3.5,10.2,5.9,15.9,6.4c3.5,0.3,7.1-0.2,10.4-1.4c3.2-1.1,6.2-2.8,8.3-5.4
						c0.5-0.6,1-1.3,1.4-2s-0.7-1.3-1.1-0.6c-3.3,5.7-10.2,8-16.4,8.3c-6,0.3-12-2.1-16.9-5.5c-0.6-0.4-1.1-0.8-1.5-1.1
						c0,0-0.1-0.1-0.2-0.1c-0.1-0.1,0.1,0.1,0.1,0.2c0,0.2,0,0.3,0,0.3s0.1-0.1,0.1-0.2c0.1-0.2,0,0,0.1-0.1s0.1-0.2,0.2-0.2
						c0.2-0.2,0.4-0.4,0.5-0.5c0.5-0.5,1-0.9,1.6-1.3c3.7-2.7,8.1-4.5,12.6-5.3c2.8-0.5,5.7-0.4,8.5,0.2c3.3,0.7,6.4,2.2,9.1,4.2
						c0.8,0.6,1.5,1.2,2.2,1.8C392.9,114.2,393.8,113.4,393.2,112.8L393.2,112.8z"/>
					<path d="M357.4,114.5c-0.5-1-1.1-2-1.8-2.8c-0.7-0.8-1.5-1.4-2.4-2c-1.1-0.7-2.2-1.3-3.5-1.4c-0.7-0.1-1.5,0-2.3,0.2
						c-0.3,0.1-0.5,0.4-0.4,0.8c1,4.4,6.1,5.7,9.9,6.2c-0.1-0.4-0.1-0.8-0.2-1.2c-4.1,0.6-8.6,2.8-9.6,7.2c-0.1,0.4,0.2,0.7,0.6,0.8
						c2.4,0.3,4.6-0.6,6.4-2.3c0.7-0.7,1.4-1.4,2-2.3c0.5-0.8,0.9-1.7,1.3-2.5c0.4-0.7-0.7-1.3-1.1-0.6c-0.4,0.8-0.8,1.6-1.2,2.4
						c-0.4,0.7-1,1.4-1.6,2c-0.7,0.7-1.6,1.4-2.6,1.8s-2.1,0.5-3.2,0.3c0.2,0.3,0.4,0.5,0.6,0.8c0.9-4,5-5.8,8.7-6.3
						c0.3,0,0.5-0.4,0.4-0.7c0-0.3-0.3-0.5-0.6-0.5c-3.3-0.4-7.9-1.6-8.8-5.3c-0.1,0.3-0.3,0.5-0.4,0.8c0.6-0.2,1.3-0.2,1.9-0.1
						c1.2,0.1,2.1,0.7,3.1,1.3c0.7,0.5,1.4,1,2,1.7c0.7,0.8,1.2,1.7,1.6,2.6C356.7,115.8,357.7,115.2,357.4,114.5L357.4,114.5z"/>
				</g>
				<circle cx="385" cy="113.5" r="1.4"/>
			</g>
		</g>
	</g>
</g>
<g>
	<path d="M126.3,490.8l1.6-0.1c0,2.4,1.8,3.7,4.3,3.7c2.4,0,4.2-1.3,4.2-3.6c0-2.8-2.9-3.2-5-3.2v-1.4c2.4,0,4.1-0.9,4.1-3
		c0-2-1.4-2.9-3.2-2.9c-2.1,0-3.5,1.2-3.6,3.2l-1.6-0.1c0-2.9,2.2-4.7,5.1-4.7c2.6,0,4.9,1.5,4.9,4.3c0,2-1.3,3.4-2.5,3.8
		c1.8,0.3,3.4,1.7,3.4,4.2c0,3.2-2.6,5-5.9,5C128.9,496,126.3,494.2,126.3,490.8z"/>
	<path d="M149.9,479.1h1.6l-8.6,21.8h-1.6L149.9,479.1z"/>
	<path d="M166,490.4c0,3-2.5,5.6-5.7,5.6c-3.1,0-5.7-2.5-5.7-5.5c0-1,0.3-2.1,0.9-3l5-8.4h1.9l-3.9,6.3c0.9-0.3,1.9-0.5,3-0.3
		C164,485.5,166,487.7,166,490.4z M164.4,490.4c0-2.2-1.8-4-4-4s-4,1.8-4,4s1.8,4,4,4C162.5,494.4,164.4,492.6,164.4,490.4z"/>
</g>
<g>
	<path d="M131.9,523.3h-5.3v-1.5h12.2v1.5h-5.3v13.9h-1.6V523.3z"/>
	<path d="M152.4,530.5v6.6h-1.5v-6.3c0-2.4-0.7-3.4-2.4-3.4c-2.1,0-3.2,1.7-3.2,4.7v5h-1.5v-15.3h1.5v6.1c0.7-1.1,2-1.8,3.6-1.8
		C151.2,526.1,152.4,527.6,152.4,530.5z"/>
	<path d="M167,532.1h-7.9c0,2.4,1.4,3.8,3.5,3.8c1.2,0,2.1-0.3,3.1-1.4l1.1,0.9c-1.3,1.3-2.5,1.8-4.2,1.8c-3.3,0-5-2.5-5-5.5
		c0-3.1,1.7-5.7,4.8-5.7c3.3,0,4.7,2.6,4.7,5.1C167.1,531.5,167.1,531.9,167,532.1z M159.1,530.9h6.6c0,0,0-0.2,0-0.4
		c-0.1-1.8-1.2-3.1-3.2-3.1C160.4,527.4,159.2,529,159.1,530.9z"/>
	<path d="M181.6,521.8h4.4c3.3,0,5.1,1.5,5.1,4.3s-1.8,4.4-5.1,4.4h-2.8v6.7h-1.6L181.6,521.8L181.6,521.8z M185.8,529
		c2.4,0,3.6-1,3.6-2.9s-1.2-2.9-3.6-2.9h-2.7v5.7h2.7V529z"/>
	<path d="M202.8,526.6l-0.7,1.2c-0.5-0.2-1-0.3-1.4-0.3c-1.7,0-2.9,1.3-2.9,3.6v6.1h-1.5v-10.8h1.5v1.6c0.8-1.4,2.1-1.8,3.2-1.8
		C201.6,526.1,202.2,526.3,202.8,526.6z"/>
	<path d="M215.4,530.4v6.8H214l-0.1-1.7c-0.9,1.2-2.2,1.8-3.9,1.8c-2.4,0-3.7-1.2-3.7-3.3c0-1.1,0.4-1.9,1.2-2.4
		c0.8-0.5,2-0.7,4.1-0.7h2.2v-0.5c0-1.9-1-2.9-2.8-2.9c-1.4,0-2.4,0.6-3.3,1.8l-1.1-0.9c1.2-1.5,2.6-2.2,4.4-2.2
		C213.8,526.1,215.4,527.7,215.4,530.4z M213.8,532.3v-0.2h-2.1c-2,0-2.9,0.1-3.4,0.5c-0.4,0.3-0.6,0.8-0.6,1.4c0,1.2,1,2,2.7,2
		C212.5,536.1,213.8,534.6,213.8,532.3z"/>
	<path d="M230.4,521.8v15.3h-1.5v-1.5c-0.8,1-2,1.6-3.6,1.6c-3.2,0-4.8-2.4-4.8-5.6c0-3.4,1.8-5.6,4.8-5.6c1.5,0,2.8,0.6,3.6,1.7
		v-5.9H230.4z M229,531.7c0-2.6-1.3-4.3-3.5-4.3c-2.2,0-3.5,1.7-3.5,4.3c0,2.5,1.2,4.3,3.5,4.3S229,534.2,229,531.7z"/>
	<path d="M244.7,530.4v6.8h-1.4l-0.1-1.7c-0.9,1.2-2.2,1.8-3.9,1.8c-2.4,0-3.7-1.2-3.7-3.3c0-1.1,0.4-1.9,1.2-2.4
		c0.8-0.5,2-0.7,4.1-0.7h2.2v-0.5c0-1.9-1-2.9-2.8-2.9c-1.4,0-2.4,0.6-3.3,1.8l-1.1-0.9c1.2-1.5,2.6-2.2,4.4-2.2
		C243.1,526.1,244.7,527.7,244.7,530.4z M243.2,532.3v-0.2h-2.1c-2,0-2.9,0.1-3.4,0.5c-0.4,0.3-0.6,0.8-0.6,1.4c0,1.2,1,2,2.7,2
		C241.9,536.1,243.2,534.6,243.2,532.3z"/>
	<path d="M267.1,529.2h5.2v7.9H271l-0.2-2.4c-0.8,1.7-2.7,2.6-5.1,2.6c-4.5,0-6.9-3.3-6.9-7.9c0-4.6,2.4-7.9,7.1-7.9
		c3.2,0,5.3,1.6,6.3,4.2l-1.5,0.5c-0.8-2.1-2.3-3.3-4.9-3.3c-3.7,0-5.5,2.5-5.5,6.3c0,3.7,1.6,6.5,5.4,6.5c2.6,0,4.9-1.4,4.9-4.9
		v-0.5h-3.7v-1.1H267.1z"/>
	<path d="M285.1,526.6l-0.7,1.2c-0.5-0.2-1-0.3-1.4-0.3c-1.7,0-2.9,1.3-2.9,3.6v6.1h-1.5v-10.8h1.5v1.6c0.8-1.4,2.1-1.8,3.2-1.8
		C283.9,526.1,284.5,526.3,285.1,526.6z"/>
	<path d="M288.3,531.7c0-3.2,2.1-5.6,5.2-5.6s5.2,2.4,5.2,5.6c0,3.2-2.1,5.6-5.2,5.6S288.3,534.9,288.3,531.7z M297.2,531.7
		c0-2.5-1.4-4.2-3.7-4.2c-2.3,0-3.7,1.8-3.7,4.2c0,2.5,1.4,4.3,3.7,4.3S297.2,534.2,297.2,531.7z"/>
	<path d="M312.4,526.3v10.8h-1.5v-1.6c-0.8,1.2-2.2,1.7-3.6,1.7c-2.5,0-3.5-1.7-3.5-4.4v-6.6h1.5v6.3c0,1.8,0.3,3.4,2.4,3.4
		c2.2,0,3.2-1.9,3.2-4.7v-5L312.4,526.3L312.4,526.3z"/>
	<path d="M328.4,531.7c0,3.2-1.7,5.6-4.8,5.6c-1.6,0-2.8-0.6-3.6-1.6v5.9h-1.5v-15.3h1.5v1.5c0.8-1.1,2-1.7,3.6-1.7
		C326.6,526.1,328.4,528.3,328.4,531.7z M326.8,531.7c0-2.6-1.3-4.3-3.5-4.3s-3.5,1.7-3.5,4.3c0,2.5,1.2,4.3,3.5,4.3
		C325.6,536,326.8,534.2,326.8,531.7z"/>
	<path d="M342.3,529.8h7.9v1.2h-7.9V529.8z"/>
	<path d="M364.9,521.8h1.8v2.2h-1.8V521.8z M365,526.3h1.5v10.8H365V526.3z"/>
	<path d="M381.2,530.5v6.6h-1.5v-6.3c0-2.3-0.7-3.4-2.4-3.4c-2,0-3.2,1.8-3.2,4.8v4.9h-1.5v-10.8h1.5v1.6c0.7-1.1,2-1.8,3.6-1.8
		C380,526.1,381.2,527.6,381.2,530.5z"/>
	<path d="M404.5,532.1h-7.9c0,2.4,1.4,3.8,3.5,3.8c1.2,0,2.1-0.3,3.1-1.4l1.1,0.9c-1.3,1.3-2.5,1.8-4.2,1.8c-3.3,0-5-2.5-5-5.5
		c0-3.1,1.7-5.7,4.8-5.7c3.3,0,4.7,2.6,4.7,5.1C404.5,531.5,404.5,531.9,404.5,532.1z M396.5,530.9h6.6c0,0,0-0.2,0-0.4
		c-0.1-1.8-1.2-3.1-3.2-3.1S396.6,529,396.5,530.9z"/>
	<path d="M408,526.3h1.7l3.4,8.9l3.4-8.9h1.7l-4.4,10.8h-1.3L408,526.3z"/>
	<path d="M431.1,532.1h-7.9c0,2.4,1.4,3.8,3.5,3.8c1.2,0,2.1-0.3,3.1-1.4l1.1,0.9c-1.3,1.3-2.5,1.8-4.2,1.8c-3.3,0-5-2.5-5-5.5
		c0-3.1,1.7-5.7,4.8-5.7c3.3,0,4.7,2.6,4.7,5.1C431.2,531.5,431.2,531.9,431.1,532.1z M423.2,530.9h6.6c0,0,0-0.2,0-0.4
		c-0.1-1.8-1.2-3.1-3.2-3.1C424.5,527.4,423.3,529,423.2,530.9z"/>
	<path d="M443.1,526.6l-0.7,1.2c-0.5-0.2-1-0.3-1.4-0.3c-1.7,0-2.9,1.3-2.9,3.6v6.1h-1.5v-10.8h1.5v1.6c0.8-1.4,2.1-1.8,3.2-1.8
		C441.9,526.1,442.5,526.3,443.1,526.6z"/>
	<path d="M451.4,537l-4.6-10.7h1.7l3.7,8.9l3.3-8.9h1.7l-5.9,15.3h-1.6L451.4,537z"/>
	<path d="M478.7,530.4v6.8h-1.4l-0.1-1.7c-0.9,1.2-2.2,1.8-3.9,1.8c-2.4,0-3.7-1.2-3.7-3.3c0-1.1,0.4-1.9,1.2-2.4
		c0.8-0.5,2-0.7,4.1-0.7h2.2v-0.5c0-1.9-1-2.9-2.8-2.9c-1.4,0-2.4,0.6-3.3,1.8l-1.1-0.9c1.2-1.5,2.6-2.2,4.4-2.2
		C477.1,526.1,478.7,527.7,478.7,530.4z M477.1,532.3v-0.2H475c-2,0-2.9,0.1-3.4,0.5c-0.4,0.3-0.6,0.8-0.6,1.4c0,1.2,1,2,2.7,2
		C475.8,536.1,477.1,534.6,477.1,532.3z"/>
	<path d="M483.8,531.8c0-2.9,1.6-5.6,4.9-5.6c1.9,0,3.5,1,4.4,3l-1.5,0.6c-0.5-1.4-1.6-2.2-2.9-2.2c-2.3,0-3.3,2.1-3.3,4.3
		s1,4.2,3.4,4.2c1.4,0,2.4-0.8,2.9-2.2l1.4,0.5c-0.7,2-2.3,3-4.3,3C485.5,537.3,483.8,534.8,483.8,531.8z"/>
	<path d="M502.8,537.1c-0.6,0.2-1.1,0.3-1.7,0.3c-1.5,0-2.5-0.8-2.5-2.7v-7h-1.8v-1.3h1.8v-2.8l1.5-1.1v4h2.6v1.3h-2.6v6.8
		c0,1.1,0.5,1.5,1.3,1.5c0.4,0,0.8-0.1,1.3-0.2L502.8,537.1z"/>
	<path d="M507.5,521.8h1.8v2.2h-1.8V521.8z M507.7,526.3h1.5v10.8h-1.5V526.3z"/>
	<path d="M514.4,531.7c0-3.2,2.1-5.6,5.2-5.6c3.1,0,5.2,2.4,5.2,5.6c0,3.2-2.1,5.6-5.2,5.6C516.5,537.3,514.4,534.9,514.4,531.7z
		 M523.3,531.7c0-2.5-1.4-4.2-3.7-4.2c-2.3,0-3.7,1.8-3.7,4.2c0,2.5,1.4,4.3,3.7,4.3C521.9,536,523.3,534.2,523.3,531.7z"/>
	<path d="M538.7,530.5v6.6h-1.5v-6.3c0-2.3-0.7-3.4-2.4-3.4c-2,0-3.2,1.8-3.2,4.8v4.9h-1.5v-10.8h1.5v1.6c0.7-1.1,2-1.8,3.6-1.8
		C537.5,526.1,538.7,527.6,538.7,530.5z"/>
	<path d="M553.3,529.8h7.9v1.2h-7.9V529.8z"/>
	<path d="M575.9,521.8h1.8v2.2h-1.8V521.8z M576,526.3h1.5v10.8H576V526.3z"/>
	<path d="M582.5,534.5l1.3-0.6c0.4,1.1,1.5,2.1,3.1,2.1c1.5,0,2.4-0.7,2.4-1.9c0-2.9-6.2-1.1-6.2-4.9c0-1.9,1.5-3.1,3.7-3.1
		c1.7,0,3.1,0.7,3.9,2.3l-1.2,0.7c-0.5-1-1.4-1.6-2.7-1.6s-2.2,0.5-2.2,1.5c0,2.6,6.3,0.9,6.3,5.1c0,2.2-1.8,3.3-3.9,3.3
		C584.8,537.3,583.1,536.2,582.5,534.5z"/>
	<path d="M613.3,538.8c0,2-1.9,3-4.6,3c-3,0-4.8-1.2-4.8-3.3c0-0.2,0-0.4,0-0.5l1.8-1.5c-0.8-0.4-1.4-1-1.4-2.1
		c0-0.9,0.4-1.5,1.2-2.1c-0.6-0.7-0.9-1.5-0.9-2.5c0-2.2,1.8-3.8,4.1-3.8c1.1,0,2,0.3,2.7,0.9l1.5-1.3l0.8,1l-1.5,1.2
		c0.4,0.6,0.6,1.3,0.6,2c0,2.2-1.8,3.7-4.1,3.7c-0.8,0-1.6-0.2-2.2-0.5c-0.4,0.2-0.7,0.6-0.7,1.1c0,1.1,1.4,1.4,2.9,1.6
		C610.8,536.2,613.3,536.5,613.3,538.8z M611.8,539c0-1.3-1.7-1.5-3.5-1.8c-0.5-0.1-1-0.2-1.5-0.3l-1.5,1.4c0,0.1,0,0.2,0,0.2
		c0,1.5,1.6,2,3.4,2C610.6,540.6,611.8,540,611.8,539z M606,529.9c0,1.4,1,2.5,2.6,2.5s2.6-1.1,2.6-2.5c0-1.5-1-2.5-2.6-2.5
		C607.1,527.4,606,528.5,606,529.9z"/>
	<path d="M626.9,532.1H619c0,2.4,1.4,3.8,3.5,3.8c1.2,0,2.1-0.3,3.1-1.4l1.1,0.9c-1.3,1.3-2.5,1.8-4.2,1.8c-3.3,0-5-2.5-5-5.5
		c0-3.1,1.7-5.7,4.8-5.7c3.3,0,4.7,2.6,4.7,5.1C627,531.5,627,531.9,626.9,532.1z M619,530.9h6.6c0,0,0-0.2,0-0.4
		c-0.1-1.8-1.2-3.1-3.2-3.1C620.3,527.4,619.1,529,619,530.9z"/>
	<path d="M640.4,530.4v6.8H639l-0.1-1.7c-0.9,1.2-2.2,1.8-3.9,1.8c-2.4,0-3.7-1.2-3.7-3.3c0-1.1,0.4-1.9,1.2-2.4s2-0.7,4.1-0.7h2.2
		v-0.5c0-1.9-1-2.9-2.8-2.9c-1.4,0-2.4,0.6-3.3,1.8l-1.1-0.9c1.2-1.5,2.6-2.2,4.4-2.2C638.8,526.1,640.4,527.7,640.4,530.4z
		 M638.9,532.3v-0.2h-2.1c-2,0-2.9,0.1-3.4,0.5c-0.4,0.3-0.6,0.8-0.6,1.4c0,1.2,1,2,2.7,2C637.6,536.1,638.9,534.6,638.9,532.3z"/>
	<path d="M652.8,526.6l-0.7,1.2c-0.5-0.2-1-0.3-1.4-0.3c-1.7,0-2.9,1.3-2.9,3.6v6.1h-1.5v-10.8h1.5v1.6c0.8-1.4,2.1-1.8,3.2-1.8
		C651.6,526.1,652.3,526.3,652.8,526.6z"/>
	<path d="M665.6,532.1h-7.9c0,2.4,1.4,3.8,3.5,3.8c1.2,0,2.1-0.3,3.1-1.4l1.1,0.9c-1.3,1.3-2.5,1.8-4.2,1.8c-3.3,0-5-2.5-5-5.5
		c0-3.1,1.7-5.7,4.8-5.7c3.3,0,4.7,2.6,4.7,5.1C665.6,531.5,665.6,531.9,665.6,532.1z M657.6,530.9h6.6c0,0,0-0.2,0-0.4
		c-0.1-1.8-1.2-3.1-3.2-3.1S657.8,529,657.6,530.9z"/>
	<path d="M680.1,521.8v15.3h-1.5v-1.5c-0.8,1-2,1.6-3.6,1.6c-3.2,0-4.8-2.4-4.8-5.6c0-3.4,1.8-5.6,4.8-5.6c1.5,0,2.8,0.6,3.6,1.7
		v-5.9H680.1z M678.7,531.7c0-2.6-1.3-4.3-3.5-4.3s-3.5,1.7-3.5,4.3c0,2.5,1.2,4.3,3.5,4.3S678.7,534.2,678.7,531.7z"/>
	<path d="M132.3,575.1c-0.6,0.2-1.1,0.3-1.7,0.3c-1.5,0-2.5-0.8-2.5-2.7v-7h-1.8v-1.3h1.8v-2.8l1.5-1.1v4h2.6v1.3h-2.6v6.8
		c0,1.1,0.5,1.5,1.3,1.5c0.4,0,0.8-0.1,1.3-0.2L132.3,575.1z"/>
	<path d="M136.2,569.7c0-3.2,2.1-5.6,5.2-5.6c3.1,0,5.2,2.4,5.2,5.6c0,3.2-2.1,5.6-5.2,5.6C138.3,575.3,136.2,572.9,136.2,569.7z
		 M145.1,569.7c0-2.5-1.4-4.2-3.7-4.2c-2.3,0-3.7,1.8-3.7,4.2c0,2.5,1.4,4.3,3.7,4.3C143.7,574,145.1,572.2,145.1,569.7z"/>
	<path d="M150.4,564.3h1.6l2.3,8.6l2.9-8.6h1.4l2.8,8.6l2.4-8.6h1.6l-3.2,10.8h-1.4l-2.9-8.8l-2.9,8.8h-1.4L150.4,564.3z"/>
	<path d="M178.4,568.4v6.8H177l-0.1-1.7c-0.9,1.2-2.2,1.8-3.9,1.8c-2.4,0-3.7-1.2-3.7-3.3c0-1.1,0.4-1.9,1.2-2.4
		c0.8-0.5,2-0.7,4.1-0.7h2.2v-0.5c0-1.9-1-2.9-2.8-2.9c-1.4,0-2.4,0.6-3.3,1.8l-1.1-0.9c1.2-1.5,2.6-2.2,4.4-2.2
		C176.8,564.1,178.4,565.7,178.4,568.4z M176.9,570.3v-0.2h-2.1c-2,0-2.9,0.1-3.4,0.5c-0.4,0.3-0.6,0.8-0.6,1.4c0,1.2,1,2,2.7,2
		C175.6,574.1,176.9,572.6,176.9,570.3z"/>
	<path d="M190.9,564.6l-0.7,1.2c-0.5-0.2-1-0.3-1.4-0.3c-1.7,0-2.9,1.3-2.9,3.6v6.1h-1.5v-10.8h1.5v1.6c0.8-1.4,2.1-1.8,3.2-1.8
		C189.7,564.1,190.3,564.3,190.9,564.6z"/>
	<path d="M204.2,559.8v15.3h-1.5v-1.5c-0.8,1-2,1.6-3.6,1.6c-3.2,0-4.8-2.4-4.8-5.6c0-3.4,1.8-5.6,4.8-5.6c1.5,0,2.8,0.6,3.6,1.7
		v-5.9H204.2z M202.8,569.7c0-2.6-1.3-4.3-3.5-4.3c-2.2,0-3.5,1.7-3.5,4.3c0,2.5,1.2,4.3,3.5,4.3C201.6,574,202.8,572.2,202.8,569.7
		z"/>
	<path d="M209.3,572.5l1.3-0.6c0.4,1.1,1.5,2.1,3.1,2.1c1.5,0,2.4-0.7,2.4-1.9c0-2.9-6.2-1.1-6.2-4.9c0-1.9,1.5-3.1,3.7-3.1
		c1.7,0,3.1,0.7,3.9,2.3l-1.2,0.7c-0.5-1-1.4-1.6-2.7-1.6c-1.3,0-2.2,0.5-2.2,1.5c0,2.6,6.3,0.9,6.3,5.1c0,2.2-1.8,3.3-3.9,3.3
		C211.6,575.3,209.9,574.2,209.3,572.5z"/>
	<path d="M240.4,570.1h-7.9c0,2.4,1.4,3.8,3.5,3.8c1.2,0,2.1-0.3,3.1-1.4l1.1,0.9c-1.3,1.3-2.5,1.8-4.2,1.8c-3.3,0-5-2.5-5-5.5
		c0-3.1,1.7-5.7,4.8-5.7c3.3,0,4.7,2.6,4.7,5.1C240.4,569.5,240.4,569.9,240.4,570.1z M232.4,568.9h6.6c0,0,0-0.2,0-0.4
		c-0.1-1.8-1.2-3.1-3.2-3.1C233.7,565.4,232.5,567,232.4,568.9z"/>
	<path d="M248.1,569.7l-4-5.4h1.8l3.1,4.4l3.1-4.4h1.8l-4,5.4l4,5.4H252l-3.1-4.4l-3.1,4.4h-1.9L248.1,569.7z"/>
	<path d="M257.7,569.8c0-2.9,1.6-5.6,4.9-5.6c1.9,0,3.5,1,4.4,3l-1.5,0.6c-0.5-1.4-1.6-2.2-2.9-2.2c-2.3,0-3.3,2.1-3.3,4.3
		s1,4.2,3.4,4.2c1.4,0,2.4-0.8,2.9-2.2l1.4,0.5c-0.7,2-2.3,3-4.3,3C259.4,575.3,257.7,572.8,257.7,569.8z"/>
	<path d="M280.7,570.1h-7.9c0,2.4,1.4,3.8,3.5,3.8c1.2,0,2.1-0.3,3.1-1.4l1.1,0.9c-1.3,1.3-2.5,1.8-4.2,1.8c-3.3,0-5-2.5-5-5.5
		c0-3.1,1.7-5.7,4.8-5.7c3.3,0,4.7,2.6,4.7,5.1C280.8,569.5,280.8,569.9,280.7,570.1z M272.8,568.9h6.6c0,0,0-0.2,0-0.4
		c-0.1-1.8-1.2-3.1-3.2-3.1C274.1,565.4,272.9,567,272.8,568.9z"/>
	<path d="M286,572.8v-13h1.5v12.9c0,0.7,0.3,1.2,1,1.2c0.3,0,0.7-0.1,1-0.2v1.3c-0.5,0.2-1,0.3-1.5,0.3
		C286.9,575.3,286,574.5,286,572.8z"/>
	<path d="M294.3,572.8v-13h1.5v12.9c0,0.7,0.3,1.2,1,1.2c0.3,0,0.7-0.1,1-0.2v1.3c-0.5,0.2-1,0.3-1.5,0.3
		C295.1,575.3,294.3,574.5,294.3,572.8z"/>
	<path d="M311,570.1h-7.9c0,2.4,1.4,3.8,3.5,3.8c1.2,0,2.1-0.3,3.1-1.4l1.1,0.9c-1.3,1.3-2.5,1.8-4.2,1.8c-3.3,0-5-2.5-5-5.5
		c0-3.1,1.7-5.7,4.8-5.7c3.3,0,4.7,2.6,4.7,5.1C311.1,569.5,311.1,569.9,311,570.1z M303.1,568.9h6.6c0,0,0-0.2,0-0.4
		c-0.1-1.8-1.2-3.1-3.2-3.1C304.4,565.4,303.2,567,303.1,568.9z"/>
	<path d="M325.1,568.5v6.6h-1.5v-6.3c0-2.3-0.7-3.4-2.4-3.4c-2,0-3.2,1.8-3.2,4.8v4.9h-1.5v-10.8h1.5v1.6c0.7-1.1,2-1.8,3.6-1.8
		C323.9,564.1,325.1,565.6,325.1,568.5z"/>
	<path d="M330.3,569.8c0-2.9,1.6-5.6,4.9-5.6c1.9,0,3.5,1,4.4,3l-1.5,0.6c-0.5-1.4-1.6-2.2-2.9-2.2c-2.3,0-3.3,2.1-3.3,4.3
		s1,4.2,3.4,4.2c1.4,0,2.4-0.8,2.9-2.2l1.4,0.5c-0.7,2-2.3,3-4.3,3C332,575.3,330.3,572.8,330.3,569.8z"/>
	<path d="M353.3,570.1h-7.9c0,2.4,1.4,3.8,3.5,3.8c1.2,0,2.1-0.3,3.1-1.4l1.1,0.9c-1.3,1.3-2.5,1.8-4.2,1.8c-3.3,0-5-2.5-5-5.5
		c0-3.1,1.7-5.7,4.8-5.7c3.3,0,4.7,2.6,4.7,5.1C353.4,569.5,353.3,569.9,353.3,570.1z M345.4,568.9h6.6c0,0,0-0.2,0-0.4
		c-0.1-1.8-1.2-3.1-3.2-3.1C346.7,565.4,345.5,567,345.4,568.9z"/>
	<path d="M359,572.7h2v2.4h-2V572.7z"/>
	<path d="M385.2,571.1h-6.4l-1.5,4.1h-1.7l5.7-15.3h1.3l5.7,15.3h-1.7L385.2,571.1z M384.7,569.7L382,562l-2.7,7.7H384.7z"/>
	<path d="M417.1,568.4v6.8h-1.5v-6.4c0-0.9,0-3.3-2.4-3.3c-2.2,0-2.8,2-2.8,4.5v5.2h-1.5v-6.3c0-1.8-0.6-3.4-2.4-3.4
		c-2.1,0-2.7,2-2.7,4.5v5.2h-1.5v-10.8h1.5v1.3c0.7-1.1,1.8-1.5,3-1.5c1.5,0,2.6,0.7,3.2,2.1c0.7-1.4,1.9-2.1,3.6-2.1
		C416,564.1,417.1,565.9,417.1,568.4z"/>
	<path d="M431.8,570.1h-7.9c0,2.4,1.4,3.8,3.5,3.8c1.2,0,2.1-0.3,3.1-1.4l1.1,0.9c-1.3,1.3-2.5,1.8-4.2,1.8c-3.3,0-5-2.5-5-5.5
		c0-3.1,1.7-5.7,4.8-5.7c3.3,0,4.7,2.6,4.7,5.1C431.8,569.5,431.8,569.9,431.8,570.1z M423.8,568.9h6.6c0,0,0-0.2,0-0.4
		c-0.1-1.8-1.2-3.1-3.2-3.1S424,567,423.8,568.9z"/>
	<path d="M445.8,568.5v6.6h-1.5v-6.3c0-2.3-0.7-3.4-2.4-3.4c-2,0-3.2,1.8-3.2,4.8v4.9h-1.5v-10.8h1.5v1.6c0.7-1.1,2-1.8,3.6-1.8
		C444.6,564.1,445.8,565.6,445.8,568.5z"/>
	<path d="M456.2,575.1c-0.6,0.2-1.1,0.3-1.7,0.3c-1.5,0-2.5-0.8-2.5-2.7v-7h-1.8v-1.3h1.8v-2.8l1.5-1.1v4h2.6v1.3h-2.6v6.8
		c0,1.1,0.5,1.5,1.3,1.5c0.4,0,0.8-0.1,1.3-0.2L456.2,575.1z"/>
	<path d="M469.6,568.4v6.8h-1.4l-0.1-1.7c-0.9,1.2-2.2,1.8-3.9,1.8c-2.4,0-3.7-1.2-3.7-3.3c0-1.1,0.4-1.9,1.2-2.4
		c0.8-0.5,2-0.7,4.1-0.7h2.2v-0.5c0-1.9-1-2.9-2.8-2.9c-1.4,0-2.4,0.6-3.3,1.8l-1.1-0.9c1.2-1.5,2.6-2.2,4.4-2.2
		C468,564.1,469.6,565.7,469.6,568.4z M468.1,570.3v-0.2H466c-2,0-2.9,0.1-3.4,0.5c-0.4,0.3-0.6,0.8-0.6,1.4c0,1.2,1,2,2.7,2
		C466.8,574.1,468.1,572.6,468.1,570.3z"/>
	<path d="M475.4,572.8v-13h1.5v12.9c0,0.7,0.3,1.2,1,1.2c0.3,0,0.7-0.1,1-0.2v1.3c-0.5,0.2-1,0.3-1.5,0.3
		C476.3,575.3,475.4,574.5,475.4,572.8z"/>
	<path d="M500.6,568.4v6.8h-1.4l-0.1-1.7c-0.9,1.2-2.2,1.8-3.9,1.8c-2.4,0-3.7-1.2-3.7-3.3c0-1.1,0.4-1.9,1.2-2.4
		c0.8-0.5,2-0.7,4.1-0.7h2.2v-0.5c0-1.9-1-2.9-2.8-2.9c-1.4,0-2.4,0.6-3.3,1.8l-1.1-0.9c1.2-1.5,2.6-2.2,4.4-2.2
		C499,564.1,500.6,565.7,500.6,568.4z M499.1,570.3v-0.2H497c-2,0-2.9,0.1-3.4,0.5c-0.4,0.3-0.6,0.8-0.6,1.4c0,1.2,1,2,2.7,2
		C497.8,574.1,499.1,572.6,499.1,570.3z"/>
	<path d="M510.9,575.1c-0.6,0.2-1.1,0.3-1.7,0.3c-1.5,0-2.5-0.8-2.5-2.7v-7h-1.8v-1.3h1.8v-2.8l1.5-1.1v4h2.6v1.3h-2.6v6.8
		c0,1.1,0.5,1.5,1.3,1.5c0.4,0,0.8-0.1,1.3-0.2L510.9,575.1z"/>
	<path d="M521.1,575.1c-0.6,0.2-1.1,0.3-1.7,0.3c-1.5,0-2.5-0.8-2.5-2.7v-7h-1.8v-1.3h1.8v-2.8l1.5-1.1v4h2.6v1.3h-2.6v6.8
		c0,1.1,0.5,1.5,1.3,1.5c0.4,0,0.8-0.1,1.3-0.2L521.1,575.1z"/>
	<path d="M525.9,559.8h1.8v2.2h-1.8V559.8z M526,564.3h1.5v10.8H526V564.3z"/>
	<path d="M538.3,575.1c-0.6,0.2-1.1,0.3-1.7,0.3c-1.5,0-2.5-0.8-2.5-2.7v-7h-1.8v-1.3h1.8v-2.8l1.5-1.1v4h2.6v1.3h-2.6v6.8
		c0,1.1,0.5,1.5,1.3,1.5c0.4,0,0.8-0.1,1.3-0.2L538.3,575.1z"/>
	<path d="M551.7,564.3v10.8h-1.5v-1.6c-0.8,1.2-2.2,1.7-3.6,1.7c-2.5,0-3.5-1.7-3.5-4.4v-6.6h1.5v6.3c0,1.8,0.3,3.4,2.4,3.4
		c2.2,0,3.2-1.9,3.2-4.7v-5L551.7,564.3L551.7,564.3z"/>
	<path d="M567,559.8v15.3h-1.5v-1.5c-0.8,1-2,1.6-3.6,1.6c-3.2,0-4.8-2.4-4.8-5.6c0-3.4,1.8-5.6,4.8-5.6c1.5,0,2.8,0.6,3.6,1.7v-5.9
		H567z M565.7,569.7c0-2.6-1.3-4.3-3.5-4.3s-3.5,1.7-3.5,4.3c0,2.5,1.2,4.3,3.5,4.3C564.4,574,565.7,572.2,565.7,569.7z"/>
	<path d="M581.9,570.1H574c0,2.4,1.4,3.8,3.5,3.8c1.2,0,2.1-0.3,3.1-1.4l1.1,0.9c-1.3,1.3-2.5,1.8-4.2,1.8c-3.3,0-5-2.5-5-5.5
		c0-3.1,1.7-5.7,4.8-5.7c3.3,0,4.7,2.6,4.7,5.1C582,569.5,581.9,569.9,581.9,570.1z M574,568.9h6.6c0,0,0-0.2,0-0.4
		c-0.1-1.8-1.2-3.1-3.2-3.1C575.3,565.4,574.1,567,574,568.9z"/>
	<path d="M132.3,613.1c-0.6,0.2-1.1,0.3-1.7,0.3c-1.5,0-2.5-0.8-2.5-2.7v-7h-1.8v-1.3h1.8v-2.8l1.5-1.1v4h2.6v1.3h-2.6v6.8
		c0,1.1,0.5,1.5,1.3,1.5c0.4,0,0.8-0.1,1.3-0.2L132.3,613.1z"/>
	<path d="M145.9,606.5v6.6h-1.5v-6.3c0-2.4-0.7-3.4-2.4-3.4c-2.1,0-3.2,1.7-3.2,4.7v5h-1.5v-15.3h1.5v6.1c0.7-1.1,2-1.8,3.6-1.8
		C144.7,602.1,145.9,603.6,145.9,606.5z"/>
	<path d="M160.1,606.4v6.8h-1.4l-0.1-1.7c-0.9,1.2-2.2,1.8-3.9,1.8c-2.4,0-3.7-1.2-3.7-3.3c0-1.1,0.4-1.9,1.2-2.4s2-0.7,4.1-0.7h2.2
		v-0.5c0-1.9-1-2.9-2.8-2.9c-1.4,0-2.4,0.6-3.3,1.8l-1.1-0.9c1.2-1.5,2.6-2.2,4.4-2.2C158.5,602.1,160.1,603.7,160.1,606.4z
		 M158.6,608.3v-0.2h-2.1c-2,0-2.9,0.1-3.4,0.5c-0.4,0.3-0.6,0.8-0.6,1.4c0,1.2,1,2,2.7,2C157.3,612.1,158.6,610.6,158.6,608.3z"/>
	<path d="M170.4,613.1c-0.6,0.2-1.1,0.3-1.7,0.3c-1.5,0-2.5-0.8-2.5-2.7v-7h-1.8v-1.3h1.8v-2.8l1.5-1.1v4h2.6v1.3h-2.6v6.8
		c0,1.1,0.5,1.5,1.3,1.5c0.4,0,0.8-0.1,1.3-0.2L170.4,613.1z"/>
	<path d="M184.3,610.8v-13h1.5v12.9c0,0.7,0.3,1.2,1,1.2c0.3,0,0.7-0.1,1-0.2v1.3c-0.5,0.2-1,0.3-1.5,0.3
		C185.1,613.3,184.3,612.5,184.3,610.8z"/>
	<path d="M201,608.1h-7.9c0,2.4,1.4,3.8,3.5,3.8c1.2,0,2.1-0.3,3.1-1.4l1.1,0.9c-1.3,1.3-2.5,1.8-4.2,1.8c-3.3,0-5-2.5-5-5.5
		c0-3.1,1.7-5.7,4.8-5.7c3.3,0,4.7,2.6,4.7,5.1C201.1,607.5,201.1,607.9,201,608.1z M193.1,606.9h6.6c0,0,0-0.2,0-0.4
		c-0.1-1.8-1.2-3.1-3.2-3.1C194.4,603.4,193.2,605,193.1,606.9z"/>
	<path d="M214.6,606.4v6.8h-1.4l-0.1-1.7c-0.9,1.2-2.2,1.8-3.9,1.8c-2.4,0-3.7-1.2-3.7-3.3c0-1.1,0.4-1.9,1.2-2.4
		c0.8-0.5,2-0.7,4.1-0.7h2.2v-0.5c0-1.9-1-2.9-2.8-2.9c-1.4,0-2.4,0.6-3.3,1.8l-1.1-0.9c1.2-1.5,2.6-2.2,4.4-2.2
		C213,602.1,214.6,603.7,214.6,606.4z M213,608.3v-0.2h-2.1c-2,0-2.9,0.1-3.4,0.5c-0.4,0.3-0.6,0.8-0.6,1.4c0,1.2,1,2,2.7,2
		C211.7,612.1,213,610.6,213,608.3z"/>
	<path d="M229.7,597.8v15.3h-1.5v-1.5c-0.8,1-2,1.6-3.6,1.6c-3.2,0-4.8-2.4-4.8-5.6c0-3.4,1.8-5.6,4.8-5.6c1.5,0,2.8,0.6,3.6,1.7
		v-5.9H229.7z M228.3,607.7c0-2.6-1.3-4.3-3.5-4.3c-2.2,0-3.5,1.7-3.5,4.3c0,2.5,1.2,4.3,3.5,4.3C227.1,612,228.3,610.2,228.3,607.7
		z"/>
	<path d="M234.7,610.5l1.3-0.6c0.4,1.1,1.5,2.1,3.1,2.1c1.5,0,2.4-0.7,2.4-1.9c0-2.9-6.2-1.1-6.2-4.9c0-1.9,1.5-3.1,3.7-3.1
		c1.7,0,3.1,0.7,3.9,2.3l-1.2,0.7c-0.5-1-1.4-1.6-2.7-1.6c-1.3,0-2.2,0.5-2.2,1.5c0,2.6,6.3,0.9,6.3,5.1c0,2.2-1.8,3.3-3.9,3.3
		C237.1,613.3,235.3,612.2,234.7,610.5z"/>
	<path d="M257.1,597.8h1.8v2.2h-1.8V597.8z M257.2,602.3h1.5v10.8h-1.5V602.3z"/>
	<path d="M269.5,613.1c-0.6,0.2-1.1,0.3-1.7,0.3c-1.5,0-2.5-0.8-2.5-2.7v-7h-1.8v-1.3h1.8v-2.8l1.5-1.1v4h2.6v1.3h-2.6v6.8
		c0,1.1,0.5,1.5,1.3,1.5c0.4,0,0.8-0.1,1.3-0.2L269.5,613.1z"/>
	<path d="M273.6,610.5l1.3-0.6c0.4,1.1,1.5,2.1,3.1,2.1c1.5,0,2.4-0.7,2.4-1.9c0-2.9-6.2-1.1-6.2-4.9c0-1.9,1.5-3.1,3.7-3.1
		c1.7,0,3.1,0.7,3.9,2.3l-1.2,0.7c-0.5-1-1.4-1.6-2.7-1.6c-1.3,0-2.2,0.5-2.2,1.5c0,2.6,6.3,0.9,6.3,5.1c0,2.2-1.8,3.3-3.9,3.3
		C275.9,613.3,274.2,612.2,273.6,610.5z"/>
	<path d="M306,607.7c0,3.2-1.7,5.6-4.8,5.6c-1.6,0-2.8-0.6-3.6-1.6v5.9h-1.5v-15.3h1.5v1.5c0.8-1.1,2-1.7,3.6-1.7
		C304.2,602.1,306,604.3,306,607.7z M304.5,607.7c0-2.6-1.3-4.3-3.5-4.3s-3.5,1.7-3.5,4.3c0,2.5,1.2,4.3,3.5,4.3
		S304.5,610.2,304.5,607.7z"/>
	<path d="M320.2,608.1h-7.9c0,2.4,1.4,3.8,3.5,3.8c1.2,0,2.1-0.3,3.1-1.4l1.1,0.9c-1.3,1.3-2.5,1.8-4.2,1.8c-3.3,0-5-2.5-5-5.5
		c0-3.1,1.7-5.7,4.8-5.7c3.3,0,4.7,2.6,4.7,5.1C320.3,607.5,320.2,607.9,320.2,608.1z M312.3,606.9h6.6c0,0,0-0.2,0-0.4
		c-0.1-1.8-1.2-3.1-3.2-3.1C313.6,603.4,312.4,605,312.3,606.9z"/>
	<path d="M324.8,607.7c0-3.2,2.1-5.6,5.2-5.6s5.2,2.4,5.2,5.6c0,3.2-2.1,5.6-5.2,5.6S324.8,610.9,324.8,607.7z M333.7,607.7
		c0-2.5-1.4-4.2-3.7-4.2c-2.3,0-3.7,1.8-3.7,4.2c0,2.5,1.4,4.3,3.7,4.3C332.4,612,333.7,610.2,333.7,607.7z"/>
	<path d="M350.5,607.7c0,3.2-1.7,5.6-4.8,5.6c-1.6,0-2.8-0.6-3.6-1.6v5.9h-1.5v-15.3h1.5v1.5c0.8-1.1,2-1.7,3.6-1.7
		C348.7,602.1,350.5,604.3,350.5,607.7z M349,607.7c0-2.6-1.3-4.3-3.5-4.3s-3.5,1.7-3.5,4.3c0,2.5,1.2,4.3,3.5,4.3
		S349,610.2,349,607.7z"/>
	<path d="M355.9,610.8v-13h1.5v12.9c0,0.7,0.3,1.2,1,1.2c0.3,0,0.7-0.1,1-0.2v1.3c-0.5,0.2-1,0.3-1.5,0.3
		C356.7,613.3,355.9,612.5,355.9,610.8z"/>
	<path d="M372.6,608.1h-7.9c0,2.4,1.4,3.8,3.5,3.8c1.2,0,2.1-0.3,3.1-1.4l1.1,0.9c-1.3,1.3-2.5,1.8-4.2,1.8c-3.3,0-5-2.5-5-5.5
		c0-3.1,1.7-5.7,4.8-5.7c3.3,0,4.7,2.6,4.7,5.1C372.7,607.5,372.7,607.9,372.6,608.1z M364.7,606.9h6.6c0,0,0-0.2,0-0.4
		c-0.1-1.8-1.2-3.1-3.2-3.1C366,603.4,364.8,605,364.7,606.9z"/>
	<path d="M391.3,613.1c-0.6,0.2-1.1,0.3-1.7,0.3c-1.5,0-2.5-0.8-2.5-2.7v-7h-1.8v-1.3h1.8v-2.8l1.5-1.1v4h2.6v1.3h-2.6v6.8
		c0,1.1,0.5,1.5,1.3,1.5c0.4,0,0.8-0.1,1.3-0.2L391.3,613.1z"/>
	<path d="M395.2,607.7c0-3.2,2.1-5.6,5.2-5.6s5.2,2.4,5.2,5.6c0,3.2-2.1,5.6-5.2,5.6S395.2,610.9,395.2,607.7z M404.1,607.7
		c0-2.5-1.4-4.2-3.7-4.2c-2.3,0-3.7,1.8-3.7,4.2c0,2.5,1.4,4.3,3.7,4.3C402.7,612,404.1,610.2,404.1,607.7z"/>
	<path d="M418.6,610.5l1.3-0.6c0.4,1.1,1.5,2.1,3.1,2.1c1.5,0,2.4-0.7,2.4-1.9c0-2.9-6.2-1.1-6.2-4.9c0-1.9,1.5-3.1,3.7-3.1
		c1.7,0,3.1,0.7,3.9,2.3l-1.2,0.7c-0.5-1-1.4-1.6-2.7-1.6c-1.3,0-2.2,0.5-2.2,1.5c0,2.6,6.3,0.9,6.3,5.1c0,2.2-1.8,3.3-3.9,3.3
		C420.9,613.3,419.1,612.2,418.6,610.5z"/>
	<path d="M440.9,608.1H433c0,2.4,1.4,3.8,3.5,3.8c1.2,0,2.1-0.3,3.1-1.4l1.1,0.9c-1.3,1.3-2.5,1.8-4.2,1.8c-3.3,0-5-2.5-5-5.5
		c0-3.1,1.7-5.7,4.8-5.7c3.3,0,4.7,2.6,4.7,5.1C441,607.5,441,607.9,440.9,608.1z M433,606.9h6.6c0,0,0-0.2,0-0.4
		c-0.1-1.8-1.2-3.1-3.2-3.1C434.3,603.4,433.1,605,433,606.9z"/>
	<path d="M455,608.1h-7.9c0,2.4,1.4,3.8,3.5,3.8c1.2,0,2.1-0.3,3.1-1.4l1.1,0.9c-1.3,1.3-2.5,1.8-4.2,1.8c-3.3,0-5-2.5-5-5.5
		c0-3.1,1.7-5.7,4.8-5.7c3.3,0,4.7,2.6,4.7,5.1C455.1,607.5,455.1,607.9,455,608.1z M447.1,606.9h6.6c0,0,0-0.2,0-0.4
		c-0.1-1.8-1.2-3.1-3.2-3.1C448.4,603.4,447.2,605,447.1,606.9z"/>
	<path d="M460.4,597.8h1.5V608l5.4-5.7h2l-3.9,4.1l4.6,6.8h-1.8l-3.8-5.8l-2.5,2.6v3.2h-1.5L460.4,597.8L460.4,597.8z"/>
	<path d="M493.4,607.7c0,3.2-1.7,5.6-4.8,5.6c-1.6,0-2.8-0.6-3.6-1.6v5.9h-1.5v-15.3h1.5v1.5c0.8-1.1,2-1.7,3.6-1.7
		C491.6,602.1,493.4,604.3,493.4,607.7z M491.9,607.7c0-2.6-1.3-4.3-3.5-4.3s-3.5,1.7-3.5,4.3c0,2.5,1.2,4.3,3.5,4.3
		S491.9,610.2,491.9,607.7z"/>
	<path d="M507.6,608.1h-7.9c0,2.4,1.4,3.8,3.5,3.8c1.2,0,2.1-0.3,3.1-1.4l1.1,0.9c-1.3,1.3-2.5,1.8-4.2,1.8c-3.3,0-5-2.5-5-5.5
		c0-3.1,1.7-5.7,4.8-5.7c3.3,0,4.7,2.6,4.7,5.1C507.7,607.5,507.7,607.9,507.6,608.1z M499.7,606.9h6.6c0,0,0-0.2,0-0.4
		c-0.1-1.8-1.2-3.1-3.2-3.1C501,603.4,499.8,605,499.7,606.9z"/>
	<path d="M519.6,602.6l-0.7,1.2c-0.5-0.2-1-0.3-1.4-0.3c-1.7,0-2.9,1.3-2.9,3.6v6.1h-1.5v-10.8h1.5v1.6c0.8-1.4,2.1-1.8,3.2-1.8
		C518.4,602.1,519,602.3,519.6,602.6z"/>
	<path d="M525.7,603.6h-2.3v-1.3h2.3v-1.7c0-2.3,1.3-3,2.7-3c0.6,0,1.3,0.1,1.9,0.4l-0.5,1.2c-0.5-0.2-0.9-0.4-1.3-0.4
		c-0.9,0-1.4,0.6-1.4,1.6v1.8h3.1v1.3h-3.1v9.6h-1.5L525.7,603.6L525.7,603.6z"/>
	<path d="M543.5,608.1h-7.9c0,2.4,1.4,3.8,3.5,3.8c1.2,0,2.1-0.3,3.1-1.4l1.1,0.9c-1.3,1.3-2.5,1.8-4.2,1.8c-3.3,0-5-2.5-5-5.5
		c0-3.1,1.7-5.7,4.8-5.7c3.3,0,4.7,2.6,4.7,5.1C543.6,607.5,543.6,607.9,543.5,608.1z M535.6,606.9h6.6c0,0,0-0.2,0-0.4
		c-0.1-1.8-1.2-3.1-3.2-3.1C536.9,603.4,535.7,605,535.6,606.9z"/>
	<path d="M548.2,607.8c0-2.9,1.6-5.6,4.9-5.6c1.9,0,3.5,1,4.4,3l-1.5,0.6c-0.5-1.4-1.6-2.2-2.9-2.2c-2.3,0-3.3,2.1-3.3,4.3
		s1,4.2,3.4,4.2c1.4,0,2.4-0.8,2.9-2.2l1.4,0.5c-0.7,2-2.3,3-4.3,3C549.9,613.3,548.2,610.8,548.2,607.8z"/>
	<path d="M567.3,613.1c-0.6,0.2-1.1,0.3-1.7,0.3c-1.5,0-2.5-0.8-2.5-2.7v-7h-1.8v-1.3h1.8v-2.8l1.5-1.1v4h2.6v1.3h-2.6v6.8
		c0,1.1,0.5,1.5,1.3,1.5c0.4,0,0.8-0.1,1.3-0.2L567.3,613.1z"/>
	<path d="M572.1,597.8h1.8v2.2h-1.8V597.8z M572.2,602.3h1.5v10.8h-1.5V602.3z"/>
	<path d="M579,607.7c0-3.2,2.1-5.6,5.2-5.6c3.1,0,5.2,2.4,5.2,5.6c0,3.2-2.1,5.6-5.2,5.6C581.1,613.3,579,610.9,579,607.7z
		 M587.9,607.7c0-2.5-1.4-4.2-3.7-4.2s-3.7,1.8-3.7,4.2c0,2.5,1.4,4.3,3.7,4.3C586.6,612,587.9,610.2,587.9,607.7z"/>
	<path d="M603.4,606.5v6.6h-1.5v-6.3c0-2.3-0.7-3.4-2.4-3.4c-2,0-3.2,1.8-3.2,4.8v4.9h-1.5v-10.8h1.5v1.6c0.7-1.1,2-1.8,3.6-1.8
		C602.2,602.1,603.4,603.6,603.4,606.5z"/>
	<path d="M127.7,635.8h1.8v2.2h-1.8V635.8z M127.8,640.3h1.5v10.8h-1.5V640.3z"/>
	<path d="M144,644.5v6.6h-1.5v-6.3c0-2.3-0.7-3.4-2.4-3.4c-2,0-3.2,1.8-3.2,4.8v4.9h-1.5v-10.8h1.5v1.6c0.7-1.1,2-1.8,3.6-1.8
		C142.8,640.1,144,641.6,144,644.5z"/>
	<path d="M163.4,651.1c-0.6,0.2-1.1,0.3-1.7,0.3c-1.5,0-2.5-0.8-2.5-2.7v-7h-1.8v-1.3h1.8v-2.8l1.5-1.1v4h2.6v1.3h-2.6v6.8
		c0,1.1,0.5,1.5,1.3,1.5c0.4,0,0.8-0.1,1.3-0.2L163.4,651.1z"/>
	<path d="M176.9,644.5v6.6h-1.5v-6.3c0-2.4-0.7-3.4-2.4-3.4c-2.1,0-3.2,1.7-3.2,4.7v5h-1.5v-15.3h1.5v6.1c0.7-1.1,2-1.8,3.6-1.8
		C175.7,640.1,176.9,641.6,176.9,644.5z"/>
	<path d="M191.6,646.1h-7.9c0,2.4,1.4,3.8,3.5,3.8c1.2,0,2.1-0.3,3.1-1.4l1.1,0.9c-1.3,1.3-2.5,1.8-4.2,1.8c-3.3,0-5-2.5-5-5.5
		c0-3.1,1.7-5.7,4.8-5.7c3.3,0,4.7,2.6,4.7,5.1C191.7,645.5,191.6,645.9,191.6,646.1z M183.7,644.9h6.6c0,0,0-0.2,0-0.4
		c-0.1-1.8-1.2-3.1-3.2-3.1C185,641.4,183.8,643,183.7,644.9z"/>
	<path d="M196.9,635.8h1.8v2.2h-1.8V635.8z M197,640.3h1.5v10.8H197V640.3z"/>
	<path d="M211.2,640.6l-0.7,1.2c-0.5-0.2-1-0.3-1.4-0.3c-1.7,0-2.9,1.3-2.9,3.6v6.1h-1.5v-10.8h1.5v1.6c0.8-1.4,2.1-1.8,3.2-1.8
		C210,640.1,210.6,640.3,211.2,640.6z"/>
	<path d="M223.1,640.3h1.6l2.3,8.6l2.9-8.6h1.4l2.8,8.6l2.4-8.6h1.6l-3.2,10.8h-1.4l-2.9-8.8l-2.9,8.8h-1.4L223.1,640.3z"/>
	<path d="M241.9,645.7c0-3.2,2.1-5.6,5.2-5.6s5.2,2.4,5.2,5.6c0,3.2-2.1,5.6-5.2,5.6C244,651.3,241.9,648.9,241.9,645.7z
		 M250.8,645.7c0-2.5-1.4-4.2-3.7-4.2c-2.3,0-3.7,1.8-3.7,4.2c0,2.5,1.4,4.3,3.7,4.3C249.5,650,250.8,648.2,250.8,645.7z"/>
	<path d="M264.3,640.6l-0.7,1.2c-0.5-0.2-1-0.3-1.4-0.3c-1.7,0-2.9,1.3-2.9,3.6v6.1h-1.5v-10.8h1.5v1.6c0.8-1.4,2.1-1.8,3.2-1.8
		C263.1,640.1,263.7,640.3,264.3,640.6z"/>
	<path d="M268.9,635.8h1.5V646l5.4-5.7h2l-3.9,4.1l4.6,6.8h-1.8l-3.8-5.8l-2.5,2.6v3.2h-1.5V635.8z"/>
	<path d="M284.8,648.3h2l-2.9,6.2h-1L284.8,648.3z"/>
	<path d="M309.4,644.4v6.8H308l-0.1-1.7c-0.9,1.2-2.2,1.8-3.9,1.8c-2.4,0-3.7-1.2-3.7-3.3c0-1.1,0.4-1.9,1.2-2.4
		c0.8-0.5,2-0.7,4.1-0.7h2.2v-0.5c0-1.9-1-2.9-2.8-2.9c-1.4,0-2.4,0.6-3.3,1.8l-1.1-0.9c1.2-1.5,2.6-2.2,4.4-2.2
		C307.8,640.1,309.4,641.7,309.4,644.4z M307.9,646.3v-0.2h-2.1c-2,0-2.9,0.1-3.4,0.5c-0.4,0.3-0.6,0.8-0.6,1.4c0,1.2,1,2,2.7,2
		C306.6,650.1,307.9,648.6,307.9,646.3z"/>
	<path d="M315.3,648.8v-13h1.5v12.9c0,0.7,0.3,1.2,1,1.2c0.3,0,0.7-0.1,1-0.2v1.3c-0.5,0.2-1,0.3-1.5,0.3
		C316.1,651.3,315.3,650.5,315.3,648.8z"/>
	<path d="M321.8,640.3h1.6l2.3,8.6l2.9-8.6h1.4l2.8,8.6l2.4-8.6h1.6l-3.2,10.8h-1.4l-2.9-8.8l-2.9,8.8H325L321.8,640.3z"/>
	<path d="M349.8,644.4v6.8h-1.4l-0.1-1.7c-0.9,1.2-2.2,1.8-3.9,1.8c-2.4,0-3.7-1.2-3.7-3.3c0-1.1,0.4-1.9,1.2-2.4
		c0.8-0.5,2-0.7,4.1-0.7h2.2v-0.5c0-1.9-1-2.9-2.8-2.9c-1.4,0-2.4,0.6-3.3,1.8l-1.1-0.9c1.2-1.5,2.6-2.2,4.4-2.2
		C348.3,640.1,349.8,641.7,349.8,644.4z M348.3,646.3v-0.2h-2.1c-2,0-2.9,0.1-3.4,0.5c-0.4,0.3-0.6,0.8-0.6,1.4c0,1.2,1,2,2.7,2
		C347,650.1,348.3,648.6,348.3,646.3z"/>
	<path d="M358.4,651l-4.6-10.7h1.7l3.7,8.9l3.3-8.9h1.7l-5.9,15.3h-1.6L358.4,651z"/>
	<path d="M367.7,648.5l1.3-0.6c0.4,1.1,1.5,2.1,3.1,2.1c1.5,0,2.4-0.7,2.4-1.9c0-2.9-6.2-1.1-6.2-4.9c0-1.9,1.5-3.1,3.7-3.1
		c1.7,0,3.1,0.7,3.9,2.3l-1.2,0.7c-0.5-1-1.4-1.6-2.7-1.6s-2.2,0.5-2.2,1.5c0,2.6,6.3,0.9,6.3,5.1c0,2.2-1.8,3.3-3.9,3.3
		C370,651.3,368.3,650.2,367.7,648.5z"/>
	<path d="M396.8,640.6l-0.7,1.2c-0.5-0.2-1-0.3-1.4-0.3c-1.7,0-2.9,1.3-2.9,3.6v6.1h-1.5v-10.8h1.5v1.6c0.8-1.4,2.1-1.8,3.2-1.8
		C395.6,640.1,396.2,640.3,396.8,640.6z"/>
	<path d="M409.6,646.1h-7.9c0,2.4,1.4,3.8,3.5,3.8c1.2,0,2.1-0.3,3.1-1.4l1.1,0.9c-1.3,1.3-2.5,1.8-4.2,1.8c-3.3,0-5-2.5-5-5.5
		c0-3.1,1.7-5.7,4.8-5.7c3.3,0,4.7,2.6,4.7,5.1C409.6,645.5,409.6,645.9,409.6,646.1z M401.6,644.9h6.6c0,0,0-0.2,0-0.4
		c-0.1-1.8-1.2-3.1-3.2-3.1S401.8,643,401.6,644.9z"/>
	<path d="M422.7,651.2h-1.5v-9.6H417v9.6h-1.5v-9.6h-1.9v-1.3h1.9v-0.9c0-2.6,1.7-3.8,3.9-3.8c1.3,0,2.4,0.4,3.4,1l-0.7,1.1
		c-0.7-0.5-1.5-0.8-2.6-0.8c-1.6,0-2.4,0.8-2.4,2.6v0.9h5.7L422.7,651.2L422.7,651.2z"/>
	<path d="M437.6,644.5v6.6h-1.5v-6.3c0-2.3-0.7-3.4-2.4-3.4c-2,0-3.2,1.8-3.2,4.8v4.9h-1.6v-10.8h1.5v1.6c0.7-1.1,2-1.8,3.6-1.8
		C436.4,640.1,437.6,641.6,437.6,644.5z"/>
	<path d="M443.4,635.8h1.8v2.2h-1.8V635.8z M443.5,640.3h1.5v10.8h-1.5V640.3z"/>
	<path d="M459.7,644.5v6.6h-1.5v-6.3c0-2.3-0.7-3.4-2.4-3.4c-2,0-3.2,1.8-3.2,4.8v4.9h-1.5v-10.8h1.5v1.6c0.7-1.1,2-1.8,3.6-1.8
		C458.5,640.1,459.7,641.6,459.7,644.5z"/>
	<path d="M474.2,652.8c0,2-1.9,3-4.6,3c-3,0-4.8-1.2-4.8-3.3c0-0.2,0-0.4,0-0.5l1.8-1.5c-0.8-0.4-1.4-1-1.4-2.1
		c0-0.9,0.4-1.5,1.2-2.1c-0.6-0.7-0.9-1.5-0.9-2.5c0-2.2,1.8-3.8,4.1-3.8c1.1,0,2,0.3,2.7,0.9l1.5-1.3l0.8,1l-1.5,1.2
		c0.4,0.6,0.6,1.3,0.6,2c0,2.2-1.8,3.7-4.1,3.7c-0.8,0-1.6-0.2-2.2-0.5c-0.4,0.2-0.7,0.6-0.7,1.1c0,1.1,1.4,1.4,2.9,1.6
		C471.6,650.2,474.2,650.5,474.2,652.8z M472.7,653c0-1.3-1.7-1.5-3.5-1.8c-0.5-0.1-1-0.2-1.5-0.3l-1.5,1.4c0,0.1,0,0.2,0,0.2
		c0,1.5,1.6,2,3.4,2C471.5,654.6,472.7,654,472.7,653z M466.8,643.9c0,1.4,1,2.5,2.6,2.5s2.6-1.1,2.6-2.5c0-1.5-1-2.5-2.6-2.5
		C467.9,641.4,466.8,642.5,466.8,643.9z"/>
	<path d="M496.3,644.4v6.8h-1.4l-0.1-1.7c-0.9,1.2-2.2,1.8-3.9,1.8c-2.4,0-3.7-1.2-3.7-3.3c0-1.1,0.4-1.9,1.2-2.4
		c0.8-0.5,2-0.7,4.1-0.7h2.2v-0.5c0-1.9-1-2.9-2.8-2.9c-1.4,0-2.4,0.6-3.3,1.8l-1.1-0.9c1.2-1.5,2.6-2.2,4.4-2.2
		C494.7,640.1,496.3,641.7,496.3,644.4z M494.8,646.3v-0.2h-2.1c-2,0-2.9,0.1-3.4,0.5c-0.4,0.3-0.6,0.8-0.6,1.4c0,1.2,1,2,2.7,2
		C493.5,650.1,494.8,648.6,494.8,646.3z"/>
	<path d="M510.9,644.5v6.6h-1.5v-6.3c0-2.3-0.7-3.4-2.4-3.4c-2,0-3.2,1.8-3.2,4.8v4.9h-1.5v-10.8h1.5v1.6c0.7-1.1,2-1.8,3.6-1.8
		C509.7,640.1,510.9,641.6,510.9,644.5z"/>
	<path d="M526.1,635.8v15.3h-1.5v-1.5c-0.8,1-2,1.6-3.6,1.6c-3.2,0-4.8-2.4-4.8-5.6c0-3.4,1.8-5.6,4.8-5.6c1.5,0,2.8,0.6,3.6,1.7
		v-5.9H526.1z M524.7,645.7c0-2.6-1.3-4.3-3.5-4.3s-3.5,1.7-3.5,4.3c0,2.5,1.2,4.3,3.5,4.3S524.7,648.2,524.7,645.7z"/>
	<path d="M540,648.5l1.3-0.6c0.4,1.1,1.5,2.1,3.1,2.1c1.5,0,2.4-0.7,2.4-1.9c0-2.9-6.2-1.1-6.2-4.9c0-1.9,1.5-3.1,3.7-3.1
		c1.7,0,3.1,0.7,3.9,2.3l-1.2,0.7c-0.5-1-1.4-1.6-2.7-1.6s-2.2,0.5-2.2,1.5c0,2.6,6.3,0.9,6.3,5.1c0,2.2-1.8,3.3-3.9,3.3
		C542.3,651.3,540.5,650.2,540,648.5z"/>
	<path d="M562,640.3v10.8h-1.5v-1.6c-0.8,1.2-2.2,1.7-3.6,1.7c-2.5,0-3.5-1.7-3.5-4.4v-6.6h1.5v6.3c0,1.8,0.3,3.4,2.4,3.4
		c2.2,0,3.2-1.9,3.2-4.7v-5L562,640.3L562,640.3z"/>
	<path d="M574.7,640.6l-0.7,1.2c-0.5-0.2-1-0.3-1.4-0.3c-1.7,0-2.9,1.3-2.9,3.6v6.1h-1.5v-10.8h1.5v1.6c0.8-1.4,2.1-1.8,3.2-1.8
		C573.5,640.1,574.1,640.3,574.7,640.6z"/>
	<path d="M589.3,645.7c0,3.2-1.7,5.6-4.8,5.6c-1.6,0-2.8-0.6-3.6-1.6v5.9h-1.5v-15.3h1.5v1.5c0.8-1.1,2-1.7,3.6-1.7
		C587.5,640.1,589.3,642.3,589.3,645.7z M587.7,645.7c0-2.6-1.3-4.3-3.5-4.3s-3.5,1.7-3.5,4.3c0,2.5,1.2,4.3,3.5,4.3
		S587.7,648.2,587.7,645.7z"/>
	<path d="M602.9,644.4v6.8h-1.4l-0.1-1.7c-0.9,1.2-2.2,1.8-3.9,1.8c-2.4,0-3.7-1.2-3.7-3.3c0-1.1,0.4-1.9,1.2-2.4s2-0.7,4.1-0.7h2.2
		v-0.5c0-1.9-1-2.9-2.8-2.9c-1.4,0-2.4,0.6-3.3,1.8l-1.1-0.9c1.2-1.5,2.6-2.2,4.4-2.2C601.3,640.1,602.9,641.7,602.9,644.4z
		 M601.4,646.3v-0.2h-2.1c-2,0-2.9,0.1-3.4,0.5c-0.4,0.3-0.6,0.8-0.6,1.4c0,1.2,1,2,2.7,2C600,650.1,601.4,648.6,601.4,646.3z"/>
	<path d="M607.7,648.5l1.3-0.6c0.4,1.1,1.5,2.1,3.1,2.1c1.5,0,2.4-0.7,2.4-1.9c0-2.9-6.2-1.1-6.2-4.9c0-1.9,1.5-3.1,3.7-3.1
		c1.7,0,3.1,0.7,3.9,2.3l-1.2,0.7c-0.5-1-1.4-1.6-2.7-1.6s-2.2,0.5-2.2,1.5c0,2.6,6.3,0.9,6.3,5.1c0,2.2-1.8,3.3-3.9,3.3
		C610,651.3,608.3,650.2,607.7,648.5z"/>
	<path d="M620.5,648.5l1.3-0.6c0.4,1.1,1.5,2.1,3.1,2.1c1.5,0,2.4-0.7,2.4-1.9c0-2.9-6.2-1.1-6.2-4.9c0-1.9,1.5-3.1,3.7-3.1
		c1.7,0,3.1,0.7,3.9,2.3l-1.2,0.7c-0.5-1-1.4-1.6-2.7-1.6s-2.2,0.5-2.2,1.5c0,2.6,6.3,0.9,6.3,5.1c0,2.2-1.8,3.3-3.9,3.3
		C622.8,651.3,621.1,650.2,620.5,648.5z"/>
	<path d="M634,635.8h1.8v2.2H634V635.8z M634.1,640.3h1.5v10.8h-1.5V640.3z"/>
	<path d="M650.3,644.5v6.6h-1.5v-6.3c0-2.3-0.7-3.4-2.4-3.4c-2,0-3.2,1.8-3.2,4.8v4.9h-1.5v-10.8h1.5v1.6c0.7-1.1,2-1.8,3.6-1.8
		C649.1,640.1,650.3,641.6,650.3,644.5z"/>
	<path d="M664.8,652.8c0,2-1.9,3-4.6,3c-3,0-4.8-1.2-4.8-3.3c0-0.2,0-0.4,0-0.5l1.8-1.5c-0.8-0.4-1.4-1-1.4-2.1
		c0-0.9,0.4-1.5,1.2-2.1c-0.6-0.7-0.9-1.5-0.9-2.5c0-2.2,1.8-3.8,4.1-3.8c1.1,0,2,0.3,2.7,0.9l1.5-1.3l0.8,1l-1.5,1.2
		c0.4,0.6,0.6,1.3,0.6,2c0,2.2-1.8,3.7-4.1,3.7c-0.8,0-1.6-0.2-2.2-0.5c-0.4,0.2-0.7,0.6-0.7,1.1c0,1.1,1.4,1.4,2.9,1.6
		C662.2,650.2,664.8,650.5,664.8,652.8z M663.3,653c0-1.3-1.7-1.5-3.5-1.8c-0.5-0.1-1-0.2-1.5-0.3l-1.5,1.4c0,0.1,0,0.2,0,0.2
		c0,1.5,1.6,2,3.4,2C662.1,654.6,663.3,654,663.3,653z M657.4,643.9c0,1.4,1,2.5,2.6,2.5s2.6-1.1,2.6-2.5c0-1.5-1-2.5-2.6-2.5
		C658.6,641.4,657.4,642.5,657.4,643.9z"/>
	<path d="M132.3,689.1c-0.6,0.2-1.1,0.3-1.7,0.3c-1.5,0-2.5-0.8-2.5-2.7v-7h-1.8v-1.3h1.8v-2.8l1.5-1.1v4h2.6v1.3h-2.6v6.8
		c0,1.1,0.5,1.5,1.3,1.5c0.4,0,0.8-0.1,1.3-0.2L132.3,689.1z"/>
	<path d="M145.9,682.5v6.6h-1.5v-6.3c0-2.4-0.7-3.4-2.4-3.4c-2.1,0-3.2,1.7-3.2,4.7v5h-1.5v-15.3h1.5v6.1c0.7-1.1,2-1.8,3.6-1.8
		C144.7,678.1,145.9,679.6,145.9,682.5z"/>
	<path d="M160.6,684.1h-7.9c0,2.4,1.4,3.8,3.5,3.8c1.2,0,2.1-0.3,3.1-1.4l1.1,0.9c-1.3,1.3-2.5,1.8-4.2,1.8c-3.3,0-5-2.5-5-5.5
		c0-3.1,1.7-5.7,4.8-5.7c3.3,0,4.7,2.6,4.7,5.1C160.6,683.5,160.6,683.9,160.6,684.1z M152.6,682.9h6.6c0,0,0-0.2,0-0.4
		c-0.1-1.8-1.2-3.1-3.2-3.1S152.7,681,152.6,682.9z"/>
	<path d="M181.4,678.6l-0.7,1.2c-0.5-0.2-1-0.3-1.4-0.3c-1.7,0-2.9,1.3-2.9,3.6v6.1h-1.5v-10.8h1.5v1.6c0.8-1.4,2.1-1.8,3.2-1.8
		C180.1,678.1,180.8,678.3,181.4,678.6z"/>
	<path d="M194.1,684.1h-7.9c0,2.4,1.4,3.8,3.5,3.8c1.2,0,2.1-0.3,3.1-1.4l1.1,0.9c-1.3,1.3-2.5,1.8-4.2,1.8c-3.3,0-5-2.5-5-5.5
		c0-3.1,1.7-5.7,4.8-5.7c3.3,0,4.7,2.6,4.7,5.1C194.2,683.5,194.2,683.9,194.1,684.1z M186.2,682.9h6.6c0,0,0-0.2,0-0.4
		c-0.1-1.8-1.2-3.1-3.2-3.1C187.5,679.4,186.3,681,186.2,682.9z"/>
	<path d="M198.4,686.5l1.3-0.6c0.4,1.1,1.5,2.1,3.1,2.1c1.5,0,2.4-0.7,2.4-1.9c0-2.9-6.2-1.1-6.2-4.9c0-1.9,1.5-3.1,3.7-3.1
		c1.7,0,3.1,0.7,3.9,2.3l-1.2,0.7c-0.5-1-1.4-1.6-2.7-1.6c-1.3,0-2.2,0.5-2.2,1.5c0,2.6,6.3,0.9,6.3,5.1c0,2.2-1.8,3.3-3.9,3.3
		C200.8,689.3,199,688.2,198.4,686.5z"/>
	<path d="M220.5,678.3v10.8H219v-1.6c-0.8,1.2-2.2,1.7-3.6,1.7c-2.5,0-3.5-1.7-3.5-4.4v-6.6h1.5v6.3c0,1.8,0.3,3.4,2.4,3.4
		c2.2,0,3.2-1.9,3.2-4.7v-5L220.5,678.3L220.5,678.3z"/>
	<path d="M226.6,686.8v-13h1.5v12.9c0,0.7,0.3,1.2,1,1.2c0.3,0,0.7-0.1,1-0.2v1.3c-0.5,0.2-1,0.3-1.5,0.3
		C227.4,689.3,226.6,688.5,226.6,686.8z"/>
	<path d="M239.1,689.1c-0.6,0.2-1.1,0.3-1.7,0.3c-1.5,0-2.5-0.8-2.5-2.7v-7h-1.8v-1.3h1.8v-2.8l1.5-1.1v4h2.6v1.3h-2.6v6.8
		c0,1.1,0.5,1.5,1.3,1.5c0.4,0,0.8-0.1,1.3-0.2L239.1,689.1z"/>
	<path d="M243.2,686.5l1.3-0.6c0.4,1.1,1.5,2.1,3.1,2.1c1.5,0,2.4-0.7,2.4-1.9c0-2.9-6.2-1.1-6.2-4.9c0-1.9,1.5-3.1,3.7-3.1
		c1.7,0,3.1,0.7,3.9,2.3l-1.2,0.7c-0.5-1-1.4-1.6-2.7-1.6c-1.3,0-2.2,0.5-2.2,1.5c0,2.6,6.3,0.9,6.3,5.1c0,2.2-1.8,3.3-3.9,3.3
		C245.6,689.3,243.8,688.2,243.2,686.5z"/>
	<path d="M275.7,683.7c0,3.2-1.7,5.6-4.8,5.6c-1.6,0-2.8-0.6-3.6-1.6v5.9h-1.5v-15.3h1.5v1.5c0.8-1.1,2-1.7,3.6-1.7
		C273.8,678.1,275.7,680.3,275.7,683.7z M274.1,683.7c0-2.6-1.3-4.3-3.5-4.3c-2.2,0-3.5,1.7-3.5,4.3c0,2.5,1.2,4.3,3.5,4.3
		C272.9,688,274.1,686.2,274.1,683.7z"/>
	<path d="M287.7,678.6l-0.7,1.2c-0.5-0.2-1-0.3-1.4-0.3c-1.7,0-2.9,1.3-2.9,3.6v6.1h-1.5v-10.8h1.5v1.6c0.8-1.4,2.1-1.8,3.2-1.8
		C286.5,678.1,287.1,678.3,287.7,678.6z"/>
	<path d="M300.5,684.1h-7.9c0,2.4,1.4,3.8,3.5,3.8c1.2,0,2.1-0.3,3.1-1.4l1.1,0.9c-1.3,1.3-2.5,1.8-4.2,1.8c-3.3,0-5-2.5-5-5.5
		c0-3.1,1.7-5.7,4.8-5.7c3.3,0,4.7,2.6,4.7,5.1C300.5,683.5,300.5,683.9,300.5,684.1z M292.5,682.9h6.6c0,0,0-0.2,0-0.4
		c-0.1-1.8-1.2-3.1-3.2-3.1S292.7,681,292.5,682.9z"/>
	<path d="M304.1,678.3h1.7l3.4,8.9l3.4-8.9h1.7l-4.4,10.8h-1.3L304.1,678.3z"/>
	<path d="M318.9,673.8h1.8v2.2h-1.8V673.8z M319,678.3h1.5v10.8H319V678.3z"/>
	<path d="M325.8,683.7c0-3.2,2.1-5.6,5.2-5.6s5.2,2.4,5.2,5.6c0,3.2-2.1,5.6-5.2,5.6S325.8,686.9,325.8,683.7z M334.7,683.7
		c0-2.5-1.4-4.2-3.7-4.2c-2.3,0-3.7,1.8-3.7,4.2c0,2.5,1.4,4.3,3.7,4.3C333.4,688,334.7,686.2,334.7,683.7z"/>
	<path d="M350,678.3v10.8h-1.5v-1.6c-0.8,1.2-2.2,1.7-3.6,1.7c-2.5,0-3.5-1.7-3.5-4.4v-6.6h1.5v6.3c0,1.8,0.3,3.4,2.4,3.4
		c2.2,0,3.2-1.9,3.2-4.7v-5L350,678.3L350,678.3z"/>
	<path d="M355.1,686.5l1.3-0.6c0.4,1.1,1.5,2.1,3.1,2.1c1.5,0,2.4-0.7,2.4-1.9c0-2.9-6.2-1.1-6.2-4.9c0-1.9,1.5-3.1,3.7-3.1
		c1.7,0,3.1,0.7,3.9,2.3l-1.2,0.7c-0.5-1-1.4-1.6-2.7-1.6s-2.2,0.5-2.2,1.5c0,2.6,6.3,0.9,6.3,5.1c0,2.2-1.8,3.3-3.9,3.3
		C357.4,689.3,355.7,688.2,355.1,686.5z"/>
	<path d="M368.7,686.8v-13h1.5v12.9c0,0.7,0.3,1.2,1,1.2c0.3,0,0.7-0.1,1-0.2v1.3c-0.5,0.2-1,0.3-1.5,0.3
		C369.5,689.3,368.7,688.5,368.7,686.8z"/>
	<path d="M379.7,689l-4.6-10.7h1.7l3.7,8.9l3.3-8.9h1.7l-5.9,15.3h-1.7L379.7,689z"/>
	<path d="M407.1,682.4v6.8h-1.4l-0.1-1.7c-0.9,1.2-2.2,1.8-3.9,1.8c-2.4,0-3.7-1.2-3.7-3.3c0-1.1,0.4-1.9,1.2-2.4
		c0.8-0.5,2-0.7,4.1-0.7h2.2v-0.5c0-1.9-1-2.9-2.8-2.9c-1.4,0-2.4,0.6-3.3,1.8l-1.1-0.9c1.2-1.5,2.6-2.2,4.4-2.2
		C405.5,678.1,407.1,679.7,407.1,682.4z M405.6,684.3v-0.2h-2.1c-2,0-2.9,0.1-3.4,0.5c-0.4,0.3-0.6,0.8-0.6,1.4c0,1.2,1,2,2.7,2
		C404.3,688.1,405.6,686.6,405.6,684.3z"/>
	<path d="M412.3,683.8c0-2.9,1.6-5.6,4.9-5.6c1.9,0,3.5,1,4.4,3l-1.5,0.6c-0.5-1.4-1.6-2.2-2.9-2.2c-2.3,0-3.3,2.1-3.3,4.3
		s1,4.2,3.4,4.2c1.4,0,2.4-0.8,2.9-2.2l1.4,0.5c-0.7,2-2.3,3-4.3,3C414,689.3,412.3,686.8,412.3,683.8z"/>
	<path d="M435.2,682.5v6.6h-1.5v-6.3c0-2.4-0.7-3.4-2.4-3.4c-2.1,0-3.2,1.7-3.2,4.7v5h-1.5v-15.3h1.5v6.1c0.7-1.1,2-1.8,3.6-1.8
		C434,678.1,435.2,679.6,435.2,682.5z"/>
	<path d="M441,673.8h1.8v2.2H441V673.8z M441.2,678.3h1.5v10.8h-1.5V678.3z"/>
	<path d="M457.5,684.1h-7.9c0,2.4,1.4,3.8,3.5,3.8c1.2,0,2.1-0.3,3.1-1.4l1.1,0.9c-1.3,1.3-2.5,1.8-4.2,1.8c-3.3,0-5-2.5-5-5.5
		c0-3.1,1.7-5.7,4.8-5.7c3.3,0,4.7,2.6,4.7,5.1C457.5,683.5,457.5,683.9,457.5,684.1z M449.5,682.9h6.6c0,0,0-0.2,0-0.4
		c-0.1-1.8-1.2-3.1-3.2-3.1S449.6,681,449.5,682.9z"/>
	<path d="M461.1,678.3h1.6l3.4,8.9l3.4-8.9h1.7l-4.4,10.8h-1.3L461.1,678.3z"/>
	<path d="M484.3,684.1h-7.9c0,2.4,1.4,3.8,3.5,3.8c1.2,0,2.1-0.3,3.1-1.4l1.1,0.9c-1.3,1.3-2.5,1.8-4.2,1.8c-3.3,0-5-2.5-5-5.5
		c0-3.1,1.7-5.7,4.8-5.7c3.3,0,4.7,2.6,4.7,5.1C484.4,683.5,484.3,683.9,484.3,684.1z M476.3,682.9h6.6c0,0,0-0.2,0-0.4
		c-0.1-1.8-1.2-3.1-3.2-3.1S476.5,681,476.3,682.9z"/>
	<path d="M498.9,673.8v15.3h-1.5v-1.5c-0.8,1-2,1.6-3.6,1.6c-3.2,0-4.8-2.4-4.8-5.6c0-3.4,1.8-5.6,4.8-5.6c1.5,0,2.8,0.6,3.6,1.7
		v-5.9H498.9z M497.5,683.7c0-2.6-1.3-4.3-3.5-4.3s-3.5,1.7-3.5,4.3c0,2.5,1.2,4.3,3.5,4.3S497.5,686.2,497.5,683.7z"/>
	<path d="M505.5,686.7h2v2.4h-2V686.7z"/>
</g>
</svg>
