<?xml version="1.0" encoding="utf-8"?>
<!-- Generator: Adobe Illustrator 26.5.0, SVG Export Plug-In . SVG Version: 6.00 Build 0)  -->
<svg version="1.1" id="Livello_1" xmlns="http://www.w3.org/2000/svg" xmlns:xlink="http://www.w3.org/1999/xlink" x="0px" y="0px"
	 viewBox="0 0 750 855" style="enable-background:new 0 0 750 855;" xml:space="preserve">
<style type="text/css">
	.st0{fill:#FFFFFF;}
	.st1{fill:#E6E6E6;}
	.st2{fill:none;}
</style>
<g>
	<path d="M105.5,481.3V498h-1.7v-12.4h-4.2V484h2.8c0.8,0,1.4-0.3,1.4-1.3v-1.4L105.5,481.3L105.5,481.3z"/>
	<path d="M119.8,481.3h1.6l-8.6,21.8h-1.6L119.8,481.3z"/>
	<path d="M135.9,492.7c0,3-2.5,5.6-5.7,5.6c-3.1,0-5.7-2.5-5.7-5.5c0-1,0.3-2.1,0.9-3l5-8.4h1.9l-3.9,6.3c0.9-0.3,1.9-0.5,3-0.3
		C133.9,487.8,135.9,490,135.9,492.7z M134.3,492.7c0-2.2-1.8-4-4-4s-4,1.8-4,4s1.8,4,4,4C132.5,496.6,134.3,494.8,134.3,492.7z"/>
</g>
<g>
	<rect x="154.5" width="437.9" height="437.9"/>
	<g>
		<g>
			<path class="st0" d="M508.5,178.1c-15.1,0-30.2-0.1-45.2-0.1c-17.1,0-34.3,0-51.4,0c-18.2,0-36.4,0.1-54.6,0.1
				c-17.8,0.1-35.6,0.1-53.5,0.2c-16.2,0.1-32.5,0.2-48.7,0.3c-1.8,0-3.7,0-5.5,0c-1.9,0-1.9,3,0,3c16-0.1,32-0.2,48-0.3
				c17.6-0.1,35.2-0.2,52.9-0.2c18.2-0.1,36.5-0.1,54.7-0.1c17.4,0,34.8,0,52.2,0c15.4,0,30.7,0,46.1,0.1c1.7,0,3.4,0,5.1,0
				C510.5,181.1,510.5,178.1,508.5,178.1L508.5,178.1z"/>
		</g>
	</g>
	<g>
		<g>
			<path class="st0" d="M242.3,178.8c-17.6,0.2-35.1,0.3-52.7,0.7c-0.8,0-1.5,0.7-1.5,1.5c0,30.1,3.5,60.1,4.1,90.1
				c0,0.8,0.7,1.5,1.5,1.5c47.2,0.7,94.4,1.1,141.6,1.1c47.2,0.1,94.3-0.1,141.5-0.5c26.5-0.2,52.9-0.4,79.4-0.7
				c0.9,0,1.4-0.7,1.5-1.5c3.4-30.3,4.3-60.8,5.6-91.3c0-0.8-0.7-1.5-1.5-1.5c-15.4-0.3-30.8-0.3-46.1-0.3c-1.9,0-1.9,3,0,3
				c15.4,0,30.8,0.1,46.1,0.3c-0.5-0.5-1-1-1.5-1.5c-1.2,30.5-2.1,61-5.6,91.3c0.5-0.5,1-1,1.5-1.5c-47.2,0.4-94.4,0.8-141.6,1
				s-94.3,0.2-141.5-0.1c-26.5-0.2-52.9-0.5-79.4-0.9c0.5,0.5,1,1,1.5,1.5c-0.6-30.1-4.1-60-4.1-90.1c-0.5,0.5-1,1-1.5,1.5
				c17.6-0.4,35.1-0.6,52.7-0.7C244.3,181.8,244.3,178.8,242.3,178.8L242.3,178.8z"/>
		</g>
	</g>
	<g>
		<path class="st1" d="M242.3,184.2c-23.3,0-40.4-0.2-49-0.4c0.7,8.3,4,64.9,4.7,84.5h-0.5c117.1,0.1,238.4-0.5,355.4,0.1h0.5
			c3-26.5,2.5-56.9,3.9-84.4h-0.7c-8.3-0.2-21.4-0.2-41.1-0.2h-6.8c-69.8,0-187.7,0.6-259.8,0.5"/>
	</g>
	<g>
		<path d="M222.2,229.9h-3.5v-3h4.2l0.7-3.5H220v-3.1h4.3l1.4-5.9h3.3l-1.4,6h3.4l1.3-6h3.3l-1.4,6h3.5v3h-4.2l-0.8,3.5h3.7v3h-4.3
			l-1.4,6.3h-3.3l1.4-6.3h-3.4l-1.3,6.3h-3.3L222.2,229.9z M229.6,226.9l0.7-3.5h-3.4l-0.7,3.5H229.6z"/>
		<path d="M252.8,236.2l-5.1-8.8h-1.3h-0.9v8.8h-4.4v-21.8h7.4c5.3,0,7.5,2.5,7.5,6.3c0,3.1-1.4,5.1-3.9,6l5.8,9.4h-5.1L252.8,236.2
			L252.8,236.2z M248,223.3c2,0,3.5-0.4,3.5-2.5s-1.5-2.4-3.5-2.4h-2.6v4.8L248,223.3L248,223.3z"/>
		<path d="M260.4,214.5H275v4h-10.1v4.5h9.5v4.1h-9.5v5.2H275v4.1h-14.5v-21.9L260.4,214.5L260.4,214.5z"/>
		<path d="M278.6,225.5h9.2v3.2h-9.2V225.5z"/>
		<path d="M294.2,218.5h-6.6v-4h17.6v4h-6.6v17.7h-4.4V218.5z"/>
		<path d="M307.8,214.5h4.4v8.5h9v-8.5h4.4v21.8h-4.4V227h-9v9.2h-4.4V214.5z"/>
		<path d="M330.6,214.5h4.4v21.8h-4.4V214.5z"/>
		<path d="M357.5,214.5v21.8H353l-8.6-14.2v14.2H340v-21.8h4.5l8.7,14.1v-14.1H357.5z"/>
		<path d="M376.9,236.2l-6.2-10.4l-3.7,3.8v6.6h-4.4v-21.8h4.4v9.6l9.1-9.6h5.8l-8.2,8.3l8.3,13.4L376.9,236.2L376.9,236.2z"/>
		<path d="M388.7,218.5h-6.6v-4h17.6v4h-6.6v17.7h-4.4V218.5z"/>
		<path d="M402.2,214.5h4.4v8.5h9v-8.5h4.4v21.8h-4.4V227h-9v9.2h-4.4V214.5z"/>
		<path d="M425,214.5h14.5v4h-10.1v4.5h9.5v4.1h-9.5v5.2h10.1v4.1H425V214.5z"/>
		<path d="M455.4,236.2l-5.1-8.8H449h-0.9v8.8h-4.4v-21.8h7.4c5.3,0,7.5,2.5,7.5,6.3c0,3.1-1.4,5.1-3.9,6l5.8,9.4h-5.1V236.2z
			 M450.7,223.3c2,0,3.5-0.4,3.5-2.5s-1.5-2.4-3.5-2.4h-2.6v4.8L450.7,223.3L450.7,223.3z"/>
		<path d="M462.6,228.4v-13.9h4.4v13.4c0,3.3,0.9,4.7,4.1,4.7s4.1-1.4,4.1-4.7v-13.4h4.4v13.7c0,5.7-2.9,8.6-8.5,8.6
			C465.4,236.8,462.6,234,462.6,228.4z"/>
		<path d="M484,214.5h4.4v17.7h9.1v4.1H484V214.5z"/>
		<path d="M500.1,214.5h14.5v4h-10.1v4.5h9.5v4.1h-9.5v5.2h10.1v4.1h-14.5L500.1,214.5L500.1,214.5z"/>
		<path d="M516.8,230l4.4-1.1c0.2,2.6,1.9,3.9,4.2,3.9c1.9,0,3.2-0.9,3.2-2.7c0-1.2-1.1-2.1-4.1-3.3c-4.6-1.8-6.2-3.5-6.2-6.8
			c0-3.6,2.8-6.1,6.9-6.1c3,0,5.4,1.4,6.7,4.1l-3.7,2.3c-0.7-1.6-1.9-2.5-3.2-2.5s-2.4,0.9-2.4,2.1c0,1.2,0.9,2,4.2,3.3
			c4.7,1.8,6.2,3.4,6.2,6.5c0,4.2-3.3,7-7.7,7S517.4,234,516.8,230z"/>
	</g>
	<g>
		<path class="st1" d="M229.1,307.4h3l-3.2,5.5h3.2l3-5.5h3l-2.9,5.5h4l-2,2.8h-3.5L232,319h4l-2.2,3h-3.5l-3.2,6.2h-3.4l3.4-6.2
			h-3.3l-3.4,6.2H217l3.5-6.1h-4.2l2.5-3.1h3.5l2-3.3h-3.9l2.3-2.8h3.3L229.1,307.4z M227.3,315.7l-1.9,3.3h3.3l1.9-3.3H227.3z"/>
		<path class="st1" d="M262.6,307.5l-10.7,8.4c1.8,0.9,2,2.8,0.1,5.9c-2.5,4-6.3,6.6-11.8,6.6h-7.5l14.7-20.8h4l-5.4,7.9h0.9h1.2
			l9.9-7.9L262.6,307.5z M243.3,319.2L240,324h2.5c2,0,3.7-0.3,5.1-2.4c1.3-2.1,0.1-2.4-1.8-2.4H243.3z"/>
		<path class="st1" d="M264.9,307.5h13.2l-1.8,3.5h-9.4l-2.7,4.7h9.1l-2,3.9H262l-2.6,4.5h10.1l-2.2,4.2h-14.9L264.9,307.5z"/>
		<path class="st1" d="M278,314.2h8.7l-1.3,3h-8.9L278,314.2z"/>
		<path class="st1" d="M295.6,307.5h4l-6.5,16.6h6.6l-1.5,4.3h-18l1.9-4.3h6.6L295.6,307.5z"/>
		<path class="st1" d="M307.9,307.5h4l-2.6,8.2h8.6l2.2-8.2h4l-5,20.9h-4.5l2.3-8.8h-8.8l-2.8,8.8h-4.5L307.9,307.5z"/>
		<path class="st1" d="M328.7,307.6h4l-4,20.9h-4.5L328.7,307.6z"/>
		<path class="st1" d="M347.4,328.5l1.2-14.1l-10.2,14.1h-4.6l3.4-20.9h4l-1.8,13.1l9.7-13.1h4.1l-1.3,21L347.4,328.5z"/>
		<path class="st1" d="M375.7,307.6l-7.3,12.3l8.7,8.7h-6l-9.3-9.9l-0.1,9.9h-4.5l0.8-21h4l-0.1,5.9l3.6,3.5l5.6-9.4H375.7z"/>
		<path class="st1" d="M381.9,307.6h4.1l2.2,16.7h6.7l0.7,4.3h-18.2l-0.3-4.3h6.7L381.9,307.6z"/>
		<path class="st1" d="M394.3,307.7h4l1.7,8.3h8.7l-2.2-8.3h4.1l6,21H412l-2.3-8.8h-8.9l1.9,8.8h-4.6L394.3,307.7z"/>
		<path class="st1" d="M415.3,307.7h13.4l1.4,3.6h-9.6l1.6,4.7h9.2l1.5,3.9h-9.4l1.5,4.5h10.3l1.7,4.3h-15.1L415.3,307.7z"/>
		<path class="st1" d="M448.1,307.7l-1.3,8.5c2.9,0.9,5.2,2.8,6.8,5.9c2,4,1.1,6.7-4.5,6.7h-7.7l-8.8-21.1h4l3.5,8h0.9h1.2l1.1-7.9
			L448.1,307.7z M441.9,319.6l2.2,4.9h2.6c2.1,0,3.4-0.3,2.4-2.4s-2.7-2.5-4.7-2.5H441.9z"/>
		<path class="st1" d="M457.5,307.3c5.2,0,9.4,2.5,12.6,7.7l8.6,13.9h-4.6l-8.1-13.6c-1.8-3-3.4-4.3-6.4-4.3s-3.1,1.3-1.4,4.3
			l7.4,13.6H461l-7.3-14C451,309.7,452.4,307.3,457.5,307.3z"/>
		<path class="st1" d="M469.9,307.8h12.5l2.6,3.6h-8.6l11.7,17.6h-4.6L469.9,307.8z"/>
		<path class="st1" d="M484.8,307.8h13.5l2.9,3.6h-9.6l3.6,4.8h9.3l3.2,4h-9.5l3.5,4.6h10.4l3.5,4.3h-15.3L484.8,307.8z"/>
		<path class="st1" d="M507.9,307.4c4.1,0,9.4,2.5,12.9,6.2c2.7,2.9,2.6,4.4-0.5,6.2c-2.1,1.2-2.4,2-1.3,3.3
			c1.1,1.2,2.9,2.2,4.3,2.2c1.4,0,1.8-0.9,1-2.6l5.9,2.4c1.2,2.9,0.1,4.4-3.1,4.4c-4.4,0-9.6-2.7-12.7-6.5c-2.7-3.3-2.5-4.9,0.5-6.7
			c1.9-1.1,2.3-1.9,1.2-3.1c-1.4-1.6-3.5-2.4-5.3-2.4c-2.2,0-2.8,1.2-1,3.6l-5.1-1C502.5,309.7,503.8,307.4,507.9,307.4z"/>
	</g>
	<g>
		<path class="st0" d="M249.5,175.9c-2.5-0.4-6.9-0.2-6.9-0.2c-0.4,0.8-0.3,2.9-0.4,3.8c-0.1,2.4,0.5,7.3,1.3,9.5
			c0.5,1.5,2.4,1.2,4,1c0.3,0,0.6-0.1,0.8-0.3s0.3-0.6,0.3-0.9C249,184.5,249.3,180.2,249.5,175.9"/>
	</g>
	<g>
		<path class="st0" d="M508.4,176.8c2.5-0.4,6.9-0.2,6.9-0.2c0.4,0.8,0.3,2.9,0.4,3.8c0.1,2.4-0.5,7.3-1.3,9.5c-0.5,1.5-2.4,1.2-4,1
			c-0.3,0-0.6-0.1-0.8-0.3c-0.2-0.2-0.3-0.6-0.3-0.9C508.9,185.3,508.6,181,508.4,176.8"/>
	</g>
	<g>
		<g>
			<path class="st0" d="M246.7,175.3c0-9.9,0-19.7,0-29.6c0-12,0.1-24,0.1-36.1c0-13,0-26,0-39c-0.1-12.6-0.1-25.2-0.3-37.8
				c-0.2-11-0.4-22-0.8-33.1c0-1.2-0.1-2.4-0.1-3.6c-0.1-1.9-3.1-1.9-3,0c0.4,10.7,0.7,21.4,0.9,32.2c0.2,12.5,0.3,24.9,0.4,37.4
				c0.1,13,0.1,26.1,0.1,39.1c0,12.2,0,24.4-0.1,36.6c0,10.2-0.1,20.4,0,30.6c0,1.1,0,2.1,0,3.2
				C243.7,177.2,246.7,177.2,246.7,175.3L246.7,175.3z"/>
		</g>
	</g>
	<g>
		<g>
			<path class="st0" d="M514,176.1c0-9.9,0-19.8,0-29.7c0-12.1,0.1-24.2,0.1-36.3c0-13.1,0-26.2,0-39.3c-0.1-12.7-0.1-25.3-0.3-38
				c-0.2-11.1-0.4-22.1-0.8-33.2c0-1.2-0.1-2.4-0.1-3.6c-0.1-1.9-3.1-1.9-3,0c0.4,10.7,0.7,21.5,0.9,32.3
				c0.2,12.5,0.3,25.1,0.4,37.6c0.1,13.1,0.1,26.2,0.1,39.4c0,12.3,0,24.6-0.1,36.8c0,10.2-0.1,20.5,0,30.7c0,1.1,0,2.1,0,3.2
				C511,178.1,514,178.1,514,176.1L514,176.1z"/>
		</g>
	</g>
</g>
<rect x="132.2" y="396.7" class="st2" width="7" height="7"/>
<g>
	<g>
		<path d="M104.6,525.1h-5.3v-1.5h12.2v1.5h-5.3V539h-1.6C104.6,539,104.6,525.1,104.6,525.1z"/>
		<path d="M125.2,532.4v6.6h-1.5v-6.3c0-2.4-0.7-3.4-2.4-3.4c-2.1,0-3.2,1.7-3.2,4.7v5h-1.5v-15.3h1.5v6.1c0.7-1.1,2-1.8,3.6-1.8
			C124,528,125.2,529.5,125.2,532.4z"/>
		<path d="M139.8,534h-7.9c0,2.4,1.4,3.8,3.5,3.8c1.2,0,2.1-0.3,3.1-1.4l1.1,0.9c-1.3,1.3-2.5,1.8-4.2,1.8c-3.3,0-5-2.5-5-5.5
			c0-3.1,1.7-5.7,4.8-5.7c3.3,0,4.7,2.6,4.7,5.1C139.9,533.4,139.9,533.7,139.8,534z M131.9,532.7h6.6c0,0,0-0.2,0-0.4
			c-0.1-1.8-1.2-3.1-3.2-3.1C133.2,529.3,132,530.8,131.9,532.7z"/>
		<path d="M154.4,523.7h4.4c3.3,0,5.1,1.5,5.1,4.3s-1.8,4.4-5.1,4.4h-2.9v6.7h-1.6v-15.4H154.4z M158.6,530.9c2.4,0,3.6-1,3.6-2.9
			s-1.2-2.9-3.6-2.9h-2.7v5.7h2.7V530.9z"/>
		<path d="M175.6,528.5l-0.7,1.2c-0.5-0.2-1-0.3-1.4-0.3c-1.7,0-2.9,1.3-2.9,3.6v6.1h-1.5v-10.8h1.5v1.6c0.8-1.4,2.1-1.8,3.2-1.8
			C174.4,528,175,528.1,175.6,528.5z"/>
		<path d="M188.1,532.3v6.8h-1.4l-0.1-1.7c-0.9,1.2-2.2,1.8-3.9,1.8c-2.4,0-3.7-1.2-3.7-3.3c0-1.1,0.4-1.9,1.2-2.4s2-0.7,4.1-0.7
			h2.2v-0.5c0-1.9-1-2.9-2.8-2.9c-1.4,0-2.4,0.6-3.3,1.8l-1.1-0.9c1.2-1.5,2.6-2.2,4.4-2.2C186.6,528,188.1,529.6,188.1,532.3z
			 M186.6,534.2V534h-2.1c-2,0-2.9,0.1-3.4,0.5c-0.4,0.3-0.6,0.8-0.6,1.4c0,1.2,1,2,2.7,2C185.3,537.9,186.6,536.5,186.6,534.2z"/>
		<path d="M203.2,523.7V539h-1.5v-1.5c-0.8,1-2,1.6-3.6,1.6c-3.2,0-4.8-2.4-4.8-5.6c0-3.4,1.8-5.6,4.8-5.6c1.5,0,2.8,0.6,3.6,1.6
			v-5.9h1.5V523.7z M201.8,533.6c0-2.6-1.3-4.3-3.5-4.3s-3.5,1.7-3.5,4.3c0,2.5,1.2,4.3,3.5,4.3C200.6,537.9,201.8,536,201.8,533.6z
			"/>
		<path d="M217.5,532.3v6.8h-1.4l-0.1-1.7c-0.9,1.2-2.2,1.8-3.9,1.8c-2.4,0-3.7-1.2-3.7-3.3c0-1.1,0.4-1.9,1.2-2.4s2-0.7,4.1-0.7
			h2.2v-0.5c0-1.9-1-2.9-2.8-2.9c-1.4,0-2.4,0.6-3.3,1.8l-1.1-0.9c1.2-1.5,2.6-2.2,4.4-2.2C215.9,528,217.5,529.6,217.5,532.3z
			 M216,534.2V534h-2.1c-2,0-2.9,0.1-3.4,0.5c-0.4,0.3-0.6,0.8-0.6,1.4c0,1.2,1,2,2.7,2C214.7,537.9,216,536.5,216,534.2z"/>
		<path d="M239.8,531.1h5.2v7.9h-1.3l-0.2-2.4c-0.8,1.7-2.7,2.6-5.1,2.6c-4.5,0-6.9-3.3-6.9-7.9c0-4.6,2.4-7.9,7.1-7.9
			c3.2,0,5.3,1.6,6.3,4.2l-1.5,0.5c-0.8-2.1-2.3-3.3-4.9-3.3c-3.7,0-5.5,2.5-5.5,6.3c0,3.7,1.6,6.5,5.4,6.5c2.6,0,5-1.4,5-4.9v-0.5
			h-3.7L239.8,531.1L239.8,531.1z"/>
		<path d="M257.9,528.5l-0.7,1.2c-0.5-0.2-1-0.3-1.4-0.3c-1.7,0-2.9,1.3-2.9,3.6v6.1h-1.5v-10.8h1.5v1.6c0.8-1.4,2.1-1.8,3.2-1.8
			C256.7,528,257.3,528.1,257.9,528.5z"/>
		<path d="M261.1,533.6c0-3.2,2.1-5.6,5.2-5.6s5.2,2.4,5.2,5.6c0,3.2-2.1,5.6-5.2,5.6S261.1,536.8,261.1,533.6z M270,533.6
			c0-2.5-1.4-4.2-3.7-4.2c-2.3,0-3.7,1.8-3.7,4.2c0,2.5,1.4,4.3,3.7,4.3C268.6,537.9,270,536,270,533.6z"/>
		<path d="M285.2,528.2V539h-1.5v-1.6c-0.8,1.2-2.2,1.7-3.6,1.7c-2.5,0-3.5-1.7-3.5-4.4v-6.6h1.5v6.3c0,1.8,0.3,3.4,2.4,3.4
			c2.2,0,3.2-1.9,3.2-4.7v-5L285.2,528.2L285.2,528.2z"/>
		<path d="M301.1,533.6c0,3.2-1.7,5.6-4.8,5.6c-1.6,0-2.8-0.6-3.6-1.6v5.9h-1.5v-15.3h1.5v1.5c0.8-1.1,2-1.6,3.6-1.6
			C299.3,528,301.1,530.2,301.1,533.6z M299.6,533.6c0-2.6-1.3-4.3-3.5-4.3s-3.5,1.7-3.5,4.3c0,2.5,1.2,4.3,3.5,4.3
			C298.4,537.9,299.6,536,299.6,533.6z"/>
		<path d="M315.1,523.7h1.8v2.2h-1.8V523.7z M315.2,528.2h1.5V539h-1.5V528.2z"/>
		<path d="M321.7,536.4l1.3-0.6c0.4,1.1,1.5,2.1,3.1,2.1c1.5,0,2.4-0.7,2.4-1.9c0-2.9-6.2-1.1-6.2-4.9c0-1.9,1.5-3.1,3.7-3.1
			c1.7,0,3.1,0.7,3.9,2.3l-1.2,0.7c-0.5-1-1.4-1.6-2.7-1.6c-1.3,0-2.2,0.6-2.2,1.5c0,2.6,6.3,0.9,6.3,5.1c0,2.2-1.8,3.3-3.9,3.3
			C324,539.2,322.3,538.1,321.7,536.4z"/>
		<path d="M342.9,536.4l1.3-0.6c0.4,1.1,1.5,2.1,3.1,2.1c1.5,0,2.4-0.7,2.4-1.9c0-2.9-6.2-1.1-6.2-4.9c0-1.9,1.5-3.1,3.7-3.1
			c1.7,0,3.1,0.7,3.9,2.3l-1.2,0.7c-0.5-1-1.4-1.6-2.7-1.6c-1.3,0-2.2,0.6-2.2,1.5c0,2.6,6.3,0.9,6.3,5.1c0,2.2-1.8,3.3-3.9,3.3
			C345.2,539.2,343.5,538.1,342.9,536.4z"/>
		<path d="M359.6,538.9l-4.6-10.7h1.7l3.7,8.9l3.3-8.9h1.7l-5.9,15.3h-1.6L359.6,538.9z"/>
		<path d="M378.7,532.4v6.6h-1.5v-6.3c0-2.3-0.7-3.4-2.4-3.4c-2,0-3.2,1.8-3.2,4.8v4.9h-1.5v-10.8h1.5v1.6c0.7-1.1,2-1.8,3.6-1.8
			C377.5,528,378.7,529.5,378.7,532.4z"/>
		<path d="M383.8,533.6c0-3.2,2.1-5.6,5.2-5.6s5.2,2.4,5.2,5.6c0,3.2-2.1,5.6-5.2,5.6S383.8,536.8,383.8,533.6z M392.7,533.6
			c0-2.5-1.4-4.2-3.7-4.2c-2.3,0-3.7,1.8-3.7,4.2c0,2.5,1.4,4.3,3.7,4.3C391.3,537.9,392.7,536,392.7,533.6z"/>
		<path d="M408.1,532.4v6.6h-1.5v-6.3c0-2.3-0.7-3.4-2.4-3.4c-2,0-3.2,1.8-3.2,4.8v4.9h-1.5v-10.8h1.5v1.6c0.7-1.1,2-1.8,3.6-1.8
			C406.9,528,408.1,529.5,408.1,532.4z"/>
		<path d="M416.7,538.9l-4.6-10.7h1.7l3.7,8.9l3.3-8.9h1.7l-5.9,15.3h-1.7L416.7,538.9z"/>
		<path d="M442,532.2v6.8h-1.5v-6.4c0-0.9,0-3.3-2.4-3.3c-2.2,0-2.8,2-2.8,4.5v5.2h-1.5v-6.3c0-1.8-0.5-3.4-2.4-3.4
			c-2.1,0-2.7,2-2.7,4.5v5.2h-1.5v-10.8h1.5v1.3c0.7-1.1,1.8-1.5,3-1.5c1.5,0,2.6,0.7,3.2,2.1c0.7-1.4,1.9-2.1,3.6-2.1
			C441,528,442,529.7,442,532.2z"/>
		<path d="M447.2,533.6c0-3.2,2.1-5.6,5.2-5.6s5.2,2.4,5.2,5.6c0,3.2-2.1,5.6-5.2,5.6S447.2,536.8,447.2,533.6z M456.1,533.6
			c0-2.5-1.4-4.2-3.7-4.2c-2.3,0-3.7,1.8-3.7,4.2c0,2.5,1.4,4.3,3.7,4.3C454.7,537.9,456.1,536,456.1,533.6z"/>
		<path d="M471.3,528.2V539h-1.5v-1.6c-0.8,1.2-2.2,1.7-3.6,1.7c-2.5,0-3.5-1.7-3.5-4.4v-6.6h1.5v6.3c0,1.8,0.3,3.4,2.4,3.4
			c2.2,0,3.2-1.9,3.2-4.7v-5L471.3,528.2L471.3,528.2z"/>
		<path d="M476.3,536.4l1.3-0.6c0.4,1.1,1.5,2.1,3.1,2.1c1.5,0,2.4-0.7,2.4-1.9c0-2.9-6.2-1.1-6.2-4.9c0-1.9,1.5-3.1,3.7-3.1
			c1.7,0,3.1,0.7,3.9,2.3l-1.2,0.7c-0.5-1-1.4-1.6-2.7-1.6c-1.3,0-2.2,0.6-2.2,1.5c0,2.6,6.3,0.9,6.3,5.1c0,2.2-1.8,3.3-3.9,3.3
			C478.6,539.2,476.9,538.1,476.3,536.4z"/>
		<path d="M497.3,528.2h1.6l2.3,8.6l2.9-8.6h1.4l2.8,8.6l2.4-8.6h1.6l-3.2,10.8h-1.4l-2.9-8.8l-2.9,8.8h-1.4L497.3,528.2z"/>
		<path d="M516.9,523.7h1.8v2.2h-1.8V523.7z M517,528.2h1.5V539H517V528.2z"/>
		<path d="M529.2,538.9c-0.6,0.2-1.1,0.3-1.7,0.3c-1.5,0-2.5-0.8-2.5-2.7v-7h-1.8v-1.3h1.8v-2.8l1.5-1.1v4h2.6v1.3h-2.6v6.8
			c0,1.1,0.5,1.5,1.3,1.5c0.4,0,0.8-0.1,1.3-0.2L529.2,538.9z"/>
		<path d="M542.7,532.4v6.6h-1.5v-6.3c0-2.4-0.7-3.4-2.4-3.4c-2.1,0-3.2,1.7-3.2,4.7v5h-1.5v-15.3h1.5v6.1c0.7-1.1,2-1.8,3.6-1.8
			C541.5,528,542.7,529.5,542.7,532.4z"/>
		<path d="M100.5,561.7h1.8v2.2h-1.8V561.7z M100.6,566.2h1.5V577h-1.5V566.2z"/>
		<path d="M116.8,570.4v6.6h-1.5v-6.3c0-2.3-0.7-3.4-2.4-3.4c-2,0-3.2,1.8-3.2,4.8v4.9h-1.5v-10.8h1.5v1.6c0.7-1.1,2-1.8,3.6-1.8
			C115.5,566,116.8,567.5,116.8,570.4z"/>
		<path d="M131.3,570.4v6.6h-1.5v-6.3c0-2.3-0.7-3.4-2.4-3.4c-2,0-3.2,1.8-3.2,4.8v4.9h-1.5v-10.8h1.5v1.6c0.7-1.1,2-1.8,3.6-1.8
			C130.1,566,131.3,567.5,131.3,570.4z"/>
		<path d="M136.4,571.6c0-3.2,2.1-5.6,5.2-5.6c3.1,0,5.2,2.4,5.2,5.6c0,3.2-2.1,5.6-5.2,5.6S136.4,574.8,136.4,571.6z M145.3,571.6
			c0-2.5-1.4-4.2-3.7-4.2s-3.7,1.8-3.7,4.2c0,2.5,1.4,4.3,3.7,4.3C143.9,575.9,145.3,574,145.3,571.6z"/>
		<path d="M150.2,566.2h1.6l3.4,8.9l3.4-8.9h1.7l-4.4,10.8h-1.3L150.2,566.2z"/>
		<path d="M173.1,570.3v6.8h-1.4l-0.1-1.7c-0.9,1.2-2.2,1.8-3.9,1.8c-2.4,0-3.7-1.2-3.7-3.3c0-1.1,0.4-1.9,1.2-2.4s2-0.7,4.1-0.7
			h2.2v-0.5c0-1.9-1-2.9-2.8-2.9c-1.4,0-2.4,0.6-3.3,1.8l-1.1-0.9c1.2-1.5,2.6-2.2,4.4-2.2C171.5,566,173.1,567.6,173.1,570.3z
			 M171.6,572.2V572h-2.1c-2,0-2.9,0.1-3.4,0.5c-0.4,0.3-0.6,0.8-0.6,1.4c0,1.2,1,2,2.7,2C170.3,575.9,171.6,574.5,171.6,572.2z"/>
		<path d="M183.4,576.9c-0.6,0.2-1.1,0.3-1.7,0.3c-1.5,0-2.5-0.8-2.5-2.7v-7h-1.8v-1.3h1.8v-2.8l1.5-1.1v4h2.6v1.3h-2.6v6.8
			c0,1.1,0.5,1.5,1.3,1.5c0.4,0,0.8-0.1,1.3-0.2L183.4,576.9z"/>
		<path d="M188.1,561.7h1.8v2.2h-1.8V561.7z M188.2,566.2h1.5V577h-1.5V566.2z"/>
		<path d="M195,571.6c0-3.2,2.1-5.6,5.2-5.6c3.1,0,5.2,2.4,5.2,5.6c0,3.2-2.1,5.6-5.2,5.6S195,574.8,195,571.6z M203.9,571.6
			c0-2.5-1.4-4.2-3.7-4.2s-3.7,1.8-3.7,4.2c0,2.5,1.4,4.3,3.7,4.3C202.5,575.9,203.9,574,203.9,571.6z"/>
		<path d="M219.3,570.4v6.6h-1.5v-6.3c0-2.3-0.7-3.4-2.4-3.4c-2,0-3.2,1.8-3.2,4.8v4.9h-1.5v-10.8h1.5v1.6c0.7-1.1,2-1.8,3.6-1.8
			C218.1,566,219.3,567.5,219.3,570.4z"/>
		<path d="M226.5,574.2h2l-2.9,6.2h-1L226.5,574.2z"/>
		<path d="M247.4,576.9c-0.6,0.2-1.1,0.3-1.7,0.3c-1.5,0-2.5-0.8-2.5-2.7v-7h-1.8v-1.3h1.8v-2.8l1.5-1.1v4h2.6v1.3h-2.6v6.8
			c0,1.1,0.5,1.5,1.3,1.5c0.4,0,0.8-0.1,1.3-0.2L247.4,576.9z"/>
		<path d="M258.9,566.5l-0.7,1.2c-0.5-0.2-1-0.3-1.4-0.3c-1.7,0-2.9,1.3-2.9,3.6v6.1h-1.5v-10.8h1.5v1.6c0.8-1.4,2.1-1.8,3.2-1.8
			C257.7,566,258.3,566.1,258.9,566.5z"/>
		<path d="M271.4,570.3v6.8H270l-0.1-1.7c-0.9,1.2-2.2,1.8-3.9,1.8c-2.4,0-3.7-1.2-3.7-3.3c0-1.1,0.4-1.9,1.2-2.4
			c0.8-0.5,2-0.7,4.1-0.7h2.2v-0.5c0-1.9-1-2.9-2.8-2.9c-1.4,0-2.4,0.6-3.3,1.8l-1.1-0.9c1.2-1.5,2.6-2.2,4.4-2.2
			C269.9,566,271.4,567.6,271.4,570.3z M269.9,572.2V572h-2.1c-2,0-2.9,0.1-3.4,0.5c-0.4,0.3-0.6,0.8-0.6,1.4c0,1.2,1,2,2.7,2
			C268.6,575.9,269.9,574.5,269.9,572.2z"/>
		<path d="M285.9,570.4v6.6h-1.5v-6.3c0-2.3-0.7-3.4-2.4-3.4c-2,0-3.2,1.8-3.2,4.8v4.9h-1.5v-10.8h1.5v1.6c0.7-1.1,2-1.8,3.6-1.8
			C284.7,566,285.9,567.5,285.9,570.4z"/>
		<path d="M290.8,574.4l1.3-0.6c0.4,1.1,1.5,2.1,3.1,2.1c1.5,0,2.4-0.7,2.4-1.9c0-2.9-6.2-1.1-6.2-4.9c0-1.9,1.5-3.1,3.7-3.1
			c1.7,0,3.1,0.7,3.9,2.3l-1.2,0.7c-0.5-1-1.4-1.6-2.7-1.6c-1.3,0-2.2,0.6-2.2,1.5c0,2.6,6.3,0.9,6.3,5.1c0,2.2-1.8,3.3-3.9,3.3
			C293.1,577.2,291.3,576.1,290.8,574.4z"/>
		<path d="M305.4,567.4h-2.3v-1.3h2.3v-1.7c0-2.3,1.3-3,2.7-3c0.6,0,1.3,0.1,1.9,0.4l-0.5,1.2c-0.5-0.2-0.9-0.4-1.3-0.4
			c-0.9,0-1.4,0.6-1.4,1.6v1.8h3.1v1.3h-3v9.6h-1.5V567.4z"/>
		<path d="M313.6,571.6c0-3.2,2.1-5.6,5.2-5.6s5.2,2.4,5.2,5.6c0,3.2-2.1,5.6-5.2,5.6S313.6,574.8,313.6,571.6z M322.4,571.6
			c0-2.5-1.4-4.2-3.7-4.2c-2.3,0-3.7,1.8-3.7,4.2c0,2.5,1.4,4.3,3.7,4.3C321.1,575.9,322.4,574,322.4,571.6z"/>
		<path d="M335.8,566.5l-0.7,1.2c-0.5-0.2-1-0.3-1.4-0.3c-1.7,0-2.9,1.3-2.9,3.6v6.1h-1.5v-10.8h1.5v1.6c0.8-1.4,2.1-1.8,3.2-1.8
			C334.6,566,335.2,566.1,335.8,566.5z"/>
		<path d="M355.3,570.2v6.8h-1.5v-6.4c0-0.9,0-3.3-2.4-3.3c-2.2,0-2.8,2-2.8,4.5v5.2h-1.5v-6.3c0-1.8-0.5-3.4-2.4-3.4
			c-2.1,0-2.7,2-2.7,4.5v5.2h-1.5v-10.8h1.5v1.3c0.7-1.1,1.8-1.5,3-1.5c1.5,0,2.6,0.7,3.2,2.1c0.7-1.4,1.9-2.1,3.6-2.1
			C354.2,566,355.3,567.7,355.3,570.2z"/>
		<path d="M369.4,570.3v6.8H368l-0.1-1.7c-0.9,1.2-2.2,1.8-3.9,1.8c-2.4,0-3.7-1.2-3.7-3.3c0-1.1,0.4-1.9,1.2-2.4
			c0.8-0.5,2-0.7,4.1-0.7h2.2v-0.5c0-1.9-1-2.9-2.8-2.9c-1.4,0-2.4,0.6-3.3,1.8l-1.1-0.9c1.2-1.5,2.6-2.2,4.4-2.2
			C367.8,566,369.4,567.6,369.4,570.3z M367.9,572.2V572h-2.1c-2,0-2.9,0.1-3.4,0.5c-0.4,0.3-0.6,0.8-0.6,1.4c0,1.2,1,2,2.7,2
			C366.6,575.9,367.9,574.5,367.9,572.2z"/>
		<path d="M379.7,576.9c-0.6,0.2-1.1,0.3-1.7,0.3c-1.5,0-2.5-0.8-2.5-2.7v-7h-1.8v-1.3h1.8v-2.8l1.5-1.1v4h2.6v1.3H377v6.8
			c0,1.1,0.5,1.5,1.3,1.5c0.4,0,0.8-0.1,1.3-0.2L379.7,576.9z"/>
		<path d="M384.4,561.7h1.8v2.2h-1.8V561.7z M384.5,566.2h1.5V577h-1.5V566.2z"/>
		<path d="M391.3,571.6c0-3.2,2.1-5.6,5.2-5.6s5.2,2.4,5.2,5.6c0,3.2-2.1,5.6-5.2,5.6S391.3,574.8,391.3,571.6z M400.2,571.6
			c0-2.5-1.4-4.2-3.7-4.2c-2.3,0-3.7,1.8-3.7,4.2c0,2.5,1.4,4.3,3.7,4.3C398.8,575.9,400.2,574,400.2,571.6z"/>
		<path d="M415.6,570.4v6.6h-1.5v-6.3c0-2.3-0.7-3.4-2.4-3.4c-2,0-3.2,1.8-3.2,4.8v4.9h-1.6v-10.8h1.5v1.6c0.7-1.1,2-1.8,3.6-1.8
			C414.4,566,415.6,567.5,415.6,570.4z"/>
		<path d="M422.8,574.2h2l-2.9,6.2h-1L422.8,574.2z"/>
		<path d="M447.3,570.3v6.8h-1.4l-0.1-1.7c-0.9,1.2-2.2,1.8-3.9,1.8c-2.4,0-3.7-1.2-3.7-3.3c0-1.1,0.4-1.9,1.2-2.4
			c0.8-0.5,2-0.7,4.1-0.7h2.2v-0.5c0-1.9-1-2.9-2.8-2.9c-1.4,0-2.4,0.6-3.3,1.8l-1.1-0.9c1.2-1.5,2.6-2.2,4.4-2.2
			C445.7,566,447.3,567.6,447.3,570.3z M445.8,572.2V572h-2.1c-2,0-2.9,0.1-3.4,0.5c-0.4,0.3-0.6,0.8-0.6,1.4c0,1.2,1,2,2.7,2
			C444.5,575.9,445.8,574.5,445.8,572.2z"/>
		<path d="M461.8,570.4v6.6h-1.5v-6.3c0-2.3-0.7-3.4-2.4-3.4c-2,0-3.2,1.8-3.2,4.8v4.9h-1.5v-10.8h1.5v1.6c0.7-1.1,2-1.8,3.6-1.8
			C460.6,566,461.8,567.5,461.8,570.4z"/>
		<path d="M476.9,561.7V577h-1.5v-1.5c-0.8,1-2,1.6-3.6,1.6c-3.2,0-4.8-2.4-4.8-5.6c0-3.4,1.8-5.6,4.8-5.6c1.5,0,2.8,0.6,3.6,1.6
			v-5.9h1.5V561.7z M475.5,571.6c0-2.6-1.3-4.3-3.5-4.3s-3.5,1.7-3.5,4.3c0,2.5,1.2,4.3,3.5,4.3C474.3,575.9,475.5,574,475.5,571.6z
			"/>
		<path d="M491.7,561.7h1.8v2.2h-1.8V561.7z M491.8,566.2h1.5V577h-1.5V566.2z"/>
		<path d="M508,570.4v6.6h-1.5v-6.3c0-2.3-0.7-3.4-2.4-3.4c-2,0-3.2,1.8-3.2,4.8v4.9h-1.5v-10.8h1.5v1.6c0.7-1.1,2-1.8,3.6-1.8
			C506.8,566,508,567.5,508,570.4z"/>
		<path d="M523.1,561.7V577h-1.5v-1.5c-0.8,1-2,1.6-3.6,1.6c-3.2,0-4.8-2.4-4.8-5.6c0-3.4,1.8-5.6,4.8-5.6c1.5,0,2.8,0.6,3.6,1.6
			v-5.9h1.5V561.7z M521.7,571.6c0-2.6-1.3-4.3-3.5-4.3s-3.5,1.7-3.5,4.3c0,2.5,1.2,4.3,3.5,4.3C520.5,575.9,521.7,574,521.7,571.6z
			"/>
		<path d="M537.9,572H530c0,2.4,1.4,3.8,3.5,3.8c1.2,0,2.1-0.3,3.1-1.4l1.1,0.9c-1.3,1.3-2.5,1.8-4.2,1.8c-3.3,0-5-2.5-5-5.5
			c0-3.1,1.7-5.7,4.8-5.7c3.3,0,4.7,2.6,4.7,5.1C538,571.4,538,571.7,537.9,572z M530,570.7h6.6c0,0,0-0.2,0-0.4
			c-0.1-1.8-1.2-3.1-3.2-3.1C531.3,567.3,530.1,568.8,530,570.7z"/>
		<path d="M553.2,571.6c0,3.2-1.7,5.6-4.8,5.6c-1.6,0-2.8-0.6-3.6-1.6v5.9h-1.5v-15.3h1.5v1.5c0.8-1.1,2-1.6,3.6-1.6
			C551.4,566,553.2,568.2,553.2,571.6z M551.7,571.6c0-2.6-1.3-4.3-3.5-4.3s-3.5,1.7-3.5,4.3c0,2.5,1.2,4.3,3.5,4.3
			C550.4,575.9,551.7,574,551.7,571.6z"/>
		<path d="M567.3,572h-7.9c0,2.4,1.4,3.8,3.5,3.8c1.2,0,2.1-0.3,3.1-1.4l1.1,0.9c-1.3,1.3-2.5,1.8-4.2,1.8c-3.3,0-5-2.5-5-5.5
			c0-3.1,1.7-5.7,4.8-5.7c3.3,0,4.7,2.6,4.7,5.1C567.4,571.4,567.3,571.7,567.3,572z M559.4,570.7h6.6c0,0,0-0.2,0-0.4
			c-0.1-1.8-1.2-3.1-3.2-3.1C560.7,567.3,559.5,568.8,559.4,570.7z"/>
		<path d="M581.3,570.4v6.6h-1.5v-6.3c0-2.3-0.7-3.4-2.4-3.4c-2,0-3.2,1.8-3.2,4.8v4.9h-1.5v-10.8h1.5v1.6c0.7-1.1,2-1.8,3.6-1.8
			C580.1,566,581.3,567.5,581.3,570.4z"/>
		<path d="M596.4,561.7V577h-1.5v-1.5c-0.8,1-2,1.6-3.6,1.6c-3.2,0-4.8-2.4-4.8-5.6c0-3.4,1.8-5.6,4.8-5.6c1.5,0,2.8,0.6,3.6,1.6
			v-5.9h1.5V561.7z M595,571.6c0-2.6-1.3-4.3-3.5-4.3s-3.5,1.7-3.5,4.3c0,2.5,1.2,4.3,3.5,4.3C593.8,575.9,595,574,595,571.6z"/>
		<path d="M611.2,572h-7.9c0,2.4,1.4,3.8,3.5,3.8c1.2,0,2.1-0.3,3.1-1.4l1.1,0.9c-1.3,1.3-2.5,1.8-4.2,1.8c-3.3,0-5-2.5-5-5.5
			c0-3.1,1.7-5.7,4.8-5.7c3.3,0,4.7,2.6,4.7,5.1C611.3,571.4,611.2,571.7,611.2,572z M603.3,570.7h6.6c0,0,0-0.2,0-0.4
			c-0.1-1.8-1.2-3.1-3.2-3.1C604.6,567.3,603.4,568.8,603.3,570.7z"/>
		<path d="M625.2,570.4v6.6h-1.5v-6.3c0-2.3-0.7-3.4-2.4-3.4c-2,0-3.2,1.8-3.2,4.8v4.9h-1.5v-10.8h1.5v1.6c0.7-1.1,2-1.8,3.6-1.8
			C624,566,625.2,567.5,625.2,570.4z"/>
		<path d="M630.3,571.6c0-2.9,1.6-5.6,4.9-5.6c1.9,0,3.5,1,4.4,3l-1.5,0.6c-0.5-1.4-1.6-2.2-2.9-2.2c-2.3,0-3.3,2.1-3.3,4.3
			s1,4.2,3.4,4.2c1.4,0,2.4-0.8,2.9-2.2l1.4,0.5c-0.7,2-2.3,3-4.3,3C632.1,577.2,630.3,574.6,630.3,571.6z"/>
		<path d="M653.3,572h-7.9c0,2.4,1.4,3.8,3.5,3.8c1.2,0,2.1-0.3,3.1-1.4l1.1,0.9c-1.3,1.3-2.5,1.8-4.2,1.8c-3.3,0-5-2.5-5-5.5
			c0-3.1,1.7-5.7,4.8-5.7c3.3,0,4.7,2.6,4.7,5.1C653.3,571.4,653.3,571.7,653.3,572z M645.3,570.7h6.6c0,0,0-0.2,0-0.4
			c-0.1-1.8-1.2-3.1-3.2-3.1C646.7,567.3,645.5,568.8,645.3,570.7z"/>
		<path d="M658.9,574.6h2v2.4h-2V574.6z"/>
		<path d="M104.6,601.1h-5.3v-1.5h12.2v1.5h-5.3V615h-1.6C104.6,615,104.6,601.1,104.6,601.1z"/>
		<path d="M125.2,608.4v6.6h-1.5v-6.3c0-2.4-0.7-3.4-2.4-3.4c-2.1,0-3.2,1.7-3.2,4.7v5h-1.5v-15.3h1.5v6.1c0.7-1.1,2-1.8,3.6-1.8
			C124,604,125.2,605.5,125.2,608.4z"/>
		<path d="M139.8,610h-7.9c0,2.4,1.4,3.8,3.5,3.8c1.2,0,2.1-0.3,3.1-1.4l1.1,0.9c-1.3,1.3-2.5,1.8-4.2,1.8c-3.3,0-5-2.5-5-5.5
			c0-3.1,1.7-5.7,4.8-5.7c3.3,0,4.7,2.6,4.7,5.1C139.9,609.4,139.9,609.7,139.8,610z M131.9,608.7h6.6c0,0,0-0.2,0-0.4
			c-0.1-1.8-1.2-3.1-3.2-3.1C133.2,605.3,132,606.8,131.9,608.7z"/>
		<path d="M144.1,612.4l1.3-0.6c0.4,1.1,1.5,2.1,3.1,2.1c1.5,0,2.4-0.7,2.4-1.9c0-2.9-6.2-1.1-6.2-4.9c0-1.9,1.5-3.1,3.7-3.1
			c1.7,0,3.1,0.7,3.9,2.3l-1.2,0.7c-0.5-1-1.4-1.6-2.7-1.6s-2.2,0.6-2.2,1.5c0,2.6,6.3,0.9,6.3,5.1c0,2.2-1.8,3.3-3.9,3.3
			C146.4,615.2,144.6,614.1,144.1,612.4z"/>
		<path d="M166.3,610h-7.9c0,2.4,1.4,3.8,3.5,3.8c1.2,0,2.1-0.3,3.1-1.4l1.1,0.9c-1.3,1.3-2.5,1.8-4.2,1.8c-3.3,0-5-2.5-5-5.5
			c0-3.1,1.7-5.7,4.8-5.7c3.3,0,4.7,2.6,4.7,5.1C166.4,609.4,166.4,609.7,166.3,610z M158.4,608.7h6.6c0,0,0-0.2,0-0.4
			c-0.1-1.8-1.2-3.1-3.2-3.1C159.7,605.3,158.5,606.8,158.4,608.7z"/>
		<path d="M190.3,609.6c0,3.2-1.7,5.6-4.8,5.6c-1.6,0-2.8-0.6-3.6-1.6v5.9h-1.5v-15.3h1.5v1.5c0.8-1.1,2-1.6,3.6-1.6
			C188.5,604,190.3,606.2,190.3,609.6z M188.8,609.6c0-2.6-1.3-4.3-3.5-4.3s-3.5,1.7-3.5,4.3c0,2.5,1.2,4.3,3.5,4.3
			C187.6,613.9,188.8,612,188.8,609.6z"/>
		<path d="M202.3,604.5l-0.7,1.2c-0.5-0.2-1-0.3-1.4-0.3c-1.7,0-2.9,1.3-2.9,3.6v6.1h-1.5v-10.8h1.5v1.6c0.8-1.4,2.1-1.8,3.2-1.8
			C201,604,201.7,604.1,202.3,604.5z"/>
		<path d="M206.7,599.7h1.8v2.2h-1.8V599.7z M206.8,604.2h1.5V615h-1.5V604.2z"/>
		<path d="M223,608.4v6.6h-1.5v-6.3c0-2.3-0.7-3.4-2.4-3.4c-2,0-3.2,1.8-3.2,4.8v4.9h-1.5v-10.8h1.5v1.6c0.7-1.1,2-1.8,3.6-1.8
			C221.8,604,223,605.5,223,608.4z"/>
		<path d="M228.1,609.6c0-2.9,1.6-5.6,4.9-5.6c1.9,0,3.5,1,4.4,3l-1.5,0.6c-0.5-1.4-1.6-2.2-2.9-2.2c-2.3,0-3.3,2.1-3.3,4.3
			s1,4.2,3.4,4.2c1.4,0,2.4-0.8,2.9-2.2l1.4,0.5c-0.7,2-2.3,3-4.3,3C229.9,615.2,228.1,612.6,228.1,609.6z"/>
		<path d="M242.3,599.7h1.8v2.2h-1.8V599.7z M242.4,604.2h1.5V615h-1.5V604.2z"/>
		<path d="M259.8,609.6c0,3.2-1.7,5.6-4.8,5.6c-1.6,0-2.8-0.6-3.6-1.6v5.9h-1.5v-15.3h1.5v1.5c0.8-1.1,2-1.6,3.6-1.6
			C258,604,259.8,606.2,259.8,609.6z M258.3,609.6c0-2.6-1.3-4.3-3.5-4.3c-2.2,0-3.5,1.7-3.5,4.3c0,2.5,1.2,4.3,3.5,4.3
			C257.1,613.9,258.3,612,258.3,609.6z"/>
		<path d="M265.1,612.7v-13h1.5v12.9c0,0.7,0.3,1.2,1,1.2c0.3,0,0.7-0.1,1-0.2v1.3c-0.5,0.2-1,0.3-1.5,0.3
			C265.9,615.2,265.1,614.4,265.1,612.7z"/>
		<path d="M281.8,610h-7.9c0,2.4,1.4,3.8,3.5,3.8c1.2,0,2.1-0.3,3.1-1.4l1.1,0.9c-1.3,1.3-2.5,1.8-4.2,1.8c-3.3,0-5-2.5-5-5.5
			c0-3.1,1.7-5.7,4.8-5.7c3.3,0,4.7,2.6,4.7,5.1C281.9,609.4,281.9,609.7,281.8,610z M273.9,608.7h6.6c0,0,0-0.2,0-0.4
			c-0.1-1.8-1.2-3.1-3.2-3.1C275.2,605.3,274,606.8,273.9,608.7z"/>
		<path d="M286.1,612.4l1.3-0.6c0.4,1.1,1.5,2.1,3.1,2.1c1.5,0,2.4-0.7,2.4-1.9c0-2.9-6.2-1.1-6.2-4.9c0-1.9,1.5-3.1,3.7-3.1
			c1.7,0,3.1,0.7,3.9,2.3l-1.2,0.7c-0.5-1-1.4-1.6-2.7-1.6c-1.3,0-2.2,0.6-2.2,1.5c0,2.6,6.3,0.9,6.3,5.1c0,2.2-1.8,3.3-3.9,3.3
			C288.4,615.2,286.6,614.1,286.1,612.4z"/>
		<path d="M307.5,609.6c0-3.2,2.1-5.6,5.2-5.6s5.2,2.4,5.2,5.6c0,3.2-2.1,5.6-5.2,5.6S307.5,612.8,307.5,609.6z M316.4,609.6
			c0-2.5-1.4-4.2-3.7-4.2c-2.3,0-3.7,1.8-3.7,4.2c0,2.5,1.4,4.3,3.7,4.3C315,613.9,316.4,612,316.4,609.6z"/>
		<path d="M323.6,605.4h-1.9v-1.3h1.9v-1c0-2.2,1.8-3.7,4.1-3.7c0.9,0,1.8,0.2,2.6,0.7c0.6-0.5,1.4-0.7,2.3-0.7
			c0.6,0,1.1,0.2,1.7,0.4l-0.5,1.2c-0.4-0.2-0.7-0.3-1.1-0.3c-1.2,0-1.8,0.5-1.8,1.8v1.5h3.4v1.3h-3.4v9.6h-1.5v-9.6h-4.3v9.6h-1.5
			V605.4z M329.4,604.2v-1.7c0-0.5,0.1-0.9,0.3-1.3c-0.5-0.3-1.3-0.5-1.9-0.5c-1.7,0-2.7,1-2.7,2.4v1L329.4,604.2L329.4,604.2z"/>
		<path d="M347.6,610h-7.9c0,2.4,1.4,3.8,3.5,3.8c1.2,0,2.1-0.3,3.1-1.4l1.1,0.9c-1.3,1.3-2.5,1.8-4.2,1.8c-3.3,0-5-2.5-5-5.5
			c0-3.1,1.7-5.7,4.8-5.7c3.3,0,4.7,2.6,4.7,5.1C347.6,609.4,347.6,609.7,347.6,610z M339.6,608.7h6.6c0,0,0-0.2,0-0.4
			c-0.1-1.8-1.2-3.1-3.2-3.1C341,605.3,339.7,606.8,339.6,608.7z"/>
		<path d="M359.5,604.5l-0.7,1.2c-0.5-0.2-1-0.3-1.4-0.3c-1.7,0-2.9,1.3-2.9,3.6v6.1h-1.6v-10.8h1.5v1.6c0.8-1.4,2.1-1.8,3.2-1.8
			C358.3,604,358.9,604.1,359.5,604.5z"/>
		<path d="M372.5,599.7h1.8v2.2h-1.8V599.7z M372.7,604.2h1.5V615h-1.5V604.2z"/>
		<path d="M384.9,614.9c-0.6,0.2-1.1,0.3-1.7,0.3c-1.5,0-2.5-0.8-2.5-2.7v-7h-1.8v-1.3h1.8v-2.8l1.5-1.1v4h2.6v1.3h-2.6v6.8
			c0,1.1,0.5,1.5,1.3,1.5c0.4,0,0.8-0.1,1.3-0.2L384.9,614.9z"/>
		<path d="M388.9,612.4l1.3-0.6c0.4,1.1,1.5,2.1,3.1,2.1c1.5,0,2.4-0.7,2.4-1.9c0-2.9-6.2-1.1-6.2-4.9c0-1.9,1.5-3.1,3.7-3.1
			c1.7,0,3.1,0.7,3.9,2.3l-1.2,0.7c-0.5-1-1.4-1.6-2.7-1.6c-1.3,0-2.2,0.6-2.2,1.5c0,2.6,6.3,0.9,6.3,5.1c0,2.2-1.8,3.3-3.9,3.3
			C391.2,615.2,389.5,614.1,388.9,612.4z"/>
		<path d="M421.2,609.6c0,3.2-1.7,5.6-4.8,5.6c-1.6,0-2.8-0.6-3.6-1.6v1.5h-1.5v-15.3h1.5v5.9c0.8-1.1,2-1.6,3.6-1.6
			C419.4,604,421.2,606.2,421.2,609.6z M419.7,609.6c0-2.6-1.3-4.3-3.5-4.3s-3.5,1.7-3.5,4.3c0,2.5,1.2,4.3,3.5,4.3
			C418.5,613.9,419.7,612,419.7,609.6z"/>
		<path d="M433.1,604.5l-0.7,1.2c-0.5-0.2-1-0.3-1.4-0.3c-1.7,0-2.9,1.3-2.9,3.6v6.1h-1.5v-10.8h1.5v1.6c0.8-1.4,2.1-1.8,3.2-1.8
			C431.9,604,432.5,604.1,433.1,604.5z"/>
		<path d="M445.7,608.3v6.8h-1.4l-0.1-1.7c-0.9,1.2-2.2,1.8-3.9,1.8c-2.4,0-3.7-1.2-3.7-3.3c0-1.1,0.4-1.9,1.2-2.4
			c0.8-0.5,2-0.7,4.1-0.7h2.2v-0.5c0-1.9-1-2.9-2.8-2.9c-1.4,0-2.4,0.6-3.3,1.8l-1.1-0.9c1.2-1.5,2.6-2.2,4.4-2.2
			C444.1,604,445.7,605.6,445.7,608.3z M444.2,610.2V610h-2.1c-2,0-2.9,0.1-3.4,0.5c-0.4,0.3-0.6,0.8-0.6,1.4c0,1.2,1,2,2.7,2
			C442.8,613.9,444.2,612.5,444.2,610.2z"/>
		<path d="M460.2,608.4v6.6h-1.5v-6.3c0-2.3-0.7-3.4-2.4-3.4c-2,0-3.2,1.8-3.2,4.8v4.9h-1.5v-10.8h1.5v1.6c0.7-1.1,2-1.8,3.6-1.8
			C459,604,460.2,605.5,460.2,608.4z"/>
		<path d="M475.3,599.7V615h-1.5v-1.5c-0.8,1-2,1.6-3.6,1.6c-3.2,0-4.8-2.4-4.8-5.6c0-3.4,1.8-5.6,4.8-5.6c1.5,0,2.8,0.6,3.6,1.6
			v-5.9h1.5V599.7z M473.9,609.6c0-2.6-1.3-4.3-3.5-4.3s-3.5,1.7-3.5,4.3c0,2.5,1.2,4.3,3.5,4.3C472.7,613.9,473.9,612,473.9,609.6z
			"/>
		<path d="M480.3,612.4l1.3-0.6c0.4,1.1,1.5,2.1,3.1,2.1c1.5,0,2.4-0.7,2.4-1.9c0-2.9-6.2-1.1-6.2-4.9c0-1.9,1.5-3.1,3.7-3.1
			c1.7,0,3.1,0.7,3.9,2.3l-1.2,0.7c-0.5-1-1.4-1.6-2.7-1.6c-1.3,0-2.2,0.6-2.2,1.5c0,2.6,6.3,0.9,6.3,5.1c0,2.2-1.8,3.3-3.9,3.3
			C482.6,615.2,480.8,614.1,480.3,612.4z"/>
		<path d="M510.7,608.3v6.8h-1.4l-0.1-1.7c-0.9,1.2-2.2,1.8-3.9,1.8c-2.4,0-3.7-1.2-3.7-3.3c0-1.1,0.4-1.9,1.2-2.4
			c0.8-0.5,2-0.7,4.1-0.7h2.2v-0.5c0-1.9-1-2.9-2.8-2.9c-1.4,0-2.4,0.6-3.3,1.8l-1.1-0.9c1.2-1.5,2.6-2.2,4.4-2.2
			C509.1,604,510.7,605.6,510.7,608.3z M509.2,610.2V610h-2.1c-2,0-2.9,0.1-3.4,0.5c-0.4,0.3-0.6,0.8-0.6,1.4c0,1.2,1,2,2.7,2
			C507.9,613.9,509.2,612.5,509.2,610.2z"/>
		<path d="M524.2,612.4l1.3-0.6c0.4,1.1,1.5,2.1,3.1,2.1c1.5,0,2.4-0.7,2.4-1.9c0-2.9-6.2-1.1-6.2-4.9c0-1.9,1.5-3.1,3.7-3.1
			c1.7,0,3.1,0.7,3.9,2.3l-1.2,0.7c-0.5-1-1.4-1.6-2.7-1.6s-2.2,0.6-2.2,1.5c0,2.6,6.3,0.9,6.3,5.1c0,2.2-1.8,3.3-3.9,3.3
			C526.5,615.2,524.7,614.1,524.2,612.4z"/>
		<path d="M546.4,608.4v6.6h-1.5v-6.3c0-2.4-0.7-3.4-2.4-3.4c-2.1,0-3.2,1.7-3.2,4.7v5h-1.5v-15.3h1.5v6.1c0.7-1.1,2-1.8,3.6-1.8
			C545.2,604,546.4,605.5,546.4,608.4z"/>
		<path d="M560.5,608.3v6.8h-1.4l-0.1-1.7c-0.9,1.2-2.2,1.8-3.9,1.8c-2.4,0-3.7-1.2-3.7-3.3c0-1.1,0.4-1.9,1.2-2.4s2-0.7,4.1-0.7
			h2.2v-0.5c0-1.9-1-2.9-2.8-2.9c-1.4,0-2.4,0.6-3.3,1.8l-1.1-0.9c1.2-1.5,2.6-2.2,4.4-2.2C559,604,560.5,605.6,560.5,608.3z
			 M559,610.2V610h-2.1c-2,0-2.9,0.1-3.4,0.5c-0.4,0.3-0.6,0.8-0.6,1.4c0,1.2,1,2,2.7,2C557.7,613.9,559,612.5,559,610.2z"/>
		<path d="M573,604.5l-0.7,1.2c-0.5-0.2-1-0.3-1.4-0.3c-1.7,0-2.9,1.3-2.9,3.6v6.1h-1.5v-10.8h1.5v1.6c0.8-1.4,2.1-1.8,3.2-1.8
			C571.8,604,572.4,604.1,573,604.5z"/>
		<path d="M585.7,610h-7.9c0,2.4,1.4,3.8,3.5,3.8c1.2,0,2.1-0.3,3.1-1.4l1.1,0.9c-1.3,1.3-2.5,1.8-4.2,1.8c-3.3,0-5-2.5-5-5.5
			c0-3.1,1.7-5.7,4.8-5.7c3.3,0,4.7,2.6,4.7,5.1C585.8,609.4,585.8,609.7,585.7,610z M577.8,608.7h6.6c0,0,0-0.2,0-0.4
			c-0.1-1.8-1.2-3.1-3.2-3.1C579.1,605.3,577.9,606.8,577.8,608.7z"/>
		<path d="M600.3,599.7V615h-1.5v-1.5c-0.8,1-2,1.6-3.6,1.6c-3.2,0-4.8-2.4-4.8-5.6c0-3.4,1.8-5.6,4.8-5.6c1.5,0,2.8,0.6,3.6,1.6
			v-5.9h1.5V599.7z M598.9,609.6c0-2.6-1.3-4.3-3.5-4.3s-3.5,1.7-3.5,4.3c0,2.5,1.2,4.3,3.5,4.3C597.7,613.9,598.9,612,598.9,609.6z
			"/>
		<path d="M99,642.2h1.6l3.4,8.9l3.4-8.9h1.7l-4.4,10.8h-1.3L99,642.2z"/>
		<path d="M113.7,637.7h1.8v2.2h-1.8V637.7z M113.9,642.2h1.5V653h-1.5V642.2z"/>
		<path d="M120.4,650.4l1.3-0.6c0.4,1.1,1.5,2.1,3.1,2.1c1.5,0,2.4-0.7,2.4-1.9c0-2.9-6.2-1.1-6.2-4.9c0-1.9,1.5-3.1,3.7-3.1
			c1.7,0,3.1,0.7,3.9,2.3l-1.2,0.7c-0.5-1-1.4-1.6-2.7-1.6c-1.3,0-2.2,0.6-2.2,1.5c0,2.6,6.3,0.9,6.3,5.1c0,2.2-1.8,3.3-3.9,3.3
			C122.7,653.2,120.9,652.1,120.4,650.4z"/>
		<path d="M133.8,637.7h1.8v2.2h-1.8V637.7z M133.9,642.2h1.5V653h-1.5V642.2z"/>
		<path d="M140.7,647.6c0-3.2,2.1-5.6,5.2-5.6c3.1,0,5.2,2.4,5.2,5.6c0,3.2-2.1,5.6-5.2,5.6S140.7,650.8,140.7,647.6z M149.6,647.6
			c0-2.5-1.4-4.2-3.7-4.2s-3.7,1.8-3.7,4.2c0,2.5,1.4,4.3,3.7,4.3C148.2,651.9,149.6,650,149.6,647.6z"/>
		<path d="M165,646.4v6.6h-1.5v-6.3c0-2.3-0.7-3.4-2.4-3.4c-2,0-3.2,1.8-3.2,4.8v4.9h-1.5v-10.8h1.5v1.6c0.7-1.1,2-1.8,3.6-1.8
			C163.8,642,165,643.5,165,646.4z"/>
		<path d="M179.5,637.7h1.8v2.2h-1.8V637.7z M179.7,642.2h1.5V653h-1.5V642.2z"/>
		<path d="M195.8,646.4v6.6h-1.5v-6.3c0-2.3-0.7-3.4-2.4-3.4c-2,0-3.2,1.8-3.2,4.8v4.9h-1.5v-10.8h1.5v1.6c0.7-1.1,2-1.8,3.6-1.8
			C194.6,642,195.8,643.5,195.8,646.4z"/>
		<path d="M209.1,642.2h1.6l2.3,8.6l2.9-8.6h1.4l2.8,8.6l2.4-8.6h1.6l-3.2,10.8h-1.4l-2.9-8.8l-2.9,8.8h-1.4L209.1,642.2z"/>
		<path d="M237.6,646.4v6.6h-1.5v-6.3c0-2.4-0.7-3.4-2.4-3.4c-2.1,0-3.2,1.7-3.2,4.7v5h-1.6v-15.3h1.5v6.1c0.7-1.1,2-1.8,3.6-1.8
			C236.3,642,237.6,643.5,237.6,646.4z"/>
		<path d="M243.3,637.7h1.8v2.2h-1.8V637.7z M243.4,642.2h1.5V653h-1.5V642.2z"/>
		<path d="M250.2,647.6c0-2.9,1.6-5.6,4.9-5.6c1.9,0,3.5,1,4.4,3l-1.5,0.6c-0.5-1.4-1.6-2.2-2.9-2.2c-2.3,0-3.3,2.1-3.3,4.3
			s1,4.2,3.4,4.2c1.4,0,2.4-0.8,2.9-2.2l1.4,0.5c-0.7,2-2.3,3-4.3,3C251.9,653.2,250.2,650.6,250.2,647.6z"/>
		<path d="M273.1,646.4v6.6h-1.5v-6.3c0-2.4-0.7-3.4-2.4-3.4c-2.1,0-3.2,1.7-3.2,4.7v5h-1.5v-15.3h1.5v6.1c0.7-1.1,2-1.8,3.6-1.8
			C271.9,642,273.1,643.5,273.1,646.4z"/>
		<path d="M292.3,652.9c-0.6,0.2-1.1,0.3-1.7,0.3c-1.5,0-2.5-0.8-2.5-2.7v-7h-1.8v-1.3h1.8v-2.8l1.5-1.1v4h2.6v1.3h-2.6v6.8
			c0,1.1,0.5,1.5,1.3,1.5c0.4,0,0.8-0.1,1.3-0.2L292.3,652.9z"/>
		<path d="M305.8,646.4v6.6h-1.5v-6.3c0-2.4-0.7-3.4-2.4-3.4c-2.1,0-3.2,1.7-3.2,4.7v5h-1.5v-15.3h1.5v6.1c0.7-1.1,2-1.8,3.6-1.8
			C304.6,642,305.8,643.5,305.8,646.4z"/>
		<path d="M320.4,648h-7.9c0,2.4,1.4,3.8,3.5,3.8c1.2,0,2.1-0.3,3.1-1.4l1.1,0.9c-1.3,1.3-2.5,1.8-4.2,1.8c-3.3,0-5-2.5-5-5.5
			c0-3.1,1.7-5.7,4.8-5.7c3.3,0,4.7,2.6,4.7,5.1C320.4,647.4,320.4,647.7,320.4,648z M312.4,646.7h6.6c0,0,0-0.2,0-0.4
			c-0.1-1.8-1.2-3.1-3.2-3.1C313.8,643.3,312.6,644.8,312.4,646.7z"/>
		<path d="M328.5,652.9l-4.6-10.7h1.7l3.7,8.9l3.3-8.9h1.7l-5.9,15.3h-1.6L328.5,652.9z"/>
		<path d="M355.8,646.3v6.8h-1.4l-0.1-1.7c-0.9,1.2-2.2,1.8-3.9,1.8c-2.4,0-3.7-1.2-3.7-3.3c0-1.1,0.4-1.9,1.2-2.4
			c0.8-0.5,2-0.7,4.1-0.7h2.2v-0.5c0-1.9-1-2.9-2.8-2.9c-1.4,0-2.4,0.6-3.3,1.8l-1.1-0.9c1.2-1.5,2.6-2.2,4.4-2.2
			C354.2,642,355.8,643.6,355.8,646.3z M354.2,648.2V648h-2.1c-2,0-2.9,0.1-3.4,0.5c-0.4,0.3-0.6,0.8-0.6,1.4c0,1.2,1,2,2.7,2
			C352.9,651.9,354.2,650.5,354.2,648.2z"/>
		<path d="M368.2,642.5l-0.7,1.2c-0.5-0.2-1-0.3-1.4-0.3c-1.7,0-2.9,1.3-2.9,3.6v6.1h-1.5v-10.8h1.5v1.6c0.8-1.4,2.1-1.8,3.2-1.8
			C367,642,367.6,642.1,368.2,642.5z"/>
		<path d="M380.9,648H373c0,2.4,1.4,3.8,3.5,3.8c1.2,0,2.1-0.3,3.1-1.4l1.1,0.9c-1.3,1.3-2.5,1.8-4.2,1.8c-3.3,0-5-2.5-5-5.5
			c0-3.1,1.7-5.7,4.8-5.7c3.3,0,4.7,2.6,4.7,5.1C381,647.4,381,647.7,380.9,648z M373,646.7h6.6c0,0,0-0.2,0-0.4
			c-0.1-1.8-1.2-3.1-3.2-3.1C374.3,643.3,373.1,644.8,373,646.7z"/>
		<path d="M403.1,646.3v6.8h-1.4l-0.1-1.7c-0.9,1.2-2.2,1.8-3.9,1.8c-2.4,0-3.7-1.2-3.7-3.3c0-1.1,0.4-1.9,1.2-2.4
			c0.8-0.5,2-0.7,4.1-0.7h2.2v-0.5c0-1.9-1-2.9-2.8-2.9c-1.4,0-2.4,0.6-3.3,1.8l-1.1-0.9c1.2-1.5,2.6-2.2,4.4-2.2
			C401.5,642,403.1,643.6,403.1,646.3z M401.5,648.2V648h-2.1c-2,0-2.9,0.1-3.4,0.5c-0.4,0.3-0.6,0.8-0.6,1.4c0,1.2,1,2,2.7,2
			C400.2,651.9,401.5,650.5,401.5,648.2z"/>
		<path d="M418.8,647.6c0,3.2-1.7,5.6-4.8,5.6c-1.6,0-2.8-0.6-3.6-1.6v1.5h-1.5v-15.3h1.5v5.9c0.8-1.1,2-1.6,3.6-1.6
			C417,642,418.8,644.2,418.8,647.6z M417.3,647.6c0-2.6-1.3-4.3-3.5-4.3s-3.5,1.7-3.5,4.3c0,2.5,1.2,4.3,3.5,4.3
			C416.1,651.9,417.3,650,417.3,647.6z"/>
		<path d="M424.1,650.7v-13h1.5v12.9c0,0.7,0.3,1.2,1,1.2c0.3,0,0.7-0.1,1-0.2v1.3c-0.5,0.2-1,0.3-1.5,0.3
			C424.9,653.2,424.1,652.4,424.1,650.7z"/>
		<path d="M440.8,648h-7.9c0,2.4,1.4,3.8,3.5,3.8c1.2,0,2.1-0.3,3.1-1.4l1.1,0.9c-1.3,1.3-2.5,1.8-4.2,1.8c-3.3,0-5-2.5-5-5.5
			c0-3.1,1.7-5.7,4.8-5.7c3.3,0,4.7,2.6,4.7,5.1C440.9,647.4,440.9,647.7,440.8,648z M432.9,646.7h6.6c0,0,0-0.2,0-0.4
			c-0.1-1.8-1.2-3.1-3.2-3.1C434.2,643.3,433,644.8,432.9,646.7z"/>
		<path d="M459.4,652.9c-0.6,0.2-1.1,0.3-1.7,0.3c-1.5,0-2.5-0.8-2.5-2.7v-7h-1.8v-1.3h1.8v-2.8l1.5-1.1v4h2.6v1.3h-2.6v6.8
			c0,1.1,0.5,1.5,1.3,1.5c0.4,0,0.8-0.1,1.3-0.2L459.4,652.9z"/>
		<path d="M463.2,647.6c0-3.2,2.1-5.6,5.2-5.6s5.2,2.4,5.2,5.6c0,3.2-2.1,5.6-5.2,5.6S463.2,650.8,463.2,647.6z M472.1,647.6
			c0-2.5-1.4-4.2-3.7-4.2c-2.3,0-3.7,1.8-3.7,4.2c0,2.5,1.4,4.3,3.7,4.3C470.7,651.9,472.1,650,472.1,647.6z"/>
		<path d="M496.2,648h-7.9c0,2.4,1.4,3.8,3.5,3.8c1.2,0,2.1-0.3,3.1-1.4l1.1,0.9c-1.3,1.3-2.5,1.8-4.2,1.8c-3.3,0-5-2.5-5-5.5
			c0-3.1,1.7-5.7,4.8-5.7c3.3,0,4.7,2.6,4.7,5.1C496.3,647.4,496.2,647.7,496.2,648z M488.2,646.7h6.6c0,0,0-0.2,0-0.4
			c-0.1-1.8-1.2-3.1-3.2-3.1C489.6,643.3,488.4,644.8,488.2,646.7z"/>
		<path d="M503.8,647.6l-4-5.4h1.8l3.1,4.4l3.1-4.4h1.8l-4,5.4l4,5.4h-1.9l-3.1-4.4l-3.1,4.4h-1.6L503.8,647.6z"/>
		<path d="M524.5,647.6c0,3.2-1.7,5.6-4.8,5.6c-1.6,0-2.8-0.6-3.6-1.6v5.9h-1.5v-15.3h1.5v1.5c0.8-1.1,2-1.6,3.6-1.6
			C522.7,642,524.5,644.2,524.5,647.6z M522.9,647.6c0-2.6-1.3-4.3-3.5-4.3s-3.5,1.7-3.5,4.3c0,2.5,1.2,4.3,3.5,4.3
			C521.7,651.9,522.9,650,522.9,647.6z"/>
		<path d="M536.4,642.5l-0.7,1.2c-0.5-0.2-1-0.3-1.4-0.3c-1.7,0-2.9,1.3-2.9,3.6v6.1h-1.5v-10.8h1.5v1.6c0.8-1.4,2.1-1.8,3.2-1.8
			C535.2,642,535.8,642.1,536.4,642.5z"/>
		<path d="M549.1,648h-7.9c0,2.4,1.4,3.8,3.5,3.8c1.2,0,2.1-0.3,3.1-1.4l1.1,0.9c-1.3,1.3-2.5,1.8-4.2,1.8c-3.3,0-5-2.5-5-5.5
			c0-3.1,1.7-5.7,4.8-5.7c3.3,0,4.7,2.6,4.7,5.1C549.2,647.4,549.2,647.7,549.1,648z M541.2,646.7h6.6c0,0,0-0.2,0-0.4
			c-0.1-1.8-1.2-3.1-3.2-3.1C542.5,643.3,541.3,644.8,541.2,646.7z"/>
		<path d="M553.4,650.4l1.3-0.6c0.4,1.1,1.5,2.1,3.1,2.1c1.5,0,2.4-0.7,2.4-1.9c0-2.9-6.2-1.1-6.2-4.9c0-1.9,1.5-3.1,3.7-3.1
			c1.7,0,3.1,0.7,3.9,2.3l-1.2,0.7c-0.5-1-1.4-1.6-2.7-1.6s-2.2,0.6-2.2,1.5c0,2.6,6.3,0.9,6.3,5.1c0,2.2-1.8,3.3-3.9,3.3
			C555.7,653.2,554,652.1,553.4,650.4z"/>
		<path d="M566.1,650.4l1.3-0.6c0.4,1.1,1.5,2.1,3.1,2.1c1.5,0,2.4-0.7,2.4-1.9c0-2.9-6.2-1.1-6.2-4.9c0-1.9,1.5-3.1,3.7-3.1
			c1.7,0,3.1,0.7,3.9,2.3l-1.2,0.7c-0.5-1-1.4-1.6-2.7-1.6s-2.2,0.6-2.2,1.5c0,2.6,6.3,0.9,6.3,5.1c0,2.2-1.8,3.3-3.9,3.3
			C568.4,653.2,566.7,652.1,566.1,650.4z"/>
		<path d="M105.1,690.9c-0.6,0.2-1.1,0.3-1.7,0.3c-1.5,0-2.5-0.8-2.5-2.7v-7h-1.8v-1.3h1.8v-2.8l1.5-1.1v4h2.6v1.3h-2.6v6.8
			c0,1.1,0.5,1.5,1.3,1.5c0.4,0,0.8-0.1,1.3-0.2L105.1,690.9z"/>
		<path d="M118.6,684.4v6.6h-1.5v-6.3c0-2.4-0.7-3.4-2.4-3.4c-2.1,0-3.2,1.7-3.2,4.7v5H110v-15.3h1.5v6.1c0.7-1.1,2-1.8,3.6-1.8
			C117.4,680,118.6,681.5,118.6,684.4z"/>
		<path d="M133.2,686h-7.9c0,2.4,1.4,3.8,3.5,3.8c1.2,0,2.1-0.3,3.1-1.4l1.1,0.9c-1.3,1.3-2.5,1.8-4.2,1.8c-3.3,0-5-2.5-5-5.5
			c0-3.1,1.7-5.7,4.8-5.7c3.3,0,4.7,2.6,4.7,5.1C133.3,685.4,133.3,685.7,133.2,686z M125.3,684.7h6.6c0,0,0-0.2,0-0.4
			c-0.1-1.8-1.2-3.1-3.2-3.1C126.6,681.3,125.4,682.8,125.3,684.7z"/>
		<path d="M138.4,675.7h1.8v2.2h-1.8V675.7z M138.5,680.2h1.5V691h-1.5V680.2z"/>
		<path d="M152.7,680.5l-0.7,1.2c-0.5-0.2-1-0.3-1.4-0.3c-1.7,0-2.9,1.3-2.9,3.6v6.1h-1.5v-10.8h1.5v1.6c0.8-1.4,2.1-1.8,3.2-1.8
			C151.5,680,152.1,680.1,152.7,680.5z"/>
		<path d="M174.4,686h-7.9c0,2.4,1.4,3.8,3.5,3.8c1.2,0,2.1-0.3,3.1-1.4l1.1,0.9c-1.3,1.3-2.5,1.8-4.2,1.8c-3.3,0-5-2.5-5-5.5
			c0-3.1,1.7-5.7,4.8-5.7c3.3,0,4.7,2.6,4.7,5.1C174.5,685.4,174.5,685.7,174.4,686z M166.5,684.7h6.6c0,0,0-0.2,0-0.4
			c-0.1-1.8-1.2-3.1-3.2-3.1C167.8,681.3,166.6,682.8,166.5,684.7z"/>
		<path d="M178.7,688.4l1.3-0.6c0.4,1.1,1.5,2.1,3.1,2.1c1.5,0,2.4-0.7,2.4-1.9c0-2.9-6.2-1.1-6.2-4.9c0-1.9,1.5-3.1,3.7-3.1
			c1.7,0,3.1,0.7,3.9,2.3l-1.2,0.7c-0.5-1-1.4-1.6-2.7-1.6s-2.2,0.6-2.2,1.5c0,2.6,6.3,0.9,6.3,5.1c0,2.2-1.8,3.3-3.9,3.3
			C181,691.2,179.2,690.1,178.7,688.4z"/>
		<path d="M191.4,688.4l1.3-0.6c0.4,1.1,1.5,2.1,3.1,2.1c1.5,0,2.4-0.7,2.4-1.9c0-2.9-6.2-1.1-6.2-4.9c0-1.9,1.5-3.1,3.7-3.1
			c1.7,0,3.1,0.7,3.9,2.3l-1.2,0.7c-0.5-1-1.4-1.6-2.7-1.6s-2.2,0.6-2.2,1.5c0,2.6,6.3,0.9,6.3,5.1c0,2.2-1.8,3.3-3.9,3.3
			C193.7,691.2,192,690.1,191.4,688.4z"/>
		<path d="M213.7,686h-7.9c0,2.4,1.4,3.8,3.5,3.8c1.2,0,2.1-0.3,3.1-1.4l1.1,0.9c-1.3,1.3-2.5,1.8-4.2,1.8c-3.3,0-5-2.5-5-5.5
			c0-3.1,1.7-5.7,4.8-5.7c3.3,0,4.7,2.6,4.7,5.1C213.7,685.4,213.7,685.7,213.7,686z M205.7,684.7h6.6c0,0,0-0.2,0-0.4
			c-0.1-1.8-1.2-3.1-3.2-3.1C207.1,681.3,205.8,682.8,205.7,684.7z"/>
		<path d="M227.6,684.4v6.6h-1.5v-6.3c0-2.3-0.7-3.4-2.4-3.4c-2,0-3.2,1.8-3.2,4.8v4.9H219v-10.8h1.5v1.6c0.7-1.1,2-1.8,3.6-1.8
			C226.4,680,227.6,681.5,227.6,684.4z"/>
		<path d="M232.8,685.6c0-2.9,1.6-5.6,4.9-5.6c1.9,0,3.5,1,4.4,3l-1.5,0.6c-0.5-1.4-1.6-2.2-2.9-2.2c-2.3,0-3.3,2.1-3.3,4.3
			s1,4.2,3.4,4.2c1.4,0,2.4-0.8,2.9-2.2l1.4,0.5c-0.7,2-2.3,3-4.3,3C234.5,691.2,232.8,688.6,232.8,685.6z"/>
		<path d="M255.7,686h-7.9c0,2.4,1.4,3.8,3.5,3.8c1.2,0,2.1-0.3,3.1-1.4l1.1,0.9c-1.3,1.3-2.5,1.8-4.2,1.8c-3.3,0-5-2.5-5-5.5
			c0-3.1,1.7-5.7,4.8-5.7c3.3,0,4.7,2.6,4.7,5.1C255.8,685.4,255.8,685.7,255.7,686z M247.8,684.7h6.6c0,0,0-0.2,0-0.4
			c-0.1-1.8-1.2-3.1-3.2-3.1C249.1,681.3,247.9,682.8,247.8,684.7z"/>
		<path d="M261.4,688.6h2v2.4h-2V688.6z"/>
		<path d="M109,724.9h-6.4l-1.5,4.1h-1.7l5.7-15.3h1.3l5.7,15.3h-1.7L109,724.9z M108.5,723.6l-2.7-7.7l-2.7,7.7H108.5z"/>
		<path d="M124.5,718.2h1.6l2.3,8.6l2.9-8.6h1.4l2.8,8.6l2.4-8.6h1.6l-3.2,10.8h-1.4l-2.9-8.8l-2.9,8.8h-1.4L124.5,718.2z"/>
		<path d="M144.1,713.7h1.8v2.2h-1.8V713.7z M144.3,718.2h1.5V729h-1.5V718.2z"/>
		<path d="M161,713.7V729h-1.5v-1.5c-0.8,1-2,1.6-3.6,1.6c-3.2,0-4.8-2.4-4.8-5.6c0-3.4,1.8-5.6,4.8-5.6c1.5,0,2.8,0.6,3.6,1.6v-5.9
			h1.5V713.7z M159.6,723.6c0-2.6-1.3-4.3-3.5-4.3s-3.5,1.7-3.5,4.3c0,2.5,1.2,4.3,3.5,4.3C158.4,727.9,159.6,726,159.6,723.6z"/>
		<path d="M175.8,724h-7.9c0,2.4,1.4,3.8,3.5,3.8c1.2,0,2.1-0.3,3.1-1.4l1.1,0.9c-1.3,1.3-2.5,1.8-4.2,1.8c-3.3,0-5-2.5-5-5.5
			c0-3.1,1.7-5.7,4.8-5.7c3.3,0,4.7,2.6,4.7,5.1C175.9,723.4,175.9,723.7,175.8,724z M167.9,722.7h6.6c0,0,0-0.2,0-0.4
			c-0.1-1.8-1.2-3.1-3.2-3.1C169.2,719.3,168,720.8,167.9,722.7z"/>
		<path d="M196.5,718.5l-0.7,1.2c-0.5-0.2-1-0.3-1.4-0.3c-1.7,0-2.9,1.3-2.9,3.6v6.1h-1.6v-10.8h1.5v1.6c0.8-1.4,2.1-1.8,3.2-1.8
			C195.3,718,195.9,718.1,196.5,718.5z"/>
		<path d="M209,722.3v6.8h-1.4l-0.1-1.7c-0.9,1.2-2.2,1.8-3.9,1.8c-2.4,0-3.7-1.2-3.7-3.3c0-1.1,0.4-1.9,1.2-2.4s2-0.7,4.1-0.7h2.2
			v-0.5c0-1.9-1-2.9-2.8-2.9c-1.4,0-2.4,0.6-3.3,1.8l-1.1-0.9c1.2-1.5,2.6-2.2,4.4-2.2C207.4,718,209,719.6,209,722.3z M207.5,724.2
			V724h-2.1c-2,0-2.9,0.1-3.4,0.5c-0.4,0.3-0.6,0.8-0.6,1.4c0,1.2,1,2,2.7,2C206.2,727.9,207.5,726.5,207.5,724.2z"/>
		<path d="M223.5,722.4v6.6H222v-6.3c0-2.3-0.7-3.4-2.4-3.4c-2,0-3.2,1.8-3.2,4.8v4.9h-1.5v-10.8h1.5v1.6c0.7-1.1,2-1.8,3.6-1.8
			C222.3,718,223.5,719.5,223.5,722.4z"/>
		<path d="M237.9,730.7c0,2-1.9,3-4.6,3c-3,0-4.8-1.2-4.8-3.3c0-0.2,0-0.4,0-0.5l1.8-1.5c-0.8-0.4-1.4-1-1.4-2.1
			c0-0.9,0.4-1.5,1.2-2.1c-0.6-0.7-0.9-1.5-0.9-2.5c0-2.2,1.8-3.8,4.1-3.8c1.1,0,2,0.3,2.7,0.9l1.5-1.3l0.8,1l-1.5,1.2
			c0.4,0.6,0.6,1.3,0.6,2c0,2.2-1.8,3.7-4.1,3.7c-0.8,0-1.6-0.2-2.2-0.5c-0.4,0.2-0.7,0.6-0.7,1.1c0,1.1,1.4,1.4,2.9,1.6
			C235.3,728,237.9,728.3,237.9,730.7z M236.4,730.8c0-1.3-1.7-1.5-3.5-1.8c-0.5-0.1-1-0.2-1.5-0.3l-1.5,1.4c0,0.1,0,0.2,0,0.2
			c0,1.5,1.6,2,3.4,2C235.2,732.4,236.4,731.9,236.4,730.8z M230.5,721.8c0,1.4,1,2.5,2.6,2.5s2.6-1.1,2.6-2.5c0-1.5-1-2.5-2.6-2.5
			C231.7,719.3,230.5,720.3,230.5,721.8z"/>
		<path d="M251.5,724h-7.9c0,2.4,1.4,3.8,3.5,3.8c1.2,0,2.1-0.3,3.1-1.4l1.1,0.9c-1.3,1.3-2.5,1.8-4.2,1.8c-3.3,0-5-2.5-5-5.5
			c0-3.1,1.7-5.7,4.8-5.7c3.3,0,4.7,2.6,4.7,5.1C251.6,723.4,251.6,723.7,251.5,724z M243.6,722.7h6.6c0,0,0-0.2,0-0.4
			c-0.1-1.8-1.2-3.1-3.2-3.1C244.9,719.3,243.7,720.8,243.6,722.7z"/>
		<path d="M264.6,723.6c0-3.2,2.1-5.6,5.2-5.6s5.2,2.4,5.2,5.6c0,3.2-2.1,5.6-5.2,5.6S264.6,726.8,264.6,723.6z M273.5,723.6
			c0-2.5-1.4-4.2-3.7-4.2c-2.3,0-3.7,1.8-3.7,4.2c0,2.5,1.4,4.3,3.7,4.3C272.1,727.9,273.5,726,273.5,723.6z"/>
		<path d="M280.9,719.4h-2.3v-1.3h2.3v-1.7c0-2.3,1.3-3,2.7-3c0.6,0,1.3,0.1,1.9,0.4L285,715c-0.5-0.2-0.9-0.4-1.3-0.4
			c-0.9,0-1.4,0.6-1.4,1.6v1.8h3.1v1.3h-3.1v9.6h-1.4V719.4z"/>
		<path d="M303.3,728.9c-0.6,0.2-1.1,0.3-1.7,0.3c-1.5,0-2.5-0.8-2.5-2.7v-7h-1.8v-1.3h1.8v-2.8l1.5-1.1v4h2.6v1.3h-2.6v6.8
			c0,1.1,0.5,1.5,1.3,1.5c0.4,0,0.8-0.1,1.3-0.2L303.3,728.9z"/>
		<path d="M316.8,722.4v6.6h-1.5v-6.3c0-2.4-0.7-3.4-2.4-3.4c-2.1,0-3.2,1.7-3.2,4.7v5h-1.5v-15.3h1.5v6.1c0.7-1.1,2-1.8,3.6-1.8
			C315.6,718,316.8,719.5,316.8,722.4z"/>
		<path d="M321.9,723.6c0-3.2,2.1-5.6,5.2-5.6s5.2,2.4,5.2,5.6c0,3.2-2.1,5.6-5.2,5.6S321.9,726.8,321.9,723.6z M330.8,723.6
			c0-2.5-1.4-4.2-3.7-4.2c-2.3,0-3.7,1.8-3.7,4.2c0,2.5,1.4,4.3,3.7,4.3C329.5,727.9,330.8,726,330.8,723.6z"/>
		<path d="M346,718.2V729h-1.5v-1.6c-0.8,1.2-2.2,1.7-3.6,1.7c-2.5,0-3.5-1.7-3.5-4.4v-6.6h1.5v6.3c0,1.8,0.3,3.4,2.4,3.4
			c2.2,0,3.2-1.9,3.2-4.7v-5L346,718.2L346,718.2z"/>
		<path d="M360.6,730.7c0,2-1.9,3-4.6,3c-3,0-4.8-1.2-4.8-3.3c0-0.2,0-0.4,0-0.5l1.8-1.5c-0.8-0.4-1.4-1-1.4-2.1
			c0-0.9,0.4-1.5,1.2-2.1c-0.6-0.7-0.9-1.5-0.9-2.5c0-2.2,1.8-3.8,4.1-3.8c1.1,0,2,0.3,2.7,0.9l1.5-1.3l0.8,1l-1.5,1.2
			c0.4,0.6,0.6,1.3,0.6,2c0,2.2-1.8,3.7-4.1,3.7c-0.8,0-1.6-0.2-2.2-0.5c-0.4,0.2-0.7,0.6-0.7,1.1c0,1.1,1.4,1.4,2.9,1.6
			C358,728,360.6,728.3,360.6,730.7z M359.1,730.8c0-1.3-1.7-1.5-3.5-1.8c-0.5-0.1-1-0.2-1.5-0.3l-1.5,1.4c0,0.1,0,0.2,0,0.2
			c0,1.5,1.6,2,3.4,2C357.9,732.4,359.1,731.9,359.1,730.8z M353.2,721.8c0,1.4,1,2.5,2.6,2.5s2.6-1.1,2.6-2.5c0-1.5-1-2.5-2.6-2.5
			C354.4,719.3,353.2,720.3,353.2,721.8z"/>
		<path d="M374.3,722.4v6.6h-1.5v-6.3c0-2.4-0.7-3.4-2.4-3.4c-2.1,0-3.2,1.7-3.2,4.7v5h-1.5v-15.3h1.5v6.1c0.7-1.1,2-1.8,3.6-1.8
			C373.1,718,374.3,719.5,374.3,722.4z"/>
		<path d="M384.6,728.9c-0.6,0.2-1.1,0.3-1.7,0.3c-1.5,0-2.5-0.8-2.5-2.7v-7h-1.8v-1.3h1.8v-2.8l1.5-1.1v4h2.6v1.3h-2.6v6.8
			c0,1.1,0.5,1.5,1.3,1.5c0.4,0,0.8-0.1,1.3-0.2L384.6,728.9z"/>
		<path d="M388.7,726.4l1.3-0.6c0.4,1.1,1.5,2.1,3.1,2.1c1.5,0,2.4-0.7,2.4-1.9c0-2.9-6.2-1.1-6.2-4.9c0-1.9,1.5-3.1,3.7-3.1
			c1.7,0,3.1,0.7,3.9,2.3l-1.2,0.7c-0.5-1-1.4-1.6-2.7-1.6c-1.3,0-2.2,0.6-2.2,1.5c0,2.6,6.3,0.9,6.3,5.1c0,2.2-1.8,3.3-3.9,3.3
			C391,729.2,389.3,728.1,388.7,726.4z"/>
		<path d="M415.6,728.9c-0.6,0.2-1.1,0.3-1.7,0.3c-1.5,0-2.5-0.8-2.5-2.7v-7h-1.8v-1.3h1.8v-2.8l1.5-1.1v4h2.6v1.3h-2.6v6.8
			c0,1.1,0.5,1.5,1.3,1.5c0.4,0,0.8-0.1,1.3-0.2L415.6,728.9z"/>
		<path d="M429.1,722.4v6.6h-1.5v-6.3c0-2.4-0.7-3.4-2.4-3.4c-2.1,0-3.2,1.7-3.2,4.7v5h-1.5v-15.3h1.5v6.1c0.7-1.1,2-1.8,3.6-1.8
			C427.9,718,429.1,719.5,429.1,722.4z"/>
		<path d="M443.2,722.3v6.8h-1.4l-0.1-1.7c-0.9,1.2-2.2,1.8-3.9,1.8c-2.4,0-3.7-1.2-3.7-3.3c0-1.1,0.4-1.9,1.2-2.4
			c0.8-0.5,2-0.7,4.1-0.7h2.2v-0.5c0-1.9-1-2.9-2.8-2.9c-1.4,0-2.4,0.6-3.3,1.8l-1.1-0.9c1.2-1.5,2.6-2.2,4.4-2.2
			C441.6,718,443.2,719.6,443.2,722.3z M441.7,724.2V724h-2.1c-2,0-2.9,0.1-3.4,0.5c-0.4,0.3-0.6,0.8-0.6,1.4c0,1.2,1,2,2.7,2
			C440.4,727.9,441.7,726.5,441.7,724.2z"/>
		<path d="M453.5,728.9c-0.6,0.2-1.1,0.3-1.7,0.3c-1.5,0-2.5-0.8-2.5-2.7v-7h-1.8v-1.3h1.8v-2.8l1.5-1.1v4h2.6v1.3h-2.6v6.8
			c0,1.1,0.5,1.5,1.3,1.5c0.4,0,0.8-0.1,1.3-0.2L453.5,728.9z"/>
		<path d="M475.9,722.4v6.6h-1.5v-6.3c0-2.4-0.7-3.4-2.4-3.4c-2.1,0-3.2,1.7-3.2,4.7v5h-1.5v-15.3h1.5v6.1c0.7-1.1,2-1.8,3.6-1.8
			C474.7,718,475.9,719.5,475.9,722.4z"/>
		<path d="M490,722.3v6.8h-1.4l-0.1-1.7c-0.9,1.2-2.2,1.8-3.9,1.8c-2.4,0-3.7-1.2-3.7-3.3c0-1.1,0.4-1.9,1.2-2.4
			c0.8-0.5,2-0.7,4.1-0.7h2.2v-0.5c0-1.9-1-2.9-2.8-2.9c-1.4,0-2.4,0.6-3.3,1.8l-1.1-0.9c1.2-1.5,2.6-2.2,4.4-2.2
			C488.5,718,490,719.6,490,722.3z M488.5,724.2V724h-2.1c-2,0-2.9,0.1-3.4,0.5c-0.4,0.3-0.6,0.8-0.6,1.4c0,1.2,1,2,2.7,2
			C487.2,727.9,488.5,726.5,488.5,724.2z"/>
		<path d="M494.8,726.4l1.3-0.6c0.4,1.1,1.5,2.1,3.1,2.1c1.5,0,2.4-0.7,2.4-1.9c0-2.9-6.2-1.1-6.2-4.9c0-1.9,1.5-3.1,3.7-3.1
			c1.7,0,3.1,0.7,3.9,2.3l-1.2,0.7c-0.5-1-1.4-1.6-2.7-1.6c-1.3,0-2.2,0.6-2.2,1.5c0,2.6,6.3,0.9,6.3,5.1c0,2.2-1.8,3.3-3.9,3.3
			C497.1,729.2,495.4,728.1,494.8,726.4z"/>
		<path d="M527.1,723.6c0,3.2-1.7,5.6-4.8,5.6c-1.6,0-2.8-0.6-3.6-1.6v1.5h-1.5v-15.3h1.5v5.9c0.8-1.1,2-1.6,3.6-1.6
			C525.3,718,527.1,720.2,527.1,723.6z M525.6,723.6c0-2.6-1.3-4.3-3.5-4.3s-3.5,1.7-3.5,4.3c0,2.5,1.2,4.3,3.5,4.3
			C524.3,727.9,525.6,726,525.6,723.6z"/>
		<path d="M539,718.5l-0.7,1.2c-0.5-0.2-1-0.3-1.4-0.3c-1.7,0-2.9,1.3-2.9,3.6v6.1h-1.5v-10.8h1.5v1.6c0.8-1.4,2.1-1.8,3.2-1.8
			C537.8,718,538.4,718.1,539,718.5z"/>
		<path d="M542.2,723.6c0-3.2,2.1-5.6,5.2-5.6c3.1,0,5.2,2.4,5.2,5.6c0,3.2-2.1,5.6-5.2,5.6S542.2,726.8,542.2,723.6z M551.1,723.6
			c0-2.5-1.4-4.2-3.7-4.2s-3.7,1.8-3.7,4.2c0,2.5,1.4,4.3,3.7,4.3C549.7,727.9,551.1,726,551.1,723.6z"/>
		<path d="M566.1,722.3v6.8h-1.4l-0.1-1.7c-0.9,1.2-2.2,1.8-3.9,1.8c-2.4,0-3.7-1.2-3.7-3.3c0-1.1,0.4-1.9,1.2-2.4s2-0.7,4.1-0.7
			h2.2v-0.5c0-1.9-1-2.9-2.8-2.9c-1.4,0-2.4,0.6-3.3,1.8l-1.1-0.9c1.2-1.5,2.6-2.2,4.4-2.2C564.5,718,566.1,719.6,566.1,722.3z
			 M564.6,724.2V724h-2.1c-2,0-2.9,0.1-3.4,0.5c-0.4,0.3-0.6,0.8-0.6,1.4c0,1.2,1,2,2.7,2C563.3,727.9,564.6,726.5,564.6,724.2z"/>
		<path d="M581.2,713.7V729h-1.5v-1.5c-0.8,1-2,1.6-3.6,1.6c-3.2,0-4.8-2.4-4.8-5.6c0-3.4,1.8-5.6,4.8-5.6c1.5,0,2.8,0.6,3.6,1.6
			v-5.9h1.5V713.7z M579.8,723.6c0-2.6-1.3-4.3-3.5-4.3s-3.5,1.7-3.5,4.3c0,2.5,1.2,4.3,3.5,4.3C578.6,727.9,579.8,726,579.8,723.6z
			"/>
		<path d="M596,724h-7.9c0,2.4,1.4,3.8,3.5,3.8c1.2,0,2.1-0.3,3.1-1.4l1.1,0.9c-1.3,1.3-2.5,1.8-4.2,1.8c-3.3,0-5-2.5-5-5.5
			c0-3.1,1.7-5.7,4.8-5.7c3.3,0,4.7,2.6,4.7,5.1C596,723.4,596,723.7,596,724z M588,722.7h6.6c0,0,0-0.2,0-0.4
			c-0.1-1.8-1.2-3.1-3.2-3.1C589.4,719.3,588.1,720.8,588,722.7z"/>
		<path d="M609.9,722.4v6.6h-1.5v-6.3c0-2.3-0.7-3.4-2.4-3.4c-2,0-3.2,1.8-3.2,4.8v4.9h-1.5v-10.8h1.5v1.6c0.7-1.1,2-1.8,3.6-1.8
			C608.7,718,609.9,719.5,609.9,722.4z"/>
		<path d="M624.5,724h-7.9c0,2.4,1.4,3.8,3.5,3.8c1.2,0,2.1-0.3,3.1-1.4l1.1,0.9c-1.3,1.3-2.5,1.8-4.2,1.8c-3.3,0-5-2.5-5-5.5
			c0-3.1,1.7-5.7,4.8-5.7c3.3,0,4.7,2.6,4.7,5.1C624.6,723.4,624.6,723.7,624.5,724z M616.6,722.7h6.6c0,0,0-0.2,0-0.4
			c-0.1-1.8-1.2-3.1-3.2-3.1C617.9,719.3,616.7,720.8,616.6,722.7z"/>
		<path d="M639.1,713.7V729h-1.5v-1.5c-0.8,1-2,1.6-3.6,1.6c-3.2,0-4.8-2.4-4.8-5.6c0-3.4,1.8-5.6,4.8-5.6c1.5,0,2.8,0.6,3.6,1.6
			v-5.9h1.5V713.7z M637.7,723.6c0-2.6-1.3-4.3-3.5-4.3s-3.5,1.7-3.5,4.3c0,2.5,1.2,4.3,3.5,4.3C636.5,727.9,637.7,726,637.7,723.6z
			"/>
		<path d="M105.1,766.9c-0.6,0.2-1.1,0.3-1.7,0.3c-1.5,0-2.5-0.8-2.5-2.7v-7h-1.8v-1.3h1.8v-2.8l1.5-1.1v4h2.6v1.3h-2.6v6.8
			c0,1.1,0.5,1.5,1.3,1.5c0.4,0,0.8-0.1,1.3-0.2L105.1,766.9z"/>
		<path d="M118.6,760.4v6.6h-1.5v-6.3c0-2.4-0.7-3.4-2.4-3.4c-2.1,0-3.2,1.7-3.2,4.7v5H110v-15.3h1.5v6.1c0.7-1.1,2-1.8,3.6-1.8
			C117.4,756,118.6,757.5,118.6,760.4z"/>
		<path d="M133.2,762h-7.9c0,2.4,1.4,3.8,3.5,3.8c1.2,0,2.1-0.3,3.1-1.4l1.1,0.9c-1.3,1.3-2.5,1.8-4.2,1.8c-3.3,0-5-2.5-5-5.5
			c0-3.1,1.7-5.7,4.8-5.7c3.3,0,4.7,2.6,4.7,5.1C133.3,761.4,133.3,761.7,133.2,762z M125.3,760.7h6.6c0,0,0-0.2,0-0.4
			c-0.1-1.8-1.2-3.1-3.2-3.1C126.6,757.3,125.4,758.8,125.3,760.7z"/>
		<path d="M155.9,760.4v6.6h-1.5v-6.3c0-2.4-0.7-3.4-2.4-3.4c-2.1,0-3.2,1.7-3.2,4.7v5h-1.5v-15.3h1.5v6.1c0.7-1.1,2-1.8,3.6-1.8
			C154.7,756,155.9,757.5,155.9,760.4z"/>
		<path d="M161,761.6c0-3.2,2.1-5.6,5.2-5.6c3.1,0,5.2,2.4,5.2,5.6c0,3.2-2.1,5.6-5.2,5.6S161,764.8,161,761.6z M169.9,761.6
			c0-2.5-1.4-4.2-3.7-4.2s-3.7,1.8-3.7,4.2c0,2.5,1.4,4.3,3.7,4.3C168.5,765.9,169.9,764,169.9,761.6z"/>
		<path d="M183.3,756.5l-0.7,1.2c-0.5-0.2-1-0.3-1.4-0.3c-1.7,0-2.9,1.3-2.9,3.6v6.1h-1.5v-10.8h1.5v1.6c0.8-1.4,2.1-1.8,3.2-1.8
			C182.1,756,182.7,756.1,183.3,756.5z"/>
		<path d="M187.7,751.7h1.8v2.2h-1.8V751.7z M187.9,756.2h1.5V767h-1.5V756.2z"/>
		<path d="M203.2,757.4l-7.1,8.3h7v1.3h-9v-1.1l7.2-8.4h-6.8v-1.3h8.7L203.2,757.4L203.2,757.4z"/>
		<path d="M207,761.6c0-3.2,2.1-5.6,5.2-5.6c3.1,0,5.2,2.4,5.2,5.6c0,3.2-2.1,5.6-5.2,5.6S207,764.8,207,761.6z M215.9,761.6
			c0-2.5-1.4-4.2-3.7-4.2s-3.7,1.8-3.7,4.2c0,2.5,1.4,4.3,3.7,4.3C214.6,765.9,215.9,764,215.9,761.6z"/>
		<path d="M231.4,760.4v6.6h-1.5v-6.3c0-2.3-0.7-3.4-2.4-3.4c-2,0-3.2,1.8-3.2,4.8v4.9h-1.5v-10.8h1.5v1.6c0.7-1.1,2-1.8,3.6-1.8
			C230.1,756,231.4,757.5,231.4,760.4z"/>
		<path d="M236.2,764.4l1.3-0.6c0.4,1.1,1.5,2.1,3.1,2.1c1.5,0,2.4-0.7,2.4-1.9c0-2.9-6.2-1.1-6.2-4.9c0-1.9,1.5-3.1,3.7-3.1
			c1.7,0,3.1,0.7,3.9,2.3l-1.2,0.7c-0.5-1-1.4-1.6-2.7-1.6s-2.2,0.6-2.2,1.5c0,2.6,6.3,0.9,6.3,5.1c0,2.2-1.8,3.3-3.9,3.3
			C238.5,767.2,236.7,766.1,236.2,764.4z"/>
		<path d="M257.6,761.6c0-3.2,2.1-5.6,5.2-5.6s5.2,2.4,5.2,5.6c0,3.2-2.1,5.6-5.2,5.6S257.6,764.8,257.6,761.6z M266.5,761.6
			c0-2.5-1.4-4.2-3.7-4.2c-2.3,0-3.7,1.8-3.7,4.2c0,2.5,1.4,4.3,3.7,4.3C265.1,765.9,266.5,764,266.5,761.6z"/>
		<path d="M273.8,757.4h-2.3v-1.3h2.3v-1.7c0-2.3,1.3-3,2.7-3c0.6,0,1.3,0.1,1.9,0.4l-0.5,1.2c-0.5-0.2-0.9-0.4-1.3-0.4
			c-0.9,0-1.4,0.6-1.4,1.6v1.8h3.1v1.3h-3.1v9.6h-1.5L273.8,757.4L273.8,757.4z"/>
		<path d="M291.7,764.7v-13h1.5v12.9c0,0.7,0.3,1.2,1,1.2c0.3,0,0.7-0.1,1-0.2v1.3c-0.5,0.2-1,0.3-1.5,0.3
			C292.5,767.2,291.7,766.4,291.7,764.7z"/>
		<path d="M308.2,756.2V767h-1.5v-1.6c-0.8,1.2-2.2,1.7-3.6,1.7c-2.5,0-3.5-1.7-3.5-4.4v-6.6h1.5v6.3c0,1.8,0.3,3.4,2.4,3.4
			c2.2,0,3.2-1.9,3.2-4.7v-5L308.2,756.2L308.2,756.2z"/>
		<path d="M316.9,761.6l-4-5.4h1.8l3.1,4.4l3.1-4.4h1.8l-4,5.4l4,5.4h-1.9l-3.1-4.4l-3.1,4.4h-1.7L316.9,761.6z"/>
		<path d="M336.1,756.2V767h-1.5v-1.6c-0.8,1.2-2.2,1.7-3.6,1.7c-2.5,0-3.5-1.7-3.5-4.4v-6.6h1.5v6.3c0,1.8,0.3,3.4,2.4,3.4
			c2.2,0,3.2-1.9,3.2-4.7v-5L336.1,756.2L336.1,756.2z"/>
		<path d="M348.7,756.5l-0.7,1.2c-0.5-0.2-1-0.3-1.4-0.3c-1.7,0-2.9,1.3-2.9,3.6v6.1h-1.5v-10.8h1.5v1.6c0.8-1.4,2.1-1.8,3.2-1.8
			C347.5,756,348.1,756.1,348.7,756.5z"/>
		<path d="M357,766.9l-4.6-10.7h1.7l3.7,8.9l3.3-8.9h1.7l-5.9,15.3h-1.6L357,766.9z"/>
		<path d="M367.6,764.2h2l-2.9,6.2h-1L367.6,764.2z"/>
		<path d="M382.6,756.2h1.6l2.3,8.6l2.9-8.6h1.4l2.8,8.6l2.4-8.6h1.6l-3.2,10.8H393l-2.9-8.8l-2.9,8.8h-1.4L382.6,756.2z"/>
		<path d="M402.3,751.7h1.8v2.2h-1.8V751.7z M402.4,756.2h1.5V767h-1.5V756.2z"/>
		<path d="M414.6,766.9c-0.6,0.2-1.1,0.3-1.7,0.3c-1.5,0-2.5-0.8-2.5-2.7v-7h-1.8v-1.3h1.8v-2.8l1.5-1.1v4h2.6v1.3h-2.6v6.8
			c0,1.1,0.5,1.5,1.3,1.5c0.4,0,0.8-0.1,1.3-0.2L414.6,766.9z"/>
		<path d="M428.1,760.4v6.6h-1.5v-6.3c0-2.4-0.7-3.4-2.4-3.4c-2.1,0-3.2,1.7-3.2,4.7v5h-1.5v-15.3h1.5v6.1c0.7-1.1,2-1.8,3.6-1.8
			C426.9,756,428.1,757.5,428.1,760.4z"/>
		<path d="M433.2,761.6c0-3.2,2.1-5.6,5.2-5.6s5.2,2.4,5.2,5.6c0,3.2-2.1,5.6-5.2,5.6S433.2,764.8,433.2,761.6z M442.1,761.6
			c0-2.5-1.4-4.2-3.7-4.2c-2.3,0-3.7,1.8-3.7,4.2c0,2.5,1.4,4.3,3.7,4.3C440.7,765.9,442.1,764,442.1,761.6z"/>
		<path d="M457.3,756.2V767h-1.5v-1.6c-0.8,1.2-2.2,1.7-3.6,1.7c-2.5,0-3.5-1.7-3.5-4.4v-6.6h1.5v6.3c0,1.8,0.3,3.4,2.4,3.4
			c2.2,0,3.2-1.9,3.2-4.7v-5L457.3,756.2L457.3,756.2z"/>
		<path d="M468,766.9c-0.6,0.2-1.1,0.3-1.7,0.3c-1.5,0-2.5-0.8-2.5-2.7v-7H462v-1.3h1.8v-2.8l1.5-1.1v4h2.6v1.3h-2.6v6.8
			c0,1.1,0.5,1.5,1.3,1.5c0.4,0,0.8-0.1,1.3-0.2L468,766.9z"/>
		<path d="M489.9,760.3v6.8h-1.4l-0.1-1.7c-0.9,1.2-2.2,1.8-3.9,1.8c-2.4,0-3.7-1.2-3.7-3.3c0-1.1,0.4-1.9,1.2-2.4
			c0.8-0.5,2-0.7,4.1-0.7h2.2v-0.5c0-1.9-1-2.9-2.8-2.9c-1.4,0-2.4,0.6-3.3,1.8l-1.1-0.9c1.2-1.5,2.6-2.2,4.4-2.2
			C488.3,756,489.9,757.6,489.9,760.3z M488.4,762.2V762h-2.1c-2,0-2.9,0.1-3.4,0.5c-0.4,0.3-0.6,0.8-0.6,1.4c0,1.2,1,2,2.7,2
			C487,765.9,488.4,764.5,488.4,762.2z"/>
		<path d="M504.4,760.4v6.6h-1.5v-6.3c0-2.3-0.7-3.4-2.4-3.4c-2,0-3.2,1.8-3.2,4.8v4.9h-1.5v-10.8h1.5v1.6c0.7-1.1,2-1.8,3.6-1.8
			C503.1,756,504.4,757.5,504.4,760.4z"/>
		<path d="M513,766.9l-4.6-10.7h1.7l3.7,8.9l3.3-8.9h1.7l-5.9,15.3h-1.6L513,766.9z"/>
		<path d="M532.8,757.4h-2.3v-1.3h2.3v-1.7c0-2.3,1.3-3,2.7-3c0.6,0,1.3,0.1,1.9,0.4l-0.5,1.2c-0.5-0.2-0.9-0.4-1.3-0.4
			c-0.9,0-1.4,0.6-1.4,1.6v1.8h3.1v1.3h-3.1v9.6h-1.5L532.8,757.4L532.8,757.4z"/>
		<path d="M550.5,762h-7.9c0,2.4,1.4,3.8,3.5,3.8c1.2,0,2.1-0.3,3.1-1.4l1.1,0.9c-1.3,1.3-2.5,1.8-4.2,1.8c-3.3,0-5-2.5-5-5.5
			c0-3.1,1.7-5.7,4.8-5.7c3.3,0,4.7,2.6,4.7,5.1C550.6,761.4,550.6,761.7,550.5,762z M542.6,760.7h6.6c0,0,0-0.2,0-0.4
			c-0.1-1.8-1.2-3.1-3.2-3.1C543.9,757.3,542.7,758.8,542.6,760.7z"/>
		<path d="M564,760.3v6.8h-1.4l-0.1-1.7c-0.9,1.2-2.2,1.8-3.9,1.8c-2.4,0-3.7-1.2-3.7-3.3c0-1.1,0.4-1.9,1.2-2.4s2-0.7,4.1-0.7h2.2
			v-0.5c0-1.9-1-2.9-2.8-2.9c-1.4,0-2.4,0.6-3.3,1.8l-1.1-0.9c1.2-1.5,2.6-2.2,4.4-2.2C562.4,756,564,757.6,564,760.3z M562.5,762.2
			V762h-2.1c-2,0-2.9,0.1-3.4,0.5c-0.4,0.3-0.6,0.8-0.6,1.4c0,1.2,1,2,2.7,2C561.1,765.9,562.5,764.5,562.5,762.2z"/>
		<path d="M576.4,756.5l-0.7,1.2c-0.5-0.2-1-0.3-1.4-0.3c-1.7,0-2.9,1.3-2.9,3.6v6.1h-1.5v-10.8h1.5v1.6c0.8-1.4,2.1-1.8,3.2-1.8
			C575.2,756,575.8,756.1,576.4,756.5z"/>
		<path d="M99.6,799.6c0-3.2,2.1-5.6,5.2-5.6s5.2,2.4,5.2,5.6c0,3.2-2.1,5.6-5.2,5.6S99.6,802.8,99.6,799.6z M108.5,799.6
			c0-2.5-1.4-4.2-3.7-4.2c-2.3,0-3.7,1.8-3.7,4.2c0,2.5,1.4,4.3,3.7,4.3C107.2,803.9,108.5,802,108.5,799.6z"/>
		<path d="M115.9,795.4h-2.3v-1.3h2.3v-1.7c0-2.3,1.3-3,2.7-3c0.6,0,1.3,0.1,1.9,0.4L120,791c-0.5-0.2-0.9-0.4-1.3-0.4
			c-0.9,0-1.4,0.6-1.4,1.6v1.8h3.1v1.3h-3.1v9.6h-1.4V795.4z"/>
		<path d="M134.5,795.4h-2.3v-1.3h2.3v-1.7c0-2.3,1.3-3,2.7-3c0.6,0,1.3,0.1,1.9,0.4l-0.5,1.2c-0.5-0.2-0.9-0.4-1.3-0.4
			c-0.9,0-1.4,0.6-1.4,1.6v1.8h3.1v1.3h-3.1v9.6h-1.5v-9.5H134.5z"/>
		<path d="M152,798.3v6.8h-1.4l-0.1-1.7c-0.9,1.2-2.2,1.8-3.9,1.8c-2.4,0-3.7-1.2-3.7-3.3c0-1.1,0.4-1.9,1.2-2.4s2-0.7,4.1-0.7h2.2
			v-0.5c0-1.9-1-2.9-2.8-2.9c-1.4,0-2.4,0.6-3.3,1.8l-1.1-0.9c1.2-1.5,2.6-2.2,4.4-2.2C150.4,794,152,795.6,152,798.3z M150.5,800.2
			V800h-2.1c-2,0-2.9,0.1-3.4,0.5c-0.4,0.3-0.6,0.8-0.6,1.4c0,1.2,1,2,2.7,2C149.2,803.9,150.5,802.5,150.5,800.2z"/>
		<path d="M157.1,799.6c0-2.9,1.6-5.6,4.9-5.6c1.9,0,3.5,1,4.4,3l-1.5,0.6c-0.5-1.4-1.6-2.2-2.9-2.2c-2.3,0-3.3,2.1-3.3,4.3
			s1,4.2,3.4,4.2c1.4,0,2.4-0.8,2.9-2.2l1.4,0.5c-0.7,2-2.3,3-4.3,3C158.9,805.2,157.1,802.6,157.1,799.6z"/>
		<path d="M171.3,789.7h1.8v2.2h-1.8V789.7z M171.4,794.2h1.5V805h-1.5V794.2z"/>
		<path d="M187.6,798.4v6.6h-1.5v-6.3c0-2.3-0.7-3.4-2.4-3.4c-2,0-3.2,1.8-3.2,4.8v4.9h-1.6v-10.8h1.5v1.6c0.7-1.1,2-1.8,3.6-1.8
			C186.4,794,187.6,795.5,187.6,798.4z"/>
		<path d="M201.9,806.7c0,2-1.9,3-4.6,3c-3,0-4.8-1.2-4.8-3.3c0-0.2,0-0.4,0-0.5l1.8-1.5c-0.8-0.4-1.4-1-1.4-2.1
			c0-0.9,0.4-1.5,1.2-2.1c-0.6-0.7-0.9-1.5-0.9-2.5c0-2.2,1.8-3.8,4.1-3.8c1.1,0,2,0.3,2.7,0.9l1.5-1.3l0.8,1l-1.5,1.2
			c0.4,0.6,0.6,1.3,0.6,2c0,2.2-1.8,3.7-4.1,3.7c-0.8,0-1.6-0.2-2.2-0.5c-0.4,0.2-0.7,0.6-0.7,1.1c0,1.1,1.4,1.4,2.9,1.6
			C199.4,804,201.9,804.3,201.9,806.7z M200.4,806.8c0-1.3-1.7-1.5-3.5-1.8c-0.5-0.1-1-0.2-1.5-0.3l-1.5,1.4c0,0.1,0,0.2,0,0.2
			c0,1.5,1.6,2,3.4,2C199.3,808.4,200.4,807.9,200.4,806.8z M194.6,797.8c0,1.4,1,2.5,2.6,2.5s2.6-1.1,2.6-2.5c0-1.5-1-2.5-2.6-2.5
			C195.7,795.3,194.6,796.3,194.6,797.8z"/>
		<path d="M215,799.6c0-2.9,1.6-5.6,4.9-5.6c1.9,0,3.5,1,4.4,3l-1.5,0.6c-0.5-1.4-1.6-2.2-2.9-2.2c-2.3,0-3.3,2.1-3.3,4.3
			s1,4.2,3.4,4.2c1.4,0,2.4-0.8,2.9-2.2l1.4,0.5c-0.7,2-2.3,3-4.3,3C216.7,805.2,215,802.6,215,799.6z"/>
		<path d="M228.4,799.6c0-3.2,2.1-5.6,5.2-5.6c3.1,0,5.2,2.4,5.2,5.6c0,3.2-2.1,5.6-5.2,5.6S228.4,802.8,228.4,799.6z M237.3,799.6
			c0-2.5-1.4-4.2-3.7-4.2s-3.7,1.8-3.7,4.2c0,2.5,1.4,4.3,3.7,4.3C236,803.9,237.3,802,237.3,799.6z"/>
		<path d="M252.8,798.4v6.6h-1.5v-6.3c0-2.3-0.7-3.4-2.4-3.4c-2,0-3.2,1.8-3.2,4.8v4.9h-1.5v-10.8h1.5v1.6c0.7-1.1,2-1.8,3.6-1.8
			C251.6,794,252.8,795.5,252.8,798.4z"/>
		<path d="M263.1,804.9c-0.6,0.2-1.1,0.3-1.7,0.3c-1.5,0-2.5-0.8-2.5-2.7v-7h-1.8v-1.3h1.8v-2.8l1.5-1.1v4h2.6v1.3h-2.6v6.8
			c0,1.1,0.5,1.5,1.3,1.5c0.4,0,0.8-0.1,1.3-0.2L263.1,804.9z"/>
		<path d="M274.6,794.5l-0.7,1.2c-0.5-0.2-1-0.3-1.4-0.3c-1.7,0-2.9,1.3-2.9,3.6v6.1h-1.5v-10.8h1.5v1.6c0.8-1.4,2.1-1.8,3.2-1.8
			C273.3,794,274,794.1,274.6,794.5z"/>
		<path d="M287.1,798.3v6.8h-1.4l-0.1-1.7c-0.9,1.2-2.2,1.8-3.9,1.8c-2.4,0-3.7-1.2-3.7-3.3c0-1.1,0.4-1.9,1.2-2.4
			c0.8-0.5,2-0.7,4.1-0.7h2.2v-0.5c0-1.9-1-2.9-2.8-2.9c-1.4,0-2.4,0.6-3.3,1.8l-1.1-0.9c1.2-1.5,2.6-2.2,4.4-2.2
			C285.5,794,287.1,795.6,287.1,798.3z M285.6,800.2V800h-2.1c-2,0-2.9,0.1-3.4,0.5c-0.4,0.3-0.6,0.8-0.6,1.4c0,1.2,1,2,2.7,2
			C284.3,803.9,285.6,802.5,285.6,800.2z"/>
		<path d="M302.1,789.7V805h-1.5v-1.5c-0.8,1-2,1.6-3.6,1.6c-3.2,0-4.8-2.4-4.8-5.6c0-3.4,1.8-5.6,4.8-5.6c1.5,0,2.8,0.6,3.6,1.7
			v-5.9H302.1z M300.8,799.6c0-2.6-1.3-4.3-3.5-4.3s-3.5,1.7-3.5,4.3c0,2.5,1.2,4.3,3.5,4.3C299.5,803.9,300.8,802,300.8,799.6z"/>
		<path d="M308,789.7h1.8v2.2H308V789.7z M308.2,794.2h1.5V805h-1.5V794.2z"/>
		<path d="M314.9,799.6c0-2.9,1.6-5.6,4.9-5.6c1.9,0,3.5,1,4.4,3l-1.5,0.6c-0.5-1.4-1.6-2.2-2.9-2.2c-2.3,0-3.3,2.1-3.3,4.3
			s1,4.2,3.4,4.2c1.4,0,2.4-0.8,2.9-2.2l1.4,0.5c-0.7,2-2.3,3-4.3,3C316.7,805.2,314.9,802.6,314.9,799.6z"/>
		<path d="M334,804.9c-0.6,0.2-1.1,0.3-1.7,0.3c-1.5,0-2.5-0.8-2.5-2.7v-7H328v-1.3h1.8v-2.8l1.5-1.1v4h2.6v1.3h-2.6v6.8
			c0,1.1,0.5,1.5,1.3,1.5c0.4,0,0.8-0.1,1.3-0.2L334,804.9z"/>
		<path d="M338.7,789.7h1.8v2.2h-1.8V789.7z M338.8,794.2h1.5V805h-1.5V794.2z"/>
		<path d="M345.6,799.6c0-3.2,2.1-5.6,5.2-5.6s5.2,2.4,5.2,5.6c0,3.2-2.1,5.6-5.2,5.6S345.6,802.8,345.6,799.6z M354.5,799.6
			c0-2.5-1.4-4.2-3.7-4.2c-2.3,0-3.7,1.8-3.7,4.2c0,2.5,1.4,4.3,3.7,4.3C353.1,803.9,354.5,802,354.5,799.6z"/>
		<path d="M369.9,798.4v6.6h-1.5v-6.3c0-2.3-0.7-3.4-2.4-3.4c-2,0-3.2,1.8-3.2,4.8v4.9h-1.5v-10.8h1.5v1.6c0.7-1.1,2-1.8,3.6-1.8
			C368.7,794,369.9,795.5,369.9,798.4z"/>
		<path d="M374.7,802.4l1.3-0.6c0.4,1.1,1.5,2.1,3.1,2.1c1.5,0,2.4-0.7,2.4-1.9c0-2.9-6.2-1.1-6.2-4.9c0-1.9,1.5-3.1,3.7-3.1
			c1.7,0,3.1,0.7,3.9,2.3l-1.2,0.7c-0.5-1-1.4-1.6-2.7-1.6c-1.3,0-2.2,0.6-2.2,1.5c0,2.6,6.3,0.9,6.3,5.1c0,2.2-1.8,3.3-3.9,3.3
			C377,805.2,375.3,804.1,374.7,802.4z"/>
		<path d="M389,802.6h2v2.4h-2V802.6z"/>
	</g>
</g>
</svg>
