<?xml version="1.0" encoding="utf-8"?>
<!-- Generator: Adobe Illustrator 26.5.0, SVG Export Plug-In . SVG Version: 6.00 Build 0)  -->
<svg version="1.1" id="Livello_1" xmlns="http://www.w3.org/2000/svg" xmlns:xlink="http://www.w3.org/1999/xlink" x="0px" y="0px"
	 viewBox="0 0 750 855" style="enable-background:new 0 0 750 855;" xml:space="preserve">
<style type="text/css">
	.st0{fill:#4DC4A4;}
	.st1{opacity:0.6;fill:none;stroke:#000000;stroke-width:0.25;stroke-miterlimit:10;enable-background:new    ;}
</style>
<g>
	<g>
		<path d="M366.8,186.4h-3.5v-3h4.2l0.7-3.5h-3.6v-3.1h4.3l1.4-5.9h3.3l-1.4,6h3.4l1.3-6h3.3l-1.4,6h3.5v3h-4.2l-0.8,3.5h3.7v3h-4.3
			l-1.4,6.3H372l1.4-6.3H370l-1.3,6.3h-3.3L366.8,186.4z M374.1,183.4l0.7-3.5h-3.4l-0.7,3.5H374.1z"/>
		<path d="M385.7,170.9h7.9c4.4,0,7,2.1,7,5.5c0,2-0.8,3.6-2.3,4.5c2.3,0.9,3.4,2.7,3.4,5.3c0,4-2.7,6.5-7.2,6.5h-8.9v-21.8H385.7z
			 M393.6,179.3c1.7,0,2.6-0.7,2.6-2.2c0-1.4-1-2.2-2.6-2.2h-3.4v4.4H393.6z M394.3,188.7c2.1,0,3.1-1,3.1-2.7
			c0-2.1-1.6-2.6-3.1-2.6h-4.2v5.2h4.2V188.7z"/>
		<path d="M405.2,170.9h14.6v4h-10.2v4.5h9.5v4.1h-9.5v5.2h10.2v4.1h-14.6V170.9z"/>
		<path d="M429.4,184.2l-8.3-13.2h5.2l5.2,9l5.3-9h5.2l-8.2,13.2v8.6h-4.4L429.4,184.2L429.4,184.2z"/>
		<path d="M441.1,181.8c0-6.9,4.3-11.4,10.5-11.4c6.3,0,10.6,4.6,10.6,11.4c0,6.8-4.3,11.4-10.6,11.4
			C445.4,193.3,441.1,188.7,441.1,181.8z M457.8,181.8c0-4.5-2.4-7.2-6.1-7.2s-6.1,2.7-6.1,7.2s2.4,7.2,6.1,7.2
			S457.8,186.3,457.8,181.8z"/>
		<path d="M483.3,170.9v21.8h-4.5l-8.7-14.2v14.2h-4.4v-21.8h4.5l8.7,14.1v-14.1H483.3z"/>
		<path d="M488.3,170.9h6.4c7.3,0,11.4,4,11.4,11.1c0,6.9-4,10.7-11.4,10.7h-6.4V170.9z M494.2,188.7c5,0,7.4-1.7,7.4-6.8
			c0-5-2.4-6.8-7.1-6.8h-1.9v13.7L494.2,188.7L494.2,188.7z"/>
		<path d="M364.8,203.4h7.9c4.4,0,7,2.1,7,5.5c0,2-0.8,3.6-2.3,4.5c2.3,0.9,3.4,2.7,3.4,5.3c0,4-2.7,6.5-7.2,6.5h-8.9v-21.8H364.8z
			 M372.7,211.8c1.7,0,2.6-0.7,2.6-2.2c0-1.4-1-2.2-2.6-2.2h-3.4v4.4H372.7z M373.4,221.2c2.1,0,3.1-1,3.1-2.7
			c0-2.1-1.6-2.6-3.1-2.6h-4.2v5.2h4.2V221.2z"/>
		<path d="M382.8,214.3c0-6.9,4.3-11.4,10.5-11.4c6.3,0,10.6,4.6,10.6,11.4c0,6.8-4.3,11.4-10.6,11.4
			C387,225.8,382.8,221.2,382.8,214.3z M399.4,214.3c0-4.5-2.4-7.2-6.1-7.2s-6.1,2.7-6.1,7.2s2.4,7.2,6.1,7.2
			C397.1,221.5,399.4,218.7,399.4,214.3z"/>
		<path d="M406.8,217.3v-13.9h4.4v13.4c0,3.3,0.9,4.8,4.1,4.8s4.1-1.4,4.1-4.7v-13.4h4.4v13.8c0,5.7-2.9,8.6-8.5,8.6
			C409.7,225.8,406.8,223,406.8,217.3z"/>
		<path d="M446,203.4v21.8h-4.5l-8.7-14.2v14.2h-4.4v-21.8h4.5l8.7,14.1v-14.1H446z"/>
		<path d="M451,203.4h6.4c7.3,0,11.4,4,11.4,11.1c0,6.9-4,10.7-11.4,10.7H451V203.4z M457,221.2c5,0,7.4-1.7,7.4-6.8
			c0-5-2.4-6.8-7.1-6.8h-1.9v13.7L457,221.2L457,221.2z"/>
		<path d="M483.2,221.1h-8.4l-1.5,4.1h-4.8l8.9-21.8h3.3l8.9,21.8h-4.8L483.2,221.1z M481.7,217.1L479,210l-2.7,7.1H481.7z"/>
		<path d="M503.6,225.2l-5.1-8.9h-1.3h-0.9v8.9h-4.4v-21.8h7.4c5.3,0,7.5,2.5,7.5,6.3c0,3.1-1.4,5.1-3.9,6l5.8,9.4h-5.1V225.2z
			 M498.8,212.3c2,0,3.5-0.4,3.5-2.5s-1.5-2.4-3.5-2.4h-2.6v4.8L498.8,212.3L498.8,212.3z"/>
		<path d="M511.2,203.4h4.4v21.8h-4.4L511.2,203.4L511.2,203.4z"/>
		<path d="M520.6,203.4h14.6v4H525v4.5h9.5v4.1H525v5.2h10.2v4.1h-14.6L520.6,203.4L520.6,203.4z"/>
		<path d="M537.3,218.9l4.4-1.1c0.3,2.6,1.9,3.9,4.3,3.9c1.9,0,3.3-0.9,3.3-2.7c0-1.3-1.1-2.1-4.1-3.3c-4.6-1.8-6.3-3.5-6.3-6.8
			c0-3.6,2.8-6.1,6.9-6.1c3,0,5.4,1.4,6.8,4.1l-3.7,2.3c-0.7-1.6-1.9-2.5-3.2-2.5s-2.4,0.9-2.4,2.1c0,1.3,0.9,2,4.2,3.3
			c4.7,1.8,6.2,3.4,6.2,6.5c0,4.2-3.3,7-7.7,7C541.4,225.7,537.9,223,537.3,218.9z"/>
	</g>
	<path d="M500.4,240.5c-0.6,14.9-1.1,29.7-1.7,44.6c-0.5,14.6-1.1,29.2-1.8,43.8c-0.2,4.2-0.4,8.3-0.7,12.5c0,0.5-0.1,1-0.2,1.5
		c0,0.1-0.1,0.3-0.1,0.4c0,0.2,0,0.2,0,0.2c-0.1-0.2,0.7-0.3-0.1-0.2c-3.5,0.3-7.1,0.2-10.6,0.2c-7.2,0-14.5,0-21.7-0.1
		c-10-0.1-20.1-0.2-30.1-0.3c-11.9-0.1-23.9-0.3-35.8-0.5c-12.9-0.2-25.8-0.4-38.7-0.6c-13-0.2-26-0.5-39-0.7
		c-12.2-0.3-24.3-0.5-36.5-0.8c-10.4-0.3-20.9-0.6-31.3-0.9c-7.8-0.3-15.6-0.5-23.4-0.9c-2.6-0.1-5.2-0.3-7.8-0.5
		c-2-0.1-4.5-0.1-6.2-0.8c-2.2-0.9-1.8-4.3-1.9-6.4c-0.1-1.8-0.1-3.6-0.2-5.3c-0.1-4.3-0.2-8.7-0.2-13.1c-0.1-11.5-0.1-23-0.1-34.4
		c0-14,0.1-28,0.3-42c0.1-15.1,0.3-30.3,0.5-45.4c0.2-14.9,0.4-29.8,0.7-44.6c0.2-13.2,0.5-26.4,0.8-39.6
		c0.2-10.1,0.5-20.3,0.8-30.4c0.1-3.4,0.2-6.8,0.3-10.1c-0.1,0.2-0.3,0.4-0.4,0.6c2-0.6,4.8-0.4,7.1-0.4c5.2-0.1,10.3-0.1,15.5-0.1
		c16.7,0.1,33.3,0.4,50,0.7c22.1,0.4,44.2,0.7,66.2,1c23.4,0.3,46.8,0.5,70.2,0.6c21.1,0,42.2-0.1,63.2-0.7c2.2-0.1,4.4-0.1,6.6-0.2
		c-0.2-0.2-0.4-0.4-0.6-0.6c1,21.1,2,42.1,3,63.2c0.3,5.9,0.6,11.9,0.9,17.8c0.3-0.1,0.7-0.3,1-0.4c-2.2-2-4.9-3.5-7.3-5.1
		c-0.3-0.2-0.7-0.1-0.8,0.2c-1.3,2.6-2.5,5.2-3.5,7.9c0.4,0,0.7-0.1,1.1-0.1c-1.7-3.1-3.4-6.2-5.3-9.2c-0.6-0.9-1.2-1.7-2-0.5
		c-1,1.4-1.9,3.1-2.7,4.6c0.4,0.1,0.8,0.2,1.1,0.3c0.6-16.4,0-32.8-0.5-49.1c-0.1-3.1-0.2-6.2-0.3-9.3c0-0.3-0.3-0.6-0.6-0.6
		c-9.5,0.3-19.1,0.2-28.6,0.2c-16.8,0-33.6-0.1-50.4-0.1c-19.8-0.1-39.6-0.2-59.4-0.3c-18.6-0.1-37.1-0.2-55.7-0.3
		c-12.9-0.1-25.8-0.1-38.6-0.2c-1,0-2,0-3,0c-0.4,0-0.6,0.3-0.6,0.6c-1.4,11.1-1.7,22.4-2.1,33.5c-0.6,16.7-0.9,33.3-1.1,50
		c-0.2,18.6-0.4,37.2-0.5,55.7c-0.1,17.3-0.2,34.6-0.3,51.8c-0.1,12.4-0.1,24.8-0.4,37.2c0,1-0.1,2-0.1,3c0,0.3,0.3,0.6,0.6,0.6
		c8.4,0.5,16.7,0.8,25.1,1.1c11.1,0.3,22.2,0.6,33.3,0.8c12.7,0.2,25.3,0.4,38,0.5c13.1,0.1,26.1,0.3,39.2,0.3
		c12.3,0.1,24.6,0.1,36.9,0.1c10.4,0,20.8,0,31.2,0c7.3,0,14.6-0.1,21.9-0.2c2.1,0,4.3-0.1,6.4-0.1c0.9,0,2.1,0.1,2.9-0.2
		c1.5-0.5,1.3-4.1,1.4-5.3c0.4-5.2,0.5-10.4,0.5-15.6c0.2-14.2,0-28.3-0.1-42.5c0-3,0-6,0-9c0-0.6-0.9-0.9-1.1-0.3
		c0,0,0,0.1-0.1,0.1c-0.1,0.3-0.1,0.7,0.2,0.8c2.6,1.5,4,4.9,5.8,7.2c0.3,0.4,0.9,0.1,1-0.3c1.3-4.6,2.5-9.3,3.2-14.1
		c-0.4,0-0.7,0.1-1.1,0.1c2.1,3.3,3,7.2,5.2,10.5c0.2,0.3,0.9,0.4,1.1,0c1.2-2.6,2.5-5.2,3.7-7.8c-0.4,0-0.7,0-1.1,0
		c1.4,2.3,2.2,5,3.8,7.2c0.3,0.4,0.8,0.4,1.1,0c2.2-3.1,4-6.6,5.4-10.1c0.3-0.7-0.9-1-1.2-0.3c-1.4,3.4-3.2,6.8-5.3,9.8
		c0.4,0,0.7,0,1.1,0c-1.6-2.2-2.4-4.9-3.8-7.2c-0.2-0.4-0.9-0.4-1.1,0c-1.2,2.6-2.5,5.2-3.7,7.8c0.4,0,0.7,0,1.1,0
		c-2.1-3.3-3-7.2-5.2-10.5c-0.3-0.4-1-0.4-1.1,0.1c-0.7,4.8-2,9.5-3.2,14.1c0.3-0.1,0.7-0.2,1-0.3c-1.9-2.4-3.3-5.8-6.1-7.4
		c0.1,0.3,0.1,0.6,0.2,0.8c0,0,0-0.1,0.1-0.1c-0.4-0.1-0.8-0.2-1.1-0.3c0,13.7,0.2,27.5,0.2,41.2c0,6.3,0,12.5-0.2,18.8
		c-0.1,2.3-0.2,4.5-0.3,6.8c-0.1,1.3-0.1,2.7-0.5,3.9c-0.1,0.5-0.3,0.4,0,0.3c-0.2,0,0.1,0-0.1,0c-0.4,0-0.8,0.1-1.2,0.1
		c-1.7,0.1-3.5,0.1-5.2,0.1c-6.6,0.1-13.1,0.1-19.7,0.2c-9.8,0-19.6,0.1-29.5,0c-11.9,0-23.8,0-35.8-0.1
		c-12.8-0.1-25.7-0.2-38.5-0.3c-12.7-0.1-25.5-0.3-38.2-0.5c-11.4-0.2-22.8-0.4-34.2-0.7c-9.1-0.2-18.1-0.5-27.1-1
		c-1.7-0.1-3.4-0.2-5.1-0.3c0.2,0.2,0.4,0.4,0.6,0.6c0.4-11.6,0.4-23.1,0.5-34.7c0.1-16.9,0.2-33.7,0.3-50.6
		c0.1-18.6,0.2-37.2,0.4-55.8c0.2-17.1,0.5-34.2,1-51.3c0.4-12,0.7-24.1,2-36.1c0.1-0.9,0.2-1.9,0.3-2.8c-0.2,0.2-0.4,0.4-0.6,0.6
		c12,0,24,0.1,35.9,0.1c18.1,0.1,36.1,0.2,54.2,0.3c19.9,0.1,39.8,0.2,59.6,0.3c17.4,0.1,34.9,0.1,52.3,0.2
		c10.6,0,21.2,0.1,31.8-0.2c0.6,0,1.3,0,1.9,0c-0.2-0.2-0.4-0.4-0.6-0.6c0.3,14.6,1.1,29.2,1.1,43.8c0,4.9-0.1,9.7-0.3,14.6
		c0,0.6,0.8,0.8,1.1,0.3c0.7-1.3,1.5-2.6,2.3-3.9c0.1-0.1,0.6-0.8,0.6-0.9c-0.1-0.2-0.6-0.2-0.7,0l0.1,0.2c0.1,0.5,0.8,1.2,1,1.7
		c1.6,2.6,3.1,5.3,4.6,8c0.3,0.5,0.9,0.3,1.1-0.1c1-2.6,2.1-5.1,3.4-7.6c-0.3,0.1-0.6,0.1-0.8,0.2c2.4,1.6,5,3,7.1,4.9
		c0.4,0.3,1.1,0.1,1-0.4c-1-21.1-2-42.1-3-63.2c-0.3-5.9-0.6-11.9-0.9-17.8c0-0.3-0.3-0.6-0.6-0.6c-20.5,0.7-41,0.9-61.6,0.9
		c-23.4,0-46.9-0.2-70.3-0.5c-22.4-0.3-44.9-0.7-67.3-1c-17.6-0.3-35.1-0.6-52.7-0.7c-5.7,0-11.4-0.1-17.1,0c-3,0-6.2,0-9.2,0.4
		c-0.3,0-0.7,0.1-1,0.2s-0.4,0.3-0.4,0.6c-0.3,8.2-0.5,16.5-0.7,24.7c-0.3,12-0.6,24-0.8,36.1c-0.3,14.4-0.5,28.9-0.8,43.3
		c-0.2,15.3-0.5,30.6-0.6,45.9c-0.2,14.8-0.3,29.6-0.4,44.4c-0.1,12.9-0.1,25.8-0.1,38.7c0,9.5,0.1,19,0.4,28.4
		c0,1.6,0.1,3.3,0.2,4.9c0.1,2.5,0.2,5.4,3.1,6.2c1.9,0.5,4.1,0.6,6.1,0.7c6.2,0.5,12.3,0.7,18.5,1c9.3,0.4,18.7,0.7,28,0.9
		c11.5,0.3,23.1,0.6,34.6,0.9c12.9,0.3,25.7,0.6,38.6,0.8c13.2,0.2,26.3,0.5,39.5,0.7c12.6,0.2,25.2,0.4,37.7,0.5
		c11.1,0.1,22.2,0.3,33.3,0.4c8.6,0.1,17.3,0.1,25.9,0.2c5.3,0,10.5,0,15.8-0.1c1.1,0,2.2,0,3.2-0.1c1.3-0.2,1.1-1.8,1.2-2.9
		c1-10.8,1.2-21.7,1.6-32.6c0.6-16.1,1.2-32.2,1.8-48.4c0.3-6.7,0.5-13.4,0.8-20C501.7,239.7,500.4,239.7,500.4,240.5L500.4,240.5z"
		/>
	<g>
		<path class="st0" d="M505.5,152.4c0.7,3.2,1.5,6.4,2.2,9.6c0.1,0.2,0.1,0.5,0.3,0.6c0.2,0.2,0.5,0.2,0.7,0.1c1-0.1,2-0.3,2.9-0.6
			c0.2-0.1,0.4-0.1,0.5-0.3s0-0.5-0.1-0.7C510.1,158.1,506.9,153.6,505.5,152.4"/>
		<path d="M504.9,152.5c0.5,2.3,1,4.6,1.6,6.9c0.1,0.6,0.3,1.1,0.4,1.7c0.1,0.5,0.2,1.2,0.4,1.6c0.5,0.9,1.7,0.7,2.5,0.5
			c0.5-0.1,1-0.2,1.5-0.3s1-0.3,1.3-0.7c0.4-0.8-0.3-1.6-0.7-2.3c-0.9-1.5-1.9-3-3-4.4c-0.9-1.2-1.8-2.6-3-3.6
			c-0.6-0.5-1.5,0.3-0.9,0.9c0.8,0.7,1.5,1.6,2.1,2.4c0.9,1.2,1.7,2.4,2.6,3.6c0.4,0.6,0.8,1.2,1.2,1.9c0.2,0.3,0.3,0.6,0.5,0.8
			c0.1,0.1,0.2,0,0.1,0s-0.2,0.1-0.2,0.1c-0.3,0.1-0.5,0.2-0.8,0.2c-0.4,0.1-0.9,0.2-1.3,0.2c-0.2,0-0.4,0.1-0.6,0
			c-0.2,0-0.2-0.1-0.3-0.3c-0.2-1-0.4-2-0.7-2.9c-0.5-2.2-1-4.5-1.5-6.7C505.9,151.4,504.7,151.8,504.9,152.5L504.9,152.5z"/>
	</g>
	<g>
		<path class="st0" d="M476.1,149c-0.3,3-0.9,5.7-1.9,8.6c-1.4-0.9-2.7-2.1-3.7-3.4C472.4,152.5,474.2,150.7,476.1,149"/>
		<path d="M475.5,149c-0.3,2.9-0.9,5.7-1.8,8.4c0.3-0.1,0.6-0.2,0.9-0.4c-1.4-0.9-2.6-2-3.6-3.3c0,0.3,0,0.6,0,0.9
			c1.9-1.7,3.7-3.5,5.6-5.2c0.6-0.5-0.3-1.4-0.9-0.9c-1.9,1.7-3.7,3.5-5.6,5.2c-0.3,0.2-0.2,0.6,0,0.9c1.1,1.4,2.4,2.5,3.9,3.5
			c0.3,0.2,0.8,0,0.9-0.4c0.9-2.9,1.6-5.8,1.9-8.8C476.8,148.2,475.6,148.2,475.5,149L475.5,149z"/>
	</g>
	<g>
		<path class="st0" d="M491.9,149c0,0,1.4-0.3,2.1,0.8c2,3.2,4,10,2.6,13.5c-1.8-1.8-2.8-4.3-3.4-6.8S492.3,151.6,491.9,149"/>
		<path d="M492.1,149.6L492.1,149.6c-0.1,0,0.2,0,0.2,0c0.2,0,0.4,0,0.6,0.1c0.5,0.2,0.8,0.9,1,1.4c0.6,1.3,1.1,2.6,1.5,4
			c0.8,2.5,1.4,5.6,0.5,8.2c0.3-0.1,0.7-0.2,1-0.3c-3.6-3.7-3.7-9.3-4.5-14.1c-0.1-0.8-1.3-0.4-1.2,0.3c0.8,5.1,1,10.7,4.8,14.6
			c0.3,0.3,0.9,0.1,1-0.3c0.8-2.3,0.5-4.9-0.1-7.2c-0.3-1.3-0.7-2.6-1.2-3.8c-0.4-1-0.9-2.2-1.5-3.1c-0.6-0.8-1.7-1.2-2.7-1
			C491,148.6,491.3,149.8,492.1,149.6L492.1,149.6z"/>
	</g>
	<g>
		<path class="st0" d="M476.7,241.6c0.1-1.6-1-4.1-1.3-5.7c-0.1-0.3-0.1-0.6-0.3-0.8c-0.3-0.3-4.2-0.3-5.6,0.4
			C471.1,238.1,473.7,240.3,476.7,241.6"/>
		<path d="M477.3,241.6c0-1.1-0.3-2.1-0.6-3.2c-0.2-0.6-0.3-1.1-0.5-1.7c-0.1-0.5-0.2-1-0.4-1.5c-0.1-0.4-0.4-0.8-0.8-0.9
			c-0.3-0.1-0.5-0.1-0.8-0.1c-0.8-0.1-1.6,0-2.4,0c-0.9,0.1-1.9,0.2-2.7,0.6c-0.3,0.1-0.4,0.6-0.2,0.8c1.8,2.9,4.5,5.2,7.6,6.5
			c0.3,0.1,0.7-0.1,0.7-0.4c0.1-0.4-0.1-0.6-0.4-0.7c-2.8-1.2-5.3-3.3-6.9-5.9c-0.1,0.3-0.1,0.6-0.2,0.8c0.1-0.1,0.1-0.1,0.3-0.1
			c0.2-0.1,0.3-0.1,0.5-0.1c0.3-0.1,0.7-0.1,1-0.2c0.7-0.1,1.5-0.1,2.3-0.1c0.1,0,0.3,0,0.4,0s0.1,0,0.2,0s-0.1,0,0.1,0
			c0.1,0,0.2,0,0.2,0.1c0.1,0-0.1-0.1-0.1-0.1c-0.1,0,0-0.1,0,0c0,0,0.1,0.1,0.1,0.2c0.1,0.4,0.2,0.9,0.3,1.3c0.1,0.5,0.3,1,0.4,1.4
			c0.3,1,0.7,2.1,0.6,3.2C476,242.3,477.2,242.3,477.3,241.6L477.3,241.6z"/>
	</g>
	<g>
		<path class="st0" d="M507,246.2c0,0,5-4.9,7.2-7.4c0.8-0.9,1.7-1.9,2.1-3s-2.9-2.7-3.2-2.3C510.6,237.5,508.6,241.7,507,246.2"/>
		<path d="M507.4,246.6c2.5-2.5,4.9-4.9,7.3-7.5c0.5-0.5,1-1.1,1.4-1.7c0.3-0.5,0.8-1.2,0.8-1.8c0-0.9-0.8-1.6-1.5-2
			c-0.6-0.4-1.4-0.9-2.2-0.8c-0.6,0-0.8,0.5-1,0.9c-0.4,0.7-0.8,1.5-1.2,2.2c-1.8,3.2-3.3,6.6-4.5,10.1c-0.3,0.7,0.9,1.1,1.2,0.3
			c1-2.8,2.2-5.5,3.5-8.1c0.7-1.3,1.4-2.7,2.2-4c0-0.1,0.1-0.1,0.1-0.2c0.1-0.1,0.1-0.2,0-0.1l-0.2,0.1c0,0,0.1,0,0.3,0.1
			c0.3,0.1,0.7,0.3,1,0.4c0.3,0.2,0.6,0.4,0.9,0.6c0.1,0.1,0.2,0.2,0.3,0.3c0,0.1,0,0.1,0,0.1c0-0.1-0.1,0.1-0.1,0.2
			c-0.4,1.1-1.3,2-2.1,2.9c-1.3,1.4-2.7,2.8-4,4.2c-0.9,1-1.9,1.9-2.8,2.9C506,246.3,506.8,247.1,507.4,246.6L507.4,246.6z"/>
	</g>
	<path d="M478.2,259.8c0.5,16.8,0.8,33.6,0,50.4c-0.2,4.9-0.6,9.8-1,14.6c0.2-0.2,0.4-0.4,0.6-0.6c-9.9-0.2-19.7-0.2-29.6-0.2
		c-14.3,0-28.7,0-43,0c-16.6,0-33.1,0.1-49.7,0.1c-16.4,0-32.8,0.1-49.2,0c-13.8,0-27.7,0-41.5-0.1c-9-0.1-18-0.1-27-0.5
		c-1.2,0-2.4-0.1-3.6-0.2c-0.7,0-1.6-0.1-2-0.2c-0.1,0-0.2,0-0.3-0.1c-0.2,0,0-0.1-0.1,0c0.1-0.1,0.1,0.5,0.2,0.4c0.1-0.3,0-1,0-1.2
		c0-5.6,0-11.1,0.1-16.7c0.1-10.6,0.2-21.1,0.3-31.7c0.2-13.6,0.3-27.2,0.5-40.8c0.2-14.9,0.4-29.8,0.6-44.7
		c0.2-14.4,0.4-28.7,0.7-43.1c0.2-12,0.4-23.9,0.7-35.9c0.2-7.8,0.3-15.6,0.6-23.4c0.1-1.7,0.1-3.5,0.2-5.2c0-0.1,0-0.2,0-0.3
		c0-0.2,0-0.1,0-0.1v-0.1c0.1,0-0.4,0.4-0.4,0.4s0.1,0,0.3,0c0.3,0,0.6,0,0.9,0c7.3-0.2,14.7,0.1,22,0.2c14,0.2,28,0.5,42.1,0.8
		c17.7,0.3,35.5,0.7,53.2,1c18.8,0.3,37.5,0.6,56.3,0.8c16.9,0.2,33.8,0.3,50.8,0.2c6.7,0,13.3-0.1,20-0.2c-0.2-0.2-0.4-0.4-0.6-0.6
		c0.4,17.9,1.4,35.8,1.8,53.7c0,0.8,1.2,0.8,1.2,0c-0.4-17.9-1.4-35.8-1.8-53.7c0-0.3-0.3-0.6-0.6-0.6c-15.2,0.3-30.3,0.3-45.5,0.2
		c-18.4-0.1-36.7-0.3-55.1-0.6c-18.7-0.3-37.4-0.6-56.1-1c-16.2-0.3-32.4-0.6-48.6-0.9c-10.7-0.2-21.4-0.4-32.2-0.5
		c-2.5,0-4.9-0.1-7.4,0c-1.1,0-1.6,0.2-1.7,1.4c-0.5,5-0.4,10-0.5,15c-0.3,10.2-0.5,20.4-0.6,30.6c-0.3,13.5-0.5,26.9-0.7,40.4
		c-0.2,15-0.5,30-0.7,45c-0.2,14.5-0.4,29-0.6,43.5c-0.2,12.3-0.3,24.6-0.4,37c-0.1,8.2-0.2,16.3-0.2,24.5c0,2,0,3.9,0,5.9
		c0,0.9-0.1,1.6,1,1.8c1.8,0.4,3.8,0.4,5.7,0.4c3.7,0.2,7.4,0.2,11.1,0.3c11.7,0.2,23.4,0.3,35.1,0.3c15.5,0.1,31.1,0.1,46.6,0
		c16.8,0,33.7-0.1,50.5-0.1c15.9,0,31.8-0.1,47.7-0.1c12.4,0,24.8,0,37.1,0.1c4.1,0,8.1,0.1,12.2,0.1c0.3,0,0.6-0.3,0.6-0.6
		c1.4-16.8,1.7-33.6,1.3-50.4c-0.1-4.9-0.2-9.8-0.4-14.7C479.4,259,478.2,259,478.2,259.8L478.2,259.8z"/>
	<path d="M494.9,256.9c-1.2,21.2-2.2,42.4-3.6,63.5c-0.4,5.8-0.8,11.7-1.3,17.5c0.2-0.2,0.4-0.4,0.6-0.6c-5.4,0-10.8,0-16.2-0.1
		c-7.4-0.1-14.8-0.1-22.2-0.2c-8.9-0.1-17.7-0.2-26.6-0.4c-9.9-0.1-19.8-0.3-29.7-0.5c-10.5-0.2-21-0.4-31.4-0.5
		c-10.5-0.2-21-0.4-31.5-0.6c-10.1-0.2-20.2-0.4-30.4-0.6c-9.2-0.2-18.4-0.4-27.5-0.6c-7.8-0.2-15.6-0.4-23.4-0.6
		c-6-0.2-12-0.3-18-0.5c-3.6-0.1-7.3-0.2-10.9-0.4c-0.8,0-1.6-0.2-2.4-0.2c0.3,0-0.1,0-0.1,0c0-0.1,0.2,0.2,0.2,0.2
		c0.1,0,0,0.2,0-0.1c0-0.2,0-0.1,0-0.3c-0.4-3.3-0.4-6.7-0.4-10.1c-0.2-6.7-0.3-13.3-0.4-20c-0.1-9.4-0.2-18.7-0.2-28.1
		c-0.1-11.3-0.1-22.6-0.1-33.9c0-12.6,0.1-25.1,0.1-37.7c0.1-13.2,0.2-26.5,0.4-39.7c0.2-13.1,0.4-26.2,0.7-39.3
		c0.3-12.4,0.6-24.7,1-37.1c0.1-2.8,0.2-5.6,0.3-8.4c0.1-1.4,0.1-2.8,0.2-4.2c0-0.8,0.5-2.6-0.1-3.3c-0.5-0.6-1.4,0.3-0.9,0.9
		c0.4,0.5,2.1,0.3,2.7,0.3c1.9,0.1,3.8,0.1,5.7,0.1c6.7,0.1,13.5,0.2,20.2,0.3c9.8,0.1,19.6,0.3,29.4,0.4
		c11.9,0.1,23.8,0.3,35.7,0.4c12.9,0.1,25.9,0.2,38.8,0.3c13,0.1,26,0.2,39,0.2c12.1,0.1,24.1,0.1,36.2,0.1c10.1,0,20.2,0,30.3-0.1
		c7.2-0.1,14.3-0.1,21.5-0.3c2.2-0.1,4.3-0.1,6.5-0.3c1-0.1,2.3,0,3.3-0.3c0.1,0,0.3-0.1,0.4-0.1c0.2-0.2,0.4-0.7,0.3-0.5
		c-0.4,0-0.8,0-1.2,0c-0.1-0.3,0,0.2,0,0.3c0,0.4,0,0.9,0,1.3c0,1.5,0.1,3.1,0.1,4.6c0.1,5.1,0.3,10.2,0.4,15.3
		c0.3,11.5,0.6,22.9,0.8,34.4c0.1,2.6,0.1,5.3,0.2,7.9c0,0.8,1.2,0.8,1.2,0c-0.2-7.3-0.4-14.5-0.5-21.8c-0.3-11.5-0.6-23.1-0.9-34.6
		c0-1.9-0.1-3.8-0.1-5.6c0-0.7,0.1-1.6-0.1-2.3c-0.2-0.5-1.1-0.6-1.2,0c-0.1,0.5,0.1-0.4,0.2-0.2c0-0.1,0.2,0,0,0
		c-0.1,0-0.2,0-0.2,0c-0.4,0.1-0.6,0.1-1.2,0.1c-1.8,0.2-3.5,0.2-5.3,0.3c-6.4,0.2-12.8,0.3-19.3,0.4c-9.5,0.1-19,0.1-28.5,0.1
		c-11.7,0-23.3,0-35-0.1c-12.7-0.1-25.5-0.1-38.2-0.2c-12.9-0.1-25.8-0.2-38.7-0.3c-12.1-0.1-24.3-0.2-36.4-0.4
		c-10.3-0.1-20.6-0.2-30.9-0.4c-7.5-0.1-15.1-0.2-22.6-0.3c-3.8-0.1-7.6-0.1-11.4-0.3c-0.1,0-0.3,0-0.5,0c-0.4,0-0.2-0.2,0.1,0.1
		c-0.5-0.6-1.4,0.3-0.9,0.9c-0.2-0.2-0.2,1.3-0.2,1.6c0,0.8-0.1,1.5-0.1,2.3c-0.1,1.4-0.1,2.8-0.2,4.2c-0.1,2.9-0.2,5.9-0.3,8.8
		c-0.2,6.1-0.4,12.2-0.5,18.3c-0.3,12.9-0.6,25.8-0.8,38.8c-0.2,13.3-0.4,26.6-0.5,39.9c-0.1,13-0.2,26.1-0.2,39.1
		c0,12,0,23.9,0,35.9c0,10.3,0.1,20.6,0.2,30.8c0.1,7.9,0.2,15.8,0.3,23.7c0.1,4.8,0.2,9.7,0.4,14.5c0.1,1.1-0.3,3.9,1.1,4.3
		c2.1,0.5,4.7,0.3,6.9,0.4c4.8,0.2,9.7,0.3,14.5,0.5c6.9,0.2,13.9,0.4,20.8,0.6c8.6,0.2,17.2,0.4,25.7,0.6
		c9.7,0.2,19.4,0.4,29.2,0.6c10.4,0.2,20.8,0.4,31.2,0.6c10.6,0.2,21.1,0.4,31.7,0.6c10.3,0.2,20.6,0.4,30.9,0.5
		c9.5,0.1,19,0.3,28.4,0.4c8.2,0.1,16.4,0.2,24.6,0.3c6.5,0.1,12.9,0.1,19.4,0.2c2.4,0,4.7,0,7.1,0c0.3,0,0.6-0.3,0.6-0.6
		c1.8-20.9,2.8-41.8,4-62.7c0.3-6.1,0.7-12.2,1-18.3C496.1,256.1,494.9,256.1,494.9,256.9L494.9,256.9z"/>
	<g>
		<path class="st0" d="M490.2,240.4c0.7-1.3,1.3-2.9,2.1-4.2c0.1-0.2,0.3-0.5,0.3-0.8s-0.2-0.6-0.4-0.9c-1.2-1.6-2.6-3.1-4.2-4.3
			C487.8,233.8,488.6,237.3,490.2,240.4"/>
		<path d="M490.7,240.7c0.6-1,1-2,1.5-3.1c0.4-0.9,1.3-1.9,0.7-3c-0.2-0.5-0.6-0.9-1-1.3c-0.4-0.4-0.7-0.9-1.1-1.3
			c-0.8-0.9-1.7-1.6-2.6-2.3c-0.4-0.3-0.9,0.1-0.9,0.5c-0.1,3.6,0.7,7.2,2.4,10.5c0.4,0.7,1.4,0.1,1.1-0.6c-1.5-3-2.3-6.4-2.2-9.8
			c-0.3,0.2-0.6,0.4-0.9,0.5c1.5,1.2,3,2.6,4.1,4.2c0.1,0.2,0.2,0.4,0.2,0.6c-0.1,0.2-0.2,0.4-0.3,0.6c-0.2,0.4-0.4,0.8-0.6,1.2
			c-0.4,0.9-0.8,1.8-1.3,2.7C489.3,240.8,490.3,241.4,490.7,240.7L490.7,240.7z"/>
	</g>
	<path class="st1" d="M590.2,440.7H151.5V2h438.7V440.7z M152.3,439.9h437.1V2.8H152.3V439.9z"/>
</g>
<g>
	<path d="M110.5,489.9c0,3.2-2.5,5.9-5.8,5.9c-3,0-5.2-2.1-5.7-4.8l1.6-0.3c0.4,2,1.9,3.5,4.1,3.5c2.5,0,4.1-2,4.1-4.3
		c0-2.2-1.4-4-3.9-4c-1.6,0-2.8,0.8-3.7,2l-1.7-0.5l1.5-8.6h8.7v1.6h-7.3l-1,5.4c1.1-1.1,2.4-1.5,3.6-1.5
		C108.2,484.4,110.5,486.9,110.5,489.9z"/>
	<path d="M122.1,478.9h1.6l-8.6,21.8h-1.6L122.1,478.9z"/>
	<path d="M138.2,490.2c0,3-2.5,5.6-5.7,5.6c-3.1,0-5.7-2.5-5.7-5.5c0-1,0.3-2.1,0.9-3l5-8.4h1.9l-3.9,6.3c0.9-0.3,1.9-0.5,3-0.3
		C136.2,485.3,138.2,487.5,138.2,490.2z M136.5,490.2c0-2.2-1.8-4-4-4s-4,1.8-4,4s1.8,4,4,4S136.5,492.4,136.5,490.2z"/>
</g>
<g>
	<g>
		<path d="M108.3,532.9h-6.4l-1.5,4.1h-1.7l5.7-15.3h1.3l5.7,15.3h-1.7L108.3,532.9z M107.8,531.5l-2.7-7.7l-2.7,7.7H107.8z"/>
		<path d="M123.1,526.4l-0.7,1.2c-0.5-0.2-1-0.3-1.4-0.3c-1.7,0-2.9,1.3-2.9,3.6v6.1h-1.5v-10.8h1.5v1.6c0.8-1.4,2.1-1.8,3.2-1.8
			C121.9,526,122.5,526.1,123.1,526.4z"/>
		<path d="M132.9,536.9c-0.6,0.2-1.1,0.3-1.7,0.3c-1.5,0-2.5-0.8-2.5-2.7v-7h-1.8v-1.3h1.8v-2.8l1.5-1.1v4h2.6v1.3h-2.6v6.8
			c0,1.1,0.5,1.5,1.3,1.5c0.4,0,0.8-0.1,1.3-0.2L132.9,536.9z"/>
		<path d="M139.3,534.1h2l-2.9,6.2h-1L139.3,534.1z"/>
		<path d="M165.7,531.5c0,3.2-1.7,5.6-4.8,5.6c-1.6,0-2.8-0.6-3.6-1.6v5.9h-1.5v-15.3h1.5v1.5c0.8-1.1,2-1.6,3.6-1.6
			C163.9,525.9,165.7,528.2,165.7,531.5z M164.2,531.5c0-2.6-1.3-4.3-3.5-4.3s-3.5,1.7-3.5,4.3c0,2.5,1.2,4.3,3.5,4.3
			C162.9,535.8,164.2,534,164.2,531.5z"/>
		<path d="M179.7,530.3v6.6h-1.5v-6.3c0-2.4-0.7-3.4-2.4-3.4c-2.1,0-3.2,1.7-3.2,4.7v5H171v-15.3h1.5v6.1c0.7-1.1,2-1.8,3.6-1.8
			C178.5,526,179.7,527.4,179.7,530.3z"/>
		<path d="M185.4,521.6h1.8v2.2h-1.8V521.6z M185.5,526.1h1.5V537h-1.5V526.1z"/>
		<path d="M193,534.6v-13h1.5v12.9c0,0.7,0.3,1.2,1,1.2c0.3,0,0.7-0.1,1-0.2v1.3c-0.5,0.2-1,0.3-1.5,0.3
			C193.8,537.2,193,536.3,193,534.6z"/>
		<path d="M200.1,531.5c0-3.2,2.1-5.6,5.2-5.6c3.1,0,5.2,2.4,5.2,5.6c0,3.2-2.1,5.6-5.2,5.6S200.1,534.8,200.1,531.5z M209,531.5
			c0-2.5-1.4-4.2-3.7-4.2s-3.7,1.8-3.7,4.2c0,2.5,1.4,4.3,3.7,4.3S209,534,209,531.5z"/>
		<path d="M214.7,534.3l1.3-0.6c0.4,1.1,1.5,2.1,3.1,2.1c1.5,0,2.4-0.7,2.4-1.9c0-2.9-6.2-1.1-6.2-4.9c0-1.9,1.5-3.1,3.7-3.1
			c1.7,0,3.1,0.7,3.9,2.3l-1.2,0.7c-0.5-1-1.4-1.6-2.7-1.6s-2.2,0.5-2.2,1.5c0,2.6,6.3,0.9,6.3,5.1c0,2.2-1.8,3.3-3.9,3.3
			C217,537.2,215.3,536.1,214.7,534.3z"/>
		<path d="M227.5,531.5c0-3.2,2.1-5.6,5.2-5.6c3.1,0,5.2,2.4,5.2,5.6c0,3.2-2.1,5.6-5.2,5.6S227.5,534.8,227.5,531.5z M236.3,531.5
			c0-2.5-1.4-4.2-3.7-4.2s-3.7,1.8-3.7,4.2c0,2.5,1.4,4.3,3.7,4.3C235,535.8,236.3,534,236.3,531.5z"/>
		<path d="M253.1,531.5c0,3.2-1.7,5.6-4.8,5.6c-1.6,0-2.8-0.6-3.6-1.6v5.9h-1.5v-15.3h1.5v1.5c0.8-1.1,2-1.6,3.6-1.6
			C251.3,525.9,253.1,528.2,253.1,531.5z M251.5,531.5c0-2.6-1.3-4.3-3.5-4.3s-3.5,1.7-3.5,4.3c0,2.5,1.2,4.3,3.5,4.3
			S251.5,534,251.5,531.5z"/>
		<path d="M267.1,530.3v6.6h-1.5v-6.3c0-2.4-0.7-3.4-2.4-3.4c-2.1,0-3.2,1.7-3.2,4.7v5h-1.5v-15.3h1.5v6.1c0.7-1.1,2-1.8,3.6-1.8
			C265.8,526,267.1,527.4,267.1,530.3z"/>
		<path d="M275.7,536.8l-4.6-10.7h1.7l3.7,8.9l3.3-8.9h1.7l-5.9,15.3H274L275.7,536.8z"/>
		<path d="M286.2,534.1h2l-2.9,6.2h-1L286.2,534.1z"/>
		<path d="M310.7,530.2v6.8h-1.4l-0.1-1.7c-0.9,1.2-2.2,1.8-3.9,1.8c-2.4,0-3.7-1.2-3.7-3.3c0-1.1,0.4-1.9,1.2-2.4
			c0.8-0.5,2-0.7,4.1-0.7h2.2v-0.5c0-1.9-1-2.9-2.8-2.9c-1.4,0-2.4,0.6-3.3,1.8l-1.1-0.9c1.2-1.5,2.6-2.2,4.4-2.2
			C309.1,526,310.7,527.5,310.7,530.2z M309.2,532.1L309.2,532.1l-2.1-0.1c-2,0-2.9,0.1-3.4,0.5c-0.4,0.3-0.6,0.8-0.6,1.4
			c0,1.2,1,2,2.7,2C307.8,535.9,309.2,534.4,309.2,532.1z"/>
		<path d="M323.1,526.4l-0.7,1.2c-0.5-0.2-1-0.3-1.4-0.3c-1.7,0-2.9,1.3-2.9,3.6v6.1h-1.5v-10.8h1.5v1.6c0.8-1.4,2.1-1.8,3.2-1.8
			C321.9,526,322.5,526.1,323.1,526.4z"/>
		<path d="M326.4,531.6c0-2.9,1.6-5.6,4.9-5.6c1.9,0,3.5,1,4.4,3l-1.5,0.6c-0.5-1.4-1.6-2.2-2.9-2.2c-2.3,0-3.3,2.1-3.3,4.3
			s1,4.2,3.4,4.2c1.4,0,2.4-0.8,2.9-2.2l1.4,0.5c-0.7,2-2.3,3-4.3,3C328.1,537.2,326.4,534.6,326.4,531.6z"/>
		<path d="M349.3,530.3v6.6h-1.5v-6.3c0-2.4-0.7-3.4-2.4-3.4c-2.1,0-3.2,1.7-3.2,4.7v5h-1.5v-15.3h1.5v6.1c0.7-1.1,2-1.8,3.6-1.8
			C348.1,526,349.3,527.4,349.3,530.3z"/>
		<path d="M355,521.6h1.8v2.2H355V521.6z M355.1,526.1h1.5V537h-1.5V526.1z"/>
		<path d="M367.3,536.9c-0.6,0.2-1.1,0.3-1.7,0.3c-1.5,0-2.5-0.8-2.5-2.7v-7h-1.8v-1.3h1.8v-2.8l1.5-1.1v4h2.6v1.3h-2.6v6.8
			c0,1.1,0.5,1.5,1.3,1.5c0.4,0,0.8-0.1,1.3-0.2L367.3,536.9z"/>
		<path d="M380.7,532h-7.9c0,2.4,1.4,3.8,3.5,3.8c1.2,0,2.1-0.3,3.1-1.4l1.1,0.9c-1.3,1.3-2.5,1.8-4.2,1.8c-3.3,0-5-2.5-5-5.5
			c0-3.1,1.7-5.7,4.8-5.7c3.3,0,4.7,2.6,4.7,5.1C380.7,531.3,380.7,531.7,380.7,532z M372.7,530.7h6.6c0,0,0-0.2,0-0.4
			c-0.1-1.8-1.2-3.1-3.2-3.1S372.9,528.8,372.7,530.7z"/>
		<path d="M385.3,531.6c0-2.9,1.6-5.6,4.9-5.6c1.9,0,3.5,1,4.4,3l-1.5,0.6c-0.5-1.4-1.6-2.2-2.9-2.2c-2.3,0-3.3,2.1-3.3,4.3
			s1,4.2,3.4,4.2c1.4,0,2.4-0.8,2.9-2.2l1.4,0.5c-0.7,2-2.3,3-4.3,3C387,537.2,385.3,534.6,385.3,531.6z"/>
		<path d="M404.3,536.9c-0.6,0.2-1.1,0.3-1.7,0.3c-1.5,0-2.5-0.8-2.5-2.7v-7h-1.8v-1.3h1.8v-2.8l1.5-1.1v4h2.6v1.3h-2.6v6.8
			c0,1.1,0.5,1.5,1.3,1.5c0.4,0,0.8-0.1,1.3-0.2L404.3,536.9z"/>
		<path d="M417.7,526.1V537h-1.5v-1.6c-0.8,1.2-2.2,1.7-3.6,1.7c-2.5,0-3.5-1.7-3.5-4.4v-6.6h1.5v6.3c0,1.8,0.3,3.4,2.4,3.4
			c2.2,0,3.2-1.9,3.2-4.7v-5L417.7,526.1L417.7,526.1z"/>
		<path d="M430.3,526.4l-0.7,1.2c-0.5-0.2-1-0.3-1.4-0.3c-1.7,0-2.9,1.3-2.9,3.6v6.1h-1.5v-10.8h1.5v1.6c0.8-1.4,2.1-1.8,3.2-1.8
			C429.1,526,429.7,526.1,430.3,526.4z"/>
		<path d="M443,532h-7.9c0,2.4,1.4,3.8,3.5,3.8c1.2,0,2.1-0.3,3.1-1.4l1.1,0.9c-1.3,1.3-2.5,1.8-4.2,1.8c-3.3,0-5-2.5-5-5.5
			c0-3.1,1.7-5.7,4.8-5.7c3.3,0,4.7,2.6,4.7,5.1C443.1,531.3,443.1,531.7,443,532z M435.1,530.7h6.6c0,0,0-0.2,0-0.4
			c-0.1-1.8-1.2-3.1-3.2-3.1C436.4,527.2,435.2,528.8,435.1,530.7z"/>
		<path d="M465.1,530.2v6.8h-1.4l-0.1-1.7c-0.9,1.2-2.2,1.8-3.9,1.8c-2.4,0-3.7-1.2-3.7-3.3c0-1.1,0.4-1.9,1.2-2.4
			c0.8-0.5,2-0.7,4.1-0.7h2.2v-0.5c0-1.9-1-2.9-2.8-2.9c-1.4,0-2.4,0.6-3.3,1.8l-1.1-0.9c1.2-1.5,2.6-2.2,4.4-2.2
			C463.6,526,465.1,527.5,465.1,530.2z M463.6,532.1L463.6,532.1l-2.1-0.1c-2,0-2.9,0.1-3.4,0.5c-0.4,0.3-0.6,0.8-0.6,1.4
			c0,1.2,1,2,2.7,2C462.3,535.9,463.6,534.4,463.6,532.1z"/>
		<path d="M479.6,530.3v6.6h-1.5v-6.3c0-2.3-0.7-3.4-2.4-3.4c-2,0-3.2,1.8-3.2,4.8v4.9H471v-10.8h1.5v1.6c0.7-1.1,2-1.8,3.6-1.8
			C478.4,526,479.6,527.4,479.6,530.3z"/>
		<path d="M494.7,521.6V537h-1.5v-1.5c-0.8,1-2,1.6-3.6,1.6c-3.2,0-4.8-2.4-4.8-5.6c0-3.4,1.8-5.6,4.8-5.6c1.5,0,2.8,0.6,3.6,1.6
			v-5.9H494.7z M493.4,531.5c0-2.6-1.3-4.3-3.5-4.3s-3.5,1.7-3.5,4.3c0,2.5,1.2,4.3,3.5,4.3C492.1,535.8,493.4,534,493.4,531.5z"/>
		<path d="M508.8,531.6c0-2.9,1.6-5.6,4.9-5.6c1.9,0,3.5,1,4.4,3l-1.5,0.6c-0.5-1.4-1.6-2.2-2.9-2.2c-2.3,0-3.3,2.1-3.3,4.3
			s1,4.2,3.4,4.2c1.4,0,2.4-0.8,2.9-2.2l1.4,0.5c-0.7,2-2.3,3-4.3,3C510.5,537.2,508.8,534.6,508.8,531.6z"/>
		<path d="M522.9,521.6h1.8v2.2h-1.8V521.6z M523.1,526.1h1.5V537h-1.5V526.1z"/>
		<path d="M539.2,530.3v6.6h-1.5v-6.3c0-2.3-0.7-3.4-2.4-3.4c-2,0-3.2,1.8-3.2,4.8v4.9h-1.5v-10.8h1.5v1.6c0.7-1.1,2-1.8,3.6-1.8
			C538,526,539.2,527.4,539.2,530.3z"/>
		<path d="M553.8,532h-7.9c0,2.4,1.4,3.8,3.5,3.8c1.2,0,2.1-0.3,3.1-1.4l1.1,0.9c-1.3,1.3-2.5,1.8-4.2,1.8c-3.3,0-5-2.5-5-5.5
			c0-3.1,1.7-5.7,4.8-5.7c3.3,0,4.7,2.6,4.7,5.1C553.9,531.3,553.9,531.7,553.8,532z M545.9,530.7h6.6c0,0,0-0.2,0-0.4
			c-0.1-1.8-1.2-3.1-3.2-3.1C547.2,527.2,546,528.8,545.9,530.7z"/>
		<path d="M574,530.2v6.8h-1.5v-6.4c0-0.9,0-3.3-2.4-3.3c-2.2,0-2.8,2-2.8,4.5v5.2h-1.5v-6.3c0-1.8-0.5-3.4-2.4-3.4
			c-2.1,0-2.7,2-2.7,4.5v5.2h-1.5v-10.8h1.5v1.3c0.7-1.1,1.8-1.5,3-1.5c1.5,0,2.6,0.7,3.2,2.1c0.7-1.4,1.9-2.1,3.6-2.1
			C573,526,574,527.7,574,530.2z"/>
		<path d="M588.2,530.2v6.8h-1.4l-0.1-1.7c-0.9,1.2-2.2,1.8-3.9,1.8c-2.4,0-3.7-1.2-3.7-3.3c0-1.1,0.4-1.9,1.2-2.4s2-0.7,4.1-0.7
			h2.2v-0.5c0-1.9-1-2.9-2.8-2.9c-1.4,0-2.4,0.6-3.3,1.8l-1.1-0.9c1.2-1.5,2.6-2.2,4.4-2.2C586.6,526,588.2,527.5,588.2,530.2z
			 M586.7,532.1L586.7,532.1l-2.1-0.1c-2,0-2.9,0.1-3.4,0.5c-0.4,0.3-0.6,0.8-0.6,1.4c0,1.2,1,2,2.7,2
			C585.4,535.9,586.7,534.4,586.7,532.1z"/>
		<path d="M108,568.2v6.8h-1.4l-0.1-1.7c-0.9,1.2-2.2,1.8-3.9,1.8c-2.4,0-3.7-1.2-3.7-3.3c0-1.1,0.4-1.9,1.2-2.4
			c0.8-0.5,2-0.7,4.1-0.7h2.2v-0.5c0-1.9-1-2.9-2.8-2.9c-1.4,0-2.4,0.6-3.3,1.8l-1.1-0.9c1.2-1.5,2.6-2.2,4.4-2.2
			C106.4,564,108,565.5,108,568.2z M106.5,570.1L106.5,570.1l-2.1-0.1c-2,0-2.9,0.1-3.4,0.5c-0.4,0.3-0.6,0.8-0.6,1.4
			c0,1.2,1,2,2.7,2C105.1,573.9,106.5,572.4,106.5,570.1z"/>
		<path d="M120.4,564.4l-0.7,1.2c-0.5-0.2-1-0.3-1.4-0.3c-1.7,0-2.9,1.3-2.9,3.6v6.1h-1.5v-10.8h1.5v1.6c0.8-1.4,2.1-1.8,3.2-1.8
			C119.2,564,119.8,564.1,120.4,564.4z"/>
		<path d="M133.2,570h-7.9c0,2.4,1.4,3.8,3.5,3.8c1.2,0,2.1-0.3,3.1-1.4l1.1,0.9c-1.3,1.3-2.5,1.8-4.2,1.8c-3.3,0-5-2.5-5-5.5
			c0-3.1,1.7-5.7,4.8-5.7c3.3,0,4.7,2.6,4.7,5.1C133.2,569.3,133.2,569.7,133.2,570z M125.2,568.7h6.6c0,0,0-0.2,0-0.4
			c-0.1-1.8-1.2-3.1-3.2-3.1S125.3,566.8,125.2,568.7z"/>
		<path d="M145.1,579.4v-1.2c0.4,0.1,0.7,0.2,1,0.2c0.7,0,1-0.4,1-1.2v-12.9h1.5v13c0,1.7-0.8,2.5-2.1,2.5
			C146.2,579.6,145.7,579.5,145.1,579.4z M147.1,559.6h1.8v2.2h-1.8V559.6z"/>
		<path d="M163.2,564.1V575h-1.5v-1.6c-0.8,1.2-2.2,1.7-3.6,1.7c-2.5,0-3.5-1.7-3.5-4.4v-6.6h1.5v6.3c0,1.8,0.3,3.4,2.4,3.4
			c2.2,0,3.2-1.9,3.2-4.7v-5L163.2,564.1L163.2,564.1z"/>
		<path d="M168.2,572.3l1.3-0.6c0.4,1.1,1.5,2.1,3.1,2.1c1.5,0,2.4-0.7,2.4-1.9c0-2.9-6.2-1.1-6.2-4.9c0-1.9,1.5-3.1,3.7-3.1
			c1.7,0,3.1,0.7,3.9,2.3l-1.2,0.7c-0.5-1-1.4-1.6-2.7-1.6s-2.2,0.5-2.2,1.5c0,2.6,6.3,0.9,6.3,5.1c0,2.2-1.8,3.3-3.9,3.3
			C170.5,575.2,168.8,574.1,168.2,572.3z"/>
		<path d="M186.6,574.9c-0.6,0.2-1.1,0.3-1.7,0.3c-1.5,0-2.5-0.8-2.5-2.7v-7h-1.8v-1.3h1.8v-2.8l1.5-1.1v4h2.6v1.3h-2.6v6.8
			c0,1.1,0.5,1.5,1.3,1.5c0.4,0,0.8-0.1,1.3-0.2L186.6,574.9z"/>
		<path d="M199.2,572.3l1.3-0.6c0.4,1.1,1.5,2.1,3.1,2.1c1.5,0,2.4-0.7,2.4-1.9c0-2.9-6.2-1.1-6.2-4.9c0-1.9,1.5-3.1,3.7-3.1
			c1.7,0,3.1,0.7,3.9,2.3l-1.2,0.7c-0.5-1-1.4-1.6-2.7-1.6s-2.2,0.5-2.2,1.5c0,2.6,6.3,0.9,6.3,5.1c0,2.2-1.8,3.3-3.9,3.3
			C201.5,575.2,199.8,574.1,199.2,572.3z"/>
		<path d="M212,569.5c0-3.2,2.1-5.6,5.2-5.6c3.1,0,5.2,2.4,5.2,5.6c0,3.2-2.1,5.6-5.2,5.6S212,572.8,212,569.5z M220.9,569.5
			c0-2.5-1.4-4.2-3.7-4.2s-3.7,1.8-3.7,4.2c0,2.5,1.4,4.3,3.7,4.3S220.9,572,220.9,569.5z"/>
		<path d="M242.5,568.2v6.8H241v-6.4c0-0.9,0-3.3-2.4-3.3c-2.2,0-2.8,2-2.8,4.5v5.2h-1.5v-6.3c0-1.8-0.5-3.4-2.4-3.4
			c-2.1,0-2.7,2-2.7,4.5v5.2h-1.5v-10.8h1.5v1.3c0.7-1.1,1.8-1.5,3-1.5c1.5,0,2.6,0.7,3.2,2.1c0.7-1.4,1.9-2.1,3.6-2.1
			C241.4,564,242.5,565.7,242.5,568.2z"/>
		<path d="M257.1,570h-7.9c0,2.4,1.4,3.8,3.5,3.8c1.2,0,2.1-0.3,3.1-1.4l1.1,0.9c-1.3,1.3-2.5,1.8-4.2,1.8c-3.3,0-5-2.5-5-5.5
			c0-3.1,1.7-5.7,4.8-5.7c3.3,0,4.7,2.6,4.7,5.1C257.2,569.3,257.2,569.7,257.1,570z M249.2,568.7h6.6c0,0,0-0.2,0-0.4
			c-0.1-1.8-1.2-3.1-3.2-3.1C250.5,565.2,249.3,566.8,249.2,568.7z"/>
		<path d="M270.2,569.5c0-3.2,2.1-5.6,5.2-5.6s5.2,2.4,5.2,5.6c0,3.2-2.1,5.6-5.2,5.6S270.2,572.8,270.2,569.5z M279.1,569.5
			c0-2.5-1.4-4.2-3.7-4.2c-2.3,0-3.7,1.8-3.7,4.2c0,2.5,1.4,4.3,3.7,4.3S279.1,572,279.1,569.5z"/>
		<path d="M286.5,565.4h-2.3v-1.3h2.3v-1.7c0-2.3,1.3-3,2.7-3c0.6,0,1.3,0.1,1.9,0.4l-0.5,1.2c-0.5-0.2-0.9-0.4-1.3-0.4
			c-0.9,0-1.4,0.6-1.4,1.6v1.8h3.1v1.3h-3v9.6h-1.5V565.4z"/>
		<path d="M308.9,574.9c-0.6,0.2-1.1,0.3-1.7,0.3c-1.5,0-2.5-0.8-2.5-2.7v-7H303v-1.3h1.8v-2.8l1.5-1.1v4h2.6v1.3h-2.6v6.8
			c0,1.1,0.5,1.5,1.3,1.5c0.4,0,0.8-0.1,1.3-0.2L308.9,574.9z"/>
		<path d="M322.4,568.3v6.6h-1.5v-6.3c0-2.4-0.7-3.4-2.4-3.4c-2.1,0-3.2,1.7-3.2,4.7v5h-1.5v-15.3h1.5v6.1c0.7-1.1,2-1.8,3.6-1.8
			C321.2,564,322.4,565.4,322.4,568.3z"/>
		<path d="M337,570h-7.9c0,2.4,1.4,3.8,3.5,3.8c1.2,0,2.1-0.3,3.1-1.4l1.1,0.9c-1.3,1.3-2.5,1.8-4.2,1.8c-3.3,0-5-2.5-5-5.5
			c0-3.1,1.7-5.7,4.8-5.7c3.3,0,4.7,2.6,4.7,5.1C337.1,569.3,337.1,569.7,337,570z M329.1,568.7h6.6c0,0,0-0.2,0-0.4
			c-0.1-1.8-1.2-3.1-3.2-3.1C330.4,565.2,329.2,566.8,329.1,568.7z"/>
		<path d="M350.2,569.6c0-2.9,1.6-5.6,4.9-5.6c1.9,0,3.5,1,4.4,3l-1.5,0.6c-0.5-1.4-1.6-2.2-2.9-2.2c-2.3,0-3.3,2.1-3.3,4.3
			s1,4.2,3.4,4.2c1.4,0,2.4-0.8,2.9-2.2l1.4,0.5c-0.7,2-2.3,3-4.3,3C351.9,575.2,350.2,572.6,350.2,569.6z"/>
		<path d="M372.9,564.1V575h-1.5v-1.6c-0.8,1.2-2.2,1.7-3.6,1.7c-2.5,0-3.5-1.7-3.5-4.4v-6.6h1.5v6.3c0,1.8,0.3,3.4,2.4,3.4
			c2.2,0,3.2-1.9,3.2-4.7v-5L372.9,564.1L372.9,564.1z"/>
		<path d="M378.9,572.6v-13h1.5v12.9c0,0.7,0.3,1.2,1,1.2c0.3,0,0.7-0.1,1-0.2v1.3c-0.5,0.2-1,0.3-1.5,0.3
			C379.7,575.2,378.9,574.3,378.9,572.6z"/>
		<path d="M391.4,574.9c-0.6,0.2-1.1,0.3-1.7,0.3c-1.5,0-2.5-0.8-2.5-2.7v-7h-1.8v-1.3h1.8v-2.8l1.5-1.1v4h2.6v1.3h-2.6v6.8
			c0,1.1,0.5,1.5,1.3,1.5c0.4,0,0.8-0.1,1.3-0.2L391.4,574.9z"/>
		<path d="M404.8,564.1V575h-1.5v-1.6c-0.8,1.2-2.2,1.7-3.6,1.7c-2.5,0-3.5-1.7-3.5-4.4v-6.6h1.5v6.3c0,1.8,0.3,3.4,2.4,3.4
			c2.2,0,3.2-1.9,3.2-4.7v-5L404.8,564.1L404.8,564.1z"/>
		<path d="M417.4,564.4l-0.7,1.2c-0.5-0.2-1-0.3-1.4-0.3c-1.7,0-2.9,1.3-2.9,3.6v6.1h-1.5v-10.8h1.5v1.6c0.8-1.4,2.1-1.8,3.2-1.8
			C416.2,564,416.8,564.1,417.4,564.4z"/>
		<path d="M429.9,568.2v6.8h-1.4l-0.1-1.7c-0.9,1.2-2.2,1.8-3.9,1.8c-2.4,0-3.7-1.2-3.7-3.3c0-1.1,0.4-1.9,1.2-2.4
			c0.8-0.5,2-0.7,4.1-0.7h2.2v-0.5c0-1.9-1-2.9-2.8-2.9c-1.4,0-2.4,0.6-3.3,1.8l-1.1-0.9c1.2-1.5,2.6-2.2,4.4-2.2
			C428.3,564,429.9,565.5,429.9,568.2z M428.4,570.1L428.4,570.1l-2.1-0.1c-2,0-2.9,0.1-3.4,0.5c-0.4,0.3-0.6,0.8-0.6,1.4
			c0,1.2,1,2,2.7,2C427.1,573.9,428.4,572.4,428.4,570.1z"/>
		<path d="M435.7,572.6v-13h1.5v12.9c0,0.7,0.3,1.2,1,1.2c0.3,0,0.7-0.1,1-0.2v1.3c-0.5,0.2-1,0.3-1.5,0.3
			C436.5,575.2,435.7,574.3,435.7,572.6z"/>
		<path d="M461.7,559.6V575h-1.5v-1.5c-0.8,1-2,1.6-3.6,1.6c-3.2,0-4.8-2.4-4.8-5.6c0-3.4,1.8-5.6,4.8-5.6c1.5,0,2.8,0.6,3.6,1.6
			v-5.9H461.7z M460.3,569.5c0-2.6-1.3-4.3-3.5-4.3s-3.5,1.7-3.5,4.3c0,2.5,1.2,4.3,3.5,4.3C459.1,573.8,460.3,572,460.3,569.5z"/>
		<path d="M467.6,559.6h1.8v2.2h-1.8V559.6z M467.7,564.1h1.5V575h-1.5V564.1z"/>
		<path d="M474.3,572.3l1.3-0.6c0.4,1.1,1.5,2.1,3.1,2.1c1.5,0,2.4-0.7,2.4-1.9c0-2.9-6.2-1.1-6.2-4.9c0-1.9,1.5-3.1,3.7-3.1
			c1.7,0,3.1,0.7,3.9,2.3l-1.2,0.7c-0.5-1-1.4-1.6-2.7-1.6c-1.3,0-2.2,0.5-2.2,1.5c0,2.6,6.3,0.9,6.3,5.1c0,2.2-1.8,3.3-3.9,3.3
			C476.6,575.2,474.8,574.1,474.3,572.3z"/>
		<path d="M487.1,569.6c0-2.9,1.6-5.6,4.9-5.6c1.9,0,3.5,1,4.4,3l-1.5,0.6c-0.5-1.4-1.6-2.2-2.9-2.2c-2.3,0-3.3,2.1-3.3,4.3
			s1,4.2,3.4,4.2c1.4,0,2.4-0.8,2.9-2.2l1.4,0.5c-0.7,2-2.3,3-4.3,3C488.8,575.2,487.1,572.6,487.1,569.6z"/>
		<path d="M501.2,559.6h1.8v2.2h-1.8V559.6z M501.3,564.1h1.5V575h-1.5V564.1z"/>
		<path d="M518.8,569.5c0,3.2-1.7,5.6-4.8,5.6c-1.6,0-2.8-0.6-3.6-1.6v5.9h-1.5v-15.3h1.5v1.5c0.8-1.1,2-1.6,3.6-1.6
			C517,563.9,518.8,566.2,518.8,569.5z M517.3,569.5c0-2.6-1.3-4.3-3.5-4.3s-3.5,1.7-3.5,4.3c0,2.5,1.2,4.3,3.5,4.3
			S517.3,572,517.3,569.5z"/>
		<path d="M524.1,572.6v-13h1.5v12.9c0,0.7,0.3,1.2,1,1.2c0.3,0,0.7-0.1,1-0.2v1.3c-0.5,0.2-1,0.3-1.5,0.3
			C524.9,575.2,524.1,574.3,524.1,572.6z"/>
		<path d="M532.2,559.6h1.8v2.2h-1.8V559.6z M532.3,564.1h1.5V575h-1.5V564.1z"/>
		<path d="M548.5,568.3v6.6H547v-6.3c0-2.3-0.7-3.4-2.4-3.4c-2,0-3.2,1.8-3.2,4.8v4.9h-1.5v-10.8h1.5v1.6c0.7-1.1,2-1.8,3.6-1.8
			C547.3,564,548.5,565.4,548.5,568.3z"/>
		<path d="M563.1,570h-7.9c0,2.4,1.4,3.8,3.5,3.8c1.2,0,2.1-0.3,3.1-1.4l1.1,0.9c-1.3,1.3-2.5,1.8-4.2,1.8c-3.3,0-5-2.5-5-5.5
			c0-3.1,1.7-5.7,4.8-5.7c3.3,0,4.7,2.6,4.7,5.1C563.1,569.3,563.1,569.7,563.1,570z M555.1,568.7h6.6c0,0,0-0.2,0-0.4
			c-0.1-1.8-1.2-3.1-3.2-3.1C556.5,565.2,555.3,566.8,555.1,568.7z"/>
		<path d="M567.3,572.3l1.3-0.6c0.4,1.1,1.5,2.1,3.1,2.1c1.5,0,2.4-0.7,2.4-1.9c0-2.9-6.2-1.1-6.2-4.9c0-1.9,1.5-3.1,3.7-3.1
			c1.7,0,3.1,0.7,3.9,2.3l-1.2,0.7c-0.5-1-1.4-1.6-2.7-1.6s-2.2,0.5-2.2,1.5c0,2.6,6.3,0.9,6.3,5.1c0,2.2-1.8,3.3-3.9,3.3
			C569.6,575.2,567.9,574.1,567.3,572.3z"/>
		<path d="M104.4,612.9c-0.6,0.2-1.1,0.3-1.7,0.3c-1.5,0-2.5-0.8-2.5-2.7v-7h-1.8v-1.3h1.8v-2.8l1.5-1.1v4h2.6v1.3h-2.6v6.8
			c0,1.1,0.5,1.5,1.3,1.5c0.4,0,0.8-0.1,1.3-0.2L104.4,612.9z"/>
		<path d="M117.9,606.3v6.6h-1.5v-6.3c0-2.4-0.7-3.4-2.4-3.4c-2.1,0-3.2,1.7-3.2,4.7v5h-1.5v-15.3h1.5v6.1c0.7-1.1,2-1.8,3.6-1.8
			C116.7,602,117.9,603.4,117.9,606.3z"/>
		<path d="M132.1,606.2v6.8h-1.4l-0.1-1.7c-0.9,1.2-2.2,1.8-3.9,1.8c-2.4,0-3.7-1.2-3.7-3.3c0-1.1,0.4-1.9,1.2-2.4
			c0.8-0.5,2-0.7,4.1-0.7h2.2v-0.5c0-1.9-1-2.9-2.8-2.9c-1.4,0-2.4,0.6-3.3,1.8l-1.1-0.9c1.2-1.5,2.6-2.2,4.4-2.2
			C130.5,602,132.1,603.5,132.1,606.2z M130.5,608.1L130.5,608.1l-2.1-0.1c-2,0-2.9,0.1-3.4,0.5c-0.4,0.3-0.6,0.8-0.6,1.4
			c0,1.2,1,2,2.7,2C129.2,611.9,130.5,610.4,130.5,608.1z"/>
		<path d="M142.3,612.9c-0.6,0.2-1.1,0.3-1.7,0.3c-1.5,0-2.5-0.8-2.5-2.7v-7h-1.8v-1.3h1.8v-2.8l1.5-1.1v4h2.6v1.3h-2.6v6.8
			c0,1.1,0.5,1.5,1.3,1.5c0.4,0,0.8-0.1,1.3-0.2L142.3,612.9z"/>
		<path d="M166,607.5c0,3.2-1.7,5.6-4.8,5.6c-1.6,0-2.8-0.6-3.6-1.6v5.9h-1.5v-15.3h1.5v1.5c0.8-1.1,2-1.6,3.6-1.6
			C164.2,601.9,166,604.2,166,607.5z M164.5,607.5c0-2.6-1.3-4.3-3.5-4.3s-3.5,1.7-3.5,4.3c0,2.5,1.2,4.3,3.5,4.3
			S164.5,610,164.5,607.5z"/>
		<path d="M178,602.4l-0.7,1.2c-0.5-0.2-1-0.3-1.4-0.3c-1.7,0-2.9,1.3-2.9,3.6v6.1h-1.5v-10.8h1.5v1.6c0.8-1.4,2.1-1.8,3.2-1.8
			C176.8,602,177.4,602.1,178,602.4z"/>
		<path d="M181.2,607.5c0-3.2,2.1-5.6,5.2-5.6c3.1,0,5.2,2.4,5.2,5.6c0,3.2-2.1,5.6-5.2,5.6S181.2,610.8,181.2,607.5z M190.1,607.5
			c0-2.5-1.4-4.2-3.7-4.2s-3.7,1.8-3.7,4.2c0,2.5,1.4,4.3,3.7,4.3C188.7,611.8,190.1,610,190.1,607.5z"/>
		<path d="M195,602.1h1.6l3.4,8.9l3.4-8.9h1.7l-4.4,10.8h-1.3L195,602.1z"/>
		<path d="M209.7,597.6h1.8v2.2h-1.8V597.6z M209.8,602.1h1.5V613h-1.5V602.1z"/>
		<path d="M226.6,597.6V613h-1.5v-1.5c-0.8,1-2,1.6-3.6,1.6c-3.2,0-4.8-2.4-4.8-5.6c0-3.4,1.8-5.6,4.8-5.6c1.5,0,2.8,0.6,3.6,1.6
			v-5.9H226.6z M225.2,607.5c0-2.6-1.3-4.3-3.5-4.3s-3.5,1.7-3.5,4.3c0,2.5,1.2,4.3,3.5,4.3S225.2,610,225.2,607.5z"/>
		<path d="M241.4,608h-7.9c0,2.4,1.4,3.8,3.5,3.8c1.2,0,2.1-0.3,3.1-1.4l1.1,0.9c-1.3,1.3-2.5,1.8-4.2,1.8c-3.3,0-5-2.5-5-5.5
			c0-3.1,1.7-5.7,4.8-5.7c3.3,0,4.7,2.6,4.7,5.1C241.5,607.3,241.4,607.7,241.4,608z M233.5,606.7h6.6c0,0,0-0.2,0-0.4
			c-0.1-1.8-1.2-3.1-3.2-3.1C234.8,603.2,233.6,604.8,233.5,606.7z"/>
		<path d="M254.6,607.6c0-2.9,1.6-5.6,4.9-5.6c1.9,0,3.5,1,4.4,3l-1.5,0.6c-0.5-1.4-1.6-2.2-2.9-2.2c-2.3,0-3.3,2.1-3.3,4.3
			s1,4.2,3.4,4.2c1.4,0,2.4-0.8,2.9-2.2l1.4,0.5c-0.7,2-2.3,3-4.3,3C256.3,613.2,254.6,610.6,254.6,607.6z"/>
		<path d="M268,607.5c0-3.2,2.1-5.6,5.2-5.6s5.2,2.4,5.2,5.6c0,3.2-2.1,5.6-5.2,5.6S268,610.8,268,607.5z M276.9,607.5
			c0-2.5-1.4-4.2-3.7-4.2c-2.3,0-3.7,1.8-3.7,4.2c0,2.5,1.4,4.3,3.7,4.3S276.9,610,276.9,607.5z"/>
		<path d="M292.3,606.3v6.6h-1.5v-6.3c0-2.3-0.7-3.4-2.4-3.4c-2,0-3.2,1.8-3.2,4.8v4.9h-1.5v-10.8h1.5v1.6c0.7-1.1,2-1.8,3.6-1.8
			C291.1,602,292.3,603.4,292.3,606.3z"/>
		<path d="M302.7,612.9c-0.6,0.2-1.1,0.3-1.7,0.3c-1.5,0-2.5-0.8-2.5-2.7v-7h-1.8v-1.3h1.8v-2.8l1.5-1.1v4h2.6v1.3H300v6.8
			c0,1.1,0.5,1.5,1.3,1.5c0.4,0,0.8-0.1,1.3-0.2L302.7,612.9z"/>
		<path d="M307.4,597.6h1.8v2.2h-1.8V597.6z M307.5,602.1h1.5V613h-1.5V602.1z"/>
		<path d="M323.7,606.3v6.6h-1.5v-6.3c0-2.3-0.7-3.4-2.4-3.4c-2,0-3.2,1.8-3.2,4.8v4.9H315v-10.8h1.5v1.6c0.7-1.1,2-1.8,3.6-1.8
			C322.5,602,323.7,603.4,323.7,606.3z"/>
		<path d="M338,602.1V613h-1.5v-1.6c-0.8,1.2-2.2,1.7-3.6,1.7c-2.5,0-3.5-1.7-3.5-4.4v-6.6h1.5v6.3c0,1.8,0.3,3.4,2.4,3.4
			c2.2,0,3.2-1.9,3.2-4.7v-5L338,602.1L338,602.1z"/>
		<path d="M343.3,607.5c0-3.2,2.1-5.6,5.2-5.6s5.2,2.4,5.2,5.6c0,3.2-2.1,5.6-5.2,5.6S343.3,610.8,343.3,607.5z M352.2,607.5
			c0-2.5-1.4-4.2-3.7-4.2c-2.3,0-3.7,1.8-3.7,4.2c0,2.5,1.4,4.3,3.7,4.3C350.8,611.8,352.2,610,352.2,607.5z"/>
		<path d="M367.4,602.1V613h-1.5v-1.6c-0.8,1.2-2.2,1.7-3.6,1.7c-2.5,0-3.5-1.7-3.5-4.4v-6.6h1.5v6.3c0,1.8,0.3,3.4,2.4,3.4
			c2.2,0,3.2-1.9,3.2-4.7v-5L367.4,602.1L367.4,602.1z"/>
		<path d="M372.4,610.3l1.3-0.6c0.4,1.1,1.5,2.1,3.1,2.1c1.5,0,2.4-0.7,2.4-1.9c0-2.9-6.2-1.1-6.2-4.9c0-1.9,1.5-3.1,3.7-3.1
			c1.7,0,3.1,0.7,3.9,2.3l-1.2,0.7c-0.5-1-1.4-1.6-2.7-1.6c-1.3,0-2.2,0.5-2.2,1.5c0,2.6,6.3,0.9,6.3,5.1c0,2.2-1.8,3.3-3.9,3.3
			C374.7,613.2,373,612.1,372.4,610.3z"/>
		<path d="M393.6,610.3l1.3-0.6c0.4,1.1,1.5,2.1,3.1,2.1c1.5,0,2.4-0.7,2.4-1.9c0-2.9-6.2-1.1-6.2-4.9c0-1.9,1.5-3.1,3.7-3.1
			c1.7,0,3.1,0.7,3.9,2.3l-1.2,0.7c-0.5-1-1.4-1.6-2.7-1.6c-1.3,0-2.2,0.5-2.2,1.5c0,2.6,6.3,0.9,6.3,5.1c0,2.2-1.8,3.3-3.9,3.3
			C395.9,613.2,394.2,612.1,393.6,610.3z"/>
		<path d="M406.3,607.5c0-3.2,2.1-5.6,5.2-5.6s5.2,2.4,5.2,5.6c0,3.2-2.1,5.6-5.2,5.6S406.3,610.8,406.3,607.5z M415.2,607.5
			c0-2.5-1.4-4.2-3.7-4.2c-2.3,0-3.7,1.8-3.7,4.2c0,2.5,1.4,4.3,3.7,4.3C413.9,611.8,415.2,610,415.2,607.5z"/>
		<path d="M430.5,602.1V613H429v-1.6c-0.8,1.2-2.2,1.7-3.6,1.7c-2.5,0-3.5-1.7-3.5-4.4v-6.6h1.5v6.3c0,1.8,0.3,3.4,2.4,3.4
			c2.2,0,3.2-1.9,3.2-4.7v-5L430.5,602.1L430.5,602.1z"/>
		<path d="M443.1,602.4l-0.7,1.2c-0.5-0.2-1-0.3-1.4-0.3c-1.7,0-2.9,1.3-2.9,3.6v6.1h-1.5v-10.8h1.5v1.6c0.8-1.4,2.1-1.8,3.2-1.8
			C441.9,602,442.5,602.1,443.1,602.4z"/>
		<path d="M446.3,607.6c0-2.9,1.6-5.6,4.9-5.6c1.9,0,3.5,1,4.4,3l-1.5,0.6c-0.5-1.4-1.6-2.2-2.9-2.2c-2.3,0-3.3,2.1-3.3,4.3
			s1,4.2,3.4,4.2c1.4,0,2.4-0.8,2.9-2.2l1.4,0.5c-0.7,2-2.3,3-4.3,3C448.1,613.2,446.3,610.6,446.3,607.6z"/>
		<path d="M469.3,608h-7.9c0,2.4,1.4,3.8,3.5,3.8c1.2,0,2.1-0.3,3.1-1.4l1.1,0.9c-1.3,1.3-2.5,1.8-4.2,1.8c-3.3,0-5-2.5-5-5.5
			c0-3.1,1.7-5.7,4.8-5.7c3.3,0,4.7,2.6,4.7,5.1C469.4,607.3,469.4,607.7,469.3,608z M461.4,606.7h6.6c0,0,0-0.2,0-0.4
			c-0.1-1.8-1.2-3.1-3.2-3.1C462.7,603.2,461.5,604.8,461.4,606.7z"/>
		<path d="M473.5,610.3l1.3-0.6c0.4,1.1,1.5,2.1,3.1,2.1c1.5,0,2.4-0.7,2.4-1.9c0-2.9-6.2-1.1-6.2-4.9c0-1.9,1.5-3.1,3.7-3.1
			c1.7,0,3.1,0.7,3.9,2.3l-1.2,0.7c-0.5-1-1.4-1.6-2.7-1.6c-1.3,0-2.2,0.5-2.2,1.5c0,2.6,6.3,0.9,6.3,5.1c0,2.2-1.8,3.3-3.9,3.3
			C475.9,613.2,474.1,612.1,473.5,610.3z"/>
		<path d="M494.9,607.5c0-3.2,2.1-5.6,5.2-5.6s5.2,2.4,5.2,5.6c0,3.2-2.1,5.6-5.2,5.6S494.9,610.8,494.9,607.5z M503.8,607.5
			c0-2.5-1.4-4.2-3.7-4.2c-2.3,0-3.7,1.8-3.7,4.2c0,2.5,1.4,4.3,3.7,4.3C502.5,611.8,503.8,610,503.8,607.5z"/>
		<path d="M511.2,603.4h-2.3v-1.3h2.3v-1.7c0-2.3,1.3-3,2.7-3c0.6,0,1.3,0.1,1.9,0.4l-0.5,1.2c-0.5-0.2-0.9-0.4-1.3-0.4
			c-0.9,0-1.4,0.6-1.4,1.6v1.8h3.1v1.3h-3.1v9.6h-1.5L511.2,603.4L511.2,603.4z"/>
		<path d="M529,597.6h1.8v2.2H529V597.6z M529.1,602.1h1.5V613h-1.5V602.1z"/>
		<path d="M545.3,606.3v6.6h-1.5v-6.3c0-2.3-0.7-3.4-2.4-3.4c-2,0-3.2,1.8-3.2,4.8v4.9h-1.5v-10.8h1.5v1.6c0.7-1.1,2-1.8,3.6-1.8
			C544.1,602,545.3,603.4,545.3,606.3z"/>
		<path d="M550.1,610.3l1.3-0.6c0.4,1.1,1.5,2.1,3.1,2.1c1.5,0,2.4-0.7,2.4-1.9c0-2.9-6.2-1.1-6.2-4.9c0-1.9,1.5-3.1,3.7-3.1
			c1.7,0,3.1,0.7,3.9,2.3l-1.2,0.7c-0.5-1-1.4-1.6-2.7-1.6s-2.2,0.5-2.2,1.5c0,2.6,6.3,0.9,6.3,5.1c0,2.2-1.8,3.3-3.9,3.3
			C552.4,613.2,550.7,612.1,550.1,610.3z"/>
		<path d="M573.7,607.5c0,3.2-1.7,5.6-4.8,5.6c-1.6,0-2.8-0.6-3.6-1.6v5.9h-1.5v-15.3h1.5v1.5c0.8-1.1,2-1.6,3.6-1.6
			C571.9,601.9,573.7,604.2,573.7,607.5z M572.1,607.5c0-2.6-1.3-4.3-3.5-4.3s-3.5,1.7-3.5,4.3c0,2.5,1.2,4.3,3.5,4.3
			C570.9,611.8,572.1,610,572.1,607.5z"/>
		<path d="M578.8,597.6h1.8v2.2h-1.8V597.6z M579,602.1h1.5V613H579V602.1z"/>
		<path d="M593.1,602.4l-0.7,1.2c-0.5-0.2-1-0.3-1.4-0.3c-1.7,0-2.9,1.3-2.9,3.6v6.1h-1.5v-10.8h1.5v1.6c0.8-1.4,2.1-1.8,3.2-1.8
			C591.9,602,592.5,602.1,593.1,602.4z"/>
		<path d="M605.6,606.2v6.8h-1.4l-0.1-1.7c-0.9,1.2-2.2,1.8-3.9,1.8c-2.4,0-3.7-1.2-3.7-3.3c0-1.1,0.4-1.9,1.2-2.4s2-0.7,4.1-0.7
			h2.2v-0.5c0-1.9-1-2.9-2.8-2.9c-1.4,0-2.4,0.6-3.3,1.8l-1.1-0.9c1.2-1.5,2.6-2.2,4.4-2.2C604,602,605.6,603.5,605.6,606.2z
			 M604.1,608.1L604.1,608.1L602,608c-2,0-2.9,0.1-3.4,0.5c-0.4,0.3-0.6,0.8-0.6,1.4c0,1.2,1,2,2.7,2
			C602.8,611.9,604.1,610.4,604.1,608.1z"/>
		<path d="M615.9,612.9c-0.6,0.2-1.1,0.3-1.7,0.3c-1.5,0-2.5-0.8-2.5-2.7v-7h-1.8v-1.3h1.8v-2.8l1.5-1.1v4h2.6v1.3h-2.6v6.8
			c0,1.1,0.5,1.5,1.3,1.5c0.4,0,0.8-0.1,1.3-0.2L615.9,612.9z"/>
		<path d="M620.6,597.6h1.8v2.2h-1.8V597.6z M620.7,602.1h1.5V613h-1.5V602.1z"/>
		<path d="M627.5,607.5c0-3.2,2.1-5.6,5.2-5.6c3.1,0,5.2,2.4,5.2,5.6c0,3.2-2.1,5.6-5.2,5.6S627.5,610.8,627.5,607.5z M636.4,607.5
			c0-2.5-1.4-4.2-3.7-4.2s-3.7,1.8-3.7,4.2c0,2.5,1.4,4.3,3.7,4.3S636.4,610,636.4,607.5z"/>
		<path d="M651.8,606.3v6.6h-1.5v-6.3c0-2.3-0.7-3.4-2.4-3.4c-2,0-3.2,1.8-3.2,4.8v4.9h-1.5v-10.8h1.5v1.6c0.7-1.1,2-1.8,3.6-1.8
			C650.6,602,651.8,603.4,651.8,606.3z"/>
		<path d="M100.6,641.4h-2.3v-1.3h2.3v-1.7c0-2.3,1.3-3,2.7-3c0.6,0,1.3,0.1,1.9,0.4l-0.5,1.2c-0.5-0.2-0.9-0.4-1.3-0.4
			c-0.9,0-1.4,0.6-1.4,1.6v1.8h3.1v1.3H102v9.6h-1.5v-9.5H100.6z"/>
		<path d="M108.7,645.5c0-3.2,2.1-5.6,5.2-5.6s5.2,2.4,5.2,5.6c0,3.2-2.1,5.6-5.2,5.6S108.7,648.8,108.7,645.5z M117.6,645.5
			c0-2.5-1.4-4.2-3.7-4.2c-2.3,0-3.7,1.8-3.7,4.2c0,2.5,1.4,4.3,3.7,4.3C116.3,649.8,117.6,648,117.6,645.5z"/>
		<path d="M131,640.4l-0.7,1.2c-0.5-0.2-1-0.3-1.4-0.3c-1.7,0-2.9,1.3-2.9,3.6v6.1h-1.5v-10.8h1.5v1.6c0.8-1.4,2.1-1.8,3.2-1.8
			C129.8,640,130.4,640.1,131,640.4z"/>
		<path d="M148.7,650.9c-0.6,0.2-1.1,0.3-1.7,0.3c-1.5,0-2.5-0.8-2.5-2.7v-7h-1.8v-1.3h1.8v-2.8l1.5-1.1v4h2.6v1.3H146v6.8
			c0,1.1,0.5,1.5,1.3,1.5c0.4,0,0.8-0.1,1.3-0.2L148.7,650.9z"/>
		<path d="M162.2,644.3v6.6h-1.5v-6.3c0-2.4-0.7-3.4-2.4-3.4c-2.1,0-3.2,1.7-3.2,4.7v5h-1.5v-15.3h1.5v6.1c0.7-1.1,2-1.8,3.6-1.8
			C161,640,162.2,641.4,162.2,644.3z"/>
		<path d="M176.8,646h-7.9c0,2.4,1.4,3.8,3.5,3.8c1.2,0,2.1-0.3,3.1-1.4l1.1,0.9c-1.3,1.3-2.5,1.8-4.2,1.8c-3.3,0-5-2.5-5-5.5
			c0-3.1,1.7-5.7,4.8-5.7c3.3,0,4.7,2.6,4.7,5.1C176.9,645.3,176.9,645.7,176.8,646z M168.9,644.7h6.6c0,0,0-0.2,0-0.4
			c-0.1-1.8-1.2-3.1-3.2-3.1C170.2,641.2,169,642.8,168.9,644.7z"/>
		<path d="M198.6,643.1h5.2v7.9h-1.3l-0.2-2.4c-0.8,1.7-2.7,2.6-5.1,2.6c-4.5,0-6.9-3.3-6.9-7.9c0-4.6,2.4-7.9,7.1-7.9
			c3.2,0,5.3,1.6,6.3,4.2l-1.5,0.5c-0.8-2.1-2.3-3.3-4.9-3.3c-3.7,0-5.5,2.5-5.5,6.3c0,3.7,1.6,6.5,5.4,6.5c2.6,0,5-1.4,5-4.9v-0.5
			h-3.7L198.6,643.1L198.6,643.1z"/>
		<path d="M216.6,640.4l-0.7,1.2c-0.5-0.2-1-0.3-1.4-0.3c-1.7,0-2.9,1.3-2.9,3.6v6.1H210v-10.8h1.5v1.6c0.8-1.4,2.1-1.8,3.2-1.8
			C215.4,640,216.1,640.1,216.6,640.4z"/>
		<path d="M219.8,645.5c0-3.2,2.1-5.6,5.2-5.6c3.1,0,5.2,2.4,5.2,5.6c0,3.2-2.1,5.6-5.2,5.6S219.8,648.8,219.8,645.5z M228.7,645.5
			c0-2.5-1.4-4.2-3.7-4.2s-3.7,1.8-3.7,4.2c0,2.5,1.4,4.3,3.7,4.3C227.4,649.8,228.7,648,228.7,645.5z"/>
		<path d="M244,640.1V651h-1.5v-1.6c-0.8,1.2-2.2,1.7-3.6,1.7c-2.5,0-3.5-1.7-3.5-4.4v-6.6h1.5v6.3c0,1.8,0.3,3.4,2.4,3.4
			c2.2,0,3.2-1.9,3.2-4.7v-5L244,640.1L244,640.1z"/>
		<path d="M259.9,645.5c0,3.2-1.7,5.6-4.8,5.6c-1.6,0-2.8-0.6-3.6-1.6v5.9H250v-15.3h1.5v1.5c0.8-1.1,2-1.6,3.6-1.6
			C258.1,639.9,259.9,642.2,259.9,645.5z M258.4,645.5c0-2.6-1.3-4.3-3.5-4.3c-2.2,0-3.5,1.7-3.5,4.3c0,2.5,1.2,4.3,3.5,4.3
			C257.2,649.8,258.4,648,258.4,645.5z"/>
		<path d="M265.6,648.6h2v2.4h-2V648.6z"/>
		<path d="M291.6,646.9h-6.4l-1.5,4.1H282l5.7-15.3h1.3l5.7,15.3H293L291.6,646.9z M291.1,645.5l-2.7-7.7l-2.7,7.7H291.1z"/>
		<path d="M317.2,644.3v6.6h-1.5v-6.3c0-2.3-0.7-3.4-2.4-3.4c-2,0-3.2,1.8-3.2,4.8v4.9h-1.5v-10.8h1.5v1.6c0.7-1.1,2-1.8,3.6-1.8
			C315.9,640,317.2,641.4,317.2,644.3z"/>
		<path d="M331.8,646h-7.9c0,2.4,1.4,3.8,3.5,3.8c1.2,0,2.1-0.3,3.1-1.4l1.1,0.9c-1.3,1.3-2.5,1.8-4.2,1.8c-3.3,0-5-2.5-5-5.5
			c0-3.1,1.7-5.7,4.8-5.7c3.3,0,4.7,2.6,4.7,5.1C331.8,645.3,331.8,645.7,331.8,646z M323.8,644.7h6.6c0,0,0-0.2,0-0.4
			c-0.1-1.8-1.2-3.1-3.2-3.1C325.2,641.2,323.9,642.8,323.8,644.7z"/>
		<path d="M341.6,650.9c-0.6,0.2-1.1,0.3-1.7,0.3c-1.5,0-2.5-0.8-2.5-2.7v-7h-1.8v-1.3h1.8v-2.8l1.5-1.1v4h2.6v1.3h-2.6v6.8
			c0,1.1,0.5,1.5,1.3,1.5c0.4,0,0.8-0.1,1.3-0.2L341.6,650.9z"/>
		<path d="M345.7,640.1h1.6l2.3,8.6l2.9-8.6h1.4l2.8,8.6l2.4-8.6h1.6l-3.2,10.8h-1.4l-2.9-8.8l-2.9,8.8h-1.4L345.7,640.1z"/>
		<path d="M364.5,645.5c0-3.2,2.1-5.6,5.2-5.6s5.2,2.4,5.2,5.6c0,3.2-2.1,5.6-5.2,5.6S364.5,648.8,364.5,645.5z M373.4,645.5
			c0-2.5-1.4-4.2-3.7-4.2c-2.3,0-3.7,1.8-3.7,4.2c0,2.5,1.4,4.3,3.7,4.3S373.4,648,373.4,645.5z"/>
		<path d="M386.8,640.4l-0.7,1.2c-0.5-0.2-1-0.3-1.4-0.3c-1.7,0-2.9,1.3-2.9,3.6v6.1h-1.5v-10.8h1.5v1.6c0.8-1.4,2.1-1.8,3.2-1.8
			C385.6,640,386.2,640.1,386.8,640.4z"/>
		<path d="M391.3,635.6h1.5v10.2l5.4-5.7h2l-3.9,4.1l4.6,6.8h-1.8l-3.8-5.8l-2.5,2.6v3.2h-1.5L391.3,635.6L391.3,635.6z"/>
		<path d="M413.3,645.5c0-3.2,2.1-5.6,5.2-5.6s5.2,2.4,5.2,5.6c0,3.2-2.1,5.6-5.2,5.6S413.3,648.8,413.3,645.5z M422.2,645.5
			c0-2.5-1.4-4.2-3.7-4.2c-2.3,0-3.7,1.8-3.7,4.2c0,2.5,1.4,4.3,3.7,4.3C420.8,649.8,422.2,648,422.2,645.5z"/>
		<path d="M429.5,641.4h-2.3v-1.3h2.3v-1.7c0-2.3,1.3-3,2.7-3c0.6,0,1.3,0.1,1.9,0.4l-0.5,1.2c-0.5-0.2-0.9-0.4-1.3-0.4
			c-0.9,0-1.4,0.6-1.4,1.6v1.8h3.1v1.3h-3.1v9.6h-1.5L429.5,641.4L429.5,641.4z"/>
		<path d="M446.6,645.6c0-2.9,1.6-5.6,4.9-5.6c1.9,0,3.5,1,4.4,3l-1.5,0.6c-0.5-1.4-1.6-2.2-2.9-2.2c-2.3,0-3.3,2.1-3.3,4.3
			s1,4.2,3.4,4.2c1.4,0,2.4-0.8,2.9-2.2l1.4,0.5c-0.7,2-2.3,3-4.3,3C448.3,651.2,446.6,648.6,446.6,645.6z"/>
		<path d="M460.1,645.5c0-3.2,2.1-5.6,5.2-5.6s5.2,2.4,5.2,5.6c0,3.2-2.1,5.6-5.2,5.6S460.1,648.8,460.1,645.5z M468.9,645.5
			c0-2.5-1.4-4.2-3.7-4.2c-2.3,0-3.7,1.8-3.7,4.2c0,2.5,1.4,4.3,3.7,4.3C467.6,649.8,468.9,648,468.9,645.5z"/>
		<path d="M484.4,644.3v6.6h-1.5v-6.3c0-2.3-0.7-3.4-2.4-3.4c-2,0-3.2,1.8-3.2,4.8v4.9h-1.5v-10.8h1.5v1.6c0.7-1.1,2-1.8,3.6-1.8
			C483.2,640,484.4,641.4,484.4,644.3z"/>
		<path d="M498.9,644.3v6.6h-1.5v-6.3c0-2.3-0.7-3.4-2.4-3.4c-2,0-3.2,1.8-3.2,4.8v4.9h-1.5v-10.8h1.5v1.6c0.7-1.1,2-1.8,3.6-1.8
			C497.7,640,498.9,641.4,498.9,644.3z"/>
		<path d="M513.5,646h-7.9c0,2.4,1.4,3.8,3.5,3.8c1.2,0,2.1-0.3,3.1-1.4l1.1,0.9c-1.3,1.3-2.5,1.8-4.2,1.8c-3.3,0-5-2.5-5-5.5
			c0-3.1,1.7-5.7,4.8-5.7c3.3,0,4.7,2.6,4.7,5.1C513.6,645.3,513.5,645.7,513.5,646z M505.6,644.7h6.6c0,0,0-0.2,0-0.4
			c-0.1-1.8-1.2-3.1-3.2-3.1C506.9,641.2,505.7,642.8,505.6,644.7z"/>
		<path d="M518.1,645.6c0-2.9,1.6-5.6,4.9-5.6c1.9,0,3.5,1,4.4,3l-1.5,0.6c-0.5-1.4-1.6-2.2-2.9-2.2c-2.3,0-3.3,2.1-3.3,4.3
			s1,4.2,3.4,4.2c1.4,0,2.4-0.8,2.9-2.2l1.4,0.5c-0.7,2-2.3,3-4.3,3C519.8,651.2,518.1,648.6,518.1,645.6z"/>
		<path d="M537.1,650.9c-0.6,0.2-1.1,0.3-1.7,0.3c-1.5,0-2.5-0.8-2.5-2.7v-7h-1.8v-1.3h1.8v-2.8l1.5-1.1v4h2.6v1.3h-2.6v6.8
			c0,1.1,0.5,1.5,1.3,1.5c0.4,0,0.8-0.1,1.3-0.2L537.1,650.9z"/>
		<path d="M541.9,635.6h1.8v2.2h-1.8V635.6z M542,640.1h1.5V651H542V640.1z"/>
		<path d="M548.7,645.5c0-3.2,2.1-5.6,5.2-5.6c3.1,0,5.2,2.4,5.2,5.6c0,3.2-2.1,5.6-5.2,5.6S548.7,648.8,548.7,645.5z M557.6,645.5
			c0-2.5-1.4-4.2-3.7-4.2s-3.7,1.8-3.7,4.2c0,2.5,1.4,4.3,3.7,4.3C556.3,649.8,557.6,648,557.6,645.5z"/>
		<path d="M573.1,644.3v6.6h-1.5v-6.3c0-2.3-0.7-3.4-2.4-3.4c-2,0-3.2,1.8-3.2,4.8v4.9h-1.5v-10.8h1.5v1.6c0.7-1.1,2-1.8,3.6-1.8
			C571.8,640,573.1,641.4,573.1,644.3z"/>
		<path d="M577.9,648.3l1.3-0.6c0.4,1.1,1.5,2.1,3.1,2.1c1.5,0,2.4-0.7,2.4-1.9c0-2.9-6.2-1.1-6.2-4.9c0-1.9,1.5-3.1,3.7-3.1
			c1.7,0,3.1,0.7,3.9,2.3l-1.2,0.7c-0.5-1-1.4-1.6-2.7-1.6s-2.2,0.5-2.2,1.5c0,2.6,6.3,0.9,6.3,5.1c0,2.2-1.8,3.3-3.9,3.3
			C580.2,651.2,578.5,650.1,577.9,648.3z"/>
		<path d="M104.4,688.9c-0.6,0.2-1.1,0.3-1.7,0.3c-1.5,0-2.5-0.8-2.5-2.7v-7h-1.8v-1.3h1.8v-2.8l1.5-1.1v4h2.6v1.3h-2.6v6.8
			c0,1.1,0.5,1.5,1.3,1.5c0.4,0,0.8-0.1,1.3-0.2L104.4,688.9z"/>
		<path d="M117.9,682.3v6.6h-1.5v-6.3c0-2.4-0.7-3.4-2.4-3.4c-2.1,0-3.2,1.7-3.2,4.7v5h-1.5v-15.3h1.5v6.1c0.7-1.1,2-1.8,3.6-1.8
			C116.7,678,117.9,679.4,117.9,682.3z"/>
		<path d="M132.1,682.2v6.8h-1.4l-0.1-1.7c-0.9,1.2-2.2,1.8-3.9,1.8c-2.4,0-3.7-1.2-3.7-3.3c0-1.1,0.4-1.9,1.2-2.4
			c0.8-0.5,2-0.7,4.1-0.7h2.2v-0.5c0-1.9-1-2.9-2.8-2.9c-1.4,0-2.4,0.6-3.3,1.8l-1.1-0.9c1.2-1.5,2.6-2.2,4.4-2.2
			C130.5,678,132.1,679.5,132.1,682.2z M130.5,684.1L130.5,684.1l-2.1-0.1c-2,0-2.9,0.1-3.4,0.5c-0.4,0.3-0.6,0.8-0.6,1.4
			c0,1.2,1,2,2.7,2C129.2,687.9,130.5,686.4,130.5,684.1z"/>
		<path d="M142.3,688.9c-0.6,0.2-1.1,0.3-1.7,0.3c-1.5,0-2.5-0.8-2.5-2.7v-7h-1.8v-1.3h1.8v-2.8l1.5-1.1v4h2.6v1.3h-2.6v6.8
			c0,1.1,0.5,1.5,1.3,1.5c0.4,0,0.8-0.1,1.3-0.2L142.3,688.9z"/>
		<path d="M166,683.5c0,3.2-1.7,5.6-4.8,5.6c-1.6,0-2.8-0.6-3.6-1.6v1.5h-1.5v-15.3h1.5v5.9c0.8-1.1,2-1.6,3.6-1.6
			C164.2,677.9,166,680.2,166,683.5z M164.5,683.5c0-2.6-1.3-4.3-3.5-4.3s-3.5,1.7-3.5,4.3c0,2.5,1.2,4.3,3.5,4.3
			S164.5,686,164.5,683.5z"/>
		<path d="M178,678.4l-0.7,1.2c-0.5-0.2-1-0.3-1.4-0.3c-1.7,0-2.9,1.3-2.9,3.6v6.1h-1.5v-10.8h1.5v1.6c0.8-1.4,2.1-1.8,3.2-1.8
			C176.8,678,177.4,678.1,178,678.4z"/>
		<path d="M181.2,683.5c0-3.2,2.1-5.6,5.2-5.6c3.1,0,5.2,2.4,5.2,5.6c0,3.2-2.1,5.6-5.2,5.6S181.2,686.8,181.2,683.5z M190.1,683.5
			c0-2.5-1.4-4.2-3.7-4.2s-3.7,1.8-3.7,4.2c0,2.5,1.4,4.3,3.7,4.3C188.7,687.8,190.1,686,190.1,683.5z"/>
		<path d="M205.1,682.2v6.8h-1.4l-0.1-1.7c-0.9,1.2-2.2,1.8-3.9,1.8c-2.4,0-3.7-1.2-3.7-3.3c0-1.1,0.4-1.9,1.2-2.4s2-0.7,4.1-0.7
			h2.2v-0.5c0-1.9-1-2.9-2.8-2.9c-1.4,0-2.4,0.6-3.3,1.8l-1.1-0.9c1.2-1.5,2.6-2.2,4.4-2.2C203.5,678,205.1,679.5,205.1,682.2z
			 M203.6,684.1L203.6,684.1l-2.1-0.1c-2,0-2.9,0.1-3.4,0.5c-0.4,0.3-0.6,0.8-0.6,1.4c0,1.2,1,2,2.7,2
			C202.2,687.9,203.6,686.4,203.6,684.1z"/>
		<path d="M220.1,673.6V689h-1.5v-1.5c-0.8,1-2,1.6-3.6,1.6c-3.2,0-4.8-2.4-4.8-5.6c0-3.4,1.8-5.6,4.8-5.6c1.5,0,2.8,0.6,3.6,1.6
			v-5.9H220.1z M218.7,683.5c0-2.6-1.3-4.3-3.5-4.3s-3.5,1.7-3.5,4.3c0,2.5,1.2,4.3,3.5,4.3S218.7,686,218.7,683.5z"/>
		<path d="M234.9,684H227c0,2.4,1.4,3.8,3.5,3.8c1.2,0,2.1-0.3,3.1-1.4l1.1,0.9c-1.3,1.3-2.5,1.8-4.2,1.8c-3.3,0-5-2.5-5-5.5
			c0-3.1,1.7-5.7,4.8-5.7c3.3,0,4.7,2.6,4.7,5.1C235,683.3,235,683.7,234.9,684z M227,682.7h6.6c0,0,0-0.2,0-0.4
			c-0.1-1.8-1.2-3.1-3.2-3.1C228.3,679.2,227.1,680.8,227,682.7z"/>
		<path d="M248.9,682.3v6.6h-1.5v-6.3c0-2.3-0.7-3.4-2.4-3.4c-2,0-3.2,1.8-3.2,4.8v4.9h-1.5v-10.8h1.5v1.6c0.7-1.1,2-1.8,3.6-1.8
			C247.7,678,248.9,679.4,248.9,682.3z"/>
		<path d="M268.1,688.9c-0.6,0.2-1.1,0.3-1.7,0.3c-1.5,0-2.5-0.8-2.5-2.7v-7h-1.8v-1.3h1.8v-2.8l1.5-1.1v4h2.6v1.3h-2.6v6.8
			c0,1.1,0.5,1.5,1.3,1.5c0.4,0,0.8-0.1,1.3-0.2L268.1,688.9z"/>
		<path d="M281.6,682.3v6.6h-1.5v-6.3c0-2.4-0.7-3.4-2.4-3.4c-2.1,0-3.2,1.7-3.2,4.7v5H273v-15.3h1.5v6.1c0.7-1.1,2-1.8,3.6-1.8
			C280.4,678,281.6,679.4,281.6,682.3z"/>
		<path d="M296.2,684h-7.9c0,2.4,1.4,3.8,3.5,3.8c1.2,0,2.1-0.3,3.1-1.4l1.1,0.9c-1.3,1.3-2.5,1.8-4.2,1.8c-3.3,0-5-2.5-5-5.5
			c0-3.1,1.7-5.7,4.8-5.7c3.3,0,4.7,2.6,4.7,5.1C296.3,683.3,296.2,683.7,296.2,684z M288.3,682.7h6.6c0,0,0-0.2,0-0.4
			c-0.1-1.8-1.2-3.1-3.2-3.1C289.6,679.2,288.4,680.8,288.3,682.7z"/>
		<path d="M318.9,682.3v6.6h-1.5v-6.3c0-2.4-0.7-3.4-2.4-3.4c-2.1,0-3.2,1.7-3.2,4.7v5h-1.5v-15.3h1.5v6.1c0.7-1.1,2-1.8,3.6-1.8
			C317.7,678,318.9,679.4,318.9,682.3z"/>
		<path d="M324,683.5c0-3.2,2.1-5.6,5.2-5.6s5.2,2.4,5.2,5.6c0,3.2-2.1,5.6-5.2,5.6S324,686.8,324,683.5z M332.9,683.5
			c0-2.5-1.4-4.2-3.7-4.2c-2.3,0-3.7,1.8-3.7,4.2c0,2.5,1.4,4.3,3.7,4.3S332.9,686,332.9,683.5z"/>
		<path d="M346.3,678.4l-0.7,1.2c-0.5-0.2-1-0.3-1.4-0.3c-1.7,0-2.9,1.3-2.9,3.6v6.1h-1.5v-10.8h1.5v1.6c0.8-1.4,2.1-1.8,3.2-1.8
			C345.1,678,345.7,678.1,346.3,678.4z"/>
		<path d="M350.7,673.6h1.8v2.2h-1.8V673.6z M350.8,678.1h1.5V689h-1.5V678.1z"/>
		<path d="M366.2,679.3l-7.1,8.3h7v1.3h-9v-1.1l7.2-8.4h-6.8v-1.3h8.7L366.2,679.3L366.2,679.3z"/>
		<path d="M370,683.5c0-3.2,2.1-5.6,5.2-5.6s5.2,2.4,5.2,5.6c0,3.2-2.1,5.6-5.2,5.6S370,686.8,370,683.5z M378.9,683.5
			c0-2.5-1.4-4.2-3.7-4.2c-2.3,0-3.7,1.8-3.7,4.2c0,2.5,1.4,4.3,3.7,4.3S378.9,686,378.9,683.5z"/>
		<path d="M394.3,682.3v6.6h-1.5v-6.3c0-2.3-0.7-3.4-2.4-3.4c-2,0-3.2,1.8-3.2,4.8v4.9h-1.5v-10.8h1.5v1.6c0.7-1.1,2-1.8,3.6-1.8
			C393.1,678,394.3,679.4,394.3,682.3z"/>
		<path d="M413.5,688.9c-0.6,0.2-1.1,0.3-1.7,0.3c-1.5,0-2.5-0.8-2.5-2.7v-7h-1.8v-1.3h1.8v-2.8l1.5-1.1v4h2.6v1.3h-2.6v6.8
			c0,1.1,0.5,1.5,1.3,1.5c0.4,0,0.8-0.1,1.3-0.2L413.5,688.9z"/>
		<path d="M417.3,683.5c0-3.2,2.1-5.6,5.2-5.6s5.2,2.4,5.2,5.6c0,3.2-2.1,5.6-5.2,5.6S417.3,686.8,417.3,683.5z M426.2,683.5
			c0-2.5-1.4-4.2-3.7-4.2c-2.3,0-3.7,1.8-3.7,4.2c0,2.5,1.4,4.3,3.7,4.3C424.8,687.8,426.2,686,426.2,683.5z"/>
		<path d="M451.6,683.5c0,3.2-1.7,5.6-4.8,5.6c-1.6,0-2.8-0.6-3.6-1.6v1.5h-1.5v-15.3h1.5v5.9c0.8-1.1,2-1.6,3.6-1.6
			C449.8,677.9,451.6,680.2,451.6,683.5z M450.1,683.5c0-2.6-1.3-4.3-3.5-4.3s-3.5,1.7-3.5,4.3c0,2.5,1.2,4.3,3.5,4.3
			S450.1,686,450.1,683.5z"/>
		<path d="M456.2,683.5c0-3.2,2.1-5.6,5.2-5.6s5.2,2.4,5.2,5.6c0,3.2-2.1,5.6-5.2,5.6S456.2,686.8,456.2,683.5z M465.1,683.5
			c0-2.5-1.4-4.2-3.7-4.2c-2.3,0-3.7,1.8-3.7,4.2c0,2.5,1.4,4.3,3.7,4.3C463.8,687.8,465.1,686,465.1,683.5z"/>
		<path d="M471.8,686.6v-13h1.5v12.9c0,0.7,0.3,1.2,1,1.2c0.3,0,0.7-0.1,1-0.2v1.3c-0.5,0.2-1,0.3-1.5,0.3
			C472.6,689.2,471.8,688.3,471.8,686.6z"/>
		<path d="M489,673.6V689h-1.5v-1.5c-0.8,1-2,1.6-3.6,1.6c-3.2,0-4.8-2.4-4.8-5.6c0-3.4,1.8-5.6,4.8-5.6c1.5,0,2.8,0.6,3.6,1.6v-5.9
			H489z M487.7,683.5c0-2.6-1.3-4.3-3.5-4.3s-3.5,1.7-3.5,4.3c0,2.5,1.2,4.3,3.5,4.3C486.4,687.8,487.7,686,487.7,683.5z"/>
		<path d="M495,686.6v-13h1.5v12.9c0,0.7,0.3,1.2,1,1.2c0.3,0,0.7-0.1,1-0.2v1.3c-0.5,0.2-1,0.3-1.5,0.3
			C495.8,689.2,495,688.3,495,686.6z"/>
		<path d="M506,688.8l-4.6-10.7h1.7l3.7,8.9l3.3-8.9h1.7l-5.9,15.3h-1.6L506,688.8z"/>
		<path d="M524.3,683.6c0-2.9,1.6-5.6,4.9-5.6c1.9,0,3.5,1,4.4,3l-1.5,0.6c-0.5-1.4-1.6-2.2-2.9-2.2c-2.3,0-3.3,2.1-3.3,4.3
			s1,4.2,3.4,4.2c1.4,0,2.4-0.8,2.9-2.2l1.4,0.5c-0.7,2-2.3,3-4.3,3C526,689.2,524.3,686.6,524.3,683.6z"/>
		<path d="M547.2,682.3v6.6h-1.5v-6.3c0-2.4-0.7-3.4-2.4-3.4c-2.1,0-3.2,1.7-3.2,4.7v5h-1.5v-15.3h1.5v6.1c0.7-1.1,2-1.8,3.6-1.8
			C546,678,547.2,679.4,547.2,682.3z"/>
		<path d="M561.3,682.2v6.8h-1.4l-0.1-1.7c-0.9,1.2-2.2,1.8-3.9,1.8c-2.4,0-3.7-1.2-3.7-3.3c0-1.1,0.4-1.9,1.2-2.4s2-0.7,4.1-0.7
			h2.2v-0.5c0-1.9-1-2.9-2.8-2.9c-1.4,0-2.4,0.6-3.3,1.8l-1.1-0.9c1.2-1.5,2.6-2.2,4.4-2.2C559.7,678,561.3,679.5,561.3,682.2z
			 M559.8,684.1L559.8,684.1l-2.1-0.1c-2,0-2.9,0.1-3.4,0.5c-0.4,0.3-0.6,0.8-0.6,1.4c0,1.2,1,2,2.7,2
			C558.5,687.9,559.8,686.4,559.8,684.1z"/>
		<path d="M567.1,686.6v-13h1.5v12.9c0,0.7,0.3,1.2,1,1.2c0.3,0,0.7-0.1,1-0.2v1.3c-0.5,0.2-1,0.3-1.5,0.3
			C567.9,689.2,567.1,688.3,567.1,686.6z"/>
		<path d="M575.2,686.6v-13h1.5v12.9c0,0.7,0.3,1.2,1,1.2c0.3,0,0.7-0.1,1-0.2v1.3c-0.5,0.2-1,0.3-1.5,0.3
			C576,689.2,575.2,688.3,575.2,686.6z"/>
		<path d="M591.9,684H584c0,2.4,1.4,3.8,3.5,3.8c1.2,0,2.1-0.3,3.1-1.4l1.1,0.9c-1.3,1.3-2.5,1.8-4.2,1.8c-3.3,0-5-2.5-5-5.5
			c0-3.1,1.7-5.7,4.8-5.7c3.3,0,4.7,2.6,4.7,5.1C592,683.3,592,683.7,591.9,684z M584,682.7h6.6c0,0,0-0.2,0-0.4
			c-0.1-1.8-1.2-3.1-3.2-3.1C585.3,679.2,584.1,680.8,584,682.7z"/>
		<path d="M605.9,682.3v6.6h-1.5v-6.3c0-2.3-0.7-3.4-2.4-3.4c-2,0-3.2,1.8-3.2,4.8v4.9h-1.5v-10.8h1.5v1.6c0.7-1.1,2-1.8,3.6-1.8
			C604.7,678,605.9,679.4,605.9,682.3z"/>
		<path d="M620.3,690.6c0,2-1.9,3-4.6,3c-3,0-4.8-1.2-4.8-3.3c0-0.2,0-0.4,0-0.5l1.8-1.5c-0.8-0.4-1.4-1-1.4-2.1
			c0-0.9,0.4-1.5,1.2-2.1c-0.6-0.7-0.9-1.5-0.9-2.5c0-2.2,1.8-3.8,4.1-3.8c1.1,0,2,0.3,2.7,0.9l1.5-1.3l0.8,1l-1.5,1.2
			c0.4,0.6,0.6,1.3,0.6,2c0,2.2-1.8,3.7-4.1,3.7c-0.8,0-1.6-0.2-2.2-0.5c-0.4,0.2-0.7,0.6-0.7,1.1c0,1.1,1.4,1.4,2.9,1.6
			C617.7,688,620.3,688.3,620.3,690.6z M618.8,690.8c0-1.3-1.7-1.5-3.5-1.8c-0.5-0.1-1-0.2-1.5-0.3l-1.5,1.4c0,0.1,0,0.2,0,0.2
			c0,1.5,1.6,2,3.4,2C617.6,692.4,618.8,691.8,618.8,690.8z M612.9,681.8c0,1.4,1,2.5,2.6,2.5s2.6-1.1,2.6-2.5c0-1.5-1-2.5-2.6-2.5
			C614,679.2,612.9,680.3,612.9,681.8z"/>
		<path d="M633.9,684H626c0,2.4,1.4,3.8,3.5,3.8c1.2,0,2.1-0.3,3.1-1.4l1.1,0.9c-1.3,1.3-2.5,1.8-4.2,1.8c-3.3,0-5-2.5-5-5.5
			c0-3.1,1.7-5.7,4.8-5.7c3.3,0,4.7,2.6,4.7,5.1C634,683.3,633.9,683.7,633.9,684z M626,682.7h6.6c0,0,0-0.2,0-0.4
			c-0.1-1.8-1.2-3.1-3.2-3.1C627.3,679.2,626.1,680.8,626,682.7z"/>
		<path d="M108.5,722h-7.9c0,2.4,1.4,3.8,3.5,3.8c1.2,0,2.1-0.3,3.1-1.4l1.1,0.9c-1.3,1.3-2.5,1.8-4.2,1.8c-3.3,0-5-2.5-5-5.5
			c0-3.1,1.7-5.7,4.8-5.7c3.3,0,4.7,2.6,4.7,5.1C108.6,721.3,108.5,721.7,108.5,722z M100.5,720.7h6.6c0,0,0-0.2,0-0.4
			c-0.1-1.8-1.2-3.1-3.2-3.1S100.7,718.8,100.5,720.7z"/>
		<path d="M116.1,721.5l-4-5.4h1.8l3.1,4.4l3.1-4.4h1.8l-4,5.4l4,5.4H120l-3.1-4.4L114,727h-1.9L116.1,721.5z"/>
		<path d="M136.8,721.5c0,3.2-1.7,5.6-4.8,5.6c-1.6,0-2.8-0.6-3.6-1.6v5.9h-1.5v-15.3h1.5v1.5c0.8-1.1,2-1.6,3.6-1.6
			C135,715.9,136.8,718.2,136.8,721.5z M135.2,721.5c0-2.6-1.3-4.3-3.5-4.3s-3.5,1.7-3.5,4.3c0,2.5,1.2,4.3,3.5,4.3
			S135.2,724,135.2,721.5z"/>
		<path d="M150.9,722H143c0,2.4,1.4,3.8,3.5,3.8c1.2,0,2.1-0.3,3.1-1.4l1.1,0.9c-1.3,1.3-2.5,1.8-4.2,1.8c-3.3,0-5-2.5-5-5.5
			c0-3.1,1.7-5.7,4.8-5.7c3.3,0,4.7,2.6,4.7,5.1C151,721.3,150.9,721.7,150.9,722z M143,720.7h6.6c0,0,0-0.2,0-0.4
			c-0.1-1.8-1.2-3.1-3.2-3.1C144.3,717.2,143.1,718.8,143,720.7z"/>
		<path d="M155.5,721.6c0-2.9,1.6-5.6,4.9-5.6c1.9,0,3.5,1,4.4,3l-1.5,0.6c-0.5-1.4-1.6-2.2-2.9-2.2c-2.3,0-3.3,2.1-3.3,4.3
			s1,4.2,3.4,4.2c1.4,0,2.4-0.8,2.9-2.2l1.4,0.5c-0.7,2-2.3,3-4.3,3C157.2,727.2,155.5,724.6,155.5,721.6z"/>
		<path d="M174.5,726.9c-0.6,0.2-1.1,0.3-1.7,0.3c-1.5,0-2.5-0.8-2.5-2.7v-7h-1.8v-1.3h1.8v-2.8l1.5-1.1v4h2.6v1.3h-2.6v6.8
			c0,1.1,0.5,1.5,1.3,1.5c0.4,0,0.8-0.1,1.3-0.2L174.5,726.9z"/>
		<path d="M187.9,720.2v6.8h-1.4l-0.1-1.7c-0.9,1.2-2.2,1.8-3.9,1.8c-2.4,0-3.7-1.2-3.7-3.3c0-1.1,0.4-1.9,1.2-2.4s2-0.7,4.1-0.7
			h2.2v-0.5c0-1.9-1-2.9-2.8-2.9c-1.4,0-2.4,0.6-3.3,1.8l-1.1-0.9c1.2-1.5,2.6-2.2,4.4-2.2C186.3,716,187.9,717.5,187.9,720.2z
			 M186.3,722.1L186.3,722.1l-2.1-0.1c-2,0-2.9,0.1-3.4,0.5c-0.4,0.3-0.6,0.8-0.6,1.4c0,1.2,1,2,2.7,2
			C185,725.9,186.3,724.4,186.3,722.1z"/>
		<path d="M198.1,726.9c-0.6,0.2-1.1,0.3-1.7,0.3c-1.5,0-2.5-0.8-2.5-2.7v-7h-1.8v-1.3h1.8v-2.8l1.5-1.1v4h2.6v1.3h-2.6v6.8
			c0,1.1,0.5,1.5,1.3,1.5c0.4,0,0.8-0.1,1.3-0.2L198.1,726.9z"/>
		<path d="M202.8,711.6h1.8v2.2h-1.8V711.6z M203,716.1h1.5V727H203V716.1z"/>
		<path d="M209.7,721.5c0-3.2,2.1-5.6,5.2-5.6c3.1,0,5.2,2.4,5.2,5.6c0,3.2-2.1,5.6-5.2,5.6S209.7,724.8,209.7,721.5z M218.6,721.5
			c0-2.5-1.4-4.2-3.7-4.2s-3.7,1.8-3.7,4.2c0,2.5,1.4,4.3,3.7,4.3C217.2,725.8,218.6,724,218.6,721.5z"/>
		<path d="M234,720.3v6.6h-1.5v-6.3c0-2.3-0.7-3.4-2.4-3.4c-2,0-3.2,1.8-3.2,4.8v4.9h-1.5v-10.8h1.5v1.6c0.7-1.1,2-1.8,3.6-1.8
			C232.8,716,234,717.4,234,720.3z"/>
		<path d="M238.9,724.3l1.3-0.6c0.4,1.1,1.5,2.1,3.1,2.1c1.5,0,2.4-0.7,2.4-1.9c0-2.9-6.2-1.1-6.2-4.9c0-1.9,1.5-3.1,3.7-3.1
			c1.7,0,3.1,0.7,3.9,2.3l-1.2,0.7c-0.5-1-1.4-1.6-2.7-1.6s-2.2,0.5-2.2,1.5c0,2.6,6.3,0.9,6.3,5.1c0,2.2-1.8,3.3-3.9,3.3
			C241.2,727.2,239.4,726.1,238.9,724.3z"/>
		<path d="M269.3,720.2v6.8h-1.4l-0.1-1.7c-0.9,1.2-2.2,1.8-3.9,1.8c-2.4,0-3.7-1.2-3.7-3.3c0-1.1,0.4-1.9,1.2-2.4
			c0.8-0.5,2-0.7,4.1-0.7h2.2v-0.5c0-1.9-1-2.9-2.8-2.9c-1.4,0-2.4,0.6-3.3,1.8l-1.1-0.9c1.2-1.5,2.6-2.2,4.4-2.2
			C267.7,716,269.3,717.5,269.3,720.2z M267.8,722.1L267.8,722.1l-2.1-0.1c-2,0-2.9,0.1-3.4,0.5c-0.4,0.3-0.6,0.8-0.6,1.4
			c0,1.2,1,2,2.7,2C266.4,725.9,267.8,724.4,267.8,722.1z"/>
		<path d="M283.8,720.3v6.6h-1.5v-6.3c0-2.3-0.7-3.4-2.4-3.4c-2,0-3.2,1.8-3.2,4.8v4.9h-1.5v-10.8h1.5v1.6c0.7-1.1,2-1.8,3.6-1.8
			C282.6,716,283.8,717.4,283.8,720.3z"/>
		<path d="M298.9,711.6V727h-1.5v-1.5c-0.8,1-2,1.6-3.6,1.6c-3.2,0-4.8-2.4-4.8-5.6c0-3.4,1.8-5.6,4.8-5.6c1.5,0,2.8,0.6,3.6,1.6
			v-5.9H298.9z M297.5,721.5c0-2.6-1.3-4.3-3.5-4.3s-3.5,1.7-3.5,4.3c0,2.5,1.2,4.3,3.5,4.3S297.5,724,297.5,721.5z"/>
		<path d="M312.9,721.6c0-2.9,1.6-5.6,4.9-5.6c1.9,0,3.5,1,4.4,3l-1.5,0.6c-0.5-1.4-1.6-2.2-2.9-2.2c-2.3,0-3.3,2.1-3.3,4.3
			s1,4.2,3.4,4.2c1.4,0,2.4-0.8,2.9-2.2l1.4,0.5c-0.7,2-2.3,3-4.3,3C314.7,727.2,312.9,724.6,312.9,721.6z"/>
		<path d="M333.8,716.4l-0.7,1.2c-0.5-0.2-1-0.3-1.4-0.3c-1.7,0-2.9,1.3-2.9,3.6v6.1h-1.5v-10.8h1.5v1.6c0.8-1.4,2.1-1.8,3.2-1.8
			C332.6,716,333.2,716.1,333.8,716.4z"/>
		<path d="M346.5,722h-7.9c0,2.4,1.4,3.8,3.5,3.8c1.2,0,2.1-0.3,3.1-1.4l1.1,0.9c-1.3,1.3-2.5,1.8-4.2,1.8c-3.3,0-5-2.5-5-5.5
			c0-3.1,1.7-5.7,4.8-5.7c3.3,0,4.7,2.6,4.7,5.1C346.6,721.3,346.6,721.7,346.5,722z M338.6,720.7h6.6c0,0,0-0.2,0-0.4
			c-0.1-1.8-1.2-3.1-3.2-3.1C339.9,717.2,338.7,718.8,338.6,720.7z"/>
		<path d="M360,720.2v6.8h-1.4l-0.1-1.7c-0.9,1.2-2.2,1.8-3.9,1.8c-2.4,0-3.7-1.2-3.7-3.3c0-1.1,0.4-1.9,1.2-2.4
			c0.8-0.5,2-0.7,4.1-0.7h2.2v-0.5c0-1.9-1-2.9-2.8-2.9c-1.4,0-2.4,0.6-3.3,1.8l-1.1-0.9c1.2-1.5,2.6-2.2,4.4-2.2
			C358.4,716,360,717.5,360,720.2z M358.5,722.1L358.5,722.1l-2.1-0.1c-2,0-2.9,0.1-3.4,0.5c-0.4,0.3-0.6,0.8-0.6,1.4
			c0,1.2,1,2,2.7,2C357.1,725.9,358.5,724.4,358.5,722.1z"/>
		<path d="M370.2,726.9c-0.6,0.2-1.1,0.3-1.7,0.3c-1.5,0-2.5-0.8-2.5-2.7v-7h-1.8v-1.3h1.8v-2.8l1.5-1.1v4h2.6v1.3h-2.6v6.8
			c0,1.1,0.5,1.5,1.3,1.5c0.4,0,0.8-0.1,1.3-0.2L370.2,726.9z"/>
		<path d="M383.6,722h-7.9c0,2.4,1.4,3.8,3.5,3.8c1.2,0,2.1-0.3,3.1-1.4l1.1,0.9c-1.3,1.3-2.5,1.8-4.2,1.8c-3.3,0-5-2.5-5-5.5
			c0-3.1,1.7-5.7,4.8-5.7c3.3,0,4.7,2.6,4.7,5.1C383.6,721.3,383.6,721.7,383.6,722z M375.6,720.7h6.6c0,0,0-0.2,0-0.4
			c-0.1-1.8-1.2-3.1-3.2-3.1S375.8,718.8,375.6,720.7z"/>
		<path d="M396.5,724.3l1.3-0.6c0.4,1.1,1.5,2.1,3.1,2.1c1.5,0,2.4-0.7,2.4-1.9c0-2.9-6.2-1.1-6.2-4.9c0-1.9,1.5-3.1,3.7-3.1
			c1.7,0,3.1,0.7,3.9,2.3l-1.2,0.7c-0.5-1-1.4-1.6-2.7-1.6c-1.3,0-2.2,0.5-2.2,1.5c0,2.6,6.3,0.9,6.3,5.1c0,2.2-1.8,3.3-3.9,3.3
			C398.8,727.2,397,726.1,396.5,724.3z"/>
		<path d="M409.3,721.6c0-2.9,1.6-5.6,4.9-5.6c1.9,0,3.5,1,4.4,3l-1.5,0.6c-0.5-1.4-1.6-2.2-2.9-2.2c-2.3,0-3.3,2.1-3.3,4.3
			s1,4.2,3.4,4.2c1.4,0,2.4-0.8,2.9-2.2l1.4,0.5c-0.7,2-2.3,3-4.3,3C411,727.2,409.3,724.6,409.3,721.6z"/>
		<path d="M432.2,722h-7.9c0,2.4,1.4,3.8,3.5,3.8c1.2,0,2.1-0.3,3.1-1.4l1.1,0.9c-1.3,1.3-2.5,1.8-4.2,1.8c-3.3,0-5-2.5-5-5.5
			c0-3.1,1.7-5.7,4.8-5.7c3.3,0,4.7,2.6,4.7,5.1C432.3,721.3,432.3,721.7,432.2,722z M424.3,720.7h6.6c0,0,0-0.2,0-0.4
			c-0.1-1.8-1.2-3.1-3.2-3.1C425.6,717.2,424.4,718.8,424.3,720.7z"/>
		<path d="M446.2,720.3v6.6h-1.5v-6.3c0-2.3-0.7-3.4-2.4-3.4c-2,0-3.2,1.8-3.2,4.8v4.9h-1.5v-10.8h1.5v1.6c0.7-1.1,2-1.8,3.6-1.8
			C445,716,446.2,717.4,446.2,720.3z"/>
		<path d="M460.3,720.2v6.8H459l-0.1-1.7c-0.9,1.2-2.2,1.8-3.9,1.8c-2.4,0-3.7-1.2-3.7-3.3c0-1.1,0.4-1.9,1.2-2.4
			c0.8-0.5,2-0.7,4.1-0.7h2.2v-0.5c0-1.9-1-2.9-2.8-2.9c-1.4,0-2.4,0.6-3.3,1.8l-1.1-0.9c1.2-1.5,2.6-2.2,4.4-2.2
			C458.8,716,460.3,717.5,460.3,720.2z M458.8,722.1L458.8,722.1l-2.1-0.1c-2,0-2.9,0.1-3.4,0.5c-0.4,0.3-0.6,0.8-0.6,1.4
			c0,1.2,1,2,2.7,2C457.5,725.9,458.8,724.4,458.8,722.1z"/>
		<path d="M472.8,716.4l-0.7,1.2c-0.5-0.2-1-0.3-1.4-0.3c-1.7,0-2.9,1.3-2.9,3.6v6.1h-1.5v-10.8h1.5v1.6c0.8-1.4,2.1-1.8,3.2-1.8
			C471.6,716,472.2,716.1,472.8,716.4z"/>
		<path d="M477.2,711.6h1.8v2.2h-1.8V711.6z M477.3,716.1h1.5V727h-1.5V716.1z"/>
		<path d="M484.1,721.5c0-3.2,2.1-5.6,5.2-5.6s5.2,2.4,5.2,5.6c0,3.2-2.1,5.6-5.2,5.6S484.1,724.8,484.1,721.5z M493,721.5
			c0-2.5-1.4-4.2-3.7-4.2c-2.3,0-3.7,1.8-3.7,4.2c0,2.5,1.4,4.3,3.7,4.3S493,724,493,721.5z"/>
		<path d="M498.7,724.3l1.3-0.6c0.4,1.1,1.5,2.1,3.1,2.1c1.5,0,2.4-0.7,2.4-1.9c0-2.9-6.2-1.1-6.2-4.9c0-1.9,1.5-3.1,3.7-3.1
			c1.7,0,3.1,0.7,3.9,2.3l-1.2,0.7c-0.5-1-1.4-1.6-2.7-1.6c-1.3,0-2.2,0.5-2.2,1.5c0,2.6,6.3,0.9,6.3,5.1c0,2.2-1.8,3.3-3.9,3.3
			C501,727.2,499.2,726.1,498.7,724.3z"/>
		<path d="M104.4,764.9c-0.6,0.2-1.1,0.3-1.7,0.3c-1.5,0-2.5-0.8-2.5-2.7v-7h-1.8v-1.3h1.8v-2.8l1.5-1.1v4h2.6v1.3h-2.6v6.8
			c0,1.1,0.5,1.5,1.3,1.5c0.4,0,0.8-0.1,1.3-0.2L104.4,764.9z"/>
		<path d="M117.9,758.3v6.6h-1.5v-6.3c0-2.4-0.7-3.4-2.4-3.4c-2.1,0-3.2,1.7-3.2,4.7v5h-1.5v-15.3h1.5v6.1c0.7-1.1,2-1.8,3.6-1.8
			C116.7,754,117.9,755.4,117.9,758.3z"/>
		<path d="M132.1,758.2v6.8h-1.4l-0.1-1.7c-0.9,1.2-2.2,1.8-3.9,1.8c-2.4,0-3.7-1.2-3.7-3.3c0-1.1,0.4-1.9,1.2-2.4
			c0.8-0.5,2-0.7,4.1-0.7h2.2v-0.5c0-1.9-1-2.9-2.8-2.9c-1.4,0-2.4,0.6-3.3,1.8l-1.1-0.9c1.2-1.5,2.6-2.2,4.4-2.2
			C130.5,754,132.1,755.5,132.1,758.2z M130.5,760.1L130.5,760.1l-2.1-0.1c-2,0-2.9,0.1-3.4,0.5c-0.4,0.3-0.6,0.8-0.6,1.4
			c0,1.2,1,2,2.7,2C129.2,763.9,130.5,762.4,130.5,760.1z"/>
		<path d="M142.3,764.9c-0.6,0.2-1.1,0.3-1.7,0.3c-1.5,0-2.5-0.8-2.5-2.7v-7h-1.8v-1.3h1.8v-2.8l1.5-1.1v4h2.6v1.3h-2.6v6.8
			c0,1.1,0.5,1.5,1.3,1.5c0.4,0,0.8-0.1,1.3-0.2L142.3,764.9z"/>
		<path d="M160.6,764.9c-0.6,0.2-1.1,0.3-1.7,0.3c-1.5,0-2.5-0.8-2.5-2.7v-7h-1.8v-1.3h1.8v-2.8l1.5-1.1v4h2.6v1.3H158v6.8
			c0,1.1,0.5,1.5,1.3,1.5c0.4,0,0.8-0.1,1.3-0.2V764.9z"/>
		<path d="M172.1,754.4l-0.7,1.2c-0.5-0.2-1-0.3-1.4-0.3c-1.7,0-2.9,1.3-2.9,3.6v6.1h-1.5v-10.8h1.5v1.6c0.8-1.4,2.1-1.8,3.2-1.8
			C170.9,754,171.5,754.1,172.1,754.4z"/>
		<path d="M184.6,758.2v6.8h-1.4l-0.1-1.7c-0.9,1.2-2.2,1.8-3.9,1.8c-2.4,0-3.7-1.2-3.7-3.3c0-1.1,0.4-1.9,1.2-2.4s2-0.7,4.1-0.7
			h2.2v-0.5c0-1.9-1-2.9-2.8-2.9c-1.4,0-2.4,0.6-3.3,1.8l-1.1-0.9c1.2-1.5,2.6-2.2,4.4-2.2C183,754,184.6,755.5,184.6,758.2z
			 M183.1,760.1L183.1,760.1L181,760c-2,0-2.9,0.1-3.4,0.5c-0.4,0.3-0.6,0.8-0.6,1.4c0,1.2,1,2,2.7,2
			C181.8,763.9,183.1,762.4,183.1,760.1z"/>
		<path d="M199.1,758.3v6.6h-1.5v-6.3c0-2.3-0.7-3.4-2.4-3.4c-2,0-3.2,1.8-3.2,4.8v4.9h-1.5v-10.8h1.5v1.6c0.7-1.1,2-1.8,3.6-1.8
			C197.9,754,199.1,755.4,199.1,758.3z"/>
		<path d="M203.9,762.3l1.3-0.6c0.4,1.1,1.5,2.1,3.1,2.1c1.5,0,2.4-0.7,2.4-1.9c0-2.9-6.2-1.1-6.2-4.9c0-1.9,1.5-3.1,3.7-3.1
			c1.7,0,3.1,0.7,3.9,2.3l-1.2,0.7c-0.5-1-1.4-1.6-2.7-1.6s-2.2,0.5-2.2,1.5c0,2.6,6.3,0.9,6.3,5.1c0,2.2-1.8,3.3-3.9,3.3
			C206.3,765.2,204.5,764.1,203.9,762.3z"/>
		<path d="M216.7,759.6c0-2.9,1.6-5.6,4.9-5.6c1.9,0,3.5,1,4.4,3l-1.5,0.6c-0.5-1.4-1.6-2.2-2.9-2.2c-2.3,0-3.3,2.1-3.3,4.3
			s1,4.2,3.4,4.2c1.4,0,2.4-0.8,2.9-2.2l1.4,0.5c-0.7,2-2.3,3-4.3,3C218.5,765.2,216.7,762.6,216.7,759.6z"/>
		<path d="M239.7,760h-7.9c0,2.4,1.4,3.8,3.5,3.8c1.2,0,2.1-0.3,3.1-1.4l1.1,0.9c-1.3,1.3-2.5,1.8-4.2,1.8c-3.3,0-5-2.5-5-5.5
			c0-3.1,1.7-5.7,4.8-5.7c3.3,0,4.7,2.6,4.7,5.1C239.8,759.3,239.8,759.7,239.7,760z M231.8,758.7h6.6c0,0,0-0.2,0-0.4
			c-0.1-1.8-1.2-3.1-3.2-3.1C233.1,755.2,231.9,756.8,231.8,758.7z"/>
		<path d="M253.7,758.3v6.6h-1.5v-6.3c0-2.3-0.7-3.4-2.4-3.4c-2,0-3.2,1.8-3.2,4.8v4.9H245v-10.8h1.5v1.6c0.7-1.1,2-1.8,3.6-1.8
			C252.5,754,253.7,755.4,253.7,758.3z"/>
		<path d="M268.8,749.6V765h-1.5v-1.5c-0.8,1-2,1.6-3.6,1.6c-3.2,0-4.8-2.4-4.8-5.6c0-3.4,1.8-5.6,4.8-5.6c1.5,0,2.8,0.6,3.6,1.6
			v-5.9H268.8z M267.4,759.5c0-2.6-1.3-4.3-3.5-4.3s-3.5,1.7-3.5,4.3c0,2.5,1.2,4.3,3.5,4.3C266.2,763.8,267.4,762,267.4,759.5z"/>
		<path d="M293.7,759.5c0,3.2-1.7,5.6-4.8,5.6c-1.6,0-2.8-0.6-3.6-1.6v1.5h-1.5v-15.3h1.5v5.9c0.8-1.1,2-1.6,3.6-1.6
			C291.9,753.9,293.7,756.2,293.7,759.5z M292.1,759.5c0-2.6-1.3-4.3-3.5-4.3s-3.5,1.7-3.5,4.3c0,2.5,1.2,4.3,3.5,4.3
			S292.1,762,292.1,759.5z"/>
		<path d="M298.3,759.5c0-3.2,2.1-5.6,5.2-5.6s5.2,2.4,5.2,5.6c0,3.2-2.1,5.6-5.2,5.6S298.3,762.8,298.3,759.5z M307.1,759.5
			c0-2.5-1.4-4.2-3.7-4.2c-2.3,0-3.7,1.8-3.7,4.2c0,2.5,1.4,4.3,3.7,4.3C305.8,763.8,307.1,762,307.1,759.5z"/>
		<path d="M322.4,754.1V765h-1.5v-1.6c-0.8,1.2-2.2,1.7-3.6,1.7c-2.5,0-3.5-1.7-3.5-4.4v-6.6h1.5v6.3c0,1.8,0.3,3.4,2.4,3.4
			c2.2,0,3.2-1.9,3.2-4.7v-5L322.4,754.1L322.4,754.1z"/>
		<path d="M337,758.3v6.6h-1.5v-6.3c0-2.3-0.7-3.4-2.4-3.4c-2,0-3.2,1.8-3.2,4.8v4.9h-1.5v-10.8h1.5v1.6c0.7-1.1,2-1.8,3.6-1.8
			C335.8,754,337,755.4,337,758.3z"/>
		<path d="M352.1,749.6V765h-1.5v-1.5c-0.8,1-2,1.6-3.6,1.6c-3.2,0-4.8-2.4-4.8-5.6c0-3.4,1.8-5.6,4.8-5.6c1.5,0,2.8,0.6,3.6,1.6
			v-5.9H352.1z M350.8,759.5c0-2.6-1.3-4.3-3.5-4.3s-3.5,1.7-3.5,4.3c0,2.5,1.2,4.3,3.5,4.3C349.6,763.8,350.8,762,350.8,759.5z"/>
		<path d="M366.5,758.2v6.8h-1.4l-0.1-1.7c-0.9,1.2-2.2,1.8-3.9,1.8c-2.4,0-3.7-1.2-3.7-3.3c0-1.1,0.4-1.9,1.2-2.4
			c0.8-0.5,2-0.7,4.1-0.7h2.2v-0.5c0-1.9-1-2.9-2.8-2.9c-1.4,0-2.4,0.6-3.3,1.8l-1.1-0.9c1.2-1.5,2.6-2.2,4.4-2.2
			C364.9,754,366.5,755.5,366.5,758.2z M364.9,760.1L364.9,760.1l-2.1-0.1c-2,0-2.9,0.1-3.4,0.5c-0.4,0.3-0.6,0.8-0.6,1.4
			c0,1.2,1,2,2.7,2C363.6,763.9,364.9,762.4,364.9,760.1z"/>
		<path d="M378.9,754.4l-0.7,1.2c-0.5-0.2-1-0.3-1.4-0.3c-1.7,0-2.9,1.3-2.9,3.6v6.1h-1.5v-10.8h1.5v1.6c0.8-1.4,2.1-1.8,3.2-1.8
			C377.7,754,378.3,754.1,378.9,754.4z"/>
		<path d="M383.3,749.6h1.8v2.2h-1.8V749.6z M383.4,754.1h1.5V765h-1.5V754.1z"/>
		<path d="M399.7,760h-7.9c0,2.4,1.4,3.8,3.5,3.8c1.2,0,2.1-0.3,3.1-1.4l1.1,0.9c-1.3,1.3-2.5,1.8-4.2,1.8c-3.3,0-5-2.5-5-5.5
			c0-3.1,1.7-5.7,4.8-5.7c3.3,0,4.7,2.6,4.7,5.1C399.8,759.3,399.7,759.7,399.7,760z M391.7,758.7h6.6c0,0,0-0.2,0-0.4
			c-0.1-1.8-1.2-3.1-3.2-3.1S391.9,756.8,391.7,758.7z"/>
		<path d="M403.9,762.3l1.3-0.6c0.4,1.1,1.5,2.1,3.1,2.1c1.5,0,2.4-0.7,2.4-1.9c0-2.9-6.2-1.1-6.2-4.9c0-1.9,1.5-3.1,3.7-3.1
			c1.7,0,3.1,0.7,3.9,2.3l-1.2,0.7c-0.5-1-1.4-1.6-2.7-1.6c-1.3,0-2.2,0.5-2.2,1.5c0,2.6,6.3,0.9,6.3,5.1c0,2.2-1.8,3.3-3.9,3.3
			C406.2,765.2,404.5,764.1,403.9,762.3z"/>
		<path d="M418.2,762.6h2v2.4h-2V762.6z"/>
	</g>
</g>
</svg>
