<?xml version="1.0" encoding="utf-8"?>
<!-- Generator: Adobe Illustrator 26.5.0, SVG Export Plug-In . SVG Version: 6.00 Build 0)  -->
<svg version="1.1" id="Livello_1" xmlns="http://www.w3.org/2000/svg" xmlns:xlink="http://www.w3.org/1999/xlink" x="0px" y="0px"
	 viewBox="0 0 750 900" style="enable-background:new 0 0 750 900;" xml:space="preserve">
<style type="text/css">
	.st0{fill:#E6E6E6;}
	.st1{fill:#4DC4A4;}
	.st2{fill:#C1E0D9;}
	.st3{fill:#FFFFFF;}
</style>
<g>
	<rect x="155.5" class="st0" width="439" height="439"/>
	<g>
		<path d="M235.3,297.4v3.5h-3v-4.2l-3.5-0.8v3.6h-3.1v-4.3l-5.9-1.5v-3.3l6,1.5v-3.4l-6-1.4v-3.3l6,1.5v-3.5h3v4.2l3.5,0.8v-3.7h3
			v4.3l6.3,1.4v3.3l-6.3-1.4v3.4l6.3,1.4v3.3L235.3,297.4z M232.4,290l-3.5-0.7v3.4l3.5,0.7V290z"/>
		<path d="M233.9,278.9l-13.9-0.1v-4.4l13.4,0.1c3.3,0,4.8-0.8,4.8-4s-1.4-4.1-4.7-4.1l-13.5-0.1v-4.4l13.8,0.1
			c5.7,0.1,8.5,3,8.5,8.6C242.3,276.1,239.5,279,233.9,278.9z"/>
		<path d="M220.3,239.6l21.8,0.2v4.5l-14.3,8.5l14.2,0.1v4.4l-21.8-0.2v-4.5l14.2-8.6l-14.1-0.1L220.3,239.6z"/>
		<path d="M220.4,234.6v-4.4l21.8,0.2v4.4L220.4,234.6z"/>
		<path d="M244.4,207.3l-3.1,3.2c1.1,1.7,1.7,3.7,1.7,6c-0.1,6.2-4.7,10.5-11.5,10.4c-6.9-0.1-11.4-4.4-11.4-10.7
			c0.1-6.3,4.7-10.5,11.6-10.5c2.8,0,5.2,0.8,7.1,2l3.2-3.2L244.4,207.3z M238.1,213.7l-2.6,2.6l-2.7-2.6l2.6-2.6
			c-1.1-0.5-2.4-0.8-3.9-0.8c-4.5,0-7.3,2.3-7.3,6.1c0,3.7,2.7,6.2,7.2,6.2s7.2-2.3,7.3-6.1C238.7,215.4,238.5,214.5,238.1,213.7z"
			/>
		<path d="M234.6,202l-13.9-0.1v-4.4l13.4,0.1c3.3,0,4.8-0.8,4.8-4s-1.4-4.1-4.7-4.1l-13.5-0.1V185l13.8,0.1c5.7,0.1,8.5,3,8.5,8.6
			C243.1,199.2,240.3,202.1,234.6,202z"/>
		<path d="M220.9,180.4l0.1-14.6h4V176h4.5l0.1-9.5h4.1l-0.1,9.5h5.2l0.1-10.2h4.1l-0.1,14.6L220.9,180.4z"/>
		<path d="M221.2,144l21.8,0.2v4.5l-14.3,8.5l14.2,0.1v4.4l-21.8-0.2V157l14.2-8.6l-14.1-0.1L221.2,144z"/>
		<path d="M221.3,138.9l0.1-14.6h4l-0.1,10.2h4.5l0.1-9.5h4.1l-0.1,9.5h5.2l0.1-10.2h4.1l-0.1,14.6L221.3,138.9z"/>
		<path d="M237,122.4l-1.1-4.4c2.6-0.2,3.9-1.9,4-4.2c0-1.9-0.9-3.3-2.7-3.3c-1.3,0-2.1,1-3.4,4.1c-1.9,4.6-3.6,6.2-6.9,6.2
			c-3.6,0-6-2.8-6-7c0-3,1.4-5.4,4.2-6.7l2.2,3.7c-1.6,0.7-2.5,1.9-2.5,3.2c0,1.3,0.9,2.4,2,2.4c1.3,0,2-0.9,3.3-4.1
			c1.9-4.6,3.5-6.2,6.6-6.1c4.2,0,7,3.4,6.9,7.8C243.7,118.3,241,121.8,237,122.4z"/>
		<path d="M237.1,105.1l-1.1-4.4c2.6-0.2,3.9-1.9,4-4.2c0-1.9-0.9-3.3-2.7-3.3c-1.3,0-2.1,1-3.4,4.1c-1.9,4.6-3.6,6.2-6.9,6.2
			c-3.6,0-6-2.8-6-7c0-3,1.4-5.4,4.2-6.7l2.2,3.7c-1.6,0.7-2.5,1.9-2.5,3.2c0,1.3,0.9,2.4,2,2.4c1.3,0,2-0.9,3.3-4.1
			c1.9-4.6,3.5-6.2,6.6-6.1c4.2,0,7,3.4,6.9,7.8C243.9,101.1,241.2,104.5,237.1,105.1z"/>
	</g>
	<g>
		<path d="M523.8,100c6.9,0,11.4,4.3,11.4,10.6c0,6.3-4.6,10.6-11.5,10.5c-6.9,0-11.4-4.4-11.4-10.6C512.4,104.3,517,100,523.8,100z
			 M523.7,116.7c4.5,0,7.2-2.4,7.3-6.1c0-3.7-2.7-6.1-7.2-6.2c-4.5,0-7.2,2.4-7.2,6.1C516.5,114.3,519.3,116.7,523.7,116.7z"/>
		<path d="M534.6,124.6v15.6h-4V129h-4.5v9.9H522V129h-9.2v-4.4H534.6z"/>
		<path d="M530.6,148.5v-6.6h4v17.7h-4V153h-17.8v-4.4L530.6,148.5z"/>
		<path d="M517,172.1v-8.4l-4.1-1.5v-4.8l21.8,8.8v3.3l-21.8,8.9v-4.8L517,172.1z M521,170.6l7.1-2.7l-7.1-2.7V170.6z"/>
		<path d="M534.7,180.6v4.4l-17.7,0.1l0.1,9.1H513l-0.1-13.6H534.7z"/>
		<path d="M534.8,196.7l0.1,14.6h-4l-0.1-10.2h-4.5l0.1,9.5h-4.1l-0.1-9.5H517l0.1,10.2H513l-0.1-14.6H534.8z"/>
		<path d="M535.2,233.1l-21.8,0.3l-0.1-4.5l14.1-8.8l-14.2,0.2l-0.1-4.4l21.8-0.3l0.1,4.5l-14,8.9l14.1-0.2L535.2,233.1z"/>
		<path d="M531.3,242.2l-0.1-6.6l4-0.1l0.2,17.7l-4,0.1l-0.1-6.6l-17.8,0.3l-0.1-4.4L531.3,242.2z"/>
		<path d="M520,253.8l1.2,4.4c-2.6,0.3-3.9,2-3.8,4.3c0,1.9,1,3.2,2.7,3.2c1.3,0,2.1-1.1,3.2-4.2c1.8-4.6,3.4-6.3,6.7-6.4
			c3.6-0.1,6.1,2.7,6.2,6.8c0,3-1.3,5.4-4,6.8l-2.3-3.6c1.6-0.7,2.4-1.9,2.4-3.3c0-1.3-0.9-2.4-2.1-2.4c-1.3,0-2,1-3.2,4.2
			c-1.7,4.7-3.3,6.3-6.4,6.3c-4.2,0.1-7.1-3.2-7.1-7.6C513.3,258,515.9,254.5,520,253.8z"/>
	</g>
	<g>
		<g>
			<polygon class="st1" points="440,331.4 437.8,340.4 434.6,331.6 			"/>
			<path d="M437.8,341.8l-3.7-10.6l6.5-0.3L437.8,341.8z M435.2,332l2.5,7l1.8-7.2L435.2,332z"/>
		</g>
		<g>
			<path d="M272.6,28.9c-2.7,10.1-4.7,20.4-6.4,30.7c-0.4,2.4-0.8,4.8-1.2,7.2c-0.1,0.8,1.1,1.1,1.2,0.3c1.5-9.7,3.2-19.5,5.4-29.1
				c0.7-3,1.4-5.9,2.2-8.9C274,28.5,272.8,28.2,272.6,28.9L272.6,28.9z"/>
			<path d="M272.6,29.3c1,2.4,1.9,4.9,2.8,7.4c2.1,5.8,4,11.7,5.6,17.6c1.1,3.9,2.1,7.9,3,11.9c0.2,0.8,1.3,0.4,1.2-0.3
				c-1.5-6.9-3.4-13.7-5.5-20.5c-1.5-4.7-3.1-9.4-4.9-14c-0.3-0.8-0.6-1.7-1-2.5C273.5,28.2,272.3,28.5,272.6,29.3L272.6,29.3z"/>
			<path d="M325.9,56.8c-2.2,4.7-4.3,9.5-6.2,14.4c-2.1,5.2-4,10.5-5.7,15.8c-0.8,2.4-1.5,4.8-2,7.3c-0.2,0.8,1,1.1,1.2,0.3
				c1-4.7,2.6-9.3,4.2-13.9c1.9-5.3,4-10.6,6.2-15.8c1.1-2.5,2.2-5,3.4-7.5C327.3,56.7,326.2,56.1,325.9,56.8L325.9,56.8z"/>
			<path d="M313.1,278.7c1.2,2.8,2.5,5.7,3.7,8.5c2.7,6.1,5.6,12.2,8.5,18.2c1.7,3.5,3.5,7,5.4,10.4c0.3,0.5,1,0.3,1.1-0.1
				c1.7-5.4,3.3-10.7,4.9-16.1c1.7-5.6,3.3-11.2,4.7-16.9c0.5-2.1,1-4.3,1.2-6.4c0.1-0.8-1.1-0.8-1.2,0c-0.2,1.7-0.6,3.6-1,5.4
				c-0.6,2.6-1.3,5.2-2,7.7c-1.6,5.9-3.4,11.8-5.2,17.7c-0.9,2.8-1.7,5.6-2.6,8.4c0.4,0,0.7-0.1,1.1-0.1c-3.4-6.2-6.5-12.6-9.5-18.9
				c-2.4-5.1-4.7-10.2-6.9-15.3c-0.4-1-0.8-1.9-1.3-2.9C313.8,277.4,312.8,278,313.1,278.7L313.1,278.7z"/>
			<path d="M343.4,94.3c0-0.7-0.2-1.3-0.4-2c-0.3-1-0.7-2-1-3c-1.1-2.8-2.3-5.5-3.5-8.2C335.8,75,332.9,69,330,63
				c-1-2.1-2-4.2-3-6.3c-0.3-0.7-1.4-0.1-1.1,0.6c2.1,4.5,4.4,9,6.6,13.6c2.8,5.8,5.6,11.7,8,17.7c0.5,1.1,0.9,2.3,1.3,3.5
				c0.1,0.4,0.3,0.9,0.4,1.3c0,0.2,0.1,0.3,0.1,0.5c0,0.1,0-0.2,0,0V94c0,0.1,0,0.1,0,0.2C342.2,95,343.4,95,343.4,94.3L343.4,94.3z
				"/>
			<g>
				<path d="M422.7,46.5l-0.1,0.3c0-0.1-0.1,0.1,0,0.1c0.1-0.1,0.1-0.1,0.2-0.2c0.1-0.1-0.1,0.1,0,0c0.1,0,0.1-0.1,0.2-0.1
					c0.1-0.1,0.3-0.2,0.4-0.3c0.9-0.5,1.6-0.8,2.5-1.1c3.4-1.1,7-1.4,10.5-1.3c3.1,0.1,6.2,0.6,9.2,1.3c0.8,0.2,1.1-1,0.3-1.2
					c-5-1.2-10.3-1.8-15.5-1.1c-2.6,0.3-5.3,1-7.6,2.3c-0.4,0.3-1.3,0.7-1.3,1.3C421.5,47.3,422.7,47.3,422.7,46.5L422.7,46.5z"/>
				<g>
					<path class="st2" d="M434.9,312.8c-0.6-0.3-10.3-9-11.8-11.1C421.5,267,421,92.5,422,46.5c0,1.4,7.4,9.9,11.6,10
						C435.4,67.9,433.6,243.3,434.9,312.8z"/>
					<path d="M435.2,312.4c-1.2-0.7-2.3-1.9-3.4-2.9c-1.8-1.6-3.6-3.3-5.4-5c-0.9-0.9-2.8-2.2-2.8-3.5c0-1.1-0.1-2.1-0.1-3.2
						c-0.2-5.9-0.3-11.8-0.4-17.7c-0.2-8.1-0.3-16.3-0.4-24.4c-0.1-9.8-0.2-19.6-0.3-29.4c-0.1-10.8-0.2-21.6-0.2-32.4
						c-0.1-11.2-0.1-22.4-0.1-33.7c0-11,0-22,0-33.1c0-10.2,0-20.4,0.1-30.6c0-8.8,0.1-17.5,0.2-26.3c0.1-6.7,0.1-13.4,0.2-20.1
						c0-1.2,0-2.5,0.1-3.7c-0.3,0-0.6,0-0.9,0c0.1,0.8,0.7,1.6,1.2,2.3c0.9,1.3,2,2.4,3.1,3.5c2,2,4.7,4.5,7.7,4.7
						c-0.1-0.1-0.3-0.2-0.4-0.3c0.3,2.4,0.3,5.3,0.4,7.8c0.1,5.2,0.2,10.4,0.2,15.6c0.1,16.3,0.1,32.6,0.1,48.9
						c0,20.8,0,41.5-0.1,62.3c0,21.2,0,42.4,0,63.6c0.1,17.5,0.1,35.1,0.4,52.6c0,1.7,0.1,3.5,0.1,5.2c0,0.6,0.9,0.6,0.9,0
						c-0.3-17-0.4-34.1-0.5-51.1c-0.1-21-0.1-42-0.1-63s0.1-42,0.1-63c0-17,0-34-0.1-51.1c-0.1-9,0.2-18.1-0.5-27.1
						c0-0.4-0.1-0.8-0.1-1.2c0-0.2-0.3-0.3-0.4-0.3c-2.7-0.2-5.3-2.6-7.1-4.4c-1-0.9-1.9-1.9-2.7-3c-0.4-0.5-1.3-1.5-1.4-2.2
						c0-0.6-0.9-0.6-0.9,0c-0.1,6.2-0.2,12.3-0.3,18.5c-0.1,8.4-0.1,16.8-0.2,25.2c0,10-0.1,19.9-0.1,29.9c0,10.9,0,21.9,0,32.8
						c0,11.3,0.1,22.7,0.1,34c0,11,0.1,22,0.2,33c0.1,10.1,0.2,20.2,0.3,30.3c0.1,8.6,0.2,17.2,0.4,25.8c0.1,6.4,0.2,12.8,0.4,19.2
						c0,1.2,0.1,2.4,0.1,3.6c0,0.9-0.2,2.2,0.1,3c0.2,0.6,0.9,1.1,1.3,1.5c0.7,0.8,1.4,1.5,2.2,2.2c1.8,1.7,3.6,3.4,5.5,5.1
						c0.9,0.8,1.9,2,3.1,2.6C435.2,313.5,435.7,312.7,435.2,312.4z"/>
				</g>
				<path d="M422.7,46.5L422.7,46.5c0-0.1,0-0.2-0.1-0.2c0-0.1-0.1-0.1-0.1-0.2c-0.1-0.1-0.1-0.1-0.2-0.1s-0.2-0.1-0.2-0.1
					c-0.1,0-0.1,0-0.2,0s-0.2,0.1-0.3,0.2l-0.1,0.1c-0.1,0.1-0.1,0.2-0.1,0.3l0,0c0,0.1,0,0.2,0.1,0.2c0,0.1,0.1,0.1,0.1,0.2
					c0.1,0.1,0.1,0.1,0.2,0.1s0.2,0.1,0.2,0.1c0.1,0,0.1,0,0.2,0s0.2-0.1,0.3-0.2l0.1-0.1C422.7,46.7,422.7,46.6,422.7,46.5
					L422.7,46.5z"/>
				<g>
					<path class="st1" d="M447.4,304.6c-3.2,1.6-11.8,8.5-12.4,8.2c-1.4-69.5,0.4-244.9-1.2-256.3c2.5,0.1,9.4-6.4,12-11.9
						C445,88.4,448.8,292.3,447.4,304.6z"/>
					<path d="M447.1,304.1c-2.4,1.2-4.6,2.9-6.8,4.5c-1.1,0.8-2.2,1.6-3.4,2.4c-0.4,0.3-0.8,0.6-1.2,0.8c-0.2,0.1-0.8,0.3-0.5,0.4
						c0.1,0.2,0.3,0.4,0.4,0.6c-0.3-17-0.4-33.9-0.5-50.9c-0.1-21-0.1-42.1-0.1-63.1c0-21.1,0.1-42.1,0.1-63.2c0-17,0-34.1-0.1-51.1
						c-0.1-9,0.2-18-0.5-27c0-0.4-0.1-0.8-0.1-1.2c-0.2,0.3-0.4,0.5-0.6,0.8c2.3,0,4.6-2.3,6.1-3.8c2.6-2.4,4.9-5.3,6.4-8.5
						c-0.4-0.1-0.8-0.2-1.1-0.3C445,50.3,445,56,445,61.7c0,8.1,0.1,16.2,0.1,24.3c0.1,9.8,0.2,19.6,0.3,29.4
						c0.1,10.9,0.2,21.9,0.4,32.8c0.1,11.4,0.3,22.7,0.4,34.1c0.1,11.1,0.3,22.3,0.4,33.4c0.1,10.2,0.2,20.4,0.3,30.7
						c0.1,8.7,0.1,17.5,0.2,26.2c0,6.6,0.1,13.1,0,19.7c0,3.7,0,7.4-0.2,11.1c0,0.4,0,0.8-0.1,1.2c-0.1,0.8,1.1,0.8,1.2,0
						c0.3-2.9,0.2-5.9,0.3-8.8c0.1-5.9,0.1-11.9,0-17.8c0-8.2-0.1-16.5-0.2-24.7c-0.1-10-0.2-19.9-0.3-29.9c-0.1-11-0.2-22-0.4-33
						c-0.1-11.4-0.3-22.7-0.4-34.1c-0.1-11-0.3-22.1-0.4-33.1c-0.1-10.2-0.2-20.3-0.3-30.5c-0.1-8.6-0.1-17.2-0.2-25.7
						c0-6.3,0-12.7,0-19c0-1.1,0-2.2,0-3.4c0-0.6-0.9-0.9-1.1-0.3c-1.4,2.9-3.4,5.4-5.7,7.7c-1,1-2.1,2-3.2,2.8
						c-0.7,0.5-1.6,1.1-2.5,1.2c-0.4,0-0.6,0.4-0.6,0.8c0-0.1,0,0.2,0,0.4s0,0.4,0.1,0.6c0,0.6,0.1,1.1,0.1,1.7
						c0.1,1.7,0.1,3.3,0.2,5c0.1,5.3,0.2,10.5,0.2,15.8c0.1,16.3,0.1,32.5,0.1,48.8c0,20.8,0,41.6-0.1,62.4c0,21.1,0,42.3,0,63.4
						c0.1,17.7,0.1,35.3,0.4,53c0,1.7,0.1,3.4,0.1,5.1c0,0.3,0.2,0.5,0.4,0.6c0.6,0.1,1.3-0.4,1.8-0.7c1.2-0.8,2.4-1.6,3.5-2.5
						c2.4-1.8,4.9-3.7,7.5-5.1C448.4,304.8,447.8,303.8,447.1,304.1z"/>
				</g>
				<path d="M446.8,304.5c-1.5,4.4-2.8,8.9-4,13.5c-1.4,5-2.6,10-3.9,15.1c-0.6,2.4-1.2,4.8-1.8,7.2c0.4,0,0.8,0,1.2,0
					c-0.2-1.1-0.7-2.2-1.1-3.2c-0.7-2-1.5-3.9-2.3-5.9c-2.4-5.9-4.7-11.7-6.9-17.6c-1.5-4-2.9-7.9-4.3-11.9
					c-0.2-0.7-1.4-0.4-1.2,0.3c2.3,6.8,4.9,13.6,7.5,20.3c1.9,4.8,3.9,9.7,5.8,14.5c0.5,1.2,1.1,2.5,1.3,3.9c0.1,0.6,1,0.6,1.2,0
					c1.1-4.6,2.2-9.1,3.4-13.6c1.3-5,2.6-10,4.1-15c0.7-2.4,1.4-4.8,2.2-7.1C448.2,304.1,447,303.7,446.8,304.5L446.8,304.5z"/>
			</g>
			<path d="M486.1,88.2c-2,5.8-4,11.6-5.2,17.6c-0.2,1.1-0.4,2.3-0.5,3.5c-0.1,0.8,1.2,0.8,1.2,0c0.2-2.2,0.7-4.3,1.2-6.4
				c0.7-2.9,1.6-5.8,2.5-8.6c0.6-1.9,1.2-3.8,1.9-5.7C487.5,87.8,486.3,87.5,486.1,88.2L486.1,88.2z"/>
			<path d="M486.1,88.7c2.3,4.9,4.5,9.8,6,15c0.5,1.9,1,3.8,1.3,5.7c0.2,0.8,1.3,0.4,1.2-0.3c-1.2-5.9-3.1-11.6-5.7-17.1
				c-0.6-1.3-1.2-2.6-1.8-3.9C486.8,87.4,485.8,88,486.1,88.7L486.1,88.7z"/>
			<g>
				<path class="st2" d="M265.6,68.3c4.9,2.7,6.1-5.6,6-7.6c-0.2,1.7,0.9,8.1,3.4,8.2c2.7,0.2,3.4-5.4,3.6-7.8
					c-0.3,1.3,0.6,8.4,2.4,8.5c2,0.1,3.4-1.6,3.5-3.6c3.2,112.5,6.7,189.4,6.9,289.4c-3.5,3.5-11.4,5.1-17.9,0.6
					c-1.9-107.7-9.8-253.7-7.9-289"/>
				<path d="M265.3,68.7c4.9,2.5,6.8-4.3,6.7-8c0-0.6-0.9-0.6-0.9,0c-0.2,1.7,0.3,3.7,0.9,5.3c0.5,1.3,1.2,3.1,2.8,3.3
					c3.7,0.7,4.1-6,4.4-8.3c0-0.5-0.8-0.6-0.9-0.1c-0.2,1.2,0,2.4,0.2,3.5c0.2,1.5,0.5,3.2,1.3,4.5c0.7,1.1,1.6,1.3,2.8,0.8
					c1.6-0.6,2.4-2.2,2.6-3.8c-0.3,0-0.6,0-0.9,0c0.7,24.4,1.5,48.8,2.2,73.2c0.7,22,1.4,44.1,2,66.1c0.6,21.1,1.2,42.1,1.6,63.2
					c0.4,21.6,0.8,43.2,0.9,64.8c0,5.7,0.1,11.3,0.1,17c0,1.4,0.1,2.8,0,4.2c0,0.7,0,0.9-0.6,1.4c-0.5,0.4-1.1,0.8-1.6,1.1
					c-2,1.1-4.3,1.6-6.6,1.5c-1.3,0-2.5-0.2-3.8-0.5c-0.7-0.2-1.4-0.4-2.1-0.7c-0.6-0.3-1.7-0.7-2.1-1.2c-0.5-0.7-0.2-2.5-0.3-3.4
					c0-1.2,0-2.5-0.1-3.7c-0.1-4.9-0.2-9.8-0.3-14.8c-0.5-20.6-1.1-41.2-1.8-61.8c-0.7-20.7-1.4-41.3-2.2-62
					c-0.7-19.1-1.4-38.2-2.1-57.3c-0.5-15.9-1.1-31.8-1.4-47.8c-0.2-11-0.5-22-0.2-32.9c0-1.7,0.1-3.4,0.2-5.2c0-0.6-0.9-0.6-0.9,0
					c-0.5,9.7-0.3,19.4-0.2,29c0.2,15.2,0.7,30.4,1.2,45.6c0.6,18.8,1.3,37.7,2,56.5c0.8,20.8,1.5,41.6,2.2,62.4
					c0.7,21.1,1.4,42.1,1.9,63.2c0.3,10,0.5,20,0.7,30.1c0,0.7-0.2,1.9,0.2,2.5c0.6,0.8,2.3,1.4,3.1,1.7c2.1,0.9,4.4,1.3,6.7,1.2
					c2-0.1,4.1-0.6,5.9-1.5c0.8-0.4,1.5-0.8,2.2-1.4c1-0.8,0.9-1.2,0.9-2.5c-0.1-22.4-0.3-44.8-0.7-67.1
					c-0.4-21.4-0.9-42.8-1.5-64.2c-0.6-21.9-1.3-43.8-2-65.7c-0.8-23.9-1.5-47.8-2.2-71.8c-0.2-6.4-0.4-12.7-0.6-19.1
					c0-0.6-0.9-0.6-0.9,0c-0.1,0.9-0.4,1.8-1.1,2.4c-0.5,0.5-1.6,1-2.3,0.6c-0.7-0.4-0.9-1.7-1.1-2.4c-0.4-1.6-0.9-3.7-0.7-5.4
					c-0.3,0-0.6-0.1-0.9-0.1c-0.1,1.5-0.8,8.5-3.6,7.3c-1.3-0.6-1.8-2.6-2.1-3.8c-0.3-1.2-0.6-2.5-0.4-3.8c-0.3,0-0.6,0-0.9,0
					c0.1,2.9-1.2,9.3-5.3,7.2C265.3,67.7,264.8,68.5,265.3,68.7L265.3,68.7z"/>
			</g>
			<path d="M270.7,41.7c2,0.1,4.1,0.1,6.1,0c0.3,0,0.6-0.3,0.6-0.6s-0.3-0.6-0.6-0.6c-2,0.2-4.1,0.2-6.1,0c-0.3,0-0.6,0.3-0.6,0.6
				S270.4,41.7,270.7,41.7L270.7,41.7z"/>
			<path d="M270.9,60.8c-0.3,19.6,0,39.3,0.4,58.9c0.4,20.8,1,41.5,1.7,62.3c0.6,17,1.2,34,1.9,50.9c0.4,11.4,0.8,22.8,1,34.2
				c0.6,27.2,1.6,54.4,2.2,81.6c0.1,3.2,0.1,6.4,0.2,9.6c0,0.8,1.2,0.8,1.2,0c-0.4-27.1-1.5-54.2-2.2-81.4
				c-0.3-13.1-0.6-26.2-1.1-39.3c-0.6-16.2-1.2-32.3-1.8-48.5c-0.7-20.6-1.4-41.1-1.8-61.7c-0.4-20-0.8-40.1-0.6-60.1
				c0-2.2,0-4.4,0.1-6.5C272.2,60,270.9,60,270.9,60.8L270.9,60.8z"/>
			<path d="M278,62.8c0.3,19.8,0.7,39.6,1.1,59.4c0.4,19.2,0.9,38.5,1.4,57.7c0.5,18.9,1,37.9,1.6,56.8c0.5,18.9,1.1,37.9,1.7,56.8
				c0.5,19.1,1.1,38.3,1.6,57.4c0.1,2.5,0.1,4.9,0.2,7.4c0,0.8,1.2,0.8,1.2,0c-0.5-19.3-1-38.6-1.6-57.8c-0.5-19-1.1-37.9-1.6-56.9
				c-0.5-18.9-1.1-37.9-1.6-56.8c-0.5-19.2-1-38.4-1.4-57.5c-0.4-19.6-0.8-39.2-1.1-58.8c0-2.6-0.1-5.1-0.1-7.7
				C279.2,62,278,62,278,62.8L278,62.8z"/>
			<g>
				<path class="st1" d="M341.4,277.7c-4.1-0.9-7.7,3.4-8,3.3c0,0-2.4-3.2-5.6-3.1c-2.5,0.1-4.5,1.4-5.4,2.8
					c-0.6-1.8-2.4-3.6-4.1-3.9c-1.6-0.3-2.8,0.4-4.2,1.2l-0.6,0.3c-0.1-56.8-0.9-127.1-1-183.9l0.4-0.3c0.8,1.7,2.6,2.9,4.4,3
					c1.9,0.1,3.7-1.1,4.6-2.7c1.1,1.7,3,2.8,5,2.8s4-1,5.1-2.7c1.1,1.7,3.2,2.8,5.3,2.7s4-1.3,5.1-3.1l0.3,0.1
					c-0.6,39.6,0.7,162.1-0.7,181.9"/>
				<path d="M341.6,277.1c-2-0.4-3.8,0.1-5.5,1.2c-0.7,0.4-1.3,0.9-1.9,1.4c-0.2,0.2-0.4,0.4-0.7,0.6c-0.2,0.1-0.4,0.3-0.2,0.2
					c0.2,0.1,0.5,0.2,0.7,0.3c-1.1-1.5-2.7-2.7-4.5-3.2c-2.7-0.7-5.9,0.6-7.5,2.9c0.4,0,0.7,0.1,1.1,0.1c-0.7-1.9-2.3-3.8-4.4-4.3
					c-2-0.4-3.7,0.7-5.4,1.6c0.3,0.2,0.6,0.4,0.9,0.5c0-11.6-0.1-23.2-0.1-34.8c-0.1-12.2-0.1-24.4-0.2-36.6
					c-0.1-12.5-0.2-24.9-0.3-37.4c-0.1-12.3-0.2-24.6-0.2-36.9c-0.1-11.6-0.1-23.3-0.1-34.9c0-0.7,0-1.4,0-2.1c0-0.3-0.1-0.6,0-0.9
					c-0.1,0.5,0-0.2,0,0c0,0,0.2-0.1,0.2-0.2c-0.3,0-0.6-0.1-1-0.1c2,4.2,7.9,4.3,10.1,0.2c-0.4,0-0.7,0-1.1,0
					c2.7,4,8.4,4.1,11.2,0.2c-0.4,0-0.7,0-1.1,0c2.8,4,8.8,3.9,11.4-0.4c-0.2,0.1-0.5,0.2-0.7,0.3c0.1,0,0.2,0.1,0.3,0.1
					c-0.1-0.2-0.3-0.4-0.4-0.6c-0.2,10.4-0.2,20.8-0.2,31.3c0,14,0,28,0,41.9c0,14.8,0.1,29.6,0.1,44.3c0,12.8,0,25.6-0.1,38.5
					c-0.1,8.1-0.1,16.2-0.5,24.3c0,0.5-0.1,1.1-0.1,1.6c-0.1,0.8,1.2,0.8,1.2,0c0.5-7.3,0.5-14.6,0.5-22c0.1-12.4,0.1-24.8,0.1-37.1
					c0-14.7,0-29.4-0.1-44.1c0-14.2-0.1-28.5-0.1-42.7c0-11,0-22,0.2-33.1c0-1,0-2,0-3c0-0.3-0.2-0.5-0.4-0.6
					c-0.1,0-0.2-0.1-0.3-0.1c-0.3-0.1-0.6,0.1-0.7,0.3c-2.1,3.4-7,3.7-9.3,0.4c-0.3-0.4-0.8-0.4-1.1,0c-2.2,3.2-7,3.1-9.1-0.2
					c-0.2-0.4-0.8-0.4-1.1,0c-1.8,3.3-6.4,3.1-8-0.2c-0.2-0.4-0.7-0.4-1-0.1c-0.3,0.2-0.5,0.4-0.5,0.7c-0.1,0.7,0,1.4,0,2.1
					c0,1.4,0,2.8,0,4.3c0,2.9,0,5.8,0,8.7c0,5.9,0,11.8,0.1,17.7c0.1,12.3,0.1,24.6,0.2,36.8c0.1,12.6,0.2,25.2,0.3,37.7
					c0.1,12.4,0.2,24.7,0.2,37.1c0.1,11.8,0.1,23.5,0.1,35.3c0,1.4,0,2.8,0,4.2c0,0.5,0.5,0.8,0.9,0.5c1.2-0.7,2.5-1.6,4-1.5
					c1.8,0.1,3.3,1.9,3.9,3.5c0.2,0.5,0.8,0.6,1.1,0.1c1.4-1.9,4.4-3,6.6-2.2c0.9,0.3,1.7,0.9,2.5,1.6c0.2,0.2,0.4,0.4,0.6,0.6
					c0.1,0.1,0.3,0.4,0.2,0.3c0.2,0.2,0.4,0.3,0.7,0.3c0.3-0.1,0.6-0.4,0.8-0.6c0.5-0.4,1-0.9,1.6-1.2c1.6-1.1,3.4-1.9,5.3-1.5
					C342.1,278.4,342.4,277.2,341.6,277.1L341.6,277.1z"/>
			</g>
			<path d="M334.8,302.2c-3.3,0-6.7,0.1-10,0.1c-0.8,0-0.8,1.2,0,1.2c3.3,0,6.7-0.1,10-0.1C335.6,303.4,335.6,302.2,334.8,302.2
				L334.8,302.2z"/>
			<path d="M320.5,95.9c0.5,24,1,48,1.3,72.1s0.5,48.1,0.4,72.2c0,13.5-0.2,27-0.3,40.5c0,0.8,1.2,0.8,1.2,0c0.3-24,0.4-48,0.3-72
				s-0.4-48-0.9-72c-0.3-13.6-0.5-27.1-0.8-40.7C321.7,95.1,320.5,95.1,320.5,95.9L320.5,95.9z"/>
			<path d="M331.6,94.5c1.2,24.2,1.9,48.4,1.9,72.7c0,24.2-0.3,48.5-0.5,72.7c-0.1,13.7-0.2,27.4-0.1,41.1c0,0.8,1.2,0.8,1.2,0
				c-0.1-24.2,0.2-48.5,0.4-72.7c0.2-24.3,0.4-48.5-0.2-72.8c-0.3-13.7-0.9-27.3-1.6-40.9C332.7,93.8,331.5,93.7,331.6,94.5
				L331.6,94.5z"/>
			<polygon points="324.8,302.9 335.2,302.8 331.3,315.5 			"/>
			<g>
				<g>
					<path class="st2" d="M367.4,74.6c6.3,86.4,8.5,170.9,12.5,244.3l0.3,0.3c5.6,0.6,11.3,0.6,16.9,0l0.5-0.4
						c-0.9-24.7-5.5-184.1-11.1-245.5"/>
					<path d="M366.9,74.6c1.8,24.6,3.2,49.2,4.5,73.8c1.2,23.8,2.3,47.7,3.4,71.5c1,22.7,1.9,45.3,3,68c0.3,5.4,0.5,10.9,0.8,16.3
						c0.1,2.7,0.3,5.3,0.4,8c0.1,1.3,0.1,2.5,0.2,3.8c0,0.9-0.2,2.5,0.3,3.2c0.4,0.7,1.4,0.6,2.1,0.6c1.6,0.1,3.2,0.2,4.8,0.3
						c3.1,0.1,6.1,0,9.2-0.3c1.1-0.1,2.4-0.1,2.4-1.4c0-0.6,0-1.1-0.1-1.7c-0.3-7.8-0.5-15.5-0.8-23.3c-0.4-12.3-0.8-24.5-1.2-36.8
						c-0.5-15-1.1-30-1.6-44.9c-0.6-15.9-1.3-31.9-2-47.8c-0.7-15.1-1.4-30.3-2.3-45.4c-0.7-12.6-1.5-25.1-2.5-37.7
						c-0.2-2.5-0.4-4.9-0.6-7.4c-0.1-0.6-1-0.6-0.9,0c1.1,11.6,1.8,23.1,2.5,34.7c0.9,14.4,1.6,28.9,2.3,43.4
						c0.7,15.7,1.4,31.5,2,47.2c0.6,15.3,1.2,30.6,1.7,45.8c0.5,13.1,0.9,26.1,1.3,39.2c0.3,9.2,0.6,18.5,0.9,27.7
						c0,1.5,0.1,2.9,0.2,4.4c0,0.6,0,1.2,0.1,1.8c0,0.3,0,0.5,0,0.8c0,0.1,0,0.3,0,0.4c0-0.3,0.4-0.1,0-0.1c-0.2,0-0.8,0.2-1,0.2
						c-3.1,0.3-6.1,0.4-9.2,0.3c-1.5,0-2.9-0.1-4.4-0.2c-0.6,0-1.4,0-1.9-0.2c-0.6-0.2-0.4-0.7-0.4-1.4c-0.3-5.3-0.6-10.5-0.8-15.8
						c-1.1-22.1-2.1-44.2-3-66.4c-1-23.4-2-46.8-3.2-70.1c-1.2-24.2-2.5-48.5-4.1-72.7c-0.4-6-0.8-11.9-1.2-17.9
						C367.8,74.1,366.9,74.1,366.9,74.6L366.9,74.6z"/>
				</g>
				<g>
					<path class="st2" d="M383.7,53.4c-0.1-3.2-0.6-11.7-1.3-12.6c-1.1-1.5-16-0.2-16.1,1.1c-0.2,3.5,0.2,10.8,0.3,12.4"/>
					<path d="M384.2,53.4c-0.1-3.5-0.3-7-0.8-10.5c-0.1-0.8-0.1-2.2-0.9-2.7c-0.7-0.5-1.8-0.5-2.7-0.5c-3-0.2-6.1,0.1-9.1,0.5
						c-1.2,0.2-2.4,0.3-3.5,0.7c-0.3,0.1-0.7,0.2-1,0.4c-0.4,0.3-0.4,0.7-0.4,1.2c-0.1,3.9,0.1,7.9,0.3,11.8c0,0.6,1,0.6,0.9,0
						c-0.2-3.3-0.3-6.6-0.4-9.9c0-0.4,0-0.9,0-1.3c0-0.2,0-0.4,0-0.6c0-0.2,0.1-0.5,0-0.6c0,0.1-0.1,0.1-0.1,0.2c0,0,0.1,0,0,0
						c0.1-0.1,0.3-0.1,0.3-0.2c0.9-0.4,2-0.5,3-0.7c2.9-0.4,5.8-0.7,8.7-0.6c1,0,2,0,3,0.3c0.2,0.1,0.2,0,0.3,0.1
						c0.1,0,0.1,0,0.1,0.1c0.1,0.4,0.2,0.9,0.3,1.3c0.6,3.6,0.7,7.3,0.9,11C383.3,53.9,384.2,53.9,384.2,53.4L384.2,53.4z"/>
				</g>
				<g>
					<path class="st3" d="M365.9,54.4c0,0,9.5-1.2,19.1-1c0.8,3.4,1.6,19.5,1.6,19.5c-6.2,0.8-12.9,2-19.2,1.8
						C366.9,74.6,365.9,54.4,365.9,54.4z"/>
					<path d="M365.9,55c4.3-0.5,8.6-0.8,12.9-0.9c2.1-0.1,4.2-0.1,6.2,0c-0.2-0.1-0.4-0.3-0.6-0.4c0.2,1.1,0.3,2.1,0.4,3.2
						c0.2,1.6,0.3,3.2,0.4,4.8c0.2,3.1,0.4,6.2,0.6,9.4c0,0.7,0.1,1.3,0.1,2c0.2-0.2,0.4-0.4,0.6-0.6c-4.9,0.7-9.8,1.5-14.8,1.8
						c-1.2,0.1-2.4,0.1-3.6,0.1c-0.1,0-0.4-0.1-0.5,0h-0.1c0.1,0,0.2,0.1,0.2,0.2c0.1,0.1,0.1,0.2,0.1,0.2s0-0.1-0.1-0.2
						c-0.1-0.6-0.1-1-0.2-1.7c-0.5-4.7-0.7-9.4-1-14.1c-0.1-1.4-0.2-2.7-0.2-4.1c0-0.8-1.3-0.8-1.2,0c0.2,3.7,0.4,7.3,0.6,11
						c0.2,2.3,0.3,4.7,0.5,7c0.1,0.7,0.1,1.4,0.3,2c0,0.2,0.1,0.4,0.2,0.5c0.2,0.2,0.4,0.3,0.6,0.3c0.7,0,1.3,0,2,0
						c5.7-0.1,11.4-1.1,17.1-1.8c0.3,0,0.6-0.2,0.6-0.6c-0.3-5.3-0.6-10.5-1.1-15.8c-0.1-1.3-0.2-2.6-0.5-3.9
						c-0.1-0.3-0.3-0.4-0.6-0.4c-5.9-0.1-11.9,0.2-17.8,0.8c-0.4,0-0.9,0.1-1.3,0.1C365.1,53.9,365.1,55.1,365.9,55z"/>
				</g>
				<path d="M379.3,318.9c0.7,5,1.8,10,3,14.9c1.2,4.8,2.5,9.5,4.1,14.2c0.6,1.7,1.2,3.5,1.9,5.2c0.2,0.5,0.8,0.6,1.1,0.1
					c0.9-1.3,1.4-2.9,2-4.4c0.8-2.2,1.5-4.4,2.1-6.6c1.5-5.2,2.7-10.4,3.7-15.7c0.5-2.6,0.9-5.2,1.2-7.8c0.1-0.8-1.1-0.8-1.2,0
					c-0.5,4.9-1.5,9.7-2.6,14.4c-1.1,4.9-2.4,9.7-4,14.4c-0.6,1.7-1.2,3.4-2.2,4.9c0.4,0,0.7,0.1,1.1,0.1c-1.4-3.5-2.5-7.1-3.6-10.7
					c-1.5-5-2.8-10.1-3.9-15.2c-0.6-2.6-1.1-5.3-1.4-8c0-0.3-0.2-0.6-0.6-0.6C379.6,318.3,379.2,318.6,379.3,318.9L379.3,318.9z"/>
				<path d="M366.2,58c6.4-0.1,12.7-0.3,19.1-0.7c0.8,0,0.8-1.3,0-1.2c-6.4,0.3-12.7,0.6-19.1,0.7C365.4,56.8,365.4,58,366.2,58
					L366.2,58z"/>
				<path d="M366.8,62.3c6.2-0.3,12.4-0.8,18.6-1.5c0.8-0.1,0.8-1.3,0-1.2c-6.2,0.6-12.4,1.1-18.6,1.5C366,61.1,366,62.3,366.8,62.3
					L366.8,62.3z"/>
				<path d="M367.3,66.4c6,0.3,12,0.3,18-0.2c0.8-0.1,0.8-1.3,0-1.2c-6,0.4-12,0.5-18,0.2C366.5,65.1,366.5,66.3,367.3,66.4
					L367.3,66.4z"/>
				<path d="M367.5,71.5c6,0.1,12-0.3,18-1.2c0.8-0.1,0.4-1.3-0.3-1.2c-5.9,0.8-11.8,1.2-17.7,1.1C366.7,70.2,366.7,71.5,367.5,71.5
					L367.5,71.5z"/>
				<g>
					<path class="st2" d="M386.1,344.3l2.7,8.7l3.4-8.5C390.3,344.3,388,344.2,386.1,344.3"/>
					<path d="M385.7,344.4c0.8,2.5,1.6,5.1,2.3,7.6c0.1,0.4,0.2,0.7,0.3,1.1c0.1,0.5,0.7,0.4,0.9,0c1-2.5,2-5,2.9-7.5
						c0.1-0.4,0.3-0.7,0.4-1.1c0.1-0.3-0.2-0.5-0.4-0.6c-2-0.2-4-0.3-6-0.2c-0.6,0-0.6,0.9,0,0.9c2-0.1,4,0,6,0.2
						c-0.1-0.2-0.3-0.4-0.4-0.6c-1,2.5-2,5-2.9,7.5c-0.1,0.4-0.3,0.7-0.4,1.1c0.3,0,0.6,0,0.9,0c-0.8-2.5-1.6-5.1-2.3-7.6
						c-0.1-0.4-0.2-0.7-0.3-1.1C386.4,343.6,385.5,343.8,385.7,344.4L385.7,344.4z"/>
				</g>
			</g>
			<path d="M434.6,332.2c1.7-0.1,3.3-0.1,5-0.2c0.3,0,0.6-0.3,0.6-0.6c0-0.3-0.3-0.6-0.6-0.6c-1.7,0.1-3.3,0.1-5,0.2
				c-0.3,0-0.6,0.3-0.6,0.6C434,331.9,434.3,332.2,434.6,332.2L434.6,332.2z"/>
			<g>
				<ellipse class="st1" cx="433.8" cy="48.2" rx="4.2" ry="1.7"/>
				<path d="M433.8,50.3c-2.2,0-4.6-0.7-4.6-2.1c0-1.4,2.4-2.1,4.6-2.1s4.6,0.7,4.6,2.1S436.1,50.3,433.8,50.3z M433.8,46.9
					c-2.3,0-3.8,0.8-3.8,1.3s1.5,1.3,3.8,1.3s3.8-0.8,3.8-1.3C437.6,47.7,436.2,46.9,433.8,46.9z"/>
			</g>
			<g>
				<path class="st2" d="M493.6,109.3c-1.8,0.2-3.6,0-5.4-0.4c-0.6-0.1-1.2-0.3-1.9-0.3c-0.4,0-0.8,0.2-1.2,0.2
					c-1.1,0.2-2.2,0.1-3.3-0.3l-0.8,0.7c0.6,32.9-5.6,159.4-4.3,160.4c8.1,6.1,10.7,1.9,13-0.2c1.5-56.5,2.8-103.8,4.4-160.2"/>
				<path d="M493.6,108.9c-1.1,0.1-2.2,0.1-3.3,0c-1.2-0.1-2.3-0.5-3.4-0.6c-1-0.1-1.9,0.3-2.9,0.3c-0.6,0-1.2-0.1-1.8-0.3
					c-0.4-0.1-0.4-0.2-0.7,0c-0.3,0.2-0.8,0.5-0.9,0.8s-0.1,0.8,0,1.1c0,0.7,0,1.4,0,2.1c0,3.4,0,6.8-0.1,10.2
					c-0.1,9.2-0.4,18.4-0.6,27.6c-0.3,11-0.7,21.9-1.1,32.9c-0.4,11.1-0.8,22.2-1.2,33.3c-0.3,9.6-0.7,19.1-1,28.7
					c-0.2,6.4-0.4,12.9-0.5,19.3c0,1.5-0.1,3.1,0,4.6c0,0.3,0,0.7,0.2,1c0.1,0.3,0.5,0.4,0.7,0.6c0.9,0.6,1.8,1.2,2.7,1.7
					c1.2,0.6,2.6,1.1,4,1.2c2,0.1,3.7-0.9,5.1-2.3c0.3-0.3,0.6-0.6,0.8-0.8c0.1-0.1,0.3-0.2,0.4-0.4c0.3-0.4,0.2-0.9,0.2-1.4
					c0.1-2.4,0.1-4.9,0.2-7.3c0.3-9.4,0.5-18.8,0.8-28.2c0.5-18.1,1-36.3,1.5-54.4c0.5-18.5,1-36.9,1.5-55.4c0.1-4.7,0.3-9.3,0.4-14
					c0-0.6-0.9-0.6-0.9,0c-0.5,18.1-1,36.1-1.5,54.2c-0.5,17.4-0.9,34.8-1.4,52.1c-0.2,8.9-0.5,17.7-0.7,26.6
					c-0.1,4.5-0.2,9.1-0.4,13.6c-0.1,2.3-0.1,4.6-0.2,6.9c0,1.2-0.1,2.3-0.1,3.5c0,0.5,0,1.1,0,1.6c0,0.4,0.1,1.2-0.1,1.4
					c-0.2,0.3-0.6,0.6-0.8,0.8c-0.3,0.3-0.6,0.6-0.9,0.9c-0.7,0.6-1.4,1.1-2.3,1.3c-3,0.8-5.9-1.3-8.2-2.9c0.1,0.1,0,0.2,0,0
					c0,0.1,0-0.2,0-0.4c0-0.6,0-1.1,0-1.7c-0.1-5,0.1-10.1,0.3-15.1c0.2-8.4,0.5-16.8,0.8-25.2c0.4-10.3,0.8-20.6,1.1-31
					c0.4-10.8,0.8-21.5,1.1-32.3c0.3-9.8,0.6-19.5,0.8-29.3c0.2-7.4,0.3-14.7,0.3-22.1c0-0.6,0-1.3,0-1.9c0-0.3,0-0.6,0-0.9
					c0,0.3-0.2,0.2,0,0.1c0.1,0,0.2-0.1,0.2-0.2c0.2-0.1,0.3-0.3,0.5-0.4c-0.1,0-0.3,0.1-0.4,0.1c0.9,0.3,1.9,0.5,2.8,0.4
					c1-0.1,1.9-0.4,2.9-0.2c2.1,0.4,4,0.7,6.2,0.5C494.2,109.8,494.2,108.8,493.6,108.9L493.6,108.9z"/>
			</g>
			<path d="M485.3,94.6c1.1,0.1,2.2,0.1,3.2,0c0.3,0,0.6-0.3,0.6-0.6c0-0.3-0.3-0.7-0.6-0.6c-1.1,0.1-2.2,0.1-3.2,0
				c-0.3,0-0.6,0.3-0.6,0.6C484.8,94.4,485,94.6,485.3,94.6L485.3,94.6z"/>
			<g>
				<path class="st3" d="M332.6,70.3l-6.2-13.2l-5.3,13.1C324.9,70.4,328.8,70.5,332.6,70.3"/>
				<path d="M333.1,70c-1.8-3.9-3.6-7.7-5.4-11.6c-0.3-0.5-0.5-1.1-0.8-1.6c-0.2-0.5-0.9-0.3-1.1,0.1c-1.5,3.8-3.1,7.6-4.6,11.5
					c-0.2,0.5-0.4,1.1-0.7,1.6c-0.2,0.4,0.2,0.8,0.6,0.8c3.8,0.2,7.7,0.2,11.5,0.1c0.8,0,0.8-1.2,0-1.2c-3.8,0.1-7.7,0.1-11.5-0.1
					c0.2,0.3,0.4,0.5,0.6,0.8c1.5-3.8,3.1-7.6,4.6-11.5c0.2-0.5,0.4-1.1,0.7-1.6c-0.4,0-0.7,0.1-1.1,0.1c1.8,3.9,3.6,7.7,5.4,11.6
					c0.3,0.5,0.5,1.1,0.8,1.6C332.4,71.3,333.5,70.7,333.1,70L333.1,70z"/>
			</g>
		</g>
		<g>
			<polygon class="st1" points="277.6,41.2 273.2,29.1 270.7,41.1 			"/>
			<path d="M277.9,41.4l-7.4-0.1l2.7-12.9L277.9,41.4z M271,40.9l6.3,0.1l-4-11.1L271,40.9z"/>
		</g>
		<polygon points="486.6,88.4 484.8,94 489.2,94 		"/>
	</g>
</g>
<g>
	<path d="M99.2,528.6h4.4c3.3,0,5.1,1.5,5.1,4.3s-1.8,4.4-5.1,4.4h-2.8v6.7h-1.6V528.6z M103.4,535.8c2.4,0,3.6-1,3.6-2.9
		s-1.2-2.9-3.6-2.9h-2.7v5.7h2.7V535.8z"/>
	<path d="M122.1,537.2v6.8h-1.4l-0.1-1.7c-0.9,1.2-2.2,1.8-3.9,1.8c-2.4,0-3.7-1.2-3.7-3.3c0-1.1,0.4-1.9,1.2-2.4
		c0.8-0.5,2-0.7,4.1-0.7h2.2v-0.5c0-1.9-1-2.9-2.8-2.9c-1.4,0-2.4,0.6-3.3,1.8l-1.1-0.9c1.2-1.5,2.6-2.2,4.4-2.2
		C120.5,533,122.1,534.5,122.1,537.2z M120.6,539.1L120.6,539.1l-2.1-0.1c-2,0-2.9,0.1-3.4,0.6c-0.4,0.3-0.6,0.8-0.6,1.4
		c0,1.2,1,2,2.7,2C119.3,542.9,120.6,541.4,120.6,539.1z"/>
	<path d="M127,541.3l1.3-0.6c0.4,1.1,1.5,2.1,3.1,2.1c1.5,0,2.4-0.7,2.4-1.9c0-2.9-6.2-1.1-6.2-4.9c0-1.9,1.5-3.1,3.7-3.1
		c1.7,0,3.1,0.7,3.9,2.3l-1.2,0.7c-0.5-1-1.4-1.6-2.7-1.6s-2.2,0.5-2.2,1.5c0,2.6,6.3,0.9,6.3,5.1c0,2.2-1.8,3.3-3.9,3.3
		C129.3,544.2,127.5,543.1,127,541.3z"/>
	<path d="M139.7,541.3l1.3-0.6c0.4,1.1,1.5,2.1,3.1,2.1c1.5,0,2.4-0.7,2.4-1.9c0-2.9-6.2-1.1-6.2-4.9c0-1.9,1.5-3.1,3.7-3.1
		c1.7,0,3.1,0.7,3.9,2.3l-1.2,0.7c-0.5-1-1.4-1.6-2.7-1.6s-2.2,0.5-2.2,1.5c0,2.6,6.3,0.9,6.3,5.1c0,2.2-1.8,3.3-3.9,3.3
		C142.1,544.2,140.3,543.1,139.7,541.3z"/>
	<path d="M153.2,528.6h1.8v2.2h-1.8V528.6z M153.4,533.1h1.5V544h-1.5V533.1z"/>
	<path d="M160.2,538.5c0-3.2,2.1-5.6,5.2-5.6c3.1,0,5.2,2.4,5.2,5.6c0,3.2-2.1,5.6-5.2,5.6S160.2,541.8,160.2,538.5z M169.1,538.5
		c0-2.5-1.4-4.2-3.7-4.2s-3.7,1.8-3.7,4.2c0,2.5,1.4,4.3,3.7,4.3C167.7,542.8,169.1,541,169.1,538.5z"/>
	<path d="M184.6,537.3v6.6h-1.5v-6.3c0-2.3-0.7-3.4-2.4-3.4c-2,0-3.2,1.8-3.2,4.8v4.9H176v-10.8h1.5v1.6c0.7-1.1,2-1.8,3.6-1.8
		C183.4,533,184.6,534.5,184.6,537.3z"/>
	<path d="M191.9,541.1h2l-2.9,6.2h-1L191.9,541.1z"/>
	<path d="M207.5,538.6c0-2.9,1.6-5.6,4.9-5.6c1.9,0,3.5,1,4.4,3l-1.5,0.6c-0.5-1.4-1.6-2.2-2.9-2.2c-2.3,0-3.3,2.1-3.3,4.3
		s1,4.2,3.4,4.2c1.4,0,2.4-0.8,2.9-2.2l1.4,0.5c-0.7,2-2.3,3-4.3,3C209.3,544.2,207.5,541.6,207.5,538.6z"/>
	<path d="M230.3,533.1V544h-1.5v-1.6c-0.8,1.2-2.2,1.7-3.6,1.7c-2.5,0-3.5-1.7-3.5-4.4v-6.6h1.5v6.3c0,1.8,0.3,3.4,2.4,3.4
		c2.2,0,3.2-1.9,3.2-4.7v-5L230.3,533.1L230.3,533.1z"/>
	<path d="M243,533.4l-0.7,1.2c-0.5-0.2-1-0.3-1.4-0.3c-1.7,0-2.9,1.3-2.9,3.6v6.1h-1.5v-10.8h1.5v1.6c0.8-1.4,2.1-1.8,3.2-1.8
		C241.8,533,242.4,533.1,243,533.4z"/>
	<path d="M247.5,528.6h1.8v2.2h-1.8V528.6z M247.6,533.1h1.5V544h-1.5V533.1z"/>
	<path d="M254.4,538.5c0-3.2,2.1-5.6,5.2-5.6s5.2,2.4,5.2,5.6c0,3.2-2.1,5.6-5.2,5.6S254.4,541.8,254.4,538.5z M263.3,538.5
		c0-2.5-1.4-4.2-3.7-4.2c-2.3,0-3.7,1.8-3.7,4.2c0,2.5,1.4,4.3,3.7,4.3C262,542.8,263.3,541,263.3,538.5z"/>
	<path d="M269.1,541.3l1.3-0.6c0.4,1.1,1.5,2.1,3.1,2.1c1.5,0,2.4-0.7,2.4-1.9c0-2.9-6.2-1.1-6.2-4.9c0-1.9,1.5-3.1,3.7-3.1
		c1.7,0,3.1,0.7,3.9,2.3l-1.2,0.7c-0.5-1-1.4-1.6-2.7-1.6c-1.3,0-2.2,0.5-2.2,1.5c0,2.6,6.3,0.9,6.3,5.1c0,2.2-1.8,3.3-3.9,3.3
		C271.4,544.2,269.6,543.1,269.1,541.3z"/>
	<path d="M282.6,528.6h1.8v2.2h-1.8V528.6z M282.7,533.1h1.5V544h-1.5V533.1z"/>
	<path d="M294.9,543.9c-0.6,0.2-1.1,0.3-1.7,0.3c-1.5,0-2.5-0.8-2.5-2.7v-7H289v-1.3h1.8v-2.8l1.5-1.1v4h2.6v1.3h-2.6v6.8
		c0,1.1,0.5,1.5,1.3,1.5c0.4,0,0.8-0.1,1.3-0.2L294.9,543.9z"/>
	<path d="M303.7,543.8l-4.6-10.7h1.7l3.7,8.9l3.3-8.9h1.7l-5.9,15.3H302L303.7,543.8z"/>
	<path d="M314.3,541.1h2l-2.9,6.2h-1L314.3,541.1z"/>
	<path d="M329.9,538.5c0-3.2,2.1-5.6,5.2-5.6s5.2,2.4,5.2,5.6c0,3.2-2.1,5.6-5.2,5.6S329.9,541.8,329.9,538.5z M338.7,538.5
		c0-2.5-1.4-4.2-3.7-4.2c-2.3,0-3.7,1.8-3.7,4.2c0,2.5,1.4,4.3,3.7,4.3C337.4,542.8,338.7,541,338.7,538.5z"/>
	<path d="M355.5,538.5c0,3.2-1.7,5.6-4.8,5.6c-1.6,0-2.8-0.6-3.6-1.6v1.5h-1.5v-15.3h1.5v5.9c0.8-1.1,2-1.6,3.6-1.6
		C353.7,532.9,355.5,535.2,355.5,538.5z M354,538.5c0-2.6-1.3-4.3-3.5-4.3s-3.5,1.7-3.5,4.3c0,2.5,1.2,4.3,3.5,4.3
		S354,541,354,538.5z"/>
	<path d="M359.8,541.3l1.3-0.6c0.4,1.1,1.5,2.1,3.1,2.1c1.5,0,2.4-0.7,2.4-1.9c0-2.9-6.2-1.1-6.2-4.9c0-1.9,1.5-3.1,3.7-3.1
		c1.7,0,3.1,0.7,3.9,2.3l-1.2,0.7c-0.5-1-1.4-1.6-2.7-1.6c-1.3,0-2.2,0.5-2.2,1.5c0,2.6,6.3,0.9,6.3,5.1c0,2.2-1.8,3.3-3.9,3.3
		C362.2,544.2,360.4,543.1,359.8,541.3z"/>
	<path d="M382.2,539h-7.9c0,2.4,1.4,3.8,3.5,3.8c1.2,0,2.1-0.3,3.1-1.4l1.1,0.9c-1.3,1.3-2.5,1.8-4.2,1.8c-3.3,0-5-2.5-5-5.5
		c0-3.1,1.7-5.7,4.8-5.7c3.3,0,4.7,2.6,4.7,5.1C382.2,538.3,382.2,538.7,382.2,539z M374.2,537.7h6.6c0,0,0-0.2,0-0.4
		c-0.1-1.8-1.2-3.1-3.2-3.1S374.4,535.8,374.2,537.7z"/>
	<path d="M386.5,541.3l1.3-0.6c0.4,1.1,1.5,2.1,3.1,2.1c1.5,0,2.4-0.7,2.4-1.9c0-2.9-6.2-1.1-6.2-4.9c0-1.9,1.5-3.1,3.7-3.1
		c1.7,0,3.1,0.7,3.9,2.3l-1.2,0.7c-0.5-1-1.4-1.6-2.7-1.6c-1.3,0-2.2,0.5-2.2,1.5c0,2.6,6.3,0.9,6.3,5.1c0,2.2-1.8,3.3-3.9,3.3
		C388.8,544.2,387.1,543.1,386.5,541.3z"/>
	<path d="M399.3,541.3l1.3-0.6c0.4,1.1,1.5,2.1,3.1,2.1c1.5,0,2.4-0.7,2.4-1.9c0-2.9-6.2-1.1-6.2-4.9c0-1.9,1.5-3.1,3.7-3.1
		c1.7,0,3.1,0.7,3.9,2.3l-1.2,0.7c-0.5-1-1.4-1.6-2.7-1.6c-1.3,0-2.2,0.5-2.2,1.5c0,2.6,6.3,0.9,6.3,5.1c0,2.2-1.8,3.3-3.9,3.3
		C401.6,544.2,399.9,543.1,399.3,541.3z"/>
	<path d="M412.8,528.6h1.8v2.2h-1.8V528.6z M412.9,533.1h1.5V544h-1.5V533.1z"/>
	<path d="M419.7,538.5c0-3.2,2.1-5.6,5.2-5.6s5.2,2.4,5.2,5.6c0,3.2-2.1,5.6-5.2,5.6S419.7,541.8,419.7,538.5z M428.6,538.5
		c0-2.5-1.4-4.2-3.7-4.2c-2.3,0-3.7,1.8-3.7,4.2c0,2.5,1.4,4.3,3.7,4.3S428.6,541,428.6,538.5z"/>
	<path d="M444.1,537.3v6.6h-1.5v-6.3c0-2.3-0.7-3.4-2.4-3.4c-2,0-3.2,1.8-3.2,4.8v4.9h-1.5v-10.8h1.5v1.6c0.7-1.1,2-1.8,3.6-1.8
		C442.9,533,444.1,534.5,444.1,537.3z"/>
	<path d="M459.6,534.4h-2.3v-1.3h2.3v-1.7c0-2.3,1.3-3,2.7-3c0.6,0,1.3,0.1,1.9,0.4l-0.5,1.2c-0.5-0.2-0.9-0.4-1.3-0.4
		c-0.9,0-1.4,0.6-1.4,1.6v1.8h3.1v1.3H461v9.6h-1.5L459.6,534.4L459.6,534.4z"/>
	<path d="M467.8,538.5c0-3.2,2.1-5.6,5.2-5.6s5.2,2.4,5.2,5.6c0,3.2-2.1,5.6-5.2,5.6S467.8,541.8,467.8,538.5z M476.7,538.5
		c0-2.5-1.4-4.2-3.7-4.2c-2.3,0-3.7,1.8-3.7,4.2c0,2.5,1.4,4.3,3.7,4.3C475.3,542.8,476.7,541,476.7,538.5z"/>
	<path d="M490.2,533.4l-0.7,1.2c-0.5-0.2-1-0.3-1.4-0.3c-1.7,0-2.9,1.3-2.9,3.6v6.1h-1.5v-10.8h1.5v1.6c0.8-1.4,2.1-1.8,3.2-1.8
		C489,533,489.6,533.1,490.2,533.4z"/>
	<path d="M512.5,528.6V544H511v-1.5c-0.8,1-2,1.6-3.6,1.6c-3.2,0-4.8-2.4-4.8-5.6c0-3.4,1.8-5.6,4.8-5.6c1.5,0,2.8,0.6,3.6,1.6v-5.9
		H512.5z M511.1,538.5c0-2.6-1.3-4.3-3.5-4.3s-3.5,1.7-3.5,4.3c0,2.5,1.2,4.3,3.5,4.3S511.1,541,511.1,538.5z"/>
	<path d="M527.4,539h-7.9c0,2.4,1.4,3.8,3.5,3.8c1.2,0,2.1-0.3,3.1-1.4l1.1,0.9c-1.3,1.3-2.5,1.8-4.2,1.8c-3.3,0-5-2.5-5-5.5
		c0-3.1,1.7-5.7,4.8-5.7c3.3,0,4.7,2.6,4.7,5.1C527.5,538.3,527.4,538.7,527.4,539z M519.5,537.7h6.6c0,0,0-0.2,0-0.4
		c-0.1-1.8-1.2-3.1-3.2-3.1C520.8,534.2,519.6,535.8,519.5,537.7z"/>
	<path d="M537.3,543.9c-0.6,0.2-1.1,0.3-1.7,0.3c-1.5,0-2.5-0.8-2.5-2.7v-7h-1.8v-1.3h1.8v-2.8l1.5-1.1v4h2.6v1.3h-2.6v6.8
		c0,1.1,0.5,1.5,1.3,1.5c0.4,0,0.8-0.1,1.3-0.2L537.3,543.9z"/>
	<path d="M550.7,537.2v6.8h-1.4l-0.1-1.7c-0.9,1.2-2.2,1.8-3.9,1.8c-2.4,0-3.7-1.2-3.7-3.3c0-1.1,0.4-1.9,1.2-2.4s2-0.7,4.1-0.7h2.2
		v-0.5c0-1.9-1-2.9-2.8-2.9c-1.4,0-2.4,0.6-3.3,1.8l-1.1-0.9c1.2-1.5,2.6-2.2,4.4-2.2C549.1,533,550.7,534.5,550.7,537.2z
		 M549.1,539.1L549.1,539.1L547,539c-2,0-2.9,0.1-3.4,0.6c-0.4,0.3-0.6,0.8-0.6,1.4c0,1.2,1,2,2.7,2
		C547.8,542.9,549.1,541.4,549.1,539.1z"/>
	<path d="M556.4,528.6h1.8v2.2h-1.8V528.6z M556.5,533.1h1.5V544h-1.5V533.1z"/>
	<path d="M564.1,541.6v-13h1.5v12.9c0,0.7,0.3,1.2,1,1.2c0.3,0,0.7-0.1,1-0.2v1.3c-0.5,0.2-1,0.3-1.5,0.3
		C564.9,544.2,564.1,543.3,564.1,541.6z"/>
	<path d="M571.5,541.3l1.3-0.6c0.4,1.1,1.5,2.1,3.1,2.1c1.5,0,2.4-0.7,2.4-1.9c0-2.9-6.2-1.1-6.2-4.9c0-1.9,1.5-3.1,3.7-3.1
		c1.7,0,3.1,0.7,3.9,2.3l-1.2,0.7c-0.5-1-1.4-1.6-2.7-1.6s-2.2,0.5-2.2,1.5c0,2.6,6.3,0.9,6.3,5.1c0,2.2-1.8,3.3-3.9,3.3
		C573.8,544.2,572.1,543.1,571.5,541.3z"/>
	<path d="M106.8,575.2v6.8h-1.4l-0.1-1.7c-0.9,1.2-2.2,1.8-3.9,1.8c-2.4,0-3.7-1.2-3.7-3.3c0-1.1,0.4-1.9,1.2-2.4
		c0.8-0.5,2-0.7,4.1-0.7h2.2v-0.5c0-1.9-1-2.9-2.8-2.9c-1.4,0-2.4,0.6-3.3,1.8l-1.1-0.9c1.2-1.5,2.6-2.2,4.4-2.2
		C105.2,571,106.8,572.5,106.8,575.2z M105.2,577.1L105.2,577.1l-2.1-0.1c-2,0-2.9,0.1-3.4,0.6c-0.4,0.3-0.6,0.8-0.6,1.4
		c0,1.2,1,2,2.7,2C103.9,580.9,105.2,579.4,105.2,577.1z"/>
	<path d="M121.3,575.3v6.6h-1.5v-6.3c0-2.3-0.7-3.4-2.4-3.4c-2,0-3.2,1.8-3.2,4.8v4.9h-1.5v-10.8h1.5v1.6c0.7-1.1,2-1.8,3.6-1.8
		C120.1,571,121.3,572.5,121.3,575.3z"/>
	<path d="M136.5,566.6V582H135v-1.5c-0.8,1-2,1.6-3.6,1.6c-3.2,0-4.8-2.4-4.8-5.6c0-3.4,1.8-5.6,4.8-5.6c1.5,0,2.8,0.6,3.6,1.6v-5.9
		H136.5z M135.1,576.5c0-2.6-1.3-4.3-3.5-4.3s-3.5,1.7-3.5,4.3c0,2.5,1.2,4.3,3.5,4.3C133.9,580.8,135.1,579,135.1,576.5z"/>
	<path d="M160.1,577h-7.9c0,2.4,1.4,3.8,3.5,3.8c1.2,0,2.1-0.3,3.1-1.4l1.1,0.9c-1.3,1.3-2.5,1.8-4.2,1.8c-3.3,0-5-2.5-5-5.5
		c0-3.1,1.7-5.7,4.8-5.7c3.3,0,4.7,2.6,4.7,5.1C160.2,576.3,160.2,576.7,160.1,577z M152.2,575.7h6.6c0,0,0-0.2,0-0.4
		c-0.1-1.8-1.2-3.1-3.2-3.1C153.5,572.2,152.3,573.8,152.2,575.7z"/>
	<path d="M167.9,576.5l-4-5.4h1.8l3.1,4.4l3.1-4.4h1.8l-4,5.4l4,5.4H172l-3.1-4.4l-3.1,4.4h-1.9L167.9,576.5z"/>
	<path d="M188.6,576.5c0,3.2-1.7,5.6-4.8,5.6c-1.6,0-2.8-0.6-3.6-1.6v5.9h-1.5v-15.3h1.5v1.5c0.8-1.1,2-1.6,3.6-1.6
		C186.7,570.9,188.6,573.2,188.6,576.5z M187,576.5c0-2.6-1.3-4.3-3.5-4.3s-3.5,1.7-3.5,4.3c0,2.5,1.2,4.3,3.5,4.3
		S187,579,187,576.5z"/>
	<path d="M202.8,577h-7.9c0,2.4,1.4,3.8,3.5,3.8c1.2,0,2.1-0.3,3.1-1.4l1.1,0.9c-1.3,1.3-2.5,1.8-4.2,1.8c-3.3,0-5-2.5-5-5.5
		c0-3.1,1.7-5.7,4.8-5.7c3.3,0,4.7,2.6,4.7,5.1C202.8,576.3,202.8,576.7,202.8,577z M194.8,575.7h6.6c0,0,0-0.2,0-0.4
		c-0.1-1.8-1.2-3.1-3.2-3.1C196.2,572.2,194.9,573.8,194.8,575.7z"/>
	<path d="M214.8,571.4l-0.7,1.2c-0.5-0.2-1-0.3-1.4-0.3c-1.7,0-2.9,1.3-2.9,3.6v6.1h-1.5v-10.8h1.5v1.6c0.8-1.4,2.1-1.8,3.2-1.8
		C213.5,571,214.2,571.1,214.8,571.4z"/>
	<path d="M224.6,581.9c-0.6,0.2-1.1,0.3-1.7,0.3c-1.5,0-2.5-0.8-2.5-2.7v-7h-1.8v-1.3h1.8v-2.8l1.5-1.1v4h2.6v1.3H222v6.8
		c0,1.1,0.5,1.5,1.3,1.5c0.4,0,0.8-0.1,1.3-0.2V581.9z"/>
	<path d="M229.4,566.6h1.8v2.2h-1.8V566.6z M229.6,571.1h1.5V582h-1.5V571.1z"/>
	<path d="M236.1,579.3l1.3-0.6c0.4,1.1,1.5,2.1,3.1,2.1c1.5,0,2.4-0.7,2.4-1.9c0-2.9-6.2-1.1-6.2-4.9c0-1.9,1.5-3.1,3.7-3.1
		c1.7,0,3.1,0.7,3.9,2.3l-1.2,0.7c-0.5-1-1.4-1.6-2.7-1.6s-2.2,0.5-2.2,1.5c0,2.6,6.3,0.9,6.3,5.1c0,2.2-1.8,3.3-3.9,3.3
		C238.4,582.2,236.7,581.1,236.1,579.3z"/>
	<path d="M258.5,577h-7.9c0,2.4,1.4,3.8,3.5,3.8c1.2,0,2.1-0.3,3.1-1.4l1.1,0.9c-1.3,1.3-2.5,1.8-4.2,1.8c-3.3,0-5-2.5-5-5.5
		c0-3.1,1.7-5.7,4.8-5.7c3.3,0,4.7,2.6,4.7,5.1C258.5,576.3,258.5,576.7,258.5,577z M250.5,575.7h6.6c0,0,0-0.2,0-0.4
		c-0.1-1.8-1.2-3.1-3.2-3.1C251.9,572.2,250.7,573.8,250.5,575.7z"/>
	<path d="M280.7,575.2v6.8h-1.4l-0.1-1.7c-0.9,1.2-2.2,1.8-3.9,1.8c-2.4,0-3.7-1.2-3.7-3.3c0-1.1,0.4-1.9,1.2-2.4
		c0.8-0.5,2-0.7,4.1-0.7h2.2v-0.5c0-1.9-1-2.9-2.8-2.9c-1.4,0-2.4,0.6-3.3,1.8l-1.1-0.9c1.2-1.5,2.6-2.2,4.4-2.2
		C279.1,571,280.7,572.5,280.7,575.2z M279.2,577.1L279.2,577.1l-2.1-0.1c-2,0-2.9,0.1-3.4,0.6c-0.4,0.3-0.6,0.8-0.6,1.4
		c0,1.2,1,2,2.7,2C277.9,580.9,279.2,579.4,279.2,577.1z"/>
	<path d="M293.2,571.4l-0.7,1.2c-0.5-0.2-1-0.3-1.4-0.3c-1.7,0-2.9,1.3-2.9,3.6v6.1h-1.5v-10.8h1.5v1.6c0.8-1.4,2.1-1.8,3.2-1.8
		C292,571,292.6,571.1,293.2,571.4z"/>
	<path d="M306,577h-7.9c0,2.4,1.4,3.8,3.5,3.8c1.2,0,2.1-0.3,3.1-1.4l1.1,0.9c-1.3,1.3-2.5,1.8-4.2,1.8c-3.3,0-5-2.5-5-5.5
		c0-3.1,1.7-5.7,4.8-5.7c3.3,0,4.7,2.6,4.7,5.1C306.1,576.3,306.1,576.7,306,577z M298.1,575.7h6.6c0,0,0-0.2,0-0.4
		c-0.1-1.8-1.2-3.1-3.2-3.1C299.4,572.2,298.2,573.8,298.1,575.7z"/>
	<path d="M324.7,581.9c-0.6,0.2-1.1,0.3-1.7,0.3c-1.5,0-2.5-0.8-2.5-2.7v-7h-1.8v-1.3h1.8v-2.8l1.5-1.1v4h2.6v1.3H322v6.8
		c0,1.1,0.5,1.5,1.3,1.5c0.4,0,0.8-0.1,1.3-0.2L324.7,581.9z"/>
	<path d="M338.3,575.3v6.6h-1.5v-6.3c0-2.4-0.7-3.4-2.4-3.4c-2.1,0-3.2,1.7-3.2,4.7v5h-1.5v-15.3h1.5v6.1c0.7-1.1,2-1.8,3.6-1.8
		C337.1,571,338.3,572.5,338.3,575.3z"/>
	<path d="M353,577h-8c0,2.4,1.4,3.8,3.5,3.8c1.2,0,2.1-0.3,3.1-1.4l1.1,0.9c-1.3,1.3-2.5,1.8-4.2,1.8c-3.3,0-5-2.5-5-5.5
		c0-3.1,1.7-5.7,4.8-5.7c3.3,0,4.7,2.6,4.7,5.1C353,576.3,353,576.7,353,577z M345,575.7h6.6c0,0,0-0.2,0-0.4
		c-0.1-1.8-1.2-3.1-3.2-3.1S345.2,573.8,345,575.7z"/>
	<path d="M376.2,566.6V582h-1.5v-1.5c-0.8,1-2,1.6-3.6,1.6c-3.2,0-4.8-2.4-4.8-5.6c0-3.4,1.8-5.6,4.8-5.6c1.5,0,2.8,0.6,3.6,1.6
		v-5.9H376.2z M374.8,576.5c0-2.6-1.3-4.3-3.5-4.3s-3.5,1.7-3.5,4.3c0,2.5,1.2,4.3,3.5,4.3C373.6,580.8,374.8,579,374.8,576.5z"/>
	<path d="M382.2,566.6h1.8v2.2h-1.8V566.6z M382.3,571.1h1.5V582h-1.5V571.1z"/>
	<path d="M388.9,579.3l1.3-0.6c0.4,1.1,1.5,2.1,3.1,2.1c1.5,0,2.4-0.7,2.4-1.9c0-2.9-6.2-1.1-6.2-4.9c0-1.9,1.5-3.1,3.7-3.1
		c1.7,0,3.1,0.7,3.9,2.3l-1.2,0.7c-0.5-1-1.4-1.6-2.7-1.6c-1.3,0-2.2,0.5-2.2,1.5c0,2.6,6.3,0.9,6.3,5.1c0,2.2-1.8,3.3-3.9,3.3
		C391.2,582.2,389.5,581.1,388.9,579.3z"/>
	<path d="M407.3,581.9c-0.6,0.2-1.1,0.3-1.7,0.3c-1.5,0-2.5-0.8-2.5-2.7v-7h-1.8v-1.3h1.8v-2.8l1.5-1.1v4h2.6v1.3h-2.6v6.8
		c0,1.1,0.5,1.5,1.3,1.5c0.4,0,0.8-0.1,1.3-0.2L407.3,581.9z"/>
	<path d="M412.1,566.6h1.8v2.2h-1.8V566.6z M412.3,571.1h1.5V582h-1.5V571.1z"/>
	<path d="M428.5,575.3v6.6H427v-6.3c0-2.3-0.7-3.4-2.4-3.4c-2,0-3.2,1.8-3.2,4.8v4.9h-1.5v-10.8h1.5v1.6c0.7-1.1,2-1.8,3.6-1.8
		C427.3,571,428.5,572.5,428.5,575.3z"/>
	<path d="M433.7,576.6c0-2.9,1.6-5.6,4.9-5.6c1.9,0,3.5,1,4.4,3l-1.5,0.6c-0.5-1.4-1.6-2.2-2.9-2.2c-2.3,0-3.3,2.1-3.3,4.3
		s1,4.2,3.4,4.2c1.4,0,2.4-0.8,2.9-2.2l1.4,0.5c-0.7,2-2.3,3-4.3,3C435.5,582.2,433.7,579.6,433.7,576.6z"/>
	<path d="M452.8,581.9c-0.6,0.2-1.1,0.3-1.7,0.3c-1.5,0-2.5-0.8-2.5-2.7v-7h-1.8v-1.3h1.8v-2.8l1.5-1.1v4h2.6v1.3h-2.6v6.8
		c0,1.1,0.5,1.5,1.3,1.5c0.4,0,0.8-0.1,1.3-0.2L452.8,581.9z"/>
	<path d="M457.6,566.6h1.8v2.2h-1.8V566.6z M457.7,571.1h1.5V582h-1.5V571.1z"/>
	<path d="M464,571.1h1.6l3.4,8.9l3.4-8.9h1.7l-4.4,10.8h-1.3L464,571.1z"/>
	<path d="M487.1,577h-7.9c0,2.4,1.4,3.8,3.5,3.8c1.2,0,2.1-0.3,3.1-1.4l1.1,0.9c-1.3,1.3-2.5,1.8-4.2,1.8c-3.3,0-5-2.5-5-5.5
		c0-3.1,1.7-5.7,4.8-5.7c3.3,0,4.7,2.6,4.7,5.1C487.2,576.3,487.2,576.7,487.1,577z M479.2,575.7h6.6c0,0,0-0.2,0-0.4
		c-0.1-1.8-1.2-3.1-3.2-3.1C480.5,572.2,479.3,573.8,479.2,575.7z"/>
	<path d="M510.4,571.1v15.3h-1.5v-5.9c-0.8,1-2,1.6-3.6,1.6c-3.2,0-4.8-2.4-4.8-5.6c0-3.4,1.8-5.6,4.8-5.6c1.5,0,2.8,0.6,3.6,1.6
		V571h1.5V571.1z M509,576.5c0-2.6-1.3-4.3-3.5-4.3s-3.5,1.7-3.5,4.3c0,2.5,1.2,4.3,3.5,4.3S509,579,509,576.5z"/>
	<path d="M525,571.1V582h-1.5v-1.6c-0.8,1.2-2.2,1.7-3.6,1.7c-2.5,0-3.5-1.7-3.5-4.4v-6.6h1.5v6.3c0,1.8,0.3,3.4,2.4,3.4
		c2.2,0,3.2-1.9,3.2-4.7v-5L525,571.1L525,571.1z"/>
	<path d="M539.3,575.2v6.8H538l-0.1-1.7c-0.9,1.2-2.2,1.8-3.9,1.8c-2.4,0-3.7-1.2-3.7-3.3c0-1.1,0.4-1.9,1.2-2.4s2-0.7,4.1-0.7h2.2
		v-0.5c0-1.9-1-2.9-2.8-2.9c-1.4,0-2.4,0.6-3.3,1.8l-1.1-0.9c1.2-1.5,2.6-2.2,4.4-2.2C537.8,571,539.3,572.5,539.3,575.2z
		 M537.8,577.1L537.8,577.1l-2.1-0.1c-2,0-2.9,0.1-3.4,0.6c-0.4,0.3-0.6,0.8-0.6,1.4c0,1.2,1,2,2.7,2
		C536.5,580.9,537.8,579.4,537.8,577.1z"/>
	<path d="M545.2,579.6v-13h1.5v12.9c0,0.7,0.3,1.2,1,1.2c0.3,0,0.7-0.1,1-0.2v1.3c-0.5,0.2-1,0.3-1.5,0.3
		C546,582.2,545.2,581.3,545.2,579.6z"/>
	<path d="M553.3,566.6h1.8v2.2h-1.8V566.6z M553.5,571.1h1.5V582h-1.5V571.1z"/>
	<path d="M565.7,581.9c-0.6,0.2-1.1,0.3-1.7,0.3c-1.5,0-2.5-0.8-2.5-2.7v-7h-1.8v-1.3h1.8v-2.8l1.5-1.1v4h2.6v1.3H563v6.8
		c0,1.1,0.5,1.5,1.3,1.5c0.4,0,0.8-0.1,1.3-0.2L565.7,581.9z"/>
	<path d="M570.5,566.6h1.8v2.2h-1.8V566.6z M570.6,571.1h1.5V582h-1.5V571.1z"/>
	<path d="M586.9,577H579c0,2.4,1.4,3.8,3.5,3.8c1.2,0,2.1-0.3,3.1-1.4l1.1,0.9c-1.3,1.3-2.5,1.8-4.2,1.8c-3.3,0-5-2.5-5-5.5
		c0-3.1,1.7-5.7,4.8-5.7c3.3,0,4.7,2.6,4.7,5.1C587,576.3,587,576.7,586.9,577z M579,575.7h6.6c0,0,0-0.2,0-0.4
		c-0.1-1.8-1.2-3.1-3.2-3.1C580.3,572.2,579.1,573.8,579,575.7z"/>
	<path d="M591.2,579.3l1.3-0.6c0.4,1.1,1.5,2.1,3.1,2.1c1.5,0,2.4-0.7,2.4-1.9c0-2.9-6.2-1.1-6.2-4.9c0-1.9,1.5-3.1,3.7-3.1
		c1.7,0,3.1,0.7,3.9,2.3l-1.2,0.7c-0.5-1-1.4-1.6-2.7-1.6s-2.2,0.5-2.2,1.5c0,2.6,6.3,0.9,6.3,5.1c0,2.2-1.8,3.3-3.9,3.3
		C593.6,582.2,591.8,581.1,591.2,579.3z"/>
	<path d="M97.7,614.5c0-3.2,2.1-5.6,5.2-5.6s5.2,2.4,5.2,5.6c0,3.2-2.1,5.6-5.2,5.6S97.7,617.8,97.7,614.5z M106.6,614.5
		c0-2.5-1.4-4.2-3.7-4.2c-2.3,0-3.7,1.8-3.7,4.2c0,2.5,1.4,4.3,3.7,4.3C105.3,618.8,106.6,617,106.6,614.5z"/>
	<path d="M114,610.4h-2.3v-1.3h2.3v-1.7c0-2.3,1.3-3,2.7-3c0.6,0,1.3,0.1,1.9,0.4l-0.5,1.2c-0.5-0.2-0.9-0.4-1.3-0.4
		c-0.9,0-1.4,0.6-1.4,1.6v1.8h3.1v1.3h-3.1v9.6H114V610.4z"/>
	<path d="M131.2,614.5c0-3.2,2.1-5.6,5.2-5.6c3.1,0,5.2,2.4,5.2,5.6c0,3.2-2.1,5.6-5.2,5.6S131.2,617.8,131.2,614.5z M140.1,614.5
		c0-2.5-1.4-4.2-3.7-4.2s-3.7,1.8-3.7,4.2c0,2.5,1.4,4.3,3.7,4.3C138.7,618.8,140.1,617,140.1,614.5z"/>
	<path d="M155.4,609.1V620h-1.5v-1.6c-0.8,1.2-2.2,1.7-3.6,1.7c-2.5,0-3.5-1.7-3.5-4.4v-6.6h1.5v6.3c0,1.8,0.3,3.4,2.4,3.4
		c2.2,0,3.2-1.9,3.2-4.7v-5L155.4,609.1L155.4,609.1z"/>
	<path d="M168.1,609.4l-0.7,1.2c-0.5-0.2-1-0.3-1.4-0.3c-1.7,0-2.9,1.3-2.9,3.6v6.1h-1.5v-10.8h1.5v1.6c0.8-1.4,2.1-1.8,3.2-1.8
		C166.8,609,167.5,609.1,168.1,609.4z"/>
	<path d="M189.9,615H182c0,2.4,1.4,3.8,3.5,3.8c1.2,0,2.1-0.3,3.1-1.4l1.1,0.9c-1.3,1.3-2.5,1.8-4.2,1.8c-3.3,0-5-2.5-5-5.5
		c0-3.1,1.7-5.7,4.8-5.7c3.3,0,4.7,2.6,4.7,5.1C190,614.3,190,614.7,189.9,615z M182,613.7h6.6c0,0,0-0.2,0-0.4
		c-0.1-1.8-1.2-3.1-3.2-3.1C183.3,610.2,182.1,611.8,182,613.7z"/>
	<path d="M210.2,613.2v6.8h-1.5v-6.4c0-0.9,0-3.3-2.4-3.3c-2.2,0-2.8,2-2.8,4.5v5.2H202v-6.3c0-1.8-0.5-3.4-2.4-3.4
		c-2.1,0-2.7,2-2.7,4.5v5.2h-1.5v-10.8h1.5v1.3c0.7-1.1,1.8-1.5,3-1.5c1.5,0,2.6,0.7,3.2,2.1c0.7-1.4,1.9-2.1,3.6-2.1
		C209.2,609,210.2,610.7,210.2,613.2z"/>
	<path d="M226.1,614.5c0,3.2-1.7,5.6-4.8,5.6c-1.6,0-2.8-0.6-3.6-1.6v5.9h-1.5v-15.3h1.5v1.5c0.8-1.1,2-1.6,3.6-1.6
		C224.3,608.9,226.1,611.2,226.1,614.5z M224.6,614.5c0-2.6-1.3-4.3-3.5-4.3s-3.5,1.7-3.5,4.3c0,2.5,1.2,4.3,3.5,4.3
		C223.4,618.8,224.6,617,224.6,614.5z"/>
	<path d="M231.5,617.6v-13h1.5v12.9c0,0.7,0.3,1.2,1,1.2c0.3,0,0.7-0.1,1-0.2v1.3c-0.5,0.2-1,0.3-1.5,0.3
		C232.3,620.2,231.5,619.3,231.5,617.6z"/>
	<path d="M238.7,614.5c0-3.2,2.1-5.6,5.2-5.6c3.1,0,5.2,2.4,5.2,5.6c0,3.2-2.1,5.6-5.2,5.6S238.7,617.8,238.7,614.5z M247.6,614.5
		c0-2.5-1.4-4.2-3.7-4.2s-3.7,1.8-3.7,4.2c0,2.5,1.4,4.3,3.7,4.3C246.2,618.8,247.6,617,247.6,614.5z"/>
	<path d="M257.2,619.8l-4.6-10.7h1.7l3.7,8.9l3.3-8.9h1.7l-5.9,15.3h-1.6L257.2,619.8z"/>
	<path d="M276,615h-8c0,2.4,1.4,3.8,3.5,3.8c1.2,0,2.1-0.3,3.1-1.4l1.1,0.9c-1.3,1.3-2.5,1.8-4.2,1.8c-3.3,0-5-2.5-5-5.5
		c0-3.1,1.7-5.7,4.8-5.7c3.3,0,4.7,2.6,4.7,5.1C276,614.3,276,614.7,276,615z M268,613.7h6.6c0,0,0-0.2,0-0.4
		c-0.1-1.8-1.2-3.1-3.2-3.1S268.2,611.8,268,613.7z"/>
	<path d="M290.1,615h-7.9c0,2.4,1.4,3.8,3.5,3.8c1.2,0,2.1-0.3,3.1-1.4l1.1,0.9c-1.3,1.3-2.5,1.8-4.2,1.8c-3.3,0-5-2.5-5-5.5
		c0-3.1,1.7-5.7,4.8-5.7c3.3,0,4.7,2.6,4.7,5.1C290.2,614.3,290.2,614.7,290.1,615z M282.2,613.7h6.6c0,0,0-0.2,0-0.4
		c-0.1-1.8-1.2-3.1-3.2-3.1C283.5,610.2,282.3,611.8,282.2,613.7z"/>
	<path d="M294.4,617.3l1.3-0.6c0.4,1.1,1.5,2.1,3.1,2.1c1.5,0,2.4-0.7,2.4-1.9c0-2.9-6.2-1.1-6.2-4.9c0-1.9,1.5-3.1,3.7-3.1
		c1.7,0,3.1,0.7,3.9,2.3l-1.2,0.7c-0.5-1-1.4-1.6-2.7-1.6c-1.3,0-2.2,0.5-2.2,1.5c0,2.6,6.3,0.9,6.3,5.1c0,2.2-1.8,3.3-3.9,3.3
		C296.7,620.2,295,619.1,294.4,617.3z"/>
	<path d="M308.8,617.6h2v2.4h-2V617.6z"/>
	<path d="M330.6,606.1h-5.3v-1.5h12.2v1.5h-5.3V620h-1.6L330.6,606.1L330.6,606.1z"/>
	<path d="M351.3,613.3v6.6h-1.5v-6.3c0-2.4-0.7-3.4-2.4-3.4c-2.1,0-3.2,1.7-3.2,4.7v5h-1.5v-15.3h1.5v6.1c0.7-1.1,2-1.8,3.6-1.8
		C350,609,351.3,610.5,351.3,613.3z"/>
	<path d="M365.9,615H358c0,2.4,1.4,3.8,3.5,3.8c1.2,0,2.1-0.3,3.1-1.4l1.1,0.9c-1.3,1.3-2.5,1.8-4.2,1.8c-3.3,0-5-2.5-5-5.5
		c0-3.1,1.7-5.7,4.8-5.7c3.3,0,4.7,2.6,4.7,5.1C366,614.3,366,614.7,365.9,615z M358,613.7h6.6c0,0,0-0.2,0-0.4
		c-0.1-1.8-1.2-3.1-3.2-3.1C359.3,610.2,358.1,611.8,358,613.7z"/>
	<path d="M380.6,604.6h4.4c3.3,0,5.1,1.5,5.1,4.3s-1.8,4.4-5.1,4.4h-2.8v6.7h-1.6V604.6z M384.8,611.8c2.4,0,3.6-1,3.6-2.9
		s-1.2-2.9-3.6-2.9h-2.7v5.7h2.7V611.8z"/>
	<path d="M401.9,609.4l-0.7,1.2c-0.5-0.2-1-0.3-1.4-0.3c-1.7,0-2.9,1.3-2.9,3.6v6.1h-1.5v-10.8h1.5v1.6c0.8-1.4,2.1-1.8,3.2-1.8
		C400.7,609,401.3,609.1,401.9,609.4z"/>
	<path d="M414.5,613.2v6.8h-1.4l-0.1-1.7c-0.9,1.2-2.2,1.8-3.9,1.8c-2.4,0-3.7-1.2-3.7-3.3c0-1.1,0.4-1.9,1.2-2.4
		c0.8-0.5,2-0.7,4.1-0.7h2.2v-0.5c0-1.9-1-2.9-2.8-2.9c-1.4,0-2.4,0.6-3.3,1.8l-1.1-0.9c1.2-1.5,2.6-2.2,4.4-2.2
		C412.9,609,414.5,610.5,414.5,613.2z M413,615.1L413,615.1l-2.1-0.1c-2,0-2.9,0.1-3.4,0.6c-0.4,0.3-0.6,0.8-0.6,1.4
		c0,1.2,1,2,2.7,2C411.7,618.9,413,617.4,413,615.1z"/>
	<path d="M429.6,604.6V620h-1.5v-1.5c-0.8,1-2,1.6-3.6,1.6c-3.2,0-4.8-2.4-4.8-5.6c0-3.4,1.8-5.6,4.8-5.6c1.5,0,2.8,0.6,3.6,1.6
		v-5.9H429.6z M428.2,614.5c0-2.6-1.3-4.3-3.5-4.3s-3.5,1.7-3.5,4.3c0,2.5,1.2,4.3,3.5,4.3S428.2,617,428.2,614.5z"/>
	<path d="M444,613.2v6.8h-1.4l-0.1-1.7c-0.9,1.2-2.2,1.8-3.9,1.8c-2.4,0-3.7-1.2-3.7-3.3c0-1.1,0.4-1.9,1.2-2.4
		c0.8-0.5,2-0.7,4.1-0.7h2.2v-0.5c0-1.9-1-2.9-2.8-2.9c-1.4,0-2.4,0.6-3.3,1.8l-1.1-0.9c1.2-1.5,2.6-2.2,4.4-2.2
		C442.4,609,444,610.5,444,613.2z M442.5,615.1L442.5,615.1l-2.1-0.1c-2,0-2.9,0.1-3.4,0.6c-0.4,0.3-0.6,0.8-0.6,1.4
		c0,1.2,1,2,2.7,2C441.2,618.9,442.5,617.4,442.5,615.1z"/>
	<path d="M466.5,612.1h5.2v7.9h-1.3l-0.2-2.4c-0.8,1.7-2.7,2.6-5.1,2.6c-4.5,0-6.9-3.3-6.9-7.9c0-4.6,2.4-7.9,7.1-7.9
		c3.2,0,5.3,1.6,6.3,4.2l-1.5,0.5c-0.8-2.1-2.3-3.3-4.9-3.3c-3.7,0-5.5,2.5-5.5,6.3c0,3.7,1.6,6.5,5.4,6.5c2.6,0,5-1.4,5-4.9v-0.5
		h-3.7v-1.1H466.5z"/>
	<path d="M484.6,609.4l-0.7,1.2c-0.5-0.2-1-0.3-1.4-0.3c-1.7,0-2.9,1.3-2.9,3.6v6.1H478v-10.8h1.5v1.6c0.8-1.4,2.1-1.8,3.2-1.8
		C483.4,609,484,609.1,484.6,609.4z"/>
	<path d="M487.8,614.5c0-3.2,2.1-5.6,5.2-5.6s5.2,2.4,5.2,5.6c0,3.2-2.1,5.6-5.2,5.6S487.8,617.8,487.8,614.5z M496.7,614.5
		c0-2.5-1.4-4.2-3.7-4.2c-2.3,0-3.7,1.8-3.7,4.2c0,2.5,1.4,4.3,3.7,4.3C495.4,618.8,496.7,617,496.7,614.5z"/>
	<path d="M512,609.1V620h-1.5v-1.6c-0.8,1.2-2.2,1.7-3.6,1.7c-2.5,0-3.5-1.7-3.5-4.4v-6.6h1.5v6.3c0,1.8,0.3,3.4,2.4,3.4
		c2.2,0,3.2-1.9,3.2-4.7v-5L512,609.1L512,609.1z"/>
	<path d="M528,614.5c0,3.2-1.7,5.6-4.8,5.6c-1.6,0-2.8-0.6-3.6-1.6v5.9h-1.5v-15.3h1.5v1.5c0.8-1.1,2-1.6,3.6-1.6
		C526.2,608.9,528,611.2,528,614.5z M526.5,614.5c0-2.6-1.3-4.3-3.5-4.3s-3.5,1.7-3.5,4.3c0,2.5,1.2,4.3,3.5,4.3
		S526.5,617,526.5,614.5z"/>
	<path d="M541.1,617.3l1.3-0.6c0.4,1.1,1.5,2.1,3.1,2.1c1.5,0,2.4-0.7,2.4-1.9c0-2.9-6.2-1.1-6.2-4.9c0-1.9,1.5-3.1,3.7-3.1
		c1.7,0,3.1,0.7,3.9,2.3l-1.2,0.7c-0.5-1-1.4-1.6-2.7-1.6s-2.2,0.5-2.2,1.5c0,2.6,6.3,0.9,6.3,5.1c0,2.2-1.8,3.3-3.9,3.3
		C543.4,620.2,541.7,619.1,541.1,617.3z"/>
	<path d="M563.4,615h-7.9c0,2.4,1.4,3.8,3.5,3.8c1.2,0,2.1-0.3,3.1-1.4l1.1,0.9c-1.3,1.3-2.5,1.8-4.2,1.8c-3.3,0-5-2.5-5-5.5
		c0-3.1,1.7-5.7,4.8-5.7c3.3,0,4.7,2.6,4.7,5.1C563.5,614.3,563.5,614.7,563.4,615z M555.5,613.7h6.6c0,0,0-0.2,0-0.4
		c-0.1-1.8-1.2-3.1-3.2-3.1C556.8,610.2,555.6,611.8,555.5,613.7z"/>
	<path d="M577.5,615h-7.9c0,2.4,1.4,3.8,3.5,3.8c1.2,0,2.1-0.3,3.1-1.4l1.1,0.9c-1.3,1.3-2.5,1.8-4.2,1.8c-3.3,0-5-2.5-5-5.5
		c0-3.1,1.7-5.7,4.8-5.7c3.3,0,4.7,2.6,4.7,5.1C577.6,614.3,577.6,614.7,577.5,615z M569.6,613.7h6.6c0,0,0-0.2,0-0.4
		c-0.1-1.8-1.2-3.1-3.2-3.1C570.9,610.2,569.7,611.8,569.6,613.7z"/>
	<path d="M582.9,604.6h1.5v10.2l5.4-5.7h2l-3.9,4.1l4.6,6.8h-1.8l-3.8-5.8l-2.5,2.6v3.2h-1.5V604.6z"/>
	<path d="M596,617.3l1.3-0.6c0.4,1.1,1.5,2.1,3.1,2.1c1.5,0,2.4-0.7,2.4-1.9c0-2.9-6.2-1.1-6.2-4.9c0-1.9,1.5-3.1,3.7-3.1
		c1.7,0,3.1,0.7,3.9,2.3l-1.2,0.7c-0.5-1-1.4-1.6-2.7-1.6s-2.2,0.5-2.2,1.5c0,2.6,6.3,0.9,6.3,5.1c0,2.2-1.8,3.3-3.9,3.3
		C598.3,620.2,596.6,619.1,596,617.3z"/>
	<path d="M106.8,651.2v6.8h-1.4l-0.1-1.7c-0.9,1.2-2.2,1.8-3.9,1.8c-2.4,0-3.7-1.2-3.7-3.3c0-1.1,0.4-1.9,1.2-2.4
		c0.8-0.5,2-0.7,4.1-0.7h2.2v-0.5c0-1.9-1-2.9-2.8-2.9c-1.4,0-2.4,0.6-3.3,1.8l-1.1-0.9c1.2-1.5,2.6-2.2,4.4-2.2
		C105.2,647,106.8,648.5,106.8,651.2z M105.2,653.1L105.2,653.1l-2.1-0.1c-2,0-2.9,0.1-3.4,0.6c-0.4,0.3-0.6,0.8-0.6,1.4
		c0,1.2,1,2,2.7,2C103.9,656.9,105.2,655.4,105.2,653.1z"/>
	<path d="M130.6,642.6V658h-1.5v-1.5c-0.8,1-2,1.6-3.6,1.6c-3.2,0-4.8-2.4-4.8-5.6c0-3.4,1.8-5.6,4.8-5.6c1.5,0,2.8,0.6,3.6,1.6
		v-5.9H130.6z M129.2,652.5c0-2.6-1.3-4.3-3.5-4.3s-3.5,1.7-3.5,4.3c0,2.5,1.2,4.3,3.5,4.3S129.2,655,129.2,652.5z"/>
	<path d="M136.6,642.6h1.8v2.2h-1.8V642.6z M136.7,647.1h1.5V658h-1.5V647.1z"/>
	<path d="M142.9,647.1h1.6l3.4,8.9l3.4-8.9h1.7l-4.4,10.8h-1.3L142.9,647.1z"/>
	<path d="M166.1,653h-7.9c0,2.4,1.4,3.8,3.5,3.8c1.2,0,2.1-0.3,3.1-1.4l1.1,0.9c-1.3,1.3-2.5,1.8-4.2,1.8c-3.3,0-5-2.5-5-5.5
		c0-3.1,1.7-5.7,4.8-5.7c3.3,0,4.7,2.6,4.7,5.1C166.2,652.3,166.1,652.7,166.1,653z M158.1,651.7h6.6c0,0,0-0.2,0-0.4
		c-0.1-1.8-1.2-3.1-3.2-3.1C159.5,648.2,158.3,649.8,158.1,651.7z"/>
	<path d="M178.1,647.4l-0.7,1.2c-0.5-0.2-1-0.3-1.4-0.3c-1.7,0-2.9,1.3-2.9,3.6v6.1h-1.5v-10.8h1.5v1.6c0.8-1.4,2.1-1.8,3.2-1.8
		C176.9,647,177.5,647.1,178.1,647.4z"/>
	<path d="M181.4,655.3l1.3-0.6c0.4,1.1,1.5,2.1,3.1,2.1c1.5,0,2.4-0.7,2.4-1.9c0-2.9-6.2-1.1-6.2-4.9c0-1.9,1.5-3.1,3.7-3.1
		c1.7,0,3.1,0.7,3.9,2.3l-1.2,0.7c-0.5-1-1.4-1.6-2.7-1.6s-2.2,0.5-2.2,1.5c0,2.6,6.3,0.9,6.3,5.1c0,2.2-1.8,3.3-3.9,3.3
		C183.7,658.2,182,657.1,181.4,655.3z"/>
	<path d="M203.8,653h-7.9c0,2.4,1.4,3.8,3.5,3.8c1.2,0,2.1-0.3,3.1-1.4l1.1,0.9c-1.3,1.3-2.5,1.8-4.2,1.8c-3.3,0-5-2.5-5-5.5
		c0-3.1,1.7-5.7,4.8-5.7c3.3,0,4.7,2.6,4.7,5.1C203.8,652.3,203.8,652.7,203.8,653z M195.8,651.7h6.6c0,0,0-0.2,0-0.4
		c-0.1-1.8-1.2-3.1-3.2-3.1C197.2,648.2,196,649.8,195.8,651.7z"/>
	<path d="M226.3,647.1V658h-1.5v-1.6c-0.8,1.2-2.2,1.7-3.6,1.7c-2.5,0-3.5-1.7-3.5-4.4v-6.6h1.5v6.3c0,1.8,0.3,3.4,2.4,3.4
		c2.2,0,3.2-1.9,3.2-4.7v-5L226.3,647.1L226.3,647.1z"/>
	<path d="M241.1,651.3v6.6h-1.5v-6.3c0-2.3-0.7-3.4-2.4-3.4c-2,0-3.2,1.8-3.2,4.8v4.9h-1.5v-10.8h1.5v1.6c0.7-1.1,2-1.8,3.6-1.8
		C239.9,647,241.1,648.5,241.1,651.3z"/>
	<path d="M246.9,642.6h1.8v2.2h-1.8V642.6z M247,647.1h1.5V658H247V647.1z"/>
	<path d="M253.2,647.1h1.6l3.4,8.9l3.4-8.9h1.7l-4.4,10.8h-1.3L253.2,647.1z"/>
	<path d="M276.4,653h-7.9c0,2.4,1.4,3.8,3.5,3.8c1.2,0,2.1-0.3,3.1-1.4l1.1,0.9c-1.3,1.3-2.5,1.8-4.2,1.8c-3.3,0-5-2.5-5-5.5
		c0-3.1,1.7-5.7,4.8-5.7c3.3,0,4.7,2.6,4.7,5.1C276.5,652.3,276.4,652.7,276.4,653z M268.4,651.7h6.6c0,0,0-0.2,0-0.4
		c-0.1-1.8-1.2-3.1-3.2-3.1S268.6,649.8,268.4,651.7z"/>
	<path d="M288.4,647.4l-0.7,1.2c-0.5-0.2-1-0.3-1.4-0.3c-1.7,0-2.9,1.3-2.9,3.6v6.1h-1.5v-10.8h1.5v1.6c0.8-1.4,2.1-1.8,3.2-1.8
		C287.2,647,287.8,647.1,288.4,647.4z"/>
	<path d="M291.7,655.3l1.3-0.6c0.4,1.1,1.5,2.1,3.1,2.1c1.5,0,2.4-0.7,2.4-1.9c0-2.9-6.2-1.1-6.2-4.9c0-1.9,1.5-3.1,3.7-3.1
		c1.7,0,3.1,0.7,3.9,2.3l-1.2,0.7c-0.5-1-1.4-1.6-2.7-1.6c-1.3,0-2.2,0.5-2.2,1.5c0,2.6,6.3,0.9,6.3,5.1c0,2.2-1.8,3.3-3.9,3.3
		C294,658.2,292.3,657.1,291.7,655.3z"/>
	<path d="M314.1,653h-7.9c0,2.4,1.4,3.8,3.5,3.8c1.2,0,2.1-0.3,3.1-1.4l1.1,0.9c-1.3,1.3-2.5,1.8-4.2,1.8c-3.3,0-5-2.5-5-5.5
		c0-3.1,1.7-5.7,4.8-5.7c3.3,0,4.7,2.6,4.7,5.1C314.1,652.3,314.1,652.7,314.1,653z M306.1,651.7h6.6c0,0,0-0.2,0-0.4
		c-0.1-1.8-1.2-3.1-3.2-3.1S306.3,649.8,306.1,651.7z"/>
	<path d="M327.3,652.5c0-3.2,2.1-5.6,5.2-5.6s5.2,2.4,5.2,5.6c0,3.2-2.1,5.6-5.2,5.6S327.3,655.8,327.3,652.5z M336.2,652.5
		c0-2.5-1.4-4.2-3.7-4.2c-2.3,0-3.7,1.8-3.7,4.2c0,2.5,1.4,4.3,3.7,4.3C334.8,656.8,336.2,655,336.2,652.5z"/>
	<path d="M343.6,648.4h-2.3v-1.3h2.3v-1.7c0-2.3,1.3-3,2.7-3c0.6,0,1.3,0.1,1.9,0.4l-0.5,1.2c-0.5-0.2-0.9-0.4-1.3-0.4
		c-0.9,0-1.4,0.6-1.4,1.6v1.8h3.1v1.3H345v9.6h-1.5L343.6,648.4L343.6,648.4z"/>
	<path d="M360.8,652.6c0-2.9,1.6-5.6,4.9-5.6c1.9,0,3.5,1,4.4,3l-1.5,0.6c-0.5-1.4-1.6-2.2-2.9-2.2c-2.3,0-3.3,2.1-3.3,4.3
		s1,4.2,3.4,4.2c1.4,0,2.4-0.8,2.9-2.2l1.4,0.5c-0.7,2-2.3,3-4.3,3C362.5,658.2,360.8,655.6,360.8,652.6z"/>
	<path d="M383.6,647.1V658h-1.5v-1.6c-0.8,1.2-2.2,1.7-3.6,1.7c-2.5,0-3.5-1.7-3.5-4.4v-6.6h1.5v6.3c0,1.8,0.3,3.4,2.4,3.4
		c2.2,0,3.2-1.9,3.2-4.7v-5L383.6,647.1L383.6,647.1z"/>
	<path d="M389.6,655.6v-13h1.5v12.9c0,0.7,0.3,1.2,1,1.2c0.3,0,0.7-0.1,1-0.2v1.3c-0.5,0.2-1,0.3-1.5,0.3
		C390.4,658.2,389.6,657.3,389.6,655.6z"/>
	<path d="M402.2,657.9c-0.6,0.2-1.1,0.3-1.7,0.3c-1.5,0-2.5-0.8-2.5-2.7v-7h-1.8v-1.3h1.8v-2.8l1.5-1.1v4h2.6v1.3h-2.6v6.8
		c0,1.1,0.5,1.5,1.3,1.5c0.4,0,0.8-0.1,1.3-0.2L402.2,657.9z"/>
	<path d="M415.6,647.1V658h-1.5v-1.6c-0.8,1.2-2.2,1.7-3.6,1.7c-2.5,0-3.5-1.7-3.5-4.4v-6.6h1.5v6.3c0,1.8,0.3,3.4,2.4,3.4
		c2.2,0,3.2-1.9,3.2-4.7v-5L415.6,647.1L415.6,647.1z"/>
	<path d="M428.3,647.4l-0.7,1.2c-0.5-0.2-1-0.3-1.4-0.3c-1.7,0-2.9,1.3-2.9,3.6v6.1h-1.5v-10.8h1.5v1.6c0.8-1.4,2.1-1.8,3.2-1.8
		C427.1,647,427.7,647.1,428.3,647.4z"/>
	<path d="M441.1,653h-7.9c0,2.4,1.4,3.8,3.5,3.8c1.2,0,2.1-0.3,3.1-1.4l1.1,0.9c-1.3,1.3-2.5,1.8-4.2,1.8c-3.3,0-5-2.5-5-5.5
		c0-3.1,1.7-5.7,4.8-5.7c3.3,0,4.7,2.6,4.7,5.1C441.2,652.3,441.2,652.7,441.1,653z M433.2,651.7h6.6c0,0,0-0.2,0-0.4
		c-0.1-1.8-1.2-3.1-3.2-3.1C434.5,648.2,433.3,649.8,433.2,651.7z"/>
	<path d="M445.4,655.3l1.3-0.6c0.4,1.1,1.5,2.1,3.1,2.1c1.5,0,2.4-0.7,2.4-1.9c0-2.9-6.2-1.1-6.2-4.9c0-1.9,1.5-3.1,3.7-3.1
		c1.7,0,3.1,0.7,3.9,2.3l-1.2,0.7c-0.5-1-1.4-1.6-2.7-1.6c-1.3,0-2.2,0.5-2.2,1.5c0,2.6,6.3,0.9,6.3,5.1c0,2.2-1.8,3.3-3.9,3.3
		C447.7,658.2,446,657.1,445.4,655.3z"/>
	<path d="M476,651.2v6.8h-1.4l-0.1-1.7c-0.9,1.2-2.2,1.8-3.9,1.8c-2.4,0-3.7-1.2-3.7-3.3c0-1.1,0.4-1.9,1.2-2.4
		c0.8-0.5,2-0.7,4.1-0.7h2.2v-0.5c0-1.9-1-2.9-2.8-2.9c-1.4,0-2.4,0.6-3.3,1.8l-1.1-0.9c1.2-1.5,2.6-2.2,4.4-2.2
		C474.4,647,476,648.5,476,651.2z M474.5,653.1L474.5,653.1l-2.1-0.1c-2,0-2.9,0.1-3.4,0.6c-0.4,0.3-0.6,0.8-0.6,1.4
		c0,1.2,1,2,2.7,2C473.1,656.9,474.5,655.4,474.5,653.1z"/>
	<path d="M490.5,651.3v6.6H489v-6.3c0-2.3-0.7-3.4-2.4-3.4c-2,0-3.2,1.8-3.2,4.8v4.9h-1.5v-10.8h1.5v1.6c0.7-1.1,2-1.8,3.6-1.8
		C489.3,647,490.5,648.5,490.5,651.3z"/>
	<path d="M505.7,642.6V658h-1.5v-1.5c-0.8,1-2,1.6-3.6,1.6c-3.2,0-4.8-2.4-4.8-5.6c0-3.4,1.8-5.6,4.8-5.6c1.5,0,2.8,0.6,3.6,1.6
		v-5.9H505.7z M504.3,652.5c0-2.6-1.3-4.3-3.5-4.3s-3.5,1.7-3.5,4.3c0,2.5,1.2,4.3,3.5,4.3C503.1,656.8,504.3,655,504.3,652.5z"/>
	<path d="M97.8,690.6c0-2.9,1.6-5.6,4.9-5.6c1.9,0,3.5,1,4.4,3l-1.5,0.6c-0.5-1.4-1.6-2.2-2.9-2.2c-2.3,0-3.3,2.1-3.3,4.3
		s1,4.2,3.4,4.2c1.4,0,2.4-0.8,2.9-2.2l1.4,0.5c-0.7,2-2.3,3-4.3,3C99.6,696.2,97.8,693.6,97.8,690.6z"/>
	<path d="M120.8,689.3v6.6h-1.5v-6.3c0-2.4-0.7-3.4-2.4-3.4c-2.1,0-3.2,1.7-3.2,4.7v5h-1.5v-15.3h1.5v6.1c0.7-1.1,2-1.8,3.6-1.8
		C119.6,685,120.8,686.5,120.8,689.3z"/>
	<path d="M135,689.2v6.8h-1.4l-0.1-1.7c-0.9,1.2-2.2,1.8-3.9,1.8c-2.4,0-3.7-1.2-3.7-3.3c0-1.1,0.4-1.9,1.2-2.4
		c0.8-0.5,2-0.7,4.1-0.7h2.2v-0.5c0-1.9-1-2.9-2.8-2.9c-1.4,0-2.4,0.6-3.3,1.8l-1.1-0.9c1.2-1.5,2.6-2.2,4.4-2.2
		C133.4,685,135,686.5,135,689.2z M133.4,691.1L133.4,691.1l-2.1-0.1c-2,0-2.9,0.1-3.4,0.6c-0.4,0.3-0.6,0.8-0.6,1.4
		c0,1.2,1,2,2.7,2C132.1,694.9,133.4,693.4,133.4,691.1z"/>
	<path d="M147.5,685.4l-0.7,1.2c-0.5-0.2-1-0.3-1.4-0.3c-1.7,0-2.9,1.3-2.9,3.6v6.1H141v-10.8h1.5v1.6c0.8-1.4,2.1-1.8,3.2-1.8
		C146.3,685,146.9,685.1,147.5,685.4z"/>
	<path d="M160.1,689.2v6.8h-1.4l-0.1-1.7c-0.9,1.2-2.2,1.8-3.9,1.8c-2.4,0-3.7-1.2-3.7-3.3c0-1.1,0.4-1.9,1.2-2.4s2-0.7,4.1-0.7h2.2
		v-0.5c0-1.9-1-2.9-2.8-2.9c-1.4,0-2.4,0.6-3.3,1.8l-1.1-0.9c1.2-1.5,2.6-2.2,4.4-2.2C158.5,685,160.1,686.5,160.1,689.2z
		 M158.6,691.1L158.6,691.1l-2.1-0.1c-2,0-2.9,0.1-3.4,0.6c-0.4,0.3-0.6,0.8-0.6,1.4c0,1.2,1,2,2.7,2
		C157.2,694.9,158.6,693.4,158.6,691.1z"/>
	<path d="M165.2,690.6c0-2.9,1.6-5.6,4.9-5.6c1.9,0,3.5,1,4.4,3l-1.5,0.6c-0.5-1.4-1.6-2.2-2.9-2.2c-2.3,0-3.3,2.1-3.3,4.3
		s1,4.2,3.4,4.2c1.4,0,2.4-0.8,2.9-2.2l1.4,0.5c-0.7,2-2.3,3-4.3,3C167,696.2,165.2,693.6,165.2,690.6z"/>
	<path d="M184.3,695.9c-0.6,0.2-1.1,0.3-1.7,0.3c-1.5,0-2.5-0.8-2.5-2.7v-7h-1.8v-1.3h1.8v-2.8l1.5-1.1v4h2.6v1.3h-2.6v6.8
		c0,1.1,0.5,1.5,1.3,1.5c0.4,0,0.8-0.1,1.3-0.2L184.3,695.9z"/>
	<path d="M197.8,691h-7.9c0,2.4,1.4,3.8,3.5,3.8c1.2,0,2.1-0.3,3.1-1.4l1.1,0.9c-1.3,1.3-2.5,1.8-4.2,1.8c-3.3,0-5-2.5-5-5.5
		c0-3.1,1.7-5.7,4.8-5.7c3.3,0,4.7,2.6,4.7,5.1C197.8,690.3,197.8,690.7,197.8,691z M189.8,689.7h6.6c0,0,0-0.2,0-0.4
		c-0.1-1.8-1.2-3.1-3.2-3.1C191.2,686.2,190,687.8,189.8,689.7z"/>
	<path d="M209.8,685.4l-0.7,1.2c-0.5-0.2-1-0.3-1.4-0.3c-1.7,0-2.9,1.3-2.9,3.6v6.1h-1.5v-10.8h1.5v1.6c0.8-1.4,2.1-1.8,3.2-1.8
		C208.6,685,209.2,685.1,209.8,685.4z"/>
	<path d="M214.3,680.6h1.8v2.2h-1.8V680.6z M214.4,685.1h1.5V696h-1.5V685.1z"/>
	<path d="M221,693.3l1.3-0.6c0.4,1.1,1.5,2.1,3.1,2.1c1.5,0,2.4-0.7,2.4-1.9c0-2.9-6.2-1.1-6.2-4.9c0-1.9,1.5-3.1,3.7-3.1
		c1.7,0,3.1,0.7,3.9,2.3l-1.2,0.7c-0.5-1-1.4-1.6-2.7-1.6s-2.2,0.5-2.2,1.5c0,2.6,6.3,0.9,6.3,5.1c0,2.2-1.8,3.3-3.9,3.3
		C223.3,696.2,221.5,695.1,221,693.3z"/>
	<path d="M239.4,695.9c-0.6,0.2-1.1,0.3-1.7,0.3c-1.5,0-2.5-0.8-2.5-2.7v-7h-1.8v-1.3h1.8v-2.8l1.5-1.1v4h2.6v1.3h-2.6v6.8
		c0,1.1,0.5,1.5,1.3,1.5c0.4,0,0.8-0.1,1.3-0.2L239.4,695.9z"/>
	<path d="M244.2,680.6h1.8v2.2h-1.8V680.6z M244.3,685.1h1.5V696h-1.5V685.1z"/>
	<path d="M251.2,690.6c0-2.9,1.6-5.6,4.9-5.6c1.9,0,3.5,1,4.4,3l-1.5,0.6c-0.5-1.4-1.6-2.2-2.9-2.2c-2.3,0-3.3,2.1-3.3,4.3
		s1,4.2,3.4,4.2c1.4,0,2.4-0.8,2.9-2.2l1.4,0.5c-0.7,2-2.3,3-4.3,3C252.9,696.2,251.2,693.6,251.2,690.6z"/>
	<path d="M264.7,693.3l1.3-0.6c0.4,1.1,1.5,2.1,3.1,2.1c1.5,0,2.4-0.7,2.4-1.9c0-2.9-6.2-1.1-6.2-4.9c0-1.9,1.5-3.1,3.7-3.1
		c1.7,0,3.1,0.7,3.9,2.3l-1.2,0.7c-0.5-1-1.4-1.6-2.7-1.6c-1.3,0-2.2,0.5-2.2,1.5c0,2.6,6.3,0.9,6.3,5.1c0,2.2-1.8,3.3-3.9,3.3
		C267,696.2,265.3,695.1,264.7,693.3z"/>
	<path d="M295.3,689.2v6.8h-1.4l-0.1-1.7c-0.9,1.2-2.2,1.8-3.9,1.8c-2.4,0-3.7-1.2-3.7-3.3c0-1.1,0.4-1.9,1.2-2.4
		c0.8-0.5,2-0.7,4.1-0.7h2.2v-0.5c0-1.9-1-2.9-2.8-2.9c-1.4,0-2.4,0.6-3.3,1.8l-1.1-0.9c1.2-1.5,2.6-2.2,4.4-2.2
		C293.7,685,295.3,686.5,295.3,689.2z M293.8,691.1L293.8,691.1l-2.1-0.1c-2,0-2.9,0.1-3.4,0.6c-0.4,0.3-0.6,0.8-0.6,1.4
		c0,1.2,1,2,2.7,2C292.5,694.9,293.8,693.4,293.8,691.1z"/>
	<path d="M311.1,690.5c0,3.2-1.7,5.6-4.8,5.6c-1.6,0-2.8-0.6-3.6-1.6v1.5h-1.5v-15.3h1.5v5.9c0.8-1.1,2-1.6,3.6-1.6
		C309.3,684.9,311.1,687.2,311.1,690.5z M309.6,690.5c0-2.6-1.3-4.3-3.5-4.3s-3.5,1.7-3.5,4.3c0,2.5,1.2,4.3,3.5,4.3
		S309.6,693,309.6,690.5z"/>
	<path d="M316.5,693.6v-13h1.5v12.9c0,0.7,0.3,1.2,1,1.2c0.3,0,0.7-0.1,1-0.2v1.3c-0.5,0.2-1,0.3-1.5,0.3
		C317.3,696.2,316.5,695.3,316.5,693.6z"/>
	<path d="M333.3,691h-7.9c0,2.4,1.4,3.8,3.5,3.8c1.2,0,2.1-0.3,3.1-1.4l1.1,0.9c-1.3,1.3-2.5,1.8-4.2,1.8c-3.3,0-5-2.5-5-5.5
		c0-3.1,1.7-5.7,4.8-5.7c3.3,0,4.7,2.6,4.7,5.1C333.3,690.3,333.3,690.7,333.3,691z M325.3,689.7h6.6c0,0,0-0.2,0-0.4
		c-0.1-1.8-1.2-3.1-3.2-3.1C326.7,686.2,325.5,687.8,325.3,689.7z"/>
	<path d="M352,695.9c-0.6,0.2-1.1,0.3-1.7,0.3c-1.5,0-2.5-0.8-2.5-2.7v-7H346v-1.3h1.8v-2.8l1.5-1.1v4h2.6v1.3h-2.6v6.8
		c0,1.1,0.5,1.5,1.3,1.5c0.4,0,0.8-0.1,1.3-0.2L352,695.9z"/>
	<path d="M355.8,690.5c0-3.2,2.1-5.6,5.2-5.6s5.2,2.4,5.2,5.6c0,3.2-2.1,5.6-5.2,5.6S355.8,693.8,355.8,690.5z M364.7,690.5
		c0-2.5-1.4-4.2-3.7-4.2c-2.3,0-3.7,1.8-3.7,4.2c0,2.5,1.4,4.3,3.7,4.3C363.4,694.8,364.7,693,364.7,690.5z"/>
	<path d="M387,685.4l-0.7,1.2c-0.5-0.2-1-0.3-1.4-0.3c-1.7,0-2.9,1.3-2.9,3.6v6.1h-1.5v-10.8h1.5v1.6c0.8-1.4,2.1-1.8,3.2-1.8
		C385.8,685,386.4,685.1,387,685.4z"/>
	<path d="M399.8,691h-7.9c0,2.4,1.4,3.8,3.5,3.8c1.2,0,2.1-0.3,3.1-1.4l1.1,0.9c-1.3,1.3-2.5,1.8-4.2,1.8c-3.3,0-5-2.5-5-5.5
		c0-3.1,1.7-5.7,4.8-5.7c3.3,0,4.7,2.6,4.7,5.1C399.8,690.3,399.8,690.7,399.8,691z M391.8,689.7h6.6c0,0,0-0.2,0-0.4
		c-0.1-1.8-1.2-3.1-3.2-3.1C393.2,686.2,392,687.8,391.8,689.7z"/>
	<path d="M403.4,685.1h1.6l3.4,8.9l3.4-8.9h1.7l-4.4,10.8h-1.3L403.4,685.1z"/>
	<path d="M418.2,680.6h1.8v2.2h-1.8V680.6z M418.3,685.1h1.5V696h-1.5V685.1z"/>
	<path d="M424.5,685.1h1.6l3.4,8.9l3.4-8.9h1.7l-4.4,10.8H429L424.5,685.1z"/>
	<path d="M447.7,691h-7.9c0,2.4,1.4,3.8,3.5,3.8c1.2,0,2.1-0.3,3.1-1.4l1.1,0.9c-1.3,1.3-2.5,1.8-4.2,1.8c-3.3,0-5-2.5-5-5.5
		c0-3.1,1.7-5.7,4.8-5.7c3.3,0,4.7,2.6,4.7,5.1C447.8,690.3,447.8,690.7,447.7,691z M439.8,689.7h6.6c0,0,0-0.2,0-0.4
		c-0.1-1.8-1.2-3.1-3.2-3.1C441.1,686.2,439.9,687.8,439.8,689.7z"/>
	<path d="M461.8,680.6h1.8v2.2h-1.8V680.6z M461.9,685.1h1.5V696h-1.5V685.1z"/>
	<path d="M478.1,689.3v6.6h-1.5v-6.3c0-2.3-0.7-3.4-2.4-3.4c-2,0-3.2,1.8-3.2,4.8v4.9h-1.5v-10.8h1.5v1.6c0.7-1.1,2-1.8,3.6-1.8
		C476.9,685,478.1,686.5,478.1,689.3z"/>
	<path d="M488.5,695.9c-0.6,0.2-1.1,0.3-1.7,0.3c-1.5,0-2.5-0.8-2.5-2.7v-7h-1.8v-1.3h1.8v-2.8l1.5-1.1v4h2.6v1.3h-2.6v6.8
		c0,1.1,0.5,1.5,1.3,1.5c0.4,0,0.8-0.1,1.3-0.2L488.5,695.9z"/>
	<path d="M501.9,691H494c0,2.4,1.4,3.8,3.5,3.8c1.2,0,2.1-0.3,3.1-1.4l1.1,0.9c-1.3,1.3-2.5,1.8-4.2,1.8c-3.3,0-5-2.5-5-5.5
		c0-3.1,1.7-5.7,4.8-5.7c3.3,0,4.7,2.6,4.7,5.1C502,690.3,502,690.7,501.9,691z M494,689.7h6.6c0,0,0-0.2,0-0.4
		c-0.1-1.8-1.2-3.1-3.2-3.1C495.3,686.2,494.1,687.8,494,689.7z"/>
	<path d="M507.3,693.6v-13h1.5v12.9c0,0.7,0.3,1.2,1,1.2c0.3,0,0.7-0.1,1-0.2v1.3c-0.5,0.2-1,0.3-1.5,0.3
		C508.1,696.2,507.3,695.3,507.3,693.6z"/>
	<path d="M515.5,693.6v-13h1.5v12.9c0,0.7,0.3,1.2,1,1.2c0.3,0,0.7-0.1,1-0.2v1.3c-0.5,0.2-1,0.3-1.5,0.3
		C516.3,696.2,515.5,695.3,515.5,693.6z"/>
	<path d="M532.2,691h-7.9c0,2.4,1.4,3.8,3.5,3.8c1.2,0,2.1-0.3,3.1-1.4l1.1,0.9c-1.3,1.3-2.5,1.8-4.2,1.8c-3.3,0-5-2.5-5-5.5
		c0-3.1,1.7-5.7,4.8-5.7c3.3,0,4.7,2.6,4.7,5.1C532.3,690.3,532.3,690.7,532.2,691z M524.3,689.7h6.6c0,0,0-0.2,0-0.4
		c-0.1-1.8-1.2-3.1-3.2-3.1C525.6,686.2,524.4,687.8,524.3,689.7z"/>
	<path d="M536.9,690.6c0-2.9,1.6-5.6,4.9-5.6c1.9,0,3.5,1,4.4,3l-1.5,0.6c-0.5-1.4-1.6-2.2-2.9-2.2c-2.3,0-3.3,2.1-3.3,4.3
		s1,4.2,3.4,4.2c1.4,0,2.4-0.8,2.9-2.2l1.4,0.5c-0.7,2-2.3,3-4.3,3C538.7,696.2,536.9,693.6,536.9,690.6z"/>
	<path d="M556,695.9c-0.6,0.2-1.1,0.3-1.7,0.3c-1.5,0-2.5-0.8-2.5-2.7v-7H550v-1.3h1.8v-2.8l1.5-1.1v4h2.6v1.3h-2.6v6.8
		c0,1.1,0.5,1.5,1.3,1.5c0.4,0,0.8-0.1,1.3-0.2L556,695.9z"/>
	<path d="M569.4,685.1V696h-1.5v-1.6c-0.8,1.2-2.2,1.7-3.6,1.7c-2.5,0-3.5-1.7-3.5-4.4v-6.6h1.5v6.3c0,1.8,0.3,3.4,2.4,3.4
		c2.2,0,3.2-1.9,3.2-4.7v-5L569.4,685.1L569.4,685.1z"/>
	<path d="M583.8,689.2v6.8h-1.4l-0.1-1.7c-0.9,1.2-2.2,1.8-3.9,1.8c-2.4,0-3.7-1.2-3.7-3.3c0-1.1,0.4-1.9,1.2-2.4s2-0.7,4.1-0.7h2.2
		v-0.5c0-1.9-1-2.9-2.8-2.9c-1.4,0-2.4,0.6-3.3,1.8l-1.1-0.9c1.2-1.5,2.6-2.2,4.4-2.2C582.2,685,583.8,686.5,583.8,689.2z
		 M582.3,691.1L582.3,691.1l-2.1-0.1c-2,0-2.9,0.1-3.4,0.6c-0.4,0.3-0.6,0.8-0.6,1.4c0,1.2,1,2,2.7,2
		C581,694.9,582.3,693.4,582.3,691.1z"/>
	<path d="M589.6,693.6v-13h1.5v12.9c0,0.7,0.3,1.2,1,1.2c0.3,0,0.7-0.1,1-0.2v1.3c-0.5,0.2-1,0.3-1.5,0.3
		C590.5,696.2,589.6,695.3,589.6,693.6z"/>
	<path d="M97.8,728.6c0-2.9,1.6-5.6,4.9-5.6c1.9,0,3.5,1,4.4,3l-1.5,0.6c-0.5-1.4-1.6-2.2-2.9-2.2c-2.3,0-3.3,2.1-3.3,4.3
		s1,4.2,3.4,4.2c1.4,0,2.4-0.8,2.9-2.2l1.4,0.5c-0.7,2-2.3,3-4.3,3C99.6,734.2,97.8,731.6,97.8,728.6z"/>
	<path d="M120.6,723.1V734h-1.5v-1.6c-0.8,1.2-2.2,1.7-3.6,1.7c-2.5,0-3.5-1.7-3.5-4.4v-6.6h1.5v6.3c0,1.8,0.3,3.4,2.4,3.4
		c2.2,0,3.2-1.9,3.2-4.7v-5L120.6,723.1L120.6,723.1z"/>
	<path d="M133.3,723.4l-0.7,1.2c-0.5-0.2-1-0.3-1.4-0.3c-1.7,0-2.9,1.3-2.9,3.6v6.1h-1.5v-10.8h1.5v1.6c0.8-1.4,2.1-1.8,3.2-1.8
		C132.1,723,132.7,723.1,133.3,723.4z"/>
	<path d="M137.8,718.6h1.8v2.2h-1.8V718.6z M137.9,723.1h1.5V734h-1.5V723.1z"/>
	<path d="M144.7,728.5c0-3.2,2.1-5.6,5.2-5.6c3.1,0,5.2,2.4,5.2,5.6c0,3.2-2.1,5.6-5.2,5.6S144.7,731.8,144.7,728.5z M153.6,728.5
		c0-2.5-1.4-4.2-3.7-4.2s-3.7,1.8-3.7,4.2c0,2.5,1.4,4.3,3.7,4.3C152.2,732.8,153.6,731,153.6,728.5z"/>
	<path d="M159.4,731.3l1.3-0.6c0.4,1.1,1.5,2.1,3.1,2.1c1.5,0,2.4-0.7,2.4-1.9c0-2.9-6.2-1.1-6.2-4.9c0-1.9,1.5-3.1,3.7-3.1
		c1.7,0,3.1,0.7,3.9,2.3l-1.2,0.7c-0.5-1-1.4-1.6-2.7-1.6s-2.2,0.5-2.2,1.5c0,2.6,6.3,0.9,6.3,5.1c0,2.2-1.8,3.3-3.9,3.3
		C161.7,734.2,159.9,733.1,159.4,731.3z"/>
	<path d="M172.8,718.6h1.8v2.2h-1.8V718.6z M173,723.1h1.5V734H173V723.1z"/>
	<path d="M185.2,733.9c-0.6,0.2-1.1,0.3-1.7,0.3c-1.5,0-2.5-0.8-2.5-2.7v-7h-1.8v-1.3h1.8v-2.8l1.5-1.1v4h2.6v1.3h-2.6v6.8
		c0,1.1,0.5,1.5,1.3,1.5c0.4,0,0.8-0.1,1.3-0.2L185.2,733.9z"/>
	<path d="M194,733.8l-4.6-10.7h1.7l3.7,8.9l3.3-8.9h1.7l-5.9,15.3h-1.6L194,733.8z"/>
	<path d="M221.3,727.2v6.8h-1.4l-0.1-1.7c-0.9,1.2-2.2,1.8-3.9,1.8c-2.4,0-3.7-1.2-3.7-3.3c0-1.1,0.4-1.9,1.2-2.4s2-0.7,4.1-0.7h2.2
		v-0.5c0-1.9-1-2.9-2.8-2.9c-1.4,0-2.4,0.6-3.3,1.8l-1.1-0.9c1.2-1.5,2.6-2.2,4.4-2.2C219.7,723,221.3,724.5,221.3,727.2z
		 M219.8,729.1L219.8,729.1l-2.1-0.1c-2,0-2.9,0.1-3.4,0.6c-0.4,0.3-0.6,0.8-0.6,1.4c0,1.2,1,2,2.7,2
		C218.5,732.9,219.8,731.4,219.8,729.1z"/>
	<path d="M235.9,727.3v6.6h-1.5v-6.3c0-2.3-0.7-3.4-2.4-3.4c-2,0-3.2,1.8-3.2,4.8v4.9h-1.5v-10.8h1.5v1.6c0.7-1.1,2-1.8,3.6-1.8
		C234.7,723,235.9,724.5,235.9,727.3z"/>
	<path d="M251,718.6V734h-1.5v-1.5c-0.8,1-2,1.6-3.6,1.6c-3.2,0-4.8-2.4-4.8-5.6c0-3.4,1.8-5.6,4.8-5.6c1.5,0,2.8,0.6,3.6,1.6v-5.9
		H251z M249.7,728.5c0-2.6-1.3-4.3-3.5-4.3s-3.5,1.7-3.5,4.3c0,2.5,1.2,4.3,3.5,4.3S249.7,731,249.7,728.5z"/>
	<path d="M266,718.6h1.8v2.2H266V718.6z M266.1,723.1h1.5V734h-1.5V723.1z"/>
	<path d="M282.3,727.3v6.6h-1.5v-6.3c0-2.3-0.7-3.4-2.4-3.4c-2,0-3.2,1.8-3.2,4.8v4.9h-1.5v-10.8h1.5v1.6c0.7-1.1,2-1.8,3.6-1.8
		C281.1,723,282.3,724.5,282.3,727.3z"/>
	<path d="M292.7,733.9c-0.6,0.2-1.1,0.3-1.7,0.3c-1.5,0-2.5-0.8-2.5-2.7v-7h-1.8v-1.3h1.8v-2.8l1.5-1.1v4h2.6v1.3H290v6.8
		c0,1.1,0.5,1.5,1.3,1.5c0.4,0,0.8-0.1,1.3-0.2L292.7,733.9z"/>
	<path d="M306.2,729h-7.9c0,2.4,1.4,3.8,3.5,3.8c1.2,0,2.1-0.3,3.1-1.4l1.1,0.9c-1.3,1.3-2.5,1.8-4.2,1.8c-3.3,0-5-2.5-5-5.5
		c0-3.1,1.7-5.7,4.8-5.7c3.3,0,4.7,2.6,4.7,5.1C306.2,728.3,306.2,728.7,306.2,729z M298.2,727.7h6.6c0,0,0-0.2,0-0.4
		c-0.1-1.8-1.2-3.1-3.2-3.1S298.3,725.8,298.2,727.7z"/>
	<path d="M318.2,723.4l-0.7,1.2c-0.5-0.2-1-0.3-1.4-0.3c-1.7,0-2.9,1.3-2.9,3.6v6.1h-1.5v-10.8h1.5v1.6c0.8-1.4,2.1-1.8,3.2-1.8
		C316.9,723,317.6,723.1,318.2,723.4z"/>
	<path d="M332.7,728.5c0,3.2-1.7,5.6-4.8,5.6c-1.6,0-2.8-0.6-3.6-1.6v5.9h-1.5v-15.3h1.5v1.5c0.8-1.1,2-1.6,3.6-1.6
		C330.9,722.9,332.7,725.2,332.7,728.5z M331.2,728.5c0-2.6-1.3-4.3-3.5-4.3s-3.5,1.7-3.5,4.3c0,2.5,1.2,4.3,3.5,4.3
		S331.2,731,331.2,728.5z"/>
	<path d="M344.7,723.4l-0.7,1.2c-0.5-0.2-1-0.3-1.4-0.3c-1.7,0-2.9,1.3-2.9,3.6v6.1h-1.5v-10.8h1.5v1.6c0.8-1.4,2.1-1.8,3.2-1.8
		C343.5,723,344.1,723.1,344.7,723.4z"/>
	<path d="M357.5,729h-7.9c0,2.4,1.4,3.8,3.5,3.8c1.2,0,2.1-0.3,3.1-1.4l1.1,0.9c-1.3,1.3-2.5,1.8-4.2,1.8c-3.3,0-5-2.5-5-5.5
		c0-3.1,1.7-5.7,4.8-5.7c3.3,0,4.7,2.6,4.7,5.1C357.6,728.3,357.6,728.7,357.5,729z M349.6,727.7h6.6c0,0,0-0.2,0-0.4
		c-0.1-1.8-1.2-3.1-3.2-3.1C350.9,724.2,349.7,725.8,349.6,727.7z"/>
	<path d="M367.4,733.9c-0.6,0.2-1.1,0.3-1.7,0.3c-1.5,0-2.5-0.8-2.5-2.7v-7h-1.8v-1.3h1.8v-2.8l1.5-1.1v4h2.6v1.3h-2.6v6.8
		c0,1.1,0.5,1.5,1.3,1.5c0.4,0,0.8-0.1,1.3-0.2L367.4,733.9z"/>
	<path d="M385.8,733.9c-0.6,0.2-1.1,0.3-1.7,0.3c-1.5,0-2.5-0.8-2.5-2.7v-7h-1.8v-1.3h1.8v-2.8l1.5-1.1v4h2.6v1.3h-2.6v6.8
		c0,1.1,0.5,1.5,1.3,1.5c0.4,0,0.8-0.1,1.3-0.2L385.8,733.9z"/>
	<path d="M399.4,727.3v6.6h-1.5v-6.3c0-2.4-0.7-3.4-2.4-3.4c-2.1,0-3.2,1.7-3.2,4.7v5h-1.5v-15.3h1.5v6.1c0.7-1.1,2-1.8,3.6-1.8
		C398.2,723,399.4,724.5,399.4,727.3z"/>
	<path d="M414.1,729h-7.9c0,2.4,1.4,3.8,3.5,3.8c1.2,0,2.1-0.3,3.1-1.4l1.1,0.9c-1.3,1.3-2.5,1.8-4.2,1.8c-3.3,0-5-2.5-5-5.5
		c0-3.1,1.7-5.7,4.8-5.7c3.3,0,4.7,2.6,4.7,5.1C414.1,728.3,414.1,728.7,414.1,729z M406.1,727.7h6.6c0,0,0-0.2,0-0.4
		c-0.1-1.8-1.2-3.1-3.2-3.1S406.3,725.8,406.1,727.7z"/>
	<path d="M436.8,729h-7.9c0,2.4,1.4,3.8,3.5,3.8c1.2,0,2.1-0.3,3.1-1.4l1.1,0.9c-1.3,1.3-2.5,1.8-4.2,1.8c-3.3,0-5-2.5-5-5.5
		c0-3.1,1.7-5.7,4.8-5.7c3.3,0,4.7,2.6,4.7,5.1C436.9,728.3,436.9,728.7,436.8,729z M428.9,727.7h6.6c0,0,0-0.2,0-0.4
		c-0.1-1.8-1.2-3.1-3.2-3.1C430.2,724.2,429,725.8,428.9,727.7z"/>
	<path d="M440.5,723.1h1.6l3.4,8.9l3.4-8.9h1.7l-4.4,10.8h-1.3L440.5,723.1z"/>
	<path d="M454.2,728.5c0-3.2,2.1-5.6,5.2-5.6s5.2,2.4,5.2,5.6c0,3.2-2.1,5.6-5.2,5.6S454.2,731.8,454.2,728.5z M463,728.5
		c0-2.5-1.4-4.2-3.7-4.2c-2.3,0-3.7,1.8-3.7,4.2c0,2.5,1.4,4.3,3.7,4.3C461.7,732.8,463,731,463,728.5z"/>
	<path d="M469.8,731.6v-13h1.5v12.9c0,0.7,0.3,1.2,1,1.2c0.3,0,0.7-0.1,1-0.2v1.3c-0.5,0.2-1,0.3-1.5,0.3
		C470.6,734.2,469.8,733.3,469.8,731.6z"/>
	<path d="M486.4,723.1V734h-1.5v-1.6c-0.8,1.2-2.2,1.7-3.6,1.7c-2.5,0-3.5-1.7-3.5-4.4v-6.6h1.5v6.3c0,1.8,0.3,3.4,2.4,3.4
		c2.2,0,3.2-1.9,3.2-4.7v-5L486.4,723.1L486.4,723.1z"/>
	<path d="M497.1,733.9c-0.6,0.2-1.1,0.3-1.7,0.3c-1.5,0-2.5-0.8-2.5-2.7v-7h-1.8v-1.3h1.8v-2.8l1.5-1.1v4h2.6v1.3h-2.6v6.8
		c0,1.1,0.5,1.5,1.3,1.5c0.4,0,0.8-0.1,1.3-0.2L497.1,733.9z"/>
	<path d="M501.9,718.6h1.8v2.2h-1.8V718.6z M502.1,723.1h1.5V734h-1.5V723.1z"/>
	<path d="M508.9,728.5c0-3.2,2.1-5.6,5.2-5.6s5.2,2.4,5.2,5.6c0,3.2-2.1,5.6-5.2,5.6S508.9,731.8,508.9,728.5z M517.8,728.5
		c0-2.5-1.4-4.2-3.7-4.2s-3.7,1.8-3.7,4.2c0,2.5,1.4,4.3,3.7,4.3C516.4,732.8,517.8,731,517.8,728.5z"/>
	<path d="M533.3,727.3v6.6h-1.5v-6.3c0-2.3-0.7-3.4-2.4-3.4c-2,0-3.2,1.8-3.2,4.8v4.9h-1.5v-10.8h1.5v1.6c0.7-1.1,2-1.8,3.6-1.8
		C532.1,723,533.3,724.5,533.3,727.3z"/>
	<path d="M97.7,766.5c0-3.2,2.1-5.6,5.2-5.6s5.2,2.4,5.2,5.6c0,3.2-2.1,5.6-5.2,5.6S97.7,769.8,97.7,766.5z M106.6,766.5
		c0-2.5-1.4-4.2-3.7-4.2c-2.3,0-3.7,1.8-3.7,4.2c0,2.5,1.4,4.3,3.7,4.3C105.3,770.8,106.6,769,106.6,766.5z"/>
	<path d="M114,762.4h-2.3v-1.3h2.3v-1.7c0-2.3,1.3-3,2.7-3c0.6,0,1.3,0.1,1.9,0.4l-0.5,1.2c-0.5-0.2-0.9-0.4-1.3-0.4
		c-0.9,0-1.4,0.6-1.4,1.6v1.8h3.1v1.3h-3.1v9.6H114V762.4z"/>
	<path d="M131.2,766.6c0-2.9,1.6-5.6,4.9-5.6c1.9,0,3.5,1,4.4,3l-1.5,0.6c-0.5-1.4-1.6-2.2-2.9-2.2c-2.3,0-3.3,2.1-3.3,4.3
		s1,4.2,3.4,4.2c1.4,0,2.4-0.8,2.9-2.2l1.4,0.5c-0.7,2-2.3,3-4.3,3C133,772.2,131.2,769.6,131.2,766.6z"/>
	<path d="M144.8,766.5c0-3.2,2.1-5.6,5.2-5.6c3.1,0,5.2,2.4,5.2,5.6c0,3.2-2.1,5.6-5.2,5.6S144.8,769.8,144.8,766.5z M153.6,766.5
		c0-2.5-1.4-4.2-3.7-4.2s-3.7,1.8-3.7,4.2c0,2.5,1.4,4.3,3.7,4.3C152.3,770.8,153.6,769,153.6,766.5z"/>
	<path d="M169.1,765.3v6.6h-1.5v-6.3c0-2.3-0.7-3.4-2.4-3.4c-2,0-3.2,1.8-3.2,4.8v4.9h-1.5v-10.8h1.5v1.6c0.7-1.1,2-1.8,3.6-1.8
		C167.9,761,169.1,762.5,169.1,765.3z"/>
	<path d="M179.5,771.9c-0.6,0.2-1.1,0.3-1.7,0.3c-1.5,0-2.5-0.8-2.5-2.7v-7h-1.8v-1.3h1.8v-2.8l1.5-1.1v4h2.6v1.3h-2.6v6.8
		c0,1.1,0.5,1.5,1.3,1.5c0.4,0,0.8-0.1,1.3-0.2L179.5,771.9z"/>
	<path d="M193,767h-8c0,2.4,1.4,3.8,3.5,3.8c1.2,0,2.1-0.3,3.1-1.4l1.1,0.9c-1.3,1.3-2.5,1.8-4.2,1.8c-3.3,0-5-2.5-5-5.5
		c0-3.1,1.7-5.7,4.8-5.7c3.3,0,4.7,2.6,4.7,5.1C193,766.3,193,766.7,193,767z M185,765.7h6.6c0,0,0-0.2,0-0.4
		c-0.1-1.8-1.2-3.1-3.2-3.1C186.4,762.2,185.1,763.8,185,765.7z"/>
	<path d="M213.2,765.2v6.8h-1.5v-6.4c0-0.9,0-3.3-2.4-3.3c-2.2,0-2.8,2-2.8,4.5v5.2H205v-6.3c0-1.8-0.5-3.4-2.4-3.4
		c-2.1,0-2.7,2-2.7,4.5v5.2h-1.5v-10.8h1.5v1.3c0.7-1.1,1.8-1.5,3-1.5c1.5,0,2.6,0.7,3.2,2.1c0.7-1.4,1.9-2.1,3.6-2.1
		C212.2,761,213.2,762.7,213.2,765.2z"/>
	<path d="M229.1,766.5c0,3.2-1.7,5.6-4.8,5.6c-1.6,0-2.8-0.6-3.6-1.6v5.9h-1.5v-15.3h1.5v1.5c0.8-1.1,2-1.6,3.6-1.6
		C227.3,760.9,229.1,763.2,229.1,766.5z M227.6,766.5c0-2.6-1.3-4.3-3.5-4.3s-3.5,1.7-3.5,4.3c0,2.5,1.2,4.3,3.5,4.3
		C226.4,770.8,227.6,769,227.6,766.5z"/>
	<path d="M233.8,766.5c0-3.2,2.1-5.6,5.2-5.6c3.1,0,5.2,2.4,5.2,5.6c0,3.2-2.1,5.6-5.2,5.6S233.8,769.8,233.8,766.5z M242.7,766.5
		c0-2.5-1.4-4.2-3.7-4.2s-3.7,1.8-3.7,4.2c0,2.5,1.4,4.3,3.7,4.3S242.7,769,242.7,766.5z"/>
	<path d="M256.1,761.4l-0.7,1.2c-0.5-0.2-1-0.3-1.4-0.3c-1.7,0-2.9,1.3-2.9,3.6v6.1h-1.5v-10.8h1.5v1.6c0.8-1.4,2.1-1.8,3.2-1.8
		C254.9,761,255.5,761.1,256.1,761.4z"/>
	<path d="M268.7,765.2v6.8h-1.4l-0.1-1.7c-0.9,1.2-2.2,1.8-3.9,1.8c-2.4,0-3.7-1.2-3.7-3.3c0-1.1,0.4-1.9,1.2-2.4
		c0.8-0.5,2-0.7,4.1-0.7h2.2v-0.5c0-1.9-1-2.9-2.8-2.9c-1.4,0-2.4,0.6-3.3,1.8l-1.1-0.9c1.2-1.5,2.6-2.2,4.4-2.2
		C267.2,761,268.7,762.5,268.7,765.2z M267.2,767.1L267.2,767.1l-2.1-0.1c-2,0-2.9,0.1-3.4,0.6c-0.4,0.3-0.6,0.8-0.6,1.4
		c0,1.2,1,2,2.7,2C265.9,770.9,267.2,769.4,267.2,767.1z"/>
	<path d="M281.2,761.4l-0.7,1.2c-0.5-0.2-1-0.3-1.4-0.3c-1.7,0-2.9,1.3-2.9,3.6v6.1h-1.5v-10.8h1.5v1.6c0.8-1.4,2.1-1.8,3.2-1.8
		C280,761,280.6,761.1,281.2,761.4z"/>
	<path d="M289.6,771.8l-4.6-10.7h1.7l3.7,8.9l3.3-8.9h1.7l-5.9,15.3h-1.6L289.6,771.8z"/>
	<path d="M307.8,769.3l1.3-0.6c0.4,1.1,1.5,2.1,3.1,2.1c1.5,0,2.4-0.7,2.4-1.9c0-2.9-6.2-1.1-6.2-4.9c0-1.9,1.5-3.1,3.7-3.1
		c1.7,0,3.1,0.7,3.9,2.3l-1.2,0.7c-0.5-1-1.4-1.6-2.7-1.6c-1.3,0-2.2,0.5-2.2,1.5c0,2.6,6.3,0.9,6.3,5.1c0,2.2-1.8,3.3-3.9,3.3
		C310.1,772.2,308.3,771.1,307.8,769.3z"/>
	<path d="M320.6,766.5c0-3.2,2.1-5.6,5.2-5.6s5.2,2.4,5.2,5.6c0,3.2-2.1,5.6-5.2,5.6S320.6,769.8,320.6,766.5z M329.5,766.5
		c0-2.5-1.4-4.2-3.7-4.2c-2.3,0-3.7,1.8-3.7,4.2c0,2.5,1.4,4.3,3.7,4.3S329.5,769,329.5,766.5z"/>
	<path d="M335.6,766.6c0-2.9,1.6-5.6,4.9-5.6c1.9,0,3.5,1,4.4,3l-1.5,0.6c-0.5-1.4-1.6-2.2-2.9-2.2c-2.3,0-3.3,2.1-3.3,4.3
		s1,4.2,3.4,4.2c1.4,0,2.4-0.8,2.9-2.2l1.4,0.5c-0.7,2-2.3,3-4.3,3C337.4,772.2,335.6,769.6,335.6,766.6z"/>
	<path d="M349.8,756.6h1.8v2.2h-1.8V756.6z M349.9,761.1h1.5V772h-1.5V761.1z"/>
	<path d="M366.3,767h-7.9c0,2.4,1.4,3.8,3.5,3.8c1.2,0,2.1-0.3,3.1-1.4l1.1,0.9c-1.3,1.3-2.5,1.8-4.2,1.8c-3.3,0-5-2.5-5-5.5
		c0-3.1,1.7-5.7,4.8-5.7c3.3,0,4.7,2.6,4.7,5.1C366.3,766.3,366.3,766.7,366.3,767z M358.3,765.7h6.6c0,0,0-0.2,0-0.4
		c-0.1-1.8-1.2-3.1-3.2-3.1C359.7,762.2,358.4,763.8,358.3,765.7z"/>
	<path d="M376.1,771.9c-0.6,0.2-1.1,0.3-1.7,0.3c-1.5,0-2.5-0.8-2.5-2.7v-7h-1.8v-1.3h1.8v-2.8l1.5-1.1v4h2.6v1.3h-2.6v6.8
		c0,1.1,0.5,1.5,1.3,1.5c0.4,0,0.8-0.1,1.3-0.2L376.1,771.9z"/>
	<path d="M384.8,771.8l-4.6-10.7h1.7l3.7,8.9l3.3-8.9h1.7l-5.9,15.3H383L384.8,771.8z"/>
	<path d="M394.8,769.6h2v2.4h-2V769.6z"/>
	<path d="M413.1,756.6h1.6V772h-1.6V756.6z"/>
	<path d="M425.9,771.9c-0.6,0.2-1.1,0.3-1.7,0.3c-1.5,0-2.5-0.8-2.5-2.7v-7h-1.8v-1.3h1.8v-2.8l1.5-1.1v4h2.6v1.3h-2.6v6.8
		c0,1.1,0.5,1.5,1.3,1.5c0.4,0,0.8-0.1,1.3-0.2L425.9,771.9z"/>
	<path d="M447.9,765.2v6.8h-1.4l-0.1-1.7c-0.9,1.2-2.2,1.8-3.9,1.8c-2.4,0-3.7-1.2-3.7-3.3c0-1.1,0.4-1.9,1.2-2.4
		c0.8-0.5,2-0.7,4.1-0.7h2.2v-0.5c0-1.9-1-2.9-2.8-2.9c-1.4,0-2.4,0.6-3.3,1.8l-1.1-0.9c1.2-1.5,2.6-2.2,4.4-2.2
		C446.3,761,447.9,762.5,447.9,765.2z M446.4,767.1L446.4,767.1l-2.1-0.1c-2,0-2.9,0.1-3.4,0.6c-0.4,0.3-0.6,0.8-0.6,1.4
		c0,1.2,1,2,2.7,2C445,770.9,446.4,769.4,446.4,767.1z"/>
	<path d="M453.7,769.6v-13h1.5v12.9c0,0.7,0.3,1.2,1,1.2c0.3,0,0.7-0.1,1-0.2v1.3c-0.5,0.2-1,0.3-1.5,0.3
		C454.5,772.2,453.7,771.3,453.7,769.6z"/>
	<path d="M461.2,769.3l1.3-0.6c0.4,1.1,1.5,2.1,3.1,2.1c1.5,0,2.4-0.7,2.4-1.9c0-2.9-6.2-1.1-6.2-4.9c0-1.9,1.5-3.1,3.7-3.1
		c1.7,0,3.1,0.7,3.9,2.3l-1.2,0.7c-0.5-1-1.4-1.6-2.7-1.6c-1.3,0-2.2,0.5-2.2,1.5c0,2.6,6.3,0.9,6.3,5.1c0,2.2-1.8,3.3-3.9,3.3
		C463.5,772.2,461.8,771.1,461.2,769.3z"/>
	<path d="M474,766.5c0-3.2,2.1-5.6,5.2-5.6s5.2,2.4,5.2,5.6c0,3.2-2.1,5.6-5.2,5.6S474,769.8,474,766.5z M482.9,766.5
		c0-2.5-1.4-4.2-3.7-4.2c-2.3,0-3.7,1.8-3.7,4.2c0,2.5,1.4,4.3,3.7,4.3S482.9,769,482.9,766.5z"/>
	<path d="M506.6,765.2v6.8h-1.4l-0.1-1.7c-0.9,1.2-2.2,1.8-3.9,1.8c-2.4,0-3.7-1.2-3.7-3.3c0-1.1,0.4-1.9,1.2-2.4
		c0.8-0.5,2-0.7,4.1-0.7h2.2v-0.5c0-1.9-1-2.9-2.8-2.9c-1.4,0-2.4,0.6-3.3,1.8l-1.1-0.9c1.2-1.5,2.6-2.2,4.4-2.2
		C505,761,506.6,762.5,506.6,765.2z M505.1,767.1L505.1,767.1L503,767c-2,0-2.9,0.1-3.4,0.6c-0.4,0.3-0.6,0.8-0.6,1.4
		c0,1.2,1,2,2.7,2C503.8,770.9,505.1,769.4,505.1,767.1z"/>
	<path d="M512.4,756.6h1.8v2.2h-1.8V756.6z M512.5,761.1h1.5V772h-1.5V761.1z"/>
	<path d="M535,765.2v6.8h-1.5v-6.4c0-0.9,0-3.3-2.4-3.3c-2.2,0-2.8,2-2.8,4.5v5.2h-1.5v-6.3c0-1.8-0.5-3.4-2.4-3.4
		c-2.1,0-2.7,2-2.7,4.5v5.2h-1.5v-10.8h1.5v1.3c0.7-1.1,1.8-1.5,3-1.5c1.5,0,2.6,0.7,3.2,2.1c0.7-1.4,1.9-2.1,3.6-2.1
		C533.9,761,535,762.7,535,765.2z"/>
	<path d="M539.9,769.3l1.3-0.6c0.4,1.1,1.5,2.1,3.1,2.1c1.5,0,2.4-0.7,2.4-1.9c0-2.9-6.2-1.1-6.2-4.9c0-1.9,1.5-3.1,3.7-3.1
		c1.7,0,3.1,0.7,3.9,2.3l-1.2,0.7c-0.5-1-1.4-1.6-2.7-1.6s-2.2,0.5-2.2,1.5c0,2.6,6.3,0.9,6.3,5.1c0,2.2-1.8,3.3-3.9,3.3
		C542.2,772.2,540.4,771.1,539.9,769.3z"/>
	<path d="M103.2,809.9c-0.6,0.2-1.1,0.3-1.7,0.3c-1.5,0-2.5-0.8-2.5-2.7v-7h-1.8v-1.3H99v-2.8l1.5-1.1v4h2.6v1.3h-2.6v6.8
		c0,1.1,0.5,1.5,1.3,1.5c0.4,0,0.8-0.1,1.3-0.2L103.2,809.9z"/>
	<path d="M107.1,804.5c0-3.2,2.1-5.6,5.2-5.6s5.2,2.4,5.2,5.6c0,3.2-2.1,5.6-5.2,5.6S107.1,807.8,107.1,804.5z M116,804.5
		c0-2.5-1.4-4.2-3.7-4.2c-2.3,0-3.7,1.8-3.7,4.2c0,2.5,1.4,4.3,3.7,4.3S116,807,116,804.5z"/>
	<path d="M130.7,804.6c0-2.9,1.6-5.6,4.9-5.6c1.9,0,3.5,1,4.4,3l-1.5,0.6c-0.5-1.4-1.6-2.2-2.9-2.2c-2.3,0-3.3,2.1-3.3,4.3
		s1,4.2,3.4,4.2c1.4,0,2.4-0.8,2.9-2.2l1.4,0.5c-0.7,2-2.3,3-4.3,3C132.5,810.2,130.7,807.6,130.7,804.6z"/>
	<path d="M151.6,799.4l-0.7,1.2c-0.5-0.2-1-0.3-1.4-0.3c-1.7,0-2.9,1.3-2.9,3.6v6.1H145v-10.8h1.5v1.6c0.8-1.4,2.1-1.8,3.2-1.8
		C150.4,799,151,799.1,151.6,799.4z"/>
	<path d="M164.4,805h-7.9c0,2.4,1.4,3.8,3.5,3.8c1.2,0,2.1-0.3,3.1-1.4l1.1,0.9c-1.3,1.3-2.5,1.8-4.2,1.8c-3.3,0-5-2.5-5-5.5
		c0-3.1,1.7-5.7,4.8-5.7c3.3,0,4.7,2.6,4.7,5.1C164.5,804.3,164.5,804.7,164.4,805z M156.5,803.7h6.6c0,0,0-0.2,0-0.4
		c-0.1-1.8-1.2-3.1-3.2-3.1C157.8,800.2,156.6,801.8,156.5,803.7z"/>
	<path d="M178,803.2v6.8h-1.4l-0.1-1.7c-0.9,1.2-2.2,1.8-3.9,1.8c-2.4,0-3.7-1.2-3.7-3.3c0-1.1,0.4-1.9,1.2-2.4s2-0.7,4.1-0.7h2.2
		v-0.5c0-1.9-1-2.9-2.8-2.9c-1.4,0-2.4,0.6-3.3,1.8l-1.1-0.9c1.2-1.5,2.6-2.2,4.4-2.2C176.4,799,178,800.5,178,803.2z M176.4,805.1
		L176.4,805.1l-2.1-0.1c-2,0-2.9,0.1-3.4,0.5c-0.4,0.3-0.6,0.8-0.6,1.4c0,1.2,1,2,2.7,2C175.1,808.9,176.4,807.4,176.4,805.1z"/>
	<path d="M188.3,809.9c-0.6,0.2-1.1,0.3-1.7,0.3c-1.5,0-2.5-0.8-2.5-2.7v-7h-1.8v-1.3h1.8v-2.8l1.5-1.1v4h2.6v1.3h-2.6v6.8
		c0,1.1,0.5,1.5,1.3,1.5c0.4,0,0.8-0.1,1.3-0.2L188.3,809.9z"/>
	<path d="M201.7,805h-7.9c0,2.4,1.4,3.8,3.5,3.8c1.2,0,2.1-0.3,3.1-1.4l1.1,0.9c-1.3,1.3-2.5,1.8-4.2,1.8c-3.3,0-5-2.5-5-5.5
		c0-3.1,1.7-5.7,4.8-5.7c3.3,0,4.7,2.6,4.7,5.1C201.8,804.3,201.7,804.7,201.7,805z M193.7,803.7h6.6c0,0,0-0.2,0-0.4
		c-0.1-1.8-1.2-3.1-3.2-3.1S193.9,801.8,193.7,803.7z"/>
	<path d="M224,803.2v6.8h-1.4l-0.1-1.7c-0.9,1.2-2.2,1.8-3.9,1.8c-2.4,0-3.7-1.2-3.7-3.3c0-1.1,0.4-1.9,1.2-2.4s2-0.7,4.1-0.7h2.2
		v-0.5c0-1.9-1-2.9-2.8-2.9c-1.4,0-2.4,0.6-3.3,1.8l-1.1-0.9c1.2-1.5,2.6-2.2,4.4-2.2C222.4,799,224,800.5,224,803.2z M222.4,805.1
		L222.4,805.1l-2.1-0.1c-2,0-2.9,0.1-3.4,0.5c-0.4,0.3-0.6,0.8-0.6,1.4c0,1.2,1,2,2.7,2C221.1,808.9,222.4,807.4,222.4,805.1z"/>
	<path d="M238.5,803.3v6.6H237v-6.3c0-2.3-0.7-3.4-2.4-3.4c-2,0-3.2,1.8-3.2,4.8v4.9h-1.5v-10.8h1.5v1.6c0.7-1.1,2-1.8,3.6-1.8
		C237.3,799,238.5,800.4,238.5,803.3z"/>
	<path d="M253.2,794.6h1.8v2.2h-1.8V794.6z M253.3,799.1h1.5V810h-1.5V799.1z"/>
	<path d="M269.5,803.3v6.6H268v-6.3c0-2.3-0.7-3.4-2.4-3.4c-2,0-3.2,1.8-3.2,4.8v4.9h-1.5v-10.8h1.5v1.6c0.7-1.1,2-1.8,3.6-1.8
		C268.3,799,269.5,800.4,269.5,803.3z"/>
	<path d="M274.7,804.6c0-2.9,1.6-5.6,4.9-5.6c1.9,0,3.5,1,4.4,3l-1.5,0.6c-0.5-1.4-1.6-2.2-2.9-2.2c-2.3,0-3.3,2.1-3.3,4.3
		s1,4.2,3.4,4.2c1.4,0,2.4-0.8,2.9-2.2l1.4,0.5c-0.7,2-2.3,3-4.3,3C276.5,810.2,274.7,807.6,274.7,804.6z"/>
	<path d="M289,807.6v-13h1.5v12.9c0,0.7,0.3,1.2,1,1.2c0.3,0,0.7-0.1,1-0.2v1.3c-0.5,0.2-1,0.3-1.5,0.3
		C289.8,810.2,289,809.3,289,807.6z"/>
	<path d="M305.6,799.1V810h-1.5v-1.6c-0.8,1.2-2.2,1.7-3.6,1.7c-2.5,0-3.5-1.7-3.5-4.4v-6.6h1.5v6.3c0,1.8,0.3,3.4,2.4,3.4
		c2.2,0,3.2-1.9,3.2-4.7v-5L305.6,799.1L305.6,799.1z"/>
	<path d="M310.7,807.3l1.3-0.6c0.4,1.1,1.5,2.1,3.1,2.1c1.5,0,2.4-0.7,2.4-1.9c0-2.9-6.2-1.1-6.2-4.9c0-1.9,1.5-3.1,3.7-3.1
		c1.7,0,3.1,0.7,3.9,2.3l-1.2,0.7c-0.5-1-1.4-1.6-2.7-1.6c-1.3,0-2.2,0.6-2.2,1.5c0,2.6,6.3,0.9,6.3,5.1c0,2.2-1.8,3.3-3.9,3.3
		C313,810.2,311.2,809.1,310.7,807.3z"/>
	<path d="M324.2,794.6h1.8v2.2h-1.8V794.6z M324.3,799.1h1.5V810h-1.5V799.1z"/>
	<path d="M330.5,799.1h1.6l3.4,8.9l3.4-8.9h1.7l-4.4,10.8h-1.3L330.5,799.1z"/>
	<path d="M353.7,805h-7.9c0,2.4,1.4,3.8,3.5,3.8c1.2,0,2.1-0.3,3.1-1.4l1.1,0.9c-1.3,1.3-2.5,1.8-4.2,1.8c-3.3,0-5-2.5-5-5.5
		c0-3.1,1.7-5.7,4.8-5.7c3.3,0,4.7,2.6,4.7,5.1C353.8,804.3,353.7,804.7,353.7,805z M345.7,803.7h6.6c0,0,0-0.2,0-0.4
		c-0.1-1.8-1.2-3.1-3.2-3.1S345.9,801.8,345.7,803.7z"/>
	<path d="M366.5,799.1h1.6l2.3,8.6l2.9-8.6h1.4l2.8,8.6l2.4-8.6h1.6l-3.2,10.8h-1.4l-2.9-8.8l-2.9,8.8h-1.4L366.5,799.1z"/>
	<path d="M385.3,804.5c0-3.2,2.1-5.6,5.2-5.6s5.2,2.4,5.2,5.6c0,3.2-2.1,5.6-5.2,5.6S385.3,807.8,385.3,804.5z M394.2,804.5
		c0-2.5-1.4-4.2-3.7-4.2c-2.3,0-3.7,1.8-3.7,4.2c0,2.5,1.4,4.3,3.7,4.3C392.8,808.8,394.2,807,394.2,804.5z"/>
	<path d="M407.7,799.4l-0.7,1.2c-0.5-0.2-1-0.3-1.4-0.3c-1.7,0-2.9,1.3-2.9,3.6v6.1h-1.5v-10.8h1.5v1.6c0.8-1.4,2.1-1.8,3.2-1.8
		C406.5,799,407.1,799.1,407.7,799.4z"/>
	<path d="M412.3,794.6h1.5v10.2l5.4-5.7h2l-3.9,4.1l4.6,6.8h-1.8l-3.8-5.8l-2.5,2.6v3.2h-1.5L412.3,794.6L412.3,794.6z"/>
	<path d="M443.9,805H436c0,2.4,1.4,3.8,3.5,3.8c1.2,0,2.1-0.3,3.1-1.4l1.1,0.9c-1.3,1.3-2.5,1.8-4.2,1.8c-3.3,0-5-2.5-5-5.5
		c0-3.1,1.7-5.7,4.8-5.7c3.3,0,4.7,2.6,4.7,5.1C444,804.3,444,804.7,443.9,805z M436,803.7h6.6c0,0,0-0.2,0-0.4
		c-0.1-1.8-1.2-3.1-3.2-3.1C437.3,800.2,436.1,801.8,436,803.7z"/>
	<path d="M458,803.3v6.6h-1.5v-6.3c0-2.3-0.7-3.4-2.4-3.4c-2,0-3.2,1.8-3.2,4.8v4.9h-1.5v-10.8h1.5v1.6c0.7-1.1,2-1.8,3.6-1.8
		C456.8,799,458,800.4,458,803.3z"/>
	<path d="M462.1,799.1h1.6l3.4,8.9l3.4-8.9h1.7l-4.4,10.8h-1.3L462.1,799.1z"/>
	<path d="M476.8,794.6h1.8v2.2h-1.8V794.6z M477,799.1h1.5V810H477V799.1z"/>
	<path d="M491.2,799.4l-0.7,1.2c-0.5-0.2-1-0.3-1.4-0.3c-1.7,0-2.9,1.3-2.9,3.6v6.1h-1.5v-10.8h1.5v1.6c0.8-1.4,2.1-1.8,3.2-1.8
		C489.9,799,490.6,799.1,491.2,799.4z"/>
	<path d="M494.4,804.5c0-3.2,2.1-5.6,5.2-5.6s5.2,2.4,5.2,5.6c0,3.2-2.1,5.6-5.2,5.6S494.4,807.8,494.4,804.5z M503.3,804.5
		c0-2.5-1.4-4.2-3.7-4.2c-2.3,0-3.7,1.8-3.7,4.2c0,2.5,1.4,4.3,3.7,4.3S503.3,807,503.3,804.5z"/>
	<path d="M518.8,803.3v6.6h-1.5v-6.3c0-2.3-0.7-3.4-2.4-3.4c-2,0-3.2,1.8-3.2,4.8v4.9h-1.5v-10.8h1.5v1.6c0.7-1.1,2-1.8,3.6-1.8
		C517.6,799,518.8,800.4,518.8,803.3z"/>
	<path d="M539.6,803.2v6.8h-1.5v-6.4c0-0.9,0-3.3-2.4-3.3c-2.2,0-2.8,2-2.8,4.5v5.2h-1.5v-6.3c0-1.8-0.5-3.4-2.4-3.4
		c-2.1,0-2.7,2-2.7,4.5v5.2h-1.5v-10.8h1.5v1.3c0.7-1.1,1.8-1.5,3-1.5c1.5,0,2.6,0.7,3.2,2.1c0.7-1.4,1.9-2.1,3.6-2.1
		C538.5,799,539.6,800.7,539.6,803.2z"/>
	<path d="M554.3,805h-7.9c0,2.4,1.4,3.8,3.5,3.8c1.2,0,2.1-0.3,3.1-1.4l1.1,0.9c-1.3,1.3-2.5,1.8-4.2,1.8c-3.3,0-5-2.5-5-5.5
		c0-3.1,1.7-5.7,4.8-5.7c3.3,0,4.7,2.6,4.7,5.1C554.4,804.3,554.3,804.7,554.3,805z M546.4,803.7h6.6c0,0,0-0.2,0-0.4
		c-0.1-1.8-1.2-3.1-3.2-3.1C547.7,800.2,546.5,801.8,546.4,803.7z"/>
	<path d="M568.3,803.3v6.6h-1.5v-6.3c0-2.3-0.7-3.4-2.4-3.4c-2,0-3.2,1.8-3.2,4.8v4.9h-1.5v-10.8h1.5v1.6c0.7-1.1,2-1.8,3.6-1.8
		C567.1,799,568.3,800.4,568.3,803.3z"/>
	<path d="M578.7,809.9c-0.6,0.2-1.1,0.3-1.7,0.3c-1.5,0-2.5-0.8-2.5-2.7v-7h-1.8v-1.3h1.8v-2.8l1.5-1.1v4h2.6v1.3H576v6.8
		c0,1.1,0.5,1.5,1.3,1.5c0.4,0,0.8-0.1,1.3-0.2L578.7,809.9z"/>
	<path d="M103.2,847.9c-0.6,0.2-1.1,0.3-1.7,0.3c-1.5,0-2.5-0.8-2.5-2.7v-7h-1.8v-1.3H99v-2.8l1.5-1.1v4h2.6v1.3h-2.6v6.8
		c0,1.1,0.5,1.5,1.3,1.5c0.4,0,0.8-0.1,1.3-0.2L103.2,847.9z"/>
	<path d="M116.8,841.3v6.6h-1.5v-6.3c0-2.4-0.7-3.4-2.4-3.4c-2.1,0-3.2,1.7-3.2,4.7v5h-1.5v-15.3h1.5v6.1c0.7-1.1,2-1.8,3.6-1.8
		C115.6,837,116.8,838.4,116.8,841.3z"/>
	<path d="M131,841.2v6.8h-1.4l-0.1-1.7c-0.9,1.2-2.2,1.8-3.9,1.8c-2.4,0-3.7-1.2-3.7-3.3c0-1.1,0.4-1.9,1.2-2.4
		c0.8-0.5,2-0.7,4.1-0.7h2.2v-0.5c0-1.9-1-2.9-2.8-2.9c-1.4,0-2.4,0.6-3.3,1.8l-1.1-0.9c1.2-1.5,2.6-2.2,4.4-2.2
		C129.4,837,131,838.5,131,841.2z M129.5,843.1L129.5,843.1l-2.1-0.1c-2,0-2.9,0.1-3.4,0.5c-0.4,0.3-0.6,0.8-0.6,1.4
		c0,1.2,1,2,2.7,2C128.1,846.9,129.5,845.4,129.5,843.1z"/>
	<path d="M141.3,847.9c-0.6,0.2-1.1,0.3-1.7,0.3c-1.5,0-2.5-0.8-2.5-2.7v-7h-1.8v-1.3h1.8v-2.8l1.5-1.1v4h2.6v1.3h-2.6v6.8
		c0,1.1,0.5,1.5,1.3,1.5c0.4,0,0.8-0.1,1.3-0.2L141.3,847.9z"/>
	<path d="M163.3,841.2v6.8h-1.4l-0.1-1.7c-0.9,1.2-2.2,1.8-3.9,1.8c-2.4,0-3.7-1.2-3.7-3.3c0-1.1,0.4-1.9,1.2-2.4s2-0.7,4.1-0.7h2.2
		v-0.5c0-1.9-1-2.9-2.8-2.9c-1.4,0-2.4,0.6-3.3,1.8l-1.1-0.9c1.2-1.5,2.6-2.2,4.4-2.2C161.7,837,163.3,838.5,163.3,841.2z
		 M161.8,843.1L161.8,843.1l-2.1-0.1c-2,0-2.9,0.1-3.4,0.5c-0.4,0.3-0.6,0.8-0.6,1.4c0,1.2,1,2,2.7,2
		C160.5,846.9,161.8,845.4,161.8,843.1z"/>
	<path d="M169.1,845.6v-13h1.5v12.9c0,0.7,0.3,1.2,1,1.2c0.3,0,0.7-0.1,1-0.2v1.3c-0.5,0.2-1,0.3-1.5,0.3
		C170,848.2,169.1,847.3,169.1,845.6z"/>
	<path d="M177.4,845.6v-13h1.5v12.9c0,0.7,0.3,1.2,1,1.2c0.3,0,0.7-0.1,1-0.2v1.3c-0.5,0.2-1,0.3-1.5,0.3
		C178.2,848.2,177.4,847.3,177.4,845.6z"/>
	<path d="M184.6,842.5c0-3.2,2.1-5.6,5.2-5.6c3.1,0,5.2,2.4,5.2,5.6c0,3.2-2.1,5.6-5.2,5.6S184.6,845.8,184.6,842.5z M193.5,842.5
		c0-2.5-1.4-4.2-3.7-4.2s-3.7,1.8-3.7,4.2c0,2.5,1.4,4.3,3.7,4.3S193.5,845,193.5,842.5z"/>
	<path d="M198.8,837.1h1.6l2.3,8.6l2.9-8.6h1.4l2.8,8.6l2.4-8.6h1.6l-3.2,10.8h-1.4l-2.9-8.8l-2.9,8.8H202L198.8,837.1z"/>
	<path d="M217.4,845.3l1.3-0.6c0.4,1.1,1.5,2.1,3.1,2.1c1.5,0,2.4-0.7,2.4-1.9c0-2.9-6.2-1.1-6.2-4.9c0-1.9,1.5-3.1,3.7-3.1
		c1.7,0,3.1,0.7,3.9,2.3l-1.2,0.7c-0.5-1-1.4-1.6-2.7-1.6s-2.2,0.6-2.2,1.5c0,2.6,6.3,0.9,6.3,5.1c0,2.2-1.8,3.3-3.9,3.3
		C219.8,848.2,218,847.1,217.4,845.3z"/>
	<path d="M249.9,842.5c0,3.2-1.7,5.6-4.8,5.6c-1.6,0-2.8-0.6-3.6-1.6v5.9H240v-15.3h1.5v1.5c0.8-1.1,2-1.7,3.6-1.7
		C248,836.9,249.9,839.2,249.9,842.5z M248.3,842.5c0-2.6-1.3-4.3-3.5-4.3s-3.5,1.7-3.5,4.3c0,2.5,1.2,4.3,3.5,4.3
		S248.3,845,248.3,842.5z"/>
	<path d="M264.1,843h-7.9c0,2.4,1.4,3.8,3.5,3.8c1.2,0,2.1-0.3,3.1-1.4l1.1,0.9c-1.3,1.3-2.5,1.8-4.2,1.8c-3.3,0-5-2.5-5-5.5
		c0-3.1,1.7-5.7,4.8-5.7c3.3,0,4.7,2.6,4.7,5.1C264.1,842.3,264.1,842.7,264.1,843z M256.1,841.7h6.6c0,0,0-0.2,0-0.4
		c-0.1-1.8-1.2-3.1-3.2-3.1S256.2,839.8,256.1,841.7z"/>
	<path d="M268.7,842.5c0-3.2,2.1-5.6,5.2-5.6s5.2,2.4,5.2,5.6c0,3.2-2.1,5.6-5.2,5.6S268.7,845.8,268.7,842.5z M277.6,842.5
		c0-2.5-1.4-4.2-3.7-4.2c-2.3,0-3.7,1.8-3.7,4.2c0,2.5,1.4,4.3,3.7,4.3S277.6,845,277.6,842.5z"/>
	<path d="M294.4,842.5c0,3.2-1.7,5.6-4.8,5.6c-1.6,0-2.8-0.6-3.6-1.6v5.9h-1.5v-15.3h1.5v1.5c0.8-1.1,2-1.7,3.6-1.7
		C292.5,836.9,294.4,839.2,294.4,842.5z M292.8,842.5c0-2.6-1.3-4.3-3.5-4.3s-3.5,1.7-3.5,4.3c0,2.5,1.2,4.3,3.5,4.3
		C291.6,846.8,292.8,845,292.8,842.5z"/>
	<path d="M299.7,845.6v-13h1.5v12.9c0,0.7,0.3,1.2,1,1.2c0.3,0,0.7-0.1,1-0.2v1.3c-0.5,0.2-1,0.3-1.5,0.3
		C300.5,848.2,299.7,847.3,299.7,845.6z"/>
	<path d="M316.5,843h-7.9c0,2.4,1.4,3.8,3.5,3.8c1.2,0,2.1-0.3,3.1-1.4l1.1,0.9c-1.3,1.3-2.5,1.8-4.2,1.8c-3.3,0-5-2.5-5-5.5
		c0-3.1,1.7-5.7,4.8-5.7c3.3,0,4.7,2.6,4.7,5.1C316.6,842.3,316.5,842.7,316.5,843z M308.6,841.7h6.6c0,0,0-0.2,0-0.4
		c-0.1-1.8-1.2-3.1-3.2-3.1C309.9,838.2,308.7,839.8,308.6,841.7z"/>
	<path d="M335.2,847.9c-0.6,0.2-1.1,0.3-1.7,0.3c-1.5,0-2.5-0.8-2.5-2.7v-7h-1.8v-1.3h1.8v-2.8l1.5-1.1v4h2.6v1.3h-2.6v6.8
		c0,1.1,0.5,1.5,1.3,1.5c0.4,0,0.8-0.1,1.3-0.2L335.2,847.9z"/>
	<path d="M339.1,842.5c0-3.2,2.1-5.6,5.2-5.6s5.2,2.4,5.2,5.6c0,3.2-2.1,5.6-5.2,5.6S339.1,845.8,339.1,842.5z M347.9,842.5
		c0-2.5-1.4-4.2-3.7-4.2c-2.3,0-3.7,1.8-3.7,4.2c0,2.5,1.4,4.3,3.7,4.3C346.6,846.8,347.9,845,347.9,842.5z"/>
	<path d="M370.2,837.4l-0.7,1.2c-0.5-0.2-1-0.3-1.4-0.3c-1.7,0-2.9,1.3-2.9,3.6v6.1h-1.5v-10.8h1.5v1.6c0.8-1.4,2.1-1.8,3.2-1.8
		C369,837,369.6,837.1,370.2,837.4z"/>
	<path d="M383,843h-8c0,2.4,1.4,3.8,3.5,3.8c1.2,0,2.1-0.3,3.1-1.4l1.1,0.9c-1.3,1.3-2.5,1.8-4.2,1.8c-3.3,0-5-2.5-5-5.5
		c0-3.1,1.7-5.7,4.8-5.7c3.3,0,4.7,2.6,4.7,5.1C383.1,842.3,383,842.7,383,843z M375,841.7h6.6c0,0,0-0.2,0-0.4
		c-0.1-1.8-1.2-3.1-3.2-3.1S375.2,839.8,375,841.7z"/>
	<path d="M396.5,841.2v6.8h-1.4l-0.1-1.7c-0.9,1.2-2.2,1.8-3.9,1.8c-2.4,0-3.7-1.2-3.7-3.3c0-1.1,0.4-1.9,1.2-2.4
		c0.8-0.5,2-0.7,4.1-0.7h2.2v-0.5c0-1.9-1-2.9-2.8-2.9c-1.4,0-2.4,0.6-3.3,1.8l-1.1-0.9c1.2-1.5,2.6-2.2,4.4-2.2
		C394.9,837,396.5,838.5,396.5,841.2z M395,843.1L395,843.1l-2.1-0.1c-2,0-2.9,0.1-3.4,0.5c-0.4,0.3-0.6,0.8-0.6,1.4
		c0,1.2,1,2,2.7,2C393.7,846.9,395,845.4,395,843.1z"/>
	<path d="M401.7,842.6c0-2.9,1.6-5.6,4.9-5.6c1.9,0,3.5,1,4.4,3l-1.5,0.6c-0.5-1.4-1.6-2.2-2.9-2.2c-2.3,0-3.3,2.1-3.3,4.3
		s1,4.2,3.4,4.2c1.4,0,2.4-0.8,2.9-2.2l1.4,0.5c-0.7,2-2.3,3-4.3,3C403.5,848.2,401.7,845.6,401.7,842.6z"/>
	<path d="M424.7,841.3v6.6h-1.5v-6.3c0-2.4-0.7-3.4-2.4-3.4c-2.1,0-3.2,1.7-3.2,4.7v5H416v-15.3h1.5v6.1c0.7-1.1,2-1.8,3.6-1.8
		C423.5,837,424.7,838.4,424.7,841.3z"/>
	<path d="M444,847.9c-0.6,0.2-1.1,0.3-1.7,0.3c-1.5,0-2.5-0.8-2.5-2.7v-7H438v-1.3h1.8v-2.8l1.5-1.1v4h2.6v1.3h-2.6v6.8
		c0,1.1,0.5,1.5,1.3,1.5c0.4,0,0.8-0.1,1.3-0.2L444,847.9z"/>
	<path d="M457.6,841.3v6.6H456v-6.3c0-2.4-0.7-3.4-2.4-3.4c-2.1,0-3.2,1.7-3.2,4.7v5h-1.5v-15.3h1.5v6.1c0.7-1.1,2-1.8,3.6-1.8
		C456.4,837,457.6,838.4,457.6,841.3z"/>
	<path d="M472.2,843h-7.9c0,2.4,1.4,3.8,3.5,3.8c1.2,0,2.1-0.3,3.1-1.4l1.1,0.9c-1.3,1.3-2.5,1.8-4.2,1.8c-3.3,0-5-2.5-5-5.5
		c0-3.1,1.7-5.7,4.8-5.7c3.3,0,4.7,2.6,4.7,5.1C472.3,842.3,472.3,842.7,472.2,843z M464.3,841.7h6.6c0,0,0-0.2,0-0.4
		c-0.1-1.8-1.2-3.1-3.2-3.1C465.6,838.2,464.4,839.8,464.3,841.7z"/>
	<path d="M477.5,832.6h1.8v2.2h-1.8V832.6z M477.6,837.1h1.5V848h-1.5V837.1z"/>
	<path d="M491.8,837.4l-0.7,1.2c-0.5-0.2-1-0.3-1.4-0.3c-1.7,0-2.9,1.3-2.9,3.6v6.1h-1.5v-10.8h1.5v1.6c0.8-1.4,2.1-1.8,3.2-1.8
		C490.6,837,491.2,837.1,491.8,837.4z"/>
	<path d="M505.8,838.4h-2.3v-1.3h2.3v-1.7c0-2.3,1.3-3,2.7-3c0.6,0,1.3,0.1,1.9,0.4l-0.5,1.2c-0.5-0.2-0.9-0.4-1.3-0.4
		c-0.9,0-1.4,0.6-1.4,1.6v1.8h3.1v1.3h-3.1v9.6h-1.5L505.8,838.4L505.8,838.4z"/>
	<path d="M523.6,837.1V848h-1.5v-1.6c-0.8,1.2-2.2,1.7-3.6,1.7c-2.5,0-3.5-1.7-3.5-4.4v-6.6h1.5v6.3c0,1.8,0.3,3.4,2.4,3.4
		c2.2,0,3.2-1.9,3.2-4.7v-5L523.6,837.1L523.6,837.1z"/>
	<path d="M529.7,845.6v-13h1.5v12.9c0,0.7,0.3,1.2,1,1.2c0.3,0,0.7-0.1,1-0.2v1.3c-0.5,0.2-1,0.3-1.5,0.3
		C530.5,848.2,529.7,847.3,529.7,845.6z"/>
	<path d="M537.9,845.6v-13h1.5v12.9c0,0.7,0.3,1.2,1,1.2c0.3,0,0.7-0.1,1-0.2v1.3c-0.5,0.2-1,0.3-1.5,0.3
		C538.7,848.2,537.9,847.3,537.9,845.6z"/>
	<path d="M564.9,842.5c0,3.2-1.7,5.6-4.8,5.6c-1.6,0-2.8-0.6-3.6-1.6v5.9H555v-15.3h1.5v1.5c0.8-1.1,2-1.7,3.6-1.7
		C563.1,836.9,564.9,839.2,564.9,842.5z M563.4,842.5c0-2.6-1.3-4.3-3.5-4.3s-3.5,1.7-3.5,4.3c0,2.5,1.2,4.3,3.5,4.3
		S563.4,845,563.4,842.5z"/>
	<path d="M569.5,842.5c0-3.2,2.1-5.6,5.2-5.6c3.1,0,5.2,2.4,5.2,5.6c0,3.2-2.1,5.6-5.2,5.6S569.5,845.8,569.5,842.5z M578.4,842.5
		c0-2.5-1.4-4.2-3.7-4.2s-3.7,1.8-3.7,4.2c0,2.5,1.4,4.3,3.7,4.3C577.1,846.8,578.4,845,578.4,842.5z"/>
	<path d="M589.6,847.9c-0.6,0.2-1.1,0.3-1.7,0.3c-1.5,0-2.5-0.8-2.5-2.7v-7h-1.8v-1.3h1.8v-2.8l1.5-1.1v4h2.6v1.3H587v6.8
		c0,1.1,0.5,1.5,1.3,1.5c0.4,0,0.8-0.1,1.3-0.2V847.9z"/>
	<path d="M603,843h-7.9c0,2.4,1.4,3.8,3.5,3.8c1.2,0,2.1-0.3,3.1-1.4l1.1,0.9c-1.3,1.3-2.5,1.8-4.2,1.8c-3.3,0-5-2.5-5-5.5
		c0-3.1,1.7-5.7,4.8-5.7c3.3,0,4.7,2.6,4.7,5.1C603.1,842.3,603.1,842.7,603,843z M595.1,841.7h6.6c0,0,0-0.2,0-0.4
		c-0.1-1.8-1.2-3.1-3.2-3.1C596.4,838.2,595.2,839.8,595.1,841.7z"/>
	<path d="M617.1,841.3v6.6h-1.5v-6.3c0-2.3-0.7-3.4-2.4-3.4c-2,0-3.2,1.8-3.2,4.8v4.9h-1.5v-10.8h1.5v1.6c0.7-1.1,2-1.8,3.6-1.8
		C615.9,837,617.1,838.4,617.1,841.3z"/>
	<path d="M627.5,847.9c-0.6,0.2-1.1,0.3-1.7,0.3c-1.5,0-2.5-0.8-2.5-2.7v-7h-1.8v-1.3h1.8v-2.8l1.5-1.1v4h2.6v1.3h-2.6v6.8
		c0,1.1,0.5,1.5,1.3,1.5c0.4,0,0.8-0.1,1.3-0.2L627.5,847.9z"/>
	<path d="M632.3,832.6h1.8v2.2h-1.8V832.6z M632.4,837.1h1.5V848h-1.5V837.1z"/>
	<path d="M648.2,841.2v6.8h-1.4l-0.1-1.7c-0.9,1.2-2.2,1.8-3.9,1.8c-2.4,0-3.7-1.2-3.7-3.3c0-1.1,0.4-1.9,1.2-2.4s2-0.7,4.1-0.7h2.2
		v-0.5c0-1.9-1-2.9-2.8-2.9c-1.4,0-2.4,0.6-3.3,1.8l-1.1-0.9c1.2-1.5,2.6-2.2,4.4-2.2C646.6,837,648.2,838.5,648.2,841.2z
		 M646.7,843.1L646.7,843.1l-2.1-0.1c-2,0-2.9,0.1-3.4,0.5c-0.4,0.3-0.6,0.8-0.6,1.4c0,1.2,1,2,2.7,2
		C645.4,846.9,646.7,845.4,646.7,843.1z"/>
	<path d="M654.1,845.6v-13h1.5v12.9c0,0.7,0.3,1.2,1,1.2c0.3,0,0.7-0.1,1-0.2v1.3c-0.5,0.2-1,0.3-1.5,0.3
		C654.9,848.2,654.1,847.3,654.1,845.6z"/>
	<path d="M663.2,845.6h2v2.4h-2V845.6z"/>
</g>
<g>
	<path d="M109.9,497v1.6h-2.7v4h-1.7v-4h-8.4v-1.1l8.5-11.7h1.5V497H109.9z M105.5,497v-8.7l-6.2,8.7H105.5z"/>
	<path d="M121.3,485.9h1.6l-8.6,21.8h-1.6L121.3,485.9z"/>
	<path d="M137.4,497.2c0,3-2.5,5.6-5.7,5.6c-3.1,0-5.7-2.5-5.7-5.5c0-1,0.3-2.1,0.9-3l5-8.4h1.9l-3.9,6.3c0.9-0.3,1.9-0.5,3-0.3
		C135.4,492.3,137.4,494.5,137.4,497.2z M135.7,497.2c0-2.2-1.8-4-4-4s-4,1.8-4,4s1.8,4,4,4S135.7,499.4,135.7,497.2z"/>
</g>
</svg>
